<svg width="20" height="20" viewBox="0 0 20 20" fill="none" xmlns="http://www.w3.org/2000/svg">
<path d="M13.3796 2.22391C13.3849 1.99563 13.2988 1.78079 13.1534 1.62175L13.153 1.62136C12.9883 1.4416 12.7592 1.34676 12.5252 1.35009H8.75508H8.70663L12.7297 2.20977M13.3796 2.22391C13.3796 2.22509 13.3795 2.22628 13.3795 2.22746L12.7297 2.20977M13.3796 2.22391C13.3796 2.22266 13.3796 2.22141 13.3796 2.22016L12.7297 2.20977M13.3796 2.22391C13.348 4.12202 12.4239 5.26329 11.4942 5.9084C10.6244 6.51196 9.76167 6.67789 9.64539 6.69774M12.7297 2.20977C12.6768 5.5235 9.56485 6.05249 9.53458 6.05725M9.64539 6.69774C9.64557 6.69771 9.64575 6.69767 9.64592 6.69764L9.64656 6.69753L9.53458 6.05725M9.64539 6.69774C9.64114 6.69846 9.63789 6.69899 9.63567 6.69934L9.53458 6.05725M9.64539 6.69774L9.53458 6.05725M2 11.6919C1.35012 11.7045 1.35013 11.7048 1.35014 11.7052L1.35015 11.706L1.3502 11.708L1.35035 11.7139L1.35092 11.7325C1.35146 11.7478 1.35231 11.7691 1.35367 11.7958C1.3564 11.8492 1.36114 11.9248 1.36936 12.0193C1.38578 12.2081 1.41616 12.4738 1.47231 12.791C1.58406 13.4224 1.8007 14.274 2.22373 15.1336C2.64752 15.9946 3.28662 16.8796 4.24883 17.5487C5.2169 18.2219 6.47485 18.6504 8.0876 18.65L2 11.6919ZM2 11.6919L1.35012 11.7045M2 11.6919L1.35012 11.7045M1.34988 11.6919H1.35V7.90315C1.35 7.46307 1.6964 7.04505 2.19828 7.04505H15.6434C17.33 7.04505 18.65 8.47457 18.65 10.1684C18.65 11.862 17.3318 13.2918 15.6434 13.2918H14.6005C14.3905 14.1939 13.9781 15.3655 13.1619 16.3872C12.1475 17.6571 10.5432 18.65 8.08777 18.65L1.34988 11.6919ZM1.34988 11.6919L1.35012 11.7045M1.34988 11.6919L1.35012 11.7045M4.87896 6.41717C4.8804 6.41883 4.88185 6.42049 4.88331 6.42214L5.37073 5.99212L4.87472 6.41221C4.87613 6.41387 4.87754 6.41552 4.87896 6.41717ZM15.0946 10.1541C15.0946 9.8197 15.3454 9.60318 15.5889 9.60318C15.8328 9.60318 16.0831 9.82014 16.0831 10.1541C16.0831 10.487 15.8339 10.7035 15.5889 10.7035C15.3434 10.7035 15.0946 10.488 15.0946 10.1541Z" stroke="white" stroke-width="1.3"/>
</svg>
