<svg width="212" height="185" viewBox="0 0 212 185" fill="none" xmlns="http://www.w3.org/2000/svg">
<path d="M107.311 183.611C157.715 183.611 198.576 142.75 198.576 92.3456C198.576 41.9414 157.715 1.08075 107.311 1.08075C56.9068 1.08075 16.0461 41.9414 16.0461 92.3456C16.0461 142.75 56.9068 183.611 107.311 183.611Z" fill="#5A66FF" stroke="#181919" stroke-miterlimit="10"/>
<path d="M21.1086 63.383C23.1457 55.86 26.9577 48.8411 32.1613 43.0526C31.3545 47.1873 30.6688 51.4227 31.1125 55.6381C31.536 59.8332 33.1899 64.0486 36.3766 66.8319C38.8574 69.0102 42.0844 70.1598 45.3316 70.7245C46.0981 70.8657 46.8847 70.9665 47.6107 71.2086C48.8007 71.6119 49.8495 72.3582 50.858 73.1045C53.8631 75.3634 56.8683 78.1265 57.6549 81.7973C58.2802 84.7218 57.5541 88.2312 59.5306 90.1876C61.124 93.5357 64.0485 96.2383 67.5377 97.5493C71.4707 99.0217 75.9482 98.7595 79.7198 100.595C80.9703 101.2 82.1401 102.047 83.4915 102.43C81.5351 102.229 79.5585 102.269 77.6223 102.551C75.9281 102.793 74.254 103.217 72.5397 103.217C71.4505 103.217 70.3412 103.035 69.2723 102.793C62.6568 101.26 56.6465 96.5409 54.448 90.107C53.8026 88.2313 53.5001 86.2547 52.8749 84.3789C52.2698 82.5032 51.3017 80.6275 49.6882 79.4779C48.357 78.5299 46.7031 78.1467 45.0896 77.7837C43.8795 77.5215 42.6693 77.2391 41.56 76.6542C36.9212 77.6425 31.8789 77.2391 27.8048 74.839C23.7306 72.4389 19.959 67.6589 21.1086 63.383Z" fill="white"/>
<path d="M152.47 92.4466C154.931 90.8129 156.363 88.0094 157.23 85.2059C158.118 82.3822 158.541 79.4376 159.57 76.6744C161.95 70.301 167.234 65.4806 172.68 61.3862C176.996 58.139 181.756 54.8918 183.732 49.8697C184.378 48.2159 184.68 46.441 185.507 44.888C181.897 37.1027 176.109 31.1731 170.441 25.4249C169.352 24.3156 168.243 23.2063 166.972 22.2986C162.232 24.134 158.38 27.7645 155.657 31.9596C152.934 36.1548 151.22 40.9147 149.586 45.6544C149.143 46.9654 148.679 48.3167 148.719 49.7084C148.759 51.2009 149.344 52.7136 148.921 54.1456C147.932 59.5105 148.316 65.1175 150.675 69.8976C151.28 71.1077 152.007 72.2977 152.269 73.6087C152.47 74.597 152.43 75.6256 152.591 76.634C152.773 77.703 153.197 78.7316 153.358 79.8208C153.802 82.8865 152.672 86.1538 150.554 88.4329C149.869 89.159 148.941 89.9053 148.013 90.3086C145.714 91.3171 142.668 90.3894 140.349 89.4011C136.295 87.6867 131.898 85.9522 127.481 86.1337C123.064 86.3152 118.647 87.8682 115.42 90.8734C113.524 92.6482 112.112 94.8669 110.882 97.1662C109.47 99.8083 108.28 102.592 107.433 105.879C108.24 105.94 109.087 105.456 109.853 105.738C110.075 105.819 110.257 105.96 110.479 106.02C110.761 106.121 111.063 106.081 111.366 106.081C112.717 106.041 114.089 106.383 115.44 107.594C116.61 104.366 118.707 101.502 121.43 99.4251C122.298 98.7595 123.246 98.1746 124.274 97.7712C125.767 97.2065 127.4 97.0653 128.994 96.9443C133.713 96.5812 138.433 96.319 143.173 96.1375C144.887 96.077 146.642 96.0165 148.275 95.4518C149.909 94.9274 150.998 93.4348 152.47 92.4466Z" fill="white"/>
<mask id="mask0_393_19565" style="mask-type:luminance" maskUnits="userSpaceOnUse" x="107" y="22" width="79" height="86">
<path d="M152.471 92.7289C154.932 91.0952 156.364 88.2917 157.231 85.4882C158.118 82.6646 158.542 79.7199 159.57 76.9567C161.95 70.5833 167.235 65.7629 172.68 61.6686C176.996 58.4214 181.756 55.1741 183.733 50.152C184.378 48.4982 184.681 46.7233 185.508 45.1703C181.898 37.385 176.109 31.4553 170.442 25.7072C169.352 24.5979 168.243 23.4886 166.972 22.581C162.233 24.4164 158.38 28.0468 155.658 32.242C152.935 36.4371 151.22 41.197 149.587 45.9367C149.143 47.2477 148.679 48.599 148.72 49.9907C148.76 51.4832 149.345 52.9959 148.921 54.4279C147.933 59.7929 148.316 65.3999 150.676 70.1799C151.281 71.3901 152.007 72.58 152.269 73.891C152.471 74.8793 152.431 75.9079 152.592 76.9164C152.773 77.9853 153.197 79.0139 153.358 80.1031C153.802 83.1688 152.128 86.5571 149.889 88.4127C149.123 89.0581 148.477 89.8447 147.55 90.2481C145.25 91.2565 142.649 90.0464 140.329 89.0581C136.275 87.3438 131.878 86.2345 127.461 86.416C123.044 86.5975 118.627 88.1505 115.4 91.1557C113.504 92.9306 112.093 95.1492 110.862 97.4484C109.45 100.091 108.26 102.874 107.413 106.161C108.22 106.222 109.067 105.738 109.834 106.02C110.055 106.101 110.237 106.242 110.459 106.303C110.741 106.404 111.044 106.363 111.346 106.363C112.698 106.323 114.069 106.666 115.42 107.876C116.59 104.649 118.688 101.785 121.411 99.7074C122.278 99.0418 123.226 98.4569 124.254 98.0535C125.747 97.4888 127.381 97.3476 128.974 97.2266C133.694 96.8636 138.413 96.6013 143.153 96.4198C144.867 96.3593 146.622 96.2988 148.256 95.7341C149.909 95.2097 150.999 93.7172 152.471 92.7289Z" fill="white"/>
</mask>
<g mask="url(#mask0_393_19565)">
<path d="M184.378 0.334534L210.699 51.0798" stroke="black" stroke-miterlimit="10"/>
<path d="M180.002 5.31628L206.302 56.0616" stroke="black" stroke-miterlimit="10"/>
<path d="M175.604 10.298L201.925 61.0433" stroke="black" stroke-miterlimit="10"/>
<path d="M171.208 15.2798L197.528 66.0251" stroke="black" stroke-miterlimit="10"/>
<path d="M166.831 20.2615L193.132 71.0068" stroke="black" stroke-miterlimit="10"/>
<path d="M162.434 25.2433L188.755 75.9684" stroke="black" stroke-miterlimit="10"/>
<path d="M158.057 30.2251L184.358 80.9502" stroke="black" stroke-miterlimit="10"/>
<path d="M153.661 35.1866L179.961 85.9319" stroke="black" stroke-miterlimit="10"/>
<path d="M149.264 40.1684L175.585 90.9137" stroke="black" stroke-miterlimit="10"/>
<path d="M144.887 45.1501L171.188 95.8954" stroke="black" stroke-miterlimit="10"/>
<path d="M140.49 50.1319L166.791 100.877" stroke="black" stroke-miterlimit="10"/>
<path d="M136.094 55.1136L162.414 105.859" stroke="black" stroke-miterlimit="10"/>
<path d="M131.717 60.0954L158.017 110.821" stroke="black" stroke-miterlimit="10"/>
<path d="M127.32 65.0771L153.641 115.802" stroke="black" stroke-miterlimit="10"/>
<path d="M122.923 70.0387L149.244 120.784" stroke="black" stroke-miterlimit="10"/>
<path d="M118.546 75.0205L144.847 125.766" stroke="black" stroke-miterlimit="10"/>
<path d="M114.149 80.0022L140.47 130.748" stroke="black" stroke-miterlimit="10"/>
<path d="M109.773 84.984L136.073 135.729" stroke="black" stroke-miterlimit="10"/>
<path d="M105.376 89.9658L131.677 140.691" stroke="black" stroke-miterlimit="10"/>
<path d="M100.979 94.9475L127.3 145.673" stroke="black" stroke-miterlimit="10"/>
<path d="M96.6025 99.9091L122.903 150.654" stroke="black" stroke-miterlimit="10"/>
</g>
<mask id="mask1_393_19565" style="mask-type:luminance" maskUnits="userSpaceOnUse" x="20" y="42" width="72" height="72">
<path d="M88.9985 113.18C88.7363 112.313 87.9901 111.708 87.2842 111.143C86.2354 110.296 85.1866 109.469 84.1378 108.622C82.9075 107.634 81.6772 106.645 80.3057 105.859C75.6063 103.116 69.9186 102.854 64.7554 101.139C63.0813 100.574 61.4476 99.8686 60.0761 98.7593C57.313 96.5609 55.8608 93.112 54.7313 89.7639C53.6019 86.4159 52.6338 82.9064 50.4757 80.1029C48.4588 78.6911 46.5024 77.239 44.2031 76.6742C40.3307 75.7263 36.2162 77.481 32.3235 76.6137C31.2344 76.3717 30.2058 75.9279 29.2377 75.3834C24.7602 72.9429 21.2709 68.4049 20.7869 63.3223C22.6222 55.5572 26.2527 48.3367 31.2949 42.8709C30.8512 47.4896 30.3873 52.1688 31.2949 56.727C32.2025 61.2651 34.643 65.7426 38.7171 67.941C42.993 70.2604 48.6605 69.9983 52.0085 73.5077C52.8153 74.3548 53.4002 75.3431 54.0053 76.3515C55.8205 79.397 57.6559 82.4627 58.9063 85.7704C59.6728 87.8075 60.2375 89.9656 61.367 91.8211C62.7788 94.1607 65.0781 95.976 67.8009 96.7828C68.9505 98.4366 71.2095 98.7997 73.2062 99.0417C76.2517 99.4047 79.3577 99.8485 82.1007 101.26C84.1781 102.329 85.9328 103.923 87.5665 105.576C88.7162 106.726 91.2171 109.167 91.3583 110.841C91.4793 111.849 89.8456 111.829 88.9985 113.18Z" fill="white"/>
</mask>
<g mask="url(#mask1_393_19565)">
<path d="M20.9686 1.54456L-5.33179 52.2899" stroke="black" stroke-miterlimit="10"/>
<path d="M25.3247 7.57507L-0.99585 58.3002" stroke="black" stroke-miterlimit="10"/>
<path d="M29.6817 13.5854L3.36108 64.3307" stroke="black" stroke-miterlimit="10"/>
<path d="M34.0381 19.5958L7.71753 70.3411" stroke="black" stroke-miterlimit="10"/>
<path d="M38.3943 25.6264L12.0737 76.3515" stroke="black" stroke-miterlimit="10"/>
<path d="M42.7513 31.6367L16.4307 82.382" stroke="black" stroke-miterlimit="10"/>
<path d="M47.1075 37.6471L20.7869 88.3924" stroke="black" stroke-miterlimit="10"/>
<path d="M51.4644 43.6574L25.1438 94.4027" stroke="black" stroke-miterlimit="10"/>
<path d="M55.8206 49.688L29.5 100.413" stroke="black" stroke-miterlimit="10"/>
<path d="M60.1569 55.6984L33.8564 106.444" stroke="black" stroke-miterlimit="10"/>
<path d="M64.5137 61.7087L38.2133 112.454" stroke="black" stroke-miterlimit="10"/>
<path d="M68.87 67.7191L42.5696 118.464" stroke="black" stroke-miterlimit="10"/>
<path d="M73.2263 73.7496L46.9259 124.475" stroke="black" stroke-miterlimit="10"/>
<path d="M77.5831 79.7601L51.2827 130.505" stroke="black" stroke-miterlimit="10"/>
<path d="M81.9395 85.7704L55.639 136.516" stroke="black" stroke-miterlimit="10"/>
<path d="M86.2958 91.801L59.9954 142.526" stroke="black" stroke-miterlimit="10"/>
<path d="M90.6527 97.8113L64.3523 148.557" stroke="black" stroke-miterlimit="10"/>
<path d="M95.009 103.822L68.7086 154.567" stroke="black" stroke-miterlimit="10"/>
<path d="M99.3658 109.832L73.0654 160.577" stroke="black" stroke-miterlimit="10"/>
</g>
<path d="M193.736 65.0166C193.777 60.2365 190.368 56.2027 188.573 51.7655C187.605 49.3654 187.081 46.7233 185.447 44.7266C184.62 49.3251 182.502 54.3673 179.094 57.4128C175.685 60.4584 171.712 62.798 168.102 65.6015C164.491 68.405 161.123 71.7934 159.57 76.0894C158.178 79.9618 158.32 84.3385 156.464 88.0093C154.729 91.438 151.381 93.8382 147.791 95.1492C144.201 96.4601 140.309 96.8231 136.476 96.9845C132.402 97.166 128.247 97.1862 124.436 98.5779C120.603 99.9695 117.114 103.076 116.086 107.089C119.454 108.804 122.62 110.921 125.505 113.342C128.449 110.135 132.322 106.02 136.396 104.467C138.594 103.62 142.507 102.753 142.507 102.753C142.507 102.753 147.549 102.087 150.091 101.321C152.188 100.675 153.903 99.7073 155.516 98.1946C159.832 94.2012 164.068 94.4028 167.295 89.4816C168.949 86.9605 171.631 85.2461 174.495 84.278C177.359 83.3099 175.746 76.3718 178.751 76.2306C180.223 76.1499 181.695 76.1095 183.107 75.7465C188.25 74.5162 193.696 70.1597 193.736 65.0166Z" fill="#FF88B6"/>
<path d="M56.7677 17.1958C47.3689 21.7741 40.0677 29.7813 33.9565 38.2724C32.9077 39.7246 31.8791 41.2373 31.3951 42.9718C30.9312 44.6257 31.0118 46.3804 31.1127 48.1149C31.274 50.9789 31.4556 53.8228 31.6774 56.6868C31.7783 58.0986 31.9194 59.5709 32.5245 60.8416C33.1296 62.1122 34.1582 63.1207 35.1868 64.0686C37.2642 65.9847 39.4828 67.8201 42.004 69.1109C44.4444 70.3614 47.1067 71.0875 49.5472 72.3178C51.9876 73.5481 54.3071 75.4238 54.7105 78.0256C58.9258 82.2207 58.2804 89.5623 62.2335 93.9995C64.5529 96.6215 68.1229 97.7711 71.5516 98.4366C75.0005 99.1022 78.5503 99.4048 81.7773 100.776C86.4565 102.793 90.0668 107.15 91.1962 112.414C91.7408 111.123 92.8703 110.175 94.0804 109.489C95.2906 108.804 96.6217 108.36 97.852 107.472C94.8065 102.551 93.9997 95.9962 89.3609 92.5473C85.4884 89.643 80.184 89.885 75.5047 88.6345C69.9381 87.142 65.0168 83.2897 61.6083 78.2676C60.62 76.17 59.7527 74.012 58.8048 71.632C58.0787 62.7778 55.5172 54.0849 55.5576 45.1904C55.5777 41.8827 55.9609 38.575 56.3441 35.2673C57.1307 28.551 57.9173 21.7943 59.4905 15.2192C58.5224 16.0462 57.5341 16.8327 56.7677 17.1958Z" fill="#56B381"/>
<path d="M21.1907 62.5156C21.0697 69.2924 26.5758 75.7263 33.3123 76.6339C36.7612 77.0978 40.3109 76.2709 43.7397 76.9163C46.6843 77.481 49.4072 79.1954 51.2022 81.5955C54.9335 86.5974 54.5906 94.0801 59.1286 98.3761C63.344 102.37 69.8989 101.946 75.5059 103.479C81.0322 104.971 85.9333 108.642 88.9385 113.503" stroke="black" stroke-miterlimit="10" stroke-linecap="round" stroke-linejoin="round"/>
<path d="M193.636 62.5156C193.757 69.2924 188.251 75.7263 181.514 76.6339C178.065 77.0978 177.178 83.6729 173.749 84.3385C170.804 84.9032 168.082 86.6176 166.287 89.0177C162.555 94.0196 160.236 94.1003 155.718 98.3963C151.503 102.39 144.948 101.966 139.341 103.499C133.814 104.992 128.913 108.662 125.908 113.523" stroke="black" stroke-miterlimit="10" stroke-linecap="round" stroke-linejoin="round"/>
<path d="M108.219 105.133C108.542 99.1627 111.809 93.4145 116.75 90.0665C121.692 86.7184 128.227 85.8108 133.894 87.7067C138.553 89.2597 143.253 92.6279 147.891 91.0547C152.087 89.6429 154.063 84.6208 153.781 80.224C153.498 75.8069 151.542 71.6925 150.271 67.457C147.206 57.2515 148.194 45.8963 152.954 36.3563C155.818 30.6081 160.457 25.2432 166.709 23.7305" stroke="black" stroke-miterlimit="10" stroke-linecap="round" stroke-linejoin="round"/>
<path d="M184.418 43.4357C186.072 56.5456 173.709 60.0147 162.636 71.0875C157.916 75.9885 159.469 82.9469 156.04 88.8362C147.509 104.588 124.375 89.3808 116.086 105.919" stroke="black" stroke-miterlimit="10" stroke-linecap="round" stroke-linejoin="round"/>
<path d="M59.2485 14.9167C55.4164 30.4468 54.8516 46.7636 57.5946 62.5358C58.5829 68.2235 60.0351 73.9313 63.0806 78.8324C66.106 83.7334 70.9264 87.7874 76.5939 88.7959C78.7116 89.1791 80.8899 89.1186 82.9875 89.6027C86.8196 90.4901 90.0668 93.1322 92.3661 96.2988C94.6653 99.4855 96.0973 103.197 97.3075 106.928" stroke="black" stroke-miterlimit="10" stroke-linecap="round" stroke-linejoin="round"/>
<path d="M91.3993 110.841C88.858 105.516 83.9165 101.381 78.2289 99.8486C74.6186 98.8805 70.7663 98.8804 67.2973 97.509C63.3845 95.9559 60.2179 92.6281 58.8868 88.6346C58.1607 86.4765 57.959 84.1974 57.3136 82.0191C55.9219 77.2794 52.352 73.2456 47.814 71.2489C44.6474 69.8572 41.0573 69.4337 38.0925 67.6588C34.0789 65.2385 31.7998 60.64 31.0737 56.0011C30.3678 51.3622 31.0132 46.6427 31.6787 42.0038" stroke="black" stroke-miterlimit="10" stroke-linecap="round" stroke-linejoin="round"/>
<path d="M19.3333 116.75C19.3333 116.75 153.498 123.487 192.222 58.8651C192.222 58.8651 211 110.417 183.388 140.025L125.019 169.916L74.8989 159.65L26.9168 135.588C26.9168 135.568 20.4627 121.248 19.3333 116.75Z" fill="#EBEBEB" stroke="black" stroke-miterlimit="10" stroke-linecap="round"/>
<path d="M109.027 16.974L110.842 22.5608C111.003 23.0852 111.487 23.428 112.032 23.428H117.901C119.111 23.428 119.615 24.9811 118.647 25.687L113.887 29.1359C113.444 29.4586 113.262 30.0234 113.423 30.5276L115.239 36.1144C115.622 37.264 114.291 38.2321 113.302 37.506L108.542 34.0572C108.099 33.7345 107.514 33.7345 107.07 34.0572L102.31 37.506C101.322 38.212 100.011 37.264 100.374 36.1144L102.189 30.5276C102.351 30.0032 102.169 29.4384 101.725 29.1359L96.9654 25.687C95.9771 24.9811 96.4814 23.428 97.7117 23.428H103.581C104.125 23.428 104.609 23.0852 104.771 22.5608L106.586 16.974C107.03 15.8243 108.663 15.8243 109.027 16.974Z" fill="#FFF58C" stroke="#181919" stroke-miterlimit="10" stroke-linecap="round" stroke-linejoin="round"/>
<path d="M48.0354 42.8911C62.3352 36.5983 77.5427 32.3225 93.0325 30.2249" stroke="#181919" stroke-miterlimit="10" stroke-linecap="round" stroke-linejoin="round"/>
<path d="M42.4285 51.0797C44.0325 51.0797 45.3329 49.7794 45.3329 48.1753C45.3329 46.5713 44.0325 45.271 42.4285 45.271C40.8245 45.271 39.5242 46.5713 39.5242 48.1753C39.5242 49.7794 40.8245 51.0797 42.4285 51.0797Z" fill="#FFF58C" stroke="#181919" stroke-miterlimit="10" stroke-linecap="round" stroke-linejoin="round"/>
<path d="M167.315 43.7382C153.015 37.4455 137.807 33.1697 122.318 31.0721" stroke="#181919" stroke-miterlimit="10" stroke-linecap="round" stroke-linejoin="round"/>
<path d="M172.921 51.9269C174.525 51.9269 175.826 50.6265 175.826 49.0225C175.826 47.4185 174.525 46.1182 172.921 46.1182C171.317 46.1182 170.017 47.4185 170.017 49.0225C170.017 50.6265 171.317 51.9269 172.921 51.9269Z" fill="#FFF58C" stroke="#181919" stroke-miterlimit="10" stroke-linecap="round" stroke-linejoin="round"/>
<path d="M74.9814 127.298H59.9353" stroke="black" stroke-miterlimit="10" stroke-linecap="round"/>
<path d="M120.785 51.9268V64.4921H109.35V77.0575H97.9138V89.6227H86.4779V102.188H86.4376H75.0018V114.753H63.5659V125.261C63.5659 126.391 64.5945 127.319 65.845 127.319H75.0018H135.489C136.759 127.319 137.768 126.391 137.768 125.261V64.4921V53.9841C137.768 52.8546 136.739 51.9268 135.489 51.9268H120.785Z" fill="white" stroke="black" stroke-miterlimit="10"/>
<path d="M74.9814 114.753H59.9353" stroke="black" stroke-miterlimit="10" stroke-linecap="round"/>
<path d="M86.4575 102.188H71.4114" stroke="black" stroke-miterlimit="10" stroke-linecap="round"/>
<path d="M97.9537 89.6227H82.8875" stroke="black" stroke-miterlimit="10" stroke-linecap="round"/>
<path d="M109.349 77.0575H94.2832" stroke="black" stroke-miterlimit="10" stroke-linecap="round"/>
<path d="M120.805 64.4921H105.739" stroke="black" stroke-miterlimit="10" stroke-linecap="round"/>
<path d="M131.515 51.9268H116.449" stroke="black" stroke-miterlimit="10" stroke-linecap="round"/>
<path d="M126.271 78.0054V116.085" stroke="black" stroke-miterlimit="10" stroke-linecap="round"/>
<path d="M107.271 183.53C157.676 183.53 198.536 142.669 198.536 92.2649C198.536 41.8607 157.676 1 107.271 1C56.8673 1 16.0066 41.8607 16.0066 92.2649C16.0066 142.669 56.8673 183.53 107.271 183.53Z" stroke="#181919" stroke-miterlimit="10"/>
<path d="M211 137.645V170.803C174.817 160.396 142.587 184.095 106 184.095C68.1225 183.792 37.2034 160.396 1 170.803V137.645C37.2438 127.299 68.7276 152.591 106 152.591C140.953 152.873 174.756 127.299 211 137.645Z" fill="white" stroke="#181919" stroke-miterlimit="10"/>
<path d="M20.6849 154.486C19.9387 154.426 19.5555 154.406 18.8092 154.386C18.5672 155.354 18.4462 155.838 18.2042 156.826C17.4982 156.806 17.1554 156.806 16.4494 156.786C16.6915 155.797 16.8125 155.313 17.0747 154.325C16.4696 154.305 16.1671 154.305 15.562 154.305C15.562 153.781 15.562 153.518 15.562 152.994C16.2881 152.994 16.6511 152.994 17.3772 153.014C17.5789 152.228 17.6798 151.824 17.8814 151.038C17.1755 151.017 16.8125 150.997 16.1066 150.997C16.1066 150.473 16.1066 150.211 16.1066 149.686C16.9537 149.686 17.3571 149.706 18.2042 149.727C18.4462 148.738 18.5874 148.254 18.8294 147.266C19.5353 147.306 19.8782 147.306 20.5841 147.367C20.3219 148.355 20.2009 148.839 19.9589 149.807C20.7051 149.848 21.0883 149.888 21.8144 149.948C22.0564 148.98 22.1976 148.496 22.4598 147.508C23.1456 147.569 23.4884 147.609 24.1742 147.669C23.912 148.637 23.7708 149.142 23.5288 150.09C24.1137 150.15 24.396 150.19 24.9809 150.251C24.9809 150.775 24.9809 151.038 24.9809 151.562C24.275 151.481 23.912 151.441 23.2061 151.36C23.0044 152.147 22.9237 152.53 22.722 153.297C23.4279 153.357 23.7708 153.397 24.4767 153.478C24.4767 154.002 24.4969 154.265 24.4969 154.789C23.67 154.688 23.2666 154.648 22.4195 154.587C22.1976 155.555 22.0766 156.019 21.8346 156.967C21.1488 156.927 20.806 156.887 20.1 156.866C20.3219 155.939 20.4429 155.455 20.6849 154.486ZM19.1118 153.075C19.8782 153.115 20.2412 153.135 21.0076 153.196C21.1892 152.409 21.29 152.026 21.4917 151.239C20.7455 151.179 20.3622 151.159 19.616 151.118C19.3941 151.905 19.3134 152.288 19.1118 153.075Z" fill="#181919"/>
<path d="M33.6533 149.303C33.5928 149.888 33.5726 150.191 33.5323 150.775C32.6448 150.594 32.181 150.513 31.2935 150.352C31.354 151.905 32.3423 152.732 33.734 153.276C33.734 153.861 33.734 154.144 33.7743 154.729C32.3221 154.244 31.0717 153.458 30.3859 152.47C29.6598 153.216 28.4093 153.72 26.9572 153.7C26.937 153.115 26.937 152.833 26.937 152.248C28.369 152.167 29.1758 151.582 29.4178 150.029C28.5102 149.888 28.0665 149.807 27.1589 149.666C27.179 149.081 27.1992 148.799 27.2194 148.214C28.1472 148.335 28.611 148.416 29.5186 148.557C29.5388 148.053 29.559 147.811 29.5993 147.306C30.3456 147.427 30.7086 147.488 31.4347 147.609C31.3944 148.113 31.3742 148.375 31.354 148.88C32.2818 149.041 32.7457 149.122 33.6533 149.303ZM27.8244 156.362C27.8043 155.596 28.248 155.092 28.9337 154.85C29.8212 154.527 31.1322 154.587 32.544 154.87C33.9357 155.132 35.2668 155.576 36.1946 156.221C36.9207 156.725 37.4047 157.411 37.4451 158.117C37.4854 158.823 37.0619 159.226 36.3559 159.408C35.4685 159.63 34.1374 159.549 32.7255 159.307C31.3137 159.065 29.9624 158.722 29.0346 158.157C28.3085 157.734 27.8446 157.129 27.8244 156.362ZM29.6598 156.645C29.6598 156.866 29.801 157.048 30.0632 157.23C30.5674 157.552 31.4952 157.814 32.6852 158.036C33.8752 158.238 34.8029 158.319 35.287 158.177C35.529 158.097 35.65 157.956 35.65 157.754C35.65 157.532 35.5089 157.351 35.2467 157.169C34.7424 156.826 33.8147 156.483 32.6247 156.261C31.4549 156.04 30.5271 156.019 30.043 156.201C29.7607 156.261 29.6397 156.423 29.6598 156.645ZM33.0281 152.53C33.0281 151.965 33.0281 151.683 33.0281 151.118C33.8953 151.28 34.3189 151.38 35.1861 151.562C35.1861 150.473 35.3273 149.848 35.4483 148.718C36.1744 148.859 36.5375 148.94 37.2837 149.101C37.0014 151.784 36.9207 153.075 37.0619 155.636C36.3358 155.475 35.9727 155.394 35.2668 155.253C35.2265 154.345 35.2265 153.902 35.2265 152.994C34.3189 152.792 33.8953 152.712 33.0281 152.53Z" fill="#181919"/>
<path d="M42.1247 155.293C43.5365 155.616 44.2424 155.797 45.6744 156.12C46.34 156.282 46.9047 156.403 47.4694 156.403C47.4694 156.947 47.4694 157.209 47.5098 157.734C46.9451 157.754 46.34 157.673 45.6542 157.512C43.5365 157.008 42.4877 156.766 40.4103 156.282C40.2489 153.76 40.3498 152.51 40.6725 149.868C41.3986 150.029 41.7616 150.11 42.4877 150.291C42.1852 152.349 42.1247 153.357 42.1247 155.293ZM41.3381 160.86C41.2574 159.488 41.2372 158.843 41.1364 157.29C41.8625 157.451 42.2255 157.532 42.9516 157.714C43.0121 158.702 43.0524 159.166 43.0928 160.033C46.1181 160.739 47.651 161.122 50.7167 161.848C50.7368 162.352 50.757 162.615 50.7772 163.139C46.9854 162.151 45.0895 161.687 41.3381 160.86ZM48.7401 151.723C49.4662 151.905 49.8292 151.985 50.5755 152.147C50.2326 155.374 50.2528 156.887 50.4141 159.993C49.6679 159.831 49.3048 159.73 48.5787 159.569C48.4981 158.198 48.4376 157.512 48.4376 156.161C47.1266 155.858 46.4812 155.717 45.2105 155.414C45.2105 154.849 45.2105 154.587 45.2105 154.023C46.5013 154.325 47.1467 154.486 48.4376 154.769C48.4376 154.547 48.4376 154.426 48.4577 154.184C47.1467 153.881 46.5013 153.74 45.2307 153.438C45.3114 152.853 45.3315 152.55 45.4122 151.965C46.703 152.268 47.3484 152.429 48.6392 152.732C48.6594 152.308 48.6796 152.127 48.7401 151.723Z" fill="#181919"/>
<path d="M62.7173 162.675C61.9509 162.494 61.5879 162.413 60.8215 162.252C60.5794 163.2 60.4584 163.684 60.1962 164.652C59.5105 164.49 59.1676 164.41 58.4819 164.248C58.7239 163.321 58.8449 162.857 59.0869 161.909C58.502 161.788 58.1793 161.747 57.5742 161.626C57.5742 161.102 57.5742 160.84 57.5541 160.315C58.3003 160.457 58.6634 160.517 59.3895 160.658C59.5911 159.892 59.692 159.509 59.8937 158.762C59.1878 158.621 58.8247 158.561 58.0986 158.44C58.0986 157.915 58.0986 157.653 58.0986 157.129C58.9659 157.29 59.3693 157.351 60.2164 157.512C60.4584 156.564 60.5794 156.1 60.8215 155.192C61.5274 155.334 61.8702 155.414 62.5762 155.576C62.3341 156.483 62.2131 156.927 61.9711 157.875C62.7375 158.036 63.1006 158.117 63.867 158.298C64.1292 157.351 64.23 156.927 64.4721 156.04C65.178 156.201 65.5208 156.302 66.2066 156.483C65.9646 157.371 65.8435 157.774 65.6015 158.722C66.2066 158.863 66.5091 158.944 67.1142 159.105C67.1142 159.63 67.1142 159.892 67.1142 160.416C66.3881 160.235 66.0049 160.134 65.2788 159.952C65.0771 160.699 64.9763 161.082 64.7746 161.848C65.5007 162.03 65.8637 162.11 66.5898 162.292C66.5898 162.836 66.5898 163.099 66.5898 163.623C65.7427 163.401 65.3192 163.3 64.4721 163.099C64.23 164.047 64.0888 164.571 63.8266 165.579C63.1409 165.398 62.7779 165.317 62.0921 165.136C62.3341 164.127 62.4551 163.603 62.7173 162.675ZM61.124 161.001C61.8904 161.162 62.2736 161.243 63.04 161.425C63.2417 160.658 63.3426 160.275 63.5443 159.529C62.7779 159.347 62.3946 159.267 61.6282 159.105C61.4265 159.851 61.3257 160.235 61.124 161.001Z" fill="#181919"/>
<path d="M69.2921 159.549C69.2921 158.359 69.6753 157.693 70.3611 157.371C70.9258 157.108 71.7124 157.129 72.6603 157.391C73.6285 157.653 74.415 158.077 74.9798 158.641C75.6857 159.327 76.0891 160.235 76.0891 161.404C76.0891 162.594 75.6857 163.361 75 163.724C74.4151 164.026 73.6486 164.026 72.6805 163.764C71.7326 163.502 70.946 163.058 70.3812 162.453C69.6753 161.707 69.2921 160.739 69.2921 159.549ZM70.0989 168.181C70.1392 166.406 70.1795 165.479 70.1795 163.885C70.946 164.087 71.3292 164.188 72.0956 164.41C72.0956 165.418 72.0754 165.963 72.0553 167.092C75.242 167.98 76.8555 168.423 80.0624 169.27C80.0422 169.916 80.0422 170.238 80.022 170.884C76.0286 169.855 74.052 169.291 70.0989 168.181ZM71.1678 160.053C71.1678 160.759 71.3494 161.304 71.6519 161.667C71.8939 161.969 72.257 162.191 72.6805 162.312C73.1041 162.433 73.4671 162.413 73.7293 162.252C74.0318 162.05 74.2134 161.586 74.2134 160.9C74.2134 160.194 74.0318 159.69 73.7091 159.347C73.4671 159.065 73.1041 158.843 72.6603 158.742C72.2166 158.641 71.8738 158.641 71.6317 158.782C71.3494 158.944 71.1678 159.347 71.1678 160.053ZM77.9446 166.608C77.9648 163.421 77.9648 161.828 77.9245 158.903C78.6909 159.105 79.0741 159.206 79.8405 159.428C79.8808 162.373 79.8607 163.966 79.8607 167.132C79.0943 166.911 78.7111 166.81 77.9446 166.608Z" fill="#181919"/>
<path d="M85.3869 163.462C87.0004 163.865 87.8072 164.047 89.4207 164.389C89.4207 164.934 89.4207 165.216 89.4207 165.761C87.8072 165.418 87.0004 165.237 85.3869 164.833C85.3869 165.358 85.3869 165.62 85.3869 166.144C86.8391 166.487 87.5652 166.669 88.9972 166.971C89.6829 167.112 90.2678 167.233 90.8527 167.233C90.8527 167.758 90.8527 168.02 90.8527 168.544C90.2678 168.585 89.6224 168.504 88.8762 168.343C86.7181 167.879 85.629 167.616 83.4507 167.072C83.4507 164.349 83.4507 162.998 83.4305 160.456C85.9315 161.082 87.182 161.364 89.6829 161.868C89.6829 162.393 89.6829 162.655 89.6829 163.2C87.9484 162.836 87.0811 162.655 85.3466 162.231C85.3668 162.715 85.3869 162.957 85.3869 163.462ZM84.1365 171.872C84.1768 170.259 84.197 169.412 84.197 167.919C84.9634 168.101 85.3466 168.201 86.113 168.383C86.113 169.291 86.113 169.775 86.0929 170.743C89.3199 171.469 90.9334 171.791 94.1403 172.255C94.1403 172.84 94.1403 173.143 94.1201 173.748C90.1468 173.203 88.1501 172.8 84.1365 171.872ZM89.8645 164.289C90.7317 164.47 91.1553 164.551 92.0225 164.712C92.0225 163.704 92.0226 163.2 92.0024 162.191C92.7688 162.332 93.152 162.393 93.9386 162.514C93.9386 165.68 93.9386 167.294 93.9386 170.541C93.1722 170.42 92.789 170.36 92.0225 170.218C92.0225 168.605 92.0225 167.798 92.0225 166.184C91.1553 166.023 90.7317 165.942 89.8645 165.761C89.8645 165.176 89.8645 164.853 89.8645 164.289Z" fill="#181919"/>
<path d="M101.663 164.43C101.663 166.386 102.712 167.334 104.346 167.717C104.346 168.302 104.346 168.605 104.346 169.19C102.813 168.968 101.442 168.262 100.715 167.375C100.01 168.222 98.6582 168.827 97.0447 168.907C97.0447 168.322 97.0447 168.02 97.0447 167.435C98.7389 167.193 99.7271 166.185 99.7271 164.329C99.7271 163.885 99.7271 163.663 99.7271 163.24C100.494 163.3 100.877 163.321 101.643 163.341C101.663 163.764 101.663 163.986 101.663 164.43ZM106.04 169.573C106.806 169.553 107.19 169.533 107.976 169.472C107.976 171.449 107.976 172.417 107.976 174.393C104.084 174.635 102.147 174.615 98.2548 174.293C98.2548 172.296 98.2548 171.307 98.2548 169.351C99.0212 169.432 99.4044 169.452 100.171 169.512C100.171 169.976 100.171 170.218 100.171 170.682C102.51 170.844 103.68 170.844 106.02 170.763C106.04 170.279 106.04 170.037 106.04 169.573ZM100.191 172.074C100.191 172.437 100.191 172.618 100.191 173.002C102.531 173.143 103.7 173.163 106.06 173.062C106.06 172.699 106.06 172.518 106.06 172.134C103.7 172.235 102.531 172.235 100.191 172.074ZM106.04 169.149C106.04 166.79 106.04 165.62 106.04 163.26C106.806 163.24 107.19 163.2 107.956 163.159C107.956 165.519 107.956 166.689 107.956 169.049C107.19 169.089 106.806 169.129 106.04 169.149Z" fill="#181919"/>
<path d="M120.582 169.23C119.816 169.391 119.412 169.472 118.646 169.613C118.404 170.662 118.283 171.186 118.041 172.235C117.335 172.356 116.972 172.417 116.266 172.538C116.508 171.489 116.629 170.965 116.891 169.916C116.286 170.017 115.984 170.077 115.358 170.178C115.358 169.654 115.358 169.371 115.358 168.847C116.105 168.726 116.468 168.665 117.214 168.524C117.416 167.677 117.516 167.253 117.718 166.447C116.992 166.588 116.629 166.648 115.903 166.769C115.903 166.265 115.903 166.003 115.903 165.499C116.75 165.358 117.173 165.297 118.041 165.136C118.303 164.127 118.424 163.563 118.666 162.473C119.392 162.332 119.735 162.272 120.461 162.11C120.219 163.2 120.098 163.784 119.836 164.793C120.602 164.632 121.006 164.551 121.772 164.389C122.034 163.381 122.155 162.796 122.397 161.687C123.103 161.526 123.466 161.445 124.172 161.283C123.93 162.393 123.829 162.998 123.567 163.986C124.172 163.845 124.475 163.784 125.1 163.643C125.1 164.127 125.08 164.389 125.08 164.874C124.333 165.055 123.97 165.136 123.224 165.317C123.002 166.124 122.901 166.548 122.7 167.415C123.426 167.253 123.809 167.173 124.535 166.991C124.535 167.536 124.535 167.798 124.535 168.343C123.668 168.544 123.244 168.645 122.377 168.827C122.135 169.896 122.014 170.42 121.772 171.489C121.066 171.63 120.703 171.711 119.997 171.852C120.219 170.823 120.34 170.299 120.582 169.23ZM118.969 168.222C119.755 168.06 120.138 167.98 120.925 167.818C121.127 166.951 121.227 166.527 121.429 165.721C120.643 165.882 120.259 165.963 119.473 166.124C119.271 166.931 119.17 167.354 118.969 168.222Z" fill="#181919"/>
<path d="M127.097 169.089C128.569 168.726 129.295 168.524 130.768 168.141C130.747 166.83 130.747 166.164 130.727 164.853C131.494 164.652 131.877 164.551 132.643 164.329C132.663 165.64 132.663 166.306 132.684 167.617C135.023 166.971 136.193 166.648 138.512 166.003C138.512 166.608 138.512 166.89 138.533 167.496C133.995 168.786 131.695 169.432 127.097 170.581C127.117 169.976 127.117 169.694 127.097 169.089ZM135.971 162.252C134.882 162.736 133.632 163.119 132.099 163.542C130.344 164.006 129.477 164.248 127.722 164.692C127.722 164.147 127.742 163.885 127.742 163.341C129.497 162.897 130.384 162.655 132.139 162.191C133.551 161.808 134.902 161.404 135.971 160.961C135.991 160.295 135.971 159.932 135.971 159.166C132.704 160.073 131.05 160.537 127.742 161.364C127.722 160.739 127.722 160.416 127.722 159.791C131.796 158.742 133.833 158.157 137.867 157.048C137.907 158.863 137.907 159.751 137.887 161.324C137.867 162.594 137.726 164.006 137.544 164.974C136.778 165.176 136.415 165.297 135.648 165.499C135.83 164.551 135.931 163.22 135.971 162.252Z" fill="#181919"/>
<path d="M147.205 164.793C144.926 165.418 143.797 165.741 141.477 166.386C141.437 162.191 141.497 160.396 141.437 156.06C143.938 155.394 145.188 155.051 147.649 154.466C147.649 155.051 147.649 155.334 147.649 155.918C145.934 156.362 145.067 156.604 143.333 157.088C143.373 160.174 143.312 161.404 143.333 164.389C145.027 163.926 145.874 163.684 147.548 163.24C148.556 162.978 149.303 162.635 149.706 162.231C149.686 158.863 149.726 157.108 149.726 153.76C150.513 153.579 150.896 153.478 151.683 153.297C151.683 157.593 151.602 159.972 151.642 164.309C150.876 164.51 150.473 164.611 149.706 164.833C149.706 164.329 149.706 164.067 149.706 163.563C149.323 164.047 148.375 164.49 147.205 164.793Z" fill="#181919"/>
<path d="M158.944 161.808C157.471 162.151 156.745 162.332 155.313 162.695C155.253 158.762 155.414 156.443 155.414 152.55C156.201 152.349 156.604 152.268 157.391 152.066C157.411 155.414 157.189 157.472 157.249 160.84C157.955 160.678 158.318 160.578 159.044 160.416C159.69 160.275 160.315 160.093 160.819 159.892C160.839 160.416 160.839 160.658 160.86 161.183C160.315 161.445 159.609 161.647 158.944 161.808ZM161.505 161.808C161.445 159.63 161.949 158.641 161.808 156.201C160.819 156.423 160.335 156.524 159.347 156.745C159.307 156.14 159.286 155.838 159.266 155.233C160.255 155.011 160.739 154.89 161.707 154.668C161.606 153.095 161.626 152.409 161.606 150.957C162.372 150.775 162.756 150.675 163.542 150.493C163.603 154.789 163.34 157.25 163.441 161.384C162.655 161.546 162.271 161.626 161.505 161.808ZM164.389 161.304C164.288 157.088 164.53 154.608 164.49 150.211C165.277 150.029 165.66 149.928 166.446 149.767C166.507 154.244 166.265 156.685 166.366 160.9C165.559 161.062 165.176 161.142 164.389 161.304Z" fill="#181919"/>
<path d="M177.136 153.297C177.217 155.313 176.713 156.745 175.906 157.714C175.361 158.379 174.454 158.843 173.385 159.025C172.336 159.206 171.428 159.045 170.823 158.581C169.976 157.895 170.238 156.584 170.117 154.527C169.996 152.49 170.117 150.896 170.924 149.807C171.489 149.061 172.376 148.516 173.425 148.315C174.494 148.113 175.381 148.315 175.966 148.9C176.813 149.706 177.055 151.28 177.136 153.297ZM172.114 154.144C172.195 155.878 171.912 156.987 172.356 157.431C172.578 157.653 172.941 157.734 173.344 157.653C173.768 157.572 174.131 157.391 174.353 157.088C174.796 156.483 175.22 155.334 175.139 153.619C175.059 151.905 174.917 150.634 174.474 150.13C174.252 149.888 173.869 149.787 173.465 149.868C173.062 149.948 172.699 150.17 172.497 150.493C172.074 151.118 172.013 152.429 172.114 154.144ZM180.928 158.5C180.121 158.601 179.718 158.641 178.911 158.762C178.85 154.446 179.032 152.308 178.911 147.347C179.718 147.226 180.121 147.165 180.908 147.064C181.029 152.066 180.867 154.164 180.928 158.5Z" fill="#181919"/>
<path d="M190.669 151.098C190.669 151.683 190.669 151.965 190.669 152.55C189.116 152.631 188.33 152.671 186.777 152.812C186.757 154.002 186.716 154.607 186.716 155.797C188.068 155.697 188.733 155.636 190.064 155.576C190.932 155.535 191.678 155.475 192.263 155.334C192.263 155.878 192.263 156.161 192.263 156.705C191.678 156.887 190.871 156.987 189.963 157.028C187.886 157.129 186.837 157.209 184.74 157.411C184.719 153.397 184.82 151.522 184.719 146.903C187.341 146.661 188.652 146.6 191.234 146.58C191.234 147.205 191.254 147.508 191.254 148.133C189.459 148.174 188.552 148.234 186.716 148.355C186.736 149.646 186.736 150.211 186.757 151.36C188.33 151.219 189.116 151.159 190.669 151.098ZM195.308 157.572C194.542 157.572 194.159 157.572 193.392 157.593C193.392 155.455 193.392 154.386 193.392 152.268C192.505 152.288 192.081 152.308 191.194 152.349C191.194 151.764 191.194 151.481 191.194 150.896C192.081 150.856 192.525 150.836 193.392 150.836C193.392 149.101 193.392 148.214 193.372 146.399C194.159 146.419 194.542 146.439 195.308 146.5C195.308 150.917 195.308 153.135 195.308 157.572Z" fill="#181919"/>
<path d="M139.562 148.355C149.921 148.355 158.319 139.957 158.319 129.598C158.319 119.239 149.921 110.841 139.562 110.841C129.203 110.841 120.805 119.239 120.805 129.598C120.805 139.957 129.203 148.355 139.562 148.355Z" fill="#B180E0" stroke="#181919" stroke-miterlimit="10"/>
<path d="M147.146 132.24L142.507 120.885C142.164 120.038 141.035 119.856 140.45 120.562L131.515 130.062C130.849 130.869 131.434 132.079 132.483 132.058L137.243 131.958L136.275 138.795C136.174 139.461 136.638 140.086 137.324 140.166L139.381 140.449C140.046 140.55 140.672 140.086 140.752 139.4L141.72 132.482L145.673 133.793C146.621 134.196 147.549 133.208 147.146 132.24Z" fill="white" stroke="#181919" stroke-miterlimit="10"/>
</svg>
