<svg width="212" height="185" viewBox="0 0 212 185" fill="none" xmlns="http://www.w3.org/2000/svg">
<path d="M107.29 183.53C157.694 183.53 198.555 142.669 198.555 92.2649C198.555 41.8607 157.694 1 107.29 1C56.8861 1 16.0254 41.8607 16.0254 92.2649C16.0254 142.669 56.8861 183.53 107.29 183.53Z" fill="#5A66FF"/>
<path d="M21.6526 120.824C21.6526 120.824 155.817 127.561 194.542 62.9391C194.542 62.9391 204.465 120.542 176.833 150.17L127.318 173.99L77.1982 163.724L29.216 139.662C29.216 139.642 22.7821 125.342 21.6526 120.824Z" fill="#EBEBEB"/>
<path d="M70.4817 58.0985V126.835C70.4817 128.307 71.6918 129.517 73.1843 129.517H142.384C143.877 129.517 145.087 128.307 145.087 126.835V58.0985C145.087 56.6261 143.877 55.416 142.384 55.416H73.1843C71.6918 55.416 70.4817 56.606 70.4817 58.0985Z" fill="#EBEBEB"/>
<mask id="mask0_418_25332" style="mask-type:luminance" maskUnits="userSpaceOnUse" x="70" y="55" width="76" height="75">
<path d="M70.4817 58.0985V126.835C70.4817 128.307 71.6918 129.517 73.1843 129.517H142.384C143.877 129.517 145.087 128.307 145.087 126.835V58.0985C145.087 56.6261 143.877 55.416 142.384 55.416H73.1843C71.6918 55.416 70.4817 56.606 70.4817 58.0985Z" fill="white"/>
</mask>
<g mask="url(#mask0_418_25332)">
<path d="M33.8347 92.5472L107.694 165.922" stroke="black" stroke-miterlimit="10"/>
<path d="M37.5859 88.8361L111.425 162.211" stroke="black" stroke-miterlimit="10"/>
<path d="M41.3174 85.125L115.156 158.5" stroke="black" stroke-miterlimit="10"/>
<path d="M45.0488 81.4139L118.888 154.769" stroke="black" stroke-miterlimit="10"/>
<path d="M48.8 77.7029L122.639 151.058" stroke="black" stroke-miterlimit="10"/>
<path d="M52.5315 73.9916L126.37 147.346" stroke="black" stroke-miterlimit="10"/>
<path d="M56.2629 70.2806L130.102 143.635" stroke="black" stroke-miterlimit="10"/>
<path d="M60.0142 66.5696L133.853 139.924" stroke="black" stroke-miterlimit="10"/>
<path d="M63.7456 62.8583L137.585 136.213" stroke="black" stroke-miterlimit="10"/>
<path d="M67.4766 59.1472L141.315 132.502" stroke="black" stroke-miterlimit="10"/>
<path d="M71.208 55.416L145.067 128.791" stroke="black" stroke-miterlimit="10"/>
<path d="M74.9592 51.705L148.798 125.08" stroke="black" stroke-miterlimit="10"/>
<path d="M78.6907 47.9937L152.529 121.369" stroke="black" stroke-miterlimit="10"/>
<path d="M82.4216 44.2827L156.281 117.637" stroke="black" stroke-miterlimit="10"/>
<path d="M86.1733 40.5717L160.012 113.926" stroke="black" stroke-miterlimit="10"/>
<path d="M89.9048 36.8605L163.744 110.215" stroke="black" stroke-miterlimit="10"/>
<path d="M93.6357 33.1494L167.495 106.504" stroke="black" stroke-miterlimit="10"/>
<path d="M97.3875 29.4383L171.226 102.793" stroke="black" stroke-miterlimit="10"/>
<path d="M101.118 25.7271L174.957 99.0819" stroke="black" stroke-miterlimit="10"/>
<path d="M104.85 21.9959L178.709 95.3709" stroke="black" stroke-miterlimit="10"/>
</g>
<path d="M70.4817 58.0985V126.835C70.4817 128.307 71.6918 129.517 73.1843 129.517H142.384C143.877 129.517 145.087 128.307 145.087 126.835V58.0985C145.087 56.6261 143.877 55.416 142.384 55.416H73.1843C71.6918 55.416 70.4817 56.606 70.4817 58.0985Z" stroke="black" stroke-miterlimit="10"/>
<path d="M109.045 16.9739L110.86 22.5607C111.022 23.0851 111.506 23.4279 112.05 23.4279H117.92C119.13 23.4279 119.634 24.981 118.666 25.6869L113.906 29.1358C113.462 29.4585 113.281 30.0232 113.442 30.5275L115.257 36.1143C115.64 37.2639 114.309 38.232 113.321 37.506L108.561 34.057C108.117 33.7343 107.533 33.7343 107.089 34.057L102.329 37.506C101.341 38.2119 100.03 37.2639 100.393 36.1143L102.208 30.5275C102.369 30.0031 102.188 29.4383 101.744 29.1358L96.9841 25.6869C95.9958 24.981 96.5 23.4279 97.7303 23.4279H103.599C104.144 23.4279 104.628 23.0851 104.79 22.5607L106.605 16.9739C107.028 15.8242 108.662 15.8242 109.045 16.9739Z" fill="#FFF58C" stroke="#181919" stroke-miterlimit="10" stroke-linecap="round" stroke-linejoin="round"/>
<path d="M48.0338 42.8911C62.3337 36.5984 77.5411 32.3226 93.0309 30.225" stroke="#181919" stroke-miterlimit="10" stroke-linecap="round" stroke-linejoin="round"/>
<path d="M42.4471 51.0797C44.0511 51.0797 45.3514 49.7794 45.3514 48.1753C45.3514 46.5713 44.0511 45.271 42.4471 45.271C40.843 45.271 39.5427 46.5713 39.5427 48.1753C39.5427 49.7794 40.843 51.0797 42.4471 51.0797Z" fill="#FFF58C" stroke="#181919" stroke-miterlimit="10" stroke-linecap="round" stroke-linejoin="round"/>
<path d="M20.7446 120.26C37.2429 121.631 53.8622 121.55 70.3403 119.977" stroke="#020303" stroke-miterlimit="10"/>
<path d="M185.688 45.5332C180.343 49.4057 181.15 56.8279 179.153 63.1408C177.358 68.8486 173.344 73.6287 168.786 77.5011C160.92 84.1973 151.178 88.6546 140.973 90.248C154.688 81.777 162.614 63.3828 158.399 47.3888C157.027 42.2053 154.567 37.3244 153.659 32.0401C152.752 26.7558 153.861 20.6043 158.419 17.1151C163.34 19.4345 167.193 23.4481 171.186 27.1391C175.926 31.5359 182.057 39.1396 185.688 45.5332Z" fill="#B180E0" stroke="#020303" stroke-miterlimit="10" stroke-linecap="round" stroke-linejoin="round"/>
<path d="M76.1292 92.285C55.7182 87.7067 33.1894 93.9591 17.6996 109.106C18.9501 115.762 21.1283 122.256 24.1133 129.578C34.7424 110.316 54.8307 96.581 76.1292 92.285Z" fill="#FFF58C" stroke="#020303" stroke-miterlimit="10" stroke-linecap="round" stroke-linejoin="round"/>
<path d="M167.333 43.7583C153.034 37.4656 137.826 33.1897 122.336 31.0922" stroke="#181919" stroke-miterlimit="10" stroke-linecap="round" stroke-linejoin="round"/>
<path d="M172.92 51.9268C174.524 51.9268 175.824 50.6265 175.824 49.0224C175.824 47.4184 174.524 46.1181 172.92 46.1181C171.316 46.1181 170.016 47.4184 170.016 49.0224C170.016 50.6265 171.316 51.9268 172.92 51.9268Z" fill="#FFF58C" stroke="#181919" stroke-miterlimit="10" stroke-linecap="round" stroke-linejoin="round"/>
<path d="M72.1363 87.0411C54.9724 81.2122 35.3883 82.9669 19.5354 91.7404C18.4664 92.3254 17.3571 92.9909 16.7521 94.0599C16.1873 95.0482 16.1268 96.2583 16.1268 97.3878C16.1268 101.059 16.5303 104.749 17.337 108.319C29.5595 98.6584 44.4038 91.2362 59.9743 91.7404C62.2534 91.8211 64.5728 92.0632 66.7713 91.4581C68.9898 90.8934 71.0875 89.2193 72.1363 87.0411Z" fill="#FF88B6" stroke="#020303" stroke-miterlimit="10"/>
<path d="M107.29 183.53C157.694 183.53 198.555 142.669 198.555 92.2649C198.555 41.8607 157.694 1 107.29 1C56.8861 1 16.0254 41.8607 16.0254 92.2649C16.0254 142.669 56.8861 183.53 107.29 183.53Z" stroke="#020303" stroke-miterlimit="10"/>
<path d="M91.9419 91.3171L78.8924 78.2677C78.368 77.7433 78.368 76.8963 78.8924 76.3719L91.9419 63.3225C92.4663 62.7981 93.3134 62.7981 93.8378 63.3225L106.887 76.3719C107.411 76.8963 107.411 77.7433 106.887 78.2677L93.8378 91.3171C93.3134 91.8415 92.4663 91.8415 91.9419 91.3171Z" stroke="black" stroke-miterlimit="10"/>
<path d="M106.827 76.5734L93.7776 63.524C93.2532 62.9996 93.2532 62.1525 93.7776 61.6281L106.827 48.5787C107.351 48.0543 108.199 48.0543 108.723 48.5787L121.772 61.6281C122.297 62.1525 122.297 62.9996 121.772 63.524L108.723 76.5734C108.199 77.0977 107.351 77.0977 106.827 76.5734Z" fill="#FF88B6" stroke="black" stroke-miterlimit="10"/>
<path d="M121.772 91.5187L108.723 78.4693C108.198 77.9449 108.198 77.0978 108.723 76.5734L121.772 63.524C122.296 62.9996 123.143 62.9996 123.668 63.524L136.717 76.5734C137.242 77.0978 137.242 77.9449 136.717 78.4693L123.668 91.5187C123.143 92.043 122.296 92.043 121.772 91.5187Z" fill="white" stroke="black" stroke-miterlimit="10"/>
<path d="M136.737 106.464L123.688 93.4146C123.163 92.8902 123.163 92.0431 123.688 91.5187L136.737 78.4693C137.262 77.945 138.109 77.945 138.633 78.4693L151.682 91.5187C152.207 92.0431 152.207 92.8902 151.682 93.4146L138.633 106.464C138.109 106.988 137.262 106.988 136.737 106.464Z" fill="#B180E0" stroke="black" stroke-miterlimit="10"/>
<path d="M106.827 106.464L93.7776 93.4146C93.2532 92.8902 93.2532 92.0431 93.7776 91.5187L106.827 78.4693C107.351 77.945 108.199 77.945 108.723 78.4693L121.772 91.5187C122.297 92.0431 122.297 92.8902 121.772 93.4146L108.723 106.464C108.199 106.988 107.351 106.988 106.827 106.464Z" fill="#5A66FF" stroke="black" stroke-miterlimit="10"/>
<path d="M121.772 121.409L108.723 108.36C108.198 107.835 108.198 106.988 108.723 106.464L121.772 93.4144C122.296 92.89 123.143 92.89 123.668 93.4144L136.717 106.464C137.242 106.988 137.242 107.835 136.717 108.36L123.668 121.409C123.143 121.933 122.296 121.933 121.772 121.409Z" fill="white" stroke="black" stroke-miterlimit="10"/>
<path d="M76.9364 106.464L63.8869 93.4146C63.3626 92.8902 63.3626 92.0431 63.8869 91.5187L76.9364 78.4693C77.4608 77.945 78.3079 77.945 78.8323 78.4693L91.8816 91.5187C92.406 92.0431 92.406 92.8902 91.8816 93.4146L78.8323 106.464C78.3079 106.988 77.4608 106.988 76.9364 106.464Z" fill="#FFF58C" stroke="black" stroke-miterlimit="10"/>
<path d="M91.8818 121.409L78.8325 108.36C78.3081 107.835 78.3081 106.988 78.8325 106.464L91.8818 93.4144C92.4062 92.89 93.2533 92.89 93.7777 93.4144L106.827 106.464C107.352 106.988 107.352 107.835 106.827 108.36L93.7777 121.409C93.2533 121.933 92.4062 121.933 91.8818 121.409Z" fill="white" stroke="black" stroke-miterlimit="10"/>
<path d="M106.827 136.375L93.7776 123.325C93.2532 122.801 93.2532 121.954 93.7776 121.429L106.827 108.38C107.351 107.856 108.199 107.856 108.723 108.38L121.772 121.429C122.297 121.954 122.297 122.801 121.772 123.325L108.723 136.375C108.199 136.899 107.351 136.899 106.827 136.375Z" fill="#56B381" stroke="black" stroke-miterlimit="10"/>
<path d="M91.8818 91.5187L78.8325 78.4693C78.3081 77.9449 78.3081 77.0978 78.8325 76.5734L91.8818 63.524C92.4062 62.9996 93.2533 62.9996 93.7777 63.524L106.827 76.5734C107.352 77.0978 107.352 77.9449 106.827 78.4693L93.7777 91.5187C93.2533 92.043 92.4062 92.043 91.8818 91.5187Z" fill="white"/>
<path d="M91.8818 91.5186L78.8325 78.4693C78.3081 77.9449 78.3081 77.0978 78.8325 76.5734L91.8818 63.524C92.4062 62.9996 93.2533 62.9996 93.7777 63.524L106.827 76.5734C107.352 77.0978 107.352 77.9449 106.827 78.4693L93.7777 91.5186C93.2533 92.043 92.4062 92.043 91.8818 91.5186Z" stroke="black" stroke-miterlimit="10"/>
<path d="M114.531 151.441C125.987 149.041 137.746 142.143 140.67 130.828C142.384 124.192 140.831 116.81 143.756 110.618C145.289 107.351 149.302 104.487 152.348 106.423C154.667 107.896 154.869 111.203 154.425 113.926C153.982 116.649 153.175 119.553 154.325 122.054C155.857 125.362 161 126.189 163.501 123.507C165.115 121.772 165.458 119.211 165.639 116.831C165.821 114.451 165.962 111.929 167.313 109.973C168.665 108.017 171.751 107.049 173.465 108.702C175.24 110.437 174.352 113.382 173.546 115.721C172.739 118.061 172.517 121.348 174.796 122.357C176.631 123.164 178.648 121.752 179.979 120.259C186.837 112.595 187.765 101.079 185.284 91.0949C184.195 86.6779 182.501 82.2003 183.307 77.743C184.114 73.2856 188.753 69.0905 192.948 70.825C196.195 72.1562 197.406 76.0891 197.95 79.5582C200.774 96.9641 197.527 115.116 189.862 130.989C187.785 135.285 185.365 139.46 182.138 142.97C174.978 150.715 164.57 154.466 154.506 157.653C142.889 161.344 129.9 164.631 118.847 159.448C117.032 158.601 115.237 157.451 114.249 155.696C113.301 153.921 113.442 151.662 114.531 151.441Z" fill="#B180E0" stroke="#020303" stroke-miterlimit="10"/>
<path d="M211 137.645V170.803C174.817 160.396 142.587 184.095 106 184.095C68.1225 183.792 37.2034 160.396 1 170.803V137.645C37.2438 127.299 68.7276 152.591 106 152.591C140.973 152.873 174.756 127.299 211 137.645Z" fill="white" stroke="#181919" stroke-miterlimit="10"/>
<path d="M19.6966 154.386C19.0916 154.345 18.789 154.345 18.184 154.325C17.9823 155.293 17.9016 155.777 17.6999 156.766C17.1352 156.745 16.8528 156.745 16.2881 156.745C16.4898 155.757 16.5906 155.273 16.7721 154.305C16.288 154.305 16.0461 154.285 15.562 154.285C15.562 153.76 15.562 153.498 15.562 152.974C16.1469 152.974 16.4494 152.974 17.0343 152.994C17.1957 152.207 17.2764 151.804 17.4377 151.017C16.873 150.997 16.5906 150.997 16.0057 150.997C16.0057 150.473 16.0057 150.211 16.0057 149.706C16.6914 149.706 17.0142 149.727 17.6999 149.747C17.9016 148.758 18.0025 148.274 18.2042 147.306C18.7689 147.326 19.0512 147.347 19.6159 147.367C19.4142 148.335 19.3133 148.839 19.1117 149.807C19.7167 149.827 20.0193 149.848 20.6243 149.888C20.826 148.92 20.9269 148.436 21.1488 147.447C21.6933 147.488 21.9757 147.508 22.5404 147.568C22.3186 148.537 22.2177 149.041 22.016 150.009C22.4799 150.049 22.722 150.069 23.1858 150.11C23.1858 150.634 23.1858 150.896 23.1858 151.401C22.6211 151.34 22.3185 151.32 21.7538 151.259C21.5924 152.046 21.5119 152.429 21.3707 153.216C21.9354 153.256 22.2177 153.276 22.7824 153.337C22.7824 153.861 22.7825 154.123 22.8026 154.648C22.137 154.587 21.7941 154.567 21.1286 154.507C20.947 155.475 20.8462 155.939 20.6647 156.907C20.1 156.866 19.8378 156.866 19.273 156.826C19.4142 155.838 19.5151 155.354 19.6966 154.386ZM18.426 153.014C19.0311 153.034 19.3538 153.054 19.9588 153.095C20.1202 152.308 20.2009 151.925 20.3421 151.138C19.737 151.098 19.4345 151.078 18.8294 151.058C18.668 151.844 18.5873 152.228 18.426 153.014Z" fill="#181919"/>
<path d="M26.7961 148.779C26.7759 149.283 26.7559 149.545 26.7559 150.049C29.2367 150.392 30.4468 150.614 32.9074 151.098C32.9074 151.643 32.9074 151.905 32.9074 152.45C31.6569 152.207 31.0317 152.086 29.7812 151.885C29.7812 152.228 29.7812 152.389 29.7812 152.732C31.2536 152.974 31.9797 153.115 33.452 153.418C33.452 153.982 33.4721 154.265 33.4923 154.809C29.9828 154.124 28.2483 153.821 24.6784 153.397C24.6784 152.833 24.6582 152.55 24.6582 151.986C26.1305 152.167 26.8768 152.268 28.329 152.49C28.329 152.147 28.329 151.986 28.329 151.643C27.1188 151.461 26.5137 151.36 25.2834 151.219C25.2834 149.626 25.3037 148.819 25.3642 147.206C28.4702 147.569 30.0031 147.831 33.0486 148.396C33.0083 148.96 32.9881 149.243 32.9276 149.807C30.4871 149.343 29.2567 149.122 26.7961 148.779ZM25.1624 156.181C25.1624 155.455 25.4449 154.991 25.9894 154.708C26.6752 154.366 27.7844 154.366 29.1156 154.587C30.4468 154.809 31.5561 155.152 32.262 155.717C32.8267 156.161 33.1293 156.725 33.1696 157.411C33.1898 158.097 32.9074 158.5 32.383 158.722C31.6972 159.004 30.6081 158.984 29.2366 158.803C27.8651 158.621 26.7558 158.319 26.0499 157.835C25.4851 157.431 25.1624 156.907 25.1624 156.181ZM26.6349 156.362C26.6349 156.564 26.7356 156.746 26.9373 156.867C27.3407 157.149 28.0869 157.31 29.1962 157.472C30.2854 157.633 31.0317 157.693 31.4351 157.552C31.6166 157.492 31.7174 157.351 31.7174 157.149C31.7174 156.947 31.6166 156.786 31.4149 156.625C31.0115 156.342 30.2653 156.14 29.1762 155.959C28.087 155.777 27.3407 155.757 26.9373 155.919C26.7356 156.019 26.6349 156.161 26.6349 156.362Z" fill="#181919"/>
<path d="M38.494 159.509C37.425 159.287 36.8804 159.166 35.7913 158.964C35.6299 155.313 35.4081 153.155 35.8114 148.94C36.3964 149.061 36.6787 149.122 37.2636 149.243C36.8803 152.873 37.0216 154.85 37.1627 157.976C37.6871 158.097 37.9494 158.137 38.4738 158.258C38.9377 158.359 39.4016 158.44 39.7646 158.44C39.7848 158.904 39.8049 159.146 39.8251 159.63C39.5024 159.67 38.9982 159.609 38.494 159.509ZM40.3899 160.436C40.289 158.42 40.0873 157.31 40.0873 155.051C39.3814 154.89 39.0183 154.809 38.3124 154.648C38.3124 154.083 38.3124 153.801 38.3124 153.236C39.0183 153.397 39.3814 153.478 40.0873 153.639C40.0873 152.187 40.2083 151.401 40.3899 149.848C40.9546 149.969 41.2369 150.049 41.8016 150.17C41.257 154.688 41.5798 156.947 41.7815 160.739C41.237 160.618 40.9546 160.557 40.3899 160.436ZM42.5076 161.021C42.2857 157.169 41.963 154.87 42.5278 150.271C43.0925 150.412 43.3748 150.473 43.9395 150.594C43.3748 155.192 43.6976 157.492 43.9194 161.344C43.3547 161.203 43.0723 161.142 42.5076 161.021Z" fill="#181919"/>
<path d="M46.0977 156.483C46.0977 153.821 46.4607 152.53 47.1061 151.945C47.4288 151.643 47.8726 151.542 48.4171 151.663C48.9819 151.804 49.3651 152.086 49.6072 152.53C50.0106 153.256 50.071 154.426 50.1315 156.423C50.4743 156.503 50.6358 156.544 50.9787 156.604C50.9787 154.95 51.0593 154.083 51.2409 152.369C51.8056 152.51 52.0879 152.57 52.6728 152.691C52.2694 157.169 52.5114 159.408 52.6526 163.341C52.0879 163.2 51.7854 163.119 51.2207 162.978C51.14 161.102 51.0795 160.094 50.9787 158.036C50.6358 157.956 50.4744 157.915 50.1517 157.855C50.2727 160.235 50.0912 161.263 49.6072 161.707C49.3248 161.949 48.9213 162.01 48.3768 161.889C47.8322 161.747 47.3885 161.485 47.1061 161.122C46.501 160.376 46.0977 159.166 46.0977 156.483ZM47.5095 156.826C47.5095 159.065 47.7314 160.013 47.9533 160.396C48.034 160.537 48.1751 160.618 48.2961 160.658C48.4373 160.699 48.5583 160.658 48.6188 160.557C48.8205 160.275 48.6794 159.347 48.6794 157.108C48.6794 154.89 48.6995 153.902 48.5382 153.458C48.4776 153.297 48.3768 153.196 48.2356 153.176C48.1146 153.135 47.9734 153.176 47.8725 153.317C47.6305 153.639 47.5095 154.608 47.5095 156.826ZM53.2376 163.623C53.0964 159.589 52.8746 157.31 53.2578 152.772C53.8427 152.913 54.125 152.974 54.7099 153.095C54.4073 157.613 54.5889 159.872 54.7099 163.986C54.1048 163.845 53.8225 163.764 53.2376 163.623Z" fill="#181919"/>
<path d="M59.8936 162.151C59.3692 163.139 58.1792 163.764 56.969 163.845C56.969 163.26 56.9489 162.958 56.9489 162.373C58.1187 162.07 59.1473 161.223 59.1473 158.117C59.1473 156.524 59.1473 155.737 59.1473 154.164C59.7524 154.285 60.0549 154.345 60.66 154.487C60.66 156.04 60.66 156.826 60.66 158.419C60.66 161.526 61.6685 162.736 62.8383 163.623C62.8383 164.268 62.8181 164.591 62.8181 165.237C61.608 164.531 60.4381 163.341 59.8936 162.151ZM65.5409 166.79C64.9358 166.628 64.6333 166.548 64.0282 166.366C64.0685 163.885 64.0888 162.675 64.0888 160.376C63.2013 160.174 62.7374 160.073 61.8499 159.872C61.8499 159.307 61.8499 159.004 61.8499 158.44C62.7374 158.621 63.2013 158.722 64.0888 158.944C64.0888 157.391 64.0888 156.665 64.0686 155.192C64.6737 155.334 64.9762 155.414 65.6014 155.576C65.6216 159.751 65.6216 161.929 65.5409 166.79Z" fill="#181919"/>
<path d="M75.6455 166.003C75.0202 165.842 74.7176 165.741 74.0924 165.58C73.8907 166.528 73.7698 167.092 73.5479 168.161C72.9832 168 72.7008 167.919 72.1361 167.758C72.3579 166.709 72.4789 166.144 72.6806 165.196C72.1965 165.055 71.9545 164.995 71.4705 164.854C71.4705 164.309 71.4705 164.047 71.4705 163.522C72.0554 163.684 72.3579 163.764 72.9428 163.926C73.1041 163.159 73.1848 162.776 73.3462 162.03C72.7613 161.868 72.479 161.788 71.9142 161.626C71.9142 161.102 71.9142 160.84 71.9142 160.315C72.6 160.497 72.9226 160.598 73.6084 160.779C73.8101 159.831 73.9109 159.428 74.0924 158.561C74.6571 158.722 74.9597 158.803 75.5245 158.964C75.3429 159.831 75.2421 160.235 75.0404 161.183C75.6657 161.364 75.9681 161.445 76.5933 161.606C76.795 160.658 76.896 160.255 77.0775 159.388C77.6422 159.549 77.9245 159.63 78.5094 159.771C78.3077 160.638 78.2271 161.062 78.0254 161.99C78.5095 162.131 78.7514 162.191 79.2355 162.332C79.2355 162.857 79.2355 163.119 79.2355 163.643C78.6304 163.482 78.3481 163.401 77.743 163.24C77.5816 164.006 77.501 164.369 77.3195 165.136C77.9044 165.297 78.2069 165.378 78.7918 165.539C78.7918 166.064 78.7918 166.346 78.7918 166.87C78.1061 166.689 77.7632 166.588 77.0573 166.407C76.8556 167.354 76.7346 167.919 76.5127 168.968C75.948 168.807 75.6656 168.726 75.0807 168.585C75.3227 167.516 75.4438 166.951 75.6455 166.003ZM74.3546 164.309C74.9799 164.49 75.2824 164.571 75.9077 164.733C76.069 163.966 76.1497 163.583 76.3111 162.837C75.6858 162.655 75.3833 162.574 74.758 162.413C74.6168 163.159 74.5361 163.543 74.3546 164.309Z" fill="#181919"/>
<path d="M85.3466 160.981C85.3466 161.525 85.3466 161.808 85.3668 162.352C84.8222 162.231 84.5601 162.151 84.0155 162.03C84.0357 163.26 84.0155 163.946 84.0155 165.237C84.0155 167.859 84.4793 168.786 85.4676 169.613C85.4475 170.259 85.4474 170.602 85.4474 171.247C84.4188 170.662 83.6928 169.815 83.2491 168.867C82.765 169.593 82.0188 170.077 80.97 170.178C80.9901 169.512 80.9901 169.17 81.0102 168.504C81.9985 168.161 82.5028 167.475 82.5028 164.874C82.5028 163.563 82.5028 162.897 82.5028 161.667C81.9583 161.525 81.6758 161.445 81.1312 161.304C81.1312 160.759 81.1313 160.497 81.1112 159.952C82.8054 160.376 83.6524 160.578 85.3466 160.981ZM88.1501 172.618C88.1905 170.319 88.1904 169.21 88.1904 167.052C87.8677 166.971 87.7064 166.951 87.3837 166.87C87.3837 168.988 87.3635 170.077 87.3433 172.316C86.7383 172.195 86.4357 172.134 85.8307 171.993C85.9113 167.294 85.9114 165.136 85.871 160.981C86.4761 161.122 86.7786 161.183 87.3837 161.324C87.4039 162.937 87.4039 163.724 87.4039 165.418C87.7266 165.499 87.8879 165.519 88.2106 165.6C88.2106 163.905 88.2106 163.078 88.1904 161.445C88.7955 161.566 89.098 161.646 89.7031 161.747C89.7232 166.023 89.7435 168.222 89.683 172.901C89.0578 172.8 88.7552 172.739 88.1501 172.618Z" fill="#181919"/>
<path d="M92.4264 162.393C94.5038 162.756 95.5324 162.897 97.6098 163.119C97.6098 165.337 97.6098 166.447 97.6098 168.685C95.5526 168.464 94.5038 168.302 92.4466 167.939C92.4466 165.68 92.4466 164.571 92.4264 162.393ZM96.9846 174.111C96.319 173.788 95.5728 173.102 95.1895 172.397C94.6853 173.042 93.6365 173.506 92.6078 173.546C92.6078 172.941 92.6079 172.659 92.628 172.054C93.7373 171.812 94.3827 171.065 94.3827 169.533C94.3827 169.412 94.3827 169.351 94.3827 169.23C95.008 169.331 95.3105 169.371 95.9358 169.452C95.9358 169.573 95.9358 169.633 95.9358 169.754C95.9358 171.065 96.3392 171.953 96.9846 172.538C97.63 172.094 98.0535 171.307 98.0535 170.017C98.0535 169.896 98.0535 169.835 98.0535 169.714C98.6787 169.775 98.9813 169.795 99.6066 169.855C99.6066 169.976 99.6066 170.037 99.6066 170.158C99.6066 171.691 100.232 172.558 101.341 173.022C101.341 173.587 101.341 173.889 101.341 174.454C100.312 174.212 99.2838 173.566 98.7998 172.82C98.3964 173.405 97.6905 173.929 96.9846 174.111ZM93.9593 164.026C93.9593 165.116 93.9593 165.68 93.9593 166.769C94.8064 166.911 95.2501 166.971 96.0972 167.072C96.0972 165.963 96.0972 165.418 96.0972 164.309C95.2501 164.228 94.8064 164.147 93.9593 164.026ZM99.3242 169.311C99.3242 166.83 99.3242 165.6 99.3242 163.139C99.9494 163.179 100.252 163.199 100.877 163.24C100.877 165.7 100.877 166.951 100.877 169.412C100.252 169.371 99.9292 169.351 99.3242 169.311Z" fill="#181919"/>
<path d="M103.418 168.484C107.15 168.504 109.005 168.363 112.757 167.859C112.757 168.423 112.757 168.726 112.757 169.291C109.005 169.775 107.13 169.936 103.418 169.916C103.418 169.351 103.418 169.069 103.418 168.484ZM105.617 165.902C108.239 165.822 109.55 165.721 112.172 165.418C112.172 165.983 112.172 166.265 112.172 166.83C108.925 167.213 107.291 167.354 104.064 167.354C104.064 165.761 104.064 164.954 104.064 163.361C104.689 163.361 104.992 163.361 105.617 163.341C105.617 164.369 105.617 164.874 105.617 165.902ZM105.617 172.921C108.279 172.84 109.61 172.74 112.293 172.417C112.293 173.002 112.293 173.284 112.293 173.869C108.985 174.252 107.331 174.373 104.064 174.393C104.064 172.941 104.064 172.195 104.064 170.743C104.689 170.743 104.992 170.743 105.617 170.723C105.617 171.59 105.617 172.034 105.617 172.921Z" fill="#181919"/>
<path d="M117.718 169.896C117.194 171.085 115.963 172.195 114.713 172.76C114.713 172.154 114.713 171.832 114.713 171.227C115.923 170.46 116.931 169.19 116.952 166.164C116.972 164.631 116.951 163.804 116.931 162.151C117.557 162.03 117.859 161.989 118.484 161.868C118.505 163.522 118.505 164.349 118.505 165.882C118.484 168.887 119.533 169.795 120.743 170.138C120.743 170.763 120.743 171.065 120.743 171.691C119.493 171.57 118.262 170.884 117.718 169.896ZM123.547 171.852C122.922 171.993 122.619 172.054 121.994 172.195C121.953 167.657 122.014 165.66 121.954 161.001C122.579 160.86 122.881 160.799 123.506 160.638C123.567 165.337 123.506 167.314 123.547 171.852Z" fill="#181919"/>
<path d="M128.247 161.243C128.267 162.635 128.247 163.199 128.226 164.41C130.909 163.724 132.24 163.341 134.923 162.615C134.923 163.159 134.923 163.441 134.923 164.047C133.591 164.41 132.906 164.591 131.574 164.954C131.595 166.124 131.595 166.709 131.595 167.879C133.128 167.475 133.894 167.253 135.407 166.83C135.407 167.435 135.407 167.717 135.427 168.322C131.756 169.351 129.9 169.855 126.189 170.743C126.189 170.158 126.189 169.855 126.169 169.27C127.722 168.887 128.509 168.685 130.042 168.282C130.021 167.112 130.022 166.527 130.022 165.358C128.69 165.721 128.005 165.882 126.673 166.225C126.653 163.704 126.714 162.715 126.673 160.093C129.961 159.266 131.595 158.803 134.862 157.915C134.882 158.54 134.882 158.863 134.902 159.488C132.24 160.194 130.909 160.557 128.247 161.243Z" fill="#181919"/>
<path d="M137.383 162.03C141.094 161.001 142.929 160.477 146.56 159.549C146.56 160.053 146.56 160.295 146.56 160.819C142.929 161.747 141.074 162.272 137.383 163.3C137.363 162.776 137.363 162.514 137.383 162.03ZM139.581 159.872C142.163 159.145 143.454 158.782 145.995 158.097C145.995 158.561 145.995 158.803 145.995 159.287C142.849 160.114 141.255 160.557 138.048 161.465C138.068 160.416 138.089 159.932 138.068 158.702C140.63 157.976 141.901 157.613 144.442 156.927C144.442 156.766 144.442 156.685 144.442 156.523C141.901 157.209 140.63 157.572 138.068 158.278C138.048 157.754 138.048 157.492 138.048 156.967C141.235 156.08 142.808 155.656 145.955 154.87C145.955 156.019 145.975 156.645 145.975 157.734C143.454 158.419 142.183 158.782 139.642 159.508C139.581 159.65 139.581 159.73 139.581 159.872ZM139.581 166.548C142.223 165.801 143.554 165.418 146.156 164.712C146.156 165.196 146.156 165.438 146.156 165.922C142.949 166.83 141.336 167.294 138.068 168.222C138.048 167.052 138.048 166.467 138.048 165.317C140.61 164.591 141.88 164.228 144.422 163.542C144.422 163.361 144.422 163.26 144.422 163.078C141.88 163.764 140.61 164.127 138.048 164.833C138.048 164.349 138.048 164.107 138.028 163.623C141.215 162.736 142.788 162.292 145.914 161.485C145.914 162.615 145.914 163.179 145.934 164.309C143.413 164.994 142.143 165.358 139.581 166.084C139.581 166.245 139.581 166.346 139.581 166.548Z" fill="#181919"/>
<path d="M156.1 160.053C155.455 160.215 155.152 160.275 154.506 160.436C154.224 161.465 154.164 161.949 153.982 162.958C153.397 163.099 153.115 163.179 152.53 163.321C152.711 162.312 152.792 161.808 153.054 160.799C152.55 160.92 152.308 160.981 151.824 161.102C151.844 160.578 151.864 160.315 151.885 159.791C152.49 159.65 152.792 159.569 153.417 159.428C153.639 158.601 153.74 158.178 153.881 157.31C153.276 157.451 152.974 157.532 152.389 157.673C152.369 157.149 152.369 156.867 152.348 156.342C153.054 156.161 153.397 156.08 154.103 155.898C154.265 154.829 154.386 154.345 154.587 153.357C155.172 153.216 155.475 153.135 156.06 152.994C155.858 153.982 155.737 154.446 155.576 155.535C156.221 155.374 156.544 155.293 157.189 155.152C157.35 154.063 157.471 153.599 157.673 152.611C158.258 152.47 158.561 152.389 159.145 152.248C158.944 153.236 158.823 153.7 158.661 154.789C159.166 154.668 159.428 154.608 159.932 154.487C159.972 155.031 159.972 155.313 160.013 155.858C159.387 155.999 159.085 156.08 158.46 156.221C158.339 157.088 158.238 157.512 157.976 158.339C158.581 158.198 158.903 158.117 159.508 157.996C159.448 158.52 159.408 158.783 159.347 159.287C158.621 159.448 158.278 159.529 157.552 159.71C157.229 160.739 157.189 161.203 157.008 162.191C156.423 162.332 156.12 162.413 155.555 162.554C155.737 161.566 155.797 161.082 156.1 160.053ZM154.89 159.065C155.535 158.904 155.858 158.843 156.503 158.682C156.745 157.855 156.846 157.431 156.987 156.564C156.342 156.725 156.019 156.786 155.374 156.947C155.233 157.814 155.132 158.238 154.89 159.065Z" fill="#181919"/>
<path d="M163.199 150.211C163.845 150.049 164.167 149.969 164.813 149.827C164.813 150.412 164.833 150.715 164.833 151.3C165.438 151.159 165.761 151.098 166.366 150.957C166.366 151.542 166.386 151.824 166.386 152.409C164.49 152.792 163.522 152.994 161.626 153.438C161.626 152.873 161.626 152.611 161.606 152.046C162.251 151.905 162.554 151.824 163.199 151.683C163.199 151.078 163.199 150.775 163.199 150.211ZM161.868 157.774C162.07 156.261 162.211 154.95 162.836 154.204C163.159 153.841 163.562 153.579 164.107 153.458C164.651 153.337 165.075 153.418 165.438 153.639C166.144 154.123 166.527 155.293 166.325 156.826C166.124 158.339 165.882 159.509 165.236 160.194C164.914 160.537 164.49 160.759 163.945 160.88C163.401 161.001 162.977 160.941 162.634 160.759C161.949 160.335 161.666 159.287 161.868 157.774ZM163.401 157.431C163.24 158.601 163.3 159.246 163.542 159.468C163.643 159.549 163.744 159.569 163.885 159.549C164.006 159.529 164.127 159.448 164.208 159.327C164.429 159.004 164.591 158.319 164.752 157.129C164.914 155.959 164.772 155.253 164.53 154.991C164.43 154.91 164.309 154.87 164.188 154.89C164.067 154.91 163.945 155.011 163.865 155.132C163.643 155.515 163.562 156.261 163.401 157.431ZM169.169 160.275C169.129 158.238 169.189 157.189 169.452 155.071C169.169 155.132 169.028 155.152 168.746 155.213C168.483 157.29 168.423 158.298 168.463 160.295C167.858 160.416 167.556 160.477 166.951 160.598C166.85 156.483 167.112 154.103 167.031 149.706C167.636 149.565 167.939 149.505 168.544 149.364C168.564 151.078 168.584 151.945 168.685 153.7C168.968 153.639 169.109 153.619 169.391 153.559C169.29 151.764 169.27 150.896 169.25 149.142C169.855 149 170.178 148.94 170.783 148.819C170.863 153.458 170.621 155.797 170.722 159.993C170.097 160.114 169.794 160.174 169.169 160.275Z" fill="#181919"/>
<path d="M180.888 149.606C180.867 148.678 180.847 148.214 180.827 147.306C181.472 147.226 181.795 147.185 182.441 147.105C182.501 150.17 182.642 151.542 182.501 154.244C181.13 154.406 180.444 154.486 179.072 154.688C179.012 155.555 178.971 155.999 178.971 156.826C180.585 156.604 181.372 156.503 182.985 156.322C182.985 156.887 182.985 157.169 183.005 157.734C179.153 158.137 177.217 158.419 173.324 159.085C173.304 158.54 173.304 158.258 173.304 157.714C174.938 157.431 175.744 157.31 177.378 157.068C177.358 156.221 177.418 155.797 177.479 154.93C176.087 155.132 175.381 155.253 173.97 155.495C174.232 152.812 173.97 151.34 173.909 148.416C174.554 148.295 174.877 148.234 175.523 148.113C175.543 149.001 175.543 149.464 175.563 150.352C177.721 150.009 178.77 149.868 180.888 149.606ZM180.928 151.118C178.81 151.38 177.761 151.542 175.644 151.865C175.684 152.631 175.684 153.014 175.724 153.781C177.842 153.438 178.891 153.276 180.988 152.994C180.968 152.248 180.948 151.865 180.928 151.118Z" fill="#181919"/>
<path d="M191.134 146.56C191.134 147.185 191.154 147.488 191.154 148.113C190.307 148.133 189.883 148.153 189.036 148.194C189.056 149.283 189.056 149.787 189.056 150.796C189.076 153.922 190.045 154.85 191.255 155.374C191.255 155.979 191.255 156.282 191.255 156.887C189.984 156.544 188.814 155.717 188.25 154.708C187.644 155.777 186.495 156.786 185.204 157.27C185.204 156.665 185.204 156.382 185.204 155.777C186.414 155.092 187.523 154.023 187.483 150.896C187.463 149.888 187.463 149.404 187.443 148.295C186.596 148.355 186.172 148.375 185.325 148.456C185.305 147.811 185.305 147.488 185.285 146.842C187.644 146.621 188.814 146.58 191.134 146.56ZM193.776 150.876C194.401 150.856 194.704 150.856 195.329 150.856C195.329 151.421 195.329 151.703 195.329 152.268C194.704 152.268 194.401 152.268 193.776 152.288C193.776 154.386 193.776 155.434 193.776 157.532C193.151 157.532 192.848 157.552 192.223 157.572C192.223 153.176 192.243 151.078 192.203 146.358C192.828 146.358 193.151 146.379 193.776 146.399C193.756 148.214 193.776 149.122 193.776 150.876Z" fill="#181919"/>
<path d="M145.471 100.655C165.115 93.7775 182.299 80.1029 193.392 62.4954" stroke="#020303" stroke-miterlimit="10"/>
<path d="M173.041 113.221C177.776 113.221 181.613 109.383 181.613 104.649C181.613 99.9146 177.776 96.0769 173.041 96.0769C168.307 96.0769 164.47 99.9146 164.47 104.649C164.47 109.383 168.307 113.221 173.041 113.221Z" fill="#FFF58C" stroke="#1D1D1B" stroke-miterlimit="10"/>
<path d="M42.729 93.9591C49.4681 93.9591 54.9312 88.496 54.9312 81.7568C54.9312 75.0177 49.4681 69.5546 42.729 69.5546C35.9899 69.5546 30.5267 75.0177 30.5267 81.7568C30.5267 88.496 35.9899 93.9591 42.729 93.9591Z" fill="#FF88B6" stroke="#1D1D1B" stroke-miterlimit="10"/>
<path d="M56.3438 126.714C59.8972 126.714 62.7778 123.833 62.7778 120.28C62.7778 116.726 59.8972 113.846 56.3438 113.846C52.7905 113.846 49.9099 116.726 49.9099 120.28C49.9099 123.833 52.7905 126.714 56.3438 126.714Z" fill="#56B381" stroke="#1D1D1B" stroke-miterlimit="10"/>
</svg>
