<svg width="212" height="185" viewBox="0 0 212 185" fill="none" xmlns="http://www.w3.org/2000/svg">
<path d="M107.291 183.53C157.695 183.53 198.556 142.669 198.556 92.2649C198.556 41.8607 157.695 1 107.291 1C56.8871 1 16.0264 41.8607 16.0264 92.2649C16.0264 142.669 56.8871 183.53 107.291 183.53Z" fill="#5A66FF"/>
<path d="M19.0911 117.94C19.0911 117.94 86.617 134.136 129.859 122.176C179.374 108.461 194.017 120.945 194.017 120.945C194.017 120.945 178.467 172.497 134.74 177.701C83.9547 183.752 33.2094 149.727 33.2094 149.727L23.9115 129.537L19.0911 117.94Z" fill="#EBEBEB"/>
<path d="M19.0911 117.94C56.3634 127.783 94.0795 128.71 131.957 121.47C147.064 118.586 162.352 114.33 177.62 116.387C184.497 117.315 187.583 118.263 194.178 120.441" stroke="black" stroke-miterlimit="10"/>
<path d="M107.291 183.53C157.695 183.53 198.556 142.669 198.556 92.2649C198.556 41.8607 157.695 1 107.291 1C56.8871 1 16.0264 41.8607 16.0264 92.2649C16.0264 142.669 56.8871 183.53 107.291 183.53Z" stroke="#181919" stroke-miterlimit="10"/>
<path d="M198.555 98.4165C188.208 106.222 174.795 108.541 162.754 109.691C157.551 110.195 152.085 110.599 147.688 114.108C147.244 114.471 146.781 114.895 146.579 115.5C146.135 116.871 147.164 118.323 148.253 118.928C151.117 120.522 154.405 119.191 157.41 118.122C162.129 116.448 167.01 115.48 171.911 115.217C173.242 115.137 174.654 115.157 175.784 116.064C176.893 116.972 177.478 119.09 176.611 120.34C176.066 121.107 175.199 121.308 174.392 121.429C168.967 122.216 162.936 121.47 158.62 125.625C157.793 126.411 157.026 127.904 157.672 128.912C157.974 129.396 158.519 129.578 159.003 129.679C161.746 130.284 164.61 130.042 167.252 128.993C169.128 128.267 171.629 127.379 172.678 129.457C173.605 131.252 172.294 133.712 170.701 134.459C169.108 135.205 167.333 134.902 165.639 135.164C163.944 135.427 162.069 136.637 161.847 138.755C163.017 140.308 165.013 140.005 166.687 139.561C173.283 137.827 179.878 136.112 186.473 134.378C187.018 134.237 187.462 134.559 187.925 134.176C188.551 133.672 189.257 132.704 189.62 131.857C193.916 122.276 195.933 116.044 198.555 98.4165Z" fill="#B180E0" stroke="#181919" stroke-miterlimit="10" stroke-linecap="round" stroke-linejoin="round"/>
<path d="M16.0252 94.7258C26.4324 90.8937 38.2716 88.0902 49.2032 87.4045C50.7563 87.3036 52.3698 87.2633 53.7413 88.0701C55.1128 88.8768 56.0405 90.8735 55.3145 92.4064C48.7999 92.951 42.2853 93.8586 35.8514 95.109C34.2177 95.4317 32.5235 95.815 31.273 97.0049C30.0225 98.1949 29.4376 100.494 30.4663 101.926C31.5554 103.439 33.6126 103.217 35.3068 102.874C39.381 102.027 43.4753 101.18 47.5494 100.333C49.526 99.9294 52.148 99.8891 52.8539 102.007C53.3581 103.52 52.3698 105.234 51.0588 105.92C49.7478 106.605 48.2554 106.545 46.8032 106.505C40.8331 106.343 29.3771 110.982 30.4864 112.696C31.7974 114.734 56.2019 106.061 69.1908 107.735C70.179 107.856 71.248 108.098 71.9741 108.864C72.7002 109.631 72.9019 111.123 72.1153 111.849C71.7119 112.233 71.1472 112.293 70.6228 112.354C58.9651 113.665 47.388 115.843 35.9724 118.848C36.9405 120.865 39.4616 121.107 41.4382 120.522C43.4148 119.937 45.3308 118.787 47.3477 118.989C49.3848 119.171 51.4017 121.651 50.3731 123.628C49.7882 124.737 48.5578 125.141 47.4485 125.443C43.2534 126.573 42.3458 126.996 37.485 127.622C35.1858 127.924 26.2308 129.417 23.9113 129.517C23.2256 129.558 15.0974 106.747 16.0252 94.7258Z" fill="#FFF58C" stroke="#181919" stroke-miterlimit="10" stroke-linecap="round" stroke-linejoin="round"/>
<path d="M211 137.645V170.803C174.817 160.396 142.587 184.095 106 184.095C68.1225 183.792 37.2034 160.396 1 170.803V137.645C37.2438 127.299 68.7276 152.591 106 152.591C140.973 152.873 174.776 127.299 211 137.645Z" fill="white" stroke="#181919" stroke-miterlimit="10"/>
<path d="M16.8931 154.063C16.3284 154.043 16.046 154.023 15.4611 154.002C15.2796 155.031 15.1787 155.535 14.9972 156.564C14.4728 156.544 14.2106 156.544 13.666 156.544C13.8476 155.515 13.9484 155.011 14.1299 153.982C13.6862 153.982 13.4442 153.982 13.0005 153.982C13.0005 153.438 13.0005 153.155 13.0005 152.611C13.5451 152.611 13.8274 152.611 14.372 152.631C14.5132 151.804 14.5938 151.381 14.7552 150.554C14.2106 150.533 13.9484 150.533 13.4038 150.533C13.4038 149.989 13.4038 149.707 13.4038 149.162C14.0492 149.162 14.3518 149.162 14.9972 149.182C15.1787 148.153 15.2796 147.629 15.4812 146.6C16.0056 146.621 16.2678 146.621 16.8124 146.661C16.6107 147.69 16.5301 148.194 16.3284 149.222C16.8931 149.243 17.1755 149.263 17.7402 149.303C17.9217 148.275 18.0226 147.77 18.2243 146.742C18.7487 146.782 19.0108 146.802 19.515 146.843C19.3134 147.871 19.2125 148.375 19.031 149.404C19.4747 149.444 19.6966 149.464 20.1403 149.505C20.1403 150.049 20.1403 150.312 20.1403 150.856C19.5958 150.816 19.3336 150.775 18.789 150.735C18.6478 151.562 18.5671 151.965 18.426 152.792C18.9705 152.833 19.2327 152.853 19.7571 152.893C19.7571 153.438 19.7571 153.72 19.7773 154.265C19.152 154.204 18.8293 154.184 18.2041 154.144C18.0226 155.152 17.9419 155.656 17.7604 156.665C17.236 156.645 16.9738 156.624 16.4494 156.604C16.6107 155.596 16.7116 155.092 16.8931 154.063ZM15.7031 152.651C16.2679 152.671 16.5704 152.692 17.1351 152.712C17.2763 151.885 17.357 151.481 17.4981 150.654C16.9334 150.614 16.6511 150.614 16.0662 150.574C15.925 151.401 15.8443 151.824 15.7031 152.651Z" fill="#181919"/>
<path d="M21.5521 151.098C22.6211 151.219 23.1657 151.28 24.2346 151.421C24.2346 150.533 24.1943 150.11 24.2346 149.202C24.7792 149.283 25.0616 149.323 25.6061 149.404C25.5658 150.312 25.6061 150.735 25.6061 151.623C27.3003 151.885 28.1474 152.026 29.8214 152.329C29.8214 152.934 29.8215 153.216 29.8416 153.821C26.5541 153.216 24.9002 152.954 21.5521 152.591C21.5521 151.986 21.5521 151.703 21.5521 151.098ZM22.016 155.777C22.016 154.95 22.3387 154.426 22.9236 154.144C23.6094 153.781 24.6582 153.76 25.7473 153.942C26.8364 154.103 27.8852 154.426 28.5911 154.991C29.176 155.455 29.5391 156.08 29.5592 156.867C29.5794 157.673 29.2567 158.117 28.692 158.379C28.0062 158.682 26.9574 158.682 25.8481 158.541C24.7388 158.399 23.6901 158.137 22.964 157.633C22.3791 157.189 22.0362 156.624 22.016 155.777ZM27.9457 148.718C25.6263 148.335 24.4565 148.153 22.0967 147.891C22.1169 147.286 22.1169 146.984 22.137 146.399C25.0817 146.722 26.5339 146.923 29.418 147.427C29.3575 148.355 29.3172 148.819 29.2567 149.747C29.2164 150.453 29.1962 151.118 29.0752 151.602C28.5508 151.502 28.2684 151.461 27.744 151.36C27.8449 150.896 27.8449 150.231 27.8852 149.586C27.9256 149.243 27.9256 149.081 27.9457 148.718ZM23.4077 155.939C23.4077 156.181 23.5287 156.382 23.7505 156.524C24.1338 156.826 24.8598 156.988 25.828 157.109C26.7759 157.23 27.502 157.27 27.865 157.088C28.0667 157.008 28.1877 156.846 28.1676 156.604C28.1676 156.382 28.0466 156.181 27.8247 156.019C27.4415 155.717 26.7154 155.515 25.7674 155.374C24.8195 155.233 24.0934 155.213 23.7102 155.414C23.5287 155.535 23.4077 155.717 23.4077 155.939Z" fill="#181919"/>
<path d="M34.9039 150.07C33.6736 149.807 33.0484 149.686 31.8181 149.444C31.8786 148.839 31.8987 148.517 31.9391 147.911C33.7341 148.254 34.6216 148.436 36.4166 148.819C36.3763 149.243 36.3561 149.444 36.2956 149.848C35.8721 153.74 34.6014 155.092 31.5559 154.91C31.5357 154.305 31.4954 154.023 31.4954 153.418C33.7341 153.478 34.6619 152.369 34.9039 150.07ZM33.7543 158.178C36.0133 158.621 37.1225 158.863 39.3815 159.367C39.4016 159.892 39.4218 160.154 39.4622 160.679C36.6587 160.053 35.267 159.771 32.4433 159.267C32.3828 157.774 32.3627 157.048 32.282 155.435C32.8265 155.535 33.1089 155.596 33.6535 155.717C33.6938 156.746 33.714 157.23 33.7543 158.178ZM38.9781 152.45C39.4823 152.571 39.7446 152.631 40.2488 152.752C40.2488 153.337 40.2488 153.64 40.2488 154.245C39.7446 154.124 39.4823 154.063 38.9781 153.942C38.9781 155.374 39.0386 156.08 39.1193 157.492C38.5747 157.371 38.2923 157.31 37.7478 157.189C37.5461 153.962 37.5461 152.389 37.9293 149.001C38.4739 149.122 38.7563 149.182 39.3008 149.303C39.1596 150.574 38.9781 151.239 38.9781 152.45Z" fill="#181919"/>
<path d="M41.459 155.636C44.7667 156.403 46.4206 156.826 49.8292 157.572C49.8292 158.177 49.8695 158.46 49.9098 159.065C48.5383 158.762 47.8526 158.601 46.5012 158.278C46.5416 159.065 46.5819 159.529 46.6223 160.235C46.0777 160.114 45.7953 160.033 45.2508 159.912C45.2104 159.206 45.1701 158.762 45.1298 157.976C43.6978 157.633 42.9919 157.471 41.5599 157.129C41.5195 156.524 41.459 156.241 41.459 155.636ZM41.9229 152.51C42.0237 151.764 42.2859 151.28 42.7095 150.977C43.4759 150.432 44.6861 150.533 45.9769 150.836C47.2879 151.138 48.4375 151.602 49.0628 152.47C49.3855 152.933 49.5468 153.518 49.4661 154.244C49.3854 154.971 49.2241 155.414 48.8409 155.697C48.1349 156.201 46.945 156.1 45.634 155.797C44.323 155.495 43.1532 155.031 42.4674 154.224C42.0842 153.781 41.822 153.236 41.9229 152.51ZM43.6776 160.356C46.0374 160.92 47.2274 161.203 49.6275 161.767C49.6476 162.312 49.6678 162.574 49.688 163.119C46.7433 162.393 45.2911 162.03 42.3868 161.344C42.3263 160.134 42.2859 159.589 42.2052 158.218C42.7498 158.339 43.0322 158.419 43.5768 158.54C43.6171 159.327 43.6373 159.65 43.6776 160.356ZM43.2944 152.833C43.254 153.075 43.3347 153.276 43.4961 153.458C43.8591 153.861 44.5852 154.144 45.6138 154.386C46.6424 154.628 47.4088 154.708 47.7517 154.466C47.9131 154.365 47.9938 154.204 48.0341 153.962C48.0543 153.7 47.9938 153.498 47.8526 153.317C47.5299 152.893 46.8038 152.611 45.7752 152.369C44.7466 152.127 44.0003 152.066 43.5969 152.308C43.4355 152.409 43.3347 152.57 43.2944 152.833Z" fill="#181919"/>
<path d="M51.8057 155.414C51.8057 154.345 52.2292 153.539 52.7738 153.095C53.2175 152.732 53.8226 152.611 54.4882 152.772C55.1739 152.913 55.7184 153.297 56.142 153.821C56.2428 153.962 56.3437 154.144 56.4446 154.305C57.211 154.466 57.5942 154.547 58.3606 154.688C58.3606 154.265 58.3606 154.063 58.3606 153.66C58.9253 153.781 59.2077 153.841 59.7725 153.962C59.7725 156.624 59.7725 157.976 59.7725 160.678C59.2077 160.557 58.9253 160.517 58.3404 160.396C58.3404 159.73 58.3404 159.388 58.3404 158.722C57.5538 158.581 57.1505 158.5 56.3639 158.359C56.263 158.48 56.1622 158.601 56.0412 158.702C55.5975 159.065 55.0125 159.186 54.3066 159.045C53.6007 158.904 52.9956 158.541 52.5721 157.996C52.1082 157.371 51.8057 156.463 51.8057 155.414ZM52.5318 161.707C52.5116 160.941 52.8343 160.396 53.3385 160.134C54.0646 159.751 55.1739 159.811 56.2025 160.013C57.2513 160.215 58.3808 160.598 59.127 161.283C59.6514 161.788 60.0145 162.433 60.0145 163.3C60.0145 164.147 59.6514 164.692 59.1068 164.974C58.3808 165.337 57.2916 165.237 56.2832 164.974C55.2747 164.712 54.1856 164.289 53.4394 163.603C52.915 163.099 52.552 162.473 52.5318 161.707ZM53.2175 155.717C53.2175 156.282 53.3587 156.725 53.5805 157.048C53.7621 157.31 54.0243 157.492 54.347 157.552C54.6697 157.613 54.9117 157.552 55.1134 157.351C55.3554 157.129 55.4764 156.725 55.4764 156.161C55.4764 155.596 55.3756 155.112 55.1739 154.789C54.9924 154.527 54.7504 154.345 54.4277 154.265C54.1251 154.204 53.8427 154.265 53.6411 154.466C53.399 154.729 53.2175 155.152 53.2175 155.717ZM53.9234 162.03C53.9234 162.292 54.0646 162.514 54.2865 162.715C54.7302 163.099 55.5168 163.381 56.2429 163.542C56.9891 163.704 57.7757 163.784 58.2194 163.583C58.4413 163.462 58.5825 163.3 58.5825 162.998C58.5825 162.715 58.4413 162.494 58.2194 162.292C57.7757 161.889 56.9689 161.647 56.2025 161.485C55.4562 161.344 54.6697 161.263 54.226 161.485C54.0445 161.606 53.9234 161.768 53.9234 162.03ZM56.8681 155.878C56.8883 156.06 56.8883 156.261 56.8883 156.443C56.8883 156.645 56.8681 156.826 56.8479 157.008C57.453 157.129 57.7555 157.169 58.3606 157.29C58.3606 156.846 58.3606 156.624 58.3606 156.161C57.7757 156.06 57.4732 155.999 56.8681 155.878Z" fill="#181919"/>
<path d="M67.5981 156.04C67.5981 156.604 67.5981 156.887 67.6182 157.451C66.8518 157.25 66.4686 157.149 65.682 156.967C65.682 157.956 65.682 158.48 65.682 159.529C65.682 162.816 66.6098 164.107 67.6787 165.075C67.6586 165.781 67.6586 166.144 67.6384 166.85C66.4888 166.084 65.4804 164.692 64.956 163.462C64.4114 164.43 63.3626 165.277 62.213 165.418C62.213 164.753 62.2331 164.41 62.2331 163.724C63.3223 163.321 64.2299 162.474 64.25 159.186C64.25 158.137 64.25 157.613 64.25 156.625C63.4836 156.443 63.1004 156.362 62.3541 156.181C62.3541 155.596 62.3541 155.314 62.3541 154.729C64.4316 155.213 65.4804 155.475 67.5981 156.04ZM70.0385 160.941C70.6234 161.102 70.9058 161.183 71.4907 161.324C71.4907 161.929 71.4907 162.232 71.4907 162.837C70.9058 162.675 70.6234 162.595 70.0385 162.453C70.0385 164.692 70.0184 165.882 69.9579 168.343C69.373 168.181 69.0906 168.101 68.5259 167.939C68.6469 162.756 68.6267 160.477 68.5864 156.1C69.1713 156.262 69.4536 156.322 70.0184 156.483C70.0184 158.218 70.0385 159.085 70.0385 160.941Z" fill="#181919"/>
<path d="M79.7196 167.294C79.1347 167.133 78.8523 167.052 78.2674 166.891C78.0859 167.899 77.9649 168.484 77.7431 169.593C77.2187 169.452 76.9363 169.371 76.4119 169.23C76.6338 168.121 76.7547 167.516 76.9363 166.527C76.4724 166.406 76.2506 166.346 75.7867 166.205C75.7867 165.64 75.7867 165.358 75.7867 164.793C76.3312 164.954 76.6136 165.015 77.1784 165.176C77.3397 164.369 77.4204 163.966 77.5616 163.159C77.017 163.018 76.7548 162.937 76.2102 162.776C76.2102 162.231 76.2102 161.949 76.2102 161.405C76.8556 161.586 77.1582 161.667 77.8036 161.848C78.0053 160.86 78.0859 160.416 78.2674 159.509C78.812 159.65 79.0742 159.731 79.6188 159.872C79.4373 160.799 79.3566 161.223 79.1549 162.211C79.7398 162.373 80.0221 162.453 80.607 162.615C80.8087 161.626 80.8894 161.183 81.071 160.255C81.5954 160.396 81.8777 160.477 82.4021 160.598C82.2206 161.526 82.1399 161.969 81.9382 162.958C82.4021 163.079 82.624 163.139 83.0879 163.26C83.0879 163.805 83.0879 164.087 83.0879 164.632C82.5231 164.49 82.2408 164.41 81.6962 164.269C81.5348 165.075 81.4743 165.479 81.313 166.285C81.8575 166.427 82.1399 166.507 82.6845 166.648C82.6845 167.213 82.6845 167.496 82.6845 168.04C82.039 167.879 81.7164 167.778 81.071 167.617C80.8894 168.625 80.7684 169.21 80.5465 170.299C80.002 170.158 79.7398 170.097 79.2154 169.956C79.4171 168.867 79.5179 168.282 79.7196 167.294ZM78.5095 165.559C79.0944 165.721 79.3767 165.801 79.9616 165.963C80.123 165.156 80.2037 164.753 80.3448 163.946C79.7599 163.784 79.4574 163.704 78.8725 163.542C78.7515 164.349 78.6708 164.753 78.5095 165.559Z" fill="#181919"/>
<path d="M84.5602 165.983C88.0696 166.87 89.8243 167.294 93.3337 167.919C93.3337 168.524 93.3337 168.827 93.3337 169.432C91.9017 169.17 91.1958 169.029 89.784 168.726C89.784 169.533 89.784 169.916 89.784 170.763C89.1991 170.642 88.9167 170.582 88.3318 170.44C88.352 169.573 88.3318 169.21 88.3318 168.383C86.8192 168.04 86.0729 167.859 84.5602 167.476C84.5602 166.891 84.5602 166.588 84.5602 165.983ZM85.1855 165.096C85.1855 163.28 85.1855 162.413 85.1653 160.679C88.1906 161.405 89.7033 161.748 92.7085 162.312C92.7085 164.067 92.7287 164.954 92.7287 166.77C89.7033 166.205 88.1907 165.862 85.1855 165.096ZM86.5973 171.086C89.0982 171.671 90.3689 171.933 92.8699 172.356C92.8699 172.982 92.8699 173.304 92.8497 173.95C89.7437 173.446 88.2108 173.103 85.1048 172.397C85.125 170.864 85.1653 170.057 85.1653 168.625C85.7502 168.766 86.0326 168.847 86.6175 168.988C86.6175 169.795 86.6174 170.219 86.5973 171.086ZM91.2563 163.442C89.4008 163.079 88.473 162.857 86.6175 162.413C86.6175 163.038 86.6175 163.341 86.6175 164.006C88.473 164.45 89.4008 164.672 91.2362 165.035C91.2564 164.39 91.2563 164.087 91.2563 163.442Z" fill="#181919"/>
<path d="M95.6532 168.242C95.6532 167.395 95.9356 166.729 96.4197 166.326C96.823 165.983 97.4281 165.822 98.1139 165.902C98.7996 165.983 99.3846 166.285 99.8081 166.749C100.292 167.274 100.554 168 100.554 168.847C100.554 169.694 100.292 170.38 99.8081 170.803C99.5459 171.025 99.2232 171.187 98.84 171.247C98.84 171.751 98.84 172.013 98.84 172.518C99.3039 172.558 99.5459 172.598 100.01 172.639C100.796 172.719 101.361 172.598 101.684 172.296C101.684 168.686 101.684 166.911 101.684 163.321C102.269 163.361 102.551 163.381 103.136 163.401C103.136 165.237 103.136 166.144 103.136 168C103.721 168.02 104.003 168.04 104.588 168.04C104.588 168.645 104.588 168.928 104.588 169.533C104.003 169.513 103.721 169.513 103.136 169.492C103.136 171.691 103.136 172.8 103.136 174.998C102.551 174.978 102.269 174.958 101.684 174.918C101.684 174.434 101.684 174.192 101.684 173.708C101.361 174.071 100.655 174.212 99.7274 174.131C97.9525 173.97 97.045 173.869 95.2701 173.607C95.2701 172.982 95.27 172.679 95.2902 172.054C96.1373 172.175 96.5609 172.235 97.408 172.356C97.408 171.832 97.408 171.59 97.408 171.086C97.0248 170.945 96.7021 170.702 96.4399 170.4C95.9356 169.855 95.6532 169.089 95.6532 168.242ZM98.84 164.067C99.6467 164.148 100.03 164.188 100.837 164.248C100.837 164.833 100.837 165.136 100.837 165.721C98.6584 165.539 97.5693 165.398 95.3911 165.055C95.3911 164.47 95.3911 164.188 95.3911 163.603C96.1979 163.724 96.581 163.785 97.3878 163.885C97.3878 163.361 97.3878 163.099 97.3878 162.554C97.9727 162.635 98.2551 162.655 98.84 162.716C98.8198 163.26 98.8198 163.542 98.84 164.067ZM97.1054 168.464C97.1054 168.847 97.2265 169.19 97.408 169.432C97.5693 169.654 97.8315 169.795 98.1139 169.815C98.3962 169.855 98.6383 169.775 98.8198 169.593C99.0013 169.392 99.1223 169.089 99.1223 168.706C99.1223 168.323 99.0013 167.98 98.8198 167.758C98.6584 167.536 98.3962 167.415 98.1139 167.375C97.8315 167.334 97.5895 167.415 97.408 167.596C97.2265 167.778 97.1054 168.081 97.1054 168.464Z" fill="#181919"/>
<path d="M105.758 168.322C106.887 168.322 107.452 168.302 108.582 168.262C108.582 167.375 108.582 166.931 108.582 166.043C109.166 166.023 109.449 166.003 110.034 165.963C110.034 166.85 110.034 167.294 110.034 168.181C111.829 168.06 112.736 167.98 114.531 167.758C114.531 168.343 114.531 168.645 114.531 169.25C111.022 169.694 109.267 169.835 105.758 169.835C105.758 169.23 105.758 168.928 105.758 168.322ZM106.202 173.002C106.202 172.155 106.565 171.61 107.17 171.227C107.896 170.763 108.985 170.581 110.155 170.501C111.304 170.42 112.414 170.46 113.14 170.844C113.745 171.146 114.108 171.671 114.108 172.518C114.108 173.385 113.745 173.99 113.14 174.414C112.414 174.938 111.304 175.18 110.155 175.261C109.005 175.341 107.896 175.22 107.17 174.797C106.565 174.414 106.202 173.849 106.202 173.002ZM112.454 164.732C109.993 164.974 108.763 165.055 106.302 165.075C106.302 164.47 106.302 164.188 106.302 163.583C109.328 163.542 110.861 163.421 113.906 163.058C113.906 163.986 113.906 164.45 113.906 165.358C113.906 166.043 113.866 166.749 113.725 167.233C113.16 167.294 112.878 167.334 112.293 167.375C112.393 166.87 112.434 166.205 112.434 165.559C112.454 165.257 112.454 165.095 112.454 164.732ZM107.654 172.961C107.654 173.224 107.775 173.405 107.997 173.526C108.4 173.768 109.146 173.829 110.155 173.748C111.143 173.687 111.909 173.546 112.313 173.244C112.535 173.103 112.656 172.901 112.656 172.639C112.656 172.397 112.535 172.215 112.313 172.094C111.909 171.872 111.143 171.872 110.155 171.933C109.166 171.993 108.4 172.114 107.997 172.376C107.775 172.538 107.654 172.719 107.654 172.961Z" fill="#181919"/>
<path d="M116.427 169.795C119.896 169.291 121.651 168.948 125.12 168.161C125.12 168.786 125.12 169.089 125.12 169.714C124.394 169.875 124.051 169.956 123.325 170.097C123.325 171.328 123.345 171.953 123.345 173.183C122.76 173.304 122.478 173.365 121.893 173.466C121.893 172.235 121.873 171.61 121.873 170.38C120.985 170.561 120.542 170.642 119.654 170.783C119.654 172.013 119.654 172.618 119.674 173.849C119.11 173.95 118.807 173.99 118.242 174.091C118.242 172.861 118.242 172.255 118.222 171.025C117.496 171.146 117.113 171.207 116.387 171.307C116.427 170.723 116.427 170.4 116.427 169.795ZM116.73 165.68C116.73 164.611 117.153 163.643 117.839 163.058C118.626 162.393 119.574 162.11 120.784 161.868C122.014 161.626 122.962 161.566 123.749 161.949C124.434 162.272 124.898 163.179 124.898 164.228C124.878 165.257 124.455 166.185 123.749 166.769C122.942 167.435 122.014 167.778 120.804 168.02C119.594 168.242 118.646 168.282 117.859 167.879C117.153 167.516 116.73 166.729 116.73 165.68ZM118.182 165.458C118.182 165.922 118.343 166.326 118.646 166.487C119.069 166.729 119.755 166.689 120.784 166.507C121.812 166.306 122.518 166.084 122.942 165.7C123.244 165.418 123.426 164.974 123.426 164.511C123.426 164.047 123.244 163.623 122.942 163.442C122.518 163.2 121.833 163.24 120.784 163.442C119.755 163.643 119.069 163.845 118.646 164.228C118.343 164.511 118.202 164.974 118.182 165.458Z" fill="#181919"/>
<path d="M127.036 165.438C128.166 165.176 128.73 165.035 129.86 164.753C129.88 163.926 129.9 163.603 129.9 162.655C130.485 162.514 130.768 162.433 131.352 162.292C131.373 163.26 131.332 163.543 131.312 164.39C133.107 163.926 134.015 163.684 135.79 163.2C135.769 163.764 135.769 164.047 135.769 164.652C132.28 165.6 130.525 166.084 126.996 166.911C127.016 166.286 127.036 166.003 127.036 165.438ZM127.5 170.057C127.5 169.19 127.843 168.524 128.448 168C129.174 167.375 130.283 166.931 131.433 166.628C132.583 166.326 133.692 166.205 134.418 166.467C135.023 166.689 135.386 167.153 135.406 168.04C135.406 168.928 135.064 169.613 134.458 170.158C133.732 170.803 132.643 171.247 131.473 171.55C130.324 171.832 129.215 171.953 128.468 171.671C127.883 171.429 127.5 170.945 127.5 170.057ZM133.753 160.558C131.292 161.203 130.062 161.526 127.601 162.111C127.581 161.465 127.581 161.163 127.581 160.517C130.626 159.791 132.159 159.368 135.185 158.561C135.205 159.549 135.205 160.033 135.225 161.021C135.245 161.768 135.164 162.373 135.043 162.877C134.479 163.038 134.196 163.099 133.632 163.26C133.753 162.776 133.813 162.191 133.793 161.505C133.773 161.102 133.773 160.921 133.753 160.558ZM128.952 169.714C128.952 169.976 129.073 170.138 129.295 170.218C129.699 170.4 130.465 170.279 131.453 170.037C132.462 169.775 133.208 169.513 133.611 169.129C133.833 168.948 133.954 168.706 133.934 168.444C133.934 168.202 133.813 168.02 133.591 167.939C133.188 167.778 132.421 167.899 131.433 168.161C130.425 168.423 129.678 168.686 129.275 169.049C129.073 169.25 128.952 169.472 128.952 169.714Z" fill="#181919"/>
<path d="M141.114 158.541C139.823 158.904 139.158 159.085 137.867 159.448C137.847 158.803 137.847 158.48 137.827 157.835C139.702 157.31 140.65 157.048 142.526 156.544C142.526 156.967 142.546 157.189 142.546 157.613C142.627 161.647 140.892 163.623 137.625 164.975C137.625 164.349 137.605 163.986 137.605 163.422C139.965 162.413 141.155 160.961 141.114 158.541ZM139.823 167.455C142.183 166.79 143.373 166.447 145.713 165.801C145.713 166.427 145.713 166.729 145.733 167.355C142.829 168.181 141.356 168.605 138.412 169.432C138.391 167.718 138.391 166.87 138.371 165.156C138.956 164.995 139.239 164.914 139.823 164.753C139.803 165.842 139.803 166.366 139.823 167.455ZM145.551 158.762C146.076 158.621 146.338 158.541 146.862 158.399C146.862 158.964 146.842 159.267 146.842 159.831C146.318 159.973 146.056 160.053 145.511 160.195C145.491 161.566 145.511 162.312 145.511 163.785C144.946 163.946 144.644 164.027 144.079 164.188C144.059 160.84 144.119 159.448 144.059 155.959C144.624 155.798 144.926 155.717 145.491 155.576C145.531 156.846 145.551 157.613 145.551 158.762Z" fill="#181919"/>
<path d="M155.071 161.364C154.486 161.505 154.204 161.586 153.619 161.727C153.417 162.796 153.337 163.341 153.155 164.41C152.631 164.551 152.369 164.611 151.864 164.753C152.046 163.663 152.127 163.119 152.308 162.05C151.864 162.171 151.642 162.211 151.199 162.332C151.199 161.768 151.199 161.505 151.199 160.941C151.743 160.799 152.006 160.739 152.55 160.598C152.691 159.731 152.772 159.287 152.933 158.42C152.369 158.561 152.147 158.621 151.602 158.742C151.602 158.198 151.602 157.935 151.602 157.391C152.227 157.23 152.51 157.149 153.175 156.988C153.357 155.898 153.458 155.354 153.659 154.285C154.204 154.144 154.486 154.083 155.031 153.942C154.829 154.991 154.728 155.515 154.547 156.624C155.132 156.463 155.434 156.403 156.039 156.241C156.201 155.132 156.322 154.628 156.503 153.579C157.048 153.438 157.33 153.377 157.875 153.236C157.673 154.265 157.572 154.769 157.411 155.878C157.875 155.757 158.117 155.697 158.581 155.576C158.601 156.14 158.621 156.423 158.641 156.988C158.056 157.129 157.774 157.189 157.189 157.33C157.068 158.218 156.967 158.662 156.765 159.529C157.33 159.388 157.612 159.327 158.177 159.186C158.137 159.731 158.117 160.013 158.076 160.557C157.411 160.719 157.088 160.799 156.423 160.961C156.18 162.03 156.12 162.554 155.938 163.603C155.394 163.744 155.132 163.805 154.607 163.946C154.769 162.978 154.849 162.433 155.071 161.364ZM153.881 160.295C154.486 160.154 154.789 160.073 155.374 159.932C155.575 159.065 155.656 158.621 155.797 157.734C155.192 157.875 154.89 157.956 154.285 158.097C154.143 158.984 154.063 159.428 153.881 160.295Z" fill="#181919"/>
<path d="M162.998 161.949C161.888 162.211 161.344 162.332 160.255 162.615C160.174 158.52 160.376 156.08 160.355 152.026C160.94 151.885 161.243 151.804 161.848 151.663C161.868 155.152 161.626 157.31 161.707 160.82C162.251 160.699 162.513 160.618 163.058 160.497C163.542 160.376 164.006 160.255 164.389 160.073C164.409 160.618 164.409 160.88 164.43 161.425C164.046 161.667 163.522 161.828 162.998 161.949ZM164.934 162.11C164.873 159.831 165.377 158.782 165.236 156.241C164.49 156.403 164.127 156.483 163.381 156.665C163.34 156.04 163.32 155.717 163.3 155.071C164.046 154.89 164.409 154.809 165.135 154.648C165.035 153.014 165.055 152.288 165.035 150.796C165.62 150.654 165.902 150.574 166.487 150.453C166.527 154.87 166.265 157.451 166.386 161.788C165.801 161.909 165.519 161.969 164.934 162.11ZM167.112 161.747C167.011 157.351 167.273 154.729 167.213 150.211C167.798 150.069 168.1 150.009 168.685 149.868C168.746 154.446 168.483 157.028 168.584 161.425C167.999 161.546 167.697 161.626 167.112 161.747Z" fill="#181919"/>
<path d="M170.964 159.025C174.595 158.278 176.43 157.936 180.081 157.33C180.101 157.915 180.101 158.198 180.101 158.783C176.45 159.368 174.615 159.71 170.985 160.457C170.985 159.872 170.985 159.589 170.964 159.025ZM173.163 150.594C173.183 151.219 173.183 151.542 173.203 152.187C175.765 151.683 177.035 151.461 179.597 151.038C179.617 151.663 179.637 151.965 179.677 152.591C177.136 153.014 175.845 153.256 173.304 153.761C173.344 154.426 173.385 154.769 173.304 155.414C175.946 154.89 177.277 154.628 179.92 154.184C179.859 154.769 179.839 155.072 179.778 155.656C176.511 156.201 174.877 156.524 171.61 157.189C171.993 154.184 171.691 152.47 171.63 149.384C174.837 148.658 176.45 148.315 179.657 147.73C179.677 148.375 179.677 148.698 179.698 149.364C177.076 149.807 175.765 150.049 173.163 150.594Z" fill="#181919"/>
<path d="M185.95 155.051C185.869 156.423 185.93 157.088 185.93 158.44C185.325 158.52 185.022 158.561 184.417 158.641C184.397 157.29 184.337 156.625 184.437 155.253C183.57 155.374 183.126 155.435 182.239 155.576C182.299 154.971 182.32 154.668 182.36 154.063C184.377 153.74 185.365 153.599 187.362 153.357C187.906 153.297 188.35 153.216 188.814 153.055C188.794 153.619 188.774 153.902 188.754 154.466C188.29 154.688 187.765 154.789 187.201 154.87C186.696 154.951 186.454 154.971 185.95 155.051ZM182.703 150.352C182.662 149.243 182.985 148.254 183.55 147.609C184.014 147.085 184.659 146.742 185.405 146.641C186.172 146.54 186.817 146.701 187.301 147.085C187.886 147.589 188.249 148.537 188.269 149.626C188.29 150.695 187.987 151.562 187.422 152.147C186.958 152.611 186.313 152.913 185.547 153.014C184.78 153.115 184.175 152.994 183.691 152.651C183.106 152.228 182.743 151.441 182.703 150.352ZM184.215 150.13C184.236 150.634 184.377 151.038 184.599 151.26C184.8 151.461 185.123 151.542 185.527 151.481C185.95 151.421 186.253 151.26 186.454 151.018C186.676 150.735 186.777 150.291 186.777 149.807C186.757 149.303 186.636 148.839 186.394 148.597C186.192 148.375 185.869 148.254 185.446 148.315C185.042 148.375 184.72 148.577 184.518 148.839C184.316 149.162 184.195 149.626 184.215 150.13ZM190.791 157.895C190.186 157.956 189.883 157.976 189.278 158.036C189.278 157.552 189.278 157.31 189.278 156.826C188.431 156.907 188.007 156.967 187.16 157.068C187.16 156.483 187.16 156.181 187.14 155.596C187.987 155.495 188.411 155.435 189.258 155.354C189.238 151.865 189.338 150.09 189.258 146.076C189.863 146.016 190.165 145.995 190.77 145.935C190.871 151.199 190.77 153.337 190.791 157.895Z" fill="#181919"/>
<path d="M196.841 147.407C195.51 147.448 194.845 147.488 193.493 147.569C193.473 146.903 193.473 146.58 193.473 145.935C195.409 145.834 196.377 145.794 198.314 145.814C198.314 146.258 198.314 146.5 198.334 146.943C198.374 150.634 196.7 152.207 193.312 152.893C193.332 152.308 193.332 152.006 193.332 151.421C194.703 151.098 195.672 150.634 196.236 149.888C195.873 149.989 195.389 150.049 194.804 150.09C194.3 150.13 194.058 150.13 193.554 150.17C193.554 149.585 193.554 149.343 193.534 148.678C194.058 148.638 194.32 148.617 194.845 148.597C195.793 148.537 196.438 148.456 196.821 148.295C196.821 147.992 196.841 147.71 196.841 147.407ZM193.957 155.374C193.957 154.547 194.34 153.922 194.905 153.498C195.692 152.893 196.841 152.671 197.89 152.631C198.959 152.591 200.089 152.732 200.835 153.276C201.379 153.66 201.742 154.265 201.742 155.092C201.742 155.919 201.379 156.524 200.835 156.927C200.089 157.472 198.959 157.653 197.89 157.693C196.841 157.734 195.692 157.633 194.905 157.129C194.32 156.786 193.957 156.201 193.957 155.374ZM195.45 155.293C195.45 155.576 195.591 155.777 195.813 155.919C196.277 156.201 197.104 156.261 197.87 156.221C198.636 156.201 199.463 156.08 199.907 155.757C200.129 155.596 200.27 155.394 200.27 155.092C200.27 154.809 200.129 154.608 199.907 154.446C199.443 154.144 198.636 154.063 197.87 154.103C197.104 154.124 196.277 154.265 195.813 154.608C195.571 154.789 195.45 155.011 195.45 155.293ZM200.048 152.409C200.048 149.767 200.048 148.436 200.028 145.693C200.613 145.713 200.915 145.733 201.5 145.774C201.5 148.436 201.5 149.747 201.5 152.409C200.915 152.409 200.633 152.409 200.048 152.409Z" fill="#181919"/>
<path d="M108.562 12.9402L110.377 18.527C110.538 19.0514 111.022 19.3943 111.567 19.3943H117.436C118.646 19.3943 119.15 20.9473 118.182 21.6532L113.422 25.1021C112.979 25.4249 112.797 25.9896 112.959 26.4938L114.774 32.0806C115.157 33.2303 113.826 34.1984 112.838 33.4723L108.078 30.0234C107.634 29.7007 107.049 29.7007 106.605 30.0234L101.845 33.4723C100.857 34.1782 99.5461 33.2303 99.9092 32.0806L101.724 26.4938C101.886 25.9694 101.704 25.4047 101.261 25.1021L96.5006 21.6532C95.5123 20.9473 96.0165 19.3943 97.2468 19.3943H103.116C103.661 19.3943 104.145 19.0514 104.306 18.527L106.121 12.9402C106.545 11.7704 108.178 11.7704 108.562 12.9402Z" fill="#FFF58C" stroke="#181919" stroke-miterlimit="10" stroke-linecap="round" stroke-linejoin="round"/>
<path d="M47.5503 38.8372C61.8501 32.5445 77.0576 28.2687 92.5474 26.1711" stroke="#181919" stroke-miterlimit="10" stroke-linecap="round" stroke-linejoin="round"/>
<path d="M41.9636 47.0258C43.5676 47.0258 44.8679 45.7255 44.8679 44.1214C44.8679 42.5174 43.5676 41.2171 41.9636 41.2171C40.3595 41.2171 39.0592 42.5174 39.0592 44.1214C39.0592 45.7255 40.3595 47.0258 41.9636 47.0258Z" fill="#FFF58C" stroke="#181919" stroke-miterlimit="10" stroke-linecap="round" stroke-linejoin="round"/>
<path d="M166.85 39.7046C152.55 33.4119 137.343 29.136 121.853 27.0385" stroke="#181919" stroke-miterlimit="10" stroke-linecap="round" stroke-linejoin="round"/>
<path d="M172.437 47.8931C174.041 47.8931 175.342 46.5928 175.342 44.9888C175.342 43.3848 174.041 42.0845 172.437 42.0845C170.833 42.0845 169.533 43.3848 169.533 44.9888C169.533 46.5928 170.833 47.8931 172.437 47.8931Z" fill="#FFF58C" stroke="#181919" stroke-miterlimit="10" stroke-linecap="round" stroke-linejoin="round"/>
<path d="M72.7406 43.6574V70.3613C72.7406 71.3294 72.1759 72.237 71.3086 72.6403L42.7088 86.3553C41.0348 87.162 39.0986 85.9317 39.0986 84.0762V57.3925C39.0986 56.4244 39.6633 55.5168 40.5306 55.1134L69.1303 41.3985C70.7842 40.5716 72.7406 41.8019 72.7406 43.6574Z" fill="#009540" stroke="#181919" stroke-miterlimit="10" stroke-linecap="round" stroke-linejoin="round"/>
<path d="M106.382 57.3927V84.0763C106.382 85.952 104.446 87.1622 102.772 86.3554L72.7404 71.9346V43.6374C72.7404 41.7617 74.6767 40.5515 76.3507 41.3583L104.95 55.0732C105.818 55.517 106.382 56.4044 106.382 57.3927Z" fill="#FF88B6"/>
<path d="M106.382 57.3927V84.0763C106.382 85.952 104.446 87.1622 102.772 86.3554L72.7404 71.9346V43.6374C72.7404 41.7617 74.6767 40.5515 76.3507 41.3583L104.95 55.0732C105.818 55.517 106.382 56.4044 106.382 57.3927Z" stroke="black" stroke-miterlimit="10"/>
<path d="M101.622 90.3489L73.8094 103.681C73.1236 104.003 72.3169 104.003 71.6311 103.681L43.818 90.3489C41.902 89.4413 41.902 86.7185 43.818 85.8108L72.7202 71.9346L101.622 85.8108C103.539 86.7185 103.539 89.4413 101.622 90.3489Z" fill="#EBEBEB"/>
<mask id="mask0_525_20639" style="mask-type:luminance" maskUnits="userSpaceOnUse" x="42" y="71" width="62" height="33">
<path d="M101.622 90.3489L73.8094 103.681C73.1236 104.003 72.3169 104.003 71.6311 103.681L43.818 90.3489C41.902 89.4413 41.902 86.7185 43.818 85.8108L72.7202 71.9346L101.622 85.8108C103.539 86.7185 103.539 89.4413 101.622 90.3489Z" fill="white"/>
</mask>
<g mask="url(#mask0_525_20639)">
<path d="M70.6632 116.448C89.0574 107.573 107.451 98.7191 125.846 89.8447L70.6632 116.448Z" fill="#EBEBEB"/>
<path d="M70.6632 116.448C89.0574 107.573 107.452 98.7191 125.846 89.8447" stroke="#1D1D1B" stroke-miterlimit="10"/>
<path d="M65.4597 113.503C83.8538 104.629 102.248 95.7745 120.642 86.9001L65.4597 113.503Z" fill="#EBEBEB"/>
<path d="M65.4597 113.503C83.8538 104.629 102.248 95.7745 120.642 86.9001" stroke="#1D1D1B" stroke-miterlimit="10"/>
<path d="M60.2761 110.558C78.6702 101.684 97.0644 92.8296 115.459 83.9552L60.2761 110.558Z" fill="#EBEBEB"/>
<path d="M60.2761 110.558C78.6702 101.684 97.0644 92.8296 115.459 83.9552" stroke="#1D1D1B" stroke-miterlimit="10"/>
<path d="M55.0723 107.614C73.4664 98.7392 91.8606 89.885 110.255 81.0106L55.0723 107.614Z" fill="#EBEBEB"/>
<path d="M55.0723 107.614C73.4664 98.7392 91.8606 89.885 110.255 81.0106" stroke="#1D1D1B" stroke-miterlimit="10"/>
<path d="M49.889 104.649C68.2832 95.7745 86.6773 86.9203 105.071 78.0459L49.889 104.649Z" fill="#EBEBEB"/>
<path d="M49.889 104.649C68.2832 95.7745 86.6773 86.9203 105.071 78.0459" stroke="#1D1D1B" stroke-miterlimit="10"/>
<path d="M44.6854 101.704C63.0796 92.8297 81.4738 83.9755 99.8679 75.1011L44.6854 101.704Z" fill="#EBEBEB"/>
<path d="M44.6854 101.704C63.0796 92.8297 81.4738 83.9755 99.8679 75.1011" stroke="#1D1D1B" stroke-miterlimit="10"/>
<path d="M39.5018 98.7593C57.896 89.8849 76.2902 81.0307 94.6843 72.1564L39.5018 98.7593Z" fill="#EBEBEB"/>
<path d="M39.5018 98.7593C57.896 89.8849 76.2902 81.0307 94.6843 72.1564" stroke="#1D1D1B" stroke-miterlimit="10"/>
<path d="M34.3186 95.8148C52.7128 86.9404 71.1069 78.0862 89.5011 69.2118L34.3186 95.8148Z" fill="#EBEBEB"/>
<path d="M34.3186 95.8148C52.7128 86.9404 71.1069 78.0862 89.5011 69.2118" stroke="#1D1D1B" stroke-miterlimit="10"/>
<path d="M29.115 92.8699C47.5092 83.9956 65.9033 75.1413 84.2975 66.267L29.115 92.8699Z" fill="#EBEBEB"/>
<path d="M29.115 92.8699C47.5092 83.9956 65.9033 75.1413 84.2975 66.267" stroke="#1D1D1B" stroke-miterlimit="10"/>
<path d="M23.9314 89.9254C42.3256 81.051 60.7197 72.1968 79.1139 63.3224L23.9314 89.9254Z" fill="#EBEBEB"/>
<path d="M23.9314 89.9254C42.3256 81.051 60.7198 72.1968 79.1139 63.3224" stroke="#1D1D1B" stroke-miterlimit="10"/>
</g>
<path d="M101.622 90.3489L73.8094 103.681C73.1236 104.003 72.3169 104.003 71.6311 103.681L43.818 90.3489C41.902 89.4413 41.902 86.7185 43.818 85.8108L72.7202 71.9346L101.622 85.8108C103.539 86.7185 103.539 89.4413 101.622 90.3489Z" stroke="#1D1D1B" stroke-miterlimit="10"/>
<path d="M65.5805 65.6014C68.2832 65.3594 71.006 65.198 73.7086 65.1375C75.2213 65.0972 76.734 65.077 78.2467 65.2182C78.9123 65.2787 79.6182 65.3795 80.1426 65.8031C80.4451 66.0653 80.6669 66.4081 80.9089 66.7107C81.4132 67.3763 82.0183 67.9612 82.6637 68.4856C83.0671 68.8083 83.4704 69.131 83.894 69.4335C84.378 69.7764 84.8823 70.0991 85.3058 70.5226C85.7092 70.9462 86.0319 71.5109 86.0117 72.0958C85.5478 72.2572 85.0436 72.116 84.5797 71.995C82.2603 71.3899 79.84 71.3294 77.4399 71.2689C73.8094 71.1882 70.179 71.1479 66.5486 71.1882C65.7418 71.1882 64.9351 71.2084 64.1284 71.3496C63.4426 71.4706 62.7568 71.6723 62.0711 71.6723C61.6072 71.6723 61.1433 71.5512 60.6593 71.5916C59.671 71.6521 58.7029 72.2975 57.7347 72.0555C58.3196 71.0672 59.2676 70.3411 60.1752 69.6554C62.0106 68.2637 63.846 66.8721 65.5805 65.6014Z" fill="#EBEBEB"/>
<path d="M69.4126 75.323C72.922 75.1415 76.4314 74.9599 79.9408 74.7986C80.4249 74.7784 80.8887 74.7582 81.3728 74.7582C81.5946 74.7582 81.7964 74.7784 82.0182 74.7784C82.2199 74.7582 82.4216 74.7381 82.6233 74.6977C84.0553 74.4355 85.4873 74.1733 86.9193 73.9112C86.4554 74.6776 86.5965 75.6457 86.3949 76.5331C86.294 76.9769 86.1125 77.4004 85.931 77.8239C84.499 81.1317 83.0065 84.4192 81.4736 87.6866C81.3123 88.0093 81.1711 88.3522 80.8888 88.5942C80.4249 89.0178 79.7593 89.0783 79.1341 89.0984C77.6214 89.1589 76.1087 89.1186 74.596 89.0984C73.5069 89.0783 72.4177 89.0581 71.3286 89.0178C69.0091 88.9573 66.6696 88.9169 64.3501 88.8564C63.9266 88.8564 63.4829 88.8362 63.1198 88.6144C62.7165 88.3522 62.4945 87.8883 62.313 87.4244C61.6071 85.71 60.881 83.9957 60.1751 82.3015C59.6709 81.1115 59.1868 79.9215 58.8439 78.6912C58.6826 78.1466 58.5616 77.5819 58.3397 77.0575C57.9767 76.1902 57.3111 75.4238 57.1296 74.5162C57.0893 74.2944 57.0892 74.0322 57.2708 73.891C57.4321 73.77 57.6742 73.8103 57.8759 73.8708C59.1264 74.2137 60.3567 74.5767 61.6072 74.9196C62.0105 75.0406 62.4341 75.1415 62.8576 75.1818C63.1602 75.202 63.4829 75.202 63.7854 75.1818C65.8225 75.1011 67.8394 75.4037 69.4126 75.323Z" fill="#C79FFF"/>
<path d="M87.242 74.3145L81.9778 87.7269C81.756 88.5135 81.0299 89.0581 80.2231 89.0581H64.2694C63.4425 89.0581 62.7366 88.5135 62.5147 87.7269L57.2909 74.3145C57.1094 73.6489 57.3111 72.943 57.8154 72.4791L65.6006 65.299H78.9323L86.7176 72.4791C87.242 72.943 87.4437 73.6489 87.242 74.3145Z" stroke="#181919" stroke-miterlimit="10"/>
<path d="M72.0144 75.202C80.3019 75.202 87.0201 74.299 87.0201 73.1851C87.0201 72.0712 80.3019 71.1682 72.0144 71.1682C63.727 71.1682 57.0087 72.0712 57.0087 73.1851C57.0087 74.299 63.727 75.202 72.0144 75.202Z" fill="#B180E0" stroke="black" stroke-miterlimit="10"/>
<path d="M71.369 71.2085C64.0477 50.3537 73.507 27.8048 92.7482 19.2329C92.2843 38.1716 75.2012 55.8599 71.369 71.2085Z" fill="white" stroke="#181919" stroke-miterlimit="10"/>
<path d="M92.4255 19.9791C77.924 38.4943 66.8108 60.0954 72.2363 85.1655" stroke="#181919" stroke-miterlimit="10" stroke-linecap="round" stroke-linejoin="round"/>
<path d="M71.2076 43.6575C71.5909 44.8475 72.0548 45.9971 72.5792 47.1266L71.2076 43.6575Z" fill="white"/>
<path d="M72.1758 43.3549L72.5792 47.1467L70.2597 43.9802C69.9168 43.5163 70.0177 42.8507 70.4816 42.5078C70.9455 42.165 71.611 42.2658 71.9539 42.7297C72.0749 42.891 72.1354 43.0524 72.1556 43.2339L72.1758 43.3549Z" fill="#181919"/>
<path d="M78.9123 30.4871L79.1745 35.3479L76.9761 31.0115C76.7139 30.5073 76.9155 29.882 77.4198 29.6198C77.924 29.3577 78.5492 29.5593 78.8114 30.0636C78.8719 30.2048 78.9123 30.346 78.9123 30.4871Z" fill="#181919"/>
<path d="M88.1296 39.0389L82.4419 41.7416L86.9799 37.3649C87.3833 36.9817 88.0287 36.9817 88.4321 37.3851C88.8153 37.7884 88.8153 38.4338 88.4119 38.8372C88.3111 38.9381 88.2103 38.9986 88.1296 39.0389Z" fill="#181919"/>
<path d="M81.5543 51.5638L75.0801 56.001L80.2232 50.0511C80.5862 49.6276 81.2317 49.5872 81.6552 49.9503C82.0788 50.3133 82.1191 50.9588 81.756 51.3823C81.6955 51.463 81.6148 51.5235 81.5543 51.5638Z" fill="#181919"/>
<path d="M65.6209 65.2989V62.0517C65.6209 61.7693 65.8428 61.5475 66.1251 61.5475H78.4686C78.7509 61.5475 78.9728 61.7693 78.9728 62.0517V65.2989H65.6209Z" fill="#EBEBEB" stroke="#181919" stroke-miterlimit="10"/>
<path d="M144.421 43.6574V70.3613C144.421 71.3294 143.857 72.237 142.989 72.6403L114.39 86.3553C112.716 87.162 110.779 85.9317 110.779 84.0762V57.3925C110.779 56.4244 111.344 55.5168 112.211 55.1134L140.811 41.3985C142.465 40.5716 144.421 41.8019 144.421 43.6574Z" fill="#56B381" stroke="#181919" stroke-miterlimit="10" stroke-linecap="round" stroke-linejoin="round"/>
<path d="M178.063 57.3927V84.0763C178.063 85.9521 176.127 87.1622 174.453 86.3554L144.422 71.9548V43.6576C144.422 41.7819 146.358 40.5717 148.032 41.3785L176.631 55.0934C177.519 55.517 178.063 56.4044 178.063 57.3927Z" fill="#FF88B6" stroke="#181919" stroke-miterlimit="10" stroke-linecap="round" stroke-linejoin="round"/>
<path d="M173.324 90.3489L145.51 103.681C144.825 104.003 144.018 104.003 143.332 103.681L115.519 90.3489C113.603 89.4413 113.603 86.7185 115.519 85.8108L144.421 71.9346L173.324 85.8108C175.24 86.7185 175.24 89.4413 173.324 90.3489Z" fill="#EBEBEB"/>
<mask id="mask1_525_20639" style="mask-type:luminance" maskUnits="userSpaceOnUse" x="114" y="71" width="61" height="33">
<path d="M173.324 90.3489L145.51 103.681C144.825 104.003 144.018 104.003 143.332 103.681L115.519 90.3489C113.603 89.4413 113.603 86.7185 115.519 85.8108L144.421 71.9346L173.324 85.8108C175.24 86.7185 175.24 89.4413 173.324 90.3489Z" fill="white"/>
</mask>
<g mask="url(#mask1_525_20639)">
<path d="M142.344 116.448C160.738 107.573 179.132 98.7191 197.527 89.8447L142.344 116.448Z" fill="#EBEBEB"/>
<path d="M142.344 116.448C160.738 107.573 179.132 98.7191 197.527 89.8447" stroke="#1D1D1B" stroke-miterlimit="10"/>
<path d="M137.16 113.503C155.555 104.629 173.949 95.7745 192.343 86.9001L137.16 113.503Z" fill="#EBEBEB"/>
<path d="M137.16 113.503C155.555 104.629 173.949 95.7745 192.343 86.9001" stroke="#1D1D1B" stroke-miterlimit="10"/>
<path d="M131.957 110.558C150.351 101.684 168.745 92.8296 187.139 83.9552L131.957 110.558Z" fill="#EBEBEB"/>
<path d="M131.957 110.558C150.351 101.684 168.745 92.8296 187.139 83.9552" stroke="#1D1D1B" stroke-miterlimit="10"/>
<path d="M126.773 107.614C145.167 98.7392 163.562 89.885 181.956 81.0106L126.773 107.614Z" fill="#EBEBEB"/>
<path d="M126.773 107.614C145.167 98.7392 163.562 89.885 181.956 81.0106" stroke="#1D1D1B" stroke-miterlimit="10"/>
<path d="M121.57 104.649C139.964 95.7745 158.358 86.9203 176.752 78.0459L121.57 104.649Z" fill="#EBEBEB"/>
<path d="M121.57 104.649C139.964 95.7745 158.358 86.9203 176.752 78.0459" stroke="#1D1D1B" stroke-miterlimit="10"/>
<path d="M116.386 101.704C134.781 92.8297 153.175 83.9755 171.569 75.1011L116.386 101.704Z" fill="#EBEBEB"/>
<path d="M116.386 101.704C134.781 92.8297 153.175 83.9755 171.569 75.1011" stroke="#1D1D1B" stroke-miterlimit="10"/>
<path d="M111.183 98.7593C129.577 89.8849 147.971 81.0307 166.365 72.1564L111.183 98.7593Z" fill="#EBEBEB"/>
<path d="M111.183 98.7593C129.577 89.8849 147.971 81.0307 166.365 72.1564" stroke="#1D1D1B" stroke-miterlimit="10"/>
<path d="M105.999 95.8148C124.394 86.9404 142.788 78.0862 161.182 69.2118L105.999 95.8148Z" fill="#EBEBEB"/>
<path d="M105.999 95.8148C124.394 86.9404 142.788 78.0862 161.182 69.2118" stroke="#1D1D1B" stroke-miterlimit="10"/>
<path d="M100.816 92.8699C119.21 83.9956 137.604 75.1413 155.998 66.267L100.816 92.8699Z" fill="#EBEBEB"/>
<path d="M100.816 92.8699C119.21 83.9956 137.604 75.1413 155.998 66.267" stroke="#1D1D1B" stroke-miterlimit="10"/>
<path d="M95.6123 89.9254C114.006 81.051 132.401 72.1968 150.795 63.3224L95.6123 89.9254Z" fill="#EBEBEB"/>
<path d="M95.6123 89.9254C114.006 81.051 132.401 72.1968 150.795 63.3224" stroke="#1D1D1B" stroke-miterlimit="10"/>
</g>
<path d="M173.324 90.3489L145.51 103.681C144.825 104.003 144.018 104.003 143.332 103.681L115.519 90.3489C113.603 89.4413 113.603 86.7185 115.519 85.8108L144.421 71.9346L173.324 85.8108C175.24 86.7185 175.24 89.4413 173.324 90.3489Z" stroke="#1D1D1B" stroke-miterlimit="10"/>
<path d="M143.837 66.3678L137.403 60.0348C137.14 59.7726 137.14 59.3692 137.403 59.107L143.837 52.7739C144.099 52.5117 144.522 52.5117 144.764 52.7739L151.198 59.107C151.46 59.3692 151.46 59.7726 151.198 60.0348L144.764 66.3678C144.502 66.6099 144.099 66.6099 143.837 66.3678Z" fill="#FF88B6" stroke="black" stroke-miterlimit="10"/>
<path d="M151.218 73.6085L144.784 67.2754C144.522 67.0132 144.522 66.6099 144.784 66.3477L151.218 60.0146C151.48 59.7524 151.904 59.7524 152.146 60.0146L158.58 66.3477C158.842 66.6099 158.842 67.0132 158.58 67.2754L152.146 73.6085C151.884 73.8505 151.46 73.8505 151.218 73.6085Z" fill="white" stroke="black" stroke-miterlimit="10"/>
<path d="M158.6 80.8491L152.166 74.516C151.904 74.2538 151.904 73.8504 152.166 73.5882L158.6 67.2551C158.862 66.9929 159.286 66.9929 159.528 67.2551L165.962 73.5882C166.224 73.8504 166.224 74.2538 165.962 74.516L159.528 80.8491C159.266 81.1113 158.862 81.1113 158.6 80.8491Z" fill="#B180E0" stroke="black" stroke-miterlimit="10"/>
<path d="M143.837 80.8491L137.403 74.516C137.14 74.2538 137.14 73.8504 137.403 73.5882L143.837 67.2551C144.099 66.9929 144.522 66.9929 144.764 67.2551L151.198 73.5882C151.46 73.8504 151.46 74.2538 151.198 74.516L144.764 80.8491C144.502 81.1113 144.099 81.1113 143.837 80.8491Z" fill="#5A66FF" stroke="black" stroke-miterlimit="10"/>
<path d="M151.218 88.09L144.784 81.757C144.522 81.4948 144.522 81.0914 144.784 80.8292L151.218 74.4961C151.48 74.2339 151.904 74.2339 152.146 74.4961L158.58 80.8292C158.842 81.0914 158.842 81.4948 158.58 81.757L152.146 88.09C151.884 88.3522 151.46 88.3522 151.218 88.09Z" fill="white" stroke="black" stroke-miterlimit="10"/>
<path d="M129.073 80.8491L122.639 74.516C122.377 74.2538 122.377 73.8504 122.639 73.5882L129.073 67.2551C129.335 66.9929 129.759 66.9929 130.001 67.2551L136.434 73.5882C136.697 73.8504 136.697 74.2538 136.434 74.516L130.001 80.8491C129.759 81.1113 129.335 81.1113 129.073 80.8491Z" fill="#FFF58C" stroke="black" stroke-miterlimit="10"/>
<path d="M136.455 88.09L130.021 81.757C129.758 81.4948 129.758 81.0914 130.021 80.8292L136.455 74.4961C136.717 74.2339 137.14 74.2339 137.382 74.4961L143.816 80.8292C144.078 81.0914 144.078 81.4948 143.816 81.757L137.382 88.09C137.14 88.3522 136.717 88.3522 136.455 88.09Z" fill="white" stroke="black" stroke-miterlimit="10"/>
<path d="M143.837 95.3508L137.403 89.0177C137.14 88.7555 137.14 88.3521 137.403 88.0899L143.837 81.7568C144.099 81.4946 144.522 81.4946 144.764 81.7568L151.198 88.0899C151.46 88.3521 151.46 88.7555 151.198 89.0177L144.764 95.3508C144.502 95.5928 144.099 95.5928 143.837 95.3508Z" fill="#56B381" stroke="black" stroke-miterlimit="10"/>
<path d="M136.455 73.6085L130.021 67.2754C129.758 67.0132 129.758 66.6099 130.021 66.3477L136.455 60.0146C136.717 59.7524 137.14 59.7524 137.382 60.0146L143.816 66.3477C144.078 66.6099 144.078 67.0132 143.816 67.2754L137.382 73.6085C137.14 73.8505 136.717 73.8505 136.455 73.6085Z" fill="white"/>
<path d="M136.455 73.6085L130.021 67.2754C129.758 67.0132 129.758 66.6099 130.021 66.3477L136.455 60.0146C136.717 59.7524 137.14 59.7524 137.382 60.0146L143.816 66.3477C144.078 66.6099 144.078 67.0132 143.816 67.2754L137.382 73.6085C137.14 73.8505 136.717 73.8505 136.455 73.6085Z" stroke="black" stroke-miterlimit="10"/>
<path d="M108.52 95.5929V122.297C108.52 123.265 107.956 124.172 107.088 124.576L78.4888 138.291C76.8148 139.098 74.8785 137.867 74.8785 136.012V109.308C74.8785 108.34 75.4433 107.432 76.3105 107.029L104.91 93.3138C106.584 92.507 108.52 93.7172 108.52 95.5929Z" fill="#5A66FF" stroke="#181919" stroke-miterlimit="10" stroke-linecap="round" stroke-linejoin="round"/>
<path d="M142.203 109.308V135.991C142.203 137.867 140.266 139.077 138.592 138.27L108.561 123.87V95.5726C108.561 93.6969 110.497 92.4868 112.171 93.2935L140.771 107.008C141.638 107.452 142.203 108.34 142.203 109.308Z" fill="#FFF58C" stroke="#181919" stroke-miterlimit="10" stroke-linecap="round" stroke-linejoin="round"/>
<path d="M137.564 142.284L109.751 155.616C109.065 155.939 108.258 155.939 107.572 155.616L79.7594 142.284C77.8434 141.377 77.8434 138.654 79.7594 137.746L108.662 123.87L137.564 137.746C139.5 138.654 139.5 141.377 137.564 142.284Z" fill="#EBEBEB"/>
<mask id="mask2_525_20639" style="mask-type:luminance" maskUnits="userSpaceOnUse" x="78" y="123" width="62" height="33">
<path d="M137.564 142.284L109.751 155.616C109.065 155.939 108.258 155.939 107.572 155.616L79.7594 142.284C77.8434 141.377 77.8434 138.654 79.7594 137.746L108.662 123.87L137.564 137.746C139.5 138.654 139.5 141.377 137.564 142.284Z" fill="white"/>
</mask>
<g mask="url(#mask2_525_20639)">
<path d="M106.605 168.383C124.999 159.509 143.393 150.654 161.787 141.78L106.605 168.383Z" fill="#EBEBEB"/>
<path d="M106.605 168.383C124.999 159.509 143.393 150.654 161.787 141.78" stroke="#1D1D1B" stroke-miterlimit="10"/>
<path d="M101.401 165.438C119.795 156.564 138.189 147.71 156.583 138.835L101.401 165.438Z" fill="#EBEBEB"/>
<path d="M101.401 165.438C119.795 156.564 138.189 147.71 156.583 138.835" stroke="#1D1D1B" stroke-miterlimit="10"/>
<path d="M96.2175 162.493C114.612 153.619 133.006 144.765 151.4 135.891L96.2175 162.493Z" fill="#EBEBEB"/>
<path d="M96.2175 162.493C114.612 153.619 133.006 144.765 151.4 135.891" stroke="#1D1D1B" stroke-miterlimit="10"/>
<path d="M91.0339 159.549C109.428 150.674 127.822 141.82 146.216 132.946L91.0339 159.549Z" fill="#EBEBEB"/>
<path d="M91.0339 159.549C109.428 150.674 127.822 141.82 146.216 132.946" stroke="#1D1D1B" stroke-miterlimit="10"/>
<path d="M85.8303 156.584C104.224 147.71 122.619 138.855 141.013 129.981L85.8303 156.584Z" fill="#EBEBEB"/>
<path d="M85.8303 156.584C104.224 147.71 122.619 138.855 141.013 129.981" stroke="#1D1D1B" stroke-miterlimit="10"/>
<path d="M80.647 153.639C99.0412 144.765 117.435 135.911 135.829 127.036L80.647 153.639Z" fill="#EBEBEB"/>
<path d="M80.647 153.639C99.0412 144.765 117.435 135.911 135.829 127.036" stroke="#1D1D1B" stroke-miterlimit="10"/>
<path d="M75.4432 150.695C93.8374 141.82 112.232 132.966 130.626 124.092L75.4432 150.695Z" fill="#EBEBEB"/>
<path d="M75.4432 150.695C93.8374 141.82 112.232 132.966 130.626 124.092" stroke="#1D1D1B" stroke-miterlimit="10"/>
<path d="M70.2599 147.75C88.654 138.876 107.048 130.021 125.442 121.147L70.2599 147.75Z" fill="#EBEBEB"/>
<path d="M70.2599 147.75C88.654 138.876 107.048 130.021 125.442 121.147" stroke="#1D1D1B" stroke-miterlimit="10"/>
<path d="M65.0564 144.805C83.4506 135.931 101.845 127.077 120.239 118.202L65.0564 144.805Z" fill="#EBEBEB"/>
<path d="M65.0564 144.805C83.4506 135.931 101.845 127.077 120.239 118.202" stroke="#1D1D1B" stroke-miterlimit="10"/>
<path d="M59.8728 141.861C78.267 132.986 96.6612 124.132 115.055 115.258L59.8728 141.861Z" fill="#EBEBEB"/>
<path d="M59.8728 141.861C78.267 132.986 96.6612 124.132 115.055 115.258" stroke="#1D1D1B" stroke-miterlimit="10"/>
</g>
<path d="M137.564 142.284L109.751 155.616C109.065 155.939 108.258 155.939 107.572 155.616L79.7594 142.284C77.8434 141.377 77.8434 138.654 79.7594 137.746L108.662 123.87L137.564 137.746C139.5 138.654 139.5 141.377 137.564 142.284Z" stroke="#1D1D1B" stroke-miterlimit="10"/>
<path d="M96.4796 139.904V122.256L103.781 115.58V133.228L96.4796 139.904Z" fill="#B180E0" stroke="#181919" stroke-miterlimit="10" stroke-linecap="round" stroke-linejoin="round"/>
<path d="M121.994 139.904V122.256L114.692 115.58V133.228L121.994 139.904Z" fill="#B180E0" stroke="#181919" stroke-miterlimit="10" stroke-linecap="round" stroke-linejoin="round"/>
<path d="M119.593 112.474C119.593 98.9207 109.226 90.3489 109.226 90.3489C109.226 90.3489 98.8596 98.9207 98.8596 112.474C98.8596 120.623 100.534 128.731 103.135 133.894H115.338C117.919 128.71 119.593 120.623 119.593 112.474Z" fill="#5A66FF" stroke="#181919" stroke-miterlimit="10" stroke-linecap="round" stroke-linejoin="round"/>
<path d="M109.226 114.774C112.913 114.774 115.902 111.785 115.902 108.098C115.902 104.411 112.913 101.422 109.226 101.422C105.539 101.422 102.55 104.411 102.55 108.098C102.55 111.785 105.539 114.774 109.226 114.774Z" fill="#EBEBEB" stroke="#181919" stroke-miterlimit="10" stroke-linecap="round" stroke-linejoin="round"/>
<path d="M110.84 121.792C110.84 121.127 110.215 120.582 109.448 120.582C108.682 120.582 108.057 121.127 108.057 121.792C108.057 121.813 108.057 121.833 108.057 121.853L109.448 142.304L110.84 121.813C110.84 121.792 110.84 121.792 110.84 121.792Z" fill="#56B381" stroke="#181919" stroke-miterlimit="10" stroke-linecap="round" stroke-linejoin="round"/>
<path d="M109.67 104.487L110.336 106.504C110.396 106.686 110.578 106.827 110.759 106.827H112.877C113.321 106.827 113.502 107.392 113.139 107.654L111.425 108.904C111.263 109.025 111.203 109.227 111.263 109.409L111.929 111.425C112.07 111.849 111.586 112.192 111.223 111.93L109.509 110.679C109.347 110.558 109.125 110.558 108.984 110.679L107.27 111.93C106.907 112.192 106.443 111.849 106.564 111.425L107.23 109.409C107.29 109.227 107.23 109.025 107.068 108.904L105.354 107.654C104.991 107.392 105.172 106.827 105.616 106.827H107.734C107.935 106.827 108.097 106.706 108.157 106.504L108.823 104.487C108.944 104.084 109.529 104.084 109.67 104.487Z" fill="#FFF58C" stroke="#181919" stroke-miterlimit="10" stroke-linecap="round" stroke-linejoin="round"/>
</svg>
