<svg width="184" height="176" viewBox="0 0 184 176" fill="none" xmlns="http://www.w3.org/2000/svg">
<path d="M96.3177 175C144.367 175 183.318 136.049 183.318 88C183.318 39.9512 144.367 1 96.3177 1C48.269 1 9.31775 39.9512 9.31775 88C9.31775 136.049 48.269 175 96.3177 175Z" fill="#FF88B6"/>
<path d="M75.8017 107.592C75.2634 108.015 74.4751 107.611 74.0329 107.092C73.5907 106.573 73.2254 105.9 72.5909 105.688C71.4758 105.342 70.476 106.554 69.3032 106.611C66.8999 106.746 66.5538 102.382 64.1697 101.997C62.67 101.747 61.4011 103.324 59.8822 103.401C58.3825 103.477 57.2097 102.093 56.5944 100.728C55.9792 99.363 55.6331 97.8056 54.5757 96.7481C52.9222 95.0562 50.2497 95.1523 47.9041 95.3638C53.0568 94.6332 58.2287 93.8834 63.1507 92.1915C68.0727 90.4995 72.7639 87.8078 76.0901 84.4624C75.6095 92.6529 75.5326 100.863 75.8017 107.592Z" fill="#FFF58C" stroke="#181919" stroke-miterlimit="10"/>
<path d="M175.184 127.145C175.377 125.222 175.857 123.338 176.357 121.454C178.376 113.744 180.375 106.034 182.51 98.3246C179.856 95.6905 176.107 94.5369 172.531 93.4795C134.001 82.1166 104.854 86.2888 68.5925 87.154C65.0356 87.2309 50.1542 89.6726 46.6742 88.9613C44.5401 88.5383 42.8674 90.5955 40.6756 90.4801C37.9262 90.3263 35.196 90.9608 32.5235 91.6337C25.1213 93.5179 17.8152 95.7482 10.6245 98.363C10.9321 99.8627 11.3167 101.305 11.4705 102.247C14.1237 117.647 22.2373 132.048 34.004 142.315C36.5419 144.526 39.2528 146.564 42.2137 148.121C46.3858 150.332 51.0002 148.871 55.6146 149.756C64.5164 151.467 73.6298 154.581 82.6855 154.985C93.3754 155.447 104.085 155.908 114.602 154.639C132.617 152.486 149.863 145.372 165.186 139.162" fill="#5A66FF"/>
<mask id="mask0_525_53807" style="mask-type:luminance" maskUnits="userSpaceOnUse" x="10" y="85" width="173" height="71">
<path d="M11.4705 102.247C14.1237 117.647 22.2373 132.048 34.004 142.315C36.5419 144.526 39.2528 146.564 42.2137 148.121C46.3858 150.332 51.0002 148.871 55.6146 149.756C64.5164 151.467 73.6298 154.581 82.6855 154.985C93.3754 155.447 104.085 155.908 114.602 154.639C132.617 152.486 149.863 145.372 165.186 139.162C168.647 138.277 169.935 134.874 171.55 131.702C172.589 129.645 173.685 129.068 173.915 126.78C174.108 124.857 175.857 123.338 176.357 121.454C178.376 113.744 180.375 106.034 182.51 98.3246C179.856 95.6905 176.107 94.5369 172.531 93.4795C134.001 82.1166 104.854 86.2888 68.5925 87.154C65.0356 87.2309 50.5964 92.3451 47.1164 91.6337C44.9823 91.2108 42.8674 90.5955 40.6756 90.4801C37.9262 90.3263 35.196 90.9608 32.5235 91.6337C25.1213 93.5179 17.8152 95.7482 10.6245 98.363C10.9321 99.8627 11.3167 101.305 11.4705 102.247Z" fill="white"/>
</mask>
<g mask="url(#mask0_525_53807)">
<path d="M220.943 78.7712L160.611 141.027" stroke="#181919" stroke-miterlimit="10" stroke-linecap="round" stroke-linejoin="round"/>
<path d="M214.676 78.9827L154.343 141.219" stroke="#181919" stroke-miterlimit="10" stroke-linecap="round" stroke-linejoin="round"/>
<path d="M208.388 79.175L148.056 141.431" stroke="#181919" stroke-miterlimit="10" stroke-linecap="round" stroke-linejoin="round"/>
<path d="M202.101 79.3672L141.769 141.623" stroke="#181919" stroke-miterlimit="10" stroke-linecap="round" stroke-linejoin="round"/>
<path d="M195.834 79.5786L135.501 141.815" stroke="#181919" stroke-miterlimit="10" stroke-linecap="round" stroke-linejoin="round"/>
<path d="M189.546 79.771L129.214 142.026" stroke="#181919" stroke-miterlimit="10" stroke-linecap="round" stroke-linejoin="round"/>
<path d="M183.26 79.9634L122.927 142.219" stroke="#181919" stroke-miterlimit="10" stroke-linecap="round" stroke-linejoin="round"/>
<path d="M176.972 80.1748L116.64 142.411" stroke="#181919" stroke-miterlimit="10" stroke-linecap="round" stroke-linejoin="round"/>
<path d="M170.705 80.3672L110.372 142.623" stroke="#181919" stroke-miterlimit="10" stroke-linecap="round" stroke-linejoin="round"/>
<path d="M164.417 80.5593L104.085 142.815" stroke="#181919" stroke-miterlimit="10" stroke-linecap="round" stroke-linejoin="round"/>
<path d="M158.13 80.7708L97.7975 143.007" stroke="#181919" stroke-miterlimit="10" stroke-linecap="round" stroke-linejoin="round"/>
<path d="M151.862 80.9631L91.5297 143.219" stroke="#181919" stroke-miterlimit="10" stroke-linecap="round" stroke-linejoin="round"/>
<path d="M145.575 81.1553L85.2426 143.411" stroke="#181919" stroke-miterlimit="10" stroke-linecap="round" stroke-linejoin="round"/>
<path d="M139.289 81.3667L78.9557 143.603" stroke="#181919" stroke-miterlimit="10" stroke-linecap="round" stroke-linejoin="round"/>
<path d="M133.021 81.5591L72.6877 143.815" stroke="#181919" stroke-miterlimit="10" stroke-linecap="round" stroke-linejoin="round"/>
<path d="M126.733 81.7512L66.4006 144.007" stroke="#181919" stroke-miterlimit="10" stroke-linecap="round" stroke-linejoin="round"/>
<path d="M120.446 81.9629L60.1135 144.199" stroke="#181919" stroke-miterlimit="10" stroke-linecap="round" stroke-linejoin="round"/>
<path d="M114.159 82.155L53.8264 144.41" stroke="#181919" stroke-miterlimit="10" stroke-linecap="round" stroke-linejoin="round"/>
<path d="M107.891 82.3474L47.5586 144.603" stroke="#181919" stroke-miterlimit="10" stroke-linecap="round" stroke-linejoin="round"/>
<path d="M101.604 82.5588L41.2715 144.795" stroke="#181919" stroke-miterlimit="10" stroke-linecap="round" stroke-linejoin="round"/>
<path d="M95.3174 82.7512L34.9846 145.007" stroke="#181919" stroke-miterlimit="10" stroke-linecap="round" stroke-linejoin="round"/>
<path d="M89.0496 82.9434L28.7168 145.199" stroke="#181919" stroke-miterlimit="10" stroke-linecap="round" stroke-linejoin="round"/>
<path d="M82.7625 83.155L22.4297 145.391" stroke="#181919" stroke-miterlimit="10" stroke-linecap="round" stroke-linejoin="round"/>
<path d="M76.4754 83.3472L16.1426 145.603" stroke="#181919" stroke-miterlimit="10" stroke-linecap="round" stroke-linejoin="round"/>
<path d="M70.2075 83.5393L9.85547 145.795" stroke="#181919" stroke-miterlimit="10" stroke-linecap="round" stroke-linejoin="round"/>
<path d="M63.9203 83.751L3.58752 145.987" stroke="#181919" stroke-miterlimit="10" stroke-linecap="round" stroke-linejoin="round"/>
<path d="M57.6332 83.9431L-2.69958 146.199" stroke="#181919" stroke-miterlimit="10" stroke-linecap="round" stroke-linejoin="round"/>
<path d="M51.3464 84.1355L-8.98645 146.391" stroke="#181919" stroke-miterlimit="10" stroke-linecap="round" stroke-linejoin="round"/>
<path d="M45.0785 84.3469L-15.2543 146.583" stroke="#181919" stroke-miterlimit="10" stroke-linecap="round" stroke-linejoin="round"/>
<path d="M38.7914 84.5393L-21.5414 146.795" stroke="#181919" stroke-miterlimit="10" stroke-linecap="round" stroke-linejoin="round"/>
<path d="M32.5043 84.7314L-27.8285 146.987" stroke="#181919" stroke-miterlimit="10" stroke-linecap="round" stroke-linejoin="round"/>
<path d="M26.2364 84.9429L-34.0964 147.179" stroke="#181919" stroke-miterlimit="10" stroke-linecap="round" stroke-linejoin="round"/>
</g>
<path d="M182.816 96.8443C169.05 90.9609 155.496 89.0191 140.614 87.4425C108.775 84.0779 76.4938 84.9046 44.8662 89.9035C33.8686 91.6339 22.8133 93.9218 12.7386 98.69" stroke="#181919" stroke-miterlimit="10" stroke-linecap="round" stroke-linejoin="round"/>
<path d="M78.1483 153.043V69.4273C78.1483 57.6606 87.6847 48.1243 99.4513 48.1243C111.218 48.1243 120.754 57.6606 120.754 69.4273V153.043C120.754 154.447 119.62 155.601 118.197 155.601H80.7054C79.2827 155.581 78.1483 154.447 78.1483 153.043Z" fill="white" stroke="#1D1D1B" stroke-miterlimit="10"/>
<path d="M99.5272 63.2939L99.4695 66.6586" stroke="black" stroke-miterlimit="10" stroke-linecap="round" stroke-linejoin="round"/>
<path d="M93.567 64.2747L95.2397 67.1971" stroke="black" stroke-miterlimit="10" stroke-linecap="round" stroke-linejoin="round"/>
<path d="M105.43 64.3706L103.699 67.2546" stroke="black" stroke-miterlimit="10" stroke-linecap="round" stroke-linejoin="round"/>
<path d="M97.8554 13.4203L99.5858 18.7461C99.7396 19.246 100.201 19.5728 100.72 19.5728H106.315C107.469 19.5728 107.949 21.0532 107.026 21.7262L102.489 25.0139C102.066 25.3215 101.893 25.8599 102.047 26.3405L103.777 31.6663C104.143 32.7622 102.874 33.6851 101.931 32.9929L97.394 29.7052C96.971 29.3976 96.4134 29.3976 95.9905 29.7052L91.453 32.9929C90.5109 33.6658 89.2612 32.7622 89.6073 31.6663L91.3376 26.3405C91.4915 25.8407 91.3184 25.3023 90.8954 25.0139L86.358 21.7262C85.4159 21.0532 85.8965 19.5728 87.0694 19.5728H92.6643C93.1834 19.5728 93.6448 19.246 93.7986 18.7461L95.529 13.4203C95.952 12.3244 97.5094 12.3244 97.8554 13.4203Z" fill="#FFF58C" stroke="#181919" stroke-miterlimit="10" stroke-linecap="round" stroke-linejoin="round"/>
<path d="M39.714 38.1265C53.3456 32.1278 67.8424 28.0518 82.6083 26.0522" stroke="#181919" stroke-miterlimit="10" stroke-linecap="round" stroke-linejoin="round"/>
<path d="M34.3884 45.9325C35.9174 45.9325 37.157 44.6929 37.157 43.1639C37.157 41.6348 35.9174 40.3953 34.3884 40.3953C32.8593 40.3953 31.6198 41.6348 31.6198 43.1639C31.6198 44.6929 32.8593 45.9325 34.3884 45.9325Z" fill="#FFF58C" stroke="#181919" stroke-miterlimit="10" stroke-linecap="round" stroke-linejoin="round"/>
<path d="M153.42 38.9532C139.788 32.9545 125.291 28.8785 110.525 26.8789" stroke="#181919" stroke-miterlimit="10" stroke-linecap="round" stroke-linejoin="round"/>
<path d="M158.765 46.7592C160.294 46.7592 161.533 45.5196 161.533 43.9905C161.533 42.4615 160.294 41.2219 158.765 41.2219C157.236 41.2219 155.996 42.4615 155.996 43.9905C155.996 45.5196 157.236 46.7592 158.765 46.7592Z" fill="#FFF58C" stroke="#181919" stroke-miterlimit="10" stroke-linecap="round" stroke-linejoin="round"/>
<path d="M136.942 60.6023C137.365 61.8712 137.711 63.1594 137.73 64.4476C137.75 65.7358 137.461 67.0239 136.692 67.966C135.923 68.9081 134.654 69.4465 133.385 69.1965C132.828 69.0812 132.27 68.812 131.886 68.3506C131.578 67.966 131.405 67.5046 131.328 67.024C131.155 65.8704 131.501 64.736 132.078 63.8131C133.135 62.102 134.962 60.9291 136.942 60.6023Z" fill="#FF88B6" stroke="black" stroke-miterlimit="10"/>
<path d="M135.673 60.9867C135.077 62.1787 134.404 63.3323 133.52 64.2744C132.636 65.1973 131.501 65.9087 130.29 66.024C129.079 66.1586 127.79 65.6395 127.079 64.5628C126.771 64.0821 126.56 63.5053 126.618 62.9093C126.656 62.4287 126.887 61.9672 127.156 61.5827C127.848 60.6406 128.886 60.083 129.963 59.8331C131.924 59.3716 134.039 59.8331 135.673 60.9867Z" fill="#FF88B6" stroke="black" stroke-miterlimit="10"/>
<path d="M134.481 60.3715C133.212 60.7945 131.924 61.1405 130.636 61.1598C129.348 61.179 128.06 60.8906 127.117 60.1215C126.175 59.3525 125.637 58.0835 125.887 56.8146C126.002 56.257 126.272 55.6994 126.733 55.3149C127.117 55.0073 127.579 54.8342 128.06 54.7573C129.213 54.5843 130.348 54.9304 131.27 55.5072C133.001 56.5839 134.154 58.4104 134.481 60.3715Z" fill="#FF88B6" stroke="black" stroke-miterlimit="10"/>
<path d="M134.097 59.1025C132.905 58.5065 131.751 57.8336 130.809 56.9492C129.867 56.0647 129.175 54.9304 129.059 53.7191C128.944 52.5078 129.444 51.2197 130.521 50.5083C131.001 50.2007 131.578 49.9892 132.174 50.0468C132.655 50.0853 133.116 50.316 133.501 50.5852C134.443 51.2773 135 52.3156 135.25 53.3923C135.731 55.3726 135.25 57.4875 134.097 59.1025Z" fill="#FF88B6" stroke="black" stroke-miterlimit="10"/>
<path d="M134.712 57.9297C134.289 56.6608 133.943 55.3726 133.924 54.0844C133.905 52.7962 134.193 51.5081 134.962 50.566C135.731 49.6239 137 49.0855 138.269 49.3355C138.827 49.4508 139.384 49.72 139.769 50.1814C140.076 50.566 140.249 51.0274 140.326 51.5081C140.499 52.6617 140.153 53.796 139.576 54.7189C138.519 56.4301 136.692 57.6029 134.712 57.9297Z" fill="#FF88B6" stroke="black" stroke-miterlimit="10"/>
<path d="M136 57.526C136.596 56.334 137.269 55.1804 138.153 54.2383C139.038 53.3154 140.172 52.604 141.384 52.4887C142.595 52.3541 143.883 52.8732 144.594 53.9499C144.902 54.4305 145.113 55.0073 145.056 55.6034C145.017 56.084 144.787 56.5455 144.517 56.93C143.825 57.8721 142.787 58.4297 141.71 58.6796C139.73 59.1603 137.615 58.6988 136 57.526Z" fill="#FF88B6" stroke="black" stroke-miterlimit="10"/>
<path d="M137.173 58.1605C138.442 57.7375 139.73 57.3915 141.018 57.3722C142.306 57.353 143.595 57.6414 144.537 58.4105C145.479 59.1795 146.017 60.4485 145.767 61.7174C145.652 62.275 145.383 62.8326 144.921 63.2171C144.537 63.5247 144.075 63.6978 143.595 63.7747C142.441 63.9477 141.307 63.6016 140.384 63.0248C138.653 61.9481 137.5 60.1216 137.173 58.1605Z" fill="#FF88B6" stroke="black" stroke-miterlimit="10"/>
<path d="M137.557 59.4294C138.75 60.0255 139.903 60.6984 140.845 61.5828C141.787 62.4672 142.479 63.6016 142.595 64.8129C142.71 66.0241 142.21 67.3123 141.134 68.0237C140.653 68.3313 140.076 68.5428 139.48 68.4851C138.999 68.4467 138.538 68.216 138.154 67.9468C137.211 67.2546 136.654 66.2164 136.404 65.1397C135.923 63.1594 136.404 61.0445 137.557 59.4294Z" fill="#FF88B6" stroke="black" stroke-miterlimit="10"/>
<path d="M60.7285 65.9087C61.1515 67.1776 61.4976 68.4658 61.5168 69.754C61.5361 71.0422 61.2477 72.3304 60.4786 73.2725C59.7095 74.2146 58.4406 74.7529 57.1716 74.5029C56.6141 74.3876 56.0565 74.1184 55.672 73.657C55.3643 73.2724 55.1913 72.811 55.1144 72.3303C54.9414 71.1768 55.2874 70.0424 55.8642 69.1195C56.9409 67.3891 58.7674 66.2355 60.7285 65.9087Z" fill="#FF88B6" stroke="black" stroke-miterlimit="10"/>
<path d="M59.4596 66.2932C58.8636 67.4853 58.1906 68.6388 57.3062 69.5809C56.4218 70.523 55.2874 71.2152 54.0762 71.3306C52.8649 71.4651 51.5767 70.946 50.8653 69.8693C50.5577 69.3887 50.3462 68.8119 50.4039 68.2159C50.4424 67.7352 50.6731 67.2738 50.9423 66.8892C51.6344 65.9471 52.6726 65.3896 53.7493 65.1396C55.7297 64.659 57.8446 65.1396 59.4596 66.2932Z" fill="#FF88B6" stroke="black" stroke-miterlimit="10"/>
<path d="M58.2868 65.6781C57.0178 66.1011 55.7297 66.4472 54.4415 66.4664C53.1533 66.4856 51.8651 66.1972 50.923 65.4282C49.9809 64.6591 49.4426 63.3902 49.6925 62.1212C49.8079 61.5637 50.0771 61.0061 50.5385 60.6216C50.923 60.3139 51.3845 60.1409 51.8651 60.064C53.0187 59.8909 54.1531 60.237 55.076 60.8138C56.7871 61.8713 57.9599 63.6978 58.2868 65.6781Z" fill="#FF88B6" stroke="black" stroke-miterlimit="10"/>
<path d="M57.9022 64.3899C56.7102 63.7939 55.5566 63.1209 54.6145 62.2365C53.6724 61.3521 52.9802 60.2177 52.8649 59.0065C52.7303 57.7952 53.2494 56.507 54.3261 55.7956C54.8068 55.488 55.3836 55.2765 55.9796 55.3342C56.4602 55.3727 56.9217 55.6034 57.3062 55.8725C58.2483 56.5647 58.8059 57.6029 59.0558 58.6796C59.5173 60.66 59.0558 62.7749 57.9022 64.3899Z" fill="#FF88B6" stroke="black" stroke-miterlimit="10"/>
<path d="M58.5175 63.2171C58.0945 61.9481 57.7484 60.66 57.7292 59.3718C57.7099 58.0836 57.9983 56.7954 58.7674 55.8533C59.5365 54.9112 60.8054 54.3729 62.0744 54.6228C62.6319 54.7382 63.1895 55.0074 63.574 55.4688C63.8817 55.8533 64.0547 56.3148 64.1316 56.7954C64.3046 57.949 63.9586 59.0834 63.3818 60.0063C62.3051 61.7366 60.4786 62.8902 58.5175 63.2171Z" fill="#FF88B6" stroke="black" stroke-miterlimit="10"/>
<path d="M59.7864 62.8327C60.3824 61.6406 61.0553 60.487 61.9397 59.5449C62.8242 58.6028 63.9585 57.9107 65.1698 57.7953C66.3811 57.6607 67.6692 58.1798 68.3806 59.2565C68.6883 59.7372 68.8998 60.314 68.8421 60.91C68.8036 61.3907 68.5729 61.8521 68.3037 62.2366C67.6116 63.1787 66.5733 63.7363 65.4967 63.9862C63.5356 64.4669 61.4206 63.9862 59.7864 62.8327Z" fill="#FF88B6" stroke="black" stroke-miterlimit="10"/>
<path d="M60.9592 63.4479C62.2282 63.0249 63.5164 62.6788 64.8045 62.6596C66.0927 62.6404 67.3809 62.9288 68.323 63.6978C69.2651 64.4669 69.8034 65.7358 69.5535 67.0048C69.4381 67.5623 69.169 68.1199 68.7075 68.5044C68.323 68.8121 67.8615 68.9851 67.3809 69.062C66.2273 69.2351 65.0929 68.889 64.1701 68.3122C62.4589 67.2547 61.2861 65.4282 60.9592 63.4479Z" fill="#FF88B6" stroke="black" stroke-miterlimit="10"/>
<path d="M61.3631 64.7168C62.5552 65.3128 63.7088 65.9857 64.6509 66.8702C65.593 67.7546 66.2851 68.889 66.4005 70.1002C66.5351 71.3115 66.016 72.5997 64.9393 73.311C64.4586 73.6187 63.8818 73.8302 63.2858 73.7725C62.8051 73.734 62.3437 73.5033 61.9592 73.2341C61.0171 72.542 60.4595 71.5038 60.2096 70.4271C59.7289 68.466 60.1903 66.3511 61.3631 64.7168Z" fill="#FF88B6" stroke="black" stroke-miterlimit="10"/>
<mask id="mask1_525_53807" style="mask-type:luminance" maskUnits="userSpaceOnUse" x="9" y="1" width="175" height="174">
<path d="M96.3177 175C144.367 175 183.318 136.049 183.318 88C183.318 39.9512 144.367 1 96.3177 1C48.269 1 9.31775 39.9512 9.31775 88C9.31775 136.049 48.269 175 96.3177 175Z" fill="white"/>
</mask>
<g mask="url(#mask1_525_53807)">
<path d="M126.426 147.333C133.848 141.988 137.847 132.913 139.039 123.838C140.231 114.763 138.904 105.592 137.558 96.5558C137.174 93.9026 136.828 90.9993 138.251 88.7306C140.404 85.3275 145.73 85.2891 148.921 87.7501C152.113 90.2111 153.555 94.2871 154.362 98.2285C154.862 100.613 156.227 103.766 158.573 103.131C160.073 102.728 160.669 100.939 160.861 99.4013C161.13 97.2864 161.092 95.133 160.765 93.0181C160.438 90.9224 159.823 88.8652 159.938 86.7503C160.053 84.6354 161.111 82.3859 163.091 81.6553C166.206 80.5209 169.34 83.8086 169.955 87.0579C170.244 88.5191 170.243 90.038 170.82 91.4031C171.397 92.7682 172.839 93.941 174.281 93.5757C176.204 93.0758 176.511 90.5187 176.434 88.5191C176.242 83.9432 176.05 79.3865 175.858 74.8106C175.762 72.4265 176.165 69.3503 178.492 68.8312C180.857 68.3121 182.529 71.0614 183.202 73.3686C186.182 83.501 185.375 94.4024 182.933 104.669C182.049 108.438 180.933 112.168 179.165 115.609C177.319 119.205 174.8 122.415 172.224 125.549C168.205 130.452 163.976 135.24 158.881 139.008C149.806 145.776 138.058 148.813 126.426 147.333Z" fill="#B180E0" stroke="#1D1D1B" stroke-miterlimit="10"/>
<path d="M11.2403 102.42C10.7019 98.4785 10.1636 94.3832 11.3172 90.5764C12.49 86.7695 15.8739 83.328 19.8537 83.4626C22.8339 83.5587 25.5063 85.6352 26.9868 88.2307C28.4672 90.8263 28.9479 93.8641 29.1594 96.8442C29.294 98.7284 29.3516 100.69 30.1784 102.401C31.0051 104.093 32.9086 105.458 34.7351 105.015C37.3883 104.362 37.9267 100.882 39.4263 98.6131C41.6182 95.3061 46.867 94.6139 49.8279 97.248C52.1351 99.286 52.8272 102.554 53.7309 105.496C54.6345 108.438 56.2303 111.629 59.2104 112.456C64.517 113.898 69.612 106.784 74.7647 108.688C77.1488 109.572 78.4754 112.149 78.9561 114.648C79.4367 117.147 79.3021 119.743 79.8597 122.204C80.1097 123.281 80.5134 124.377 81.3786 125.069C83.4551 126.722 86.5505 125.011 88.1463 122.896C89.7421 120.781 90.9726 118.109 93.4336 117.128C97.0674 115.667 100.99 118.916 102.528 122.512C104.066 126.107 104.316 130.202 106.239 133.605C110.257 140.719 120.293 142.2 128.041 139.604C138.597 136.066 146.768 126.261 148.364 115.225C148.787 112.206 148.768 109.13 149.421 106.169C150.075 103.208 151.536 100.209 154.151 98.6707C156.766 97.1134 160.669 97.5556 162.226 100.19C163.38 102.151 162.995 104.593 163.322 106.842C163.649 109.092 165.495 111.591 167.667 110.956C168.494 110.707 169.148 110.053 169.667 109.361C171.474 106.977 172.339 103.881 172.032 100.901C171.859 99.2668 171.359 97.5556 171.955 96.0175C172.551 94.4794 174.954 93.6334 175.8 95.0562C176.146 95.633 176.088 96.3636 176.377 96.9596C177.223 98.7284 180.222 97.8825 180.972 96.0752C181.741 94.2679 181.164 92.1914 180.972 90.2495C180.78 88.2884 181.28 85.9043 183.125 85.2122C183.798 84.8276 184.375 85.8851 184.433 86.6734C185.875 102.112 183.568 118.07 176.531 131.875C174.762 135.336 172.705 138.681 170.013 141.469C166.571 145.026 163.168 154.389 158.746 156.562C139.52 166.021 112.256 179.441 90.8765 178.172C69.4966 176.903 51.5006 161.138 31.6012 153.197C28.2173 151.851 26.2754 143.507 23.7375 140.911C20.2383 137.335 20.5074 131.567 17.8926 127.299C12.8937 119.032 11.9516 107.688 11.2403 102.42Z" fill="#56B381" stroke="black" stroke-miterlimit="10"/>
</g>
<path d="M96.3177 175C144.367 175 183.318 136.049 183.318 88C183.318 39.9512 144.367 1 96.3177 1C48.269 1 9.31775 39.9512 9.31775 88C9.31775 136.049 48.269 175 96.3177 175Z" stroke="#181919" stroke-miterlimit="10"/>
<path d="M55.7297 121.608C59.402 114.667 72.5529 84.2317 72.5529 84.2317C73.5142 82.7128 73.495 80.7133 72.3414 79.1944C72.3222 79.1752 72.303 79.1559 72.303 79.1367L77.821 78.483C78.8592 78.5599 79.9167 78.2715 80.8203 77.5794C82.743 76.0989 83.089 73.3495 81.6086 71.4269C80.878 70.4656 79.8205 69.8888 78.7054 69.7734C78.5516 69.7542 78.3593 69.7349 78.2055 69.7542L45.7704 67.6585C39.4064 66.8317 33.5808 71.3308 32.754 77.6947L27.9858 114.84H28.0051L9.43225 129.183L24.5635 148.794L45.8665 132.336C45.8665 132.336 52.0574 128.549 55.7297 121.608ZM64.92 80.0211L50.8462 97.9979L54.6146 81.2324L64.92 80.0211Z" fill="#EBEBEB" stroke="#1D1D1B" stroke-miterlimit="10" stroke-linecap="round" stroke-linejoin="round"/>
<path d="M45.6935 132.471C45.6935 132.471 51.9036 128.683 55.5567 121.743C59.2097 114.821 72.3799 84.3855 72.3799 84.3662C73.3412 82.8474 73.322 80.8478 72.1684 79.3289C70.688 77.4062 67.9386 77.0602 66.0159 78.5406C65.4584 78.9828 65.0161 79.5404 64.7277 80.1364L50.6539 98.1132" fill="#EBEBEB"/>
<path d="M45.6935 132.471C45.6935 132.471 51.9036 128.683 55.5567 121.743C59.2097 114.821 72.3799 84.3855 72.3799 84.3662C73.3412 82.8474 73.322 80.8478 72.1684 79.3289C70.688 77.4062 67.9386 77.0602 66.0159 78.5406C65.4584 78.9828 65.0161 79.5404 64.7277 80.1364L50.6539 98.1132" stroke="#1D1D1B" stroke-miterlimit="10" stroke-linecap="round" stroke-linejoin="round"/>
<path d="M108.583 71.6768C108.583 71.6768 106.334 73.561 103.815 74.1377C101.296 74.7145 99.1047 71.6191 95.1248 71.8498C92.4715 72.0036 91.1257 74.0032 90.5104 75.3106L2.79904 84.2124C1.70313 84.3278 0.895616 85.3276 1.01098 86.4235V86.4812C1.12633 87.5771 2.12611 88.3846 3.22202 88.2692L90.7219 79.3674C92.3946 81.886 96.4706 84.4239 101.431 81.4054C108.679 76.9833 108.583 71.6768 108.583 71.6768Z" fill="#FFF58C" stroke="#1D1D1B" stroke-miterlimit="10" stroke-linecap="round" stroke-linejoin="round"/>
<path d="M24.6396 148.717C26.102 147.588 23.8946 142.278 19.7092 136.857C15.5238 131.436 10.9454 127.957 9.48298 129.086C8.02058 130.215 10.228 135.525 14.4134 140.946C18.5988 146.367 23.1772 149.846 24.6396 148.717Z" fill="#EBEBEB" stroke="#1D1D1B" stroke-miterlimit="10" stroke-linecap="round" stroke-linejoin="round"/>
</svg>
