<svg width="176" height="176" viewBox="0 0 176 176" fill="none" xmlns="http://www.w3.org/2000/svg">
<mask id="mask0_525_20643" style="mask-type:alpha" maskUnits="userSpaceOnUse" x="0" y="0" width="176" height="176">
<path d="M88.0313 1C136.061 1 175 39.9389 175 87.9687C175 135.998 136.061 174.995 88.0313 174.937C40.2514 174.88 2.94621 135.633 1.06269 87.9687C-0.82083 39.9773 40.0016 1 88.0313 1Z" fill="#D9D9D9" stroke="black" stroke-miterlimit="10"/>
</mask>
<g mask="url(#mask0_525_20643)">
<path d="M173.626 101.83C181.321 54.4184 149.123 9.74575 101.712 2.05111C54.2997 -5.64353 9.62702 26.5536 1.93238 73.9655C-5.76226 121.377 26.4349 166.05 73.8468 173.745C121.259 181.439 165.931 149.242 173.626 101.83Z" fill="#B180E0"/>
<path d="M7 115.183C7 115.183 25.5095 115.665 50.5 113.618C69.8747 112.032 93.175 109.219 114.575 101.618C130.164 96.0816 143.97 86.996 155.5 76.6184C161.108 71.5713 166.126 66.0873 170 59.6184C170 59.6184 189.075 102.118 154.876 143.128C154.876 143.128 146.073 154.756 137.52 159.888C128.968 165.019 112.765 171.593 112.765 171.593L97.8318 174.456L77.3245 174.302C77.3245 174.302 52.3198 167.595 46.1887 163.789C40.0577 159.984 27.0845 149.452 27.0845 149.452L14.2073 133.115C14.2266 133.115 8.0763 119.488 7 115.183Z" fill="#EBEBEB"/>
<path d="M5.55969 114.627C21.2813 115.933 46.8049 113.992 62.5074 112.512" stroke="#020303" stroke-miterlimit="10"/>
<path d="M162.738 43.4368C162.93 43.7636 162.296 70.9785 117.303 85.1241C115.65 85.6431 113.901 85.7776 112.191 86.0466C125.26 77.9744 140.732 60.4461 136.734 45.205C135.427 40.2656 133.082 35.6145 132.217 30.5789C131.352 25.5434 132.41 19.6814 136.753 16.3564C141.443 18.5667 145.114 22.3913 148.919 25.9085C153.436 30.0792 159.279 37.3442 162.738 43.4368Z" fill="#5A66FF" stroke="#020303" stroke-miterlimit="10" stroke-linecap="round" stroke-linejoin="round"/>
<path d="M74.5007 87.9876C49.5537 83.6247 22.012 89.5828 3.08069 104.017C4.61826 110.359 6.05972 116.855 9.71144 123.851C22.7039 105.497 48.4581 92.0813 74.5007 87.9876Z" fill="#FFF58C" stroke="#020303" stroke-miterlimit="10" stroke-linecap="round" stroke-linejoin="round"/>
<path d="M2.79218 103.191C17.7258 93.9846 35.7346 86.9886 54.762 87.4883C57.5488 87.5652 60.3933 87.7959 63.084 87.2193C65.7748 86.6619 68.3502 85.0475 69.6187 82.991C48.6501 77.4365 24.7025 79.1086 5.32917 87.4692C4.02224 88.0265 1.75432 88.9298 1.00476 89.9293" fill="#FF88B6"/>
<path d="M2.79218 103.191C17.7258 93.9846 35.7346 86.9886 54.762 87.4883C57.5488 87.5652 60.3933 87.7959 63.084 87.2193C65.7748 86.6619 68.3502 85.0475 69.6187 82.991C48.6501 77.4365 24.7025 79.1086 5.32917 87.4692C4.02224 88.0265 1.75432 88.9298 1.00476 89.9293" stroke="#020303" stroke-miterlimit="10"/>
<path d="M150.687 107.937C155.198 107.937 158.856 104.28 158.856 99.7689C158.856 95.2577 155.198 91.6006 150.687 91.6006C146.176 91.6006 142.519 95.2577 142.519 99.7689C142.519 104.28 146.176 107.937 150.687 107.937Z" fill="#FFF58C" stroke="#1D1D1B" stroke-miterlimit="10"/>
<path d="M26.5289 89.5833C32.9507 89.5833 38.1567 84.3774 38.1567 77.9555C38.1567 71.5336 32.9507 66.3276 26.5289 66.3276C20.107 66.3276 14.901 71.5336 14.901 77.9555C14.901 84.3774 20.107 89.5833 26.5289 89.5833Z" fill="#FF88B6" stroke="#1D1D1B" stroke-miterlimit="10"/>
<path d="M39.4825 120.796C42.8686 120.796 45.6135 118.051 45.6135 114.665C45.6135 111.279 42.8686 108.534 39.4825 108.534C36.0964 108.534 33.3514 111.279 33.3514 114.665C33.3514 118.051 36.0964 120.796 39.4825 120.796Z" fill="#56B381" stroke="#1D1D1B" stroke-miterlimit="10"/>
<path d="M89.6842 16.2218L91.4139 21.5456C91.5677 22.0453 92.029 22.372 92.5479 22.372H98.1408C99.294 22.372 99.7745 23.852 98.8519 24.5247L94.3161 27.8112C93.8933 28.1187 93.7203 28.6569 93.8741 29.1374L95.6038 34.4612C95.969 35.5567 94.7005 36.4792 93.7587 35.7873L89.2229 32.5008C88.8001 32.1933 88.2427 32.1933 87.8199 32.5008L83.2841 35.7873C82.3423 36.46 81.093 35.5567 81.439 34.4612L83.1688 29.1374C83.3225 28.6376 83.1495 28.0995 82.7267 27.8112L78.1909 24.5247C77.2491 23.852 77.7296 22.372 78.902 22.372H84.4949C85.0138 22.372 85.4751 22.0453 85.6289 21.5456L87.3586 16.2218C87.7815 15.1263 89.3382 15.1263 89.6842 16.2218Z" fill="#FFF58C" stroke="#181919" stroke-miterlimit="10" stroke-linecap="round" stroke-linejoin="round"/>
<path d="M31.5641 40.919C45.1908 34.9225 59.6824 30.848 74.443 28.8491" stroke="#181919" stroke-miterlimit="10" stroke-linecap="round" stroke-linejoin="round"/>
<path d="M26.2405 48.7225C27.769 48.7225 29.0081 47.4834 29.0081 45.9549C29.0081 44.4264 27.769 43.1873 26.2405 43.1873C24.712 43.1873 23.4729 44.4264 23.4729 45.9549C23.4729 47.4834 24.712 48.7225 26.2405 48.7225Z" fill="#FFF58C" stroke="#181919" stroke-miterlimit="10" stroke-linecap="round" stroke-linejoin="round"/>
<path d="M145.248 41.7264C131.622 35.7299 117.13 31.6553 102.369 29.6565" stroke="#181919" stroke-miterlimit="10" stroke-linecap="round" stroke-linejoin="round"/>
<path d="M150.572 49.5296C152.101 49.5296 153.34 48.2905 153.34 46.762C153.34 45.2335 152.101 43.9944 150.572 43.9944C149.044 43.9944 147.805 45.2335 147.805 46.762C147.805 48.2905 149.044 49.5296 150.572 49.5296Z" fill="#FFF58C" stroke="#181919" stroke-miterlimit="10" stroke-linecap="round" stroke-linejoin="round"/>
<path d="M116.976 100.5C136.388 93.6581 159.144 77.1292 170.099 59.6201" stroke="#020303" stroke-miterlimit="10"/>
<path d="M59.5482 99.7695C59.5482 115.606 72.3869 128.484 88.2623 128.484C104.099 128.484 116.976 115.645 116.976 99.7695C116.976 88.526 110.519 78.7817 101.082 74.0729V56.4293C101.082 49.3373 95.3543 43.6099 88.2623 43.6099C81.1702 43.6099 75.4428 49.3373 75.4428 56.4293V74.1113C66.0252 78.8201 59.5482 88.526 59.5482 99.7695Z" fill="white" stroke="#181919" stroke-miterlimit="10" stroke-linecap="round" stroke-linejoin="round"/>
<path d="M101.063 68.1729H75.4236" stroke="#181919" stroke-miterlimit="10" stroke-linecap="round" stroke-linejoin="round"/>
<path d="M101.063 58.3896H75.4236" stroke="#181919" stroke-miterlimit="10" stroke-linecap="round" stroke-linejoin="round"/>
<path d="M88.2616 113.78C95.9997 113.78 102.273 107.507 102.273 99.7689C102.273 92.0308 95.9997 85.7578 88.2616 85.7578C80.5235 85.7578 74.2505 92.0308 74.2505 99.7689C74.2505 107.507 80.5235 113.78 88.2616 113.78Z" fill="#FF88B6" stroke="#1D1D1B" stroke-miterlimit="10"/>
<path d="M88.3002 106.304C91.9092 106.304 94.8349 103.379 94.8349 99.7698C94.8349 96.1608 91.9092 93.2351 88.3002 93.2351C84.6912 93.2351 81.7656 96.1608 81.7656 99.7698C81.7656 103.379 84.6912 106.304 88.3002 106.304Z" fill="#5A66FF" stroke="#020303" stroke-miterlimit="10" stroke-linecap="round" stroke-linejoin="round"/>
<path d="M174.443 75.8412C173.905 72.5355 172.771 68.7877 169.676 67.5192C165.679 65.8855 161.239 69.864 160.49 74.1115C159.721 78.3782 161.335 82.645 162.373 86.8348C164.718 96.3485 163.834 107.323 157.318 114.626C156.05 116.049 154.109 117.394 152.379 116.625C150.207 115.664 150.418 112.531 151.187 110.302C151.956 108.072 152.802 105.247 151.11 103.614C149.477 102.038 146.536 102.96 145.248 104.824C143.961 106.689 143.826 109.091 143.653 111.359C143.48 113.627 143.153 116.049 141.616 117.721C139.252 120.258 134.351 119.489 132.871 116.337C131.775 113.954 132.544 111.186 132.967 108.591C133.39 105.997 133.198 102.845 130.987 101.442C128.085 99.5967 124.261 102.326 122.8 105.439C120.013 111.34 121.493 118.374 119.859 124.697C118.245 131.001 113.747 135.845 108.116 139.247C108.097 139.266 76.4423 157.121 17.8225 139.247C17.8225 139.247 48.3432 182.299 97.2763 174.438C140 168.619 157.568 140.515 163.065 131.424C164.449 129.31 165.66 127.1 166.755 124.832C174.059 109.725 177.134 92.4277 174.443 75.8412Z" fill="#5A66FF"/>
<path d="M174.039 74.9572C173.77 73.2466 173.732 72.2856 172.944 70.7481C172.214 69.3066 171.176 68.1342 169.676 67.5192C165.679 65.8855 161.239 69.864 160.49 74.1115C159.721 78.3782 161.335 82.645 162.373 86.8348C164.718 96.3485 163.834 107.323 157.318 114.626C156.05 116.049 154.109 117.394 152.379 116.625C150.207 115.664 150.418 112.531 151.187 110.302C151.956 108.072 152.802 105.247 151.11 103.614C149.477 102.038 146.536 102.96 145.248 104.824C143.961 106.689 143.826 109.091 143.653 111.359C143.48 113.627 143.153 116.049 141.616 117.721C139.252 120.258 134.351 119.489 132.871 116.337C131.775 113.954 132.544 111.186 132.967 108.591C133.39 105.997 133.198 102.845 130.987 101.442C128.085 99.5967 124.261 102.326 122.8 105.439C120.013 111.34 121.493 118.374 119.859 124.697C118.245 131.001 113.747 135.845 108.116 139.247C108.097 139.266 76.4423 157.121 17.8225 139.247" stroke="#020303" stroke-miterlimit="10"/>
<path d="M88.0313 1C136.061 1 175 39.9389 175 87.9687C175 135.998 136.061 174.995 88.0313 174.937C40.2514 174.88 2.94621 135.633 1.06269 87.9687C-0.82083 39.9773 40.0016 1 88.0313 1Z" stroke="#181919" stroke-miterlimit="10"/>
</g>
</svg>
