<svg width="390" height="766" viewBox="0 0 390 766" fill="none" xmlns="http://www.w3.org/2000/svg">
<mask id="mask0_602_2623" style="mask-type:alpha" maskUnits="userSpaceOnUse" x="0" y="0" width="390" height="766">
<rect width="390" height="766" fill="#D9D9D9"/>
</mask>
<g mask="url(#mask0_602_2623)">
<rect width="390" height="745" fill="#F5F5F5"/>
<path fill-rule="evenodd" clip-rule="evenodd" d="M185.888 596.001L144.97 578.536L103.546 553.681L57.2002 516.128L15.2978 465.362L-9 404.281V351.616L10.6294 301.574L14.5666 249.965C14.5666 249.965 -6.55335 180.287 -5.56906 169.398C-4.58478 158.509 13.0761 107.773 13.0761 107.773L94.5749 -2.80627L206.5 -2.80714C122 72.5001 68 145.5 50.8164 257.807C35.7157 356.5 42.3515 466.177 110.211 533.411C129.84 552.837 152.929 567.738 176.017 582.126L185.888 596.001Z" fill="#56B381" stroke="black" stroke-miterlimit="10"/>
<path fill-rule="evenodd" clip-rule="evenodd" d="M103.568 563.819C88.9845 568.686 72.5128 564.993 59.4483 556.845C46.4055 548.698 36.3575 536.51 27.7853 523.714C17.325 508.071 8.44893 489.973 10.2285 471.224C10.7927 465.402 12.5072 459.449 16.4786 455.147C20.4501 450.845 27.0474 448.651 32.3861 451.063C41.0885 454.995 41.3272 466.944 42.0434 476.482C42.6945 485.085 44.8212 493.58 48.3369 501.445C51.0931 507.636 57.9943 514.328 63.55 510.461C68.2159 507.224 66.4797 499.946 63.7887 494.949C61.0976 489.952 57.9075 483.76 61.0325 479.002C62.6602 475.439 68.4763 476.438 70.6248 479.697C72.7732 482.956 72.5779 487.171 73.012 491.06C73.446 494.949 75.1387 499.337 78.8932 500.38C83.9931 501.792 88.4203 495.47 87.5739 490.256C86.7275 485.042 82.7127 480.979 79.2621 476.981C64.2661 459.622 56.4317 436.246 57.9509 413.325C58.5151 404.873 61.2713 395.206 69.1056 391.968C77.4391 388.514 87.2267 394.793 90.9594 403.027C94.6921 411.261 94.0628 420.712 93.5853 429.728C92.8909 443.154 92.739 456.885 96.7538 469.703C100.378 481.261 107.171 491.516 112.965 502.162C118.759 512.807 123.664 524.517 122.926 536.619C122.21 548.742 114.072 560.3 103.568 563.819Z" fill="#FFF58C" stroke="black" stroke-miterlimit="10"/>
<path fill-rule="evenodd" clip-rule="evenodd" d="M159 588.806C111.553 565.567 66.9951 528.964 33.8672 483.028C20.5283 464.516 8.58258 444.258 1.33261 421.561C-5.91735 398.894 -8.18781 373.549 -2.25367 350.37C1.15201 337.066 7.08614 324.874 11.498 311.991C22.1795 280.745 23.4437 245.225 15.0327 213.047C12.0657 201.728 7.93756 190.741 6.10572 179.092C-0.0348206 139.749 20.8637 101.911 43.2844 71.6893C62.5832 45.6814 86.3714 19.3726 109.205 -2.42102L50.3795 -11C16.9936 19.5532 -11.3355 57.5415 -32.6468 100.346C-40.5417 116.18 -47.5337 132.916 -50.5266 150.917C-53.5194 168.888 -52.2036 188.363 -44.257 204.167C-35.459 221.686 -19.5659 233.155 -10.7679 250.674C-2.27947 267.621 -1.55705 289.535 -8.93602 307.205C-15.3604 322.587 -27.0738 334.055 -35.0204 348.444C-51.2748 377.883 -49.83 417.286 -37.2909 449.104C-24.7518 480.921 -2.61488 506.267 21.0185 527.82C60.0032 563.4 108.56 592.147 157.916 596" fill="#EBEBEB"/>
<path d="M159 588.806C111.553 565.567 66.9951 528.964 33.8672 483.028C20.5283 464.516 8.58258 444.258 1.33262 421.561C-5.91735 398.894 -8.1878 373.549 -2.25367 350.37C1.15201 337.066 7.08614 324.874 11.498 311.991C22.1795 280.745 23.4437 245.225 15.0327 213.047C12.0657 201.728 7.93756 190.741 6.10572 179.092C-0.0348194 139.749 20.8637 101.911 43.2844 71.6893C62.5832 45.6814 86.3713 19.3726 109.205 -2.42102L50.3795 -11C16.9936 19.5532 -11.3355 57.5415 -32.6468 100.346C-40.5417 116.18 -47.5337 132.916 -50.5266 150.917C-53.5194 168.888 -52.2036 188.363 -44.257 204.167C-35.459 221.686 -19.5659 233.155 -10.7679 250.674C-2.27947 267.621 -1.55705 289.535 -8.93602 307.205C-15.3604 322.587 -27.0738 334.055 -35.0204 348.444C-51.2748 377.883 -49.83 417.286 -37.2909 449.104C-24.7518 480.921 -2.61488 506.267 21.0185 527.82C60.0032 563.4 108.56 592.147 157.916 596" stroke="black" stroke-miterlimit="10"/>
<mask id="mask1_602_2623" style="mask-type:luminance" maskUnits="userSpaceOnUse" x="-53" y="-11" width="212" height="607">
<path d="M158.609 588.806C111.223 565.567 66.7216 528.964 33.6358 483.029C20.3139 464.516 8.38343 444.258 1.14269 421.561C-6.09805 398.894 -8.36562 373.549 -2.43903 350.37C0.962311 337.066 6.88889 324.874 11.2952 311.991C21.963 280.745 23.2257 245.225 14.8254 213.047C11.8621 201.728 7.73923 190.741 5.90972 179.092C-0.223007 139.749 20.6489 101.911 43.0411 71.6893C62.3153 45.6814 86.0732 19.3726 108.878 -2.42102L50.1272 -11C16.7837 19.5532 -11.5093 57.5415 -32.7935 100.346C-40.6784 116.18 -47.6615 132.916 -50.6505 150.917C-53.6396 168.888 -52.3254 188.363 -44.3889 204.167C-35.6021 221.686 -19.7292 233.155 -10.9424 250.674C-2.4648 267.621 -1.74331 289.535 -9.11288 307.205C-15.5291 322.587 -27.2276 334.055 -35.1641 348.444C-51.3978 377.883 -49.9548 417.286 -37.4317 449.104C-24.9085 480.921 -2.79978 506.267 20.8035 527.82C59.7386 563.4 108.233 592.147 157.527 596" fill="white"/>
</mask>
<g mask="url(#mask1_602_2623)">
<path d="M5.05566 -48.146V171.686V667.16H20.0267V665.504" stroke="#4D4D4D" stroke-miterlimit="10"/>
<path d="M11.0269 -48.146V171.686V667.16H25.9979V665.504" stroke="#494949" stroke-miterlimit="10"/>
<path d="M16.998 -48.146V171.686V667.16H31.9691V665.504" stroke="#464646" stroke-miterlimit="10"/>
<path d="M22.9692 -48.146V171.686V667.16H37.9403V665.504" stroke="#424242" stroke-miterlimit="10"/>
<path d="M28.9404 -48.146V171.686V667.16H43.9115V665.504" stroke="#3E3E3E" stroke-miterlimit="10"/>
<path d="M34.9116 -48.146V171.686V667.16H49.8827V665.504" stroke="#3B3B3B" stroke-miterlimit="10"/>
<path d="M40.8828 -48.146V171.686V667.16H55.8539V665.504" stroke="#373737" stroke-miterlimit="10"/>
<path d="M46.854 -48.146V171.686V667.16H61.8251V665.504" stroke="#333333" stroke-miterlimit="10"/>
<path d="M52.8252 -48.146V171.686V667.16H67.7963V665.504" stroke="#303030" stroke-miterlimit="10"/>
<path d="M58.7959 -48.146V171.686V667.16H73.767V665.504" stroke="#2C2C2C" stroke-miterlimit="10"/>
<path d="M64.7671 -48.146V171.686V667.16H79.7382V665.504" stroke="#282828" stroke-miterlimit="10"/>
<path d="M70.738 -48.146V171.686V667.16H85.7091V665.504" stroke="#252525" stroke-miterlimit="10"/>
<path d="M76.7092 -48.146V171.686V667.16H91.6545V665.504" stroke="#212121" stroke-miterlimit="10"/>
<path d="M82.6545 -48.146V171.686V667.16H97.5998V665.504" stroke="#1D1D1D" stroke-miterlimit="10"/>
<path d="M88.5999 -48.146V171.686V667.16H103.571V665.504" stroke="#1A1A1A" stroke-miterlimit="10"/>
<path d="M94.5708 -48.146V171.686V667.16H109.542V665.504" stroke="#161616" stroke-miterlimit="10"/>
<path d="M100.542 -48.146V171.686V667.16H115.513V665.504" stroke="#121212" stroke-miterlimit="10"/>
<path d="M106.513 -48.146V171.686V667.16H121.484V665.504" stroke="#0F0F0F" stroke-miterlimit="10"/>
<path d="M112.484 -48.146V171.686V667.16H127.455V665.504" stroke="#0B0B0B" stroke-miterlimit="10"/>
<path d="M118.455 -48.146V171.686V667.16H133.426V665.504" stroke="#070707" stroke-miterlimit="10"/>
<path d="M124.426 -48.146V171.686V667.16H139.397V665.504" stroke="#040404" stroke-miterlimit="10"/>
<path d="M130.397 -48.146V171.686V667.16H145.368V665.504" stroke="black" stroke-miterlimit="10"/>
</g>
<path d="M237.994 574.595C257.879 577.884 275.375 557.855 278.472 537.44C281.591 517.026 274.778 496.612 269.801 476.606C264.825 456.599 261.883 434.212 271.792 416.224C280.507 400.414 297.273 391.432 310.036 378.821C326.691 362.398 336.601 339.012 336.977 315.332C337.198 300.906 334.035 286.661 333.438 272.257C331.602 228.911 354.893 185.405 391.566 163.743L394.066 366.39L392.739 381.86L365.046 405.223L328.948 436.866L317.733 459.344L308.067 522.515L301.409 549.825L286.346 576.976L260.224 592.968L236.026 596.03L232 581.83L237.994 574.595Z" fill="#5A66FF"/>
<path d="M237.994 574.595C257.879 577.884 275.375 557.855 278.472 537.44C281.591 517.026 274.778 496.612 269.801 476.606C264.825 456.599 261.883 434.212 271.792 416.224C280.507 400.414 297.273 391.432 310.036 378.821C326.691 362.398 336.601 339.012 336.977 315.332C337.198 300.906 334.035 286.661 333.438 272.257C331.602 228.911 354.893 185.405 391.566 163.743L394.066 366.39L392.739 381.86L365.046 405.223L328.948 436.866L317.733 459.344L308.067 522.515L301.409 549.825L286.346 576.976L260.224 592.968L236.026 596.03L232 581.83L237.994 574.595Z" fill="#5A66FF" stroke="black" stroke-miterlimit="10"/>
<path d="M236.535 589.656C256.11 593.444 280.53 578.428 289.643 560.236C298.756 542.067 299.928 520.927 301.056 500.535C302.184 480.121 303.666 458.958 313.266 441.061C335.23 400.119 393.204 387.213 408.333 343.14L409.107 343.549C401.874 372.537 397.428 402.251 395.836 432.147C381.746 438.861 354.894 452.97 343.502 464.266C317.822 489.716 325.254 533.947 309.66 566.882C297.097 593.421 268.165 597.164 241.246 611C241.556 603.673 236.203 597.005 236.535 589.656Z" fill="#FF88B6"/>
<mask id="mask2_602_2623" style="mask-type:luminance" maskUnits="userSpaceOnUse" x="236" y="343" width="174" height="268">
<path d="M236.535 589.656C256.11 593.444 280.53 578.428 289.643 560.236C298.756 542.067 299.928 520.927 301.056 500.535C302.184 480.121 303.666 458.958 313.266 441.061C335.23 400.119 393.204 387.213 408.333 343.14L409.107 343.549C401.874 372.537 397.428 402.251 395.836 432.147C381.746 438.861 354.894 452.97 343.502 464.266C317.822 489.716 325.254 533.947 309.66 566.882C297.097 593.421 268.165 597.164 241.246 611C241.556 603.673 236.203 597.005 236.535 589.656Z" fill="white"/>
</mask>
<g mask="url(#mask2_602_2623)">
<path fill-rule="evenodd" clip-rule="evenodd" d="M256.309 155.917V321.569V694.926H269.16V693.678" fill="#FF88B6"/>
<path d="M256.309 155.917V321.569V694.926H269.16V693.678" stroke="black" stroke-miterlimit="10"/>
<path fill-rule="evenodd" clip-rule="evenodd" d="M263.16 155.917V321.569V694.926H276.011V693.678" fill="#FF88B6"/>
<path d="M263.16 155.917V321.569V694.926H276.011V693.678" stroke="black" stroke-miterlimit="10"/>
<path fill-rule="evenodd" clip-rule="evenodd" d="M270.011 155.917V321.569V694.926H282.862V693.678" fill="#FF88B6"/>
<path d="M270.011 155.917V321.569V694.926H282.862V693.678" stroke="black" stroke-miterlimit="10"/>
<path fill-rule="evenodd" clip-rule="evenodd" d="M276.862 155.917V321.569V694.926H289.713V693.678" fill="#FF88B6"/>
<path d="M276.862 155.917V321.569V694.926H289.713V693.678" stroke="black" stroke-miterlimit="10"/>
<path fill-rule="evenodd" clip-rule="evenodd" d="M283.713 155.917V321.569V694.926H296.565V693.678" fill="#FF88B6"/>
<path d="M283.713 155.917V321.569V694.926H296.565V693.678" stroke="black" stroke-miterlimit="10"/>
<path fill-rule="evenodd" clip-rule="evenodd" d="M290.564 155.917V321.569V694.926H303.416V693.678" fill="#FF88B6"/>
<path d="M290.564 155.917V321.569V694.926H303.416V693.678" stroke="black" stroke-miterlimit="10"/>
<path fill-rule="evenodd" clip-rule="evenodd" d="M297.416 155.917V321.569V694.926H310.245V693.678" fill="#FF88B6"/>
<path d="M297.416 155.917V321.569V694.926H310.245V693.678" stroke="black" stroke-miterlimit="10"/>
<path fill-rule="evenodd" clip-rule="evenodd" d="M304.245 155.917V321.569V694.926H317.096V693.678" fill="#FF88B6"/>
<path d="M304.245 155.917V321.569V694.926H317.096V693.678" stroke="black" stroke-miterlimit="10"/>
<path fill-rule="evenodd" clip-rule="evenodd" d="M311.096 155.917V321.569V694.926H323.947V693.678" fill="#FF88B6"/>
<path d="M311.096 155.917V321.569V694.926H323.947V693.678" stroke="black" stroke-miterlimit="10"/>
<path fill-rule="evenodd" clip-rule="evenodd" d="M317.947 155.917V321.569V694.926H330.798V693.678" fill="#FF88B6"/>
<path d="M317.947 155.917V321.569V694.926H330.798V693.678" stroke="black" stroke-miterlimit="10"/>
<path fill-rule="evenodd" clip-rule="evenodd" d="M324.798 155.917V321.569V694.926H337.649V693.678" fill="#FF88B6"/>
<path d="M324.798 155.917V321.569V694.926H337.649V693.678" stroke="black" stroke-miterlimit="10"/>
<path fill-rule="evenodd" clip-rule="evenodd" d="M331.649 155.917V321.569V694.926H344.5V693.678" fill="#FF88B6"/>
<path d="M331.649 155.917V321.569V694.926H344.5V693.678" stroke="black" stroke-miterlimit="10"/>
<path fill-rule="evenodd" clip-rule="evenodd" d="M338.5 155.917V321.569V694.926H351.351V693.678" fill="#FF88B6"/>
<path d="M338.5 155.917V321.569V694.926H351.351V693.678" stroke="black" stroke-miterlimit="10"/>
<path fill-rule="evenodd" clip-rule="evenodd" d="M345.351 155.917V321.569V694.926H358.202V693.678" fill="#FF88B6"/>
<path d="M345.351 155.917V321.569V694.926H358.202V693.678" stroke="black" stroke-miterlimit="10"/>
<path fill-rule="evenodd" clip-rule="evenodd" d="M352.202 155.917V321.569V694.926H365.053V693.678" fill="#FF88B6"/>
<path d="M352.202 155.917V321.569V694.926H365.053V693.678" stroke="black" stroke-miterlimit="10"/>
<path fill-rule="evenodd" clip-rule="evenodd" d="M359.053 155.917V321.569V694.926H371.904V693.678" fill="#FF88B6"/>
<path d="M359.053 155.917V321.569V694.926H371.904V693.678" stroke="black" stroke-miterlimit="10"/>
<path fill-rule="evenodd" clip-rule="evenodd" d="M365.904 155.917V321.569V694.926H378.755V693.678" fill="#FF88B6"/>
<path d="M365.904 155.917V321.569V694.926H378.755V693.678" stroke="black" stroke-miterlimit="10"/>
<path fill-rule="evenodd" clip-rule="evenodd" d="M372.755 155.917V321.569V694.926H385.607V693.678" fill="#FF88B6"/>
<path d="M372.755 155.917V321.569V694.926H385.607V693.678" stroke="black" stroke-miterlimit="10"/>
<path fill-rule="evenodd" clip-rule="evenodd" d="M379.606 155.917V321.569V694.926H392.458V693.678" fill="#FF88B6"/>
<path d="M379.606 155.917V321.569V694.926H392.458V693.678" stroke="black" stroke-miterlimit="10"/>
<path fill-rule="evenodd" clip-rule="evenodd" d="M386.458 155.917V321.569V694.926H399.309V693.678" fill="#FF88B6"/>
<path d="M386.458 155.917V321.569V694.926H399.309V693.678" stroke="black" stroke-miterlimit="10"/>
</g>
<path d="M236.535 589.656C256.11 593.444 280.53 578.428 289.643 560.236C298.756 542.067 299.928 520.927 301.056 500.535C302.184 480.121 303.666 458.958 313.266 441.061C335.23 400.119 393.204 387.213 408.333 343.14L409.107 343.549C401.874 372.537 397.429 402.251 395.836 432.147C381.746 438.861 354.894 452.97 343.502 464.266C317.822 489.716 325.254 533.947 309.66 566.882C297.097 593.421 268.165 597.164 241.246 611C241.556 603.673 236.203 597.005 236.535 589.656Z" stroke="black" stroke-miterlimit="10"/>
<path fill-rule="evenodd" clip-rule="evenodd" d="M308.21 463.686C302.711 454.432 292.982 447.757 282.333 445.942C273.253 444.386 262.372 447.286 258.722 455.654C256.891 459.836 257.021 464.992 253.923 468.351C250.963 471.563 245.653 472.378 243.613 476.242C242.163 478.97 242.95 482.468 244.785 484.978C246.621 487.489 249.342 489.196 252.057 490.739C255.6 492.757 259.428 494.631 263.498 494.564C266.235 494.523 268.872 493.594 271.588 493.251C274.969 492.828 278.473 493.315 281.62 494.674C285.863 496.505 289.466 499.854 293.973 500.873C302.373 502.784 310.636 495.38 312.46 487.039C314.298 478.703 311.854 469.805 308.21 463.686Z" fill="#56B381" stroke="black" stroke-miterlimit="10"/>
<path fill-rule="evenodd" clip-rule="evenodd" d="M-22.0133 517.761C-6.05563 513.09 12.2261 519.039 24.8777 527.774C37.5292 536.509 46.5801 547.849 58.5442 557.124C65.1564 562.254 72.636 566.711 80.754 570.399C108.414 582.935 142.26 585.656 174.225 582.689C206.189 579.723 236.828 571.431 267.139 563.139C279.48 559.763 292.066 556.272 302.279 550.029C327.467 534.64 332.443 506.634 354.047 488.394C370.365 474.612 396.028 467.614 419.138 472.613C423.017 539.688 426.912 606.796 425.848 673.937C425.112 720.658 422.002 767.625 430.415 813.905C430.988 817.035 431.577 820.378 429.891 823.278C426.536 829.08 409.831 844.82 401.5 845C275.95 847.688 162.55 855.901 37 853C18.0472 852.558 -7.39771 831.554 -23.7482 824.278C-29.3784 821.771 -34.5503 818.411 -37.4963 813.987C-40.1477 809.988 -40.8024 805.416 -41.2279 800.942C-45.9252 750.992 -27.5125 701.124 -30.9496 651.108C-32.5044 628.542 -38.4947 606.222 -39.7058 583.64C-40.917 561.041 -36.8744 537.377 -22.0133 517.761Z" fill="white" stroke="black" stroke-miterlimit="10"/>
<path fill-rule="evenodd" clip-rule="evenodd" d="M233.555 540.876C234.18 535.767 234.719 535.141 233.663 531.131C232.671 527.401 230.903 523.974 229.933 520.222C228.984 516.579 227.54 513.431 223.982 511.62C220.425 509.787 218.226 506.575 214.949 504.613C211.974 502.824 209.214 500.56 206.088 499.158C201.56 497.132 196.559 496.83 191.686 495.946C186.318 494.976 181.855 496.571 177.888 500.107C175.818 501.961 173.49 503.6 171.7 505.691C168.876 508.968 165.319 511.792 164.305 516.471C162.322 525.612 152.491 528.717 153.202 539.302C153.569 544.649 154.561 548.94 158.183 552.734C158.937 553.532 159.584 554.674 159.713 555.731C160.834 563.6 165.771 569.421 171.097 574.401C176.508 579.446 183.537 582.249 191.082 583.068C195.071 583.521 199.124 584.233 203.091 583.974C209.106 583.586 214.863 581.516 219.39 577.549C221.719 575.523 224.737 574.078 226.613 571.577C228.79 568.645 227.863 565.39 229.351 562.285C230.429 560 232.003 558.253 232.736 555.731C234.072 551.397 233.706 546.59 233.555 540.876Z" fill="#33B2C1" stroke="black" stroke-miterlimit="10"/>
<path fill-rule="evenodd" clip-rule="evenodd" d="M183.817 529.73C183.989 535.077 193.605 534.387 191.901 528.975L183.817 529.73Z" fill="#33B2C1"/>
<path d="M183.817 529.73C183.989 535.077 193.605 534.387 191.901 528.975" stroke="black" stroke-miterlimit="10" stroke-linecap="round" stroke-linejoin="round"/>
<path fill-rule="evenodd" clip-rule="evenodd" d="M195.632 528.846C195.826 530.441 196.947 531.908 198.456 532.49C199.965 533.072 201.776 532.727 202.983 531.67C204.191 530.592 204.751 528.846 204.363 527.272" fill="#33B2C1"/>
<path d="M195.632 528.846C195.826 530.441 196.947 531.908 198.456 532.49C199.965 533.072 201.776 532.727 202.983 531.67C204.191 530.592 204.751 528.846 204.363 527.272" stroke="black" stroke-miterlimit="10" stroke-linecap="round" stroke-linejoin="round"/>
<path fill-rule="evenodd" clip-rule="evenodd" d="M178.039 536.413C179.29 539.389 181.877 541.674 184.787 543.075C187.698 544.477 190.953 545.037 194.166 545.253C196.063 545.382 197.982 545.382 199.879 545.037C206.541 543.83 212.06 537.901 212.772 531.174" fill="#33B2C1"/>
<path d="M178.039 536.413C179.29 539.389 181.877 541.674 184.787 543.075C187.698 544.477 190.953 545.037 194.166 545.253C196.063 545.382 197.982 545.382 199.879 545.037C206.541 543.83 212.06 537.901 212.772 531.174" stroke="black" stroke-miterlimit="10" stroke-linecap="round" stroke-linejoin="round"/>
<path d="M212.684 503.3C211.758 502.211 211.873 500.664 211.843 499.249C211.802 496.584 211.086 493.985 210.374 491.418C209.762 489.235 208.997 486.823 206.863 485.718C206.073 485.304 205.186 485.117 204.368 484.756C203.549 484.395 202.789 483.78 202.687 482.952C202.643 482.594 202.723 482.222 202.77 481.87C203.373 477.707 200.514 473.938 197.867 470.571C197.418 470 196.977 469.197 197.487 468.656C197.662 468.469 197.902 468.374 198.124 468.28C200.084 467.528 202.467 467.003 203.402 465.239C203.62 464.817 203.757 464.322 204.194 464.07C204.564 463.86 205.035 463.884 205.457 463.947C209.277 464.416 213.485 465.398 216.757 463.461C217.655 463.153 218.018 462.597 217.734 462.187C217.623 462.019 217.414 461.929 217.223 461.838C216.479 461.501 215.735 461.164 214.992 460.827C213.315 460.077 211.619 459.313 209.783 458.88C207.634 458.387 205.269 458.332 203.472 457.185C202.37 454.964 199.586 453.707 196.843 453.502C194.099 453.296 191.371 453.945 188.698 454.604C187.266 454.962 185.747 455.347 184.675 456.287C183.018 457.745 182.802 460.079 181.504 461.822C180.128 463.657 177.632 464.723 176.658 466.755C176.142 467.825 176.128 469.03 175.983 470.185C175.648 472.584 174.634 474.869 173.633 477.119C172.748 478.119 172.021 480.104 171.989 481.889C171.957 483.673 172.478 485.422 172.428 487.209C172.371 489.376 171.493 491.446 170.57 493.456C170.103 494.486 169.602 495.537 169.595 496.643C169.6 497.12 169.677 497.605 169.665 498.085C169.579 499.728 168.161 501.073 167.728 502.676C167.3 504.312 168.026 506.118 168.851 507.55C163.892 507.485 158.867 508.78 154.613 511.217C154.143 511.489 153.645 511.831 153.561 512.319C153.472 512.907 154.016 513.384 154.541 513.699C156.017 514.572 157.776 514.965 159.524 515.277C164.4 516.127 169.378 516.354 174.36 516.317C192.938 516.17 211.503 512.266 228.584 505.231C228.96 505.07 229.37 504.887 229.505 504.524C229.772 503.766 228.6 503.317 227.749 503.273C222.541 502.943 217.276 503.015 212.684 503.3Z" fill="#A37D65"/>
<path d="M212.684 503.3C211.758 502.211 211.873 500.664 211.843 499.249C211.802 496.584 211.086 493.985 210.374 491.418C209.762 489.235 208.997 486.823 206.863 485.718C206.073 485.304 205.186 485.117 204.368 484.756C203.549 484.395 202.789 483.78 202.687 482.952C202.643 482.594 202.723 482.222 202.77 481.87C203.373 477.707 200.514 473.938 197.867 470.571C197.418 470 196.977 469.197 197.487 468.656C197.662 468.469 197.902 468.374 198.124 468.28C200.084 467.528 202.467 467.003 203.402 465.239C203.62 464.817 203.757 464.322 204.194 464.07C204.564 463.86 205.035 463.884 205.457 463.947C209.277 464.416 213.485 465.398 216.757 463.461C217.655 463.153 218.018 462.597 217.734 462.187C217.623 462.019 217.414 461.929 217.223 461.838C216.479 461.501 215.735 461.164 214.992 460.827C213.315 460.077 211.619 459.313 209.783 458.88C207.634 458.387 205.269 458.332 203.472 457.185C202.37 454.964 199.586 453.707 196.843 453.502C194.099 453.296 191.371 453.945 188.698 454.604C187.266 454.962 185.747 455.347 184.675 456.287C183.018 457.745 182.802 460.079 181.504 461.822C180.128 463.657 177.632 464.723 176.658 466.755C176.142 467.825 176.128 469.03 175.983 470.185C175.648 472.584 174.634 474.869 173.633 477.119C172.748 478.119 172.021 480.104 171.989 481.889C171.957 483.673 172.478 485.422 172.428 487.209C172.371 489.376 171.493 491.446 170.57 493.456C170.103 494.486 169.602 495.537 169.595 496.643C169.6 497.12 169.677 497.605 169.665 498.085C169.579 499.728 168.161 501.073 167.728 502.676C167.3 504.311 168.026 506.118 168.851 507.55C163.892 507.485 158.867 508.78 154.613 511.217C154.143 511.489 153.645 511.831 153.561 512.319C153.472 512.907 154.016 513.384 154.541 513.699C156.017 514.572 157.776 514.965 159.524 515.277C164.4 516.127 169.378 516.354 174.36 516.317C192.938 516.17 211.503 512.266 228.584 505.231C228.96 505.07 229.37 504.887 229.505 504.524C229.772 503.766 228.6 503.317 227.749 503.273C222.541 502.943 217.276 503.015 212.684 503.3Z" stroke="#120000" stroke-miterlimit="10" stroke-linecap="round" stroke-linejoin="round"/>
<path d="M197.36 468.655C194.806 467.651 192.179 466.639 189.529 466.9C189.137 466.932 188.733 467.015 188.382 467.239C188.05 467.462 187.779 467.891 187.799 468.35C187.82 468.809 188.122 469.217 188.489 469.419C188.856 469.621 189.272 469.636 189.678 469.569" stroke="#120000" stroke-miterlimit="10" stroke-linecap="round" stroke-linejoin="round"/>
<path d="M175.207 481.855C178.589 483.004 181.955 484.172 185.337 485.321C186.765 485.805 188.285 486.31 189.779 486.01C190.746 485.825 191.618 485.306 192.395 484.748C194.942 482.917 196.876 480.354 197.843 477.531C198.044 476.979 198.205 476.382 198.598 475.922C198.991 475.461 199.712 475.174 200.282 475.417C200.415 475.615 200.527 475.799 200.66 475.997" stroke="#120000" stroke-miterlimit="10" stroke-linecap="round" stroke-linejoin="round"/>
<path d="M176.337 479.193C180.263 480.671 184.21 482.163 188.136 483.641C188.533 483.79 188.947 483.936 189.392 483.898C189.747 483.854 190.068 483.683 190.369 483.497C192.766 482.064 194.64 479.888 195.615 477.427C196.249 475.848 196.571 474.077 197.883 472.893" stroke="#120000" stroke-miterlimit="10" stroke-linecap="round" stroke-linejoin="round"/>
<path d="M197.676 479.827C198.394 479.376 199.172 478.967 199.957 478.622C201.589 479.443 202.613 481.18 202.484 482.911C202.342 484.676 201.125 486.343 201.359 488.094" stroke="#120000" stroke-miterlimit="10" stroke-linecap="round" stroke-linejoin="round"/>
<path d="M177.548 482.885C176.84 482.989 176.084 483.132 175.624 483.633C175.417 483.857 175.288 484.12 175.176 484.381C174.654 485.55 174.284 486.783 174.097 488.042" stroke="#120000" stroke-miterlimit="10" stroke-linecap="round" stroke-linejoin="round"/>
<path d="M171.904 496.539C176.58 494.166 181.274 491.79 185.95 489.417C186.984 488.894 188.035 488.369 189.19 488.243C191.517 487.989 193.581 489.4 195.703 490.259C199.36 491.737 203.772 491.606 207.379 489.908" stroke="#120000" stroke-miterlimit="10" stroke-linecap="round" stroke-linejoin="round"/>
<path d="M171.755 495.041C175.243 492.814 178.861 490.769 182.575 488.91C185.388 487.491 188.572 486.159 191.67 486.75C194.122 487.222 196.141 488.853 198.608 489.291C200.889 489.686 203.388 488.932 204.993 487.35" stroke="#120000" stroke-miterlimit="10" stroke-linecap="round" stroke-linejoin="round"/>
<path d="M210.589 496.09C209.881 496.771 209.112 497.393 208.279 497.941C207.897 498.203 207.476 498.436 207.019 498.525C206.069 498.708 205.142 498.196 204.17 498.052C202.595 497.834 201.089 498.613 199.64 499.27C194.727 501.475 189.118 502.265 183.766 501.49C181.859 501.214 179.911 500.746 178.01 501.095C175.528 501.55 173.564 503.292 171.35 504.455C171.118 504.039 170.885 503.606 170.742 503.327C171.577 501.921 173.273 501.218 174.838 500.629C176.333 500.049 177.83 499.485 179.39 499.145C183.753 498.178 188.323 499.033 192.79 498.614C197.647 498.147 202.444 496.171 210.589 496.09Z" stroke="#120000" stroke-miterlimit="10" stroke-linecap="round" stroke-linejoin="round"/>
<path d="M172.325 506.379C173.259 505.489 174.227 504.579 175.442 504.066C176.622 503.558 177.958 503.443 179.237 503.599C180.514 503.738 181.749 504.113 182.936 504.544" stroke="#120000" stroke-miterlimit="10" stroke-linecap="round" stroke-linejoin="round"/>
<path d="M197.729 504.946C200.763 503.121 204.018 501.632 207.407 500.505" stroke="#120000" stroke-miterlimit="10" stroke-linecap="round" stroke-linejoin="round"/>
</g>
<rect x="75" y="304" width="228" height="7" fill="#FFF58C"/>
<path d="M102.925 233.58H78.8349V244.866H102.925V233.58ZM99.6579 242.16H82.1019V236.286H99.6579V242.16ZM76.8219 247.704V250.476H89.2299V255.327H92.5299V250.476H104.971V247.704H76.8219ZM82.1019 252.885H78.8019V261.102H103.552V258.297H82.1019V252.885ZM127.045 236.517H119.158V232.953H115.825V236.517H107.938V239.388H127.045V236.517ZM137.539 244.404H133.645V233.25H130.378V261.432H133.645V247.539H137.539V244.404ZM119.125 252.687C123.184 252.258 125.692 250.146 125.692 246.945C125.692 243.348 122.524 241.104 117.541 241.104C112.558 241.104 109.39 243.348 109.39 246.945C109.39 250.113 111.865 252.225 115.858 252.654V256.845H108.07V259.749H118.828C122.788 259.749 126.253 259.353 128.035 258.561V255.591C126.088 256.482 122.854 256.812 119.125 256.845V252.687ZM112.492 246.945C112.492 245.163 114.208 243.777 117.541 243.777C120.874 243.777 122.59 245.163 122.59 246.945C122.59 248.727 120.874 250.08 117.541 250.08C114.208 250.08 112.492 248.727 112.492 246.945ZM155.026 257.043V250.212H165.949V247.176H144.499V237.309H165.619V234.273H141.166V250.212H151.693V257.043H139.318V260.079H167.467V257.043H155.026ZM193.6 233.25V261.432H196.867V233.25H193.6ZM183.172 234.075L179.839 233.943C179.806 245.79 176.704 255.558 171.061 256.449V259.749C175.516 259.419 178.948 255.657 181.027 249.453L188.518 259.683L191.158 257.802L182.05 245.658C182.776 242.292 183.139 238.398 183.172 234.075ZM233.702 261.432H236.969V233.25H233.702V261.432ZM220.238 251.598C225.287 251.598 228.95 247.968 228.95 242.721C228.95 237.474 225.287 233.844 220.238 233.844C215.156 233.844 211.526 237.474 211.526 242.721C211.526 247.968 215.156 251.598 220.238 251.598ZM220.238 248.628C216.872 248.628 214.727 246.087 214.727 242.721C214.727 239.355 216.872 236.781 220.238 236.781C223.571 236.781 225.749 239.355 225.749 242.721C225.749 246.087 223.571 248.628 220.238 248.628ZM210.569 259.749H221.888C225.947 259.749 229.445 259.254 231.326 258.396V255.36C229.412 256.251 225.947 256.68 222.086 256.68H210.569V259.749ZM259.604 238.563V241.401H265.082V249.09H268.349V233.25H265.082V238.563H259.604ZM251.75 242.688L260.033 248.001L261.65 245.559L252.971 240.081C253.301 239.025 253.532 237.936 253.598 236.781H260.726V233.976H242.741V236.781H250.331C249.935 241.368 247.031 244.701 242.378 245.328V248.265C246.536 247.869 249.803 245.757 251.75 242.688ZM256.403 250.014C249.572 250.014 244.226 251.598 244.226 255.723C244.226 259.848 249.572 261.432 256.403 261.432C263.234 261.432 268.58 259.848 268.58 255.723C268.58 251.598 263.234 250.014 256.403 250.014ZM256.403 258.759C251.552 258.759 247.691 257.802 247.691 255.723C247.691 253.644 251.552 252.687 256.403 252.687C261.254 252.687 265.115 253.644 265.115 255.723C265.115 257.802 261.254 258.759 256.403 258.759ZM299.234 233.745H296V237.705H278.246V233.745H275.012V248.199H299.234V233.745ZM278.246 245.295V240.609H296V245.295H278.246ZM301.214 251.202H273.065V254.238H285.44V262.092H288.806V254.238H301.214V251.202ZM106.291 290.668H102.331V279.25H99.0639V307.432H102.331V293.803H106.291V290.668ZM78.1419 305.749H93.8169V280.273H78.1419V305.749ZM81.4089 283.309H90.5499V302.713H81.4089V283.309ZM131.335 279.25V284.992H125.692V279.745H122.491V283.639H112.426V279.745H109.225V293.341H125.692V288.061H131.335V294.166H134.602V279.25H131.335ZM112.426 290.668V286.246H122.491V290.668H112.426ZM131.368 298.522H113.845V295.717H110.611V307.069H134.602V295.717H131.368V298.522ZM113.845 304.429V301.129H131.368V304.429H113.845ZM155.026 303.01V296.245H165.586V280.273H141.166V296.245H151.693V303.01H139.318V306.079H167.467V303.01H155.026ZM144.433 283.342H162.319V293.209H144.433V283.342ZM200.035 290.668H196.075V279.25H192.808V307.432H196.075V293.803H200.035V290.668ZM182.182 283.276H189.277V280.273H171.556V283.276H178.882C178.783 293.737 175.879 301.591 170.896 302.515V305.749C175.153 305.254 178.453 301.756 180.367 295.915L187.792 305.518L190.366 303.571L181.324 292.219C181.852 289.579 182.149 286.576 182.182 283.276ZM234.56 279.25V307.432H237.662V279.25H234.56ZM227.762 290.998H223.868V294.001H227.762V306.937H230.864V279.415H227.762V290.998ZM214.562 302.845V294.232H222.383V291.328H214.562V283.177H223.769V280.273H211.427V305.749H216.839C220.304 305.749 223.307 305.32 225.155 304.495V301.558C223.076 302.449 220.403 302.845 217.004 302.845H214.562ZM255.512 288.721L267.557 297.07L269.339 294.463L256.931 286.114C257.855 284.233 258.515 282.154 258.911 279.976L255.545 279.382C254.093 287.269 248.483 293.869 242.378 293.869V296.971C247.559 296.971 252.344 293.704 255.512 288.721ZM241.817 303.01V306.079H269.966V303.01H241.817ZM299.795 295.354H278.213V290.701H299.003V287.83H278.213V283.21H299.366V280.273H274.946V298.291H299.795V295.354ZM273.065 303.076V306.079H301.214V303.076H273.065Z" fill="#161616"/>
<path d="M156.728 214.372C156.744 214.707 156.547 214.996 156.262 214.996C144.867 215.005 133.463 214.996 122.068 214.996C104.038 214.996 86.0089 214.996 67.9717 214.996C61.9948 214.996 33.86 214.996 25.497 214.996C24.1106 214.996 23.0329 214.031 23.0115 212.645C22.9168 206.483 23.4449 191 23.1472 191C32.8371 191 105.231 191 111.801 191C126.091 191 140.38 191 154.67 191C156.01 191 157.002 191.918 157 193.258C156.992 198.581 156.62 211.54 156.728 214.372Z" fill="white" stroke="black" stroke-miterlimit="10" stroke-linecap="round" stroke-linejoin="round"/>
<path d="M41.2444 202.213V201.173H39.7364L40.2564 198.339H39.0994L38.5794 201.173H36.6164L37.1364 198.339H35.9794L35.4594 201.173H33.7824V202.213H35.2644L34.7834 204.878H33.0804V205.918H34.5884L34.0684 208.752H35.2254L35.7454 205.918H37.7084L37.1884 208.752H38.3454L38.8654 205.918H40.5424V204.878H39.0604L39.5414 202.213H41.2444ZM37.9034 204.878H35.9404L36.4214 202.213H38.3844L37.9034 204.878ZM42.8949 198.339V208.752H44.2599V201.069L47.6139 206.997H48.6019L51.9559 201.069V208.752H53.3209V198.339H52.1249L48.1079 205.411L44.0909 198.339H42.8949ZM55.5394 198.339V208.752H60.1804C62.5204 208.752 63.8854 207.608 63.8854 205.814C63.8854 204.527 62.9624 203.604 61.7794 203.37C62.7154 203.149 63.3914 202.2 63.3914 201.225C63.3914 199.444 62.0914 198.339 59.7904 198.339H55.5394ZM59.7514 202.928H56.9044V199.522H59.7514C61.1944 199.522 62.0134 200.12 62.0134 201.225C62.0134 202.33 61.1944 202.928 59.7514 202.928ZM60.1414 207.569H56.9044V204.059H60.1414C61.5974 204.059 62.5074 204.67 62.5074 205.814C62.5074 206.958 61.5974 207.569 60.1414 207.569ZM73.5435 199.561V198.339H64.7035V199.561H68.4475V208.752H69.8125V199.561H73.5435ZM76.5186 198.339H75.1536V208.752H76.5186V198.339ZM87.5211 203.487H88.8081V197.923H87.5211V198.924H85.7141V199.99H87.5211V201.16H85.7141V202.226H87.5211V203.487ZM85.1421 198.118H83.8941V199.496H80.0721V198.118H78.8111V203.084H85.1421V198.118ZM80.0721 202.044V200.523H83.8941V202.044H80.0721ZM80.6311 207.881V206.958H88.8081V204.098H79.3311V205.099H87.5341V206.009H79.3571V208.882H89.0811V207.881H80.6311ZM106.114 202.421H104.554V197.923H103.267V209.025H104.554V203.656H106.114V202.421ZM99.3016 198.248L97.9886 198.196C97.9756 202.863 96.8186 206.711 94.5956 207.062V208.362C96.3246 208.232 97.6636 206.789 98.4566 204.371L101.317 208.336L102.357 207.595L98.8596 202.863C99.1456 201.524 99.2886 199.977 99.3016 198.248ZM116.174 197.923V200.146H113.886C113.574 198.885 112.339 198.053 110.545 198.053C108.439 198.053 107.113 199.184 107.113 200.796C107.113 202.408 108.439 203.539 110.545 203.539C112.391 203.539 113.639 202.655 113.912 201.342H116.174V203.617H117.461V197.923H116.174ZM110.545 202.473C109.271 202.473 108.4 201.836 108.4 200.796C108.4 199.756 109.271 199.119 110.545 199.119C111.819 199.119 112.677 199.756 112.677 200.796C112.677 201.836 111.819 202.473 110.545 202.473ZM116.187 205.398H109.401V204.228H108.14V208.882H117.461V204.228H116.187V205.398ZM109.401 207.829V206.425H116.187V207.829H109.401ZM128.397 202.031L133.454 203.955L133.896 202.837L129.06 201.056C129.203 200.744 129.32 200.419 129.385 200.081H133.597V198.911H129.333V197.65H128.007V198.911H123.795V200.081H127.994C127.539 201.602 125.849 202.681 123.509 202.85V204.033C125.628 203.916 127.357 203.188 128.397 202.031ZM134.247 205.099H123.158V206.295H128.033V209.285H129.346V206.295H134.247V205.099ZM139.511 202.59L142.67 204.774L143.333 203.799L139.992 201.537C140.135 201.121 140.213 200.666 140.252 200.185H143.138V199.08H140.239V197.728H138.939V199.08H136.001V200.185H138.952C138.783 202.109 137.652 203.422 135.884 203.695V204.839C137.47 204.67 138.744 203.838 139.511 202.59ZM142.696 200.965V202.148H144.828V206.204H146.115V197.923H144.828V200.965H142.696ZM137.977 207.738V205.749H136.664V208.882H146.349V207.738H137.977Z" fill="black"/>
<path d="M362.661 347.372C362.681 347.707 362.435 347.996 362.081 347.996C347.879 348.005 333.667 347.996 319.465 347.996C296.995 347.996 274.526 347.996 252.047 347.996C244.419 347.996 207.832 347.996 198.403 347.996C197.079 347.996 196.045 347.098 196.017 345.774C195.887 339.702 196.557 324 196.183 324C208.26 324 298.482 324 306.67 324C324.713 324 342.757 324 360.8 324C362.069 324 363 324.839 363 326.108C362.999 331.334 362.525 344.513 362.661 347.372Z" fill="white" stroke="black" stroke-miterlimit="10" stroke-linecap="round" stroke-linejoin="round"/>
<path d="M210.978 335.54V334.5H209.47L209.99 331.666H208.833L208.313 334.5H206.35L206.87 331.666H205.713L205.193 334.5H203.516V335.54H204.998L204.517 338.205H202.814V339.245H204.322L203.802 342.079H204.959L205.479 339.245H207.442L206.922 342.079H208.079L208.599 339.245H210.276V338.205H208.794L209.275 335.54H210.978ZM207.637 338.205H205.674L206.155 335.54H208.118L207.637 338.205ZM221.39 331.25V335.761H218.946V331.653H212.81V341.689H218.946V336.97H221.39V342.352H222.677V331.25H221.39ZM217.659 340.493H214.097V332.849H217.659V340.493ZM235.013 331.38H225.523V334.981H235.013V331.38ZM233.739 333.993H226.81V332.368H233.739V333.993ZM235.819 336.827V335.826H224.73V336.827H229.631V337.828H225.471V338.79H233.791V339.57H225.497V342.222H235.247V341.26H226.758V340.48H235.052V337.828H230.905V336.827H235.819ZM246.244 338.972H247.583V331.64H237.911V332.849H246.244V338.972ZM242.695 340.61V335.657H241.369V340.61H237.235V341.819H248.324V340.61H242.695ZM263.744 331.25H262.457V337.139H263.744V331.25ZM257.322 334.617L260.702 336.762L261.365 335.813L257.842 333.642C258.128 332.966 258.271 332.225 258.271 331.432L256.984 331.354C256.971 333.551 255.658 335.345 253.552 335.722V336.892C255.177 336.671 256.49 335.839 257.322 334.617ZM261.898 341.182V338.829H263.848V337.776H254.293V338.829H256.243V341.182H254.163V342.248H263.978V341.182H261.898ZM257.53 338.829H260.611V341.182H257.53V338.829ZM271.426 336.034C274.117 336.034 276.353 335.254 276.353 333.603C276.353 331.965 274.117 331.185 271.426 331.185C268.735 331.185 266.499 331.965 266.499 333.603C266.499 335.254 268.735 336.034 271.426 336.034ZM271.426 334.994C269.489 334.994 267.864 334.513 267.864 333.603C267.864 332.706 269.489 332.225 271.426 332.225C273.363 332.225 274.988 332.706 274.988 333.603C274.988 334.513 273.363 334.994 271.426 334.994ZM265.888 338.114H276.977V337.022H265.888V338.114ZM266.655 342.222H276.405V341.117H267.968V339.063H266.655V342.222ZM288.225 340.623V337.932H292.528V336.736H284.078V332.849H292.398V331.653H282.765V337.932H286.912V340.623H282.037V341.819H293.126V340.623H288.225ZM303.616 331.25V342.352H304.903V331.25H303.616ZM299.508 331.575L298.195 331.523C298.182 336.19 296.96 340.038 294.737 340.389V341.689C296.492 341.559 297.844 340.077 298.663 337.633L301.614 341.663L302.654 340.922L299.066 336.138C299.352 334.812 299.495 333.278 299.508 331.575ZM318.672 335.54V334.5H317.164L317.684 331.666H316.527L316.007 334.5H314.044L314.564 331.666H313.407L312.887 334.5H311.21V335.54H312.692L312.211 338.205H310.508V339.245H312.016L311.496 342.079H312.653L313.173 339.245H315.136L314.616 342.079H315.773L316.293 339.245H317.97V338.205H316.488L316.969 335.54H318.672ZM315.331 338.205H313.368L313.849 335.54H315.812L315.331 338.205ZM329.033 342.352H330.32V331.25H329.033V342.352ZM323.729 338.478C325.718 338.478 327.161 337.048 327.161 334.981C327.161 332.914 325.718 331.484 323.729 331.484C321.727 331.484 320.297 332.914 320.297 334.981C320.297 337.048 321.727 338.478 323.729 338.478ZM323.729 337.308C322.403 337.308 321.558 336.307 321.558 334.981C321.558 333.655 322.403 332.641 323.729 332.641C325.042 332.641 325.9 333.655 325.9 334.981C325.9 336.307 325.042 337.308 323.729 337.308ZM319.92 341.689H324.379C325.978 341.689 327.356 341.494 328.097 341.156V339.96C327.343 340.311 325.978 340.48 324.457 340.48H319.92V341.689ZM339.431 333.343V334.461H341.589V337.49H342.876V331.25H341.589V333.343H339.431ZM336.337 334.968L339.6 337.061L340.237 336.099L336.818 333.941C336.948 333.525 337.039 333.096 337.065 332.641H339.873V331.536H332.788V332.641H335.778C335.622 334.448 334.478 335.761 332.645 336.008V337.165C334.283 337.009 335.57 336.177 336.337 334.968ZM338.17 337.854C335.479 337.854 333.373 338.478 333.373 340.103C333.373 341.728 335.479 342.352 338.17 342.352C340.861 342.352 342.967 341.728 342.967 340.103C342.967 338.478 340.861 337.854 338.17 337.854ZM338.17 341.299C336.259 341.299 334.738 340.922 334.738 340.103C334.738 339.284 336.259 338.907 338.17 338.907C340.081 338.907 341.602 339.284 341.602 340.103C341.602 340.922 340.081 341.299 338.17 341.299ZM355.238 331.445H353.964V333.005H346.97V331.445H345.696V337.139H355.238V331.445ZM346.97 335.995V334.149H353.964V335.995H346.97ZM356.018 338.322H344.929V339.518H349.804V342.612H351.13V339.518H356.018V338.322Z" fill="black"/>
</svg>
