<svg width="390" height="669" viewBox="0 0 390 669" fill="none" xmlns="http://www.w3.org/2000/svg">
<path fill-rule="evenodd" clip-rule="evenodd" d="M168.692 499L131.385 483.505L93.6154 461.453L51.359 428.134L13.1538 383.094L-9 328.9V282.174L8.89744 237.776L12.4872 191.986C12.4872 191.986 -6.76923 130.166 -5.87179 120.504C-4.97436 110.843 11.1282 65.8296 11.1282 65.8296L85.4359 -32.2801L177 -36C124.359 32.6446 67.0256 113.921 45.5385 198.944C24.0513 283.967 37.8205 383.816 99.6923 443.469C117.59 460.704 138.641 473.924 159.692 486.689L168.692 499Z" fill="#56B381" stroke="black" stroke-miterlimit="10"/>
<path fill-rule="evenodd" clip-rule="evenodd" d="M103.568 466.819C88.9845 471.686 72.5128 467.993 59.4483 459.845C46.4055 451.698 36.3575 439.51 27.7853 426.714C17.325 411.071 8.44893 392.973 10.2285 374.224C10.7927 368.402 12.5072 362.449 16.4786 358.147C20.4501 353.845 27.0474 351.651 32.3861 354.063C41.0885 357.995 41.3272 369.944 42.0434 379.482C42.6945 388.085 44.8212 396.58 48.3369 404.445C51.0931 410.636 57.9943 417.328 63.55 413.461C68.2159 410.224 66.4797 402.946 63.7887 397.949C61.0976 392.952 57.9075 386.76 61.0325 382.002C62.6602 378.439 68.4763 379.438 70.6248 382.697C72.7732 385.956 72.5779 390.171 73.012 394.06C73.446 397.949 75.1387 402.337 78.8932 403.38C83.9931 404.792 88.4203 398.47 87.5739 393.256C86.7275 388.042 82.7127 383.979 79.2621 379.981C64.2661 362.622 56.4317 339.246 57.9509 316.325C58.5151 307.873 61.2713 298.206 69.1056 294.968C77.4391 291.514 87.2267 297.793 90.9594 306.027C94.6921 314.261 94.0628 323.712 93.5853 332.728C92.8909 346.154 92.739 359.885 96.7538 372.703C100.378 384.261 107.171 394.516 112.965 405.162C118.759 415.807 123.664 427.517 122.926 439.619C122.21 451.742 114.072 463.3 103.568 466.819Z" fill="#FFF58C" stroke="black" stroke-miterlimit="10"/>
<path fill-rule="evenodd" clip-rule="evenodd" d="M159 492.624C111.553 472.027 66.9951 439.584 33.8672 398.87C20.5283 382.462 8.58258 364.507 1.33262 344.39C-5.91735 324.3 -8.1878 301.836 -2.25367 281.292C1.15201 269.5 7.08614 258.694 11.498 247.275C22.1795 219.582 23.4437 188.099 15.0327 159.578C12.0657 149.547 7.93756 139.809 6.10572 129.484C-0.0348194 94.6129 20.8637 61.0763 43.2844 34.2897C62.5832 11.2382 86.3713 -12.08 109.205 -31.3962L50.3795 -39C16.9936 -11.9199 -11.3355 21.7501 -32.6468 59.6889C-40.5417 73.7226 -47.5337 88.5566 -50.5266 104.511C-53.5194 120.439 -52.2036 137.701 -44.257 151.708C-35.459 167.236 -19.5659 177.401 -10.7679 192.928C-2.27947 207.949 -1.55705 227.372 -8.93602 243.033C-15.3604 256.667 -27.0738 266.832 -35.0204 279.585C-51.2748 305.678 -49.83 340.601 -37.2909 368.802C-24.7518 397.003 -2.61488 419.467 21.0185 438.57C60.0032 470.106 108.56 495.585 157.916 499" fill="#EBEBEB"/>
<path d="M159 492.624C111.553 472.027 66.9951 439.584 33.8672 398.87C20.5283 382.462 8.58258 364.507 1.33262 344.39C-5.91735 324.3 -8.1878 301.836 -2.25367 281.292C1.15201 269.5 7.08614 258.694 11.498 247.275C22.1795 219.582 23.4437 188.099 15.0327 159.578C12.0657 149.547 7.93756 139.809 6.10572 129.484C-0.0348194 94.6129 20.8637 61.0763 43.2844 34.2897C62.5832 11.2382 86.3713 -12.08 109.205 -31.3962L50.3795 -39C16.9936 -11.9199 -11.3355 21.7501 -32.6468 59.6889C-40.5417 73.7226 -47.5337 88.5566 -50.5266 104.511C-53.5194 120.439 -52.2036 137.701 -44.257 151.708C-35.459 167.236 -19.5659 177.401 -10.7679 192.928C-2.27947 207.949 -1.55705 227.372 -8.93602 243.033C-15.3604 256.667 -27.0738 266.832 -35.0204 279.585C-51.2748 305.678 -49.83 340.601 -37.2909 368.802C-24.7518 397.003 -2.61488 419.467 21.0185 438.57C60.0032 470.106 108.56 495.585 157.916 499" stroke="black" stroke-miterlimit="10"/>
<mask id="mask0_576_10834" style="mask-type:luminance" maskUnits="userSpaceOnUse" x="-53" y="-40" width="212" height="539">
<path d="M158.609 492.612C111.223 471.977 66.7216 439.474 33.6358 398.684C20.3139 382.246 8.38343 364.257 1.14269 344.103C-6.09805 323.975 -8.36562 301.469 -2.43904 280.887C0.962309 269.073 6.88889 258.248 11.2952 246.807C21.963 219.062 23.2257 187.521 14.8254 158.948C11.8621 148.897 7.73923 139.141 5.90972 128.797C-0.223009 93.8613 20.6489 60.2623 43.0411 33.4259C62.3153 10.3316 86.0732 -13.0299 108.878 -32.3821L50.1272 -40C16.7837 -12.8696 -11.5093 20.863 -32.7935 58.8724C-40.6784 72.9321 -47.6615 87.7937 -50.6505 103.778C-53.6396 119.735 -52.3254 137.029 -44.3889 151.062C-35.6021 166.619 -19.7292 176.803 -10.9424 192.359C-2.4648 207.408 -1.74331 226.867 -9.11289 242.557C-15.5291 256.216 -27.2276 266.4 -35.1641 279.177C-51.3978 305.318 -49.9548 340.307 -37.4317 368.56C-24.9085 396.813 -2.79978 419.319 20.8035 438.458C59.7386 470.052 108.233 495.579 157.527 499" fill="white"/>
</mask>
<g mask="url(#mask0_576_10834)">
<path d="M5.05542 -72.9843V122.221V562.189H20.0265V560.719" stroke="#4D4D4D" stroke-miterlimit="10"/>
<path d="M11.0266 -72.9843V122.221V562.189H25.9977V560.719" stroke="#494949" stroke-miterlimit="10"/>
<path d="M16.9978 -72.9843V122.221V562.189H31.9689V560.719" stroke="#464646" stroke-miterlimit="10"/>
<path d="M22.969 -72.9843V122.221V562.189H37.9401V560.719" stroke="#424242" stroke-miterlimit="10"/>
<path d="M28.9402 -72.9843V122.221V562.189H43.9113V560.719" stroke="#3E3E3E" stroke-miterlimit="10"/>
<path d="M34.9114 -72.9843V122.221V562.189H49.8824V560.719" stroke="#3B3B3B" stroke-miterlimit="10"/>
<path d="M40.8826 -72.9843V122.221V562.189H55.8536V560.719" stroke="#373737" stroke-miterlimit="10"/>
<path d="M46.8538 -72.9843V122.221V562.189H61.8248V560.718" stroke="#333333" stroke-miterlimit="10"/>
<path d="M52.8247 -72.9843V122.221V562.189H67.7958V560.719" stroke="#303030" stroke-miterlimit="10"/>
<path d="M58.7957 -72.9843V122.221V562.189H73.7667V560.719" stroke="#2C2C2C" stroke-miterlimit="10"/>
<path d="M64.7668 -72.9843V122.221V562.189H79.7379V560.719" stroke="#282828" stroke-miterlimit="10"/>
<path d="M70.7378 -72.9843V122.221V562.189H85.7089V560.719" stroke="#252525" stroke-miterlimit="10"/>
<path d="M76.709 -72.9843V122.221V562.189H91.6543V560.719" stroke="#212121" stroke-miterlimit="10"/>
<path d="M82.6543 -72.9843V122.221V562.189H97.5996V560.719" stroke="#1D1D1D" stroke-miterlimit="10"/>
<path d="M88.5996 -72.9843V122.221V562.189H103.571V560.719" stroke="#1A1A1A" stroke-miterlimit="10"/>
<path d="M94.5706 -72.9843V122.221V562.189H109.542V560.719" stroke="#161616" stroke-miterlimit="10"/>
<path d="M100.542 -72.9843V122.221V562.189H115.513V560.719" stroke="#121212" stroke-miterlimit="10"/>
<path d="M106.513 -72.9843V122.221V562.189H121.484V560.719" stroke="#0F0F0F" stroke-miterlimit="10"/>
<path d="M112.484 -72.9843V122.221V562.189H127.455V560.719" stroke="#0B0B0B" stroke-miterlimit="10"/>
<path d="M118.455 -72.9843V122.221V562.189H133.426V560.719" stroke="#070707" stroke-miterlimit="10"/>
<path d="M124.426 -72.9843V122.221V562.189H139.397V560.719" stroke="#040404" stroke-miterlimit="10"/>
<path d="M130.397 -72.9843V122.221V562.189H145.368V560.719" stroke="black" stroke-miterlimit="10"/>
</g>
<path d="M237.994 477.595C257.879 480.884 275.375 460.855 278.472 440.441C281.591 420.026 274.778 399.612 269.801 379.606C264.825 359.599 261.883 337.212 271.792 319.224C280.507 303.414 297.273 294.432 310.036 281.821C326.691 265.398 336.601 242.012 336.977 218.332C337.198 203.906 334.035 189.661 333.438 175.257C331.602 131.911 354.893 88.4054 391.566 66.7434L394.066 269.39L392.739 284.86L365.046 308.223L328.948 339.866L317.733 362.344L308.067 425.515L301.409 452.825L286.346 479.976L260.224 495.968L236.026 499.03L232 484.83L237.994 477.595Z" fill="#5A66FF"/>
<path d="M237.994 477.595C257.879 480.884 275.375 460.855 278.472 440.441C281.591 420.026 274.778 399.612 269.801 379.606C264.825 359.599 261.883 337.212 271.792 319.224C280.507 303.414 297.273 294.432 310.036 281.821C326.691 265.398 336.601 242.012 336.977 218.332C337.198 203.906 334.035 189.661 333.438 175.257C331.602 131.911 354.893 88.4054 391.566 66.7434L394.066 269.39L392.739 284.86L365.046 308.223L328.948 339.866L317.733 362.344L308.067 425.515L301.409 452.825L286.346 479.976L260.224 495.968L236.026 499.03L232 484.83L237.994 477.595Z" fill="#5A66FF" stroke="black" stroke-miterlimit="10"/>
<path d="M236.535 492.656C256.11 496.444 280.53 481.428 289.643 463.236C298.756 445.067 299.928 423.927 301.056 403.535C302.184 383.121 303.666 361.958 313.266 344.061C335.23 303.119 393.204 290.213 408.333 246.14L409.107 246.549C401.874 275.537 397.429 305.251 395.836 335.147C381.746 341.861 354.894 355.97 343.502 367.266C317.822 392.716 325.254 436.947 309.66 469.882C297.097 496.421 268.165 500.164 241.246 514C241.556 506.673 236.203 500.005 236.535 492.656Z" fill="#FF88B6"/>
<mask id="mask1_576_10834" style="mask-type:luminance" maskUnits="userSpaceOnUse" x="236" y="246" width="174" height="268">
<path d="M236.535 492.656C256.11 496.444 280.53 481.428 289.643 463.236C298.756 445.067 299.928 423.927 301.056 403.535C302.184 383.121 303.666 361.958 313.266 344.061C335.23 303.119 393.204 290.213 408.333 246.14L409.107 246.549C401.874 275.537 397.429 305.251 395.836 335.147C381.746 341.861 354.894 355.97 343.502 367.266C317.822 392.716 325.254 436.947 309.66 469.882C297.097 496.421 268.165 500.164 241.246 514C241.556 506.673 236.203 500.005 236.535 492.656Z" fill="white"/>
</mask>
<g mask="url(#mask1_576_10834)">
<path fill-rule="evenodd" clip-rule="evenodd" d="M256.309 58.9175V224.569V597.926H269.16V596.678" fill="#FF88B6"/>
<path d="M256.309 58.9175V224.569V597.926H269.16V596.678" stroke="black" stroke-miterlimit="10"/>
<path fill-rule="evenodd" clip-rule="evenodd" d="M263.16 58.9175V224.569V597.926H276.011V596.678" fill="#FF88B6"/>
<path d="M263.16 58.9175V224.569V597.926H276.011V596.678" stroke="black" stroke-miterlimit="10"/>
<path fill-rule="evenodd" clip-rule="evenodd" d="M270.011 58.9175V224.569V597.926H282.862V596.678" fill="#FF88B6"/>
<path d="M270.011 58.9175V224.569V597.926H282.862V596.678" stroke="black" stroke-miterlimit="10"/>
<path fill-rule="evenodd" clip-rule="evenodd" d="M276.862 58.9175V224.569V597.926H289.713V596.678" fill="#FF88B6"/>
<path d="M276.862 58.9175V224.569V597.926H289.713V596.678" stroke="black" stroke-miterlimit="10"/>
<path fill-rule="evenodd" clip-rule="evenodd" d="M283.713 58.9175V224.569V597.926H296.565V596.678" fill="#FF88B6"/>
<path d="M283.713 58.9175V224.569V597.926H296.565V596.678" stroke="black" stroke-miterlimit="10"/>
<path fill-rule="evenodd" clip-rule="evenodd" d="M290.564 58.9175V224.569V597.926H303.416V596.678" fill="#FF88B6"/>
<path d="M290.564 58.9175V224.569V597.926H303.416V596.678" stroke="black" stroke-miterlimit="10"/>
<path fill-rule="evenodd" clip-rule="evenodd" d="M297.416 58.9175V224.569V597.926H310.245V596.678" fill="#FF88B6"/>
<path d="M297.416 58.9175V224.569V597.926H310.245V596.678" stroke="black" stroke-miterlimit="10"/>
<path fill-rule="evenodd" clip-rule="evenodd" d="M304.245 58.9175V224.569V597.926H317.096V596.678" fill="#FF88B6"/>
<path d="M304.245 58.9175V224.569V597.926H317.096V596.678" stroke="black" stroke-miterlimit="10"/>
<path fill-rule="evenodd" clip-rule="evenodd" d="M311.096 58.9175V224.569V597.926H323.947V596.678" fill="#FF88B6"/>
<path d="M311.096 58.9175V224.569V597.926H323.947V596.678" stroke="black" stroke-miterlimit="10"/>
<path fill-rule="evenodd" clip-rule="evenodd" d="M317.947 58.9175V224.569V597.926H330.798V596.678" fill="#FF88B6"/>
<path d="M317.947 58.9175V224.569V597.926H330.798V596.678" stroke="black" stroke-miterlimit="10"/>
<path fill-rule="evenodd" clip-rule="evenodd" d="M324.798 58.9175V224.569V597.926H337.649V596.678" fill="#FF88B6"/>
<path d="M324.798 58.9175V224.569V597.926H337.649V596.678" stroke="black" stroke-miterlimit="10"/>
<path fill-rule="evenodd" clip-rule="evenodd" d="M331.649 58.9175V224.569V597.926H344.5V596.678" fill="#FF88B6"/>
<path d="M331.649 58.9175V224.569V597.926H344.5V596.678" stroke="black" stroke-miterlimit="10"/>
<path fill-rule="evenodd" clip-rule="evenodd" d="M338.5 58.9175V224.569V597.926H351.351V596.678" fill="#FF88B6"/>
<path d="M338.5 58.9175V224.569V597.926H351.351V596.678" stroke="black" stroke-miterlimit="10"/>
<path fill-rule="evenodd" clip-rule="evenodd" d="M345.351 58.9175V224.569V597.926H358.202V596.678" fill="#FF88B6"/>
<path d="M345.351 58.9175V224.569V597.926H358.202V596.678" stroke="black" stroke-miterlimit="10"/>
<path fill-rule="evenodd" clip-rule="evenodd" d="M352.202 58.9175V224.569V597.926H365.053V596.678" fill="#FF88B6"/>
<path d="M352.202 58.9175V224.569V597.926H365.053V596.678" stroke="black" stroke-miterlimit="10"/>
<path fill-rule="evenodd" clip-rule="evenodd" d="M359.053 58.9175V224.569V597.926H371.904V596.678" fill="#FF88B6"/>
<path d="M359.053 58.9175V224.569V597.926H371.904V596.678" stroke="black" stroke-miterlimit="10"/>
<path fill-rule="evenodd" clip-rule="evenodd" d="M365.904 58.9175V224.569V597.926H378.755V596.678" fill="#FF88B6"/>
<path d="M365.904 58.9175V224.569V597.926H378.755V596.678" stroke="black" stroke-miterlimit="10"/>
<path fill-rule="evenodd" clip-rule="evenodd" d="M372.755 58.9175V224.569V597.926H385.607V596.678" fill="#FF88B6"/>
<path d="M372.755 58.9175V224.569V597.926H385.607V596.678" stroke="black" stroke-miterlimit="10"/>
<path fill-rule="evenodd" clip-rule="evenodd" d="M379.606 58.9175V224.569V597.926H392.458V596.678" fill="#FF88B6"/>
<path d="M379.606 58.9175V224.569V597.926H392.458V596.678" stroke="black" stroke-miterlimit="10"/>
<path fill-rule="evenodd" clip-rule="evenodd" d="M386.458 58.9175V224.569V597.926H399.309V596.678" fill="#FF88B6"/>
<path d="M386.458 58.9175V224.569V597.926H399.309V596.678" stroke="black" stroke-miterlimit="10"/>
</g>
<path d="M236.535 492.656C256.11 496.444 280.53 481.428 289.643 463.236C298.756 445.067 299.928 423.927 301.056 403.535C302.184 383.121 303.666 361.958 313.266 344.061C335.23 303.119 393.204 290.213 408.333 246.14L409.107 246.549C401.874 275.537 397.429 305.251 395.836 335.147C381.746 341.861 354.894 355.97 343.502 367.266C317.822 392.716 325.254 436.947 309.66 469.882C297.097 496.421 268.165 500.164 241.246 514C241.556 506.673 236.203 500.005 236.535 492.656Z" stroke="black" stroke-miterlimit="10"/>
<path fill-rule="evenodd" clip-rule="evenodd" d="M308.21 366.686C302.711 357.432 292.982 350.757 282.333 348.942C273.253 347.386 262.372 350.286 258.722 358.654C256.891 362.836 257.021 367.992 253.923 371.351C250.963 374.563 245.653 375.378 243.613 379.242C242.163 381.97 242.95 385.468 244.785 387.978C246.621 390.489 249.342 392.196 252.057 393.739C255.6 395.757 259.428 397.631 263.498 397.564C266.235 397.523 268.872 396.594 271.588 396.251C274.969 395.828 278.473 396.315 281.62 397.674C285.863 399.505 289.466 402.854 293.973 403.873C302.373 405.784 310.636 398.38 312.46 390.039C314.298 381.703 311.854 372.805 308.21 366.686Z" fill="#56B381" stroke="black" stroke-miterlimit="10"/>
<path fill-rule="evenodd" clip-rule="evenodd" d="M-22.0133 420.761C-6.05563 416.09 12.2261 422.039 24.8777 430.774C37.5292 439.509 46.5801 450.849 58.5442 460.124C65.1564 465.254 72.636 469.711 80.754 473.399C108.414 485.935 142.26 488.656 174.225 485.689C206.189 482.723 236.828 474.431 267.139 466.139C279.48 462.763 292.066 459.272 302.279 453.029C327.467 437.64 332.443 409.634 354.047 391.394C370.365 377.612 396.028 370.614 419.138 375.613C423.017 442.688 426.912 509.796 425.848 576.937C425.112 623.658 422.002 670.625 430.415 716.905C430.988 720.035 431.577 723.378 429.891 726.278C426.536 732.08 416.454 733.079 408.123 733.26C282.573 735.947 156.925 738.651 31.3753 735.751C12.4225 735.308 -7.39771 734.554 -23.7482 727.278C-29.3784 724.771 -34.5503 721.411 -37.4963 716.987C-40.1477 712.988 -40.8024 708.416 -41.2279 703.942C-45.9252 653.992 -27.5125 604.124 -30.9496 554.108C-32.5044 531.542 -38.4947 509.222 -39.7058 486.64C-40.917 464.041 -36.8744 440.377 -22.0133 420.761Z" fill="#F5F5F5" stroke="black" stroke-miterlimit="10"/>
<path fill-rule="evenodd" clip-rule="evenodd" d="M233.555 443.876C234.18 438.767 234.719 438.141 233.663 434.131C232.671 430.401 230.903 426.974 229.933 423.222C228.984 419.579 227.54 416.431 223.982 414.62C220.425 412.787 218.226 409.575 214.949 407.613C211.974 405.824 209.214 403.56 206.088 402.158C201.56 400.132 196.559 399.83 191.686 398.946C186.318 397.976 181.855 399.571 177.888 403.107C175.818 404.961 173.49 406.6 171.7 408.691C168.876 411.968 165.319 414.792 164.305 419.471C162.322 428.612 152.491 431.717 153.202 442.302C153.569 447.649 154.561 451.94 158.183 455.734C158.937 456.532 159.584 457.674 159.713 458.731C160.834 466.6 165.771 472.421 171.097 477.401C176.508 482.446 183.537 485.249 191.082 486.068C195.071 486.521 199.124 487.233 203.091 486.974C209.106 486.586 214.863 484.516 219.39 480.549C221.719 478.523 224.737 477.078 226.613 474.577C228.79 471.645 227.863 468.39 229.351 465.285C230.429 463 232.003 461.253 232.736 458.731C234.072 454.397 233.706 449.59 233.555 443.876Z" fill="#33B2C1" stroke="black" stroke-miterlimit="10"/>
<path d="M183.817 432.73C183.989 438.077 193.605 437.387 191.901 431.975" stroke="black" stroke-miterlimit="10" stroke-linecap="round" stroke-linejoin="round"/>
<path d="M195.632 431.846C195.826 433.441 196.947 434.908 198.456 435.49C199.965 436.072 201.776 435.727 202.983 434.67C204.191 433.592 204.751 431.846 204.363 430.272" stroke="black" stroke-miterlimit="10" stroke-linecap="round" stroke-linejoin="round"/>
<path d="M178.039 439.413C179.29 442.389 181.877 444.674 184.787 446.075C187.698 447.477 190.953 448.037 194.166 448.253C196.063 448.382 197.982 448.382 199.879 448.037C206.541 446.83 212.06 440.901 212.772 434.174" stroke="black" stroke-miterlimit="10" stroke-linecap="round" stroke-linejoin="round"/>
<path d="M212.684 406.3C211.758 405.211 211.873 403.664 211.843 402.249C211.802 399.584 211.086 396.985 210.374 394.418C209.762 392.235 208.997 389.823 206.863 388.718C206.073 388.304 205.186 388.117 204.368 387.756C203.549 387.395 202.789 386.78 202.687 385.952C202.643 385.594 202.723 385.222 202.77 384.87C203.373 380.707 200.514 376.938 197.867 373.571C197.418 373 196.977 372.197 197.487 371.656C197.662 371.469 197.902 371.374 198.124 371.28C200.084 370.528 202.467 370.003 203.402 368.239C203.62 367.817 203.757 367.322 204.194 367.07C204.564 366.86 205.035 366.884 205.457 366.947C209.277 367.416 213.485 368.398 216.757 366.461C217.655 366.153 218.018 365.597 217.734 365.187C217.623 365.019 217.414 364.929 217.223 364.838C216.479 364.501 215.735 364.164 214.992 363.827C213.315 363.077 211.619 362.313 209.783 361.88C207.634 361.387 205.269 361.332 203.472 360.185C202.37 357.964 199.586 356.707 196.843 356.502C194.099 356.296 191.371 356.945 188.698 357.604C187.266 357.962 185.747 358.347 184.675 359.287C183.018 360.745 182.802 363.079 181.504 364.822C180.128 366.657 177.632 367.723 176.658 369.755C176.142 370.825 176.128 372.03 175.983 373.185C175.648 375.584 174.634 377.869 173.633 380.119C172.748 381.119 172.021 383.104 171.989 384.889C171.957 386.673 172.478 388.422 172.428 390.209C172.371 392.376 171.493 394.446 170.57 396.456C170.103 397.486 169.602 398.537 169.595 399.643C169.6 400.12 169.677 400.605 169.665 401.085C169.579 402.728 168.161 404.073 167.728 405.676C167.3 407.312 168.026 409.118 168.851 410.55C163.892 410.485 158.867 411.78 154.613 414.217C154.143 414.489 153.645 414.831 153.561 415.319C153.472 415.907 154.016 416.384 154.541 416.699C156.017 417.572 157.776 417.965 159.524 418.277C164.4 419.127 169.378 419.354 174.36 419.317C192.938 419.17 211.503 415.266 228.584 408.231C228.96 408.07 229.37 407.887 229.505 407.524C229.772 406.766 228.6 406.317 227.749 406.273C222.541 405.943 217.276 406.015 212.684 406.3Z" fill="#A37D65"/>
<path d="M212.684 406.3C211.758 405.211 211.873 403.664 211.843 402.249C211.802 399.584 211.086 396.985 210.374 394.418C209.762 392.235 208.997 389.823 206.863 388.718C206.073 388.304 205.186 388.117 204.368 387.756C203.549 387.395 202.789 386.78 202.687 385.952C202.643 385.594 202.723 385.222 202.77 384.87C203.373 380.707 200.514 376.938 197.867 373.571C197.418 373 196.977 372.197 197.487 371.656C197.662 371.469 197.902 371.374 198.124 371.28C200.084 370.528 202.467 370.003 203.402 368.239C203.62 367.817 203.757 367.322 204.194 367.07C204.564 366.86 205.035 366.884 205.457 366.947C209.277 367.416 213.485 368.398 216.757 366.461C217.655 366.153 218.018 365.597 217.734 365.187C217.623 365.019 217.414 364.929 217.223 364.838C216.479 364.501 215.735 364.164 214.992 363.827C213.315 363.077 211.619 362.313 209.783 361.88C207.634 361.387 205.269 361.332 203.472 360.185C202.37 357.964 199.586 356.707 196.843 356.502C194.099 356.296 191.371 356.945 188.698 357.604C187.266 357.962 185.747 358.347 184.675 359.287C183.018 360.745 182.802 363.079 181.504 364.822C180.128 366.657 177.632 367.723 176.658 369.755C176.142 370.825 176.128 372.03 175.983 373.185C175.648 375.584 174.634 377.869 173.633 380.119C172.748 381.119 172.021 383.104 171.989 384.889C171.957 386.673 172.478 388.422 172.428 390.209C172.371 392.376 171.493 394.446 170.57 396.456C170.103 397.486 169.602 398.537 169.595 399.643C169.6 400.12 169.677 400.605 169.665 401.085C169.579 402.728 168.161 404.073 167.728 405.676C167.3 407.311 168.026 409.118 168.851 410.55C163.892 410.485 158.867 411.78 154.613 414.217C154.143 414.489 153.645 414.831 153.561 415.319C153.472 415.907 154.016 416.384 154.541 416.699C156.017 417.572 157.776 417.965 159.524 418.277C164.4 419.127 169.378 419.354 174.36 419.317C192.938 419.17 211.503 415.266 228.584 408.231C228.96 408.07 229.37 407.887 229.505 407.524C229.772 406.766 228.6 406.317 227.749 406.273C222.541 405.943 217.276 406.015 212.684 406.3Z" stroke="#120000" stroke-miterlimit="10" stroke-linecap="round" stroke-linejoin="round"/>
<path d="M197.36 371.655C194.806 370.651 192.179 369.639 189.529 369.9C189.137 369.932 188.733 370.015 188.382 370.239C188.05 370.462 187.779 370.891 187.799 371.35C187.82 371.809 188.122 372.217 188.489 372.419C188.856 372.621 189.272 372.636 189.678 372.569" stroke="#120000" stroke-miterlimit="10" stroke-linecap="round" stroke-linejoin="round"/>
<path d="M175.207 384.855C178.589 386.004 181.955 387.172 185.337 388.321C186.765 388.805 188.285 389.31 189.779 389.01C190.746 388.825 191.618 388.306 192.395 387.748C194.942 385.917 196.876 383.354 197.843 380.531C198.044 379.979 198.205 379.382 198.598 378.922C198.991 378.461 199.712 378.174 200.282 378.417C200.415 378.615 200.527 378.799 200.66 378.997" stroke="#120000" stroke-miterlimit="10" stroke-linecap="round" stroke-linejoin="round"/>
<path d="M176.337 382.193C180.263 383.671 184.21 385.163 188.136 386.641C188.533 386.79 188.947 386.936 189.392 386.898C189.747 386.854 190.068 386.683 190.369 386.497C192.766 385.064 194.64 382.888 195.615 380.427C196.249 378.848 196.571 377.077 197.883 375.893" stroke="#120000" stroke-miterlimit="10" stroke-linecap="round" stroke-linejoin="round"/>
<path d="M197.676 382.827C198.394 382.376 199.172 381.967 199.957 381.622C201.589 382.443 202.613 384.18 202.484 385.911C202.342 387.676 201.125 389.343 201.359 391.094" stroke="#120000" stroke-miterlimit="10" stroke-linecap="round" stroke-linejoin="round"/>
<path d="M177.548 385.885C176.84 385.989 176.084 386.132 175.624 386.633C175.417 386.857 175.288 387.12 175.176 387.381C174.654 388.55 174.284 389.783 174.097 391.042" stroke="#120000" stroke-miterlimit="10" stroke-linecap="round" stroke-linejoin="round"/>
<path d="M171.904 399.539C176.58 397.166 181.274 394.79 185.95 392.417C186.984 391.894 188.035 391.369 189.19 391.243C191.517 390.989 193.581 392.4 195.703 393.259C199.36 394.737 203.772 394.606 207.379 392.908" stroke="#120000" stroke-miterlimit="10" stroke-linecap="round" stroke-linejoin="round"/>
<path d="M171.755 398.041C175.243 395.814 178.861 393.769 182.575 391.91C185.388 390.491 188.572 389.159 191.67 389.75C194.122 390.222 196.141 391.853 198.608 392.291C200.889 392.686 203.388 391.932 204.993 390.35" stroke="#120000" stroke-miterlimit="10" stroke-linecap="round" stroke-linejoin="round"/>
<path d="M210.589 399.09C209.881 399.771 209.112 400.393 208.279 400.941C207.897 401.203 207.476 401.436 207.019 401.525C206.069 401.708 205.142 401.196 204.17 401.052C202.595 400.834 201.089 401.613 199.64 402.27C194.727 404.475 189.118 405.265 183.766 404.49C181.859 404.214 179.911 403.746 178.01 404.095C175.528 404.55 173.564 406.292 171.35 407.455C171.118 407.039 170.885 406.606 170.742 406.327C171.577 404.921 173.273 404.218 174.838 403.629C176.333 403.049 177.83 402.485 179.39 402.145C183.753 401.178 188.323 402.033 192.79 401.614C197.647 401.147 202.444 399.171 210.589 399.09Z" stroke="#120000" stroke-miterlimit="10" stroke-linecap="round" stroke-linejoin="round"/>
<path d="M172.325 409.379C173.259 408.489 174.227 407.579 175.442 407.066C176.622 406.558 177.958 406.443 179.237 406.599C180.514 406.738 181.749 407.113 182.936 407.544" stroke="#120000" stroke-miterlimit="10" stroke-linecap="round" stroke-linejoin="round"/>
<path d="M197.729 407.946C200.763 406.121 204.018 404.632 207.407 403.505" stroke="#120000" stroke-miterlimit="10" stroke-linecap="round" stroke-linejoin="round"/>
</svg>
