<svg width="108" height="81" viewBox="0 0 108 81" fill="none" xmlns="http://www.w3.org/2000/svg">
<path d="M8.31895 23.8258C7.77794 22.3807 7.0978 21.0088 6.27855 19.7466C5.87665 19.1064 5.41292 18.4844 4.79462 18.1734C4.17632 17.8625 3.37252 17.9539 2.95516 18.5759C2.44506 19.3442 2.7233 20.4417 2.95516 21.3563C3.20248 22.2892 3.32614 23.4782 2.67692 24.0636C2.39869 24.3197 2.02771 24.3929 1.73402 24.6124C1.27029 24.9599 1.05388 25.6367 1.00751 26.2953C0.930218 27.5026 1.45578 28.7464 2.30595 29.4233C3.15611 30.1001 4.33089 30.1915 5.24289 29.6428C5.62933 29.405 5.9694 29.0757 6.38675 28.9111C7.73156 28.3623 9.37007 29.6611 10.5603 28.7647C10.9158 28.5086 11.1632 28.0879 11.3641 27.6672C11.7196 26.9721 12.0288 26.1855 11.9979 25.3807C11.9669 24.5758 11.4568 23.7343 10.7767 23.6795C10.2975 23.6429 9.86471 23.9538 9.38552 24.0819C8.93725 24.1916 8.30349 23.9355 8.31895 23.8258Z" fill="#B180E0" stroke="#1D1D1B" stroke-miterlimit="10"/>
<path d="M41.2704 52.2604C43.6774 54.1313 46.1518 49.216 43.4586 47.9405C46.5557 46.3928 44.519 41.4945 41.4555 42.6511C40.4793 39.3176 36.1365 38.3991 34.0156 40.9163C31.7096 38.093 27.047 38.4332 25.1618 41.6476C22.1656 39.6407 17.6546 40.8312 15.9208 44.0967C12.4365 39.4706 6.12441 44.811 9.1374 49.4371C4.08769 52.9577 8.91858 61.7507 13.9851 57.6348C16.1733 60.6962 20.8359 61.3595 23.7142 59.0125C26.5084 62.0739 31.7601 61.5296 33.9146 57.856C36.7593 59.3526 41.0179 56.4783 39.8733 52.7877C38.4425 53.3999 37.3821 50.0494 39.3683 49.3011C41.3545 48.4337 42.9199 51.274 41.2704 52.2604Z" fill="#EBEBEB" stroke="black" stroke-miterlimit="10" stroke-linecap="round" stroke-linejoin="round"/>
<path d="M31 73.9834V19.3332C31 9.20169 39.3166 1 49.59 1H55.41C65.6834 1 74 9.20169 74 19.3332V74H31V73.9834Z" fill="white" stroke="#1D1D1B" stroke-miterlimit="10"/>
<path d="M100.077 27.5169C99.2245 29.5657 97.3981 31.2273 95.1717 32.0016C93.9193 32.4372 92.5452 32.5985 91.3451 33.147C89.8492 33.8246 88.7012 35.0829 88.2142 36.5509C87.8141 37.777 87.9359 39.245 88.9099 40.1484C90.4754 41.6165 93.154 40.9228 95.1543 40.0355C97.0328 39.2128 98.8592 38.2932 100.633 37.2769C102.112 36.438 103.556 35.5346 104.686 34.3247C105.608 33.3245 106.304 32.1468 106.704 30.8724C107.086 29.6463 107.156 28.2751 106.565 27.1297C105.904 25.8552 104.408 24.9841 102.877 25.0002C101.347 25.0164 100.703 26.0166 100.077 27.5169Z" fill="#B180E0" stroke="#1D1D1B" stroke-miterlimit="10"/>
<path d="M52.6833 31.7404C47.8279 31.707 43.3563 29.3878 41.1372 25.7838C43.4231 22.1966 47.9113 19.9774 52.7834 20.0108C57.6387 20.0442 62.1104 22.3634 64.3295 25.9674C62.0436 29.5213 57.5386 31.7738 52.6833 31.7404Z" stroke="black" stroke-miterlimit="10" stroke-linecap="round" stroke-linejoin="round"/>
<path d="M56.3539 24.9996C55.6365 24.9996 54.9524 24.6993 54.4518 24.1987C53.9513 23.6815 53.6676 22.9974 53.6676 22.28C53.6676 22.0464 53.5842 21.8128 53.4007 21.6459C53.2338 21.4791 53.0002 21.379 52.7666 21.379C51.5653 21.3623 50.414 21.8295 49.5631 22.6804C48.7122 23.5147 48.2283 24.6659 48.2116 25.8673C48.1949 27.0686 48.6621 28.2199 49.513 29.0708C50.3473 29.9217 51.4986 30.4056 52.6999 30.4223C53.9012 30.439 55.0525 29.9718 55.9034 29.1208C56.7544 28.2866 57.2382 27.1353 57.2549 25.934C57.2549 25.7004 57.1715 25.4668 56.988 25.3C56.8044 25.1331 56.5875 24.9996 56.3539 24.9996Z" fill="black"/>
<path d="M52.8167 16.6237L52.7666 19.9941" stroke="black" stroke-miterlimit="10" stroke-linecap="round" stroke-linejoin="round"/>
<path d="M46.8601 17.6082L48.5286 20.5281" stroke="black" stroke-miterlimit="10" stroke-linecap="round" stroke-linejoin="round"/>
<path d="M58.7067 17.7083L56.9714 20.5948" stroke="black" stroke-miterlimit="10" stroke-linecap="round" stroke-linejoin="round"/>
<path d="M53.7929 61.6452C50.4727 59.0107 46.6019 65.3271 50.3726 67.2089C45.8344 69.0417 48.4372 75.669 52.8919 74.3599C54.0598 78.8435 60.2331 80.349 63.4365 77.1744C66.5565 81.069 73.2469 80.9217 76.1834 76.8308C80.3545 79.6944 86.8948 78.4344 89.581 74.2126C94.2694 80.5617 103.663 73.9344 99.6584 67.618C107.133 63.298 100.776 51.3361 93.2349 56.4579C90.2984 52.2525 83.658 51.0579 79.3701 53.9543C75.5661 49.7161 68.008 50.0761 64.6878 54.7888C60.7169 52.6288 54.4102 56.1143 55.8117 61.0725C57.8972 60.3525 59.1986 64.8689 56.2955 65.7198C53.4258 66.7016 51.3736 62.8234 53.7929 61.6452Z" fill="#EBEBEB" stroke="black" stroke-miterlimit="10" stroke-linecap="round" stroke-linejoin="round"/>
</svg>
