<svg width="107" height="82" viewBox="0 0 107 82" fill="none" xmlns="http://www.w3.org/2000/svg">
<path d="M54.2673 53.6035C57.8415 46.8481 70.641 17.2258 70.641 17.2258C71.5767 15.7474 71.558 13.8013 70.4352 12.323C70.4165 12.3043 70.3978 12.2856 70.3978 12.2669L75.7683 11.6306C76.7788 11.7055 77.808 11.4248 78.6875 10.7511C80.5588 9.31022 80.8957 6.6343 79.4548 4.76302C78.7437 3.82737 77.7145 3.26599 76.6291 3.15371C76.4794 3.135 76.2923 3.1163 76.1426 3.13501L44.5928 1.09532C38.3989 0.290669 32.7289 4.66947 31.9242 10.8634L27.2834 46.9978H27.3022L9.22559 60.9576L23.9526 80.0447L44.6864 64.0265C44.6677 64.0452 50.6932 60.3588 54.2673 53.6035ZM63.2121 13.1276L49.5143 30.6241L53.182 14.3066L63.2121 13.1276Z" fill="#F5F5F5" stroke="#1D1D1B" stroke-miterlimit="10" stroke-linecap="round" stroke-linejoin="round"/>
<path d="M44.499 64.176C44.499 64.176 50.5433 60.4895 54.0987 53.7342C57.6541 46.9789 70.4724 17.3752 70.4724 17.3565C71.408 15.8782 71.3893 13.9321 70.2666 12.4537C68.8257 10.5825 66.1497 10.2456 64.2785 11.6865C63.7358 12.1169 63.3054 12.6596 63.0247 13.2397L49.3269 30.7362" fill="#F5F5F5"/>
<path d="M44.499 64.176C44.499 64.176 50.5433 60.4895 54.0987 53.7342C57.6541 46.9789 70.4724 17.3752 70.4724 17.3565C71.408 15.8782 71.3893 13.9321 70.2666 12.4537C68.8257 10.5825 66.1497 10.2456 64.2785 11.6865C63.7358 12.1169 63.3054 12.6596 63.0247 13.2397L49.3269 30.7362" stroke="#1D1D1B" stroke-miterlimit="10" stroke-linecap="round" stroke-linejoin="round"/>
<path d="M105.709 5.00623C105.709 5.00623 103.519 6.84008 101.068 7.40146C98.6167 7.96285 96.4835 4.95008 92.6099 5.17463C90.0275 5.32434 88.7176 7.27048 88.1188 8.54295L2.75097 17.207C1.68434 17.3193 0.898405 18.2923 1.01068 19.359V19.4151C1.12296 20.4817 2.09602 21.2677 3.16265 21.1554L88.3247 12.4914C89.9527 14.9427 93.9198 17.4128 98.7477 14.4749C105.802 10.1522 105.709 5.00623 105.709 5.00623Z" fill="#FFF58C" stroke="#1D1D1B" stroke-miterlimit="10" stroke-linecap="round" stroke-linejoin="round"/>
<path d="M24.0153 80.01C25.4387 78.9111 23.2902 73.7432 19.2166 68.4671C15.1431 63.191 10.687 59.8047 9.26367 60.9036C7.84035 62.0025 9.98879 67.1705 14.0624 72.4466C18.1359 77.7227 22.592 81.109 24.0153 80.01Z" fill="#EBEBEB" stroke="#1D1D1B" stroke-miterlimit="10" stroke-linecap="round" stroke-linejoin="round"/>
</svg>
