<svg width="48" height="96" viewBox="0 0 48 96" fill="none" xmlns="http://www.w3.org/2000/svg">
<path d="M1.00012 90.3032V58.5309L14.174 46.504V78.2762L1.00012 90.3032Z" fill="#B180E0" stroke="#181919" stroke-miterlimit="10" stroke-linecap="round" stroke-linejoin="round"/>
<path d="M47 90.303V58.5307L33.8262 46.5038V78.276L47 90.303Z" fill="#B180E0" stroke="#181919" stroke-miterlimit="10" stroke-linecap="round" stroke-linejoin="round"/>
<path d="M42.676 40.878C42.676 16.4522 24.0001 1 24.0001 1C24.0001 1 5.32422 16.4522 5.32422 40.878C5.32422 55.5708 8.34646 70.155 13.0115 79.4542H34.9886C39.6537 70.155 42.676 55.5708 42.676 40.878Z" fill="#5A66FF" stroke="#181919" stroke-miterlimit="10" stroke-linecap="round" stroke-linejoin="round"/>
<path d="M24.0002 45.0163C30.634 45.0163 36.0117 39.6385 36.0117 33.0048C36.0117 26.3711 30.634 20.9933 24.0002 20.9933C17.3665 20.9933 11.9888 26.3711 11.9888 33.0048C11.9888 39.6385 17.3665 45.0163 24.0002 45.0163Z" fill="#EBEBEB" stroke="#181919" stroke-miterlimit="10" stroke-linecap="round" stroke-linejoin="round"/>
<path d="M26.8983 57.6632C26.8983 56.4698 25.7824 55.4933 24.403 55.4933C23.0236 55.4933 21.9077 56.4698 21.9077 57.6632C21.9077 57.7097 21.9232 57.7407 21.9232 57.7872L24.4185 94.6275L26.9138 57.7097C26.8983 57.6787 26.8983 57.6632 26.8983 57.6632Z" fill="#56B381" stroke="#181919" stroke-miterlimit="10" stroke-linecap="round" stroke-linejoin="round"/>
<path d="M24.7749 26.5108L25.9528 30.153C26.0613 30.494 26.3712 30.7109 26.7277 30.7109H30.5559C31.3463 30.7109 31.6718 31.7183 31.0363 32.1833L27.9366 34.4306C27.6576 34.6321 27.5336 35.0041 27.6421 35.345L28.82 38.9872C29.068 39.7467 28.2001 40.3666 27.5646 39.9016L24.4649 37.6543C24.1859 37.4529 23.7985 37.4529 23.504 37.6543L20.4043 39.9016C19.7688 40.3666 18.9009 39.7467 19.1489 38.9872L20.3268 35.345C20.4353 35.0041 20.3113 34.6321 20.0323 34.4306L16.9326 32.1833C16.2971 31.7183 16.6226 30.7109 17.413 30.7109H21.2412C21.5976 30.7109 21.9076 30.4785 22.0161 30.153L23.194 26.5108C23.473 25.7514 24.5424 25.7514 24.7749 26.5108Z" fill="#FFF58C" stroke="#181919" stroke-miterlimit="10" stroke-linecap="round" stroke-linejoin="round"/>
</svg>
