<svg width="102" height="100" viewBox="0 0 102 100" fill="none" xmlns="http://www.w3.org/2000/svg">
<path d="M27.8903 61.6757C21.7946 76.8378 20.6951 89.0099 25.9999 91.9805C33.4459 96.1472 50.672 80.7151 64.4837 57.4705C78.2954 34.2259 83.4459 12.023 75.9999 7.85633C70.8494 4.96281 61.0307 11.4636 50.9034 23.4234" stroke="#030000" stroke-miterlimit="10"/>
<path d="M25.9999 7.87566C33.4459 3.709 50.672 19.1411 64.4837 42.3857C68.4382 49.0408 71.6789 55.5994 74.1288 61.6951C80.2244 76.8571 81.3239 89.0292 76.0192 91.9999C68.5732 96.1665 51.3471 80.7345 37.5354 57.4899C23.7237 34.2453 18.5539 12.0423 25.9999 7.87566Z" fill="#5A66FF" stroke="#030000" stroke-miterlimit="10"/>
<path d="M64.2461 57.8618C78.1198 34.6662 83.4297 12.3115 76.1062 7.93118C68.7827 3.5509 51.599 18.8038 37.7254 41.9994C23.8518 65.1951 18.5419 87.5498 25.8654 91.9301C33.1889 96.3104 50.3725 81.0575 64.2461 57.8618Z" fill="#EBEBEB" stroke="#030000" stroke-miterlimit="10"/>
<path d="M50.9999 65.0323C78.6141 65.0323 101 58.2699 101 49.9281C101 41.5863 78.6141 34.824 50.9999 34.824C23.3856 34.824 0.999878 41.5863 0.999878 49.9281C0.999878 58.2699 23.3856 65.0323 50.9999 65.0323Z" fill="#56B381" stroke="#030000" stroke-miterlimit="10"/>
<path d="M25.9999 7.87566C33.4459 3.709 50.672 19.1411 64.4837 42.3857C68.4382 49.0408 71.6789 55.5994 74.1288 61.6951C80.2244 76.8571 81.3239 89.0292 76.0192 91.9999C68.5732 96.1665 51.3471 80.7344 37.5354 57.4899C23.7237 34.2453 18.5539 12.0423 25.9999 7.87566Z" stroke="#030000" stroke-miterlimit="10"/>
<path d="M64.2461 57.8618C78.1198 34.6662 83.4297 12.3115 76.1062 7.93118C68.7827 3.5509 51.599 18.8038 37.7254 41.9994C23.8518 65.1951 18.5419 87.5498 25.8654 91.9301C33.1889 96.3104 50.3725 81.0575 64.2461 57.8618Z" stroke="#030000" stroke-miterlimit="10"/>
<path d="M50.9997 58.8786C56.0815 58.8786 60.2011 54.8713 60.2011 49.928C60.2011 44.9847 56.0815 40.9774 50.9997 40.9774C45.9179 40.9774 41.7983 44.9847 41.7983 49.928C41.7983 54.8713 45.9179 58.8786 50.9997 58.8786Z" fill="#FFF58C" stroke="#030000" stroke-miterlimit="10"/>
<path d="M23.2994 27.8988C26.0054 27.8988 28.199 25.7656 28.199 23.1341C28.199 20.5027 26.0054 18.3694 23.2994 18.3694C20.5933 18.3694 18.3997 20.5027 18.3997 23.1341C18.3997 25.7656 20.5933 27.8988 23.2994 27.8988Z" fill="#56B381" stroke="#030000" stroke-miterlimit="10"/>
<path d="M85.4133 44.334C88.1193 44.334 90.313 42.2008 90.313 39.5693C90.313 36.9379 88.1193 34.8047 85.4133 34.8047C82.7073 34.8047 80.5137 36.9379 80.5137 39.5693C80.5137 42.2008 82.7073 44.334 85.4133 44.334Z" fill="#5A66FF" stroke="#030000" stroke-miterlimit="10"/>
<path d="M43.8624 88.8555C46.5684 88.8555 48.762 86.7223 48.762 84.0909C48.762 81.4594 46.5684 79.3262 43.8624 79.3262C41.1563 79.3262 38.9626 81.4594 38.9626 84.0909C38.9626 86.7223 41.1563 88.8555 43.8624 88.8555Z" fill="#FF88B6" stroke="#030000" stroke-miterlimit="10"/>
</svg>
