<svg width="91" height="91" viewBox="0 0 91 91" fill="none" xmlns="http://www.w3.org/2000/svg">
<path d="M7.98828 10.913V79.6491C7.98828 81.1214 9.19835 82.3316 10.6909 82.3316H79.8909C81.3835 82.3316 82.5935 81.1214 82.5935 79.6491V10.913C82.5935 9.44066 81.3835 8.23053 79.8909 8.23053H10.6909C9.19835 8.23053 7.98828 9.42049 7.98828 10.913Z" fill="#EBEBEB"/>
<mask id="mask0_525_47717" style="mask-type:luminance" maskUnits="userSpaceOnUse" x="7" y="8" width="76" height="75">
<path d="M7.98828 10.913V79.6491C7.98828 81.1214 9.19835 82.3316 10.6909 82.3316H79.8909C81.3835 82.3316 82.5935 81.1214 82.5935 79.6491V10.913C82.5935 9.44066 81.3835 8.23053 79.8909 8.23053H10.6909C9.19835 8.23053 7.98828 9.42049 7.98828 10.913Z" fill="white"/>
</mask>
<g mask="url(#mask0_525_47717)">
<path d="M-28.6586 45.3618L45.2004 118.737" stroke="black" stroke-miterlimit="10"/>
<path d="M-24.9074 41.6505L48.9314 115.025" stroke="black" stroke-miterlimit="10"/>
<path d="M-21.176 37.9395L52.663 111.314" stroke="black" stroke-miterlimit="10"/>
<path d="M-17.4445 34.2285L56.3943 107.583" stroke="black" stroke-miterlimit="10"/>
<path d="M-13.6933 30.5174L60.1455 103.872" stroke="black" stroke-miterlimit="10"/>
<path d="M-9.96187 26.8062L63.8771 100.161" stroke="black" stroke-miterlimit="10"/>
<path d="M-6.2304 23.0951L67.6084 96.4499" stroke="black" stroke-miterlimit="10"/>
<path d="M-2.47924 19.3841L71.3596 92.7389" stroke="black" stroke-miterlimit="10"/>
<path d="M1.25223 15.6728L75.0912 89.0276" stroke="black" stroke-miterlimit="10"/>
<path d="M4.98321 11.9617L78.822 85.3165" stroke="black" stroke-miterlimit="10"/>
<path d="M8.71468 8.23053L82.5737 81.6055" stroke="black" stroke-miterlimit="10"/>
<path d="M12.4658 4.51953L86.3048 77.8945" stroke="black" stroke-miterlimit="10"/>
<path d="M16.1973 0.808228L90.0361 74.1832" stroke="black" stroke-miterlimit="10"/>
<path d="M19.9283 -2.90283L93.7873 70.4519" stroke="black" stroke-miterlimit="10"/>
<path d="M23.6799 -6.61383L97.5189 66.741" stroke="black" stroke-miterlimit="10"/>
<path d="M27.4114 -10.325L101.25 63.0298" stroke="black" stroke-miterlimit="10"/>
<path d="M31.1424 -14.0361L105.001 59.3186" stroke="black" stroke-miterlimit="10"/>
<path d="M34.894 -17.7472L108.733 55.6076" stroke="black" stroke-miterlimit="10"/>
<path d="M38.625 -21.4584L112.464 51.8964" stroke="black" stroke-miterlimit="10"/>
<path d="M42.3565 -25.1896L116.215 48.1854" stroke="black" stroke-miterlimit="10"/>
</g>
<path d="M7.98828 10.913V79.6491C7.98828 81.1214 9.19835 82.3316 10.6909 82.3316H79.8909C81.3835 82.3316 82.5935 81.1214 82.5935 79.6491V10.913C82.5935 9.44066 81.3835 8.23053 79.8909 8.23053H10.6909C9.19835 8.23053 7.98828 9.42049 7.98828 10.913Z" stroke="black" stroke-miterlimit="10"/>
<path d="M44.3335 29.3879L31.284 16.3385C30.7596 15.8141 30.7596 14.967 31.284 14.4426L44.3335 1.39324C44.8578 0.86884 45.705 0.86884 46.2293 1.39324L59.2787 14.4426C59.803 14.967 59.803 15.8141 59.2787 16.3385L46.2293 29.3879C45.705 29.9123 44.8578 29.9123 44.3335 29.3879Z" fill="#FF88B6" stroke="black" stroke-miterlimit="10"/>
<path d="M59.2784 44.3332L46.2291 31.2838C45.7047 30.7594 45.7047 29.9123 46.2291 29.3879L59.2784 16.3385C59.8028 15.8142 60.6499 15.8142 61.1743 16.3385L74.2236 29.3879C74.748 29.9123 74.748 30.7594 74.2236 31.2838L61.1743 44.3332C60.6499 44.8576 59.8028 44.8576 59.2784 44.3332Z" fill="white" stroke="black" stroke-miterlimit="10"/>
<path d="M74.2437 59.2785L61.1944 46.2292C60.67 45.7048 60.67 44.8577 61.1944 44.3333L74.2437 31.2839C74.7681 30.7595 75.6152 30.7595 76.1396 31.2839L89.189 44.3333C89.7134 44.8577 89.7134 45.7048 89.189 46.2292L76.1396 59.2785C75.6152 59.8029 74.7681 59.8029 74.2437 59.2785Z" fill="#B180E0" stroke="black" stroke-miterlimit="10"/>
<path d="M44.3335 59.2785L31.284 46.2292C30.7596 45.7048 30.7596 44.8577 31.284 44.3333L44.3335 31.2839C44.8578 30.7595 45.705 30.7595 46.2293 31.2839L59.2787 44.3333C59.803 44.8577 59.803 45.7048 59.2787 46.2292L46.2293 59.2785C45.705 59.8029 44.8578 59.8029 44.3335 59.2785Z" fill="#5A66FF" stroke="black" stroke-miterlimit="10"/>
<path d="M59.2784 74.2236L46.2291 61.1743C45.7047 60.6499 45.7047 59.8028 46.2291 59.2784L59.2784 46.229C59.8028 45.7046 60.6499 45.7046 61.1743 46.229L74.2236 59.2784C74.748 59.8028 74.748 60.6499 74.2236 61.1743L61.1743 74.2236C60.6499 74.748 59.8028 74.748 59.2784 74.2236Z" fill="white" stroke="black" stroke-miterlimit="10"/>
<path d="M14.4428 59.2785L1.39337 46.2292C0.868978 45.7048 0.868978 44.8577 1.39337 44.3333L14.4428 31.2839C14.9672 30.7595 15.8143 30.7595 16.3387 31.2839L29.388 44.3333C29.9124 44.8577 29.9124 45.7048 29.388 46.2292L16.3387 59.2785C15.8143 59.8029 14.9672 59.8029 14.4428 59.2785Z" fill="#FFF58C" stroke="black" stroke-miterlimit="10"/>
<path d="M29.3883 74.2236L16.3389 61.1743C15.8145 60.6499 15.8145 59.8028 16.3389 59.2784L29.3883 46.229C29.9126 45.7046 30.7598 45.7046 31.2841 46.229L44.3336 59.2784C44.858 59.8028 44.858 60.6499 44.3336 61.1743L31.2841 74.2236C30.7598 74.748 29.9126 74.748 29.3883 74.2236Z" fill="white" stroke="black" stroke-miterlimit="10"/>
<path d="M44.3335 89.1891L31.284 76.1398C30.7596 75.6154 30.7596 74.7683 31.284 74.2439L44.3335 61.1945C44.8578 60.6701 45.705 60.6701 46.2293 61.1945L59.2787 74.2439C59.803 74.7683 59.803 75.6154 59.2787 76.1398L46.2293 89.1891C45.705 89.7135 44.8578 89.7135 44.3335 89.1891Z" fill="#56B381" stroke="black" stroke-miterlimit="10"/>
<path d="M29.3883 44.3332L16.3389 31.2838C15.8145 30.7594 15.8145 29.9123 16.3389 29.3879L29.3883 16.3385C29.9126 15.8142 30.7598 15.8142 31.2841 16.3385L44.3336 29.3879C44.858 29.9123 44.858 30.7594 44.3336 31.2838L31.2841 44.3332C30.7598 44.8576 29.9126 44.8576 29.3883 44.3332Z" fill="white"/>
<path d="M29.3883 44.3332L16.3389 31.2838C15.8145 30.7594 15.8145 29.9123 16.3389 29.3879L29.3883 16.3385C29.9126 15.8142 30.7598 15.8142 31.2841 16.3385L44.3336 29.3879C44.858 29.9123 44.858 30.7594 44.3336 31.2838L31.2841 44.3332C30.7598 44.8576 29.9126 44.8576 29.3883 44.3332Z" stroke="black" stroke-miterlimit="10"/>
</svg>
