<svg width="59" height="77" viewBox="0 0 59 77" fill="none" xmlns="http://www.w3.org/2000/svg">
<path d="M1 28.2166C1 13.17 13.7453 1 29.5 1C45.2325 1 58 13.1921 58 28.2166C58 43.2632 45.5202 76.2329 29.5 76.2329C13.4798 76.2107 1 43.241 1 28.2166Z" fill="white" stroke="black" stroke-miterlimit="10" stroke-linecap="round" stroke-linejoin="round"/>
<path d="M29.4326 34.8327C22.9935 34.7885 17.0634 31.7128 14.1205 26.9333C17.1519 22.176 23.1041 19.233 29.5653 19.2772C36.0044 19.3215 41.9345 22.3972 44.8774 27.1767C41.846 31.9119 35.8716 34.877 29.4326 34.8327Z" stroke="black" stroke-miterlimit="10" stroke-linecap="round" stroke-linejoin="round"/>
<path d="M34.3007 25.8933C33.3492 25.8933 32.4419 25.495 31.7781 24.8312C31.1143 24.1452 30.7381 23.238 30.7381 22.2865C30.7381 21.9767 30.6275 21.667 30.3841 21.4457C30.1628 21.2244 29.853 21.0916 29.5432 21.0916C27.9501 21.0695 26.4233 21.6891 25.2948 22.8176C24.1663 23.9461 23.5247 25.4507 23.5025 27.0439C23.4804 28.6371 24.1 30.1639 25.2285 31.2924C26.3348 32.4209 27.8616 33.0625 29.4548 33.0847C31.0479 33.1068 32.5747 32.4872 33.7032 31.3587C34.8317 30.2303 35.4734 28.7256 35.4955 27.1324C35.4955 26.8226 35.3849 26.5128 35.1415 26.2916C34.9202 26.026 34.6105 25.8933 34.3007 25.8933Z" fill="black"/>
<path d="M29.6097 14.8074L29.5432 19.2556" stroke="black" stroke-miterlimit="10" stroke-linecap="round" stroke-linejoin="round"/>
<path d="M21.7101 16.0908L23.9231 19.9636" stroke="black" stroke-miterlimit="10" stroke-linecap="round" stroke-linejoin="round"/>
<path d="M37.4208 16.2236L35.1193 20.0522" stroke="black" stroke-miterlimit="10" stroke-linecap="round" stroke-linejoin="round"/>
</svg>
