<svg width="120" height="118" viewBox="0 0 120 118" fill="none" xmlns="http://www.w3.org/2000/svg">
<path d="M29.5633 21.7374V44.41C29.5633 45.232 29.0839 46.0025 28.3475 46.345L4.06521 57.9895C2.6439 58.6745 1 57.6299 1 56.0545V33.399C1 32.5771 1.47947 31.8065 2.21581 31.464L26.4981 19.8195C27.9023 19.1174 29.5633 20.162 29.5633 21.7374Z" fill="#009540" stroke="#181919" stroke-miterlimit="10" stroke-linecap="round" stroke-linejoin="round"/>
<path d="M58.1266 33.3991V56.0545C58.1266 57.6471 56.4827 58.6745 55.0613 57.9896L29.5632 45.7457V21.7203C29.5632 20.1278 31.2072 19.1003 32.6285 19.7853L56.9107 31.4298C57.6471 31.8065 58.1266 32.56 58.1266 33.3991Z" fill="#FF88B6"/>
<path d="M58.1266 33.3991V56.0545C58.1266 57.6471 56.4827 58.6745 55.0613 57.9896L29.5632 45.7457V21.7203C29.5632 20.1278 31.2072 19.1003 32.6285 19.7853L56.9107 31.4298C57.6471 31.8065 58.1266 32.56 58.1266 33.3991Z" stroke="black" stroke-miterlimit="10"/>
<path d="M54.0851 61.3803L30.4707 72.6994C29.8885 72.9734 29.2035 72.9734 28.6213 72.6994L5.00685 61.3803C3.38004 60.6097 3.38004 58.2979 5.00685 57.5273L29.546 45.7458L54.0851 57.5273C55.7119 58.2979 55.7119 60.6097 54.0851 61.3803Z" fill="#EBEBEB"/>
<mask id="mask0_525_47765" style="mask-type:luminance" maskUnits="userSpaceOnUse" x="3" y="45" width="53" height="28">
<path d="M54.0851 61.3803L30.4707 72.6994C29.8885 72.9734 29.2035 72.9734 28.6213 72.6994L5.00685 61.3803C3.38004 60.6097 3.38004 58.2979 5.00685 57.5273L29.546 45.7458L54.0851 57.5273C55.7119 58.2979 55.7119 60.6097 54.0851 61.3803Z" fill="white"/>
</mask>
<g mask="url(#mask0_525_47765)">
<path d="M27.7997 83.5391C43.417 76.0044 59.0344 68.4868 74.6518 60.9521L27.7997 83.5391Z" fill="#EBEBEB"/>
<path d="M27.7997 83.5391C43.417 76.0044 59.0344 68.4868 74.6518 60.9521" stroke="#1D1D1B" stroke-miterlimit="10"/>
<path d="M23.3816 81.0391C38.999 73.5044 54.6163 65.9868 70.2337 58.4521L23.3816 81.0391Z" fill="#EBEBEB"/>
<path d="M23.3816 81.0391C38.999 73.5044 54.6163 65.9868 70.2337 58.4521" stroke="#1D1D1B" stroke-miterlimit="10"/>
<path d="M18.9805 78.5386C34.5978 71.0039 50.2152 63.4864 65.8325 55.9517L18.9805 78.5386Z" fill="#EBEBEB"/>
<path d="M18.9805 78.5386C34.5978 71.0039 50.2152 63.4864 65.8325 55.9517" stroke="#1D1D1B" stroke-miterlimit="10"/>
<path d="M14.5624 76.0386C30.1797 68.5039 45.7971 60.9864 61.4145 53.4517L14.5624 76.0386Z" fill="#EBEBEB"/>
<path d="M14.5624 76.0386C30.1797 68.5039 45.7971 60.9864 61.4145 53.4517" stroke="#1D1D1B" stroke-miterlimit="10"/>
<path d="M10.1615 73.5214C25.7789 65.9867 41.3962 58.4691 57.0136 50.9344L10.1615 73.5214Z" fill="#EBEBEB"/>
<path d="M10.1615 73.5214C25.7789 65.9867 41.3962 58.4691 57.0136 50.9344" stroke="#1D1D1B" stroke-miterlimit="10"/>
<path d="M5.74353 71.0211C21.3609 63.4864 36.9783 55.9688 52.5957 48.4341L5.74353 71.0211Z" fill="#EBEBEB"/>
<path d="M5.74353 71.0211C21.3609 63.4864 36.9783 55.9688 52.5957 48.4341" stroke="#1D1D1B" stroke-miterlimit="10"/>
<path d="M1.34241 68.5211C16.9598 60.9864 32.5772 53.4688 48.1945 45.9341L1.34241 68.5211Z" fill="#EBEBEB"/>
<path d="M1.34241 68.5211C16.9598 60.9864 32.5772 53.4688 48.1945 45.9341" stroke="#1D1D1B" stroke-miterlimit="10"/>
<path d="M-3.05847 66.0209C12.5589 58.4862 28.1762 50.9687 43.7936 43.434L-3.05847 66.0209Z" fill="#EBEBEB"/>
<path d="M-3.05847 66.0209C12.5589 58.4862 28.1762 50.9687 43.7936 43.434" stroke="#1D1D1B" stroke-miterlimit="10"/>
<path d="M-7.47644 63.5206C8.14093 55.9859 23.7583 48.4683 39.3757 40.9336L-7.47644 63.5206Z" fill="#EBEBEB"/>
<path d="M-7.47644 63.5206C8.14093 55.9859 23.7583 48.4683 39.3757 40.9336" stroke="#1D1D1B" stroke-miterlimit="10"/>
<path d="M-11.8776 61.0206C3.7398 53.4859 19.3572 45.9683 34.9746 38.4337L-11.8776 61.0206Z" fill="#EBEBEB"/>
<path d="M-11.8776 61.0206C3.7398 53.4859 19.3572 45.9683 34.9746 38.4337" stroke="#1D1D1B" stroke-miterlimit="10"/>
</g>
<path d="M54.0851 61.3803L30.4707 72.6994C29.8885 72.9734 29.2035 72.9734 28.6213 72.6994L5.00685 61.3803C3.38004 60.6097 3.38004 58.2979 5.00685 57.5273L29.546 45.7458L54.0851 57.5273C55.7119 58.2979 55.7119 60.6097 54.0851 61.3803Z" stroke="#1D1D1B" stroke-miterlimit="10"/>
<path d="M23.4841 40.3687C25.7788 40.1633 28.0906 40.0262 30.3852 39.9749C31.6695 39.9406 32.9539 39.9235 34.2382 40.0434C34.8033 40.0948 35.4027 40.1804 35.8479 40.54C36.1047 40.7626 36.2931 41.0537 36.4986 41.3106C36.9267 41.8757 37.4404 42.3723 37.9884 42.8175C38.3309 43.0915 38.6734 43.3655 39.033 43.6224C39.444 43.9135 39.8721 44.1874 40.2317 44.5471C40.5742 44.9067 40.8481 45.3861 40.831 45.8827C40.4372 46.0197 40.0091 45.8999 39.6152 45.7971C37.6459 45.2834 35.591 45.232 33.5532 45.1807C30.4708 45.1122 27.3884 45.0779 24.3061 45.1122C23.6211 45.1122 22.9362 45.1293 22.2512 45.2492C21.669 45.3519 21.0867 45.5232 20.5045 45.5232C20.1106 45.5232 19.7168 45.4204 19.3058 45.4546C18.4667 45.506 17.6447 46.054 16.8228 45.8485C17.3194 45.0094 18.1242 44.3929 18.8948 43.8107C20.4531 42.6291 22.0114 41.4476 23.4841 40.3687Z" fill="#EBEBEB"/>
<path d="M26.7378 48.6225C29.7174 48.4684 32.697 48.3143 35.6767 48.1773C36.0877 48.1602 36.4815 48.143 36.8925 48.143C37.0809 48.143 37.2521 48.1601 37.4405 48.1601C37.6117 48.143 37.7829 48.1259 37.9542 48.0917C39.17 47.869 40.3858 47.6464 41.6017 47.4238C41.2078 48.0745 41.3277 48.8965 41.1564 49.65C41.0708 50.0267 40.9167 50.3863 40.7626 50.7459C39.5468 53.5543 38.2795 56.3456 36.9781 59.1197C36.8411 59.3937 36.7213 59.6848 36.4815 59.8903C36.0877 60.2499 35.5226 60.3013 34.9917 60.3184C33.7074 60.3698 32.4231 60.3355 31.1387 60.3184C30.214 60.3013 29.2893 60.2842 28.3646 60.2499C26.3953 60.1985 24.4089 60.1643 22.4396 60.1129C22.08 60.1129 21.7032 60.0958 21.395 59.9074C21.0525 59.6848 20.8641 59.2909 20.71 58.8971C20.1106 57.4415 19.4942 55.986 18.8948 54.5475C18.4667 53.5372 18.0557 52.5268 17.7646 51.4823C17.6276 51.0199 17.5249 50.5404 17.3365 50.0952C17.0283 49.3588 16.4632 48.7081 16.3091 47.9375C16.2748 47.7492 16.2748 47.5266 16.4289 47.4067C16.5659 47.3039 16.7714 47.3382 16.9427 47.3895C18.0044 47.6807 19.049 47.9889 20.1107 48.28C20.4532 48.3828 20.8128 48.4684 21.1724 48.5026C21.4292 48.5198 21.7032 48.5198 21.9601 48.5026C23.6896 48.4341 25.4021 48.691 26.7378 48.6225Z" fill="#C79FFF"/>
<path d="M41.8757 47.7665L37.4062 59.1542C37.2178 59.822 36.6014 60.2844 35.9164 60.2844H22.3711C21.669 60.2844 21.0696 59.822 20.8813 59.1542L16.4461 47.7665C16.292 47.2014 16.4632 46.602 16.8913 46.2082L23.5013 40.1119H34.8205L41.4304 46.2082C41.8757 46.602 42.0469 47.2014 41.8757 47.7665Z" stroke="#181919" stroke-miterlimit="10"/>
<path d="M28.9469 48.52C35.9833 48.52 41.6873 47.7533 41.6873 46.8075C41.6873 45.8618 35.9833 45.0951 28.9469 45.0951C21.9105 45.0951 16.2064 45.8618 16.2064 46.8075C16.2064 47.7533 21.9105 48.52 28.9469 48.52Z" fill="#B180E0" stroke="black" stroke-miterlimit="10"/>
<path d="M28.3988 45.1293C22.1827 27.4228 30.214 8.27783 46.5506 1C46.1568 17.0797 31.6525 32.0977 28.3988 45.1293Z" fill="white" stroke="#181919" stroke-miterlimit="10"/>
<path d="M46.2767 1.63361C33.9643 17.3537 24.5288 35.6939 29.1352 56.9794" stroke="#181919" stroke-miterlimit="10" stroke-linecap="round" stroke-linejoin="round"/>
<path d="M28.2618 21.7375C28.5872 22.7479 28.9811 23.724 29.4263 24.6829L28.2618 21.7375Z" fill="white"/>
<path d="M29.0838 21.4806L29.4263 24.7L27.4569 22.0115C27.1658 21.6176 27.2515 21.0525 27.6453 20.7614C28.0392 20.4703 28.6043 20.5559 28.8954 20.9498C28.9981 21.0868 29.0495 21.2237 29.0666 21.3779L29.0838 21.4806Z" fill="#181919"/>
<path d="M34.8033 10.5553L35.0259 14.6822L33.1594 11.0005C32.9367 10.5724 33.108 10.0415 33.5361 9.81891C33.9642 9.59629 34.4951 9.76754 34.7177 10.1956C34.7691 10.3155 34.8033 10.4354 34.8033 10.5553Z" fill="#181919"/>
<path d="M42.6291 17.8161L37.8 20.1107L41.653 16.3948C41.9955 16.0694 42.5435 16.0694 42.886 16.4119C43.2113 16.7544 43.2113 17.3023 42.8688 17.6448C42.7832 17.7304 42.6976 17.7818 42.6291 17.8161Z" fill="#181919"/>
<path d="M37.0468 28.4503L31.5499 32.2176L35.9166 27.1659C36.2248 26.8063 36.7729 26.7721 37.1325 27.0803C37.4921 27.3885 37.5263 27.9365 37.2181 28.2961C37.1667 28.3646 37.0982 28.416 37.0468 28.4503Z" fill="#181919"/>
<path d="M23.5184 40.1118V37.3548C23.5184 37.1151 23.7068 36.9267 23.9465 36.9267H34.4266C34.6663 36.9267 34.8547 37.1151 34.8547 37.3548V40.1118H23.5184Z" fill="#EBEBEB" stroke="#181919" stroke-miterlimit="10"/>
<path d="M90.4231 21.7375V44.4101C90.4231 45.2321 89.9436 46.0026 89.2073 46.3451L64.925 57.9897C63.5037 58.6746 61.8597 57.6301 61.8597 56.0546V33.3992C61.8597 32.5772 62.3393 31.8066 63.0756 31.4641L87.3579 19.8196C88.762 19.1175 90.4231 20.1621 90.4231 21.7375Z" fill="#56B381" stroke="#181919" stroke-miterlimit="10" stroke-linecap="round" stroke-linejoin="round"/>
<path d="M118.987 33.3991V56.0546C118.987 57.6471 117.343 58.6746 115.921 57.9896L90.4233 45.7629V21.7375C90.4233 20.1449 92.0672 19.1174 93.4886 19.8024L117.771 31.4469C118.524 31.8066 118.987 32.56 118.987 33.3991Z" fill="#FF88B6" stroke="#181919" stroke-miterlimit="10" stroke-linecap="round" stroke-linejoin="round"/>
<path d="M114.962 61.3802L91.3478 72.6994C90.7655 72.9734 90.0806 72.9734 89.4984 72.6994L65.8839 61.3802C64.2571 60.6096 64.2571 58.2978 65.8839 57.5272L90.4231 45.7457L114.962 57.5272C116.589 58.2978 116.589 60.6096 114.962 61.3802Z" fill="#EBEBEB"/>
<mask id="mask1_525_47765" style="mask-type:luminance" maskUnits="userSpaceOnUse" x="64" y="45" width="53" height="28">
<path d="M114.962 61.3802L91.3478 72.6994C90.7655 72.9734 90.0806 72.9734 89.4984 72.6994L65.8839 61.3802C64.2571 60.6096 64.2571 58.2978 65.8839 57.5272L90.4231 45.7457L114.962 57.5272C116.589 58.2978 116.589 60.6096 114.962 61.3802Z" fill="white"/>
</mask>
<g mask="url(#mask1_525_47765)">
<path d="M88.6594 83.539C104.277 76.0043 119.894 68.4867 135.511 60.952L88.6594 83.539Z" fill="#EBEBEB"/>
<path d="M88.6594 83.539C104.277 76.0043 119.894 68.4867 135.511 60.952" stroke="#1D1D1B" stroke-miterlimit="10"/>
<path d="M84.2583 81.039C99.8757 73.5043 115.493 65.9867 131.11 58.452L84.2583 81.039Z" fill="#EBEBEB"/>
<path d="M84.2583 81.039C99.8757 73.5043 115.493 65.9867 131.11 58.452" stroke="#1D1D1B" stroke-miterlimit="10"/>
<path d="M79.8403 78.5386C95.4577 71.0039 111.075 63.4863 126.692 55.9516L79.8403 78.5386Z" fill="#EBEBEB"/>
<path d="M79.8403 78.5386C95.4577 71.0039 111.075 63.4863 126.692 55.9516" stroke="#1D1D1B" stroke-miterlimit="10"/>
<path d="M75.4392 76.0385C91.0566 68.5038 106.674 60.9863 122.291 53.4516L75.4392 76.0385Z" fill="#EBEBEB"/>
<path d="M75.4392 76.0385C91.0566 68.5038 106.674 60.9863 122.291 53.4516" stroke="#1D1D1B" stroke-miterlimit="10"/>
<path d="M71.0212 73.5214C86.6386 65.9867 102.256 58.4691 117.873 50.9344L71.0212 73.5214Z" fill="#EBEBEB"/>
<path d="M71.0212 73.5214C86.6386 65.9867 102.256 58.4691 117.873 50.9344" stroke="#1D1D1B" stroke-miterlimit="10"/>
<path d="M66.6204 71.021C82.2377 63.4864 97.8551 55.9688 113.472 48.4341L66.6204 71.021Z" fill="#EBEBEB"/>
<path d="M66.6204 71.021C82.2377 63.4864 97.8551 55.9688 113.472 48.4341" stroke="#1D1D1B" stroke-miterlimit="10"/>
<path d="M62.2021 68.521C77.8195 60.9863 93.4369 53.4688 109.054 45.9341L62.2021 68.521Z" fill="#EBEBEB"/>
<path d="M62.2021 68.521C77.8195 60.9863 93.4369 53.4688 109.054 45.9341" stroke="#1D1D1B" stroke-miterlimit="10"/>
<path d="M57.8014 66.0209C73.4188 58.4862 89.0362 50.9686 104.654 43.4339L57.8014 66.0209Z" fill="#EBEBEB"/>
<path d="M57.8014 66.0209C73.4188 58.4862 89.0362 50.9686 104.654 43.4339" stroke="#1D1D1B" stroke-miterlimit="10"/>
<path d="M53.4005 63.5205C69.0179 55.9858 84.6352 48.4682 100.253 40.9335L53.4005 63.5205Z" fill="#EBEBEB"/>
<path d="M53.4005 63.5205C69.0179 55.9858 84.6352 48.4682 100.253 40.9335" stroke="#1D1D1B" stroke-miterlimit="10"/>
<path d="M48.9823 61.0206C64.5997 53.4859 80.2171 45.9683 95.8344 38.4336L48.9823 61.0206Z" fill="#EBEBEB"/>
<path d="M48.9823 61.0206C64.5997 53.4859 80.2171 45.9683 95.8344 38.4336" stroke="#1D1D1B" stroke-miterlimit="10"/>
</g>
<path d="M114.962 61.3802L91.3478 72.6994C90.7655 72.9734 90.0806 72.9734 89.4984 72.6994L65.8839 61.3802C64.2571 60.6096 64.2571 58.2978 65.8839 57.5272L90.4231 45.7457L114.962 57.5272C116.589 58.2978 116.589 60.6096 114.962 61.3802Z" stroke="#1D1D1B" stroke-miterlimit="10"/>
<path d="M89.9265 41.0192L84.4638 35.6422C84.2412 35.4196 84.2412 35.0771 84.4638 34.8545L89.9265 29.4774C90.1491 29.2548 90.5087 29.2548 90.7142 29.4774L96.1769 34.8545C96.3995 35.0771 96.3995 35.4196 96.1769 35.6422L90.7142 41.0192C90.4916 41.2247 90.1491 41.2247 89.9265 41.0192Z" fill="#FF88B6" stroke="black" stroke-miterlimit="10"/>
<path d="M96.1938 47.1668L90.7312 41.7898C90.5086 41.5671 90.5086 41.2247 90.7312 41.0021L96.1938 35.625C96.4164 35.4024 96.776 35.4024 96.9815 35.625L102.444 41.0021C102.667 41.2247 102.667 41.5671 102.444 41.7898L96.9815 47.1668C96.7589 47.3723 96.3993 47.3723 96.1938 47.1668Z" fill="white" stroke="black" stroke-miterlimit="10"/>
<path d="M102.461 53.3145L96.9987 47.9374C96.7761 47.7148 96.7761 47.3723 96.9987 47.1497L102.461 41.7727C102.684 41.5501 103.044 41.5501 103.249 41.7727L108.712 47.1497C108.934 47.3723 108.934 47.7148 108.712 47.9374L103.249 53.3145C103.026 53.5371 102.684 53.5371 102.461 53.3145Z" fill="#B180E0" stroke="black" stroke-miterlimit="10"/>
<path d="M89.9265 53.3145L84.4638 47.9374C84.2412 47.7148 84.2412 47.3723 84.4638 47.1497L89.9265 41.7727C90.1491 41.5501 90.5087 41.5501 90.7142 41.7727L96.1769 47.1497C96.3995 47.3723 96.3995 47.7148 96.1769 47.9374L90.7142 53.3145C90.4916 53.5371 90.1491 53.5371 89.9265 53.3145Z" fill="#5A66FF" stroke="black" stroke-miterlimit="10"/>
<path d="M96.1938 59.4623L90.7312 54.0853C90.5086 53.8626 90.5086 53.5201 90.7312 53.2975L96.1938 47.9205C96.4164 47.6979 96.776 47.6979 96.9815 47.9205L102.444 53.2975C102.667 53.5201 102.667 53.8626 102.444 54.0853L96.9815 59.4623C96.7589 59.6849 96.3993 59.6849 96.1938 59.4623Z" fill="white" stroke="black" stroke-miterlimit="10"/>
<path d="M77.3913 53.3145L71.9287 47.9374C71.7061 47.7148 71.7061 47.3723 71.9287 47.1497L77.3913 41.7727C77.614 41.5501 77.9736 41.5501 78.1791 41.7727L83.6417 47.1497C83.8643 47.3723 83.8643 47.7148 83.6417 47.9374L78.1791 53.3145C77.9736 53.5371 77.614 53.5371 77.3913 53.3145Z" fill="#FFF58C" stroke="black" stroke-miterlimit="10"/>
<path d="M83.6589 59.4623L78.1963 54.0853C77.9736 53.8626 77.9736 53.5201 78.1963 53.2975L83.6589 47.9205C83.8815 47.6979 84.2411 47.6979 84.4466 47.9205L89.9093 53.2975C90.1319 53.5201 90.1319 53.8626 89.9093 54.0853L84.4466 59.4623C84.2411 59.6849 83.8815 59.6849 83.6589 59.4623Z" fill="white" stroke="black" stroke-miterlimit="10"/>
<path d="M89.9265 65.627L84.4638 60.2499C84.2412 60.0273 84.2412 59.6848 84.4638 59.4622L89.9265 54.0852C90.1491 53.8626 90.5087 53.8626 90.7142 54.0852L96.1769 59.4622C96.3995 59.6848 96.3995 60.0273 96.1769 60.2499L90.7142 65.627C90.4916 65.8325 90.1491 65.8325 89.9265 65.627Z" fill="#56B381" stroke="black" stroke-miterlimit="10"/>
<path d="M83.6589 47.1668L78.1963 41.7898C77.9736 41.5671 77.9736 41.2247 78.1963 41.0021L83.6589 35.625C83.8815 35.4024 84.2411 35.4024 84.4466 35.625L89.9093 41.0021C90.1319 41.2247 90.1319 41.5671 89.9093 41.7898L84.4466 47.1668C84.2411 47.3723 83.8815 47.3723 83.6589 47.1668Z" fill="white"/>
<path d="M83.6589 47.1668L78.1963 41.7898C77.9736 41.5671 77.9736 41.2247 78.1963 41.0021L83.6589 35.625C83.8815 35.4024 84.2411 35.4024 84.4466 35.625L89.9093 41.0021C90.1319 41.2247 90.1319 41.5671 89.9093 41.7898L84.4466 47.1668C84.2411 47.3723 83.8815 47.3723 83.6589 47.1668Z" stroke="black" stroke-miterlimit="10"/>
<path d="M59.9417 65.8326V88.5052C59.9417 89.3272 59.4623 90.0977 58.7259 90.4402L34.4437 102.085C33.0224 102.77 31.3784 101.725 31.3784 100.15V77.4771C31.3784 76.6552 31.8579 75.8846 32.5942 75.5421L56.8765 63.8976C58.2978 63.2126 59.9417 64.2401 59.9417 65.8326Z" fill="#5A66FF" stroke="#181919" stroke-miterlimit="10" stroke-linecap="round" stroke-linejoin="round"/>
<path d="M88.5393 77.4769V100.132C88.5393 101.725 86.8953 102.752 85.474 102.067L59.976 89.8406V65.8152C59.976 64.2227 61.6198 63.1952 63.0412 63.8802L87.3235 75.5247C88.0598 75.9014 88.5393 76.6549 88.5393 77.4769Z" fill="#FFF58C" stroke="#181919" stroke-miterlimit="10" stroke-linecap="round" stroke-linejoin="round"/>
<path d="M84.6007 105.475L60.9863 116.794C60.4041 117.068 59.7191 117.068 59.1369 116.794L35.5225 105.475C33.8957 104.705 33.8957 102.393 35.5225 101.622L60.0616 89.8408L84.6007 101.622C86.2447 102.393 86.2447 104.705 84.6007 105.475Z" fill="#EBEBEB"/>
<mask id="mask2_525_47765" style="mask-type:luminance" maskUnits="userSpaceOnUse" x="34" y="89" width="52" height="28">
<path d="M84.6007 105.475L60.9863 116.794C60.4041 117.068 59.7191 117.068 59.1369 116.794L35.5225 105.475C33.8957 104.705 33.8957 102.393 35.5225 101.622L60.0616 89.8408L84.6007 101.622C86.2447 102.393 86.2447 104.705 84.6007 105.475Z" fill="white"/>
</mask>
<g mask="url(#mask2_525_47765)">
<path d="M58.3152 127.634C73.9326 120.1 89.5499 112.582 105.167 105.047L58.3152 127.634Z" fill="#EBEBEB"/>
<path d="M58.3152 127.634C73.9326 120.1 89.5499 112.582 105.167 105.047" stroke="#1D1D1B" stroke-miterlimit="10"/>
<path d="M53.8969 125.134C69.5142 117.599 85.1316 110.082 100.749 102.547L53.8969 125.134Z" fill="#EBEBEB"/>
<path d="M53.8969 125.134C69.5142 117.599 85.1316 110.082 100.749 102.547" stroke="#1D1D1B" stroke-miterlimit="10"/>
<path d="M49.496 122.634C65.1133 115.099 80.7307 107.582 96.348 100.047L49.496 122.634Z" fill="#EBEBEB"/>
<path d="M49.496 122.634C65.1133 115.099 80.7307 107.582 96.348 100.047" stroke="#1D1D1B" stroke-miterlimit="10"/>
<path d="M45.095 120.134C60.7123 112.599 76.3297 105.081 91.947 97.5467L45.095 120.134Z" fill="#EBEBEB"/>
<path d="M45.095 120.134C60.7123 112.599 76.3297 105.081 91.947 97.5467" stroke="#1D1D1B" stroke-miterlimit="10"/>
<path d="M40.677 117.616C56.2944 110.082 71.9118 102.564 87.5291 95.0295L40.677 117.616Z" fill="#EBEBEB"/>
<path d="M40.677 117.616C56.2944 110.082 71.9118 102.564 87.5291 95.0295" stroke="#1D1D1B" stroke-miterlimit="10"/>
<path d="M36.2761 115.116C51.8935 107.581 67.5108 100.064 83.1282 92.5292L36.2761 115.116Z" fill="#EBEBEB"/>
<path d="M36.2761 115.116C51.8935 107.581 67.5108 100.064 83.1282 92.5292" stroke="#1D1D1B" stroke-miterlimit="10"/>
<path d="M31.8579 112.616C47.4753 105.081 63.0927 97.5639 78.71 90.0292L31.8579 112.616Z" fill="#EBEBEB"/>
<path d="M31.8579 112.616C47.4753 105.081 63.0927 97.5639 78.71 90.0292" stroke="#1D1D1B" stroke-miterlimit="10"/>
<path d="M27.457 110.116C43.0744 102.581 58.6918 95.0638 74.3092 87.5291L27.457 110.116Z" fill="#EBEBEB"/>
<path d="M27.457 110.116C43.0744 102.581 58.6918 95.0638 74.3092 87.5291" stroke="#1D1D1B" stroke-miterlimit="10"/>
<path d="M23.0391 107.616C38.6564 100.081 54.2738 92.5636 69.8911 85.0289L23.0391 107.616Z" fill="#EBEBEB"/>
<path d="M23.0391 107.616C38.6564 100.081 54.2738 92.5636 69.8911 85.0289" stroke="#1D1D1B" stroke-miterlimit="10"/>
<path d="M18.6379 105.116C34.2553 97.581 49.8727 90.0635 65.4901 82.5288L18.6379 105.116Z" fill="#EBEBEB"/>
<path d="M18.6379 105.116C34.2553 97.581 49.8727 90.0635 65.4901 82.5288" stroke="#1D1D1B" stroke-miterlimit="10"/>
</g>
<path d="M84.6007 105.475L60.9863 116.794C60.4041 117.068 59.7191 117.068 59.1369 116.794L35.5225 105.475C33.8957 104.705 33.8957 102.393 35.5225 101.622L60.0616 89.8408L84.6007 101.622C86.2447 102.393 86.2447 104.705 84.6007 105.475Z" stroke="#1D1D1B" stroke-miterlimit="10"/>
<path d="M49.7186 103.455V88.4709L55.9177 82.8028V97.7866L49.7186 103.455Z" fill="#B180E0" stroke="#181919" stroke-miterlimit="10" stroke-linecap="round" stroke-linejoin="round"/>
<path d="M71.381 103.455V88.471L65.182 82.8029V97.7866L71.381 103.455Z" fill="#B180E0" stroke="#181919" stroke-miterlimit="10" stroke-linecap="round" stroke-linejoin="round"/>
<path d="M69.3432 80.1656C69.3432 68.658 60.5412 61.3802 60.5412 61.3802C60.5412 61.3802 51.7394 68.658 51.7394 80.1656C51.7394 87.0838 53.1607 93.9678 55.3697 98.3516H65.7299C67.9218 93.9506 69.3432 87.0838 69.3432 80.1656Z" fill="#5A66FF" stroke="#181919" stroke-miterlimit="10" stroke-linecap="round" stroke-linejoin="round"/>
<path d="M60.5412 82.1176C63.6716 82.1176 66.2093 79.5799 66.2093 76.4495C66.2093 73.319 63.6716 70.7813 60.5412 70.7813C57.4108 70.7813 54.873 73.319 54.873 76.4495C54.873 79.5799 57.4108 82.1176 60.5412 82.1176Z" fill="#EBEBEB" stroke="#181919" stroke-miterlimit="10" stroke-linecap="round" stroke-linejoin="round"/>
<path d="M61.9111 88.077C61.9111 87.5119 61.3803 87.0495 60.7296 87.0495C60.0788 87.0495 59.548 87.5119 59.548 88.077C59.548 88.0941 59.548 88.1112 59.548 88.1284L60.7296 105.492L61.9111 88.0941C61.9111 88.077 61.9111 88.077 61.9111 88.077Z" fill="#56B381" stroke="#181919" stroke-miterlimit="10" stroke-linecap="round" stroke-linejoin="round"/>
<path d="M60.9179 73.3842L61.483 75.0966C61.5344 75.2507 61.6885 75.3706 61.8426 75.3706H63.6406C64.0173 75.3706 64.1715 75.8501 63.8632 76.0727L62.4077 77.1344C62.2707 77.2371 62.2193 77.4084 62.2707 77.5625L62.8358 79.2749C62.9556 79.6345 62.5446 79.9256 62.2364 79.703L60.7809 78.6413C60.6439 78.5386 60.4555 78.5386 60.3356 78.6413L58.8801 79.703C58.5718 79.9256 58.178 79.6345 58.2807 79.2749L58.8458 77.5625C58.8972 77.4084 58.8458 77.2371 58.7088 77.1344L57.2533 76.0727C56.945 75.8501 57.0991 75.3706 57.4759 75.3706H59.2739C59.4452 75.3706 59.5822 75.2679 59.6335 75.0966L60.1987 73.3842C60.3014 73.0417 60.798 73.0417 60.9179 73.3842Z" fill="#FFF58C" stroke="#181919" stroke-miterlimit="10" stroke-linecap="round" stroke-linejoin="round"/>
</svg>
