<svg width="175" height="175" viewBox="0 0 175 175" fill="none" xmlns="http://www.w3.org/2000/svg">
<path d="M87.3354 174.329C135.199 174.329 174 135.528 174 87.6647C174 39.8011 135.199 1 87.3354 1C39.4718 1 0.670654 39.8011 0.670654 87.6647C0.670654 135.528 39.4718 174.329 87.3354 174.329Z" fill="#FF88B6"/>
<path d="M153.277 142.268C159.655 137.212 164.98 128 167.297 122.694C168.561 119.764 168.714 117.351 169.71 114.727C170.668 112.199 171.587 110.59 172.143 107.928C154.503 106.109 139.392 106.262 122.136 103.216C119.473 102.757 117.539 102.623 112.31 101.435C101.776 100.707 89.6147 98.4858 79.0426 98.2751C73.7182 98.1602 68.7194 99.52 63.4716 100.42C56.864 100.42 50.8502 102.259 44.7214 103.14C31.2573 105.074 17.1228 107.047 3.33301 108.943C4.30978 122.273 13.7902 134.531 21.432 143.073C25.952 146.329 32.6745 157.399 38.0372 158.912C45.2768 160.942 55.9639 169.886 63.4142 170.959C76.5336 172.836 89.0593 175.9 107.848 171.878C119.167 169.465 130.007 163.106 139.219 157.092C141.192 155.79 144.774 151.461 146.957 150.561C150.424 149.144 151.324 145.352 153.277 142.268Z" fill="white"/>
<path d="M112.444 114.21C112.98 115.397 111.965 116.891 112.502 118.079C112.712 118.538 113.095 118.864 113.498 119.17C114.244 119.764 114.972 120.377 115.719 120.971C116.524 121.622 117.328 122.292 118.209 122.867C118.956 123.365 119.722 123.805 120.469 124.284C122.518 125.567 124.414 127.061 126.291 128.555C128.705 130.47 131.137 132.366 133.55 134.282C133.665 134.377 133.799 134.473 133.952 134.512C134.086 134.531 150.462 146.922 150.596 146.884C153.239 146.137 153.028 141.732 155.671 140.966C152.817 138.227 135.58 128.038 132.209 125.969C129.547 124.322 127.134 122.254 124.319 120.894C123.342 120.434 122.327 120.051 121.388 119.534C120.373 118.979 119.473 118.27 118.535 117.581C116.524 116.106 114.417 114.765 112.214 113.597C112.119 113.865 112.233 114.172 112.444 114.21Z" fill="#56B381"/>
<path d="M63.0887 121.584C58.0899 126.238 53.0911 130.911 48.0732 135.565C47.6327 135.986 30.338 152.515 30.5295 153.109C30.7019 153.664 33.0002 154.794 33.5748 154.909C34.4558 155.1 35.8922 157.246 36.7732 157.437C37.252 157.552 52.3441 138.821 52.823 138.725C53.704 138.572 54.3551 137.825 54.9106 137.116C57.6877 133.65 60.4648 130.202 63.2419 126.736C63.5292 126.372 63.8165 126.027 64.0463 125.625C64.4485 124.955 64.6783 124.112 64.3336 123.422C63.9888 122.733 62.878 122.465 62.4375 123.097C62.3609 123.193 62.3226 123.365 62.4375 123.422C62.5524 123.48 62.5524 123.193 63.0887 121.584Z" fill="#56B381"/>
<path d="M11.2423 128.383C10.9359 127.751 10.6295 127.119 10.3039 126.487C10.2081 126.276 10.0932 126.046 10.1698 125.817C10.2464 125.568 10.4954 125.433 10.7252 125.319C16.5476 122.427 22.9062 120.856 29.0733 118.768C31.4865 117.945 33.8614 117.045 36.2363 116.144C45.2379 112.735 54.2587 109.345 63.2603 105.936C63.3753 106.702 63.4136 107.488 63.337 108.254C63.3178 108.56 63.2604 108.886 63.1071 109.154C62.8965 109.518 62.4943 109.709 62.1304 109.901C49.1067 116.489 35.6042 122.12 22.8104 129.168C22.255 129.475 21.6804 129.8 21.0292 129.896C20.4355 129.992 14.843 132.903 14.2493 132.807C11.6254 132.367 12.7554 130.164 11.2423 128.383Z" fill="#5A66FF"/>
<path d="M113.115 123.652C112.559 125.759 112.042 128.096 113.057 130.011C113.383 130.643 113.862 131.16 114.341 131.696C116.103 133.612 117.922 135.488 119.799 137.289C120.125 137.595 137.726 158.529 138.147 158.682C138.722 158.854 143.433 153.415 144.008 153.224C145.138 152.86 124.97 137.116 126.1 136.753C126.234 136.714 126.407 136.638 126.445 136.484C126.483 136.35 126.368 136.216 126.272 136.101C122.327 132.098 117.386 128.919 114.589 124.054C114.417 123.767 114.245 123.442 113.938 123.327C113.632 123.212 113.191 123.403 113.115 123.652Z" fill="#5A66FF"/>
<path d="M170.821 108.656C153.833 106.664 136.845 104.692 119.856 102.719C118.611 102.585 117.386 102.432 116.141 102.297C114.743 102.144 113.345 101.972 111.946 101.934C111.563 102.585 111.87 103.447 112.406 103.964C112.961 104.481 130.448 108.062 131.175 108.273C143.969 112.161 141.058 111.069 154.178 113.617C155.805 113.923 157.893 115.015 159.54 115.225C160.843 115.398 162.605 115.991 163.907 116.183C166.109 116.528 166.952 116.049 169.021 116.872C170.438 114.057 170.629 111.969 170.821 108.656Z" fill="#56B381"/>
<path d="M62.8393 103.389C43.9167 108.426 24.86 112.984 5.82251 116.872C6.41624 119.611 7.4696 122.235 8.94434 124.61C9.15501 124.955 9.42316 125.318 9.82536 125.395C10.0935 125.453 10.3616 125.357 10.6106 125.261C11.4533 124.955 12.3152 124.667 13.1579 124.361C29.5332 118.558 45.8894 112.735 62.2647 106.932C63.05 106.645 63.8735 106.358 64.4864 105.764C65.0801 105.17 65.9228 104.634 65.5206 103.944C65.1567 103.293 64.1608 102.738 62.8393 103.389Z" fill="#56B381"/>
<path d="M97.3717 136.695C97.4483 138.629 97.908 140.545 98.6932 142.307C98.8273 142.594 98.9614 142.881 99.2104 143.073C99.5168 143.303 107.427 171.84 107.81 171.878C108.461 171.936 114.245 169.867 114.915 169.829C115.662 169.79 103.903 143.169 104.094 142.46C104.19 142.058 104.018 141.656 103.845 141.273C103.328 140.123 102.811 138.993 102.313 137.844C102.179 137.538 101.949 137.27 101.834 136.963C98.789 129.168 97.6207 132.443 96.3375 132.903C95.9736 133.037 97.3526 136.58 97.3717 136.695Z" fill="#5A66FF"/>
<path d="M142.188 125.28C141.364 127.368 139.736 129.13 137.725 130.126C138.243 130.375 138.721 130.739 139.085 131.198C139.468 131.677 141.001 131.811 141.594 132.022C145.406 133.286 154.848 140.87 156.169 140.315C158.755 139.223 158.41 135.661 160.057 133.765C157.146 131.543 145.827 125.836 142.188 125.28Z" fill="#FFF58C"/>
<path d="M112.865 104.174C112.559 105.4 112.31 106.875 113.191 107.794C113.65 108.273 114.321 108.484 114.953 108.656C121.196 110.418 127.593 111.701 133.665 114C135.637 114.746 137.553 115.608 139.544 116.336C141 116.872 142.475 117.332 143.95 117.811C150.729 119.975 157.471 122.312 164.155 124.802C164.577 124.955 165.132 125.108 165.439 124.782C165.534 124.687 165.592 124.553 165.668 124.418C166.569 122.427 167.469 120.435 168.388 118.462C168.541 118.136 168.675 117.773 168.541 117.447C168.388 117.102 167.967 116.987 167.603 116.911C163.217 115.934 158.831 114.957 154.426 113.98C151.208 113.272 147.991 112.544 144.754 111.95C142.494 111.529 140.157 111.491 137.993 110.763C130.083 108.062 121.043 106.932 112.865 104.174Z" fill="#5A66FF"/>
<path d="M62.4754 117.178C58.1853 120.454 53.876 123.69 49.5667 126.946C48.475 127.77 47.3833 128.593 46.2916 129.398C44.3572 130.853 42.4228 132.309 40.5076 133.764C39.8756 134.243 25.2431 145.773 24.975 146.52C26.239 146.98 26.8328 149.757 28.116 150.159C29.0353 150.465 24.975 158.854 45.5255 137.078C45.8894 136.695 46.4257 136.503 46.8087 136.12C51.6926 131.447 56.5573 126.774 61.4412 122.101C61.8625 121.698 62.3031 121.258 62.4946 120.703C62.9159 119.553 62.1115 118.136 62.4754 117.178Z" fill="#FFF58C"/>
<path d="M71.9947 126.908C71.0371 128.134 65.2722 138.706 64.3146 139.913C63.8932 140.449 51.6548 165.52 52.0187 166.094C52.1911 166.382 54.8724 168.029 55.1789 168.144C55.8875 168.412 57.6878 168.508 58.4348 168.68C58.8944 168.795 67.7811 143.15 68.2217 142.977C68.7388 142.786 69.1027 142.307 69.4091 141.828C70.4433 140.239 71.3243 138.553 72.0521 136.791C72.1287 136.6 75.4996 126.908 75.4996 126.908C75.4996 126.908 73.2396 126.564 71.9947 126.908Z" fill="#5A66FF"/>
<path d="M86.5309 127.54C84.7881 127.368 83.0069 127.521 81.3215 128C81.264 133.171 79.9425 138.247 78.9083 143.322C78.8508 143.609 74.733 173.238 74.9246 173.449C75.0778 173.621 79.9617 173.832 80.1723 173.87C82.5281 174.253 82.643 173.832 85.0371 173.87C85.6116 173.889 89.9018 174.215 90.3614 173.87C90.9935 173.372 89.0591 143.226 89.0208 142.422C88.8675 138.323 88.4845 134.225 87.9099 130.164C87.7375 129.092 87.5077 127.636 86.5309 127.54Z" fill="#EBEBEB"/>
<path d="M36.486 74.1815C35.8157 72.6685 34.9729 71.232 33.9579 69.9105C33.4599 69.2402 32.8853 68.589 32.1192 68.2634C31.3531 67.9378 30.3572 68.0336 29.8401 68.6847C29.2081 69.4891 29.5528 70.6383 29.8401 71.5959C30.1274 72.5536 30.2998 73.8176 29.4954 74.4305C29.1506 74.6986 28.691 74.7752 28.3271 75.0051C27.7525 75.369 27.4844 76.0776 27.4269 76.7671C27.3311 78.0311 27.9823 79.3335 29.0357 80.0422C30.0891 80.7508 31.5447 80.8466 32.6747 80.272C33.1535 80.023 33.5748 79.6783 34.0919 79.5059C35.7582 78.9313 37.7884 80.2911 39.2631 79.3527C39.7036 79.0845 40.01 78.644 40.259 78.2035C40.6995 77.4757 41.0826 76.6713 41.0443 75.8094C41.006 74.9667 40.3739 74.0857 39.5312 74.0283C38.9375 73.99 38.4012 74.3156 37.8075 74.4496C37.2521 74.5646 36.486 74.2773 36.486 74.1815Z" fill="#B180E0" stroke="#1D1D1B" stroke-miterlimit="10"/>
<path d="M95.5901 132.022C94.2878 132.673 92.6981 132.673 91.3958 132.041C91.7022 133.592 92.0086 135.144 92.3342 136.676C92.9088 139.472 93.4834 142.268 94.0579 145.065C94.0771 145.141 94.0962 145.218 94.1345 145.275C94.2878 145.467 98.9418 172.606 99.1333 172.74C100.704 173.87 105.032 172.28 106.564 172.184C105.798 168.047 97.1415 135.756 95.5901 132.022Z" fill="#B180E0"/>
<mask id="mask0_457_7125" style="mask-type:luminance" maskUnits="userSpaceOnUse" x="0" y="1" width="174" height="174">
<path d="M86.6647 174.329C134.528 174.329 173.329 135.528 173.329 87.6647C173.329 39.8011 134.528 1 86.6647 1C38.8011 1 0 39.8011 0 87.6647C0 135.528 38.8011 174.329 86.6647 174.329Z" fill="white"/>
</mask>
<g mask="url(#mask0_457_7125)">
<path d="M199.281 111.529L109.111 101.685" stroke="#1D1D1B" stroke-miterlimit="10"/>
<path d="M197.232 123.519L108.652 104.06" stroke="#1D1D1B" stroke-miterlimit="10"/>
<path d="M193.899 135.24L107.905 106.396" stroke="#1D1D1B" stroke-miterlimit="10"/>
<path d="M189.341 146.54L106.947 108.618" stroke="#1D1D1B" stroke-miterlimit="10"/>
<path d="M183.595 157.265L105.74 110.744" stroke="#1D1D1B" stroke-miterlimit="10"/>
<path d="M176.719 167.32L104.304 112.717" stroke="#1D1D1B" stroke-miterlimit="10"/>
<path d="M168.809 176.59L102.676 114.517" stroke="#1D1D1B" stroke-miterlimit="10"/>
<path d="M159.961 184.94L100.857 116.145" stroke="#1D1D1B" stroke-miterlimit="10"/>
<path d="M150.251 192.314L98.884 117.562" stroke="#1D1D1B" stroke-miterlimit="10"/>
<path d="M139.832 198.596L96.7582 118.769" stroke="#1D1D1B" stroke-miterlimit="10"/>
<path d="M128.781 203.71L94.5172 119.745" stroke="#1D1D1B" stroke-miterlimit="10"/>
<path d="M117.251 207.636L92.2 120.454" stroke="#1D1D1B" stroke-miterlimit="10"/>
<path d="M105.357 210.279L89.8057 120.933" stroke="#1D1D1B" stroke-miterlimit="10"/>
<path d="M93.2532 211.639L87.3734 121.124" stroke="#1D1D1B" stroke-miterlimit="10"/>
<path d="M81.0724 211.696L84.9412 121.067" stroke="#1D1D1B" stroke-miterlimit="10"/>
<path d="M68.9678 210.432L82.5277 120.76" stroke="#1D1D1B" stroke-miterlimit="10"/>
<path d="M57.0552 207.885L80.153 120.186" stroke="#1D1D1B" stroke-miterlimit="10"/>
<path d="M45.4871 204.093L77.8738 119.363" stroke="#1D1D1B" stroke-miterlimit="10"/>
<path d="M34.3977 199.056L75.6712 118.309" stroke="#1D1D1B" stroke-miterlimit="10"/>
<path d="M23.9022 192.869L73.6028 117.007" stroke="#1D1D1B" stroke-miterlimit="10"/>
<path d="M14.1345 185.592L71.6876 115.494" stroke="#1D1D1B" stroke-miterlimit="10"/>
<path d="M5.20947 177.318L69.9638 113.789" stroke="#1D1D1B" stroke-miterlimit="10"/>
<path d="M-2.77686 168.125L68.4127 111.912" stroke="#1D1D1B" stroke-miterlimit="10"/>
<path d="M-9.72949 158.127L67.0718 109.882" stroke="#1D1D1B" stroke-miterlimit="10"/>
<path d="M-15.5708 147.44L65.9611 107.717" stroke="#1D1D1B" stroke-miterlimit="10"/>
<path d="M-20.2439 136.197L65.0802 105.439" stroke="#1D1D1B" stroke-miterlimit="10"/>
<path d="M-23.6724 124.514L64.4671 103.083" stroke="#1D1D1B" stroke-miterlimit="10"/>
<path d="M-25.8174 112.525L64.1033 100.67" stroke="#1D1D1B" stroke-miterlimit="10"/>
</g>
<path d="M87.3354 174.329C135.199 174.329 174 135.528 174 87.6647C174 39.8011 135.199 1 87.3354 1C39.4718 1 0.670654 39.8011 0.670654 87.6647C0.670654 135.528 39.4718 174.329 87.3354 174.329Z" stroke="#181919" stroke-miterlimit="10"/>
<path d="M73.718 106.587C76.4568 108.694 79.2722 103.159 76.2078 101.723C79.7318 99.9799 77.4144 94.464 73.9287 95.7664C72.8178 92.0125 67.8765 90.9783 65.4633 93.8128C62.8394 90.6335 57.5342 91.0166 55.3891 94.6364C51.98 92.3764 46.8471 93.7171 44.8744 97.3943C40.9099 92.1849 33.7277 98.1987 37.156 103.408C31.4103 107.373 36.907 117.275 42.6719 112.64C45.1617 116.087 50.4669 116.834 53.742 114.191C56.9213 117.638 62.8969 117.026 65.3484 112.889C68.5851 114.574 73.4307 111.337 72.1283 107.181C70.5004 107.871 69.2938 104.098 71.5538 103.255C73.8137 102.259 75.5949 105.477 73.718 106.587Z" fill="#EBEBEB" stroke="black" stroke-miterlimit="10" stroke-linecap="round" stroke-linejoin="round"/>
<path d="M62.4951 132.347V69.4125C62.4951 57.7486 71.9373 48.3065 83.6011 48.3065H90.2087C101.873 48.3065 111.315 57.7486 111.315 69.4125V132.347H62.4951Z" fill="white" stroke="#1D1D1B" stroke-miterlimit="10"/>
<path d="M140.637 77.4947C139.699 79.9271 137.688 81.8998 135.236 82.8191C133.857 83.3362 132.344 83.5277 131.023 84.1789C129.376 84.9833 128.111 86.4773 127.575 88.2201C127.135 89.6757 127.269 91.4186 128.341 92.4911C130.065 94.234 133.014 93.4104 135.217 92.3571C137.285 91.3803 139.296 90.2886 141.25 89.082C142.878 88.0861 144.468 87.0135 145.713 85.5771C146.728 84.3896 147.494 82.9915 147.934 81.4785C148.356 80.0229 148.432 78.3949 147.781 77.0351C147.053 75.5221 145.406 74.4878 143.721 74.507C142.054 74.5261 141.327 75.7136 140.637 77.4947Z" fill="#B180E0" stroke="#1D1D1B" stroke-miterlimit="10"/>
<path d="M86.8763 83.03C81.3029 82.9917 76.1701 80.3295 73.6228 76.1926C76.2467 72.0748 81.3987 69.5276 86.9912 69.5659C92.5837 69.6042 97.6974 72.2663 100.245 76.4032C97.6016 80.5018 92.4496 83.0875 86.8763 83.03Z" stroke="black" stroke-miterlimit="10" stroke-linecap="round" stroke-linejoin="round"/>
<path d="M91.0702 75.3113C90.2466 75.3113 89.4614 74.9665 88.8868 74.3919C88.3122 73.7982 87.9866 73.013 87.9866 72.1894C87.9866 71.9213 87.8908 71.6531 87.6802 71.4616C87.4886 71.2701 87.2205 71.1552 86.9524 71.1552C85.5734 71.136 84.2519 71.6723 83.2751 72.649C82.2983 73.6067 81.7429 74.9282 81.7238 76.3072C81.7046 77.6861 82.2409 79.0077 83.2177 79.9845C84.1753 80.9612 85.4968 81.5166 86.8758 81.5358C88.2547 81.555 89.5763 81.0187 90.553 80.0419C91.5298 79.0843 92.0852 77.7628 92.1044 76.3838C92.1044 76.1157 92.0086 75.8475 91.7979 75.656C91.6064 75.407 91.3574 75.3113 91.0702 75.3113Z" fill="black"/>
<path d="M87.0102 65.697L86.9528 69.5658" stroke="black" stroke-miterlimit="10" stroke-linecap="round" stroke-linejoin="round"/>
<path d="M80.1727 66.8079L82.1071 70.1595" stroke="black" stroke-miterlimit="10" stroke-linecap="round" stroke-linejoin="round"/>
<path d="M93.7908 66.942L91.799 70.2554" stroke="black" stroke-miterlimit="10" stroke-linecap="round" stroke-linejoin="round"/>
<path d="M88.1589 117.447C84.3476 114.363 79.9042 121.756 84.2327 123.959C79.0232 126.104 82.011 133.86 87.1247 132.328C88.4654 137.576 95.5518 139.338 99.229 135.622C102.811 140.181 110.491 140.008 113.861 135.22C118.65 138.572 126.157 137.097 129.241 132.156C134.623 139.587 145.406 131.83 140.809 124.437C149.389 119.381 142.092 105.381 133.435 111.375C130.064 106.453 122.442 105.055 117.52 108.445C113.153 103.485 104.477 103.906 100.665 109.422C96.1072 106.894 88.8676 110.973 90.4764 116.776C92.8704 115.934 94.3643 121.22 91.0318 122.216C87.7375 123.384 85.3626 118.845 88.1589 117.447Z" fill="#EBEBEB" stroke="black" stroke-miterlimit="10" stroke-linecap="round" stroke-linejoin="round"/>
<path d="M88.4846 12.8173L90.2083 18.1225C90.3616 18.6204 90.8212 18.946 91.3383 18.946H96.9117C98.0608 18.946 98.5397 20.4208 97.6203 21.0911L93.1004 24.3662C92.679 24.6726 92.5066 25.2089 92.6599 25.6877L94.3836 30.9929C94.7475 32.0846 93.4834 33.0039 92.5449 32.3144L88.025 29.0394C87.6036 28.7329 87.0482 28.7329 86.6268 29.0394L82.1069 32.3144C81.1684 32.9848 79.9235 32.0846 80.2682 30.9929L81.992 25.6877C82.1452 25.1897 81.9728 24.6535 81.5514 24.3662L77.0315 21.0911C76.093 20.4208 76.5718 18.946 77.7401 18.946H83.3135C83.8306 18.946 84.2903 18.6204 84.4435 18.1225L86.1672 12.8173C86.5885 11.7064 88.1399 11.7064 88.4846 12.8173Z" fill="#FFF58C" stroke="#181919" stroke-miterlimit="10" stroke-linecap="round" stroke-linejoin="round"/>
<path d="M31.5636 41.2395C41.4463 32.1421 57.1513 23.4469 71.9944 22.2786" stroke="#181919" stroke-miterlimit="10" stroke-linecap="round" stroke-linejoin="round"/>
<path d="M25.7605 48.5364C27.2837 48.5364 28.5185 47.3016 28.5185 45.7785C28.5185 44.2553 27.2837 43.0205 25.7605 43.0205C24.2373 43.0205 23.0026 44.2553 23.0026 45.7785C23.0026 47.3016 24.2373 48.5364 25.7605 48.5364Z" fill="#FFF58C" stroke="#181919" stroke-miterlimit="10" stroke-linecap="round" stroke-linejoin="round"/>
<path d="M143.165 41.2395C133.282 32.1421 117.577 23.4469 102.734 22.2786" stroke="#181919" stroke-miterlimit="10" stroke-linecap="round" stroke-linejoin="round"/>
<path d="M148.949 48.5364C150.472 48.5364 151.706 47.3016 151.706 45.7785C151.706 44.2553 150.472 43.0205 148.949 43.0205C147.425 43.0205 146.191 44.2553 146.191 45.7785C146.191 47.3016 147.425 48.5364 148.949 48.5364Z" fill="#FFF58C" stroke="#181919" stroke-miterlimit="10" stroke-linecap="round" stroke-linejoin="round"/>
</svg>
