<svg width="176" height="176" viewBox="0 0 176 176" fill="none" xmlns="http://www.w3.org/2000/svg">
<path d="M88 175.079C136.049 175.079 175 136.128 175 88.0793C175 40.0306 136.049 1.07935 88 1.07935C39.9512 1.07935 1 40.0306 1 88.0793C1 136.128 39.9512 175.079 88 175.079Z" fill="#EBEBEB"/>
<mask id="mask0_525_43409" style="mask-type:luminance" maskUnits="userSpaceOnUse" x="5" y="40" width="68" height="68">
<path d="M70.5041 107.921C70.2541 107.094 69.5427 106.517 68.8698 105.979C67.87 105.172 66.8703 104.383 65.8705 103.576C64.6977 102.634 63.5248 101.692 62.2174 100.942C57.7377 98.3269 52.3158 98.077 47.3938 96.4427C45.798 95.9044 44.2406 95.2315 42.9332 94.174C40.2992 92.0783 38.9149 88.7906 37.8382 85.599C36.7615 82.4074 35.8387 79.062 33.7814 76.3895C31.8588 75.0436 29.9938 73.6593 27.802 73.1209C24.1105 72.2173 20.1883 73.89 16.4775 73.0633C15.4393 72.8325 14.4588 72.4096 13.5359 71.8905C9.2676 69.5641 5.94142 65.2381 5.47998 60.393C7.22959 52.9908 10.6904 46.1077 15.497 40.8973C15.074 45.3002 14.6318 49.7608 15.497 54.1059C16.3622 58.4319 18.6886 62.7002 22.5724 64.7959C26.6484 67.0069 32.051 66.757 35.2426 70.1024C36.0117 70.9099 36.5693 71.852 37.1461 72.8133C38.8764 75.7165 40.6261 78.639 41.8181 81.7921C42.5487 83.734 43.0871 85.7912 44.1637 87.5601C45.5096 89.7904 47.7014 91.5207 50.297 92.2898C51.3929 93.8664 53.5463 94.2124 55.4497 94.4431C58.3529 94.7892 61.3138 95.2122 63.9286 96.5581C65.9089 97.5771 67.5816 99.096 69.139 100.673C70.2349 101.768 72.619 104.095 72.7536 105.691C72.8689 106.652 71.2924 106.633 70.5041 107.921Z" fill="white"/>
</mask>
<g mask="url(#mask0_525_43409)">
<path d="M5.65311 1.5022L-19.4375 49.8761" stroke="black" stroke-miterlimit="10"/>
<path d="M9.80606 7.25098L-15.2845 55.6057" stroke="black" stroke-miterlimit="10"/>
<path d="M13.9588 12.9805L-11.1318 61.3544" stroke="black" stroke-miterlimit="10"/>
<path d="M18.0925 18.71L-6.97888 67.0839" stroke="black" stroke-miterlimit="10"/>
<path d="M22.2456 24.4397L-2.82581 72.8136" stroke="black" stroke-miterlimit="10"/>
<path d="M26.3985 30.1882L1.32715 78.5429" stroke="black" stroke-miterlimit="10"/>
<path d="M30.5512 35.9177L5.47986 84.2917" stroke="black" stroke-miterlimit="10"/>
<path d="M34.7043 41.6472L9.63293 90.0211" stroke="black" stroke-miterlimit="10"/>
<path d="M38.8573 47.396L13.7859 95.7507" stroke="black" stroke-miterlimit="10"/>
<path d="M43.01 53.1254L17.9386 101.499" stroke="black" stroke-miterlimit="10"/>
<path d="M47.1631 58.855L22.0917 107.229" stroke="black" stroke-miterlimit="10"/>
<path d="M51.316 64.5845L26.2446 112.958" stroke="black" stroke-miterlimit="10"/>
<path d="M55.469 70.3333L30.3976 118.688" stroke="black" stroke-miterlimit="10"/>
<path d="M59.6218 76.0626L34.5504 124.437" stroke="black" stroke-miterlimit="10"/>
<path d="M63.7747 81.7922L38.6841 130.166" stroke="black" stroke-miterlimit="10"/>
<path d="M67.9278 87.5216L42.8372 135.895" stroke="black" stroke-miterlimit="10"/>
<path d="M72.0807 93.2704L46.9901 141.625" stroke="black" stroke-miterlimit="10"/>
<path d="M76.2334 98.9996L51.1428 147.374" stroke="black" stroke-miterlimit="10"/>
<path d="M80.3865 104.729L55.2959 153.103" stroke="black" stroke-miterlimit="10"/>
</g>
<path d="M24.6296 93.1167C20.6305 93.482 16.939 96.2314 15.4971 99.9806C14.0743 103.73 14.9972 108.267 17.8235 111.132C20.6498 113.978 25.2257 114.939 28.9364 113.439C30.1669 112.939 31.3013 112.189 32.301 111.343C34.4736 109.498 36.2425 106.96 36.4155 104.095C36.6078 101.019 34.9158 98.0195 32.4741 96.1161C30.0323 94.2127 26.9753 93.2897 24.6296 93.1167Z" fill="#FF88B6"/>
<path d="M131.01 88.1562C133.356 86.5989 134.721 83.9264 135.548 81.2539C136.394 78.5622 136.797 75.7551 137.778 73.1211C140.047 67.0455 145.084 62.4504 150.275 58.5474C154.39 55.4519 158.927 52.3565 160.811 47.5691C161.427 45.9925 161.715 44.3005 162.503 42.8201C159.062 35.3987 153.544 29.746 148.141 24.2665C147.103 23.209 146.045 22.1516 144.834 21.2864C140.316 23.036 136.644 26.4968 134.048 30.4959C131.452 34.495 129.818 39.0324 128.261 43.5507C127.838 44.8004 127.396 46.0886 127.434 47.4152C127.473 48.838 128.03 50.28 127.626 51.6451C126.684 56.7593 127.05 62.1043 129.299 66.661C129.876 67.8146 130.568 68.9489 130.818 70.1986C131.01 71.1407 130.972 72.1213 131.126 73.0826C131.299 74.1016 131.702 75.0822 131.856 76.1204C132.279 79.0428 130.568 81.8692 128.549 84.0418C127.896 84.7339 127.203 85.4068 126.319 85.7913C124.127 86.7527 121.647 85.5991 119.436 84.657C115.571 83.0227 111.38 81.9653 107.169 82.1383C102.959 82.3113 98.7482 83.7918 95.6719 86.6565C93.8646 88.3485 92.5188 90.4634 91.346 92.6552C90.0001 95.1739 88.8657 97.8272 88.0582 100.961C88.8273 101.019 89.6348 100.557 90.3654 100.826C90.5769 100.903 90.7499 101.038 90.9614 101.096C91.2306 101.192 91.519 101.153 91.8074 101.153C93.0956 101.115 94.403 101.442 95.6912 102.595C96.8063 99.5191 98.8058 96.7889 101.401 94.8086C102.228 94.1741 103.132 93.6166 104.112 93.232C105.535 92.6937 107.092 92.5591 108.611 92.4437C113.11 92.0977 117.609 91.8477 122.128 91.6746C123.762 91.617 125.435 91.5593 126.992 91.0209C128.569 90.5211 129.607 89.0983 131.01 88.1562Z" fill="white"/>
<mask id="mask1_525_43409" style="mask-type:luminance" maskUnits="userSpaceOnUse" x="88" y="21" width="75" height="82">
<path d="M131.01 88.4254C133.356 86.868 134.721 84.1955 135.548 81.523C136.394 78.8313 136.797 76.0243 137.778 73.3902C140.047 67.3146 145.084 62.7195 150.275 58.8165C154.39 55.721 158.927 52.6256 160.811 47.8382C161.427 46.2616 161.715 44.5696 162.503 43.0892C159.062 35.6678 153.544 30.0152 148.141 24.5356C147.103 23.4782 146.045 22.4207 144.834 21.5555C140.316 23.3052 136.644 26.7659 134.048 30.765C131.452 34.7641 129.818 39.3016 128.261 43.8198C127.838 45.0695 127.396 46.3577 127.434 47.6844C127.473 49.1071 128.03 50.5491 127.626 51.9142C126.684 57.0284 127.05 62.3734 129.299 66.9301C129.876 68.0837 130.568 69.218 130.818 70.4678C131.01 71.4099 130.972 72.3904 131.126 73.3517C131.299 74.3707 131.702 75.3513 131.856 76.3896C132.279 79.312 130.568 82.1383 128.549 84.3109C127.896 85.003 127.203 85.676 126.319 86.0605C124.127 87.0218 121.647 85.8682 119.436 84.9261C115.571 83.2919 111.38 82.2344 107.169 82.4075C102.959 82.5805 98.7482 84.061 95.6719 86.9257C93.8646 88.6176 92.5188 90.7325 91.346 92.9244C90.0001 95.443 88.8657 98.0963 88.0582 101.23C88.8273 101.288 89.6348 100.826 90.3654 101.096C90.5769 101.173 90.7499 101.307 90.9614 101.365C91.2306 101.461 91.519 101.422 91.8074 101.422C93.0956 101.384 94.403 101.711 95.6912 102.864C96.8063 99.7882 98.8058 97.0581 101.401 95.0777C102.228 94.4433 103.132 93.8857 104.112 93.5011C105.535 92.9628 107.092 92.8282 108.611 92.7128C113.11 92.3668 117.609 92.1168 122.128 91.9438C123.762 91.8861 125.435 91.8284 126.992 91.2901C128.569 90.7902 129.607 89.3482 131.01 88.4254Z" fill="white"/>
</mask>
<g mask="url(#mask1_525_43409)">
<path d="M161.427 0.348755L186.498 48.7227" stroke="black" stroke-miterlimit="10"/>
<path d="M157.235 5.09778L182.326 53.4717" stroke="black" stroke-miterlimit="10"/>
<path d="M153.063 9.84668L178.135 58.2206" stroke="black" stroke-miterlimit="10"/>
<path d="M148.872 14.5956L173.962 62.9695" stroke="black" stroke-miterlimit="10"/>
<path d="M144.68 19.3446L169.771 67.7185" stroke="black" stroke-miterlimit="10"/>
<path d="M140.508 24.0935L165.58 72.4482" stroke="black" stroke-miterlimit="10"/>
<path d="M136.317 28.8234L161.407 77.1972" stroke="black" stroke-miterlimit="10"/>
<path d="M132.145 33.5721L157.216 81.946" stroke="black" stroke-miterlimit="10"/>
<path d="M127.953 38.321L153.025 86.695" stroke="black" stroke-miterlimit="10"/>
<path d="M123.762 43.0702L148.853 91.4441" stroke="black" stroke-miterlimit="10"/>
<path d="M119.59 47.8191L144.661 96.193" stroke="black" stroke-miterlimit="10"/>
<path d="M115.398 52.5679L140.489 100.923" stroke="black" stroke-miterlimit="10"/>
<path d="M111.207 57.317L136.298 105.672" stroke="black" stroke-miterlimit="10"/>
<path d="M107.035 62.0469L132.106 110.421" stroke="black" stroke-miterlimit="10"/>
<path d="M102.843 66.7955L127.934 115.169" stroke="black" stroke-miterlimit="10"/>
<path d="M98.6713 71.5446L123.743 119.918" stroke="black" stroke-miterlimit="10"/>
<path d="M94.4799 76.2937L119.551 124.668" stroke="black" stroke-miterlimit="10"/>
<path d="M90.2886 81.0427L115.379 129.417" stroke="black" stroke-miterlimit="10"/>
<path d="M86.1163 85.7914L111.188 134.146" stroke="black" stroke-miterlimit="10"/>
<path d="M81.925 90.5405L106.996 138.895" stroke="black" stroke-miterlimit="10"/>
<path d="M77.7336 95.2701L102.824 143.644" stroke="black" stroke-miterlimit="10"/>
</g>
<path d="M79.1756 102.653C80.5407 102.326 81.9058 101.98 83.1363 101.634C82.0788 98.577 81.0598 95.4622 80.8291 92.2514C80.5984 89.0214 81.2713 85.6375 83.2709 83.0996C86.1549 79.4658 91.0576 78.3122 95.1721 76.1588C98.8059 74.2554 101.959 71.4291 104.228 68.026C105.804 65.6611 107.016 62.8348 106.554 60.0278C106.285 58.3935 105.478 56.8938 104.651 55.4518C102.555 51.7603 100.017 47.8574 95.8835 46.7615C89.2119 43.3199 81.2713 43.7044 73.8114 44.5696C70.5622 44.9541 67.3321 45.3964 64.1982 46.3C56.1615 48.6265 49.2592 53.7407 42.5684 58.7396C42.0877 59.1049 41.5878 59.4894 41.3378 60.047C41.1264 60.5277 41.1456 61.0852 41.184 61.6236C41.5686 65.988 43.6066 69.9871 45.6254 73.8901C46.7597 76.0819 47.9133 78.2929 49.6629 80.0233C51.5856 81.9267 54.1043 83.1188 56.6422 84.0609C59.5069 85.0991 62.4678 85.849 65.4671 86.3104C67.0629 86.5411 68.7164 86.7142 70.1007 87.5409C71.3312 88.2907 72.2156 89.4828 73.0424 90.6556C75.4072 94.001 78.4643 102.98 78.4643 102.98L79.1756 102.653Z" fill="#5A66FF"/>
<path d="M131.145 71.2177C130.433 71.3138 129.703 71.3715 128.953 71.3715C119.974 71.3715 112.706 64.1039 112.706 55.1251C112.706 46.1463 119.974 38.8787 128.953 38.8787C129.28 38.8787 129.318 38.9556 129.664 38.9748" stroke="black" stroke-miterlimit="10" stroke-linecap="round" stroke-linejoin="round"/>
<path d="M145.045 22.3438C136.624 25.8238 130.068 33.5529 128.03 42.4355C125.472 53.6061 129.721 65.0267 132.529 76.1396C132.471 79.0812 131.49 81.9845 129.548 83.9648C127.587 85.9451 124.703 86.9449 121.935 86.6373C118.378 86.2143 115.378 83.811 111.898 82.9842C109.072 82.3113 106.092 82.7535 103.247 83.388C100.997 83.9071 98.7475 84.5608 96.7864 85.7913C91.653 89.0021 89.538 95.5199 89.4227 101.576C87.3654 101.057 85.6543 101.288 84.1354 101.961C81.8667 100.48 81.386 97.904 81.0976 95.5776C80.5785 91.7323 80.1555 87.5025 82.2512 84.2532C83.8662 81.7537 86.6541 80.3118 89.3073 78.9851C92.4605 77.4086 95.6136 75.832 98.7668 74.2746C100.901 73.2172 103.093 72.0828 104.554 70.1986C106.131 68.1414 106.592 65.4496 106.592 62.8541C106.592 59.5086 105.861 56.1056 104.112 53.26C101.997 49.8185 98.5168 47.3383 94.7292 45.9347C90.9416 44.5312 86.8463 44.1275 82.8087 44.1275C67.2353 44.1659 51.7579 50.5299 40.6642 61.4698C38.6647 51.5104 38.9146 42.647 39.203 33.995C39.4145 27.1696 39.6837 20.1712 41.7986 13.9803C64.5243 -0.228118 94.0755 -2.91984 119.224 6.63574C128.664 10.7502 137.585 16.0951 145.045 22.3438Z" fill="#B180E0"/>
<path d="M170.347 62.0083C170.386 57.4516 167.136 53.6063 165.425 49.3764C164.502 47.0885 164.003 44.5698 162.445 42.6664C161.657 47.05 159.638 51.8567 156.389 54.7599C153.14 57.6631 149.352 59.8934 145.91 62.5658C142.469 65.2383 139.258 68.4684 137.778 72.5637C136.451 76.2551 136.586 80.4272 134.817 83.9265C133.163 87.195 129.972 89.483 126.549 90.7327C123.108 91.9824 119.416 92.3285 115.763 92.4823C111.879 92.6553 107.919 92.6746 104.285 94.0012C100.632 95.3278 97.3057 98.2887 96.3252 102.115C99.536 103.749 102.555 105.768 105.304 108.075C108.111 105.018 111.803 101.096 115.686 99.6153C117.782 98.8078 121.512 97.9811 121.512 97.9811C121.512 97.9811 126.319 97.3466 128.741 96.616C130.741 96.0007 132.375 95.0779 133.913 93.6359C138.028 89.8291 137.624 83.6765 140.719 79.0045C142.296 76.6012 144.853 74.9669 147.583 74.0441C150.313 73.1212 153.197 72.852 156.062 72.6982C157.466 72.6213 158.869 72.5829 160.215 72.2368C165.118 71.064 170.309 66.911 170.347 62.0083Z" fill="#FF88B6"/>
<path d="M39.7803 16.4222C30.8207 20.7866 23.8607 28.4196 18.0351 36.5139C17.0353 37.8982 16.0547 39.3402 15.5933 40.9937C15.1511 42.5702 15.228 44.2429 15.3241 45.8964C15.478 48.6266 15.651 51.3375 15.8625 54.0677C15.9586 55.4135 16.0932 56.8171 16.67 58.0283C17.2468 59.2396 18.2273 60.201 19.2079 61.1046C21.1882 62.9311 23.3031 64.6807 25.7065 65.9112C28.0329 67.1033 30.5708 67.7954 32.8972 68.9682C35.2236 70.1411 37.4346 71.9292 37.8192 74.4094C41.8375 78.4085 41.2223 85.4069 44.9907 89.6367C47.2017 92.1362 50.6048 93.2321 53.8733 93.8666C57.161 94.5011 60.5449 94.7895 63.6212 96.0969C68.0817 98.0195 71.5233 102.172 72.5999 107.191C73.1191 105.96 74.1957 105.056 75.3493 104.403C76.5029 103.749 77.7719 103.326 78.9447 102.48C76.0415 97.7888 75.2724 91.5402 70.8503 88.2524C67.1588 85.4838 62.1023 85.7146 57.6417 84.5225C52.3352 83.0998 47.6439 79.4275 44.3946 74.6401C43.4525 72.6405 42.6258 70.5833 41.7222 68.3145C41.03 59.8741 38.5882 51.5875 38.6267 43.1086C38.6459 39.9555 39.0112 36.8023 39.3765 33.6491C40.1264 27.2467 40.8762 20.8058 42.3759 14.538C41.453 15.307 40.5109 16.0761 39.7803 16.4222Z" fill="#56B381"/>
<path d="M5.86478 59.624C5.74942 66.0841 10.9983 72.2174 17.4199 73.0826C20.7077 73.5248 24.0915 72.7365 27.36 73.3517C30.1671 73.8901 32.7627 75.5243 34.4738 77.8123C38.0307 82.5805 37.7039 89.7135 42.0299 93.8088C46.0482 97.6156 52.2968 97.2119 57.6418 98.6731C62.9099 100.096 67.5819 103.595 70.4467 108.229" stroke="black" stroke-miterlimit="10" stroke-linecap="round" stroke-linejoin="round"/>
<path d="M170.232 59.624C170.348 66.0841 165.099 72.2174 158.677 73.0826C155.389 73.5248 152.005 72.7365 148.737 73.3517C145.93 73.8901 143.334 75.5243 141.623 77.8123C138.066 82.5805 138.393 89.7135 134.067 93.8088C130.049 97.6156 123.8 97.2119 118.455 98.6731C113.187 100.096 108.515 103.595 105.65 108.229" stroke="black" stroke-miterlimit="10" stroke-linecap="round" stroke-linejoin="round"/>
<path d="M88.827 100.25C89.1347 94.5586 92.2493 89.079 96.9598 85.8874C101.67 82.6958 107.9 81.8306 113.302 83.6379C117.744 85.1183 122.223 88.3292 126.646 86.8295C130.645 85.4836 132.529 80.6962 132.26 76.5049C131.991 72.2943 130.126 68.3721 128.914 64.3345C125.992 54.6059 126.934 43.7813 131.471 34.6872C134.202 29.2076 138.624 24.0934 144.584 22.6514" stroke="black" stroke-miterlimit="10" stroke-linecap="round" stroke-linejoin="round"/>
<path d="M161.465 41.4358C163.041 53.933 151.255 57.24 140.7 67.7953C136.201 72.4674 137.681 79.1005 134.413 84.7146C126.28 99.7306 104.227 85.2338 96.3252 101" stroke="black" stroke-miterlimit="10" stroke-linecap="round" stroke-linejoin="round"/>
<path d="M42.1442 14.2495C38.4912 29.0539 37.9528 44.6082 40.5676 59.6434C41.5097 65.0652 42.894 70.5063 45.7972 75.1784C48.6812 79.8504 53.2764 83.7149 58.679 84.6763C60.6978 85.0416 62.7743 84.9839 64.7738 85.4453C68.4269 86.2913 71.5223 88.81 73.7142 91.8285C75.906 94.8663 77.2711 98.404 78.4246 101.961" stroke="black" stroke-miterlimit="10" stroke-linecap="round" stroke-linejoin="round"/>
<path d="M15.8618 40.0707C15.2465 44.4928 14.612 48.9918 15.285 53.4139C15.9579 57.836 18.1497 62.2196 21.9758 64.5268C24.8021 66.2187 28.2052 66.6225 31.243 67.9491C35.5497 69.8333 38.9528 73.6979 40.2987 78.2161C40.9139 80.2926 41.1062 82.4652 41.7983 84.5224C43.0673 88.3293 46.0858 91.5017 49.8158 92.9821C53.1228 94.2895 56.795 94.2895 60.2366 95.2124C65.6777 96.6736 70.3882 100.615 72.7915 105.691" stroke="black" stroke-miterlimit="10" stroke-linecap="round" stroke-linejoin="round"/>
<path d="M41.4142 60.4894C51.6811 50.1647 66.0434 44.0122 80.6171 43.6854C87.5963 43.5316 94.96 44.8389 100.324 49.3187C105.688 53.7793 108.284 62.0467 104.727 68.0646C99.5744 76.755 85.0776 76.9088 81.3092 86.2721C79.3481 91.1749 81.2131 96.6737 83.0973 101.615" stroke="black" stroke-miterlimit="10" stroke-linecap="round" stroke-linejoin="round"/>
<path d="M25.7066 114.324C31.6211 114.324 36.4158 109.529 36.4158 103.614C36.4158 97.6998 31.6211 92.9052 25.7066 92.9052C19.7921 92.9052 14.9974 97.6998 14.9974 103.614C14.9974 109.529 19.7921 114.324 25.7066 114.324Z" fill="#FF88B6" stroke="black" stroke-miterlimit="10"/>
<path d="M63.2552 117.784C63.2552 104.71 74.3297 94.1359 88.019 94.1359C101.689 94.1359 112.783 104.73 112.783 117.784C112.783 130.839 101.939 159.506 88.019 159.506C74.099 159.506 63.2552 130.858 63.2552 117.784Z" fill="white" stroke="black" stroke-miterlimit="10" stroke-linecap="round" stroke-linejoin="round"/>
<path d="M87.9616 123.552C82.3667 123.514 77.214 120.841 74.6569 116.688C77.2909 112.554 82.4628 109.997 88.077 110.036C93.6719 110.074 98.8246 112.747 101.382 116.9C98.7285 120.995 93.5565 123.591 87.9616 123.552Z" stroke="black" stroke-miterlimit="10" stroke-linecap="round" stroke-linejoin="round"/>
<path d="M92.1727 115.785C91.346 115.785 90.5577 115.439 89.9809 114.862C89.4041 114.266 89.0772 113.477 89.0772 112.651C89.0772 112.381 88.9811 112.112 88.7696 111.92C88.5773 111.728 88.3082 111.612 88.039 111.612C86.6547 111.593 85.3281 112.132 84.3475 113.112C83.367 114.073 82.8094 115.4 82.7902 116.784C82.7709 118.169 83.3093 119.495 84.2898 120.476C85.2512 121.456 86.5778 122.014 87.9621 122.033C89.3464 122.052 90.673 121.514 91.6536 120.534C92.6341 119.572 93.1917 118.246 93.2109 116.861C93.2109 116.592 93.1148 116.323 92.9033 116.131C92.6918 115.938 92.4419 115.785 92.1727 115.785Z" fill="black"/>
<path d="M88.0961 106.133L88.0385 110.017" stroke="black" stroke-miterlimit="10" stroke-linecap="round" stroke-linejoin="round"/>
<path d="M81.2322 107.248L83.1741 110.613" stroke="black" stroke-miterlimit="10" stroke-linecap="round" stroke-linejoin="round"/>
<path d="M94.9029 107.383L92.9033 110.709" stroke="black" stroke-miterlimit="10" stroke-linecap="round" stroke-linejoin="round"/>
<path d="M90.3076 15.5185L92.038 20.8442C92.1918 21.3441 92.6532 21.671 93.1723 21.671H98.7673C99.9209 21.671 100.402 23.1514 99.4786 23.8243L94.9412 27.1121C94.5182 27.4197 94.3452 27.958 94.499 28.4387L96.2294 33.7644C96.5947 34.8603 95.3257 35.7832 94.3836 35.091L89.8462 31.8033C89.4232 31.4957 88.8656 31.4957 88.4426 31.8033L83.9052 35.091C82.9631 35.764 81.7133 34.8603 82.0594 33.7644L83.7898 28.4387C83.9436 27.9388 83.7706 27.4005 83.3476 27.1121L78.8101 23.8243C77.868 23.1514 78.3487 21.671 79.5215 21.671H85.1164C85.6356 21.671 86.097 21.3441 86.2508 20.8442L87.9812 15.5185C88.4042 14.4226 89.9615 14.4226 90.3076 15.5185Z" fill="#FFF58C" stroke="#181919" stroke-miterlimit="10" stroke-linecap="round" stroke-linejoin="round"/>
<mask id="mask2_525_43409" style="mask-type:luminance" maskUnits="userSpaceOnUse" x="1" y="1" width="174" height="175">
<path d="M88 175.079C136.049 175.079 175 136.128 175 88.0793C175 40.0306 136.049 1.07935 88 1.07935C39.9512 1.07935 1 40.0306 1 88.0793C1 136.128 39.9512 175.079 88 175.079Z" fill="white"/>
</mask>
<g mask="url(#mask2_525_43409)">
<path d="M163.157 145.567C173.149 145.567 181.249 137.467 181.249 127.474C181.249 117.482 173.149 109.382 163.157 109.382C153.165 109.382 145.064 117.482 145.064 127.474C145.064 137.467 153.165 145.567 163.157 145.567Z" fill="#FFF58C" stroke="black" stroke-miterlimit="10"/>
</g>
<path d="M88 175.079C136.049 175.079 175 136.128 175 88.0793C175 40.0306 136.049 1.07935 88 1.07935C39.9512 1.07935 1 40.0306 1 88.0793C1 136.128 39.9512 175.079 88 175.079Z" stroke="#181919" stroke-miterlimit="10"/>
</svg>
