<svg width="176" height="176" viewBox="0 0 176 176" fill="none" xmlns="http://www.w3.org/2000/svg">
<path d="M1 87.9804C1 51.9969 22.856 21.1209 53.9912 7.92947C64.3632 3.53233 75.7896 1.09375 87.7529 1.09375C135.664 1.09375 174.506 39.9959 174.506 87.9804C174.506 135.965 135.664 174.867 87.7529 174.867C39.8423 174.867 1 135.965 1 87.9804Z" fill="#5A66FF"/>
<path d="M95.8242 133.564C103.225 128.226 121.38 121.621 125.157 113.307C128.953 104.954 128.915 99.7504 127.573 90.7257C127.189 88.0759 126.844 85.1764 128.263 82.9107C130.41 79.512 135.721 79.4736 138.903 81.9314C142.086 84.3892 143.524 88.4599 144.329 92.3962C144.828 94.7772 146.189 97.9262 148.528 97.2926C150.023 96.8893 150.617 95.1036 150.809 93.5675C151.078 91.4553 151.039 89.3048 150.713 87.1926C150.387 85.0996 149.774 83.0451 149.889 80.9329C150.004 78.8208 151.058 76.5742 153.033 75.8445C156.139 74.7116 159.264 77.9951 159.878 81.2401C160.165 82.6995 160.165 84.2164 160.74 85.5797C161.315 86.943 162.753 88.1143 164.191 87.7494C166.108 87.2502 166.415 84.6964 166.338 82.6994C166.147 78.1295 165.955 73.5787 165.763 69.0088C165.667 66.6278 166.07 63.5556 168.39 63.0371C170.748 62.5187 172.416 65.2645 173.087 67.5687C176.059 77.6879 175.253 88.5751 172.819 98.8287C171.937 102.592 170.825 106.317 169.061 109.754C167.22 113.345 164.709 116.552 162.14 119.681C158.133 124.578 153.915 129.359 148.835 133.123C139.785 139.881 107.423 135.062 95.8242 133.564Z" fill="#B180E0" stroke="#1D1D1B" stroke-miterlimit="10"/>
<path d="M169.367 58.4484L86.5446 76.6514L57.5375 6.52765C57.5375 6.52765 74.3896 0.0759367 87.7524 1.11282C101.115 2.13049 106.119 3.07138 106.119 3.07138C152.285 10.656 169.291 58.2564 169.291 58.2564L86.7555 76.3826L57.5375 6.52765" fill="#FF88B6"/>
<path d="M86.008 76.844L49.5814 119.222L68.5232 134.928H110.74L130.928 127.824L126.154 122.486L86.008 76.844Z" fill="#EBEBEB" stroke="black" stroke-miterlimit="10" stroke-linecap="round" stroke-linejoin="round"/>
<path d="M89.4212 16.3011L91.1466 21.6199C91.3 22.1191 91.7601 22.4456 92.2778 22.4456H97.8568C99.0071 22.4456 99.4864 23.9241 98.5662 24.5961L94.0416 27.8796C93.6198 28.1868 93.4473 28.7244 93.6006 29.2045L95.3261 34.5233C95.6904 35.6178 94.425 36.5395 93.4856 35.8482L88.961 32.5647C88.5393 32.2575 87.9833 32.2575 87.5615 32.5647L83.0369 35.8482C82.0975 36.5203 80.8513 35.6178 81.1964 34.5233L82.9219 29.2045C83.0753 28.7052 82.9027 28.1676 82.4809 27.8796L77.9564 24.5961C77.0169 23.9241 77.4962 22.4456 78.6657 22.4456H84.2447C84.7624 22.4456 85.2225 22.1191 85.3759 21.6199L87.1014 16.3011C87.5231 15.2066 89.0761 15.2066 89.4212 16.3011Z" fill="#FFF58C" stroke="#181919" stroke-miterlimit="10" stroke-linecap="round" stroke-linejoin="round"/>
<path d="M31.4458 40.9753C45.0387 34.9844 59.4943 30.9137 74.2183 28.9167" stroke="#181919" stroke-miterlimit="10" stroke-linecap="round" stroke-linejoin="round"/>
<path d="M26.1154 48.771C27.6401 48.771 28.8761 47.5331 28.8761 46.006C28.8761 44.4789 27.6401 43.241 26.1154 43.241C24.5907 43.241 23.3546 44.4789 23.3546 46.006C23.3546 47.5331 24.5907 48.771 26.1154 48.771Z" fill="#FFF58C" stroke="#181919" stroke-miterlimit="10" stroke-linecap="round" stroke-linejoin="round"/>
<path d="M144.828 41.8002C131.235 35.8094 116.779 31.7387 102.055 29.7417" stroke="#181919" stroke-miterlimit="10" stroke-linecap="round" stroke-linejoin="round"/>
<path d="M150.157 49.5779C151.682 49.5779 152.918 48.3399 152.918 46.8129C152.918 45.2858 151.682 44.0479 150.157 44.0479C148.632 44.0479 147.396 45.2858 147.396 46.8129C147.396 48.3399 148.632 49.5779 150.157 49.5779Z" fill="#FFF58C" stroke="#181919" stroke-miterlimit="10" stroke-linecap="round" stroke-linejoin="round"/>
<path d="M41.4913 76.3438C35.9123 76.3054 30.7742 73.6364 28.2244 69.4889C30.8509 65.3605 36.0082 62.8068 41.6064 62.8452C47.2046 62.8836 52.3235 65.5526 54.8733 69.7001C52.2468 73.79 47.0704 76.3822 41.4913 76.3438Z" fill="white" stroke="black" stroke-miterlimit="10" stroke-linecap="round" stroke-linejoin="round"/>
<path d="M45.7093 68.5869C44.8849 68.5869 44.0989 68.2413 43.5237 67.6652C42.9485 67.07 42.6226 66.2827 42.6226 65.4571C42.6226 65.1882 42.5268 64.9194 42.3159 64.7274C42.1241 64.5354 41.8557 64.4202 41.5873 64.4202C40.207 64.401 38.8841 64.9386 37.9063 65.9179C36.9286 66.878 36.3726 68.2029 36.3534 69.5854C36.3342 70.9679 36.871 72.2928 37.8488 73.2721C38.8074 74.2513 40.1303 74.8082 41.5106 74.8274C42.891 74.8466 44.2139 74.3089 45.1916 73.3297C46.1694 72.3696 46.7254 71.0447 46.7446 69.6622C46.7446 69.3933 46.6487 69.1245 46.4378 68.9325C46.2461 68.7021 45.9777 68.5869 45.7093 68.5869Z" fill="black"/>
<path d="M41.6447 58.9673L41.5681 62.8268" stroke="black" stroke-miterlimit="10" stroke-linecap="round" stroke-linejoin="round"/>
<path d="M34.8009 60.0808L36.7181 63.4411" stroke="black" stroke-miterlimit="10" stroke-linecap="round" stroke-linejoin="round"/>
<path d="M48.4131 60.196L46.4192 63.5179" stroke="black" stroke-miterlimit="10" stroke-linecap="round" stroke-linejoin="round"/>
<path d="M169.368 58.4489L86.5454 76.6327L57.5383 6.52808" stroke="#181919" stroke-miterlimit="10"/>
<path d="M86.7558 56.9702C75.7894 56.9702 66.9128 65.8605 66.9128 76.8438C66.9128 87.827 75.7894 96.7173 86.7558 96.7173C97.7221 96.7173 106.599 87.827 106.599 76.8438C106.599 65.8797 97.7221 56.9702 86.7558 56.9702ZM86.7558 91.3217C78.7803 91.3217 72.3193 84.8508 72.3193 76.8629C72.3193 68.8751 78.7803 62.4042 86.7558 62.4042C94.7313 62.4042 101.192 68.8751 101.192 76.8629C101.192 84.8316 94.7313 91.3217 86.7558 91.3217Z" fill="#FFF58C" stroke="#181919" stroke-miterlimit="10" stroke-linecap="round" stroke-linejoin="round"/>
<path d="M86.0079 116.207C63.155 116.207 44.5966 121.084 44.309 127.113H127.688C127.419 121.084 108.861 116.207 86.0079 116.207Z" fill="#EBEBEB" stroke="black" stroke-miterlimit="10" stroke-linecap="round" stroke-linejoin="round"/>
<path d="M44.3096 127.113C44.3096 127.151 44.2904 127.209 44.2904 127.247C44.2904 133.354 62.9638 138.288 85.9893 138.288C109.015 138.288 127.688 133.354 127.688 127.247C127.688 127.209 127.669 127.151 127.669 127.113H44.3096Z" fill="#EBEBEB" stroke="black" stroke-miterlimit="10" stroke-linecap="round" stroke-linejoin="round"/>
<path d="M118.332 117.09L98.8151 95.8339C98.0291 94.9698 98.0866 93.6257 98.9493 92.8385L102.189 89.8622C103.052 89.075 104.394 89.1326 105.18 89.9967L124.697 111.253C125.483 112.117 125.426 113.461 124.563 114.248L121.323 117.224C120.479 118.012 119.137 117.954 118.332 117.09Z" fill="#56B381" stroke="#1D1E1B" stroke-miterlimit="10"/>
<path d="M97.1665 97.4469L95.5752 95.7187C94.9425 95.0275 94.9809 93.9522 95.6711 93.3186L102.63 86.9245C103.321 86.2908 104.394 86.3292 105.027 87.0205L106.618 88.7486C107.251 89.4399 107.213 90.5152 106.522 91.1488L99.563 97.5429C98.8728 98.1765 97.7992 98.1381 97.1665 97.4469Z" fill="#EBEBEB" stroke="black" stroke-miterlimit="10" stroke-linecap="round" stroke-linejoin="round"/>
<path d="M1.61317 96.6018C1.07636 92.6655 0.539549 88.5755 1.68986 84.7736C2.84018 80.9717 6.23361 77.5347 10.2022 77.6691C13.1738 77.7651 15.8387 79.8389 17.315 82.4311C18.7912 85.0233 19.2705 88.0571 19.4814 91.0333C19.6156 92.9151 19.6731 94.8736 20.4975 96.5826C21.3219 98.2915 23.2199 99.6356 25.0413 99.194C27.687 98.5411 28.2238 95.0656 29.7192 92.7999C31.9048 89.4972 37.1387 88.806 40.0912 91.4366C42.3918 93.4719 43.082 96.7362 43.9831 99.674C44.8842 102.612 46.4755 105.799 49.4471 106.625C54.7386 108.065 59.8191 100.96 64.9572 102.861C67.3345 103.745 68.6574 106.318 69.1367 108.814C69.616 111.31 69.4818 113.902 70.0377 116.36C70.287 117.435 70.6896 118.53 71.5523 119.221C73.6229 120.872 76.7096 119.163 78.3008 117.051C79.8921 114.939 81.1191 112.27 83.5731 111.291C87.1966 109.832 91.1077 113.077 92.6414 116.667C94.1944 120.258 94.4244 124.348 96.3416 127.747C100.349 134.851 110.356 136.33 118.083 133.737C128.608 130.204 136.756 120.412 138.347 109.39C138.769 106.375 138.75 103.303 139.402 100.346C140.054 97.3698 141.511 94.3936 144.118 92.8575C146.725 91.3213 150.617 91.7438 152.17 94.3744C153.321 96.3329 152.937 98.7715 153.263 101.018C153.589 103.265 155.429 105.761 157.596 105.127C158.42 104.878 159.072 104.225 159.59 103.533C161.392 101.152 162.255 98.0611 161.948 95.0848C161.775 93.4527 161.277 91.7438 161.871 90.2077C162.466 88.6715 164.862 87.8267 165.706 89.2476C166.051 89.8236 165.993 90.5533 166.281 91.1485C167.124 92.9151 170.115 92.0702 170.863 90.2653C171.611 88.4603 171.055 86.3866 170.863 84.4472C170.671 82.5079 171.17 80.1077 173.01 79.4164C173.681 79.0324 174.256 80.0885 174.314 80.8757C175.752 96.2945 173.451 112.232 166.434 126.018C164.67 129.475 162.619 132.816 159.935 135.6C156.503 139.152 153.589 144.893 150.119 148.407C134.168 164.575 107.289 176.173 85.9696 174.905C64.6504 173.638 38.9026 163.845 24.4086 147.428C22.0121 144.701 16.5864 137.616 14.0749 135.024C10.5856 131.452 10.854 125.692 8.24666 121.429C3.26197 113.192 2.34171 101.863 1.61317 96.6018Z" fill="#56B381"/>
<path d="M1.61317 96.6018C1.07636 92.6655 0.539549 88.5755 1.68986 84.7736C2.84018 80.9717 6.23361 77.5347 10.2022 77.6691C13.1738 77.7651 15.8387 79.8389 17.315 82.4311C18.7912 85.0233 19.2705 88.0571 19.4814 91.0333C19.6156 92.9151 19.6731 94.8736 20.4975 96.5825C21.3219 98.2915 23.2199 99.6356 25.0413 99.194C27.687 98.5411 28.2238 95.0656 29.7192 92.7999C31.9048 89.4972 37.1387 88.806 40.0912 91.4366C42.3918 93.4719 43.082 96.7362 43.9831 99.674C44.8842 102.612 46.4755 105.799 49.4471 106.625C54.7386 108.065 59.8191 100.96 64.9572 102.861C67.3345 103.745 68.6574 106.318 69.1367 108.814C69.616 111.31 69.4818 113.902 70.0377 116.36C70.287 117.435 70.6896 118.53 71.5523 119.221C73.6229 120.872 76.7096 119.163 78.3009 117.051C79.8921 114.939 81.1191 112.27 83.5731 111.291C87.1966 109.832 91.1077 113.077 92.6414 116.667C94.1944 120.258 94.4244 124.348 96.3416 127.747C100.349 134.851 110.356 136.33 118.083 133.737C128.608 130.204 136.756 120.412 138.347 109.39C138.769 106.375 138.75 103.303 139.402 100.346C140.054 97.3698 141.511 94.3936 144.118 92.8575C146.725 91.3213 150.617 91.7438 152.17 94.3744C153.321 96.3329 152.937 98.7715 153.263 101.018C153.589 103.265 155.429 105.761 157.596 105.127C158.42 104.878 159.072 104.225 159.59 103.533C161.392 101.152 162.255 98.0611 161.948 95.0848C161.775 93.4527 161.277 91.7438 161.871 90.2077C162.466 88.6715 164.862 87.8267 165.706 89.2476C166.051 89.8236 165.993 90.5533 166.281 91.1485C167.124 92.9151 170.115 92.0702 170.863 90.2653C171.611 88.4603 171.055 86.3866 170.863 84.4472C170.671 82.5079 171.17 80.1077 173.01 79.4164C173.681 79.0324 174.256 80.0885 174.314 80.8757" stroke="black" stroke-miterlimit="10"/>
<path d="M1 87.9804C1 51.9969 22.856 21.1209 53.9912 7.92947C64.3632 3.53233 75.7897 1.09375 87.7529 1.09375C135.664 1.09375 174.506 39.9959 174.506 87.9804C174.506 135.965 135.664 174.867 87.7529 174.867C39.8423 174.867 1 135.965 1 87.9804Z" stroke="#181919" stroke-miterlimit="10"/>
</svg>
