<svg width="176" height="176" viewBox="0 0 176 176" fill="none" xmlns="http://www.w3.org/2000/svg">
<path d="M88.0356 174.928C136.065 174.928 175 135.993 175 87.9642C175 39.9352 136.065 1 88.0356 1C40.0066 1 1.07141 39.9352 1.07141 87.9642C1.07141 135.993 40.0066 174.928 88.0356 174.928Z" fill="#5A66FF"/>
<path d="M3.99353 112.429C3.99353 112.429 68.3375 127.862 109.542 116.465C156.724 103.397 170.677 115.293 170.677 115.293C170.677 115.293 151.15 167.299 109.504 172.257C91.4382 174.409 72.8346 175.063 58.7474 169.874C35.1277 161.187 21.1366 143.525 21.1366 143.525L8.58681 123.461L3.99353 112.429Z" fill="#EBEBEB"/>
<path d="M3.99353 112.429C39.5095 121.808 75.4484 122.692 111.541 115.793C125.936 113.044 140.503 108.989 155.052 110.95C161.605 111.834 164.546 112.737 170.83 114.813" stroke="black" stroke-miterlimit="10"/>
<path d="M88.0356 174.928C136.065 174.928 175 135.993 175 87.9642C175 39.9352 136.065 1 88.0356 1C40.0066 1 1.07141 39.9352 1.07141 87.9642C1.07141 135.993 40.0066 174.928 88.0356 174.928Z" stroke="#181919" stroke-miterlimit="10"/>
<path d="M175 93.8262C165.141 101.264 152.361 103.474 140.887 104.569C135.929 105.05 130.72 105.434 126.531 108.778C126.108 109.124 125.666 109.528 125.474 110.104C125.051 111.411 126.031 112.795 127.069 113.372C129.798 114.89 132.931 113.621 135.794 112.603C140.291 111.008 144.942 110.085 149.612 109.835C150.881 109.758 152.226 109.778 153.302 110.642C154.359 111.507 154.917 113.525 154.09 114.717C153.571 115.447 152.745 115.639 151.976 115.755C146.806 116.504 141.06 115.793 136.947 119.752C136.159 120.502 135.429 121.924 136.044 122.885C136.332 123.346 136.851 123.519 137.312 123.615C139.926 124.192 142.655 123.961 145.173 122.962C146.96 122.27 149.343 121.424 150.343 123.404C151.227 125.114 149.977 127.459 148.459 128.17C146.941 128.881 145.25 128.593 143.635 128.842C142.021 129.092 140.234 130.245 140.022 132.263C141.137 133.743 143.039 133.455 144.635 133.032C150.919 131.379 157.204 129.746 163.488 128.093C164.007 127.958 164.43 128.266 164.872 127.901C165.468 127.42 166.14 126.498 166.486 125.691C170.58 116.562 172.482 110.604 175 93.8262Z" fill="#B180E0" stroke="#181919" stroke-miterlimit="10" stroke-linecap="round" stroke-linejoin="round"/>
<path d="M1.07301 90.3086C10.9898 86.6571 22.2711 83.9857 32.6876 83.3323C34.1674 83.2362 35.7049 83.1977 37.0118 83.9665C38.3186 84.7544 39.2028 86.6379 38.5109 88.0985C32.3033 88.6174 26.0956 89.4822 19.9649 90.6738C18.4082 90.9813 16.7938 91.3464 15.6023 92.4803C14.4107 93.6142 13.8534 95.8051 14.8335 97.1697C15.8713 98.6111 17.8316 98.3997 19.446 98.0729C23.3282 97.2658 27.2295 96.4586 31.1117 95.6514C32.9951 95.267 35.4936 95.2286 36.1662 97.2466C36.6467 98.688 35.7049 100.322 34.4557 100.975C33.2065 101.628 31.7844 101.571 30.4006 101.532C24.7119 101.379 13.7957 105.799 14.8527 107.432C16.1019 109.373 39.3565 101.109 51.7332 102.705C52.675 102.82 53.6936 103.051 54.3854 103.781C55.0773 104.511 55.2695 105.933 54.52 106.625C54.1356 106.99 53.5975 107.048 53.0978 107.106C41.9894 108.355 30.9579 110.431 20.0802 113.294C21.0027 115.216 23.405 115.447 25.2885 114.889C27.1719 114.332 28.9977 113.236 30.9195 113.429C32.8606 113.602 34.7825 115.965 33.8023 117.849C33.245 118.906 32.0726 119.29 31.0156 119.579C27.0181 120.655 26.1533 121.058 21.5216 121.654C19.3307 121.942 10.7976 123.365 8.58749 123.461C7.93406 123.499 0.169733 101.763 1.07301 90.3086Z" fill="#FFF58C" stroke="#181919" stroke-miterlimit="10" stroke-linecap="round" stroke-linejoin="round"/>
<path d="M89.2462 12.3775L90.9758 17.701C91.1296 18.2007 91.5908 18.5275 92.1097 18.5275H97.7023C98.8555 18.5275 99.3359 20.0073 98.4134 20.6799L93.8779 23.9663C93.455 24.2738 93.2821 24.812 93.4358 25.2924L95.1655 30.616C95.5306 31.7114 94.2622 32.6339 93.3205 31.942L88.7849 28.6557C88.3621 28.3482 87.8048 28.3482 87.382 28.6557L82.8463 31.942C81.9046 32.6147 80.6554 31.7114 81.0014 30.616L82.731 25.2924C82.8848 24.7927 82.7118 24.2546 82.289 23.9663L77.7534 20.6799C76.8117 20.0073 77.2922 18.5275 78.4645 18.5275H84.0571C84.576 18.5275 85.0373 18.2007 85.191 17.701L86.9207 12.3775C87.3243 11.2628 88.881 11.2628 89.2462 12.3775Z" fill="#FFF58C" stroke="#181919" stroke-miterlimit="10" stroke-linecap="round" stroke-linejoin="round"/>
<path d="M31.1099 37.0541C44.7359 31.0579 59.2267 26.9836 73.9866 24.9849" stroke="#181919" stroke-miterlimit="10" stroke-linecap="round" stroke-linejoin="round"/>
<path d="M25.7863 44.8567C27.3147 44.8567 28.5538 43.6177 28.5538 42.0893C28.5538 40.5608 27.3147 39.3218 25.7863 39.3218C24.2578 39.3218 23.0188 40.5608 23.0188 42.0893C23.0188 43.6177 24.2578 44.8567 25.7863 44.8567Z" fill="#FFF58C" stroke="#181919" stroke-miterlimit="10" stroke-linecap="round" stroke-linejoin="round"/>
<path d="M144.788 37.8806C131.162 31.8844 116.671 27.81 101.911 25.8113" stroke="#181919" stroke-miterlimit="10" stroke-linecap="round" stroke-linejoin="round"/>
<path d="M150.112 45.6837C151.64 45.6837 152.879 44.4446 152.879 42.9162C152.879 41.3877 151.64 40.1487 150.112 40.1487C148.583 40.1487 147.344 41.3877 147.344 42.9162C147.344 44.4446 148.583 45.6837 150.112 45.6837Z" fill="#FFF58C" stroke="#181919" stroke-miterlimit="10" stroke-linecap="round" stroke-linejoin="round"/>
<path d="M56.1904 48.297V73.7424C56.1904 74.6649 55.6523 75.5298 54.8259 75.9142L27.5739 88.9828C25.9788 89.7516 24.1338 88.5792 24.1338 86.8111V61.3849C24.1338 60.4624 24.6719 59.5976 25.4983 59.2132L52.7503 46.1445C54.3454 45.3758 56.1904 46.5481 56.1904 48.297Z" fill="#009540" stroke="#181919" stroke-miterlimit="10" stroke-linecap="round" stroke-linejoin="round"/>
<path d="M88.2469 61.4042V86.8304C88.2469 88.6178 86.4019 89.7709 84.8068 89.0021L56.1902 75.2801V48.2971C56.1902 46.5098 58.0352 45.3567 59.6304 46.1254L86.8824 59.1941C87.728 59.6169 88.2469 60.4625 88.2469 61.4042Z" fill="#FF88B6"/>
<path d="M88.2469 61.4042V86.8304C88.2469 88.6178 86.4019 89.7709 84.8068 89.0021L56.1902 75.2801V48.2971C56.1902 46.5098 58.0352 45.3567 59.6304 46.1254L86.8824 59.1941C87.728 59.6169 88.2469 60.4625 88.2469 61.4042Z" stroke="black" stroke-miterlimit="10"/>
<path d="M83.7306 92.8076L57.2282 105.511C56.5747 105.819 55.8059 105.819 55.1525 105.511L28.6501 92.8076C26.8243 91.9427 26.8243 89.3482 28.6501 88.4834L56.1903 75.261L83.7306 88.4834C85.5564 89.3482 85.5564 91.9427 83.7306 92.8076Z" fill="#EBEBEB"/>
<mask id="mask0_525_18821" style="mask-type:luminance" maskUnits="userSpaceOnUse" x="27" y="75" width="59" height="31">
<path d="M83.7306 92.8076L57.2282 105.511C56.5747 105.819 55.8059 105.819 55.1525 105.511L28.6501 92.8076C26.8243 91.9427 26.8243 89.3482 28.6501 88.4834L56.1903 75.261L83.7306 88.4834C85.5564 89.3482 85.5564 91.9427 83.7306 92.8076Z" fill="white"/>
</mask>
<g mask="url(#mask0_525_18821)">
<path d="M54.2108 117.677C71.7381 109.22 89.2655 100.783 106.793 92.3271L54.2108 117.677Z" fill="#EBEBEB"/>
<path d="M54.2108 117.677C71.7381 109.22 89.2655 100.783 106.793 92.3271" stroke="#1D1D1B" stroke-miterlimit="10"/>
<path d="M49.2717 114.87C66.7991 106.414 84.3265 97.9772 101.854 89.521L49.2717 114.87Z" fill="#EBEBEB"/>
<path d="M49.2717 114.87C66.7991 106.414 84.3265 97.9772 101.854 89.521" stroke="#1D1D1B" stroke-miterlimit="10"/>
<path d="M44.3134 112.065C61.8408 103.608 79.3681 95.1715 96.8955 86.7153L44.3134 112.065Z" fill="#EBEBEB"/>
<path d="M44.3134 112.065C61.8408 103.608 79.3681 95.1715 96.8955 86.7153" stroke="#1D1D1B" stroke-miterlimit="10"/>
<path d="M39.374 109.259C56.9014 100.802 74.4288 92.3654 91.9562 83.9092L39.374 109.259Z" fill="#EBEBEB"/>
<path d="M39.374 109.259C56.9014 100.802 74.4288 92.3654 91.9562 83.9092" stroke="#1D1D1B" stroke-miterlimit="10"/>
<path d="M34.4158 106.434C51.9431 97.9776 69.4705 89.5407 86.9979 81.0845L34.4158 106.434Z" fill="#EBEBEB"/>
<path d="M34.4158 106.434C51.9431 97.9776 69.4705 89.5407 86.9979 81.0845" stroke="#1D1D1B" stroke-miterlimit="10"/>
<path d="M29.4767 103.628C47.0041 95.1715 64.5314 86.7345 82.0588 78.2783L29.4767 103.628Z" fill="#EBEBEB"/>
<path d="M29.4767 103.628C47.0041 95.1715 64.5314 86.7345 82.0588 78.2783" stroke="#1D1D1B" stroke-miterlimit="10"/>
<path d="M24.5374 100.821C42.0647 92.3653 59.5921 83.9284 77.1195 75.4722L24.5374 100.821Z" fill="#EBEBEB"/>
<path d="M24.5374 100.821C42.0647 92.3653 59.5921 83.9284 77.1195 75.4722" stroke="#1D1D1B" stroke-miterlimit="10"/>
<path d="M19.5791 98.0156C37.1065 89.5594 54.6338 81.1224 72.1612 72.6663L19.5791 98.0156Z" fill="#EBEBEB"/>
<path d="M19.5791 98.0156C37.1065 89.5594 54.6338 81.1224 72.1612 72.6663" stroke="#1D1D1B" stroke-miterlimit="10"/>
<path d="M14.6398 95.2097C32.1671 86.7535 49.6945 78.3165 67.2219 69.8604L14.6398 95.2097Z" fill="#EBEBEB"/>
<path d="M14.6398 95.2097C32.1671 86.7535 49.6945 78.3165 67.2219 69.8604" stroke="#1D1D1B" stroke-miterlimit="10"/>
<path d="M9.68152 92.404C27.2089 83.9479 44.7362 75.5109 62.2636 67.0547L9.68152 92.404Z" fill="#EBEBEB"/>
<path d="M9.68152 92.404C27.2089 83.9479 44.7362 75.5109 62.2636 67.0547" stroke="#1D1D1B" stroke-miterlimit="10"/>
</g>
<path d="M83.7306 92.8076L57.2282 105.511C56.5747 105.819 55.8059 105.819 55.1525 105.511L28.6501 92.8076C26.8243 91.9427 26.8243 89.3482 28.6501 88.4834L56.1903 75.261L83.7306 88.4834C85.5564 89.3482 85.5564 91.9427 83.7306 92.8076Z" stroke="#1D1D1B" stroke-miterlimit="10"/>
<path d="M49.3677 69.2262C51.943 68.9956 54.5375 68.8418 57.1128 68.7842C58.5542 68.7457 59.9956 68.7265 61.437 68.8611C62.0712 68.9187 62.7438 69.0148 63.2435 69.4184C63.5318 69.6682 63.7432 69.9949 63.9738 70.2832C64.4543 70.9174 65.0308 71.4748 65.6458 71.9745C66.0302 72.282 66.4146 72.5895 66.8181 72.8777C67.2794 73.2045 67.7599 73.5119 68.1635 73.9155C68.5671 74.3191 68.8554 74.8573 68.8361 75.4146C68.3941 75.5684 67.9136 75.4338 67.4716 75.3185C65.2614 74.742 62.9552 74.6843 60.6682 74.6266C57.2089 74.5498 53.7495 74.5113 50.2901 74.5498C49.5214 74.5498 48.7527 74.569 47.9839 74.7035C47.3305 74.8188 46.677 75.011 46.0236 75.011C45.5816 75.011 45.1396 74.8957 44.6783 74.9341C43.7366 74.9918 42.8141 75.6068 41.8916 75.3762C42.4489 74.4345 43.3522 73.7426 44.217 73.0891C45.9659 71.7631 47.7341 70.437 49.3677 69.2262Z" fill="#EBEBEB"/>
<path d="M53.0384 78.4892C56.3824 78.3163 59.7265 78.1433 63.0705 77.9896C63.5318 77.9703 63.9738 77.9511 64.435 77.9511C64.6464 77.9511 64.8386 77.9703 65.05 77.9703C65.2422 77.9511 65.4344 77.9319 65.6266 77.8935C66.9911 77.6436 68.3556 77.3938 69.7201 77.1439C69.2781 77.8742 69.4126 78.7967 69.2204 79.6424C69.1243 80.0652 68.9514 80.4688 68.7785 80.8724C67.4139 84.0242 65.9917 87.1568 64.5311 90.2703C64.3773 90.5777 64.2429 90.9045 63.9738 91.1351C63.5318 91.5387 62.8975 91.5963 62.3017 91.6155C60.8603 91.6732 59.4189 91.6348 57.9775 91.6155C56.9397 91.5963 55.9019 91.5771 54.8641 91.5387C52.654 91.481 50.4247 91.4426 48.2145 91.3849C47.8109 91.3849 47.3881 91.3657 47.0421 91.1543C46.6578 90.9044 46.4464 90.4624 46.2734 90.0204C45.6008 88.3868 44.9089 86.7532 44.2362 85.1389C43.7558 84.005 43.2945 82.8711 42.9678 81.6987C42.8141 81.1798 42.6988 80.6417 42.4873 80.142C42.1414 79.3156 41.5072 78.5853 41.3342 77.7205C41.2958 77.5091 41.2958 77.2593 41.4688 77.1247C41.6225 77.0094 41.8532 77.0478 42.0454 77.1055C43.2369 77.4322 44.4092 77.7781 45.6008 78.1049C45.9851 78.2202 46.3888 78.3163 46.7924 78.3547C47.0806 78.3739 47.3881 78.3739 47.6764 78.3547C49.5983 78.2778 51.5201 78.5661 53.0384 78.4892Z" fill="#C79FFF"/>
<path d="M70.0279 77.529L65.0118 90.3093C64.8004 91.0589 64.1085 91.5778 63.3398 91.5778H48.1379C47.3499 91.5778 46.6772 91.0589 46.4658 90.3093L41.4882 77.529C41.3153 76.8947 41.5075 76.2221 41.9879 75.7801L49.4063 68.9382H62.1098L69.5282 75.7801C70.0086 76.2221 70.2008 76.8947 70.0279 77.529Z" stroke="#181919" stroke-miterlimit="10"/>
<path d="M55.5177 78.3742C63.4146 78.3742 69.8164 77.5138 69.8164 76.4524C69.8164 75.391 63.4146 74.5305 55.5177 74.5305C47.6208 74.5305 41.2191 75.391 41.2191 76.4524C41.2191 77.5138 47.6208 78.3742 55.5177 78.3742Z" fill="#B180E0" stroke="black" stroke-miterlimit="10"/>
<path d="M54.8834 74.5686C47.907 54.6966 56.9206 33.2101 75.2551 25.0422C74.8131 43.0885 58.5349 59.924 54.8834 74.5686Z" fill="white" stroke="#181919" stroke-miterlimit="10"/>
<path d="M74.9667 25.7534C61.1485 43.3961 50.5591 63.9793 55.7289 87.868" stroke="#181919" stroke-miterlimit="10" stroke-linecap="round" stroke-linejoin="round"/>
<path d="M54.7487 48.3162C55.1139 49.4501 55.5559 50.5455 56.0556 51.6218L54.7487 48.3162Z" fill="white"/>
<path d="M55.6521 48.0278L56.0365 51.6409L53.8263 48.6236C52.8846 47.1053 55.5175 46.2405 55.6521 48.0278Z" fill="#181919"/>
<path d="M62.0904 35.7667L62.3403 40.3984L60.2454 36.2664C59.592 34.825 61.9367 34.1908 62.0904 35.7667Z" fill="#181919"/>
<path d="M70.854 43.9152L65.4343 46.4904L69.7585 42.32C70.854 41.3399 72.1801 43.2425 70.854 43.9152Z" fill="#181919"/>
<path d="M64.5887 55.8498L58.4003 60.0779L63.3011 54.4084C64.2812 53.3706 65.761 55.0234 64.5887 55.8498Z" fill="#181919"/>
<path d="M49.4062 68.9377V65.8435C49.4062 65.5744 49.6176 65.363 49.8867 65.363H61.6484C61.9175 65.363 62.1289 65.5744 62.1289 65.8435V68.9377H49.4062Z" fill="#EBEBEB" stroke="#181919" stroke-miterlimit="10"/>
<path d="M124.494 48.297V73.7424C124.494 74.6649 123.955 75.5298 123.129 75.9142L95.877 88.9828C94.2819 89.7516 92.437 88.5792 92.437 86.8111V61.3849C92.437 60.4624 92.9751 59.5976 93.8015 59.2132L121.053 46.1445C122.649 45.3758 124.494 46.5481 124.494 48.297Z" fill="#56B381" stroke="#181919" stroke-miterlimit="10" stroke-linecap="round" stroke-linejoin="round"/>
<path d="M156.569 61.4042V86.8304C156.569 88.6178 154.724 89.7709 153.129 89.0021L124.513 75.2801V48.2971C124.513 46.5098 126.358 45.3567 127.953 46.1254L155.205 59.1941C156.031 59.6169 156.569 60.4625 156.569 61.4042Z" fill="#FF88B6" stroke="#181919" stroke-miterlimit="10" stroke-linecap="round" stroke-linejoin="round"/>
<path d="M152.034 92.8073L125.531 105.511C124.878 105.818 124.109 105.818 123.456 105.511L96.9532 92.8073C95.1274 91.9425 95.1274 89.348 96.9532 88.4831L124.493 75.2607L152.034 88.4831C153.86 89.348 153.86 91.9425 152.034 92.8073Z" fill="#EBEBEB"/>
<mask id="mask1_525_18821" style="mask-type:luminance" maskUnits="userSpaceOnUse" x="95" y="75" width="59" height="31">
<path d="M152.034 92.8073L125.531 105.511C124.878 105.818 124.109 105.818 123.456 105.511L96.9532 92.8073C95.1274 91.9425 95.1274 89.348 96.9532 88.4831L124.493 75.2607L152.034 88.4831C153.86 89.348 153.86 91.9425 152.034 92.8073Z" fill="white"/>
</mask>
<g mask="url(#mask1_525_18821)">
<path d="M122.533 117.676C140.061 109.219 157.588 100.782 175.115 92.3262L122.533 117.676Z" fill="#EBEBEB"/>
<path d="M122.533 117.676C140.061 109.219 157.588 100.782 175.115 92.3262" stroke="#1D1D1B" stroke-miterlimit="10"/>
<path d="M117.575 114.87C135.102 106.414 152.63 97.9767 170.157 89.5205L117.575 114.87Z" fill="#EBEBEB"/>
<path d="M117.575 114.87C135.102 106.414 152.63 97.9767 170.157 89.5205" stroke="#1D1D1B" stroke-miterlimit="10"/>
<path d="M112.636 112.064C130.163 103.608 147.691 95.171 165.218 86.7148L112.636 112.064Z" fill="#EBEBEB"/>
<path d="M112.636 112.064C130.163 103.608 147.691 95.171 165.218 86.7148" stroke="#1D1D1B" stroke-miterlimit="10"/>
<path d="M107.677 109.258C125.205 100.802 142.732 92.3649 160.259 83.9087L107.677 109.258Z" fill="#EBEBEB"/>
<path d="M107.677 109.258C125.205 100.802 142.732 92.3649 160.259 83.9087" stroke="#1D1D1B" stroke-miterlimit="10"/>
<path d="M102.738 106.433C120.266 97.9769 137.793 89.5399 155.32 81.0837L102.738 106.433Z" fill="#EBEBEB"/>
<path d="M102.738 106.433C120.266 97.9769 137.793 89.5399 155.32 81.0837" stroke="#1D1D1B" stroke-miterlimit="10"/>
<path d="M97.7799 103.627C115.307 95.171 132.835 86.734 150.362 78.2778L97.7799 103.627Z" fill="#EBEBEB"/>
<path d="M97.7799 103.627C115.307 95.171 132.835 86.734 150.362 78.2778" stroke="#1D1D1B" stroke-miterlimit="10"/>
<path d="M92.8406 100.821C110.368 92.3653 127.895 83.9284 145.423 75.4722L92.8406 100.821Z" fill="#EBEBEB"/>
<path d="M92.8406 100.821C110.368 92.3653 127.895 83.9284 145.423 75.4722" stroke="#1D1D1B" stroke-miterlimit="10"/>
<path d="M87.8823 98.0151C105.41 89.5589 122.937 81.122 140.464 72.6658L87.8823 98.0151Z" fill="#EBEBEB"/>
<path d="M87.8823 98.0151C105.41 89.5589 122.937 81.122 140.464 72.6658" stroke="#1D1D1B" stroke-miterlimit="10"/>
<path d="M82.9432 95.2094C100.471 86.7532 117.998 78.3163 135.525 69.8601L82.9432 95.2094Z" fill="#EBEBEB"/>
<path d="M82.9432 95.2094C100.471 86.7532 117.998 78.3163 135.525 69.8601" stroke="#1D1D1B" stroke-miterlimit="10"/>
<path d="M78.0038 92.4033C95.5312 83.9471 113.059 75.5101 130.586 67.054L78.0038 92.4033Z" fill="#EBEBEB"/>
<path d="M78.0038 92.4033C95.5312 83.9471 113.059 75.5101 130.586 67.054" stroke="#1D1D1B" stroke-miterlimit="10"/>
</g>
<path d="M152.034 92.8073L125.531 105.511C124.878 105.818 124.109 105.818 123.456 105.511L96.9532 92.8073C95.1274 91.9425 95.1274 89.348 96.9532 88.4831L124.493 75.2607L152.034 88.4831C153.86 89.348 153.86 91.9425 152.034 92.8073Z" stroke="#1D1D1B" stroke-miterlimit="10"/>
<path d="M123.936 69.9564L117.805 63.9217C117.556 63.6719 117.556 63.2875 117.805 63.0377L123.936 57.0031C124.186 56.7532 124.59 56.7532 124.82 57.0031L130.951 63.0377C131.201 63.2875 131.201 63.6719 130.951 63.9217L124.82 69.9564C124.59 70.187 124.186 70.187 123.936 69.9564Z" fill="#FF88B6" stroke="black" stroke-miterlimit="10"/>
<path d="M130.97 76.8563L124.839 70.8217C124.589 70.5718 124.589 70.1874 124.839 69.9376L130.97 63.903C131.22 63.6531 131.623 63.6531 131.854 63.903L137.985 69.9376C138.235 70.1874 138.235 70.5718 137.985 70.8217L131.854 76.8563C131.623 77.0869 131.22 77.0869 130.97 76.8563Z" fill="white" stroke="black" stroke-miterlimit="10"/>
<path d="M138.004 83.755L131.873 77.7204C131.624 77.4705 131.624 77.0861 131.873 76.8363L138.004 70.8016C138.254 70.5518 138.658 70.5518 138.888 70.8016L145.019 76.8363C145.269 77.0861 145.269 77.4705 145.019 77.7204L138.888 83.755C138.658 83.9856 138.254 83.9856 138.004 83.755Z" fill="#B180E0" stroke="black" stroke-miterlimit="10"/>
<path d="M123.936 83.755L117.805 77.7204C117.556 77.4705 117.556 77.0861 117.805 76.8363L123.936 70.8016C124.186 70.5518 124.59 70.5518 124.82 70.8016L130.951 76.8363C131.201 77.0861 131.201 77.4705 130.951 77.7204L124.82 83.755C124.59 83.9856 124.186 83.9856 123.936 83.755Z" fill="#5A66FF" stroke="black" stroke-miterlimit="10"/>
<path d="M130.97 90.6549L124.839 84.6203C124.589 84.3704 124.589 83.986 124.839 83.7362L130.97 77.7015C131.22 77.4517 131.623 77.4517 131.854 77.7015L137.985 83.7362C138.235 83.986 138.235 84.3704 137.985 84.6203L131.854 90.6549C131.623 90.9047 131.22 90.9047 130.97 90.6549Z" fill="white" stroke="black" stroke-miterlimit="10"/>
<path d="M109.887 83.755L103.756 77.7204C103.507 77.4705 103.507 77.0861 103.756 76.8363L109.887 70.8016C110.137 70.5518 110.541 70.5518 110.771 70.8016L116.902 76.8363C117.152 77.0861 117.152 77.4705 116.902 77.7204L110.771 83.755C110.521 83.9856 110.137 83.9856 109.887 83.755Z" fill="#FFF58C" stroke="black" stroke-miterlimit="10"/>
<path d="M116.921 90.6549L110.791 84.6203C110.541 84.3704 110.541 83.986 110.791 83.7362L116.921 77.7015C117.171 77.4517 117.575 77.4517 117.805 77.7015L123.936 83.7362C124.186 83.986 124.186 84.3704 123.936 84.6203L117.805 90.6549C117.556 90.9047 117.152 90.9047 116.921 90.6549Z" fill="white" stroke="black" stroke-miterlimit="10"/>
<path d="M123.936 97.5736L117.805 91.539C117.556 91.2891 117.556 90.9047 117.805 90.6549L123.936 84.6202C124.186 84.3704 124.59 84.3704 124.82 84.6202L130.951 90.6549C131.201 90.9047 131.201 91.2891 130.951 91.539L124.82 97.5736C124.59 97.8042 124.186 97.8042 123.936 97.5736Z" fill="#56B381" stroke="black" stroke-miterlimit="10"/>
<path d="M116.921 76.8563L110.791 70.8217C110.541 70.5718 110.541 70.1874 110.791 69.9376L116.921 63.903C117.171 63.6531 117.575 63.6531 117.805 63.903L123.936 69.9376C124.186 70.1874 124.186 70.5718 123.936 70.8217L117.805 76.8563C117.556 77.0869 117.152 77.0869 116.921 76.8563Z" fill="white"/>
<path d="M116.921 76.8563L110.791 70.8217C110.541 70.5718 110.541 70.1874 110.791 69.9376L116.921 63.903C117.171 63.6531 117.575 63.6531 117.805 63.903L123.936 69.9376C124.186 70.1874 124.186 70.5718 123.936 70.8217L117.805 76.8563C117.556 77.0869 117.152 77.0869 116.921 76.8563Z" stroke="black" stroke-miterlimit="10"/>
<path d="M90.3035 97.785V123.23C90.3035 124.153 89.7654 125.018 88.939 125.402L61.687 138.471C60.0919 139.24 58.2469 138.067 58.2469 136.299V110.854C58.2469 109.931 58.785 109.066 59.6114 108.682L86.8634 95.6133C88.4393 94.8638 90.3035 96.0169 90.3035 97.785Z" fill="#5A66FF" stroke="#181919" stroke-miterlimit="10" stroke-linecap="round" stroke-linejoin="round"/>
<path d="M122.379 110.873V136.299C122.379 138.086 120.534 139.239 118.939 138.47L90.3226 124.748V97.7847C90.3226 95.9974 92.1676 94.8442 93.7628 95.613L121.015 108.682C121.86 109.104 122.379 109.95 122.379 110.873Z" fill="#FFF58C" stroke="#181919" stroke-miterlimit="10" stroke-linecap="round" stroke-linejoin="round"/>
<path d="M117.978 142.295L91.476 154.999C90.8225 155.306 90.0537 155.306 89.4003 154.999L62.8978 142.295C61.0721 141.431 61.0721 138.836 62.8978 137.971L90.4381 124.749L117.978 137.971C119.804 138.836 119.804 141.431 117.978 142.295Z" fill="#EBEBEB"/>
<mask id="mask2_525_18821" style="mask-type:luminance" maskUnits="userSpaceOnUse" x="61" y="124" width="59" height="32">
<path d="M117.978 142.295L91.476 154.999C90.8225 155.306 90.0537 155.306 89.4003 154.999L62.8978 142.295C61.0721 141.431 61.0721 138.836 62.8978 137.971L90.4381 124.749L117.978 137.971C119.804 138.836 119.804 141.431 117.978 142.295Z" fill="white"/>
</mask>
<g mask="url(#mask2_525_18821)">
<path d="M88.4587 167.164C105.986 158.708 123.513 150.271 141.041 141.815L88.4587 167.164Z" fill="#EBEBEB"/>
<path d="M88.4587 167.164C105.986 158.708 123.513 150.271 141.041 141.815" stroke="#1D1D1B" stroke-miterlimit="10"/>
<path d="M83.5194 164.358C101.047 155.902 118.574 147.465 136.102 139.009L83.5194 164.358Z" fill="#EBEBEB"/>
<path d="M83.5194 164.358C101.047 155.902 118.574 147.465 136.102 139.009" stroke="#1D1D1B" stroke-miterlimit="10"/>
<path d="M78.5803 161.552C96.1077 153.096 113.635 144.659 131.162 136.203L78.5803 161.552Z" fill="#EBEBEB"/>
<path d="M78.5803 161.552C96.1077 153.096 113.635 144.659 131.162 136.203" stroke="#1D1D1B" stroke-miterlimit="10"/>
<path d="M73.6218 158.747C91.1491 150.29 108.676 141.853 126.204 133.397L73.6218 158.747Z" fill="#EBEBEB"/>
<path d="M73.6218 158.747C91.1491 150.29 108.676 141.853 126.204 133.397" stroke="#1D1D1B" stroke-miterlimit="10"/>
<path d="M68.6827 155.922C86.2101 147.465 103.737 139.028 121.265 130.572L68.6827 155.922Z" fill="#EBEBEB"/>
<path d="M68.6827 155.922C86.2101 147.465 103.737 139.028 121.265 130.572" stroke="#1D1D1B" stroke-miterlimit="10"/>
<path d="M63.7244 153.116C81.2518 144.66 98.7792 136.223 116.307 127.767L63.7244 153.116Z" fill="#EBEBEB"/>
<path d="M63.7244 153.116C81.2518 144.66 98.7792 136.223 116.307 127.767" stroke="#1D1D1B" stroke-miterlimit="10"/>
<path d="M58.785 150.309C76.3124 141.853 93.8398 133.416 111.367 124.96L58.785 150.309Z" fill="#EBEBEB"/>
<path d="M58.785 150.309C76.3124 141.853 93.8398 133.416 111.367 124.96" stroke="#1D1D1B" stroke-miterlimit="10"/>
<path d="M53.8267 147.504C71.3541 139.047 88.8815 130.61 106.409 122.154L53.8267 147.504Z" fill="#EBEBEB"/>
<path d="M53.8267 147.504C71.3541 139.047 88.8815 130.61 106.409 122.154" stroke="#1D1D1B" stroke-miterlimit="10"/>
<path d="M48.8877 144.697C66.4151 136.241 83.9424 127.804 101.47 119.348L48.8877 144.697Z" fill="#EBEBEB"/>
<path d="M48.8877 144.697C66.4151 136.241 83.9424 127.804 101.47 119.348" stroke="#1D1D1B" stroke-miterlimit="10"/>
<path d="M43.9291 141.892C61.4565 133.436 78.9839 124.999 96.5112 116.542L43.9291 141.892Z" fill="#EBEBEB"/>
<path d="M43.9291 141.892C61.4565 133.436 78.9839 124.999 96.5112 116.542" stroke="#1D1D1B" stroke-miterlimit="10"/>
</g>
<path d="M117.978 142.295L91.476 154.999C90.8225 155.306 90.0537 155.306 89.4003 154.999L62.8978 142.295C61.0721 141.431 61.0721 138.836 62.8978 137.971L90.4381 124.749L117.978 137.971C119.804 138.836 119.804 141.431 117.978 142.295Z" stroke="#1D1D1B" stroke-miterlimit="10"/>
<path d="M78.8107 140.027V123.211L85.7871 116.85V133.666L78.8107 140.027Z" fill="#B180E0" stroke="#181919" stroke-miterlimit="10" stroke-linecap="round" stroke-linejoin="round"/>
<path d="M103.141 140.027V123.211L96.1652 116.85V133.666L103.141 140.027Z" fill="#B180E0" stroke="#181919" stroke-miterlimit="10" stroke-linecap="round" stroke-linejoin="round"/>
<path d="M100.854 113.871C100.854 100.956 90.976 92.7881 90.976 92.7881C90.976 92.7881 81.0976 100.956 81.0976 113.871C81.0976 121.635 82.6928 129.361 85.172 134.281H96.7992C99.2592 129.361 100.854 121.654 100.854 113.871Z" fill="#5A66FF" stroke="#181919" stroke-miterlimit="10" stroke-linecap="round" stroke-linejoin="round"/>
<path d="M90.9761 116.081C94.4894 116.081 97.3375 113.233 97.3375 109.72C97.3375 106.206 94.4894 103.358 90.9761 103.358C87.4628 103.358 84.6147 106.206 84.6147 109.72C84.6147 113.233 87.4628 116.081 90.9761 116.081Z" fill="#EBEBEB" stroke="#181919" stroke-miterlimit="10" stroke-linecap="round" stroke-linejoin="round"/>
<path d="M92.5136 122.769C92.5136 122.135 91.9178 121.616 91.1875 121.616C90.4572 121.616 89.8614 122.135 89.8614 122.769C89.8614 122.788 89.8614 122.808 89.8614 122.827L91.1875 142.314L92.5136 122.788C92.5136 122.769 92.5136 122.769 92.5136 122.769Z" fill="#56B381" stroke="#181919" stroke-miterlimit="10" stroke-linecap="round" stroke-linejoin="round"/>
<path d="M91.3795 106.28L92.0138 108.202C92.0714 108.375 92.2444 108.509 92.4174 108.509H94.4353C94.8581 108.509 95.0311 109.047 94.6851 109.297L93.0515 110.489C92.8978 110.604 92.8402 110.796 92.8978 110.969L93.532 112.891C93.6665 113.295 93.2053 113.621 92.8594 113.371L91.2258 112.18C91.0721 112.065 90.8606 112.065 90.7261 112.18L89.0925 113.371C88.7466 113.621 88.3045 113.295 88.4198 112.891L89.0541 110.969C89.1118 110.796 89.0541 110.604 88.9003 110.489L87.2668 109.297C86.9208 109.047 87.0938 108.509 87.5166 108.509H89.5346C89.7267 108.509 89.8805 108.394 89.9381 108.202L90.5724 106.28C90.6877 105.895 91.2642 105.895 91.3795 106.28Z" fill="#FFF58C" stroke="#181919" stroke-miterlimit="10" stroke-linecap="round" stroke-linejoin="round"/>
</svg>
