<svg width="218" height="191" viewBox="0 0 218 191" fill="none" xmlns="http://www.w3.org/2000/svg">
<g filter="url(#filter0_d_377_1337)">
<mask id="mask0_377_1337" style="mask-type:luminance" maskUnits="userSpaceOnUse" x="19" y="96" width="182" height="70">
<path d="M20.7805 109.832C23.5638 125.988 32.0752 141.094 44.4186 151.864C47.0809 154.184 49.9247 156.322 53.0308 157.955C57.4075 160.275 62.248 158.742 67.0886 159.67C76.4269 161.465 85.987 164.732 95.4866 165.156C106.701 165.64 117.935 166.124 128.967 164.793C147.866 162.534 165.957 155.071 182.032 148.557C185.662 147.629 189.696 146.378 191.39 143.051C192.479 140.892 192.278 138.351 192.52 135.951C192.722 133.934 193.226 131.958 193.75 129.981C195.868 121.893 197.965 113.805 200.204 105.718C197.421 102.954 193.528 101.643 189.736 100.635C150.77 90.3085 109.565 101.422 69.2669 99.8485C65.5356 99.7073 61.8245 99.4451 58.1739 98.719C55.9351 98.2753 53.7165 97.6299 51.4172 97.5088C48.5331 97.3475 45.6691 98.0131 42.8656 98.719C35.1005 100.696 27.4363 103.035 19.8931 105.778C20.2158 107.311 20.6192 108.844 20.7805 109.832Z" fill="white"/>
</mask>
<g mask="url(#mask0_377_1337)">
<path d="M240.522 85.2058L177.231 150.513" stroke="#181919" stroke-miterlimit="10" stroke-linecap="round" stroke-linejoin="round"/>
<path d="M233.926 85.4074L170.636 150.715" stroke="#181919" stroke-miterlimit="10" stroke-linecap="round" stroke-linejoin="round"/>
<path d="M227.352 85.6292L164.061 150.916" stroke="#181919" stroke-miterlimit="10" stroke-linecap="round" stroke-linejoin="round"/>
<path d="M220.756 85.8311L157.466 151.138" stroke="#181919" stroke-miterlimit="10" stroke-linecap="round" stroke-linejoin="round"/>
<path d="M214.161 86.0328L150.871 151.34" stroke="#181919" stroke-miterlimit="10" stroke-linecap="round" stroke-linejoin="round"/>
<path d="M207.587 86.2546L144.296 151.542" stroke="#181919" stroke-miterlimit="10" stroke-linecap="round" stroke-linejoin="round"/>
<path d="M200.991 86.4562L137.701 151.764" stroke="#181919" stroke-miterlimit="10" stroke-linecap="round" stroke-linejoin="round"/>
<path d="M194.396 86.6579L131.105 151.965" stroke="#181919" stroke-miterlimit="10" stroke-linecap="round" stroke-linejoin="round"/>
<path d="M187.8 86.8797L124.51 152.167" stroke="#181919" stroke-miterlimit="10" stroke-linecap="round" stroke-linejoin="round"/>
<path d="M181.225 87.0816L117.935 152.389" stroke="#181919" stroke-miterlimit="10" stroke-linecap="round" stroke-linejoin="round"/>
<path d="M174.63 87.2833L111.339 152.591" stroke="#181919" stroke-miterlimit="10" stroke-linecap="round" stroke-linejoin="round"/>
<path d="M168.034 87.5051L104.744 152.792" stroke="#181919" stroke-miterlimit="10" stroke-linecap="round" stroke-linejoin="round"/>
<path d="M161.46 87.7067L98.1692 153.014" stroke="#181919" stroke-miterlimit="10" stroke-linecap="round" stroke-linejoin="round"/>
<path d="M154.864 87.9084L91.574 153.216" stroke="#181919" stroke-miterlimit="10" stroke-linecap="round" stroke-linejoin="round"/>
<path d="M148.269 88.1302L84.9785 153.417" stroke="#181919" stroke-miterlimit="10" stroke-linecap="round" stroke-linejoin="round"/>
<path d="M141.694 88.3321L78.4031 153.639" stroke="#181919" stroke-miterlimit="10" stroke-linecap="round" stroke-linejoin="round"/>
<path d="M135.098 88.5337L71.8076 153.841" stroke="#181919" stroke-miterlimit="10" stroke-linecap="round" stroke-linejoin="round"/>
<path d="M128.504 88.7556L65.2134 154.043" stroke="#181919" stroke-miterlimit="10" stroke-linecap="round" stroke-linejoin="round"/>
<path d="M121.909 88.9572L58.6182 154.265" stroke="#181919" stroke-miterlimit="10" stroke-linecap="round" stroke-linejoin="round"/>
<path d="M115.333 89.1588L52.0425 154.466" stroke="#181919" stroke-miterlimit="10" stroke-linecap="round" stroke-linejoin="round"/>
<path d="M108.737 89.3807L45.447 154.668" stroke="#181919" stroke-miterlimit="10" stroke-linecap="round" stroke-linejoin="round"/>
<path d="M102.142 89.5826L38.8518 154.89" stroke="#181919" stroke-miterlimit="10" stroke-linecap="round" stroke-linejoin="round"/>
<path d="M95.5675 89.7842L32.2771 155.092" stroke="#181919" stroke-miterlimit="10" stroke-linecap="round" stroke-linejoin="round"/>
<path d="M88.9723 90.006L25.6819 155.293" stroke="#181919" stroke-miterlimit="10" stroke-linecap="round" stroke-linejoin="round"/>
<path d="M82.3769 90.2077L19.0864 155.515" stroke="#181919" stroke-miterlimit="10" stroke-linecap="round" stroke-linejoin="round"/>
<path d="M75.8018 90.4093L12.4912 155.717" stroke="#181919" stroke-miterlimit="10" stroke-linecap="round" stroke-linejoin="round"/>
<path d="M69.206 90.6314L5.91553 155.919" stroke="#181919" stroke-miterlimit="10" stroke-linecap="round" stroke-linejoin="round"/>
<path d="M62.6107 90.833L-0.679688 156.14" stroke="#181919" stroke-miterlimit="10" stroke-linecap="round" stroke-linejoin="round"/>
<path d="M56.0155 91.0347L-7.2749 156.342" stroke="#181919" stroke-miterlimit="10" stroke-linecap="round" stroke-linejoin="round"/>
<path d="M49.4408 91.2565L-13.8496 156.544" stroke="#181919" stroke-miterlimit="10" stroke-linecap="round" stroke-linejoin="round"/>
<path d="M42.8453 91.4581L-20.4451 156.765" stroke="#181919" stroke-miterlimit="10" stroke-linecap="round" stroke-linejoin="round"/>
<path d="M36.2502 91.6598L-27.0403 156.967" stroke="#181919" stroke-miterlimit="10" stroke-linecap="round" stroke-linejoin="round"/>
</g>
<path d="M200.688 104.75C180.217 97.993 160.31 91.5994 138.931 90.3893C128.766 89.8044 118.58 90.5506 108.435 91.2969C84.3131 93.0516 60.0296 94.8466 36.6133 100.837C31.2483 102.208 25.8431 103.842 21.2244 106.888C16.7065 84.6209 21.6075 60.3979 34.435 41.3382C47.2626 22.2785 67.8552 7.61556 90.747 3.27922C103.131 0.274033 116.22 0.253865 128.624 3.21871C131.246 3.84395 133.828 4.61038 136.43 5.35663C139.133 6.14322 141.855 6.94998 144.497 7.9181C151.274 10.4191 157.587 14.0898 163.557 18.164C168.378 21.4515 173.037 25.0416 176.949 29.3578C180.842 33.6336 183.928 38.5549 187.014 43.4559C189.232 46.9855 191.451 50.5151 193.085 54.3472C194.033 56.5658 194.779 58.8853 195.505 61.1845C199.115 72.459 202.786 84.1167 201.536 95.8753C201.112 99.7881 201.092 101.361 200.688 105.052C200.588 103.842 200.608 104.487 200.688 104.75Z" fill="#5A66FF"/>
<path d="M110.271 183.53C160.675 183.53 201.535 142.669 201.535 92.2649C201.535 41.8607 160.675 1 110.271 1C59.8663 1 19.0056 41.8607 19.0056 92.2649C19.0056 142.669 59.8663 183.53 110.271 183.53Z" stroke="#181919" stroke-miterlimit="10"/>
<path d="M20.4985 106.202C31.0671 101.2 42.6441 98.7996 54.201 96.9844C87.379 91.7405 121.243 90.8732 154.643 94.4028C170.254 96.0567 185.945 98.6988 200.386 104.871" stroke="#181919" stroke-miterlimit="10" stroke-linecap="round" stroke-linejoin="round"/>
<path d="M214 137.645V170.803C177.817 160.396 145.587 184.094 109 184.094C71.1226 183.792 40.2034 160.396 4 170.803V137.645C40.2438 127.298 71.7276 152.59 109 152.59C143.953 152.873 177.756 127.298 214 137.645Z" fill="white" stroke="#181919" stroke-miterlimit="10"/>
<path d="M54.1203 140.63L35.2622 70.3815C34.4555 67.3763 36.2505 64.2904 39.2557 63.4837L84.1923 51.4226C87.2177 50.6158 90.3036 52.3907 91.1103 55.4161L109.968 125.665C110.775 128.67 108.98 131.756 105.975 132.563L61.0383 144.624C58.0331 145.43 54.9271 143.656 54.1203 140.63Z" fill="#EBEBEB" stroke="#181919" stroke-miterlimit="10" stroke-linecap="round" stroke-linejoin="round"/>
<path d="M104.805 121.409L87.5406 57.0498C87.1977 55.7792 85.9069 55.0329 84.6363 55.3758L45.2865 65.9444C45.0444 69.4538 43.2696 72.6606 40.4661 74.6372L57.7308 138.997C58.0736 140.267 59.3645 141.014 60.6351 140.671L99.9849 130.102C100.227 126.613 102.002 123.406 104.805 121.409Z" fill="#B180E0" stroke="#181919" stroke-miterlimit="10" stroke-linecap="round" stroke-linejoin="round"/>
<path d="M61.7646 126.532L83.7287 120.643" stroke="#181919" stroke-miterlimit="10" stroke-linecap="round" stroke-linejoin="round"/>
<path d="M62.9138 131.696L91.9774 123.89" stroke="#181919" stroke-miterlimit="10" stroke-linecap="round" stroke-linejoin="round"/>
<path d="M75.1164 109.812C67.3715 111.889 59.4249 107.291 57.3475 99.5661C55.371 92.2044 59.7477 84.6208 67.1094 82.6442L67.7749 82.4627C75.3181 80.4458 83.0832 84.9233 85.1203 92.4666C87.1372 100.03 82.6597 107.795 75.1164 109.812Z" fill="#EBEBEB" stroke="#181919" stroke-miterlimit="10" stroke-linecap="round" stroke-linejoin="round"/>
<path d="M62.5916 106.948L83.8699 101.906" stroke="#181919" stroke-miterlimit="10" stroke-linecap="round" stroke-linejoin="round"/>
<path d="M59.1626 101.321L85.0193 94.3825" stroke="#181919" stroke-miterlimit="10" stroke-linecap="round" stroke-linejoin="round"/>
<path d="M57.5493 96.1373L83.3858 89.1992" stroke="#181919" stroke-miterlimit="10" stroke-linecap="round" stroke-linejoin="round"/>
<path d="M59.385 89.7842L78.0615 84.7621" stroke="#181919" stroke-miterlimit="10" stroke-linecap="round" stroke-linejoin="round"/>
<path d="M67.9566 85.9318C67.7952 82.9468 68.7028 79.9013 70.4777 77.4608C71.345 76.291 72.3534 75.2422 73.5031 74.3346" stroke="#181919" stroke-miterlimit="10" stroke-linecap="round" stroke-linejoin="round"/>
<path d="M110.795 126.088L130.783 56.1421C131.63 53.1369 134.776 51.4024 137.761 52.2696L182.496 65.0568C185.502 65.9039 187.236 69.0301 186.369 72.0353L166.381 141.982C165.534 144.987 162.388 146.721 159.403 145.854L114.668 133.067C111.663 132.22 109.928 129.094 110.795 126.088Z" fill="#EBEBEB" stroke="#181919" stroke-miterlimit="10" stroke-linecap="round" stroke-linejoin="round"/>
<path d="M180.822 68.6671L141.634 57.4733C139.617 60.3574 136.45 62.1928 133.022 62.455L114.708 126.532C114.345 127.783 115.071 129.094 116.342 129.457L155.53 140.65C157.547 137.766 160.714 135.931 164.143 135.669L182.456 71.5916C182.799 70.3411 182.073 69.0301 180.822 68.6671Z" fill="#56B381" stroke="#181919" stroke-miterlimit="10" stroke-linecap="round" stroke-linejoin="round"/>
<path d="M134.877 102.954L140.383 83.6728L163.376 90.2479L157.87 109.53C157.244 111.728 154.945 112.999 152.747 112.373L137.741 108.077C135.522 107.452 134.252 105.153 134.877 102.954Z" fill="#EBEBEB" stroke="#181919" stroke-miterlimit="10" stroke-linecap="round" stroke-linejoin="round"/>
<path d="M150.084 87.5855L143.892 109.308" stroke="#181919" stroke-miterlimit="10" stroke-linecap="round" stroke-linejoin="round"/>
<path d="M154.561 88.6747L148.349 110.397" stroke="#181919" stroke-miterlimit="10" stroke-linecap="round" stroke-linejoin="round"/>
<path d="M124.612 117.92L146.475 124.172" stroke="#181919" stroke-miterlimit="10" stroke-linecap="round" stroke-linejoin="round"/>
<path d="M122.938 122.942L151.86 131.211" stroke="#181919" stroke-miterlimit="10" stroke-linecap="round" stroke-linejoin="round"/>
<path d="M82.3364 127.964V54.4278C82.3364 51.5437 84.676 49.1839 87.5804 49.1839H134.937C137.821 49.1839 140.181 51.5235 140.181 54.4278V127.984C140.181 130.868 137.842 133.228 134.937 133.228H87.5804C84.676 133.208 82.3364 130.868 82.3364 127.964Z" fill="#EBEBEB" stroke="#181919" stroke-miterlimit="10" stroke-linecap="round" stroke-linejoin="round"/>
<path d="M136.269 122.135V55.3152C136.269 54.105 135.28 53.1168 134.07 53.1168H93.1472C91.9976 56.4447 89.4563 59.0666 86.2292 60.2768V127.097C86.2292 128.307 87.2175 129.295 88.4277 129.295H129.351C130.5 125.967 133.042 123.325 136.269 122.135Z" fill="#FF88B6" stroke="#181919" stroke-miterlimit="10" stroke-linecap="round" stroke-linejoin="round"/>
<path d="M99.1372 93.9188V81.6762H123.038V93.9188C123.038 100.514 117.693 105.879 111.077 105.879C104.482 105.879 99.1372 100.514 99.1372 93.9188Z" fill="#EBEBEB" stroke="#181919" stroke-miterlimit="10" stroke-linecap="round" stroke-linejoin="round"/>
<path d="M103.675 82.0393V102.793" stroke="#181919" stroke-miterlimit="10" stroke-linecap="round" stroke-linejoin="round"/>
<path d="M109.545 82.7654V105.375" stroke="#181919" stroke-miterlimit="10" stroke-linecap="round" stroke-linejoin="round"/>
<path d="M114.143 82.584V105.193" stroke="#181919" stroke-miterlimit="10" stroke-linecap="round" stroke-linejoin="round"/>
<path d="M118.923 82.4025V101.805" stroke="#181919" stroke-miterlimit="10" stroke-linecap="round" stroke-linejoin="round"/>
<path d="M106.398 75.3433V81.1923" stroke="#181919" stroke-miterlimit="10" stroke-linecap="round" stroke-linejoin="round"/>
<path d="M116.442 75.3433V81.1923" stroke="#181919" stroke-miterlimit="10" stroke-linecap="round" stroke-linejoin="round"/>
<path d="M106.398 75.3029C107.601 75.3029 108.576 74.3277 108.576 73.1246C108.576 71.9216 107.601 70.9464 106.398 70.9464C105.195 70.9464 104.22 71.9216 104.22 73.1246C104.22 74.3277 105.195 75.3029 106.398 75.3029Z" fill="#EBEBEB" stroke="#181919" stroke-miterlimit="10" stroke-linecap="round" stroke-linejoin="round"/>
<path d="M116.483 75.3029C117.686 75.3029 118.661 74.3277 118.661 73.1246C118.661 71.9216 117.686 70.9464 116.483 70.9464C115.28 70.9464 114.304 71.9216 114.304 73.1246C114.304 74.3277 115.28 75.3029 116.483 75.3029Z" fill="#EBEBEB" stroke="#181919" stroke-miterlimit="10" stroke-linecap="round" stroke-linejoin="round"/>
<path d="M93.3691 115.923H116.12" stroke="#181919" stroke-miterlimit="10" stroke-linecap="round" stroke-linejoin="round"/>
<path d="M93.1465 121.207H123.239" stroke="#181919" stroke-miterlimit="10" stroke-linecap="round" stroke-linejoin="round"/>
<path d="M112.025 16.974L113.841 22.5608C114.002 23.0852 114.486 23.4281 115.031 23.4281H120.9C122.11 23.4281 122.614 24.9811 121.646 25.687L116.886 29.1359C116.442 29.4586 116.261 30.0233 116.422 30.5276L118.237 36.1144C118.621 37.264 117.29 38.2321 116.301 37.5061L111.541 34.0572C111.098 33.7344 110.513 33.7344 110.069 34.0572L105.309 37.5061C104.321 38.212 103.01 37.264 103.373 36.1144L105.188 30.5276C105.349 30.0032 105.168 29.4384 104.724 29.1359L99.9643 25.687C98.976 24.9811 99.4803 23.4281 100.711 23.4281H106.58C107.124 23.4281 107.608 23.0852 107.77 22.5608L109.585 16.974C110.008 15.8243 111.642 15.8243 112.025 16.974Z" fill="#FFF58C" stroke="#181919" stroke-miterlimit="10" stroke-linecap="round" stroke-linejoin="round"/>
<path d="M51.0349 42.8911C65.3348 36.5984 80.5422 32.3226 96.032 30.225" stroke="#181919" stroke-miterlimit="10" stroke-linecap="round" stroke-linejoin="round"/>
<path d="M45.4275 51.0797C47.0316 51.0797 48.3319 49.7794 48.3319 48.1753C48.3319 46.5713 47.0316 45.271 45.4275 45.271C43.8235 45.271 42.5232 46.5713 42.5232 48.1753C42.5232 49.7794 43.8235 51.0797 45.4275 51.0797Z" fill="#FFF58C" stroke="#181919" stroke-miterlimit="10" stroke-linecap="round" stroke-linejoin="round"/>
<path d="M170.314 43.7584C156.014 37.4657 140.806 33.1899 125.317 31.0923" stroke="#181919" stroke-miterlimit="10" stroke-linecap="round" stroke-linejoin="round"/>
<path d="M175.921 51.947C177.525 51.947 178.825 50.6467 178.825 49.0426C178.825 47.4386 177.525 46.1383 175.921 46.1383C174.317 46.1383 173.016 47.4386 173.016 49.0426C173.016 50.6467 174.317 51.947 175.921 51.947Z" fill="#FFF58C" stroke="#181919" stroke-miterlimit="10" stroke-linecap="round" stroke-linejoin="round"/>
<path d="M22.9796 154.466C22.3342 154.426 22.0115 154.406 21.3459 154.386C21.1442 155.374 21.0232 155.858 20.8215 156.826C20.2164 156.806 19.9139 156.806 19.3088 156.806C19.5307 155.818 19.6315 155.334 19.8332 154.345C19.3088 154.345 19.0466 154.325 18.5222 154.325C18.5222 153.801 18.5222 153.538 18.5222 153.014C19.1475 153.014 19.4702 153.014 20.0954 153.034C20.2568 152.248 20.3576 151.844 20.519 151.058C19.9139 151.038 19.5912 151.038 18.9861 151.038C18.9861 150.513 18.9861 150.251 18.9861 149.727C19.7122 149.727 20.0752 149.747 20.8013 149.767C21.0232 148.779 21.124 148.295 21.3459 147.306C21.951 147.326 22.2535 147.347 22.8586 147.387C22.6367 148.375 22.5359 148.859 22.314 149.848C22.9594 149.888 23.2821 149.908 23.9275 149.948C24.1494 148.98 24.2502 148.476 24.4923 147.508C25.0772 147.548 25.3797 147.589 25.9646 147.629C25.7427 148.617 25.6217 149.101 25.3999 150.069C25.9041 150.11 26.1663 150.15 26.6503 150.19C26.6503 150.715 26.6503 150.977 26.6503 151.501C26.0453 151.441 25.7226 151.401 25.1175 151.36C24.9561 152.147 24.8755 152.53 24.6939 153.317C25.299 153.357 25.6015 153.397 26.2066 153.458C26.2066 153.982 26.2066 154.244 26.2268 154.769C25.5007 154.688 25.1578 154.668 24.4318 154.607C24.2301 155.576 24.1292 156.06 23.9275 157.008C23.3225 156.967 23.0401 156.947 22.435 156.927C22.677 155.918 22.7779 155.434 22.9796 154.466ZM21.6283 153.075C22.2938 153.095 22.6165 153.115 23.262 153.155C23.4233 152.369 23.504 151.965 23.6855 151.199C23.0401 151.159 22.7174 151.138 22.0518 151.098C21.8904 151.885 21.7896 152.288 21.6283 153.075Z" fill="#181919"/>
<path d="M28.2837 152.53C32.0956 153.014 33.9512 153.357 37.7026 154.123C37.7026 154.688 37.743 154.971 37.7631 155.555C36.2303 155.233 35.4639 155.092 33.9512 154.829C33.9714 155.596 33.9915 155.999 34.0117 156.725C33.3865 156.624 33.0839 156.564 32.4385 156.463C32.4183 155.737 32.3982 155.334 32.378 154.567C30.7443 154.305 29.9376 154.184 28.2837 153.982C28.3039 153.397 28.2837 153.095 28.2837 152.53ZM28.9492 151.643C28.9492 149.908 28.9694 149.041 29.0501 147.286C32.378 147.71 34.0117 147.992 37.2791 148.637C37.1177 150.432 37.0572 151.32 37.0572 153.034C33.8302 152.369 32.2166 152.066 28.9492 151.643ZM30.6233 157.028C33.3663 157.411 34.7176 157.633 37.4203 158.157C37.4404 158.682 37.4606 158.944 37.4808 159.468C34.1327 158.863 32.4587 158.601 29.0703 158.218C29.0501 156.927 29.0501 156.302 29.0098 154.971C29.6552 155.051 29.9577 155.092 30.6031 155.192C30.6031 155.939 30.6031 156.302 30.6233 157.028ZM35.5849 149.747C33.5881 149.364 32.5999 149.202 30.583 148.9C30.5628 149.545 30.5225 149.868 30.5225 150.493C32.5192 150.796 33.5075 150.977 35.484 151.36C35.5042 150.715 35.5244 150.392 35.5849 149.747Z" fill="#181919"/>
<path d="M40.2038 154.587C40.2038 153.78 40.5063 153.175 41.0307 152.853C41.4744 152.57 42.1198 152.469 42.8459 152.631C43.572 152.792 44.2174 153.175 44.6813 153.68C45.2057 154.244 45.4881 154.991 45.4881 155.777C45.4881 156.564 45.2863 157.189 44.8023 157.512C44.5401 157.693 44.1972 157.774 43.7938 157.794C43.814 158.278 43.8342 158.5 43.8543 158.924C44.3586 159.045 44.6208 159.105 45.125 159.206C45.9721 159.408 46.5772 159.428 46.8999 159.226C46.7385 156.221 46.5973 154.184 47.0411 150.594C47.6663 150.735 47.989 150.816 48.6142 150.957C48.3924 152.792 48.2714 153.7 48.2714 155.454C48.9168 155.596 49.2193 155.676 49.8647 155.838C49.8647 156.402 49.8446 156.685 49.8849 157.25C49.2395 157.108 48.937 157.028 48.2916 156.866C48.4327 158.944 48.4932 159.932 48.5941 161.767C47.9688 161.626 47.6461 161.546 47.0209 161.404C47.0007 161.001 46.9806 160.799 46.9604 160.396C46.6377 160.638 45.8713 160.618 44.883 160.376C42.9468 159.932 41.9988 159.73 40.0626 159.347C40.0424 158.843 40.0222 158.581 40.0021 158.056C40.9097 158.258 41.3736 158.359 42.2812 158.561C42.261 158.137 42.2408 157.915 42.2207 157.431C41.7971 157.25 41.4341 156.987 41.1517 156.685C40.5668 156.14 40.2038 155.394 40.2038 154.587ZM43.7938 150.896C44.6611 151.098 45.0847 151.199 45.9519 151.401C45.8713 151.985 45.8511 152.288 45.7704 152.873C43.4308 152.328 42.261 152.046 39.9214 151.542C39.9819 150.957 40.0222 150.654 40.0827 150.069C40.95 150.251 41.3736 150.352 42.2408 150.533C42.3014 150.009 42.3417 149.726 42.4022 149.202C43.0274 149.343 43.3501 149.404 43.9754 149.545C43.8947 150.09 43.8543 150.372 43.7938 150.896ZM41.7366 154.95C41.7366 155.313 41.898 155.656 42.1198 155.898C42.3215 156.12 42.5837 156.281 42.8862 156.362C43.1888 156.423 43.451 156.382 43.6123 156.241C43.7938 156.08 43.8947 155.797 43.8947 155.434C43.8947 155.071 43.7737 154.728 43.572 154.486C43.3905 154.265 43.1283 154.103 42.8257 154.022C42.5232 153.962 42.261 154.002 42.0795 154.144C41.8778 154.305 41.7366 154.587 41.7366 154.95Z" fill="#181919"/>
<path d="M53.4349 153.881C53.2937 155.233 53.3341 155.858 53.3341 157.129C56.1174 157.754 57.5292 158.056 60.4336 158.621C60.4336 159.206 60.4336 159.488 60.4538 160.073C59.0016 159.791 58.2957 159.65 56.8637 159.347C56.904 160.477 56.9241 161.061 56.9645 162.13C58.5578 162.493 59.3445 162.675 60.958 163.018C60.958 163.583 60.958 163.865 60.958 164.43C57.1057 163.502 55.2098 163.018 51.4382 162.11C51.418 161.606 51.3979 161.344 51.3777 160.84C52.9509 161.223 53.7576 161.404 55.351 161.767C55.3107 160.739 55.2703 160.134 55.23 159.004C53.8181 158.702 53.1324 158.54 51.7407 158.218C51.5995 155.777 51.6802 154.567 51.9828 152.026C55.3308 152.812 57.0048 153.216 60.4134 153.922C60.3932 154.507 60.3932 154.809 60.3731 155.394C57.5696 154.809 56.1779 154.507 53.4349 153.881Z" fill="#181919"/>
<path d="M66.2222 162.937C65.6575 163.905 64.3465 164.571 63.0557 164.652C63.0557 164.026 63.0557 163.724 63.0557 163.099C64.3263 162.776 65.4154 161.969 65.4154 158.843C65.4154 157.229 65.4154 156.463 65.3953 154.91C66.0407 155.071 66.3836 155.132 67.029 155.293C67.0491 156.826 67.0491 157.593 67.0491 159.186C67.0491 162.332 68.1383 163.603 69.3887 164.571C69.3686 165.237 69.3686 165.579 69.3484 166.245C68.0576 165.499 66.8071 164.147 66.2222 162.937ZM72.2931 167.919C71.6275 167.738 71.3048 167.637 70.6392 167.455C70.7603 162.514 70.7401 160.295 70.6997 156.12C71.3653 156.302 71.688 156.382 72.3536 156.564C72.3939 160.719 72.4141 162.917 72.2931 167.919Z" fill="#181919"/>
<path d="M82.7204 170.763C82.7406 170.259 82.7406 169.997 82.7406 169.472C82.3574 169.775 81.5305 169.775 80.4817 169.492C78.3236 168.907 77.2546 168.625 75.1167 168.02C75.1369 167.375 75.1369 167.052 75.157 166.386C77.416 167.011 78.5656 167.334 80.8447 167.959C81.7322 168.201 82.4179 168.222 82.781 167.959C82.8616 164.107 82.8011 162.655 82.781 159.408C83.4465 159.589 83.7894 159.67 84.455 159.851C84.4953 164.047 84.5155 166.265 84.3945 171.186C83.7289 171.005 83.386 170.924 82.7204 170.763ZM75.5806 160.84C75.5806 159.569 75.9033 158.783 76.6294 158.399C77.1134 158.137 77.8395 158.117 78.6261 158.339C79.3925 158.561 80.1388 158.984 80.643 159.509C81.3691 160.295 81.7523 161.263 81.7322 162.534C81.712 163.805 81.3691 164.692 80.643 165.136C80.1388 165.438 79.4127 165.458 78.6463 165.257C77.8597 165.035 77.1538 164.611 76.6496 164.026C75.9235 163.179 75.5806 162.11 75.5806 160.84ZM77.2345 161.283C77.2345 162.05 77.3756 162.736 77.7387 163.2C77.9605 163.482 78.2832 163.663 78.6463 163.764C79.0093 163.865 79.3321 163.865 79.5539 163.704C79.917 163.442 80.0581 162.837 80.0581 162.07C80.0581 161.304 79.9169 160.658 79.5337 160.235C79.3119 159.972 78.9892 159.771 78.6261 159.67C78.2631 159.569 77.9404 159.589 77.7185 159.73C77.3756 159.952 77.2345 160.517 77.2345 161.283Z" fill="#181919"/>
<path d="M93.41 162.03C93.41 162.574 93.41 162.857 93.41 163.401C92.5831 163.24 92.1595 163.139 91.3124 162.958C91.3124 162.978 91.3124 162.998 91.3124 163.018C91.3326 164.853 92.1797 165.882 93.6117 166.467C93.6117 167.052 93.6117 167.354 93.6117 167.939C92.2805 167.475 91.1511 166.648 90.5056 165.62C89.8401 166.346 88.6703 166.81 87.3391 166.648C87.3391 166.064 87.3391 165.761 87.3391 165.176C88.7913 165.237 89.6585 164.49 89.6384 162.635C89.6384 162.615 89.6384 162.594 89.6384 162.574C88.8114 162.373 88.3879 162.272 87.5408 162.07C87.5408 161.526 87.5408 161.263 87.5206 160.719C89.9006 161.324 91.0704 161.586 93.41 162.03ZM88.0854 169.654C88.1055 168.786 88.5089 168.343 89.1342 168.101C90.0014 167.778 91.2922 167.899 92.4822 168.141C93.6924 168.383 94.9832 168.807 95.8303 169.472C96.4555 169.956 96.8791 170.581 96.8791 171.408C96.8791 172.235 96.4555 172.78 95.8101 173.062C94.9428 173.466 93.652 173.425 92.4419 173.203C91.2519 172.982 89.9409 172.558 89.0736 171.792C88.4686 171.247 88.0652 170.521 88.0854 169.654ZM89.7594 170.037C89.7594 170.339 89.9006 170.581 90.1628 170.803C90.6872 171.227 91.6149 171.529 92.462 171.691C93.3495 171.872 94.2571 171.933 94.8017 171.711C95.0639 171.59 95.2252 171.408 95.2252 171.126C95.2252 170.844 95.0639 170.622 94.8218 170.42C94.2974 170.017 93.3697 169.754 92.5024 169.573C91.6351 169.391 90.7073 169.27 90.183 169.472C89.9006 169.573 89.7594 169.754 89.7594 170.037ZM94.963 168.484C94.963 167.415 94.963 166.87 94.963 165.822C94.1159 165.66 93.6924 165.579 92.8453 165.398C92.8453 164.833 92.8453 164.531 92.8453 163.966C93.6924 164.147 94.1159 164.228 94.963 164.39C94.963 163.502 94.963 163.079 94.963 162.191C95.6286 162.312 95.9715 162.373 96.637 162.473C96.637 164.974 96.637 166.225 96.637 168.786C95.9715 168.665 95.6286 168.605 94.963 168.484Z" fill="#181919"/>
<path d="M99.4407 169.855C103.414 170.339 105.37 170.44 109.324 170.279C109.324 170.864 109.324 171.146 109.324 171.731C107.67 171.791 106.843 171.811 105.189 171.771C105.189 172.901 105.189 173.465 105.189 174.595C104.523 174.575 104.201 174.575 103.535 174.534C103.535 173.405 103.535 172.84 103.535 171.711C101.901 171.61 101.074 171.529 99.4407 171.327C99.4407 170.722 99.4407 170.44 99.4407 169.855ZM107.105 164.994C107.105 164.369 107.105 164.067 107.105 163.441C107.77 163.441 108.093 163.421 108.759 163.401C108.759 165.72 108.759 166.87 108.759 169.19C105.249 169.311 103.495 169.23 99.9852 168.806C99.9852 166.487 99.9852 165.317 99.9852 163.038C100.651 163.119 100.994 163.139 101.659 163.199C101.659 163.825 101.659 164.127 101.659 164.732C103.838 164.954 104.927 165.015 107.105 164.994ZM107.105 166.426C104.927 166.447 103.838 166.386 101.659 166.184C101.659 166.749 101.659 167.011 101.659 167.576C103.838 167.778 104.927 167.838 107.105 167.818C107.105 167.253 107.105 166.971 107.105 166.426Z" fill="#181919"/>
<path d="M119.649 169.997C118.984 170.118 118.641 170.158 117.975 170.259C117.774 171.287 117.653 171.812 117.451 172.84C116.826 172.921 116.523 172.961 115.918 173.042C116.14 172.013 116.241 171.509 116.443 170.481C115.918 170.561 115.656 170.581 115.132 170.642C115.132 170.118 115.132 169.855 115.132 169.311C115.777 169.23 116.1 169.19 116.725 169.109C116.906 168.282 116.987 167.859 117.169 167.052C116.543 167.153 116.241 167.193 115.616 167.274C115.616 166.749 115.616 166.507 115.616 165.983C116.362 165.882 116.725 165.842 117.471 165.741C117.693 164.732 117.794 164.188 118.016 163.139C118.641 163.038 118.944 162.998 119.569 162.877C119.367 163.946 119.246 164.49 119.024 165.499C119.69 165.398 120.033 165.337 120.698 165.216C120.92 164.208 121.021 163.663 121.243 162.574C121.848 162.453 122.171 162.393 122.776 162.272C122.574 163.361 122.473 163.926 122.251 164.914C122.776 164.813 123.038 164.753 123.582 164.652C123.582 165.156 123.582 165.398 123.562 165.902C122.917 166.043 122.594 166.104 121.949 166.225C121.767 167.032 121.687 167.455 121.505 168.302C122.13 168.181 122.453 168.121 123.098 167.98C123.098 168.524 123.098 168.786 123.098 169.331C122.352 169.492 121.969 169.553 121.223 169.694C121.021 170.743 120.9 171.267 120.698 172.296C120.073 172.397 119.77 172.457 119.165 172.558C119.327 171.55 119.428 171.025 119.649 169.997ZM118.238 168.887C118.903 168.786 119.246 168.726 119.912 168.605C120.093 167.758 120.174 167.354 120.355 166.548C119.69 166.669 119.347 166.729 118.661 166.83C118.5 167.637 118.419 168.06 118.238 168.887Z" fill="#181919"/>
<path d="M125.439 163.905C125.459 162.917 125.822 161.909 126.447 161.243C126.951 160.719 127.597 160.335 128.363 160.154C129.129 159.972 129.795 160.033 130.299 160.315C130.945 160.678 131.388 161.546 131.368 162.514C131.348 163.502 130.945 164.329 130.299 164.974C129.795 165.458 129.15 165.842 128.363 166.043C127.597 166.225 126.931 166.164 126.447 165.922C125.802 165.559 125.418 164.894 125.439 163.905ZM132.962 165.398C133.627 165.216 133.95 165.136 134.615 164.954C134.636 166.991 134.636 168.02 134.656 170.057C131.288 170.944 129.613 171.388 126.225 172.134C126.205 170.117 126.205 169.109 126.185 167.092C126.85 166.931 127.193 166.87 127.859 166.709C127.859 167.193 127.859 167.435 127.859 167.899C129.896 167.415 130.924 167.153 132.941 166.608C132.962 166.124 132.962 165.882 132.962 165.398ZM127.072 163.522C127.072 164.006 127.213 164.389 127.496 164.551C127.718 164.692 128.02 164.732 128.363 164.631C128.706 164.531 129.029 164.349 129.25 164.127C129.553 163.804 129.714 163.381 129.714 162.897C129.714 162.413 129.553 161.969 129.25 161.767C129.029 161.606 128.726 161.566 128.363 161.646C128 161.727 127.718 161.929 127.496 162.191C127.234 162.534 127.092 163.058 127.072 163.522ZM127.879 169.331C127.879 169.714 127.879 169.896 127.879 170.279C129.916 169.795 130.945 169.553 132.982 169.008C132.982 168.625 132.982 168.443 132.982 168.06C130.945 168.605 129.916 168.847 127.879 169.331ZM132.941 164.954C132.921 162.514 132.982 161.586 132.941 159.024C133.607 158.843 133.93 158.762 134.595 158.581C134.656 161.142 134.575 162.07 134.595 164.51C133.95 164.692 133.607 164.773 132.941 164.954Z" fill="#181919"/>
<path d="M137.338 163.3C141.332 162.191 143.329 161.626 147.241 160.598C147.241 161.142 147.241 161.485 147.241 162.07C145.648 162.494 144.841 162.716 143.248 163.159C143.248 163.946 143.248 164.349 143.268 165.156C142.623 165.337 142.3 165.438 141.634 165.62C141.634 164.813 141.614 164.43 141.614 163.623C139.9 164.087 139.053 164.329 137.338 164.813C137.338 164.188 137.338 163.845 137.338 163.3ZM138.064 162.191C138.085 160.578 138.085 159.65 138.044 157.774C141.473 156.826 143.187 156.342 146.556 155.455C146.576 157.29 146.596 158.177 146.576 159.831C143.187 160.759 141.493 161.243 138.064 162.191ZM139.738 167.072C142.582 166.285 143.994 165.862 146.777 165.095C146.777 165.68 146.777 165.983 146.777 166.588C143.329 167.576 141.594 168.08 138.085 169.049C138.064 167.657 138.064 166.951 138.044 165.559C138.71 165.378 139.033 165.277 139.698 165.095C139.718 165.882 139.718 166.285 139.738 167.072ZM144.942 157.371C142.865 157.956 141.816 158.238 139.718 158.823C139.738 159.509 139.738 159.872 139.738 160.457C141.836 159.872 142.885 159.569 144.962 158.984C144.962 158.379 144.962 158.036 144.942 157.371Z" fill="#181919"/>
<path d="M157.386 160.517C156.7 160.678 156.378 160.759 155.692 160.92C155.41 161.949 155.349 162.453 155.147 163.482C154.522 163.643 154.22 163.724 153.615 163.885C153.816 162.857 153.897 162.352 154.159 161.304C153.635 161.425 153.373 161.505 152.848 161.626C152.868 161.102 152.868 160.84 152.868 160.315C153.514 160.154 153.836 160.073 154.502 159.912C154.724 159.065 154.825 158.641 154.986 157.794C154.341 157.956 154.018 158.036 153.373 158.198C153.373 157.673 153.352 157.411 153.352 156.866C154.099 156.665 154.482 156.584 155.228 156.382C155.43 155.313 155.551 154.829 155.773 153.821C156.398 153.66 156.721 153.579 157.346 153.438C157.124 154.446 157.003 154.91 156.821 155.999C157.507 155.838 157.85 155.737 158.536 155.576C158.717 154.486 158.838 154.023 159.06 153.014C159.685 152.853 160.008 152.772 160.633 152.631C160.412 153.639 160.291 154.103 160.109 155.192C160.654 155.071 160.916 154.991 161.46 154.87C161.48 155.414 161.501 155.697 161.541 156.241C160.875 156.403 160.533 156.483 159.867 156.624C159.726 157.512 159.625 157.935 159.343 158.762C160.008 158.601 160.331 158.54 160.976 158.379C160.916 158.903 160.896 159.166 160.835 159.69C160.069 159.872 159.685 159.952 158.919 160.134C158.596 161.162 158.556 161.646 158.354 162.655C157.729 162.816 157.427 162.897 156.801 163.038C157.023 162.03 157.084 161.546 157.386 160.517ZM156.075 159.549C156.761 159.388 157.104 159.307 157.81 159.146C158.052 158.319 158.173 157.895 158.314 157.008C157.628 157.169 157.265 157.25 156.579 157.431C156.418 158.278 156.297 158.702 156.075 159.549Z" fill="#181919"/>
<path d="M167.31 151.804C165.736 152.147 164.97 152.328 163.397 152.691C163.397 152.147 163.397 151.864 163.377 151.32C165.615 150.775 166.745 150.493 169.024 149.989C169.024 150.372 169.024 150.574 169.044 150.957C169.105 154.507 167.068 156.443 163.215 157.673C163.296 157.108 163.316 156.826 163.276 156.201C166.079 155.273 167.35 153.781 167.31 151.804ZM163.74 160.033C163.72 159.347 164.143 158.742 164.728 158.258C165.636 157.492 167.027 156.967 168.52 156.665C170.012 156.362 171.343 156.302 172.11 156.725C172.594 156.987 172.816 157.471 172.836 158.137C172.856 158.823 172.533 159.388 172.009 159.851C171.182 160.577 169.811 161.041 168.338 161.364C166.846 161.667 165.494 161.767 164.647 161.384C164.083 161.142 163.76 160.699 163.74 160.033ZM165.474 159.63C165.474 159.892 165.615 160.053 165.878 160.134C166.362 160.315 167.229 160.214 168.298 159.993C169.387 159.771 170.234 159.509 170.718 159.125C170.96 158.924 171.081 158.702 171.081 158.46C171.081 158.218 170.94 158.056 170.718 157.935C170.274 157.734 169.407 157.814 168.338 158.056C167.269 158.278 166.382 158.561 165.878 158.964C165.575 159.186 165.454 159.388 165.474 159.63ZM172.715 151.542C173.36 151.421 173.683 151.36 174.328 151.239C174.349 151.844 174.369 152.147 174.409 152.772C173.764 152.893 173.441 152.954 172.796 153.075C172.856 154.123 172.917 154.668 172.796 155.656C172.11 155.797 171.747 155.858 171.061 155.999C171.384 153.498 170.98 152.026 170.94 149.444C171.626 149.283 171.989 149.222 172.675 149.061C172.675 150.049 172.695 150.533 172.715 151.542Z" fill="#181919"/>
<path d="M183.908 158.52C183.908 158.077 183.908 157.855 183.888 157.391C183.504 157.794 182.657 158.077 181.548 158.218C179.289 158.52 178.16 158.702 175.881 159.085C175.86 158.541 175.86 158.258 175.86 157.714C178.26 157.29 179.471 157.109 181.871 156.786C182.819 156.665 183.504 156.423 183.888 156.08C183.847 152.712 183.988 150.957 183.908 147.085C184.594 147.004 184.936 146.943 185.642 146.883C185.763 151.925 185.622 153.982 185.663 158.339C184.936 158.399 184.594 158.44 183.908 158.52ZM176.445 152.127C176.385 150.816 176.728 149.706 177.474 148.9C177.978 148.355 178.745 147.952 179.551 147.811C180.358 147.669 181.124 147.831 181.669 148.214C182.435 148.799 182.839 149.868 182.879 151.159C182.92 152.449 182.556 153.498 181.77 154.224C181.225 154.729 180.439 155.071 179.632 155.192C178.825 155.313 178.079 155.213 177.595 154.89C176.849 154.386 176.506 153.438 176.445 152.127ZM178.16 151.844C178.2 152.631 178.381 153.276 178.765 153.599C179.007 153.781 179.329 153.821 179.713 153.76C180.096 153.7 180.439 153.559 180.661 153.297C181.024 152.873 181.145 152.187 181.124 151.401C181.104 150.614 180.923 149.949 180.54 149.606C180.298 149.404 179.955 149.323 179.571 149.384C179.188 149.444 178.845 149.626 178.624 149.888C178.26 150.332 178.119 151.038 178.16 151.844Z" fill="#181919"/>
<path d="M190.907 146.076C191.592 146.036 191.935 146.036 192.621 146.015C192.621 146.439 192.621 146.661 192.641 147.105C193.549 147.084 194.013 147.064 194.92 147.064C194.92 147.649 194.92 147.932 194.94 148.516C192.399 148.577 191.108 148.658 188.506 148.879C188.486 148.274 188.486 147.952 188.466 147.347C189.454 147.266 189.938 147.226 190.927 147.185C190.907 146.721 190.907 146.5 190.907 146.076ZM188.869 151.401C188.869 150.735 189.172 150.15 189.696 149.747C190.221 149.343 190.947 149.081 191.774 149.021C192.601 148.98 193.347 149.142 193.851 149.485C194.376 149.827 194.698 150.352 194.698 151.017C194.698 151.703 194.376 152.248 193.851 152.631C193.327 153.014 192.601 153.236 191.774 153.296C190.947 153.357 190.221 153.216 189.696 152.913C189.192 152.611 188.869 152.086 188.869 151.401ZM189.394 156.08C189.394 155.394 189.717 154.849 190.301 154.486C191.128 153.942 192.439 153.7 193.892 153.639C195.364 153.579 196.635 153.7 197.421 154.164C197.986 154.486 198.309 154.991 198.309 155.697C198.309 156.382 197.986 156.887 197.421 157.229C196.635 157.713 195.344 157.895 193.892 157.956C192.439 158.016 191.108 157.956 190.301 157.532C189.717 157.229 189.394 156.745 189.394 156.08ZM190.483 151.28C190.483 151.501 190.604 151.683 190.765 151.804C190.987 151.965 191.35 152.046 191.774 152.026C192.197 152.006 192.56 151.864 192.782 151.663C192.944 151.522 193.065 151.32 193.065 151.098C193.065 150.876 192.964 150.695 192.782 150.574C192.56 150.392 192.177 150.332 191.774 150.352C191.35 150.372 190.987 150.493 190.765 150.695C190.604 150.856 190.483 151.058 190.483 151.28ZM191.108 155.939C191.108 156.12 191.209 156.241 191.411 156.342C191.875 156.544 192.762 156.584 193.892 156.544C195.021 156.503 195.908 156.382 196.352 156.12C196.554 155.999 196.655 155.878 196.655 155.697C196.655 155.515 196.534 155.374 196.352 155.273C195.908 155.031 195.021 154.971 193.892 155.011C192.762 155.071 191.875 155.213 191.411 155.495C191.209 155.616 191.108 155.757 191.108 155.939ZM194.9 148.9C195.505 148.879 195.787 148.879 196.392 148.859C196.392 147.871 196.393 147.367 196.372 146.378C197.038 146.399 197.381 146.419 198.046 146.459C198.046 149.242 198.046 150.614 198.046 153.377C197.381 153.377 197.058 153.377 196.372 153.397C196.372 152.974 196.372 152.752 196.372 152.328C195.787 152.349 195.485 152.349 194.88 152.369C194.88 151.824 194.88 151.562 194.88 151.017C195.485 150.997 195.767 150.997 196.372 150.977C196.372 150.675 196.372 150.513 196.372 150.211C195.787 150.231 195.485 150.231 194.88 150.251C194.9 149.727 194.92 149.464 194.9 148.9Z" fill="#181919"/>
</g>
<defs>
<filter id="filter0_d_377_1337" x="0.5" y="0.5" width="217" height="190.094" filterUnits="userSpaceOnUse" color-interpolation-filters="sRGB">
<feFlood flood-opacity="0" result="BackgroundImageFix"/>
<feColorMatrix in="SourceAlpha" type="matrix" values="0 0 0 0 0 0 0 0 0 0 0 0 0 0 0 0 0 0 127 0" result="hardAlpha"/>
<feOffset dy="3"/>
<feGaussianBlur stdDeviation="1.5"/>
<feComposite in2="hardAlpha" operator="out"/>
<feColorMatrix type="matrix" values="0 0 0 0 0 0 0 0 0 0 0 0 0 0 0 0 0 0 0.15 0"/>
<feBlend mode="normal" in2="BackgroundImageFix" result="effect1_dropShadow_377_1337"/>
<feBlend mode="normal" in="SourceGraphic" in2="effect1_dropShadow_377_1337" result="shape"/>
</filter>
</defs>
</svg>
