<svg width="212" height="185" viewBox="0 0 212 185" fill="none" xmlns="http://www.w3.org/2000/svg">
<path d="M107.271 183.53C157.676 183.53 198.536 142.669 198.536 92.2649C198.536 41.8607 157.676 1 107.271 1C56.8673 1 16.0066 41.8607 16.0066 92.2649C16.0066 142.669 56.8673 183.53 107.271 183.53Z" fill="#FF88B6"/>
<path d="M176.713 149.767C183.429 144.442 189.036 134.741 191.476 129.154C192.808 126.068 192.969 123.527 194.018 120.764C195.026 118.101 195.994 116.407 196.579 113.604C178.004 111.688 162.09 111.849 143.918 108.642C141.114 108.158 139.077 108.017 133.571 106.766C122.478 106 109.671 103.66 98.5375 103.439C92.9305 103.318 87.6664 104.75 82.1401 105.697C75.1818 105.697 68.8487 107.634 62.3946 108.561C48.2158 110.599 33.331 112.676 18.8093 114.673C19.8379 128.71 28.8132 139.38 42.0844 145.551C46.8443 148.98 52.4109 151.118 58.0583 152.691C65.6822 154.829 73.5481 155.999 81.3939 157.129C95.2096 159.105 109.146 160.961 123.083 160.356C135.245 159.831 147.266 157.451 159.206 155.071C161.646 154.587 164.107 154.103 166.427 153.155C170.077 151.663 173.627 148.98 176.713 149.767Z" fill="white"/>
<path d="M133.712 120.219C134.277 121.47 133.208 123.043 133.773 124.293C133.994 124.777 134.398 125.12 134.821 125.443C135.608 126.068 136.374 126.714 137.161 127.339C138.008 128.025 138.855 128.73 139.783 129.336C140.57 129.86 141.376 130.324 142.163 130.828C144.321 132.179 146.318 133.753 148.294 135.326C150.836 137.343 153.397 139.339 155.938 141.356C156.059 141.457 156.201 141.558 156.362 141.598C156.503 141.618 156.644 141.578 156.785 141.538C159.569 140.751 162.332 139.944 165.115 139.158C162.11 136.274 158.056 134.801 154.526 132.623C151.723 130.889 149.182 128.71 146.217 127.278C145.188 126.794 144.119 126.391 143.131 125.846C142.062 125.261 141.114 124.515 140.126 123.789C138.008 122.236 135.789 120.824 133.47 119.594C133.369 119.856 133.49 120.179 133.712 120.219Z" fill="#56B381"/>
<path d="M81.7362 127.984C76.4721 132.885 71.208 137.807 65.9237 142.708C65.4598 143.151 64.9354 143.736 65.1169 144.362C65.2984 144.946 66.0044 145.168 66.6094 145.309C67.5372 145.511 68.465 145.713 69.3927 145.915C69.897 146.036 70.4214 146.136 70.9458 146.056C71.8735 145.894 72.5593 145.108 73.1442 144.362C76.0687 140.711 78.9932 137.081 81.9177 133.43C82.2203 133.047 82.5228 132.684 82.7648 132.26C83.1884 131.554 83.4304 130.667 83.0674 129.941C82.7043 129.215 81.5345 128.932 81.0706 129.598C80.9899 129.699 80.9496 129.88 81.0706 129.941C81.1916 129.981 81.1715 129.678 81.7362 127.984Z" fill="#56B381"/>
<path d="M27.1602 135.144C26.8375 134.479 26.5148 133.813 26.1719 133.147C26.0711 132.926 25.9501 132.684 26.0308 132.442C26.1114 132.179 26.3736 132.038 26.6157 131.917C32.747 128.872 39.4432 127.218 45.9376 125.019C48.4789 124.152 50.9798 123.204 53.4808 122.256C62.9603 118.666 72.4599 115.096 81.9393 111.506C82.0603 112.313 82.1007 113.14 82.02 113.947C81.9998 114.269 81.9393 114.612 81.778 114.895C81.5561 115.278 81.1326 115.479 80.7494 115.681C67.0344 122.619 52.8152 128.549 39.3423 135.971C38.7574 136.294 38.1523 136.637 37.4666 136.738C36.8414 136.838 36.1959 136.717 35.5909 136.617C32.8076 136.153 30.0242 135.669 27.1602 135.144Z" fill="#5A66FF"/>
<path d="M134.439 130.162C133.854 132.381 133.31 134.842 134.379 136.859C134.722 137.524 135.226 138.069 135.73 138.633C137.586 140.65 139.502 142.627 141.478 144.523C141.821 144.846 142.184 145.188 142.648 145.33C143.253 145.511 143.919 145.309 144.544 145.128C145.734 144.745 146.944 144.341 148.134 143.958C148.275 143.918 148.457 143.837 148.497 143.676C148.537 143.535 148.416 143.393 148.315 143.272C144.161 139.057 138.957 135.709 136.012 130.586C135.831 130.283 135.649 129.941 135.327 129.82C134.984 129.678 134.5 129.9 134.439 130.162Z" fill="#5A66FF"/>
<path d="M195.208 114.37C177.318 112.273 159.428 110.195 141.538 108.118C140.228 107.977 138.937 107.815 137.626 107.674C136.153 107.513 134.681 107.331 133.209 107.291C132.805 107.977 133.128 108.884 133.693 109.429C134.278 109.973 152.692 113.745 153.458 113.967C166.931 118.061 163.866 116.911 177.681 119.594C179.396 119.917 181.594 121.066 183.329 121.288C184.7 121.47 186.556 122.095 187.927 122.297C190.247 122.66 191.134 122.155 193.312 123.023C194.805 120.058 195.007 117.859 195.208 114.37Z" fill="#56B381"/>
<path d="M81.4958 108.824C61.5688 114.128 41.5007 118.928 21.4526 123.023C22.0779 125.907 23.1872 128.67 24.7402 131.171C24.962 131.534 25.2444 131.917 25.668 131.998C25.9503 132.058 26.2327 131.958 26.4949 131.857C27.3823 131.534 28.2899 131.231 29.1774 130.909C46.4219 124.798 63.6463 118.666 80.8908 112.555C81.7177 112.252 82.585 111.95 83.2304 111.325C83.8556 110.699 84.7431 110.135 84.3195 109.409C83.9161 108.723 82.8875 108.138 81.4958 108.824Z" fill="#56B381"/>
<path d="M117.84 143.898C117.921 145.935 118.405 147.952 119.232 149.807C119.373 150.11 119.514 150.412 119.776 150.614C120.099 150.856 120.523 150.937 120.906 150.977C121.592 151.037 122.298 151.058 122.983 151.017C123.77 150.977 124.718 150.735 124.899 149.968C125 149.545 124.819 149.121 124.637 148.718C124.093 147.508 123.548 146.318 123.024 145.108C122.882 144.785 122.64 144.503 122.519 144.18C119.313 135.971 118.082 139.42 116.731 139.904C116.388 140.045 117.84 143.777 117.84 143.898Z" fill="#5A66FF"/>
<path d="M165.054 131.877C164.187 134.075 162.473 135.931 160.355 136.98C160.92 137.242 161.404 137.625 161.787 138.109C162.19 138.613 162.493 139.239 163.017 139.642C164.207 140.57 165.942 139.985 167.334 139.4C170.056 138.25 172.84 137.222 175.663 136.314C172.557 133.995 168.887 132.462 165.054 131.877Z" fill="#FFF58C"/>
<path d="M134.177 109.651C133.855 110.941 133.592 112.494 134.52 113.463C135.004 113.967 135.71 114.189 136.376 114.37C142.951 116.226 149.687 117.577 156.081 119.997C158.158 120.784 160.175 121.691 162.273 122.458C163.806 123.023 165.359 123.507 166.912 124.011C174.051 126.29 181.151 128.751 188.19 131.373C188.634 131.534 189.219 131.695 189.541 131.352C189.642 131.252 189.703 131.11 189.783 130.969C190.731 128.872 191.679 126.774 192.647 124.697C192.809 124.354 192.95 123.971 192.809 123.628C192.647 123.265 192.204 123.144 191.82 123.063C187.202 122.034 182.583 121.006 177.944 119.977C174.556 119.231 171.167 118.464 167.759 117.839C165.379 117.395 162.918 117.355 160.639 116.589C152.309 113.745 142.769 112.555 134.177 109.651Z" fill="#5A66FF"/>
<path d="M81.0911 123.345C76.5732 126.794 72.0352 130.203 67.4972 133.632C66.3475 134.499 65.1979 135.366 64.0483 136.213C62.0112 137.746 59.9741 139.279 57.9572 140.812C57.2916 141.316 56.5857 141.881 56.3033 142.687C57.6345 143.171 58.9455 143.676 60.2968 144.099C61.2649 144.422 62.3339 144.704 63.2617 144.321C63.7861 144.099 64.2096 143.716 64.613 143.313C69.7561 138.391 74.879 133.47 80.0221 128.549C80.4659 128.125 80.9297 127.661 81.1314 127.077C81.5751 125.846 80.7079 124.354 81.0911 123.345Z" fill="#FFF58C"/>
<path d="M91.1358 133.591C90.1273 134.882 84.0564 146.015 83.048 147.286C82.6043 147.851 82.1404 148.617 82.5236 149.202C82.7051 149.505 83.048 149.646 83.3707 149.767C84.1169 150.049 84.8834 150.291 85.6699 150.473C86.154 150.594 86.6986 150.674 87.1625 150.513C87.707 150.311 88.0902 149.807 88.4129 149.303C89.5021 147.629 90.4299 145.854 91.1963 143.998C91.2769 143.797 94.8267 133.591 94.8267 133.591C94.8267 133.591 92.4266 133.228 91.1358 133.591Z" fill="#5A66FF"/>
<path d="M106.423 134.237C104.588 134.055 102.712 134.216 100.937 134.721C100.877 140.166 99.4853 145.511 98.3962 150.856C98.3357 151.158 98.2953 151.501 98.4768 151.723C98.6382 151.905 98.8802 151.945 99.1223 151.985C101.603 152.389 104.124 152.611 106.645 152.651C107.25 152.671 107.896 152.651 108.38 152.268C109.045 151.743 109.086 150.755 109.045 149.908C108.884 145.592 108.481 141.276 107.876 137C107.714 135.89 107.452 134.358 106.423 134.237Z" fill="#EBEBEB"/>
<path d="M53.7418 72.3379C53.0358 70.7445 52.1484 69.2318 51.0795 67.8402C50.5551 67.1343 49.95 66.4485 49.1432 66.1056C48.3365 65.7628 47.2877 65.8636 46.7431 66.5494C46.0775 67.3965 46.4406 68.6066 46.7431 69.6151C47.0658 70.6437 47.2272 71.9547 46.3801 72.6001C46.017 72.8824 45.533 72.9631 45.1498 73.2051C44.5447 73.5883 44.2623 74.3346 44.2018 75.0607C44.101 76.3918 44.7867 77.7633 45.896 78.5096C47.0053 79.2558 48.5381 79.3567 49.7281 78.7516C50.2323 78.4894 50.6761 78.1264 51.2206 77.9449C52.9753 77.3398 55.1133 78.7718 56.6663 77.7835C57.1302 77.5011 57.4529 77.0373 57.7151 76.5734C58.179 75.8069 58.5823 74.9397 58.542 74.0522C58.5017 73.1648 57.8361 72.237 56.9486 72.1765C56.3234 72.1362 55.7587 72.4791 55.1334 72.6202C54.5485 72.7413 53.7216 72.4589 53.7418 72.3379Z" fill="#B180E0" stroke="#1D1D1B" stroke-miterlimit="10"/>
<path d="M115.984 138.976C114.613 139.662 112.939 139.662 111.567 138.996C111.89 140.63 112.213 142.264 112.556 143.877C113.161 146.822 113.766 149.767 114.371 152.711C114.391 152.792 114.411 152.873 114.451 152.933C114.613 153.135 114.915 153.014 115.137 152.893C116.529 152.106 118.122 151.642 119.716 151.562C118.909 147.185 117.618 142.909 115.984 138.976Z" fill="#B180E0"/>
<mask id="mask0_393_22322" style="mask-type:luminance" maskUnits="userSpaceOnUse" x="15" y="1" width="183" height="183">
<path d="M106.564 183.53C156.969 183.53 197.829 142.669 197.829 92.2649C197.829 41.8607 156.969 1 106.564 1C56.1602 1 15.2996 41.8607 15.2996 92.2649C15.2996 142.669 56.1602 183.53 106.564 183.53Z" fill="white"/>
</mask>
<g mask="url(#mask0_393_22322)">
<path d="M225.158 117.375L130.223 107.008" stroke="#1D1D1B" stroke-miterlimit="10"/>
<path d="M223 130.021L129.718 109.53" stroke="#1D1D1B" stroke-miterlimit="10"/>
<path d="M219.511 142.365L128.952 111.99" stroke="#1D1D1B" stroke-miterlimit="10"/>
<path d="M214.691 154.244L127.924 114.33" stroke="#1D1D1B" stroke-miterlimit="10"/>
<path d="M208.64 165.559L126.653 116.569" stroke="#1D1D1B" stroke-miterlimit="10"/>
<path d="M201.419 176.148L125.16 118.646" stroke="#1D1D1B" stroke-miterlimit="10"/>
<path d="M193.09 185.91L123.446 120.542" stroke="#1D1D1B" stroke-miterlimit="10"/>
<path d="M183.751 194.703L121.53 122.256" stroke="#1D1D1B" stroke-miterlimit="10"/>
<path d="M173.546 202.468L119.432 123.749" stroke="#1D1D1B" stroke-miterlimit="10"/>
<path d="M162.554 209.084L117.214 125.019" stroke="#1D1D1B" stroke-miterlimit="10"/>
<path d="M150.916 214.469L114.854 126.028" stroke="#1D1D1B" stroke-miterlimit="10"/>
<path d="M138.775 218.584L112.394 126.794" stroke="#1D1D1B" stroke-miterlimit="10"/>
<path d="M126.269 221.387L109.892 127.278" stroke="#1D1D1B" stroke-miterlimit="10"/>
<path d="M113.523 222.819L107.331 127.5" stroke="#1D1D1B" stroke-miterlimit="10"/>
<path d="M100.695 222.88L104.77 127.44" stroke="#1D1D1B" stroke-miterlimit="10"/>
<path d="M87.9282 221.548L102.228 127.117" stroke="#1D1D1B" stroke-miterlimit="10"/>
<path d="M75.4033 218.866L99.7272 126.512" stroke="#1D1D1B" stroke-miterlimit="10"/>
<path d="M63.2212 214.872L97.3069 125.645" stroke="#1D1D1B" stroke-miterlimit="10"/>
<path d="M51.5231 209.568L95.0075 124.535" stroke="#1D1D1B" stroke-miterlimit="10"/>
<path d="M40.4906 203.053L92.8293 123.164" stroke="#1D1D1B" stroke-miterlimit="10"/>
<path d="M30.2048 195.389L90.8128 121.57" stroke="#1D1D1B" stroke-miterlimit="10"/>
<path d="M20.8057 186.676L88.977 119.775" stroke="#1D1D1B" stroke-miterlimit="10"/>
<path d="M12.3953 176.995L87.3434 117.799" stroke="#1D1D1B" stroke-miterlimit="10"/>
<path d="M5.05347 166.467L85.9313 115.661" stroke="#1D1D1B" stroke-miterlimit="10"/>
<path d="M-1.09766 155.212L84.7619 113.382" stroke="#1D1D1B" stroke-miterlimit="10"/>
<path d="M-5.99902 143.373L83.854 110.982" stroke="#1D1D1B" stroke-miterlimit="10"/>
<path d="M-9.60938 131.07L83.1884 108.501" stroke="#1D1D1B" stroke-miterlimit="10"/>
<path d="M-11.8882 118.444L82.8054 105.96" stroke="#1D1D1B" stroke-miterlimit="10"/>
</g>
<path d="M107.271 183.53C157.676 183.53 198.536 142.669 198.536 92.2649C198.536 41.8607 157.676 1 107.271 1C56.8673 1 16.0066 41.8607 16.0066 92.2649C16.0066 142.669 56.8673 183.53 107.271 183.53Z" stroke="#181919" stroke-miterlimit="10"/>
<path d="M108.501 13.4443L110.316 19.0311C110.477 19.5555 110.961 19.8984 111.506 19.8984H117.375C118.585 19.8984 119.089 21.4514 118.121 22.1573L113.361 25.6062C112.918 25.9289 112.736 26.4936 112.897 26.9979L114.713 32.5847C115.096 33.7343 113.765 34.7024 112.776 33.9764L108.017 30.5274C107.573 30.2047 106.988 30.2047 106.544 30.5274L101.784 33.9764C100.796 34.6823 99.4851 33.7343 99.8481 32.5847L101.663 26.9979C101.825 26.4735 101.643 25.9087 101.199 25.6062L96.4395 22.1573C95.4513 21.4514 95.9555 19.8984 97.1858 19.8984H103.055C103.6 19.8984 104.084 19.5555 104.245 19.0311L106.06 13.4443C106.484 12.2745 108.117 12.2745 108.501 13.4443Z" fill="#FFF58C" stroke="#181919" stroke-miterlimit="10" stroke-linecap="round" stroke-linejoin="round"/>
<path d="M48.5391 43.3751C58.9463 33.7948 75.4849 24.6381 91.1159 23.4078" stroke="#181919" stroke-miterlimit="10" stroke-linecap="round" stroke-linejoin="round"/>
<path d="M42.448 51.0595C44.0521 51.0595 45.3524 49.7592 45.3524 48.1551C45.3524 46.5511 44.0521 45.2508 42.448 45.2508C40.844 45.2508 39.5437 46.5511 39.5437 48.1551C39.5437 49.7592 40.844 51.0595 42.448 51.0595Z" fill="#FFF58C" stroke="#181919" stroke-miterlimit="10" stroke-linecap="round" stroke-linejoin="round"/>
<path d="M166.064 43.3751C155.657 33.7948 139.119 24.6381 123.488 23.4078" stroke="#181919" stroke-miterlimit="10" stroke-linecap="round" stroke-linejoin="round"/>
<path d="M172.155 51.0595C173.759 51.0595 175.06 49.7592 175.06 48.1551C175.06 46.5511 173.759 45.2508 172.155 45.2508C170.551 45.2508 169.251 46.5511 169.251 48.1551C169.251 49.7592 170.551 51.0595 172.155 51.0595Z" fill="#FFF58C" stroke="#181919" stroke-miterlimit="10" stroke-linecap="round" stroke-linejoin="round"/>
<path d="M92.9512 106.464C95.8354 108.682 98.8003 102.854 95.5732 101.341C99.2843 99.5056 96.8439 93.6969 93.1731 95.0684C92.0033 91.1152 86.7997 90.0261 84.2584 93.0111C81.4952 89.6631 75.9084 90.0664 73.6495 93.8784C70.0594 91.4984 64.6541 92.9103 62.5767 96.7827C58.4017 91.2968 50.8383 97.6298 54.4485 103.116C48.3978 107.291 54.1864 117.718 60.2572 112.837C62.8792 116.468 68.466 117.254 71.9149 114.471C75.263 118.101 81.5557 117.456 84.1374 113.099C87.5459 114.874 92.6487 111.466 91.2772 107.089C89.5628 107.815 88.2922 103.842 90.6721 102.954C93.0521 101.926 94.9278 105.294 92.9512 106.464Z" fill="#EBEBEB" stroke="black" stroke-miterlimit="10" stroke-linecap="round" stroke-linejoin="round"/>
<path d="M81.1326 133.591V67.336C81.1326 55.053 91.0759 45.1097 103.359 45.1097H110.317C122.6 45.1097 132.543 55.053 132.543 67.336V133.611H81.1326V133.591Z" fill="white" stroke="#1D1D1B" stroke-miterlimit="10"/>
<path d="M163.402 75.8271C162.413 78.3886 160.296 80.466 157.714 81.4341C156.262 81.9787 154.668 82.1803 153.277 82.8661C151.542 83.7132 150.211 85.2864 149.646 87.1218C149.182 88.6546 149.324 90.49 150.453 91.6194C152.268 93.4548 155.374 92.5876 157.694 91.4783C159.872 90.4496 161.99 89.3 164.047 88.0294C165.761 86.9806 167.435 85.8511 168.746 84.3384C169.815 83.0879 170.622 81.6156 171.086 80.0223C171.53 78.4894 171.61 76.775 170.925 75.343C170.158 73.7497 168.424 72.6606 166.649 72.6807C164.874 72.7009 164.128 73.9514 163.402 75.8271Z" fill="#B180E0" stroke="#1D1D1B" stroke-miterlimit="10"/>
<path d="M106.787 81.6762C100.918 81.6358 95.5128 78.8323 92.8303 74.4758C95.5935 70.1395 101.019 67.457 106.908 67.4973C112.777 67.5377 118.183 70.3412 120.865 74.6977C118.102 78.9937 112.656 81.7165 106.787 81.6762Z" stroke="black" stroke-miterlimit="10" stroke-linecap="round" stroke-linejoin="round"/>
<path d="M111.224 73.5278C110.357 73.5278 109.53 73.1648 108.925 72.5597C108.32 71.9345 107.977 71.1076 107.977 70.2403C107.977 69.9579 107.876 69.6756 107.655 69.4739C107.453 69.2722 107.171 69.1512 106.888 69.1512C105.436 69.131 104.044 69.6957 103.016 70.7243C101.987 71.7328 101.402 73.1245 101.382 74.5766C101.362 76.0288 101.927 77.4205 102.955 78.4491C103.964 79.4777 105.355 80.0626 106.807 80.0828C108.26 80.1029 109.651 79.5382 110.68 78.5096C111.709 77.5011 112.293 76.1095 112.314 74.6573C112.314 74.3749 112.213 74.0926 111.991 73.8909C111.769 73.6892 111.507 73.5278 111.224 73.5278Z" fill="black"/>
<path d="M106.949 63.403L106.888 67.4771" stroke="black" stroke-miterlimit="10" stroke-linecap="round" stroke-linejoin="round"/>
<path d="M99.7482 64.593L101.765 68.1225" stroke="black" stroke-miterlimit="10" stroke-linecap="round" stroke-linejoin="round"/>
<path d="M114.068 64.714L111.971 68.2032" stroke="black" stroke-miterlimit="10" stroke-linecap="round" stroke-linejoin="round"/>
<path d="M108.139 117.92C104.125 114.673 99.446 122.458 104.004 124.777C98.5182 127.036 101.665 135.205 107.05 133.591C108.462 139.118 115.924 140.973 119.797 137.06C123.568 141.861 131.656 141.679 135.206 136.637C140.248 140.166 148.154 138.613 151.401 133.41C157.069 141.235 168.424 133.067 163.584 125.282C172.619 119.957 164.935 105.213 155.818 111.526C152.269 106.343 144.241 104.87 139.058 108.44C134.459 103.217 125.323 103.66 121.309 109.469C116.509 106.807 108.885 111.103 110.579 117.214C113.1 116.327 114.674 121.893 111.164 122.942C107.695 124.152 105.214 119.372 108.139 117.92Z" fill="#EBEBEB" stroke="black" stroke-miterlimit="10" stroke-linecap="round" stroke-linejoin="round"/>
<path d="M211 137.645V170.803C174.817 160.396 142.587 184.095 106 184.095C68.1225 183.792 37.2034 160.396 1 170.803V137.645C37.2438 127.299 68.7276 152.591 106 152.591C140.973 152.853 174.756 127.278 211 137.645Z" fill="white" stroke="#181919" stroke-miterlimit="10"/>
<path d="M19.8377 154.587C19.1923 154.547 18.8696 154.527 18.204 154.507C18.0023 155.495 17.8813 155.979 17.6796 156.947C17.0746 156.927 16.772 156.927 16.167 156.927C16.3687 155.939 16.4897 155.455 16.6914 154.466C16.167 154.466 15.9048 154.446 15.3804 154.446C15.3804 153.922 15.3804 153.66 15.3804 153.135C16.0056 153.135 16.3283 153.135 16.9536 153.155C17.1149 152.369 17.2158 151.965 17.3771 151.179C16.772 151.159 16.4493 151.159 15.8443 151.159C15.8443 150.634 15.8443 150.372 15.8443 149.848C16.5703 149.848 16.9334 149.868 17.6595 149.888C17.8813 148.9 17.9822 148.416 18.204 147.427C18.8091 147.447 19.1116 147.468 19.7167 147.508C19.4949 148.496 19.394 148.98 19.1722 149.969C19.8176 150.009 20.1403 150.029 20.7857 150.069C21.0075 149.101 21.1084 148.597 21.3504 147.629C21.9353 147.669 22.2378 147.71 22.8227 147.75C22.6009 148.738 22.4799 149.222 22.258 150.19C22.7622 150.231 23.0244 150.271 23.5085 150.311C23.5085 150.836 23.5085 151.098 23.5085 151.622C22.9034 151.562 22.5807 151.522 21.9756 151.481C21.8143 152.268 21.7336 152.651 21.5521 153.438C22.1572 153.478 22.4597 153.518 23.0648 153.579C23.0648 154.103 23.0648 154.365 23.0849 154.89C22.3589 154.809 22.016 154.789 21.2899 154.728C21.0882 155.697 20.9874 156.181 20.7857 157.129C20.1806 157.088 19.8982 157.068 19.2932 157.048C19.515 156.039 19.6159 155.576 19.8377 154.587ZM18.4662 153.216C19.1116 153.236 19.4545 153.256 20.0999 153.296C20.2613 152.51 20.342 152.106 20.5235 151.34C19.8781 151.3 19.5554 151.28 18.8898 151.239C18.7284 152.026 18.6478 152.409 18.4662 153.216Z" fill="#181919"/>
<path d="M25.122 152.651C28.9339 153.135 30.7895 153.478 34.5409 154.244C34.5409 154.809 34.5813 155.091 34.6014 155.676C33.0686 155.354 32.3022 155.212 30.7693 154.95C30.7895 155.717 30.8096 156.12 30.8298 156.846C30.2046 156.745 29.902 156.685 29.2566 156.584C29.2365 155.858 29.2163 155.455 29.1961 154.688C27.5624 154.426 26.7557 154.305 25.1018 154.103C25.1421 153.518 25.122 153.236 25.122 152.651ZM25.7876 151.764C25.7876 150.029 25.8077 149.162 25.8884 147.407C29.2163 147.831 30.85 148.113 34.1174 148.758C33.956 150.553 33.8955 151.441 33.8955 153.155C30.6685 152.49 29.0751 152.207 25.7876 151.764ZM27.4616 157.149C30.2046 157.532 31.5559 157.754 34.2586 158.278C34.2787 158.803 34.2989 159.065 34.3191 159.589C30.971 158.984 29.297 158.722 25.9086 158.339C25.8884 157.048 25.8884 156.423 25.8481 155.091C26.4935 155.172 26.796 155.212 27.4414 155.313C27.4414 156.08 27.4414 156.423 27.4616 157.149ZM32.4232 149.868C30.4264 149.484 29.4382 149.323 27.4212 149.021C27.3809 149.666 27.3607 149.989 27.3607 150.614C29.3575 150.916 30.3458 151.098 32.3223 151.481C32.3425 150.856 32.3828 150.513 32.4232 149.868Z" fill="#181919"/>
<path d="M37.0421 154.728C37.0421 153.922 37.3447 153.317 37.8489 152.994C38.2926 152.712 38.938 152.611 39.6641 152.772C40.3902 152.933 41.0356 153.317 41.4995 153.821C42.0239 154.386 42.3063 155.132 42.3063 155.918C42.3063 156.725 42.1046 157.33 41.6205 157.653C41.3583 157.835 41.0154 157.915 40.6121 157.935C40.6322 158.419 40.6524 158.641 40.6726 159.065C41.1768 159.186 41.439 159.246 41.9432 159.347C42.7903 159.549 43.3954 159.569 43.7181 159.367C43.5567 156.362 43.4155 154.325 43.8593 150.735C44.4845 150.876 44.8072 150.957 45.4324 151.098C45.2106 152.933 45.0896 153.841 45.0896 155.596C45.7148 155.737 46.0375 155.818 46.6829 155.979C46.6829 156.544 46.6628 156.826 46.7031 157.391C46.0577 157.25 45.7552 157.169 45.1097 157.008C45.2509 159.085 45.3114 160.073 45.4123 161.909C44.787 161.767 44.4643 161.687 43.8391 161.546C43.8189 161.142 43.7988 160.941 43.7786 160.537C43.4559 160.779 42.6895 160.759 41.7012 160.517C39.7649 160.073 38.817 159.872 36.8808 159.488C36.8606 158.984 36.8404 158.722 36.8203 158.198C37.7279 158.399 38.1918 158.5 39.0994 158.702C39.0792 158.278 39.059 158.056 39.0389 157.572C38.6153 157.391 38.2523 157.129 37.9699 156.826C37.4052 156.261 37.0421 155.535 37.0421 154.728ZM40.6322 151.038C41.4995 151.239 41.923 151.34 42.7903 151.542C42.7096 152.127 42.6895 152.429 42.6088 153.014C40.2692 152.47 39.0994 152.187 36.7598 151.683C36.8203 151.098 36.8606 150.796 36.9211 150.211C37.7884 150.392 38.2119 150.493 39.0792 150.675C39.1397 150.15 39.18 149.868 39.2406 149.343C39.8658 149.485 40.1885 149.545 40.8137 149.686C40.7331 150.231 40.7129 150.493 40.6322 151.038ZM38.575 155.071C38.575 155.434 38.7363 155.777 38.9582 156.019C39.1599 156.241 39.4221 156.403 39.7246 156.483C40.0271 156.544 40.2893 156.503 40.4507 156.362C40.6322 156.201 40.7331 155.918 40.7331 155.555C40.7331 155.192 40.612 154.85 40.4104 154.607C40.2288 154.386 39.9666 154.224 39.6641 154.144C39.3616 154.083 39.0994 154.123 38.9179 154.265C38.7162 154.426 38.575 154.708 38.575 155.071Z" fill="#181919"/>
<path d="M50.2727 154.022C50.1315 155.374 50.1719 155.999 50.1719 157.27C52.9552 157.895 54.367 158.197 57.2714 158.762C57.2714 159.347 57.2714 159.629 57.2714 160.214C55.8192 159.932 55.1133 159.791 53.6813 159.488C53.7216 160.618 53.7418 161.203 53.7821 162.272C55.3755 162.635 56.1621 162.816 57.7756 163.159C57.7756 163.724 57.7756 164.006 57.7756 164.571C53.9233 163.643 52.0274 163.159 48.2558 162.251C48.2356 161.747 48.2155 161.485 48.1953 160.981C49.7685 161.364 50.5753 161.546 52.1686 161.909C52.1283 160.88 52.0879 160.275 52.0476 159.145C50.6358 158.843 49.95 158.682 48.5584 158.359C48.4172 155.918 48.4978 154.708 48.8004 152.167C52.1484 152.954 53.8225 153.357 57.231 154.063C57.2109 154.648 57.2109 154.95 57.1907 155.535C54.4074 154.95 53.0157 154.648 50.2727 154.022Z" fill="#181919"/>
<path d="M63.06 163.058C62.4952 164.026 61.1843 164.692 59.8934 164.773C59.8934 164.147 59.8934 163.845 59.8934 163.22C61.1641 162.897 62.2532 162.09 62.2532 158.964C62.2532 157.35 62.2532 156.584 62.233 155.031C62.8784 155.192 63.2213 155.253 63.8667 155.414C63.8869 156.947 63.8869 157.713 63.8869 159.307C63.8869 162.453 64.976 163.724 66.2265 164.692C66.2063 165.357 66.2063 165.7 66.1862 166.366C64.8954 165.62 63.6449 164.288 63.06 163.058ZM69.1309 168.04C68.4653 167.858 68.1426 167.758 67.477 167.576C67.598 162.635 67.5778 160.416 67.5375 156.241C68.2031 156.423 68.5258 156.503 69.1914 156.685C69.2317 160.86 69.2519 163.058 69.1309 168.04Z" fill="#181919"/>
<path d="M79.5785 170.884C79.5986 170.38 79.5986 170.117 79.5986 169.593C79.2154 169.896 78.3885 169.896 77.3397 169.613C75.1816 169.028 74.1126 168.746 71.9747 168.141C71.9949 167.495 71.9949 167.173 72.0151 166.507C74.274 167.132 75.4236 167.455 77.7027 168.08C78.5902 168.322 79.2759 168.343 79.639 168.08C79.7196 164.228 79.6591 162.776 79.639 159.529C80.3045 159.71 80.6474 159.791 81.313 159.972C81.3533 164.168 81.3735 166.386 81.2525 171.307C80.5667 171.146 80.244 171.065 79.5785 170.884ZM72.4184 160.961C72.4184 159.69 72.7412 158.903 73.4672 158.52C73.9513 158.258 74.6774 158.238 75.464 158.46C76.2304 158.682 76.9767 159.105 77.4809 159.629C78.207 160.416 78.5902 161.384 78.57 162.655C78.57 163.926 78.207 164.813 77.4809 165.257C76.9767 165.559 76.2506 165.579 75.4841 165.378C74.6976 165.156 73.9916 164.732 73.4874 164.147C72.7613 163.32 72.4184 162.231 72.4184 160.961ZM74.0723 161.425C74.0723 162.191 74.2135 162.877 74.5765 163.341C74.7984 163.623 75.1211 163.804 75.4841 163.905C75.8472 164.006 76.1699 164.006 76.3917 163.845C76.7548 163.583 76.896 162.978 76.896 162.211C76.896 161.445 76.7548 160.799 76.3716 160.376C76.1497 160.114 75.827 159.912 75.464 159.811C75.1009 159.71 74.7782 159.73 74.5564 159.872C74.2135 160.093 74.0723 160.658 74.0723 161.425Z" fill="#181919"/>
<path d="M90.248 162.171C90.248 162.715 90.248 162.998 90.248 163.542C89.4211 163.381 88.9975 163.28 88.1504 163.099C88.1504 163.119 88.1504 163.139 88.1504 163.159C88.1706 164.994 89.0177 166.023 90.4497 166.608C90.4497 167.193 90.4497 167.495 90.4497 168.08C89.1185 167.616 87.9891 166.789 87.3437 165.761C86.6781 166.487 85.5083 166.951 84.1771 166.789C84.1771 166.205 84.1771 165.902 84.1771 165.317C85.6293 165.378 86.4966 164.631 86.4764 162.776C86.4764 162.756 86.4764 162.736 86.4764 162.715C85.6495 162.514 85.2259 162.413 84.3788 162.211C84.3788 161.667 84.3788 161.404 84.3586 160.86C86.7386 161.445 87.9084 161.707 90.248 162.171ZM84.9234 169.795C84.9436 168.927 85.3469 168.484 85.9722 168.242C86.8394 167.919 88.1303 168.04 89.3202 168.282C90.5304 168.524 91.8212 168.948 92.6683 169.613C93.2935 170.097 93.7171 170.722 93.7171 171.549C93.7171 172.376 93.2935 172.921 92.6481 173.203C91.7808 173.607 90.49 173.566 89.2799 173.344C88.0899 173.123 86.7789 172.699 85.9318 171.933C85.3066 171.388 84.9032 170.662 84.9234 169.795ZM86.5974 170.178C86.5974 170.48 86.7386 170.722 87.0008 170.944C87.5252 171.368 88.453 171.67 89.3001 171.832C90.1875 172.013 91.0951 172.074 91.6397 171.852C91.9019 171.731 92.0632 171.549 92.0632 171.267C92.0632 170.985 91.9019 170.763 91.6598 170.561C91.1354 170.158 90.2077 169.896 89.3404 169.714C88.4731 169.532 87.5454 169.411 87.021 169.613C86.7386 169.714 86.5974 169.896 86.5974 170.178ZM91.801 168.625C91.801 167.556 91.801 167.011 91.801 165.963C90.9539 165.801 90.5304 165.721 89.6833 165.539C89.6833 164.974 89.6833 164.672 89.6833 164.107C90.5304 164.289 90.9539 164.369 91.801 164.531C91.801 163.643 91.801 163.22 91.801 162.332C92.4666 162.453 92.8095 162.514 93.4751 162.614C93.4751 165.115 93.4751 166.366 93.4751 168.927C92.8095 168.786 92.4666 168.746 91.801 168.625Z" fill="#181919"/>
<path d="M96.2786 169.976C100.252 170.46 102.208 170.561 106.161 170.4C106.161 170.985 106.161 171.267 106.161 171.852C104.508 171.912 103.681 171.933 102.027 171.892C102.027 173.022 102.027 173.587 102.027 174.716C101.361 174.696 101.038 174.696 100.373 174.655C100.373 173.526 100.373 172.961 100.373 171.832C98.7392 171.731 97.9123 171.65 96.2786 171.449C96.2786 170.844 96.2786 170.561 96.2786 169.976ZM103.943 165.136C103.943 164.51 103.943 164.208 103.943 163.583C104.608 163.583 104.931 163.563 105.597 163.542C105.597 165.862 105.597 167.011 105.597 169.331C102.087 169.452 100.333 169.371 96.8231 168.948C96.8231 166.628 96.8231 165.458 96.8231 163.179C97.4887 163.26 97.8316 163.28 98.4972 163.341C98.4972 163.966 98.4972 164.268 98.4972 164.873C100.675 165.095 101.765 165.136 103.943 165.136ZM103.943 166.548C101.765 166.568 100.675 166.507 98.4972 166.305C98.4972 166.87 98.4972 167.132 98.4972 167.697C100.675 167.899 101.765 167.959 103.943 167.939C103.943 167.395 103.943 167.112 103.943 166.548Z" fill="#181919"/>
<path d="M116.487 170.117C115.822 170.238 115.479 170.279 114.813 170.38C114.592 171.408 114.491 171.933 114.289 172.961C113.664 173.042 113.361 173.082 112.756 173.163C112.978 172.134 113.079 171.63 113.281 170.601C112.756 170.682 112.494 170.702 111.97 170.763C111.97 170.238 111.97 169.976 111.97 169.432C112.615 169.351 112.938 169.311 113.563 169.23C113.744 168.403 113.825 167.979 114.007 167.173C113.381 167.274 113.079 167.314 112.454 167.395C112.454 166.87 112.454 166.628 112.454 166.104C113.2 166.003 113.563 165.963 114.289 165.862C114.511 164.853 114.612 164.309 114.834 163.26C115.459 163.159 115.761 163.119 116.387 162.998C116.185 164.067 116.064 164.611 115.842 165.62C116.508 165.519 116.851 165.458 117.516 165.337C117.738 164.329 117.839 163.784 118.061 162.695C118.666 162.574 118.988 162.514 119.593 162.393C119.392 163.482 119.291 164.047 119.069 165.035C119.594 164.934 119.856 164.873 120.4 164.773C120.4 165.277 120.4 165.519 120.38 166.023C119.735 166.164 119.412 166.225 118.767 166.346C118.585 167.153 118.484 167.576 118.323 168.423C118.948 168.302 119.271 168.242 119.916 168.101C119.916 168.645 119.916 168.907 119.916 169.452C119.17 169.613 118.787 169.674 118.04 169.815C117.839 170.864 117.718 171.388 117.516 172.417C116.891 172.518 116.588 172.578 115.983 172.679C116.165 171.691 116.266 171.166 116.487 170.117ZM115.076 169.028C115.741 168.927 116.084 168.867 116.75 168.746C116.931 167.899 117.012 167.495 117.193 166.689C116.528 166.81 116.185 166.87 115.499 166.971C115.338 167.778 115.257 168.181 115.076 169.028Z" fill="#181919"/>
<path d="M122.276 164.026C122.296 163.038 122.659 162.03 123.284 161.364C123.789 160.84 124.434 160.456 125.2 160.275C125.967 160.093 126.632 160.154 127.137 160.436C127.782 160.799 128.226 161.667 128.206 162.635C128.185 163.623 127.782 164.45 127.137 165.095C126.632 165.579 125.987 165.963 125.2 166.164C124.434 166.346 123.768 166.285 123.284 166.043C122.639 165.7 122.256 165.035 122.276 164.026ZM129.799 165.519C130.465 165.337 130.787 165.257 131.453 165.075C131.473 167.112 131.473 168.141 131.493 170.178C128.145 171.065 126.451 171.509 123.062 172.255C123.042 170.238 123.042 169.23 123.022 167.213C123.688 167.052 124.031 166.991 124.696 166.83C124.696 167.314 124.696 167.556 124.696 168.02C126.733 167.536 127.762 167.274 129.779 166.729C129.799 166.245 129.799 166.003 129.799 165.519ZM123.91 163.663C123.91 164.147 124.051 164.531 124.353 164.692C124.575 164.833 124.878 164.873 125.221 164.773C125.563 164.672 125.886 164.49 126.108 164.268C126.411 163.946 126.572 163.522 126.572 163.038C126.572 162.554 126.411 162.11 126.108 161.909C125.886 161.747 125.584 161.707 125.221 161.788C124.858 161.868 124.575 162.07 124.353 162.332C124.071 162.655 123.93 163.179 123.91 163.663ZM124.716 169.472C124.716 169.855 124.716 170.037 124.716 170.42C126.753 169.936 127.782 169.694 129.819 169.149C129.819 168.766 129.819 168.585 129.819 168.201C127.782 168.726 126.774 168.988 124.716 169.472ZM129.779 165.095C129.759 162.655 129.819 161.727 129.779 159.166C130.444 158.984 130.767 158.903 131.433 158.722C131.493 161.283 131.412 162.211 131.433 164.652C130.787 164.813 130.444 164.914 129.779 165.095Z" fill="#181919"/>
<path d="M134.176 163.441C138.169 162.332 140.166 161.767 144.079 160.739C144.079 161.283 144.079 161.626 144.079 162.211C142.485 162.635 141.679 162.857 140.085 163.3C140.085 164.087 140.085 164.49 140.105 165.297C139.46 165.479 139.137 165.579 138.472 165.761C138.472 164.954 138.452 164.571 138.452 163.764C136.737 164.228 135.89 164.47 134.176 164.954C134.176 164.329 134.176 163.966 134.176 163.441ZM134.902 162.332C134.922 160.719 134.922 159.791 134.882 157.915C138.31 156.967 140.025 156.483 143.393 155.596C143.413 157.431 143.433 158.319 143.413 159.972C140.025 160.9 138.33 161.384 134.902 162.332ZM136.576 167.193C139.42 166.406 140.831 165.983 143.615 165.216C143.615 165.801 143.615 166.104 143.615 166.709C140.186 167.697 138.431 168.201 134.922 169.169C134.902 167.778 134.902 167.072 134.882 165.68C135.547 165.499 135.87 165.398 136.535 165.216C136.556 166.023 136.556 166.406 136.576 167.193ZM141.779 157.492C139.702 158.076 138.653 158.359 136.556 158.944C136.576 159.63 136.576 159.993 136.576 160.577C138.673 159.993 139.722 159.69 141.8 159.105C141.8 158.52 141.8 158.157 141.779 157.492Z" fill="#181919"/>
<path d="M154.224 160.638C153.538 160.799 153.216 160.88 152.53 161.041C152.247 162.07 152.187 162.574 151.985 163.603C151.36 163.764 151.058 163.845 150.452 164.006C150.654 162.978 150.735 162.473 150.997 161.424C150.473 161.546 150.21 161.626 149.686 161.747C149.706 161.223 149.706 160.961 149.706 160.436C150.352 160.275 150.674 160.194 151.34 160.033C151.562 159.186 151.663 158.762 151.824 157.915C151.179 158.076 150.856 158.157 150.21 158.318C150.21 157.794 150.19 157.532 150.19 156.987C150.937 156.786 151.32 156.705 152.066 156.503C152.268 155.434 152.389 154.95 152.611 153.942C153.236 153.78 153.558 153.7 154.184 153.559C153.962 154.567 153.841 155.031 153.659 156.12C154.345 155.959 154.688 155.858 155.374 155.696C155.555 154.607 155.676 154.143 155.898 153.135C156.523 152.974 156.846 152.893 157.471 152.752C157.249 153.76 157.128 154.224 156.947 155.313C157.491 155.192 157.754 155.112 158.298 154.991C158.318 155.535 158.339 155.817 158.379 156.362C157.713 156.523 157.37 156.604 156.705 156.745C156.564 157.633 156.443 158.056 156.18 158.883C156.846 158.722 157.169 158.661 157.814 158.5C157.754 159.024 157.733 159.287 157.673 159.811C156.907 159.992 156.523 160.073 155.757 160.255C155.434 161.283 155.394 161.767 155.192 162.776C154.567 162.937 154.264 163.018 153.639 163.159C153.861 162.171 153.922 161.687 154.224 160.638ZM152.913 159.67C153.599 159.508 153.942 159.428 154.648 159.266C154.89 158.439 155.011 158.016 155.152 157.128C154.466 157.29 154.103 157.371 153.417 157.552C153.256 158.419 153.155 158.843 152.913 159.67Z" fill="#181919"/>
<path d="M164.147 151.925C162.574 152.268 161.807 152.449 160.234 152.812C160.234 152.268 160.234 151.985 160.214 151.441C162.453 150.896 163.582 150.614 165.861 150.11C165.861 150.493 165.861 150.695 165.882 151.078C165.942 154.628 163.905 156.564 160.053 157.794C160.133 157.229 160.154 156.947 160.113 156.322C162.917 155.394 164.187 153.922 164.147 151.925ZM160.577 160.154C160.557 159.468 160.981 158.863 161.565 158.379C162.473 157.613 163.865 157.088 165.357 156.786C166.85 156.483 168.181 156.423 168.947 156.846C169.431 157.108 169.673 157.592 169.673 158.258C169.694 158.944 169.371 159.509 168.846 159.972C168.02 160.698 166.648 161.162 165.176 161.485C163.683 161.788 162.332 161.888 161.485 161.505C160.92 161.263 160.597 160.84 160.577 160.154ZM162.312 159.771C162.312 160.033 162.453 160.194 162.715 160.275C163.199 160.456 164.066 160.356 165.135 160.134C166.224 159.912 167.072 159.65 167.556 159.266C167.798 159.065 167.919 158.843 167.919 158.601C167.919 158.359 167.777 158.198 167.556 158.077C167.112 157.875 166.245 157.956 165.176 158.198C164.107 158.419 163.219 158.702 162.715 159.105C162.413 159.307 162.291 159.529 162.312 159.771ZM169.552 151.663C170.198 151.542 170.52 151.481 171.166 151.36C171.186 151.965 171.206 152.268 171.247 152.893C170.601 153.014 170.278 153.075 169.633 153.196C169.694 154.244 169.754 154.789 169.633 155.777C168.947 155.918 168.584 155.979 167.898 156.12C168.221 153.619 167.818 152.147 167.777 149.565C168.463 149.404 168.826 149.343 169.512 149.182C169.512 150.17 169.532 150.674 169.552 151.663Z" fill="#181919"/>
<path d="M180.746 158.641C180.746 158.197 180.746 157.976 180.726 157.512C180.343 157.915 179.496 158.197 178.386 158.339C176.127 158.641 174.998 158.823 172.719 159.206C172.699 158.661 172.699 158.379 172.699 157.834C175.099 157.411 176.309 157.229 178.709 156.907C179.657 156.786 180.343 156.544 180.726 156.201C180.686 152.833 180.827 151.078 180.746 147.205C181.432 147.125 181.775 147.064 182.481 147.004C182.602 152.046 182.461 154.103 182.501 158.46C181.795 158.52 181.432 158.561 180.746 158.641ZM173.284 152.248C173.223 150.937 173.566 149.827 174.312 149.021C174.816 148.476 175.583 148.073 176.39 147.931C177.196 147.79 177.963 147.952 178.507 148.335C179.274 148.92 179.677 149.989 179.718 151.28C179.758 152.57 179.395 153.619 178.608 154.345C178.064 154.849 177.277 155.192 176.47 155.313C175.664 155.434 174.917 155.333 174.433 155.011C173.707 154.507 173.344 153.579 173.284 152.248ZM174.998 151.965C175.038 152.752 175.22 153.397 175.603 153.72C175.845 153.901 176.168 153.942 176.551 153.881C176.934 153.821 177.277 153.68 177.499 153.417C177.862 152.994 177.983 152.308 177.963 151.522C177.943 150.735 177.761 150.069 177.378 149.726C177.136 149.525 176.793 149.444 176.41 149.505C176.027 149.565 175.684 149.747 175.462 150.009C175.099 150.473 174.978 151.179 174.998 151.965Z" fill="#181919"/>
<path d="M187.745 146.197C188.431 146.157 188.774 146.157 189.459 146.136C189.459 146.56 189.459 146.782 189.479 147.226C190.387 147.205 190.851 147.185 191.759 147.185C191.759 147.77 191.759 148.052 191.779 148.637C189.237 148.698 187.947 148.779 185.345 149C185.325 148.395 185.325 148.073 185.304 147.468C186.293 147.387 186.777 147.347 187.765 147.306C187.745 146.863 187.745 146.641 187.745 146.197ZM185.708 151.542C185.708 150.876 186.01 150.291 186.535 149.888C187.059 149.484 187.785 149.222 188.612 149.162C189.439 149.121 190.185 149.283 190.69 149.626C191.214 149.969 191.537 150.493 191.537 151.158C191.537 151.844 191.214 152.389 190.69 152.772C190.165 153.155 189.439 153.377 188.612 153.438C187.785 153.498 187.059 153.357 186.535 153.054C186.031 152.752 185.708 152.227 185.708 151.542ZM186.232 156.201C186.232 155.515 186.575 154.97 187.14 154.607C187.967 154.063 189.278 153.821 190.73 153.76C192.202 153.7 193.473 153.821 194.259 154.285C194.824 154.607 195.147 155.112 195.147 155.818C195.147 156.503 194.824 157.008 194.259 157.35C193.473 157.834 192.182 158.016 190.73 158.076C189.278 158.137 187.967 158.076 187.14 157.653C186.555 157.35 186.232 156.887 186.232 156.201ZM187.321 151.401C187.321 151.622 187.442 151.804 187.604 151.925C187.826 152.086 188.189 152.167 188.612 152.147C189.036 152.127 189.399 151.985 189.621 151.784C189.782 151.643 189.903 151.441 189.903 151.219C189.903 150.997 189.782 150.816 189.621 150.695C189.399 150.513 189.016 150.453 188.612 150.473C188.189 150.493 187.826 150.614 187.604 150.816C187.442 150.997 187.321 151.179 187.321 151.401ZM187.947 156.08C187.947 156.261 188.047 156.382 188.249 156.483C188.713 156.685 189.6 156.725 190.73 156.685C191.859 156.644 192.747 156.523 193.191 156.261C193.392 156.14 193.493 156.019 193.493 155.838C193.493 155.656 193.372 155.515 193.191 155.414C192.747 155.172 191.859 155.112 190.73 155.152C189.6 155.212 188.713 155.354 188.249 155.636C188.047 155.737 187.947 155.898 187.947 156.08ZM191.738 149.021C192.343 149 192.626 149 193.231 148.98C193.231 147.992 193.231 147.488 193.211 146.499C193.876 146.52 194.219 146.54 194.885 146.58C194.885 149.363 194.885 150.735 194.885 153.498C194.219 153.498 193.896 153.498 193.211 153.518C193.211 153.095 193.211 152.873 193.211 152.449C192.626 152.47 192.323 152.469 191.718 152.49C191.718 151.945 191.718 151.683 191.718 151.138C192.323 151.118 192.606 151.118 193.211 151.098C193.211 150.795 193.211 150.634 193.211 150.332C192.626 150.352 192.323 150.352 191.718 150.372C191.759 149.848 191.759 149.605 191.738 149.021Z" fill="#181919"/>
</svg>
