<svg width="212" height="185" viewBox="0 0 212 185" fill="none" xmlns="http://www.w3.org/2000/svg">
<path d="M107.271 183.53C157.676 183.53 198.536 142.669 198.536 92.2649C198.536 41.8607 157.676 1 107.271 1C56.8673 1 16.0066 41.8607 16.0066 92.2649C16.0066 142.669 56.8673 183.53 107.271 183.53Z" fill="#EBEBEB"/>
<mask id="mask0_393_22321" style="mask-type:luminance" maskUnits="userSpaceOnUse" x="16" y="96" width="182" height="70">
<path d="M17.7804 109.832C20.5637 125.988 29.075 141.094 41.4185 151.864C44.0808 154.184 46.9246 156.322 50.0307 157.955C54.4073 160.275 59.2479 158.742 64.0885 159.67C73.4267 161.465 82.9869 164.732 92.4865 165.156C103.7 165.64 114.935 166.124 125.967 164.793C144.865 162.534 162.957 155.071 179.032 148.557C182.662 147.629 186.696 146.378 188.39 143.051C189.479 140.892 189.278 138.351 189.52 135.951C189.721 133.934 190.226 131.958 190.75 129.981C192.868 121.893 194.965 113.805 197.204 105.718C194.421 102.955 190.528 101.644 186.736 100.635C147.77 90.3085 106.564 101.422 66.2667 99.8485C62.5355 99.7073 58.8244 99.4451 55.1738 98.719C52.935 98.2753 50.7164 97.6299 48.4171 97.5089C45.533 97.3475 42.669 98.0131 39.8655 98.719C32.1004 100.696 24.4362 103.035 16.8929 105.778C17.2156 107.311 17.619 108.844 17.7804 109.832Z" fill="white"/>
</mask>
<g mask="url(#mask0_393_22321)">
<path d="M237.522 85.2057L174.232 150.513" stroke="#181919" stroke-miterlimit="10" stroke-linecap="round" stroke-linejoin="round"/>
<path d="M230.927 85.4074L167.636 150.715" stroke="#181919" stroke-miterlimit="10" stroke-linecap="round" stroke-linejoin="round"/>
<path d="M224.352 85.6294L161.061 150.917" stroke="#181919" stroke-miterlimit="10" stroke-linecap="round" stroke-linejoin="round"/>
<path d="M217.756 85.831L154.466 151.138" stroke="#181919" stroke-miterlimit="10" stroke-linecap="round" stroke-linejoin="round"/>
<path d="M211.161 86.0326L147.871 151.34" stroke="#181919" stroke-miterlimit="10" stroke-linecap="round" stroke-linejoin="round"/>
<path d="M204.586 86.2546L141.296 151.542" stroke="#181919" stroke-miterlimit="10" stroke-linecap="round" stroke-linejoin="round"/>
<path d="M197.991 86.4562L134.7 151.764" stroke="#181919" stroke-miterlimit="10" stroke-linecap="round" stroke-linejoin="round"/>
<path d="M191.395 86.6579L128.105 151.965" stroke="#181919" stroke-miterlimit="10" stroke-linecap="round" stroke-linejoin="round"/>
<path d="M184.8 86.8798L121.51 152.167" stroke="#181919" stroke-miterlimit="10" stroke-linecap="round" stroke-linejoin="round"/>
<path d="M178.225 87.0815L114.934 152.389" stroke="#181919" stroke-miterlimit="10" stroke-linecap="round" stroke-linejoin="round"/>
<path d="M171.63 87.2832L108.34 152.591" stroke="#181919" stroke-miterlimit="10" stroke-linecap="round" stroke-linejoin="round"/>
<path d="M165.035 87.5051L101.744 152.792" stroke="#181919" stroke-miterlimit="10" stroke-linecap="round" stroke-linejoin="round"/>
<path d="M158.46 87.7067L95.1693 153.014" stroke="#181919" stroke-miterlimit="10" stroke-linecap="round" stroke-linejoin="round"/>
<path d="M151.864 87.9084L88.574 153.216" stroke="#181919" stroke-miterlimit="10" stroke-linecap="round" stroke-linejoin="round"/>
<path d="M145.269 88.1303L81.9786 153.417" stroke="#181919" stroke-miterlimit="10" stroke-linecap="round" stroke-linejoin="round"/>
<path d="M138.694 88.3319L75.4034 153.639" stroke="#181919" stroke-miterlimit="10" stroke-linecap="round" stroke-linejoin="round"/>
<path d="M132.099 88.5337L68.8082 153.841" stroke="#181919" stroke-miterlimit="10" stroke-linecap="round" stroke-linejoin="round"/>
<path d="M125.503 88.7555L62.2129 154.043" stroke="#181919" stroke-miterlimit="10" stroke-linecap="round" stroke-linejoin="round"/>
<path d="M118.908 88.9572L55.6176 154.264" stroke="#181919" stroke-miterlimit="10" stroke-linecap="round" stroke-linejoin="round"/>
<path d="M112.333 89.1589L49.0424 154.466" stroke="#181919" stroke-miterlimit="10" stroke-linecap="round" stroke-linejoin="round"/>
<path d="M105.737 89.3808L42.447 154.668" stroke="#181919" stroke-miterlimit="10" stroke-linecap="round" stroke-linejoin="round"/>
<path d="M99.1421 89.5824L35.8517 154.89" stroke="#181919" stroke-miterlimit="10" stroke-linecap="round" stroke-linejoin="round"/>
<path d="M92.5672 89.7841L29.2767 155.091" stroke="#181919" stroke-miterlimit="10" stroke-linecap="round" stroke-linejoin="round"/>
<path d="M85.9718 90.006L22.6814 155.293" stroke="#181919" stroke-miterlimit="10" stroke-linecap="round" stroke-linejoin="round"/>
<path d="M79.377 90.2076L16.0865 155.515" stroke="#181919" stroke-miterlimit="10" stroke-linecap="round" stroke-linejoin="round"/>
<path d="M72.8018 90.4094L9.49121 155.717" stroke="#181919" stroke-miterlimit="10" stroke-linecap="round" stroke-linejoin="round"/>
<path d="M66.2066 90.6312L2.91614 155.918" stroke="#181919" stroke-miterlimit="10" stroke-linecap="round" stroke-linejoin="round"/>
<path d="M59.6112 90.8329L-3.6792 156.14" stroke="#181919" stroke-miterlimit="10" stroke-linecap="round" stroke-linejoin="round"/>
<path d="M53.0159 91.0346L-10.2745 156.342" stroke="#181919" stroke-miterlimit="10" stroke-linecap="round" stroke-linejoin="round"/>
<path d="M46.4407 91.2565L-16.8497 156.544" stroke="#181919" stroke-miterlimit="10" stroke-linecap="round" stroke-linejoin="round"/>
<path d="M39.8453 91.4581L-23.4451 156.765" stroke="#181919" stroke-miterlimit="10" stroke-linecap="round" stroke-linejoin="round"/>
<path d="M33.25 91.6599L-30.0404 156.967" stroke="#181919" stroke-miterlimit="10" stroke-linecap="round" stroke-linejoin="round"/>
</g>
<path d="M197.688 104.75C177.217 97.9929 157.31 91.5993 135.931 90.3892C125.766 89.8043 115.58 90.5505 105.435 91.2968C81.313 93.0515 57.0294 94.8465 33.6132 100.837C28.2482 102.208 22.8429 103.842 18.2242 106.887C13.7064 84.6208 18.6074 60.3978 31.4349 41.3381C44.2624 22.2783 64.855 7.61544 87.7469 3.2791C100.131 0.273911 113.22 0.253743 125.624 3.21859C128.246 3.84383 130.828 4.61026 133.43 5.35651C136.132 6.1431 138.855 6.94986 141.497 7.91797C148.274 10.4189 154.587 14.0897 160.557 18.1638C165.378 21.4514 170.037 25.0415 173.949 29.3577C177.842 33.6335 180.928 38.5547 184.014 43.4558C186.232 46.9854 188.451 50.515 190.085 54.3471C191.033 56.5657 191.779 58.8851 192.505 61.1844C196.115 72.4589 199.786 84.1166 198.535 95.8751C198.112 99.7879 198.092 101.361 197.688 105.052C197.587 103.842 197.608 104.487 197.688 104.75Z" fill="#5A66FF"/>
<path d="M107.271 183.53C157.676 183.53 198.536 142.669 198.536 92.2649C198.536 41.8607 157.676 1 107.271 1C56.8673 1 16.0066 41.8607 16.0066 92.2649C16.0066 142.669 56.8673 183.53 107.271 183.53Z" stroke="#181919" stroke-miterlimit="10"/>
<path d="M17.4976 106.202C28.0661 101.2 39.6431 98.7996 51.2 96.9844C84.3781 91.7405 118.242 90.8732 151.642 94.4028C167.253 96.0567 182.944 98.6988 197.385 104.871" stroke="#181919" stroke-miterlimit="10" stroke-linecap="round" stroke-linejoin="round"/>
<path d="M211 137.645V170.803C174.817 160.396 142.587 184.095 106 184.095C68.1226 183.792 37.2034 160.396 1 170.803V137.645C37.2438 127.298 68.7276 152.59 106 152.59C140.953 152.873 174.756 127.298 211 137.645Z" fill="white" stroke="#181919" stroke-miterlimit="10"/>
<path d="M51.1202 140.63L32.2621 70.3815C31.4554 67.3763 33.2504 64.2904 36.2556 63.4837L81.1922 51.4226C84.2176 50.6158 87.3034 52.3907 88.1102 55.4161L106.968 125.665C107.775 128.67 105.98 131.756 102.975 132.563L58.0382 144.624C55.033 145.43 51.9269 143.656 51.1202 140.63Z" fill="#EBEBEB" stroke="#181919" stroke-miterlimit="10" stroke-linecap="round" stroke-linejoin="round"/>
<path d="M101.805 121.409L84.5402 57.0498C84.1973 55.7791 82.9065 55.0329 81.6359 55.3757L42.2861 65.9443C42.0441 69.4537 40.2692 72.6606 37.4657 74.6372L54.7304 138.997C55.0733 140.267 56.3641 141.013 57.6347 140.671L96.9845 130.102C97.2266 126.613 99.0014 123.406 101.805 121.409Z" fill="#B180E0" stroke="#181919" stroke-miterlimit="10" stroke-linecap="round" stroke-linejoin="round"/>
<path d="M58.7643 126.532L80.7284 120.643" stroke="#181919" stroke-miterlimit="10" stroke-linecap="round" stroke-linejoin="round"/>
<path d="M59.9136 131.695L88.9771 123.89" stroke="#181919" stroke-miterlimit="10" stroke-linecap="round" stroke-linejoin="round"/>
<path d="M72.1158 109.812C64.3709 111.889 56.4243 107.291 54.3469 99.566C52.3704 92.2043 56.7471 84.6207 64.1088 82.6442L64.7743 82.4627C72.3175 80.4458 80.0826 84.9233 82.1197 92.4665C84.1366 100.03 79.6591 107.795 72.1158 109.812Z" fill="#EBEBEB" stroke="#181919" stroke-miterlimit="10" stroke-linecap="round" stroke-linejoin="round"/>
<path d="M59.5911 106.948L80.8694 101.906" stroke="#181919" stroke-miterlimit="10" stroke-linecap="round" stroke-linejoin="round"/>
<path d="M56.1624 101.321L82.019 94.3826" stroke="#181919" stroke-miterlimit="10" stroke-linecap="round" stroke-linejoin="round"/>
<path d="M54.5488 96.1373L80.3854 89.1991" stroke="#181919" stroke-miterlimit="10" stroke-linecap="round" stroke-linejoin="round"/>
<path d="M56.3839 89.784L75.0604 84.7619" stroke="#181919" stroke-miterlimit="10" stroke-linecap="round" stroke-linejoin="round"/>
<path d="M64.956 85.9317C64.7946 82.9467 65.7022 79.9012 67.4771 77.4607C68.3444 76.2909 69.3528 75.2421 70.5025 74.3345" stroke="#181919" stroke-miterlimit="10" stroke-linecap="round" stroke-linejoin="round"/>
<path d="M107.794 126.088L127.782 56.1421C128.629 53.1369 131.775 51.4024 134.76 52.2697L179.495 65.0568C182.5 65.9039 184.235 69.0301 183.368 72.0353L163.38 141.982C162.533 144.987 159.387 146.721 156.402 145.854L111.667 133.067C108.662 132.22 106.927 129.094 107.794 126.088Z" fill="#EBEBEB" stroke="#181919" stroke-miterlimit="10" stroke-linecap="round" stroke-linejoin="round"/>
<path d="M177.821 68.6671L138.633 57.4733C136.616 60.3575 133.449 62.1929 130.02 62.4551L111.707 126.532C111.344 127.783 112.07 129.094 113.341 129.457L152.529 140.65C154.546 137.766 157.712 135.931 161.141 135.669L179.455 71.5916C179.798 70.3411 179.071 69.0302 177.821 68.6671Z" fill="#56B381" stroke="#181919" stroke-miterlimit="10" stroke-linecap="round" stroke-linejoin="round"/>
<path d="M131.876 102.954L137.382 83.6729L160.375 90.248L154.869 109.53C154.244 111.728 151.944 112.999 149.746 112.373L134.74 108.077C132.522 107.452 131.251 105.153 131.876 102.954Z" fill="#EBEBEB" stroke="#181919" stroke-miterlimit="10" stroke-linecap="round" stroke-linejoin="round"/>
<path d="M147.083 87.5857L140.892 109.308" stroke="#181919" stroke-miterlimit="10" stroke-linecap="round" stroke-linejoin="round"/>
<path d="M151.561 88.6747L145.349 110.397" stroke="#181919" stroke-miterlimit="10" stroke-linecap="round" stroke-linejoin="round"/>
<path d="M121.61 117.92L143.473 124.172" stroke="#181919" stroke-miterlimit="10" stroke-linecap="round" stroke-linejoin="round"/>
<path d="M119.936 122.942L148.858 131.211" stroke="#181919" stroke-miterlimit="10" stroke-linecap="round" stroke-linejoin="round"/>
<path d="M79.3362 127.964V54.4278C79.3362 51.5437 81.6758 49.1839 84.5801 49.1839H131.937C134.821 49.1839 137.181 51.5235 137.181 54.4278V127.984C137.181 130.868 134.841 133.228 131.937 133.228H84.5801C81.6758 133.208 79.3362 130.868 79.3362 127.964Z" fill="#EBEBEB" stroke="#181919" stroke-miterlimit="10" stroke-linecap="round" stroke-linejoin="round"/>
<path d="M133.268 122.135V55.3153C133.268 54.1052 132.28 53.1169 131.07 53.1169H90.1466C88.997 56.4448 86.4557 59.0667 83.2286 60.2769V127.097C83.2286 128.307 84.2169 129.295 85.4271 129.295H126.35C127.5 125.967 130.041 123.325 133.268 122.135Z" fill="#FF88B6" stroke="#181919" stroke-miterlimit="10" stroke-linecap="round" stroke-linejoin="round"/>
<path d="M96.1372 93.9188V81.6761H120.038V93.9188C120.038 100.514 114.693 105.879 108.077 105.879C101.482 105.879 96.1372 100.514 96.1372 93.9188Z" fill="#EBEBEB" stroke="#181919" stroke-miterlimit="10" stroke-linecap="round" stroke-linejoin="round"/>
<path d="M100.675 82.0393V102.793" stroke="#181919" stroke-miterlimit="10" stroke-linecap="round" stroke-linejoin="round"/>
<path d="M106.544 82.7653V105.375" stroke="#181919" stroke-miterlimit="10" stroke-linecap="round" stroke-linejoin="round"/>
<path d="M111.143 82.5838V105.193" stroke="#181919" stroke-miterlimit="10" stroke-linecap="round" stroke-linejoin="round"/>
<path d="M115.923 82.4023V101.805" stroke="#181919" stroke-miterlimit="10" stroke-linecap="round" stroke-linejoin="round"/>
<path d="M103.398 75.3431V81.1922" stroke="#181919" stroke-miterlimit="10" stroke-linecap="round" stroke-linejoin="round"/>
<path d="M113.442 75.3431V81.1922" stroke="#181919" stroke-miterlimit="10" stroke-linecap="round" stroke-linejoin="round"/>
<path d="M103.398 75.3028C104.601 75.3028 105.576 74.3275 105.576 73.1245C105.576 71.9215 104.601 70.9463 103.398 70.9463C102.195 70.9463 101.22 71.9215 101.22 73.1245C101.22 74.3275 102.195 75.3028 103.398 75.3028Z" fill="#EBEBEB" stroke="#181919" stroke-miterlimit="10" stroke-linecap="round" stroke-linejoin="round"/>
<path d="M113.483 75.3028C114.686 75.3028 115.661 74.3275 115.661 73.1245C115.661 71.9215 114.686 70.9463 113.483 70.9463C112.28 70.9463 111.304 71.9215 111.304 73.1245C111.304 74.3275 112.28 75.3028 113.483 75.3028Z" fill="#EBEBEB" stroke="#181919" stroke-miterlimit="10" stroke-linecap="round" stroke-linejoin="round"/>
<path d="M90.3685 115.923H113.119" stroke="#181919" stroke-miterlimit="10" stroke-linecap="round" stroke-linejoin="round"/>
<path d="M90.147 121.208H120.239" stroke="#181919" stroke-miterlimit="10" stroke-linecap="round" stroke-linejoin="round"/>
<path d="M109.024 16.9739L110.84 22.5607C111.001 23.0851 111.485 23.4279 112.03 23.4279H117.899C119.109 23.4279 119.613 24.981 118.645 25.6869L113.885 29.1358C113.441 29.4585 113.26 30.0232 113.421 30.5274L115.236 36.1143C115.62 37.2639 114.289 38.232 113.3 37.5059L108.54 34.057C108.097 33.7343 107.512 33.7343 107.068 34.057L102.308 37.5059C101.32 38.2119 100.009 37.2639 100.372 36.1143L102.187 30.5274C102.348 30.0031 102.167 29.4383 101.723 29.1358L96.9633 25.6869C95.9751 24.981 96.4793 23.4279 97.7096 23.4279H103.579C104.123 23.4279 104.607 23.0851 104.769 22.5607L106.584 16.9739C107.008 15.8242 108.641 15.8242 109.024 16.9739Z" fill="#FFF58C" stroke="#181919" stroke-miterlimit="10" stroke-linecap="round" stroke-linejoin="round"/>
<path d="M48.033 42.8911C62.3328 36.5983 77.5403 32.3225 93.0301 30.2249" stroke="#181919" stroke-miterlimit="10" stroke-linecap="round" stroke-linejoin="round"/>
<path d="M42.4263 51.0797C44.0303 51.0797 45.3306 49.7794 45.3306 48.1754C45.3306 46.5714 44.0303 45.2711 42.4263 45.2711C40.8223 45.2711 39.522 46.5714 39.522 48.1754C39.522 49.7794 40.8223 51.0797 42.4263 51.0797Z" fill="#FFF58C" stroke="#181919" stroke-miterlimit="10" stroke-linecap="round" stroke-linejoin="round"/>
<path d="M167.315 43.7583C153.015 37.4656 137.807 33.1897 122.318 31.0922" stroke="#181919" stroke-miterlimit="10" stroke-linecap="round" stroke-linejoin="round"/>
<path d="M172.922 51.947C174.526 51.947 175.827 50.6467 175.827 49.0426C175.827 47.4386 174.526 46.1383 172.922 46.1383C171.318 46.1383 170.018 47.4386 170.018 49.0426C170.018 50.6467 171.318 51.947 172.922 51.947Z" fill="#FFF58C" stroke="#181919" stroke-miterlimit="10" stroke-linecap="round" stroke-linejoin="round"/>
<path d="M20.8858 153.821C20.2202 153.78 19.8774 153.76 19.2118 153.74C18.9899 154.749 18.8891 155.233 18.6672 156.241C18.042 156.221 17.7395 156.221 17.1142 156.221C17.3361 155.212 17.4369 154.708 17.6588 153.7C17.1344 153.7 16.852 153.68 16.3276 153.68C16.3276 153.135 16.3276 152.873 16.3276 152.328C16.973 152.328 17.2958 152.328 17.9412 152.348C18.1227 151.542 18.2033 151.138 18.3849 150.311C17.7596 150.291 17.4369 150.291 16.8117 150.291C16.8117 149.747 16.8117 149.484 16.8117 148.96C17.5579 148.96 17.921 148.98 18.6672 149C18.8891 147.992 18.99 147.488 19.232 146.479C19.8572 146.499 20.1597 146.52 20.785 146.56C20.5631 147.568 20.4421 148.073 20.2202 149.081C20.8858 149.121 21.2085 149.142 21.8741 149.182C22.096 148.194 22.217 147.689 22.4389 146.681C23.0439 146.721 23.3465 146.762 23.9515 146.822C23.7095 147.831 23.5885 148.335 23.3666 149.323C23.891 149.363 24.133 149.404 24.6574 149.464C24.6574 149.989 24.6574 150.271 24.6574 150.795C24.0322 150.735 23.7095 150.695 23.0842 150.634C22.9027 151.441 22.8221 151.844 22.6607 152.631C23.286 152.691 23.5885 152.711 24.2137 152.772C24.2137 153.317 24.2137 153.579 24.2339 154.123C23.5078 154.043 23.1246 154.022 22.3985 153.962C22.1968 154.95 22.096 155.434 21.8741 156.423C21.2691 156.382 20.9463 156.362 20.3413 156.342C20.5631 155.293 20.6841 154.809 20.8858 153.821ZM19.4942 152.389C20.1597 152.409 20.5026 152.429 21.1682 152.49C21.3295 151.683 21.4304 151.279 21.5918 150.473C20.9262 150.432 20.6035 150.412 19.9177 150.372C19.7564 151.179 19.6757 151.582 19.4942 152.389Z" fill="#181919"/>
<path d="M26.3921 153.115C30.2645 153.599 32.1403 153.962 35.9522 154.749C35.9724 155.334 35.9925 155.636 36.0329 156.221C34.4395 155.898 33.6328 155.737 32.0394 155.455C32.0798 156.725 32.0999 157.27 32.1403 158.46C31.4949 158.359 31.1722 158.319 30.5066 158.218C30.4663 157.008 30.4662 156.463 30.4259 155.172C28.8325 154.91 28.0258 154.789 26.4324 154.587C26.3921 154.002 26.3921 153.72 26.3921 153.115ZM28.5098 150.594C31.2932 151.017 32.6647 151.28 35.4077 151.844C35.4077 152.429 35.4077 152.732 35.4077 153.317C32.0193 152.611 30.3452 152.308 26.8963 151.844C26.8963 149.686 26.9165 148.577 26.9972 146.378C27.6627 146.459 27.9854 146.499 28.6309 146.6C28.5703 148.214 28.5098 149.021 28.5098 150.594Z" fill="#181919"/>
<path d="M38.0699 154.95C41.8617 155.777 43.7576 156.261 47.63 157.169C47.6704 157.754 47.6906 158.056 47.7309 158.641C46.1174 158.258 45.3106 158.076 43.7173 157.693C43.798 159.065 43.8383 159.589 43.8988 160.799C43.2534 160.658 42.9307 160.577 42.2853 160.436C42.2248 159.226 42.2046 158.702 42.1038 157.31C40.5306 156.947 39.7238 156.766 38.1506 156.423C38.1103 155.838 38.0901 155.555 38.0699 154.95ZM45.5728 151.663C42.7895 150.997 41.3978 150.674 38.6347 150.069C38.6952 149.464 38.7355 149.162 38.796 148.537C42.2248 149.283 43.9391 149.686 47.3679 150.513C47.2267 151.582 47.1662 152.127 47.0452 153.196C46.904 154.365 46.9443 155.374 46.783 156.16C46.1375 156.019 45.8149 155.939 45.1695 155.777C45.3308 154.991 45.4115 153.922 45.4115 153.014C45.4115 152.51 45.4922 152.207 45.5728 151.663Z" fill="#181919"/>
<path d="M55.0723 162.675C53.1562 162.211 52.2083 161.969 50.3124 161.525C50.1309 157.814 49.8888 155.575 50.3729 151.219C51.0183 151.38 51.341 151.441 51.9864 151.602C51.6032 155.333 51.7242 157.37 51.8654 160.598C53.2571 160.92 53.963 161.082 55.3546 161.384C56.2421 161.586 56.9077 161.586 57.2505 161.364C57.1699 157.915 57.1699 156.181 57.311 152.671C57.9564 152.812 58.2993 152.873 58.9447 153.014C58.9246 154.829 58.9044 155.737 58.9044 157.532C59.5902 157.653 59.933 157.713 60.6188 157.855C60.6188 158.439 60.6188 158.742 60.6188 159.327C59.9532 159.206 59.6103 159.145 58.9044 159.004C58.9246 161.162 58.9246 162.231 58.9447 164.369C58.2791 164.208 57.9565 164.127 57.2909 163.966C57.2909 163.462 57.2707 163.22 57.2707 162.715C56.9077 162.957 56.1009 162.937 55.0723 162.675Z" fill="#181919"/>
<path d="M70.179 163.683C69.4932 163.502 69.1705 163.421 68.4848 163.24C68.2629 164.208 68.1419 164.773 67.8999 165.842C67.2746 165.68 66.9721 165.599 66.3469 165.418C66.5889 164.369 66.7099 163.804 66.9317 162.836C66.4074 162.695 66.125 162.635 65.6006 162.514C65.6006 161.969 65.6006 161.687 65.6006 161.142C66.246 161.303 66.5687 161.384 67.2141 161.546C67.3956 160.759 67.4763 160.376 67.6578 159.589C67.0326 159.428 66.7099 159.347 66.0847 159.206C66.0847 158.661 66.0847 158.399 66.0847 157.855C66.8309 158.036 67.1939 158.117 67.9402 158.318C68.1621 157.35 68.2629 156.927 68.4646 156.039C69.0898 156.201 69.4125 156.281 70.0378 156.463C69.8361 157.35 69.7352 157.774 69.5134 158.742C70.179 158.924 70.5218 159.004 71.2076 159.186C71.4294 158.218 71.5303 157.814 71.732 156.927C72.3572 157.088 72.6597 157.189 73.285 157.35C73.0833 158.238 72.9825 158.641 72.7606 159.609C73.285 159.75 73.5674 159.831 74.0918 159.972C74.0918 160.517 74.0918 160.779 74.0918 161.324C73.4464 161.142 73.1035 161.061 72.4581 160.88C72.2766 161.667 72.1959 162.05 72.0144 162.836C72.6598 163.018 72.9824 163.099 73.6279 163.28C73.6279 163.825 73.6279 164.107 73.6279 164.652C72.8614 164.45 72.4984 164.329 71.732 164.127C71.5101 165.095 71.3689 165.68 71.1269 166.749C70.5017 166.568 70.1991 166.487 69.5739 166.326C69.8159 165.236 69.9571 164.652 70.179 163.683ZM68.7671 161.949C69.4529 162.13 69.7958 162.211 70.4613 162.393C70.6429 161.606 70.7235 161.223 70.9051 160.436C70.2193 160.255 69.8764 160.154 69.2109 159.992C69.0293 160.759 68.9487 161.162 68.7671 161.949Z" fill="#181919"/>
<path d="M75.5643 164.712C76.2703 164.914 76.6333 165.015 77.3392 165.196C77.3392 165.236 77.3392 165.257 77.3392 165.297C77.3392 166.326 77.9443 167.132 78.7914 167.374C79.6385 167.616 80.2839 167.132 80.2839 166.104C80.2839 165.055 79.6587 164.309 78.7712 164.067C78.388 163.966 78.1863 163.905 77.8031 163.804C77.8031 163.22 77.8031 162.937 77.8031 162.352C78.1863 162.453 78.388 162.514 78.7712 162.615C79.5175 162.816 80.0217 162.493 80.0217 161.646C80.0217 160.84 79.5175 160.275 78.8116 160.073C78.0855 159.872 77.6014 160.174 77.6014 160.961C77.6014 161.001 77.6014 161.021 77.6014 161.041C76.9157 160.84 76.5526 160.759 75.8669 160.557C75.8669 160.477 75.8669 160.416 75.8669 160.335C75.8669 158.823 76.9157 158.157 78.7914 158.661C80.6671 159.166 81.7562 160.436 81.7562 161.949C81.7562 162.978 81.1713 163.663 80.3041 163.724C81.3932 164.329 82.0588 165.358 82.0386 166.668C82.0386 168.504 80.6469 169.532 78.7309 169.008C76.8148 168.504 75.5442 166.729 75.5442 164.894C75.5644 164.833 75.5643 164.793 75.5643 164.712Z" fill="#181919"/>
<path d="M84.3781 159.69C86.6168 160.255 87.7463 160.517 90.0052 160.961C90.0052 161.303 90.0052 161.465 90.0052 161.808C90.7918 161.969 91.175 162.05 91.9616 162.191C91.9616 161.788 91.9616 161.606 91.9616 161.203C92.6473 161.324 92.9902 161.384 93.676 161.505C93.676 164.107 93.6961 165.418 93.676 168.08C92.9902 167.959 92.6473 167.899 91.9818 167.778C91.9818 167.112 91.9818 166.789 91.9818 166.124C91.1952 165.983 90.812 165.902 90.0254 165.72C90.0254 166.084 90.0254 166.265 90.0254 166.628C87.7866 166.144 86.6571 165.882 84.4184 165.317C84.4184 162.998 84.3982 161.868 84.3781 159.69ZM84.9226 168.786C84.9428 167.899 85.3462 167.435 85.9916 167.193C86.8992 166.85 88.2102 167.011 89.4203 167.273C90.6506 167.536 91.9818 167.979 92.849 168.665C93.4944 169.169 93.918 169.815 93.918 170.662C93.918 171.509 93.4743 172.054 92.8289 172.356C91.9414 172.759 90.6103 172.699 89.38 172.477C88.1497 172.235 86.8185 171.791 85.9512 171.005C85.3058 170.44 84.9024 169.674 84.9226 168.786ZM86.0722 161.485C86.0722 162.574 86.0722 163.139 86.0722 164.288C86.9798 164.51 87.4437 164.611 88.3715 164.833C88.3715 163.683 88.3715 163.119 88.3715 162.03C87.4437 161.808 86.9798 161.707 86.0722 161.485ZM86.637 169.19C86.637 169.492 86.7782 169.754 87.0404 169.976C87.5648 170.42 88.5127 170.722 89.4001 170.904C90.3077 171.085 91.2557 171.166 91.7801 170.944C92.0423 170.823 92.2036 170.642 92.2036 170.339C92.2036 170.057 92.0423 169.815 91.7801 169.613C91.2355 169.19 90.3077 168.927 89.4001 168.726C88.5127 168.544 87.5648 168.403 87.0404 168.605C86.7782 168.726 86.637 168.907 86.637 169.19ZM90.0254 163.199C90.0254 163.623 90.0254 163.845 90.0254 164.288C90.812 164.45 91.1952 164.531 91.9818 164.692C91.9818 164.248 91.9818 164.026 91.9818 163.603C91.1952 163.462 90.7918 163.381 90.0254 163.199Z" fill="#181919"/>
<path d="M104.769 170.541C104.083 170.541 103.761 170.541 103.075 170.521C102.853 171.529 102.752 172.033 102.53 173.042C101.905 173.022 101.582 173.002 100.957 172.961C101.179 171.953 101.28 171.449 101.502 170.46C100.957 170.44 100.695 170.42 100.15 170.38C100.15 169.835 100.15 169.573 100.15 169.028C100.796 169.089 101.118 169.109 101.784 169.129C101.965 168.322 102.046 167.919 102.228 167.112C101.602 167.092 101.28 167.072 100.634 167.011C100.634 166.467 100.634 166.205 100.634 165.68C101.381 165.741 101.764 165.761 102.51 165.781C102.732 164.773 102.853 164.268 103.075 163.26C103.7 163.28 104.023 163.28 104.648 163.28C104.426 164.289 104.305 164.813 104.083 165.821C104.769 165.821 105.092 165.821 105.777 165.801C105.999 164.773 106.12 164.268 106.342 163.24C106.967 163.22 107.27 163.199 107.895 163.179C107.673 164.208 107.552 164.732 107.33 165.741C107.875 165.721 108.137 165.7 108.682 165.66C108.682 166.184 108.682 166.467 108.682 166.991C108.016 167.032 107.693 167.052 107.048 167.072C106.867 167.899 106.786 168.302 106.604 169.129C107.25 169.109 107.572 169.089 108.218 169.048C108.218 169.593 108.218 169.855 108.218 170.4C107.451 170.44 107.068 170.46 106.322 170.48C106.1 171.489 105.999 172.013 105.777 173.022C105.152 173.042 104.85 173.042 104.224 173.042C104.446 172.054 104.547 171.549 104.769 170.541ZM103.357 169.169C104.043 169.19 104.386 169.19 105.072 169.19C105.253 168.363 105.334 167.959 105.515 167.132C104.829 167.153 104.487 167.153 103.801 167.132C103.619 167.959 103.539 168.363 103.357 169.169Z" fill="#181919"/>
<path d="M110.497 171.61C112.191 171.469 113.018 171.368 114.712 171.126C114.712 169.815 114.712 169.169 114.712 167.879C115.398 167.778 115.721 167.737 116.406 167.616C116.406 168.927 116.406 169.573 116.427 170.884C118.141 170.622 118.988 170.46 120.702 170.117C120.702 170.722 120.702 171.025 120.702 171.63C116.608 172.437 114.571 172.759 110.497 173.102C110.497 172.497 110.497 172.195 110.497 171.61ZM115.559 165.72C114.732 166.991 113.058 168.423 110.658 169.069C110.658 168.463 110.658 168.181 110.658 167.576C113.28 166.729 114.712 165.015 114.692 162.473C114.692 162.211 114.692 162.07 114.692 161.808C115.378 161.707 115.721 161.646 116.406 161.546C116.406 161.808 116.406 161.949 116.406 162.211C116.427 164.752 117.838 166.023 120.46 166.084C120.46 166.648 120.46 166.971 120.46 167.576C118.04 167.637 116.386 166.729 115.559 165.72Z" fill="#181919"/>
<path d="M122.962 166.669C127.036 165.761 129.073 165.216 133.127 164.107C133.127 164.732 133.127 165.035 133.147 165.64C132.32 165.862 131.896 165.983 131.07 166.205C131.09 167.657 131.09 168.383 131.11 169.835C130.444 170.017 130.101 170.097 129.436 170.259C129.416 168.806 129.416 168.08 129.395 166.628C128.367 166.89 127.842 167.032 126.814 167.274C126.834 168.706 126.834 169.432 126.854 170.884C126.189 171.045 125.846 171.126 125.18 171.267C125.16 169.835 125.16 169.109 125.16 167.677C124.293 167.879 123.869 167.98 123.002 168.161C122.962 167.576 122.962 167.274 122.962 166.669ZM130.868 159.872C127.923 160.638 126.451 161.021 123.486 161.687C123.486 161.062 123.466 160.759 123.466 160.134C127.096 159.307 128.932 158.803 132.542 157.834C132.562 158.944 132.582 159.509 132.602 160.638C132.623 161.868 132.481 162.756 132.3 163.583C131.634 163.764 131.291 163.865 130.606 164.026C130.787 163.199 130.888 162.151 130.908 161.283C130.908 160.799 130.888 160.436 130.868 159.872Z" fill="#181919"/>
<path d="M135.97 163.441C135.95 160.779 136.011 159.75 135.95 156.947C139.52 155.959 141.315 155.454 144.845 154.547C144.885 157.25 144.845 158.379 144.845 161.001C143.433 161.384 142.707 161.566 141.275 161.969C141.275 163.119 141.295 163.683 141.295 164.833C142.949 164.369 143.776 164.127 145.41 163.683C145.41 164.289 145.41 164.591 145.41 165.196C141.456 166.305 139.46 166.91 135.426 168.02C135.426 167.415 135.426 167.092 135.406 166.487C137.1 166.023 137.947 165.781 139.621 165.317C139.601 164.167 139.601 163.603 139.601 162.453C138.169 162.836 137.443 163.038 135.97 163.441ZM143.191 156.564C140.993 157.169 139.883 157.492 137.665 158.097C137.685 159.589 137.665 160.214 137.645 161.505C139.863 160.88 140.972 160.577 143.171 159.972C143.211 158.661 143.211 158.036 143.191 156.564Z" fill="#181919"/>
<path d="M148.193 160.154C148.193 157.572 148.193 156.322 148.193 153.72C151.703 152.873 153.598 152.449 157.309 151.522C157.33 153.962 157.652 155.394 157.39 157.955C155.877 158.298 155.131 158.48 153.639 158.843C153.558 159.952 153.498 160.497 153.518 161.586C155.212 161.162 156.059 160.961 157.794 160.537C157.814 161.102 157.814 161.384 157.814 161.949C153.639 162.957 151.581 163.502 147.669 164.591C147.669 163.986 147.669 163.704 147.669 163.099C149.323 162.655 150.129 162.453 151.844 162.009C151.844 160.92 151.884 160.356 151.924 159.246C150.371 159.609 149.625 159.791 148.193 160.154ZM155.575 153.357C153.276 153.922 152.126 154.224 149.867 154.789C149.867 156.16 149.867 156.866 149.867 158.238C152.187 157.673 153.336 157.391 155.676 156.846C155.615 155.414 155.575 154.668 155.575 153.357Z" fill="#181919"/>
<path d="M160.456 153.438C160.395 152.288 160.799 151.501 161.464 150.836C161.989 150.311 162.715 149.928 163.562 149.726C164.409 149.525 165.135 149.545 165.679 149.827C166.365 150.19 166.688 150.896 166.769 152.046C166.829 153.196 166.527 154.164 165.881 154.849C165.377 155.394 164.61 155.757 163.743 155.939C162.876 156.12 162.19 156.08 161.646 155.777C160.94 155.394 160.516 154.587 160.456 153.438ZM161.323 157.29C164.913 156.483 166.708 156.1 170.318 155.394C170.096 157.209 170.117 158.097 170.157 159.851C166.547 160.537 164.732 160.92 161.162 161.747C161.121 159.992 161.101 159.105 161.323 157.29ZM162.19 153.054C162.231 153.659 162.432 154.083 162.735 154.305C162.977 154.486 163.32 154.507 163.703 154.426C164.086 154.345 164.409 154.164 164.631 153.901C164.913 153.538 165.054 153.034 165.014 152.429C164.974 151.824 164.812 151.441 164.53 151.259C164.288 151.118 163.965 151.078 163.582 151.158C163.199 151.239 162.876 151.441 162.634 151.683C162.352 152.006 162.15 152.449 162.19 153.054ZM162.916 158.339C162.836 159.004 162.896 159.327 162.896 159.952C165.054 159.468 166.143 159.246 168.342 158.803C168.322 158.157 168.261 157.855 168.362 157.169C166.164 157.633 165.074 157.875 162.916 158.339ZM168.604 155.233C168.927 152.711 168.483 151.239 168.443 148.637C169.149 148.476 169.512 148.395 170.217 148.234C170.258 150.876 170.681 152.348 170.379 154.87C169.673 155.031 169.31 155.091 168.604 155.233Z" fill="#181919"/>
<path d="M179.979 146.661C179.999 147.326 179.999 147.649 180.02 148.315C179.072 148.456 178.588 148.516 177.64 148.658C177.66 149.787 177.68 150.332 177.72 151.38C177.862 154.708 178.688 155.475 180.06 155.878C180.06 156.483 180.08 156.786 180.08 157.391C178.648 157.189 177.256 156.483 176.692 155.535C175.945 156.705 174.715 157.814 173.263 158.44C173.243 157.835 173.243 157.552 173.223 156.947C174.574 156.14 176.066 154.991 175.925 151.663C175.885 150.594 175.865 150.049 175.824 148.94C174.877 149.101 174.413 149.182 173.465 149.343C173.445 148.718 173.445 148.395 173.424 147.77C176.067 147.286 177.377 147.044 179.979 146.661ZM183.186 157.774C182.48 157.855 182.117 157.895 181.411 157.976C181.351 153.538 181.512 151.36 181.391 146.237C182.097 146.136 182.46 146.096 183.166 146.015C183.287 151.159 183.146 153.317 183.186 157.774Z" fill="#181919"/>
<path d="M190.205 151.965C190.205 152.651 190.185 152.994 190.185 153.68C189.499 153.72 189.136 153.74 188.45 153.801C188.47 153.115 188.47 152.772 188.491 152.086C187.563 152.167 187.099 152.207 186.171 152.288C186.191 151.723 186.171 151.441 186.171 150.876C188.551 150.654 189.721 150.574 192.06 150.473C192.686 150.453 193.19 150.412 193.714 150.271C193.714 150.795 193.714 151.058 193.714 151.602C193.19 151.784 192.625 151.844 191.96 151.864C191.254 151.905 190.911 151.925 190.205 151.965ZM186.514 148.113C186.494 147.387 186.756 146.782 187.2 146.358C187.805 145.773 188.753 145.491 189.761 145.451C190.77 145.41 191.718 145.652 192.323 146.177C192.766 146.54 193.029 147.084 193.049 147.77C193.049 148.476 192.787 148.98 192.363 149.343C191.758 149.868 190.83 150.11 189.842 150.17C188.854 150.231 187.906 150.089 187.28 149.646C186.817 149.343 186.534 148.859 186.514 148.113ZM187.18 157.512C187.18 156.181 187.139 155.535 187.18 154.204C187.886 154.143 188.228 154.123 188.934 154.063C188.914 154.809 188.934 155.172 188.934 155.918C191.859 155.717 193.291 155.656 196.135 155.656C196.135 156.241 196.135 156.544 196.135 157.128C192.605 157.128 190.81 157.209 187.18 157.512ZM188.188 147.992C188.188 148.254 188.289 148.456 188.47 148.597C188.733 148.819 189.217 148.879 189.802 148.859C190.386 148.819 190.85 148.698 191.133 148.456C191.314 148.294 191.395 148.093 191.395 147.831C191.395 147.568 191.294 147.367 191.133 147.225C190.85 147.004 190.386 146.903 189.802 146.943C189.217 146.963 188.733 147.104 188.47 147.367C188.269 147.508 188.168 147.73 188.188 147.992ZM194.198 154.264C194.198 153.982 194.198 153.821 194.198 153.538C193.25 153.559 192.766 153.579 191.798 153.619C191.798 153.095 191.798 152.832 191.798 152.288C192.766 152.248 193.23 152.227 194.198 152.207C194.198 149.585 194.198 148.274 194.178 145.531C194.864 145.551 195.207 145.572 195.893 145.632C195.893 149.081 195.893 150.816 195.893 154.244C195.227 154.244 194.884 154.264 194.198 154.264Z" fill="#181919"/>
</svg>
