<svg width="212" height="185" viewBox="0 0 212 185" fill="none" xmlns="http://www.w3.org/2000/svg">
<path d="M107.291 183.53C157.695 183.53 198.556 142.669 198.556 92.2649C198.556 41.8607 157.695 1 107.291 1C56.8866 1 16.0259 41.8607 16.0259 92.2649C16.0259 142.669 56.8866 183.53 107.291 183.53Z" fill="#FF88B6" stroke="black" stroke-miterlimit="10"/>
<path d="M162.413 76.0288C128.811 58.4414 98.0134 58.3607 66.6909 63.645C37.2239 68.2637 27.2806 100.897 59.6317 107.734C61.5074 108.138 63.4436 108.299 65.3799 108.279C95.1494 107.855 99.9294 111.405 121.147 129.315C124.495 132.139 128.509 134.216 132.845 134.882C146.701 136.98 152.066 134.055 159.852 122.256C161.082 120.401 167.193 110.377 170.521 107.452C182.36 97.0651 173.486 81.8374 162.413 76.0288Z" fill="#55B381"/>
<mask id="mask0_665_2610" style="mask-type:luminance" maskUnits="userSpaceOnUse" x="39" y="60" width="138" height="76">
<path d="M162.413 76.0288C128.811 58.4414 98.0134 58.3607 66.6909 63.645C37.2239 68.2637 27.2806 100.897 59.6317 107.734C61.5074 108.138 63.4436 108.299 65.3799 108.279C95.1494 107.855 99.9294 111.405 121.147 129.315C124.495 132.139 128.509 134.216 132.845 134.882C146.701 136.98 152.066 134.055 159.852 122.256C161.082 120.401 167.193 110.377 170.521 107.452C182.36 97.0651 173.486 81.8374 162.413 76.0288Z" fill="white"/>
</mask>
<g mask="url(#mask0_665_2610)">
<path d="M6.02271 29.1357L64.049 127.52" stroke="black" stroke-miterlimit="10"/>
<path d="M12.7797 30.2047L70.8262 128.589" stroke="black" stroke-miterlimit="10"/>
<path d="M19.536 31.2737L77.5825 129.678" stroke="black" stroke-miterlimit="10"/>
<path d="M26.2927 32.3425L84.3392 130.747" stroke="black" stroke-miterlimit="10"/>
<path d="M33.0491 33.4115L91.0956 131.816" stroke="black" stroke-miterlimit="10"/>
<path d="M39.8059 34.4806L97.8524 132.885" stroke="black" stroke-miterlimit="10"/>
<path d="M46.5627 35.5695L104.609 133.954" stroke="black" stroke-miterlimit="10"/>
<path d="M53.3392 36.6385L111.366 135.023" stroke="black" stroke-miterlimit="10"/>
<path d="M60.0961 37.7076L118.143 136.112" stroke="black" stroke-miterlimit="10"/>
<path d="M66.8524 38.7766L124.899 137.181" stroke="black" stroke-miterlimit="10"/>
<path d="M73.6093 39.8456L131.656 138.25" stroke="black" stroke-miterlimit="10"/>
<path d="M80.3661 40.9144L138.413 139.319" stroke="black" stroke-miterlimit="10"/>
<path d="M87.1224 42.0036L145.169 140.388" stroke="black" stroke-miterlimit="10"/>
<path d="M93.8793 43.0726L151.926 141.477" stroke="black" stroke-miterlimit="10"/>
<path d="M100.636 44.1414L158.682 142.546" stroke="black" stroke-miterlimit="10"/>
<path d="M107.413 45.2104L165.459 143.615" stroke="black" stroke-miterlimit="10"/>
<path d="M114.169 46.2794L172.216 144.684" stroke="black" stroke-miterlimit="10"/>
<path d="M120.926 47.3484L178.972 145.753" stroke="black" stroke-miterlimit="10"/>
<path d="M127.683 48.4374L185.729 146.822" stroke="black" stroke-miterlimit="10"/>
<path d="M134.439 49.5064L192.485 147.911" stroke="black" stroke-miterlimit="10"/>
<path d="M141.196 50.5754L199.242 148.98" stroke="black" stroke-miterlimit="10"/>
<path d="M147.953 51.6444L205.999 150.049" stroke="black" stroke-miterlimit="10"/>
</g>
<path d="M162.413 76.0288C128.811 58.4414 98.0134 58.3607 66.6909 63.645C37.2239 68.2637 27.2806 100.897 59.6317 107.734C61.5074 108.138 63.4436 108.299 65.3799 108.279C95.1494 107.856 99.9294 111.405 121.147 129.315C124.495 132.139 128.509 134.216 132.845 134.882C146.701 136.98 152.066 134.055 159.852 122.256C161.082 120.401 167.193 110.377 170.521 107.452C182.36 97.0651 173.486 81.8374 162.413 76.0288Z" stroke="black" stroke-miterlimit="10"/>
<path d="M211 137.645V170.803C174.817 160.396 142.587 184.094 106 184.094C68.1225 183.792 37.2034 160.396 1 170.803V137.645C37.2438 127.298 68.7276 152.59 106 152.59C140.973 152.873 174.756 127.298 211 137.645Z" fill="white" stroke="#181919" stroke-miterlimit="10"/>
<path d="M18.3861 154.224C17.7205 154.184 17.3776 154.164 16.7121 154.143C16.4902 155.192 16.3893 155.717 16.1675 156.765C15.5422 156.745 15.2397 156.745 14.6145 156.745C14.8363 155.676 14.9372 155.152 15.159 154.103C14.6346 154.103 14.3523 154.083 13.8279 154.083C13.8279 153.518 13.8279 153.236 13.8279 152.671C14.4733 152.671 14.796 152.671 15.4616 152.691C15.6431 151.844 15.7238 151.4 15.9053 150.553C15.28 150.533 14.9573 150.533 14.3321 150.533C14.3321 149.968 14.3321 149.686 14.3321 149.121C15.0784 149.121 15.4616 149.142 16.2078 149.162C16.4297 148.093 16.5507 147.568 16.7726 146.499C17.3978 146.52 17.7003 146.54 18.3256 146.58C18.1037 147.629 17.9827 148.173 17.7608 149.222C18.4264 149.263 18.7693 149.283 19.4147 149.323C19.6366 148.274 19.7576 147.75 19.9794 146.681C20.5845 146.721 20.9072 146.762 21.5123 146.802C21.2702 147.851 21.1492 148.395 20.9274 149.444C21.4518 149.484 21.714 149.525 22.2182 149.565C22.2182 150.13 22.2182 150.412 22.2182 150.957C21.593 150.896 21.2702 150.856 20.645 150.795C20.4635 151.643 20.3828 152.066 20.2215 152.913C20.8467 152.974 21.1694 152.994 21.7947 153.054C21.7947 153.619 21.7946 153.901 21.8148 154.466C21.0686 154.385 20.7055 154.365 19.9593 154.305C19.7576 155.354 19.6567 155.858 19.4349 156.886C18.8298 156.846 18.5071 156.826 17.902 156.806C18.0634 155.797 18.1844 155.273 18.3861 154.224ZM16.9944 152.752C17.6802 152.772 18.0029 152.792 18.6684 152.832C18.8298 151.985 18.9306 151.562 19.092 150.715C18.4264 150.674 18.0835 150.654 17.418 150.614C17.2566 151.461 17.1558 151.885 16.9944 152.752Z" fill="#181919"/>
<path d="M29.0353 158.016C27.1394 157.713 26.1713 157.592 24.2552 157.37C24.1947 153.115 24.1141 150.876 24.2754 146.419C24.941 146.499 25.2637 146.54 25.9091 146.641C25.7276 150.473 25.7881 152.49 25.8486 156.1C27.2403 156.281 27.926 156.402 29.3177 156.624C30.2051 156.765 30.8304 156.745 31.1531 156.503C31.032 153.135 30.9715 151.098 31.2741 147.346C31.9195 147.467 32.2624 147.528 32.9078 147.649C32.7464 149.605 32.6254 150.573 32.6254 152.469C33.2708 152.59 33.5935 152.671 34.2389 152.792C34.2389 153.397 34.2187 153.7 34.2591 154.325C33.6137 154.184 33.291 154.123 32.6456 154.002C32.7464 156.261 32.7867 157.33 32.8674 159.387C32.222 159.266 31.8993 159.206 31.2337 159.105C31.2136 158.601 31.2136 158.339 31.1934 157.834C30.8707 158.137 30.0841 158.177 29.0353 158.016Z" fill="#181919"/>
<path d="M36.0543 148.456C38.2124 148.92 39.3015 149.162 41.4596 149.646C41.1167 152.389 40.9756 153.72 41.1369 156.322C38.9788 155.817 37.9099 155.575 35.7719 155.112C35.6509 152.49 35.772 151.179 36.0543 148.456ZM38.1721 159.125C40.8142 159.71 42.1454 160.013 44.8077 160.638C44.848 161.182 44.848 161.445 44.8884 161.989C41.5806 161.203 39.9268 160.819 36.619 160.154C36.5384 158.641 36.5182 157.935 36.4174 156.261C37.0628 156.402 37.3855 156.483 38.0309 156.624C38.0914 157.673 38.1116 158.177 38.1721 159.125ZM37.4661 150.372C37.3048 151.844 37.3048 152.55 37.3048 153.962C38.1922 154.164 38.636 154.264 39.5234 154.466C39.5234 153.054 39.5234 152.369 39.6847 150.876C38.7973 150.674 38.3536 150.573 37.4661 150.372ZM44.3438 153.518C44.9489 153.659 45.2514 153.74 45.8565 153.881C45.8565 154.486 45.8565 154.809 45.8565 155.414C45.2514 155.273 44.9489 155.192 44.3438 155.051C44.3438 156.523 44.4043 157.249 44.5051 158.722C43.8597 158.56 43.537 158.5 42.8916 158.339C42.6698 155.031 42.6899 153.377 43.1336 149.888C43.7791 150.049 44.1018 150.11 44.7472 150.271C44.5657 151.562 44.3438 152.268 44.3438 153.518Z" fill="#181919"/>
<path d="M55.2148 164.531C55.1946 164.067 55.1946 163.825 55.1946 163.361C54.8316 163.643 54.0248 163.623 52.9962 163.381C50.8784 162.857 49.8095 162.594 47.7119 162.09C47.6917 161.546 47.6716 161.263 47.6312 160.719C49.87 161.243 50.9793 161.505 53.2584 162.03C54.1458 162.231 54.8114 162.231 55.1543 161.989C55.0736 158.5 55.0333 156.483 55.2349 152.712C55.9005 152.853 56.2232 152.933 56.8686 153.075C56.7274 157.895 56.8081 160.315 56.8485 164.954C56.2031 164.773 55.8804 164.692 55.2148 164.531ZM47.7724 155.011C47.7724 153.68 48.2968 152.631 49.0834 152.127C49.6279 151.764 50.3742 151.663 51.1205 151.844C51.8869 152.026 52.5726 152.449 53.0164 153.034C53.6819 153.881 53.924 155.031 53.924 156.382C53.924 157.734 53.5609 158.682 52.855 159.206C52.3709 159.549 51.6449 159.63 50.8784 159.468C50.112 159.287 49.3658 158.883 48.8414 158.319C48.1153 157.471 47.7724 156.362 47.7724 155.011ZM49.4061 155.394C49.4061 156.201 49.5473 156.927 49.9103 157.371C50.1322 157.653 50.4549 157.834 50.8179 157.915C51.181 157.996 51.5037 157.955 51.7255 157.774C52.0886 157.471 52.2298 156.826 52.2298 156.019C52.2298 155.213 52.1491 154.486 51.8062 154.002C51.6045 153.72 51.302 153.518 50.9389 153.438C50.5759 153.357 50.233 153.397 49.991 153.599C49.628 153.902 49.4061 154.587 49.4061 155.394Z" fill="#181919"/>
<path d="M67.8405 164.026C67.1548 163.845 66.8321 163.764 66.1463 163.582C65.9245 164.611 65.8034 165.196 65.5614 166.305C64.9362 166.144 64.6336 166.063 64.0084 165.902C64.2504 164.813 64.3714 164.228 64.5933 163.199C64.0689 163.078 63.7865 162.998 63.2621 162.877C63.2621 162.312 63.2621 162.009 63.2621 161.445C63.9076 161.586 64.2303 161.666 64.8757 161.828C65.0572 161.001 65.1379 160.577 65.3194 159.771C64.6941 159.609 64.3714 159.549 63.7462 159.387C63.7462 158.823 63.7462 158.54 63.7462 157.975C64.4925 158.137 64.8555 158.238 65.6219 158.419C65.8438 157.391 65.9446 156.947 66.1665 155.999C66.7917 156.16 67.1144 156.241 67.7397 156.402C67.538 157.35 67.4371 157.794 67.2153 158.802C67.901 158.984 68.2237 159.065 68.9095 159.246C69.1313 158.218 69.2322 157.794 69.4339 156.846C70.0591 157.007 70.3616 157.108 71.007 157.27C70.8054 158.218 70.7045 158.641 70.4826 159.65C71.0272 159.791 71.2894 159.871 71.834 160.013C71.834 160.577 71.834 160.86 71.834 161.424C71.1684 161.243 70.8457 161.162 70.2003 160.981C70.0188 161.808 69.9381 162.211 69.7566 163.038C70.402 163.219 70.7247 163.3 71.3701 163.482C71.3701 164.067 71.3701 164.349 71.3701 164.934C70.6037 164.732 70.2205 164.631 69.4742 164.43C69.2523 165.458 69.1112 166.063 68.8691 167.193C68.2439 167.011 67.9414 166.931 67.3161 166.769C67.4775 165.66 67.6187 165.035 67.8405 164.026ZM66.4287 162.211C67.1144 162.372 67.4573 162.473 68.143 162.655C68.3246 161.828 68.4052 161.404 68.5868 160.597C67.901 160.416 67.5581 160.335 66.8724 160.154C66.6909 160.981 66.6102 161.384 66.4287 162.211Z" fill="#181919"/>
<path d="M76.9165 169.472C75.666 169.129 75.0206 168.968 73.7701 168.605C73.8912 163.623 73.871 161.525 73.8105 157.411C74.4962 157.592 74.8189 157.693 75.5047 157.875C75.545 161.425 75.6257 163.038 75.5047 167.314C76.1299 167.475 76.4324 167.576 77.0577 167.737C77.6023 167.879 78.1468 168 78.5905 168C78.5704 168.645 78.5704 168.988 78.5502 169.633C78.1065 169.734 77.5014 169.633 76.9165 169.472ZM79.0746 170.783C79.1351 168 79.1553 166.689 79.1553 164.188C78.3283 163.966 77.9048 163.845 77.0779 163.623C77.0779 162.998 77.0779 162.695 77.0779 162.07C77.9048 162.292 78.3283 162.413 79.1553 162.635C79.1553 161.021 79.1351 160.315 79.1149 158.803C79.7805 158.984 80.1032 159.065 80.7688 159.246C80.8293 163.683 80.8293 165.983 80.7083 171.207C80.083 171.045 79.7402 170.965 79.0746 170.783ZM81.5554 171.57C81.6764 166.265 81.6562 163.905 81.6159 159.387C82.2815 159.569 82.6244 159.65 83.2899 159.811C83.3303 164.349 83.3504 166.709 83.2496 171.973C82.5437 171.832 82.221 171.751 81.5554 171.57Z" fill="#181919"/>
<path d="M85.9927 170.359C90.087 171.327 92.1241 171.751 96.2184 172.296C96.2184 172.941 96.2184 173.243 96.2184 173.889C92.1241 173.364 90.0668 172.961 85.9725 172.033C85.9725 171.368 85.9725 171.045 85.9927 170.359ZM88.292 162.695C88.292 163.3 88.292 163.603 88.292 164.248C91.1761 164.914 92.6081 165.196 95.4923 165.64C95.4923 166.245 95.4923 166.568 95.4923 167.173C92.6081 166.729 91.1761 166.447 88.292 165.781C88.292 166.447 88.292 166.769 88.292 167.435C91.277 168.1 92.7695 168.403 95.7545 168.847C95.7545 169.472 95.7545 169.774 95.7545 170.379C92.0838 169.835 90.2484 169.452 86.5574 168.584C86.5574 165.398 86.5776 163.825 86.5373 160.819C90.1677 161.666 91.9829 162.03 95.6133 162.554C95.6133 163.159 95.6133 163.462 95.6133 164.087C92.709 163.643 91.2367 163.361 88.292 162.695Z" fill="#181919"/>
<path d="M102.713 171.388C102.713 172.82 102.713 173.546 102.713 174.978C102.027 174.958 101.684 174.938 100.998 174.897C100.998 173.465 100.998 172.739 100.998 171.307C100.01 171.247 99.5261 171.186 98.5378 171.086C98.5378 170.46 98.5378 170.138 98.5378 169.512C100.817 169.754 101.946 169.835 104.205 169.875C104.831 169.875 105.335 169.875 105.859 169.754C105.859 170.339 105.859 170.642 105.859 171.227C105.335 171.408 104.77 171.449 104.125 171.449C103.56 171.428 103.278 171.428 102.713 171.388ZM98.9815 165.882C98.9815 164.793 99.3647 164.006 100.01 163.542C100.535 163.179 101.281 162.998 102.128 163.058C102.995 163.099 103.721 163.341 104.266 163.764C104.931 164.289 105.294 165.115 105.294 166.225C105.294 167.314 104.911 168.141 104.266 168.645C103.741 169.048 103.015 169.25 102.128 169.21C101.261 169.169 100.535 168.887 100.01 168.423C99.3647 167.838 98.9815 166.971 98.9815 165.882ZM100.696 166.043C100.696 166.527 100.837 166.971 101.099 167.233C101.321 167.475 101.684 167.616 102.148 167.657C102.612 167.677 102.975 167.556 103.217 167.354C103.479 167.112 103.62 166.689 103.62 166.205C103.62 165.7 103.479 165.277 103.217 165.015C102.995 164.793 102.632 164.631 102.148 164.611C101.684 164.591 101.341 164.712 101.099 164.914C100.837 165.136 100.696 165.539 100.696 166.043ZM108.199 174.938C107.513 174.978 107.17 174.978 106.484 174.998C106.484 174.494 106.484 174.232 106.484 173.728C105.536 173.748 105.052 173.748 104.104 173.728C104.104 173.102 104.104 172.8 104.104 172.175C105.052 172.195 105.536 172.195 106.484 172.175C106.484 168.524 106.484 166.689 106.484 163.038C107.17 163.018 107.513 163.018 108.199 162.978C108.199 167.778 108.199 170.158 108.199 174.938Z" fill="#181919"/>
<path d="M110.962 172.679C115.056 172.336 117.113 172.013 121.208 171.206C121.208 171.832 121.208 172.154 121.208 172.78C117.093 173.566 115.036 173.869 110.942 174.212C110.962 173.627 110.962 173.304 110.962 172.679ZM118.848 167.657C117.88 168.04 116.77 168.282 115.419 168.463C113.866 168.685 113.079 168.786 111.526 168.927C111.526 168.302 111.526 168 111.526 167.394C113.1 167.253 113.886 167.152 115.459 166.931C116.73 166.749 117.94 166.527 118.908 166.205C118.908 165.156 118.908 164.631 118.908 163.522C115.964 164.046 114.471 164.248 111.547 164.53C111.547 163.905 111.547 163.583 111.547 162.957C115.177 162.594 116.992 162.292 120.623 161.586C120.643 163.381 120.663 164.288 120.643 165.942C120.623 167.354 120.502 169.068 120.3 170.218C119.614 170.339 119.271 170.4 118.586 170.521C118.707 169.714 118.787 168.625 118.848 167.657Z" fill="#181919"/>
<path d="M123.426 166.204C127.581 165.297 129.659 164.752 133.773 163.643C133.773 164.147 133.773 164.43 133.773 164.994C129.659 166.104 127.581 166.648 123.426 167.556C123.406 167.011 123.406 166.749 123.426 166.204ZM125.887 163.966C128.791 163.3 130.244 162.937 133.148 162.171C133.148 162.655 133.128 162.897 133.128 163.401C129.558 164.349 127.743 164.813 124.153 165.62C124.173 164.45 124.173 163.885 124.153 162.594C127.037 161.969 128.469 161.606 131.353 160.86C131.353 160.678 131.353 160.597 131.353 160.416C128.489 161.162 127.037 161.525 124.173 162.15C124.173 161.586 124.153 161.324 124.153 160.759C127.722 159.952 129.497 159.488 133.047 158.52C133.067 159.831 133.128 160.658 133.108 161.787C130.244 162.554 128.812 162.917 125.927 163.562C125.887 163.724 125.887 163.804 125.887 163.966ZM125.887 171.166C128.872 170.48 130.365 170.097 133.329 169.31C133.329 169.855 133.329 170.117 133.35 170.642C129.699 171.61 127.864 172.074 124.173 172.86C124.173 171.61 124.153 170.984 124.153 169.754C127.037 169.129 128.469 168.766 131.353 168.02C131.353 167.818 131.353 167.717 131.353 167.515C128.489 168.262 127.037 168.625 124.173 169.25C124.173 168.726 124.173 168.463 124.173 167.959C127.743 167.173 129.518 166.709 133.067 165.761C133.087 167.011 133.087 167.636 133.087 168.887C130.223 169.653 128.791 170.016 125.907 170.662C125.887 170.863 125.887 170.964 125.887 171.166Z" fill="#181919"/>
<path d="M144.201 163.905C143.535 164.087 143.192 164.188 142.507 164.369C142.305 165.519 142.204 166.104 141.982 167.274C141.357 167.455 141.054 167.536 140.429 167.717C140.631 166.547 140.732 165.963 140.953 164.813C140.429 164.954 140.147 165.035 139.622 165.176C139.622 164.591 139.622 164.289 139.602 163.704C140.248 163.522 140.57 163.441 141.216 163.26C141.377 162.312 141.478 161.888 141.659 161.021C141.034 161.203 140.711 161.283 140.086 161.465C140.086 160.94 140.106 160.678 140.106 160.154C140.853 159.952 141.236 159.831 141.982 159.629C142.224 158.561 142.305 157.875 142.507 156.665C143.132 156.483 143.454 156.402 144.08 156.241C143.878 157.451 143.797 158.117 143.555 159.186C144.221 159.004 144.564 158.903 145.229 158.722C145.471 157.653 145.552 156.987 145.754 155.797C146.379 155.636 146.681 155.555 147.287 155.394C147.085 156.564 146.984 157.209 146.762 158.298C147.287 158.157 147.549 158.076 148.073 157.935C148.073 158.48 148.073 158.742 148.053 159.287C147.408 159.448 147.085 159.549 146.439 159.71C146.258 160.577 146.157 161.021 145.996 161.949C146.641 161.788 146.944 161.687 147.589 161.525C147.589 162.11 147.589 162.393 147.589 162.978C146.843 163.179 146.46 163.28 145.713 163.482C145.512 164.631 145.411 165.196 145.189 166.366C144.564 166.547 144.261 166.628 143.636 166.81C143.878 165.64 143.979 165.055 144.201 163.905ZM142.789 162.836C143.475 162.655 143.817 162.554 144.483 162.372C144.644 161.445 144.745 161.001 144.927 160.134C144.241 160.315 143.918 160.416 143.233 160.598C143.051 161.445 142.95 161.888 142.789 162.836Z" fill="#181919"/>
<path d="M149.949 154.002C152.167 153.458 153.337 153.216 155.677 152.651C155.677 155.192 155.898 156.604 155.737 159.226C153.377 159.791 152.167 160.073 149.949 160.618C149.949 157.956 149.969 156.685 149.949 154.002ZM152.228 163.744C155.011 163.018 156.423 162.655 159.307 161.949C159.327 162.534 159.327 162.836 159.327 163.442C155.737 164.329 153.922 164.813 150.554 165.741C150.554 164.047 150.554 163.199 150.554 161.485C151.219 161.324 151.542 161.243 152.248 161.062C152.228 162.151 152.228 162.675 152.228 163.744ZM151.582 155.132C151.582 156.544 151.582 157.27 151.582 158.682C152.55 158.44 153.034 158.319 154.023 158.077C154.003 156.624 153.982 155.898 153.982 154.527C153.014 154.769 152.53 154.89 151.582 155.132ZM159.226 154.628C159.892 154.466 160.215 154.386 160.86 154.224C160.9 154.87 160.921 155.192 160.941 155.858C160.275 156.019 159.952 156.1 159.287 156.241C159.368 157.794 159.267 158.52 159.126 159.993C158.42 160.154 158.077 160.235 157.371 160.416C157.653 157.088 157.431 155.273 157.431 152.086C158.137 151.905 158.48 151.824 159.186 151.663C159.226 152.833 159.166 153.317 159.226 154.628Z" fill="#181919"/>
<path d="M162.534 155.313C166.83 154.325 169.008 153.841 173.325 153.034C173.365 153.66 173.385 153.982 173.405 154.607C169.089 155.434 166.931 155.918 162.615 156.887C162.574 156.241 162.554 155.939 162.534 155.313ZM164.954 151.784C164.954 152.106 164.954 152.268 164.954 152.611C167.98 151.925 169.492 151.602 172.518 150.997C172.538 151.602 172.538 151.925 172.578 152.53C168.827 153.256 166.951 153.66 163.22 154.507C163.119 152.913 163.159 152.248 163.139 150.796C166.81 149.888 168.666 149.424 172.377 148.617C172.397 149.222 172.397 149.525 172.397 150.13C169.452 150.755 167.939 151.078 164.954 151.784ZM164.813 160.84C167.899 160.154 169.472 159.811 172.598 159.226C172.619 159.771 172.619 160.053 172.639 160.598C168.787 161.324 166.87 161.747 163.079 162.615C163.038 161.304 162.897 160.698 163.059 159.327C166.023 158.641 167.536 158.319 170.541 157.713C170.561 157.492 170.582 157.391 170.622 157.169C167.617 157.774 166.124 158.097 163.139 158.782C163.22 158.218 163.24 157.935 163.321 157.35C167.032 156.524 168.887 156.1 172.598 155.374C172.437 156.725 172.296 157.431 172.316 158.742C169.291 159.327 167.798 159.65 164.813 160.315C164.813 160.517 164.813 160.638 164.813 160.84Z" fill="#181919"/>
<path d="M182.179 153.236C182.017 155.092 181.735 156.524 181.069 157.471C180.585 158.177 179.779 158.641 178.831 158.782C177.903 158.924 177.076 158.722 176.552 158.198C175.805 157.411 176.047 155.979 175.947 153.76C175.826 151.562 175.947 149.848 176.652 148.698C177.157 147.911 177.943 147.347 178.871 147.185C179.819 147.024 180.626 147.286 181.13 147.911C181.755 148.678 181.997 150.009 182.118 151.622C182.804 151.522 183.167 151.481 183.853 151.38C183.792 149.485 183.772 148.436 183.732 146.358C184.438 146.257 184.801 146.217 185.507 146.116C185.628 151.522 185.486 153.781 185.527 158.46C184.821 158.54 184.458 158.581 183.732 158.682C183.712 156.423 183.732 155.273 183.893 152.974C183.207 153.075 182.865 153.135 182.179 153.236ZM177.701 153.458C177.782 155.313 177.5 156.524 177.903 157.028C178.105 157.27 178.427 157.371 178.79 157.31C179.153 157.25 179.476 157.048 179.678 156.745C180.061 156.12 180.464 154.87 180.384 153.014C180.303 151.179 180.182 149.807 179.779 149.222C179.577 148.94 179.254 148.819 178.871 148.879C178.488 148.94 178.185 149.162 178.004 149.505C177.661 150.211 177.621 151.622 177.701 153.458Z" fill="#181919"/>
<path d="M193.231 148.194C193.211 147.226 193.211 146.721 193.191 145.753C193.897 145.733 194.24 145.733 194.946 145.713C194.986 148.879 195.006 150.332 194.986 153.256C194.159 153.296 193.756 153.317 192.929 153.377C192.908 154.285 192.908 154.728 192.908 155.636C193.473 155.596 193.756 155.575 194.32 155.555C195.268 155.515 195.954 155.333 196.317 154.97C196.317 151.279 196.337 149.464 196.297 145.511C197.003 145.531 197.346 145.531 198.031 145.572C198.052 147.548 198.052 148.536 198.052 150.432C198.737 150.412 199.08 150.412 199.766 150.412C199.766 151.037 199.766 151.34 199.766 151.945C199.08 151.945 198.737 151.945 198.052 151.965C198.052 154.224 198.052 155.374 198.052 157.633C197.366 157.653 197.023 157.653 196.317 157.673C196.317 157.189 196.317 156.927 196.317 156.443C195.934 156.846 195.087 157.068 193.977 157.129C191.839 157.25 190.75 157.33 188.572 157.532C188.572 156.927 188.572 156.624 188.552 155.999C189.601 155.898 190.105 155.858 191.134 155.777C191.134 154.89 191.154 154.426 191.174 153.518C190.327 153.579 189.883 153.619 189.036 153.72C189.137 150.816 189.036 149.323 188.976 146.036C189.681 145.975 190.044 145.955 190.75 145.894C190.771 146.883 190.771 147.387 190.791 148.375C191.779 148.274 192.263 148.254 193.231 148.194ZM193.251 149.827C192.283 149.888 191.779 149.928 190.811 150.009C190.831 150.816 190.831 151.219 190.831 152.006C191.799 151.925 192.303 151.885 193.271 151.824C193.271 151.017 193.271 150.614 193.251 149.827Z" fill="#181919"/>
<path d="M59.3292 130.102C61.2452 130.122 63.1209 130.586 65.0168 130.727C66.9127 130.889 68.9699 130.687 70.4826 129.537C72.0155 128.388 72.7617 126.068 71.6928 124.495C70.8457 123.224 69.212 122.821 67.7598 122.296C63.0201 120.622 59.1678 117.032 54.4684 115.197C53.0163 114.632 51.4229 114.229 49.8699 114.511C48.8211 114.713 47.8328 115.217 47.0664 115.943C45.0495 117.879 44.8478 121.228 46.1184 123.728C47.3891 126.209 49.89 127.903 52.5524 128.811C55.2147 129.739 58.0383 130.082 59.3292 130.102Z" fill="#55B381"/>
<mask id="mask1_665_2610" style="mask-type:luminance" maskUnits="userSpaceOnUse" x="45" y="114" width="28" height="17">
<path d="M59.3292 130.102C61.2452 130.122 63.1209 130.586 65.0168 130.727C66.9127 130.889 68.9699 130.687 70.4826 129.537C72.0155 128.388 72.7617 126.068 71.6928 124.495C70.8457 123.224 69.212 122.821 67.7598 122.296C63.0201 120.622 59.1678 117.032 54.4684 115.197C53.0163 114.632 51.4229 114.229 49.8699 114.511C48.8211 114.713 47.8328 115.217 47.0664 115.943C45.0495 117.879 44.8478 121.228 46.1184 123.728C47.3891 126.209 49.89 127.903 52.5524 128.811C55.2147 129.739 58.0383 130.082 59.3292 130.102Z" fill="white"/>
</mask>
<g mask="url(#mask1_665_2610)">
<path d="M114.411 196.68L55.7189 98.6785" stroke="black" stroke-miterlimit="10"/>
<path d="M107.654 195.651L48.9424 97.6501" stroke="black" stroke-miterlimit="10"/>
<path d="M100.898 194.623L42.1855 96.6215" stroke="black" stroke-miterlimit="10"/>
<path d="M94.1205 193.594L35.4084 95.5928" stroke="black" stroke-miterlimit="10"/>
<path d="M87.3642 192.566L28.6521 94.5642" stroke="black" stroke-miterlimit="10"/>
<path d="M80.5872 191.557L21.8751 93.5356" stroke="black" stroke-miterlimit="10"/>
<path d="M73.8308 190.528L15.1188 92.5069" stroke="black" stroke-miterlimit="10"/>
<path d="M67.0539 189.5L8.3418 91.4783" stroke="black" stroke-miterlimit="10"/>
<path d="M60.2975 188.471L1.58545 90.4496" stroke="black" stroke-miterlimit="10"/>
<path d="M53.5205 187.443L-5.19153 89.4412" stroke="black" stroke-miterlimit="10"/>
<path d="M46.7637 186.414L-11.9484 88.4125" stroke="black" stroke-miterlimit="10"/>
</g>
<path d="M59.3292 130.102C61.2452 130.122 63.1209 130.586 65.0168 130.727C66.9127 130.889 68.9699 130.687 70.4826 129.537C72.0155 128.388 72.7617 126.068 71.6928 124.495C70.8457 123.224 69.212 122.821 67.7598 122.296C63.0201 120.622 59.1678 117.032 54.4684 115.197C53.0163 114.632 51.4229 114.229 49.8699 114.511C48.8211 114.713 47.8328 115.217 47.0664 115.943C45.0495 117.879 44.8478 121.228 46.1184 123.728C47.3891 126.209 49.89 127.903 52.5524 128.811C55.2147 129.739 58.0383 130.082 59.3292 130.102Z" stroke="black" stroke-miterlimit="10"/>
<path opacity="0.9882" d="M114.33 63.6045C111.93 63.6045 109.853 64.8751 108.703 66.7912V56.2629C108.703 54.5889 107.331 53.2174 105.657 53.2174H77.3199C75.6459 53.2174 74.2744 54.5889 74.2744 56.2629V85.2458C74.2744 86.9199 75.6459 88.2914 77.3199 88.2914H88.6549C86.4162 87.2224 84.8632 84.9635 84.8632 82.3415C84.8632 78.6909 87.828 75.7261 91.4786 75.7261C95.1292 75.7261 98.094 78.6909 98.094 82.3415C98.094 84.9836 96.541 87.2426 94.3023 88.2914H105.637C107.311 88.2914 108.683 86.9199 108.683 85.2458V73.6487C109.853 75.5445 111.93 76.8353 114.31 76.8353C117.961 76.8353 120.925 73.8705 120.925 70.2199C120.966 66.5693 118.001 63.6045 114.33 63.6045Z" fill="#EBEBEB" stroke="#100917" stroke-miterlimit="10" stroke-linecap="round" stroke-linejoin="round"/>
<path opacity="0.9882" d="M161.001 68.909C159.166 68.1426 157.149 68.5661 155.778 69.7964L159.166 61.6885C159.65 60.5389 159.106 59.2077 157.956 58.7236L138.251 50.4947C137.101 50.0106 135.77 50.5552 135.286 51.7048L126.875 71.8537C126.391 73.0033 126.936 74.3345 128.086 74.8185L135.972 78.1061C134.741 76.7144 134.318 74.6975 135.084 72.8823C136.153 70.341 139.058 69.151 141.599 70.1998C144.14 71.2688 145.33 74.1731 144.281 76.7144C143.515 78.5498 141.78 79.6591 139.925 79.76L147.811 83.0475C148.961 83.5316 150.292 82.987 150.776 81.8374L154.164 73.7294C154.265 75.585 155.374 77.3195 157.21 78.0859C159.751 79.1549 162.655 77.9447 163.724 75.4034C164.733 72.8823 163.543 69.9578 161.001 68.909Z" fill="#5A66FF" stroke="#100917" stroke-miterlimit="10" stroke-linecap="round" stroke-linejoin="round"/>
<path opacity="0.9882" d="M140.166 87.525H128.831C131.07 88.5939 132.623 90.8528 132.623 93.4748C132.623 97.1254 129.658 100.09 126.008 100.09C122.357 100.09 119.392 97.1254 119.392 93.4748C119.392 90.8327 120.945 88.5738 123.184 87.525H111.849C110.175 87.525 108.804 88.8965 108.804 90.5705V102.228C107.735 99.9894 105.476 98.4364 102.854 98.4364C99.2031 98.4364 96.2382 101.401 96.2382 105.052C96.2382 108.702 99.2031 111.667 102.854 111.667C105.496 111.667 107.755 110.114 108.804 107.876V119.533C108.804 121.207 110.175 122.579 111.849 122.579H140.187C141.861 122.579 143.232 121.207 143.232 119.533V90.5705C143.212 88.8965 141.861 87.525 140.166 87.525Z" fill="#B180E0" stroke="#100917" stroke-miterlimit="10" stroke-linecap="round" stroke-linejoin="round"/>
<path opacity="0.9882" d="M103.52 98.2551C106.162 98.2551 108.421 99.8081 109.469 102.047V90.7119C109.469 89.0378 108.098 87.6663 106.424 87.6663H94.7663C97.005 86.5974 98.5581 84.3384 98.5581 81.7165C98.5581 78.0659 95.5932 75.101 91.9426 75.101C88.292 75.101 85.3272 78.0659 85.3272 81.7165C85.3272 84.3586 86.8802 86.6175 89.1189 87.6663H77.4612C75.7872 87.6663 74.4157 89.0378 74.4157 90.7119V119.049C74.4157 120.723 75.7872 122.095 77.4612 122.095H106.444C108.118 122.095 109.49 120.723 109.49 119.049V107.714C108.421 109.953 106.162 111.506 103.54 111.506C99.8892 111.506 96.9243 108.541 96.9243 104.891C96.9042 101.22 99.869 98.2551 103.52 98.2551Z" fill="#5A66FF" stroke="#100917" stroke-miterlimit="10" stroke-linecap="round" stroke-linejoin="round"/>
<path d="M126.694 116.347C122.66 116.327 118.969 114.39 117.113 111.425C119.009 108.44 122.741 106.605 126.754 106.645C130.788 106.666 134.479 108.602 136.334 111.567C134.459 114.511 130.728 116.367 126.694 116.347Z" fill="white" stroke="black" stroke-miterlimit="10" stroke-linecap="round" stroke-linejoin="round"/>
<path d="M129.275 110.881C128.771 110.881 128.307 110.679 127.944 110.316C127.601 109.953 127.4 109.489 127.4 108.985C127.4 108.824 127.339 108.662 127.218 108.541C127.097 108.42 126.936 108.36 126.774 108.36C125.947 108.36 125.141 108.683 124.556 109.267C123.971 109.852 123.628 110.639 123.628 111.466C123.628 112.293 123.951 113.1 124.536 113.684C125.12 114.269 125.907 114.612 126.734 114.612C127.561 114.612 128.368 114.29 128.953 113.705C129.537 113.12 129.88 112.333 129.88 111.506C129.88 111.345 129.82 111.183 129.699 111.062C129.598 110.941 129.437 110.881 129.275 110.881Z" fill="black"/>
<path d="M126.815 103.822L126.754 106.605" stroke="black" stroke-miterlimit="10" stroke-linecap="round" stroke-linejoin="round"/>
<path d="M121.874 104.629L123.265 107.049" stroke="black" stroke-miterlimit="10" stroke-linecap="round" stroke-linejoin="round"/>
<path d="M131.696 104.709L130.264 107.109" stroke="black" stroke-miterlimit="10" stroke-linecap="round" stroke-linejoin="round"/>
<path fill-rule="evenodd" clip-rule="evenodd" d="M91.5797 70.825C90.2889 70.825 88.9981 70.5427 87.3846 69.9174C84.3995 68.7678 82.544 66.8921 81.9793 64.4718C81.8784 64.0079 82.1204 63.5238 82.5642 63.3222C83.8146 62.7574 84.6012 62.3137 85.5088 61.8095C86.0131 61.5271 86.5375 61.2246 87.1829 60.8817C87.7073 60.6598 88.1913 60.559 88.7359 60.559C89.6838 60.559 90.7326 60.8817 91.499 61.3658C92.2453 60.9019 93.3142 60.559 94.2622 60.559C94.8068 60.559 95.2908 60.6598 95.7345 60.8414C96.4606 61.2246 96.985 61.5069 97.4892 61.8095C98.3968 62.3339 99.1633 62.7776 100.434 63.3222C100.878 63.5238 101.12 64.0079 101.019 64.4718C100.494 66.7912 98.5985 68.7073 95.6942 69.8973C94.1613 70.5427 92.8705 70.825 91.5797 70.825Z" fill="#FF88B6"/>
<path d="M94.2418 61.5876C94.6048 61.5876 94.988 61.6481 95.3107 61.7893C97.1058 62.7372 97.973 63.3827 99.9899 64.2701C99.4655 66.5089 97.4688 68.082 95.2704 68.9896C93.8989 69.5544 92.7291 69.8166 91.5593 69.8166C90.3491 69.8166 89.1592 69.5342 87.7271 68.9896C85.4884 68.1224 83.4916 66.6097 82.9471 64.2701C84.964 63.3827 85.8313 62.7574 87.6263 61.7893C87.9692 61.6481 88.3322 61.5876 88.6953 61.5876C89.9458 61.5876 91.1962 62.2734 91.4584 62.7171C91.7408 62.2532 93.0114 61.5876 94.2418 61.5876ZM94.2418 59.5707C93.3745 59.5707 92.3459 59.7926 91.4786 60.2161C90.6113 59.7926 89.5827 59.5707 88.7154 59.5707C88.0498 59.5707 87.4044 59.6917 86.8397 59.9338C86.7994 59.9539 86.7389 59.9741 86.6985 59.9943C86.0329 60.3371 85.5086 60.6397 84.9842 60.9422C84.0967 61.4464 83.3505 61.87 82.1202 62.4146C81.2327 62.7978 80.7487 63.7659 80.9705 64.7138C81.5958 67.4165 83.7337 69.6149 86.9809 70.8654C88.7154 71.5309 90.1273 71.8335 91.5391 71.8335C92.9711 71.8335 94.3829 71.5108 96.0166 70.8452C99.2235 69.5141 101.321 67.3358 101.926 64.7138C102.148 63.7659 101.664 62.7978 100.777 62.4146C99.5664 61.8902 98.7999 61.4464 97.9327 60.9422C97.4285 60.6598 96.8839 60.3371 96.2183 59.9943C96.178 59.9741 96.1175 59.9539 96.0771 59.9338C95.5527 59.6917 94.9275 59.5707 94.2418 59.5707Z" fill="black"/>
<path d="M88.6149 65.7022H94.3631" stroke="black" stroke-miterlimit="10" stroke-linecap="round"/>
<path d="M108.662 16.147L110.478 21.7338C110.639 22.2582 111.123 22.601 111.668 22.601H117.537C118.747 22.601 119.251 24.1541 118.283 24.86L113.523 28.3089C113.079 28.6518 112.898 29.2165 113.079 29.7207L114.895 35.3075C115.278 36.4572 113.947 37.4253 112.958 36.6992L108.199 33.2503C107.755 32.9276 107.17 32.9276 106.726 33.2503L101.966 36.6992C100.978 37.4051 99.6671 36.4572 100.03 35.3075L101.845 29.7207C102.007 29.1963 101.825 28.6316 101.381 28.3291L96.6216 24.8801C95.6333 24.1742 96.1375 22.6212 97.3678 22.6212H103.237C103.782 22.6212 104.266 22.2783 104.427 21.7539L106.242 16.1671C106.646 14.9973 108.279 14.9973 108.662 16.147Z" fill="#FFF58C" stroke="#181919" stroke-miterlimit="10" stroke-linecap="round" stroke-linejoin="round"/>
<path d="M48.6998 46.098C59.1071 36.5177 75.6457 27.3609 91.2767 26.1306" stroke="#181919" stroke-miterlimit="10" stroke-linecap="round" stroke-linejoin="round"/>
<path d="M42.6088 53.7822C44.2128 53.7822 45.5132 52.4819 45.5132 50.8779C45.5132 49.2739 44.2128 47.9736 42.6088 47.9736C41.0048 47.9736 39.7045 49.2739 39.7045 50.8779C39.7045 52.4819 41.0048 53.7822 42.6088 53.7822Z" fill="#FFF58C" stroke="#181919" stroke-miterlimit="10" stroke-linecap="round" stroke-linejoin="round"/>
<path d="M166.225 46.098C155.818 36.5177 139.279 27.3609 123.648 26.1306" stroke="#181919" stroke-miterlimit="10" stroke-linecap="round" stroke-linejoin="round"/>
<path d="M172.336 53.7823C173.94 53.7823 175.241 52.482 175.241 50.878C175.241 49.274 173.94 47.9736 172.336 47.9736C170.732 47.9736 169.432 49.274 169.432 50.878C169.432 52.482 170.732 53.7823 172.336 53.7823Z" fill="#FFF58C" stroke="#181919" stroke-miterlimit="10" stroke-linecap="round" stroke-linejoin="round"/>
</svg>
