<svg width="212" height="185" viewBox="0 0 212 185" fill="none" xmlns="http://www.w3.org/2000/svg">
<path d="M107.291 183.53C157.695 183.53 198.556 142.669 198.556 92.2649C198.556 41.8607 157.695 1 107.291 1C56.8871 1 16.0264 41.8607 16.0264 92.2649C16.0264 142.669 56.8871 183.53 107.291 183.53Z" fill="#FF88B6" stroke="black" stroke-miterlimit="10"/>
<path d="M162.413 76.0287C128.811 58.4413 98.0129 58.3607 66.6904 63.645C37.2234 68.2637 27.2801 100.897 59.6312 107.734C61.5069 108.138 63.4432 108.299 65.3794 108.279C95.1489 107.856 99.9289 111.405 121.147 129.315C124.495 132.139 128.508 134.216 132.845 134.882C146.701 136.98 152.066 134.055 159.851 122.256C161.081 120.401 167.193 110.377 170.521 107.452C182.36 97.0651 173.485 81.8374 162.413 76.0287Z" fill="#56B381"/>
<mask id="mask0_525_54461" style="mask-type:luminance" maskUnits="userSpaceOnUse" x="39" y="60" width="138" height="76">
<path d="M162.413 76.0287C128.811 58.4413 98.0129 58.3607 66.6904 63.645C37.2234 68.2637 27.2801 100.897 59.6312 107.734C61.5069 108.138 63.4432 108.299 65.3794 108.279C95.1489 107.856 99.9289 111.405 121.147 129.315C124.495 132.139 128.508 134.216 132.845 134.882C146.701 136.98 152.066 134.055 159.851 122.256C161.081 120.401 167.193 110.377 170.521 107.452C182.36 97.0651 173.485 81.8374 162.413 76.0287Z" fill="white"/>
</mask>
<g mask="url(#mask0_525_54461)">
<path d="M6.02185 29.1357L64.0683 127.52" stroke="black" stroke-miterlimit="10"/>
<path d="M12.7784 30.2048L70.8249 128.61" stroke="black" stroke-miterlimit="10"/>
<path d="M19.535 31.2737L77.5815 129.678" stroke="black" stroke-miterlimit="10"/>
<path d="M26.2917 32.3426L84.3382 130.747" stroke="black" stroke-miterlimit="10"/>
<path d="M33.0483 33.4116L91.0948 131.816" stroke="black" stroke-miterlimit="10"/>
<path d="M39.8252 34.5008L97.8717 132.885" stroke="black" stroke-miterlimit="10"/>
<path d="M46.5817 35.5697L104.628 133.974" stroke="black" stroke-miterlimit="10"/>
<path d="M53.3383 36.6386L111.385 135.043" stroke="black" stroke-miterlimit="10"/>
<path d="M60.0952 37.7076L118.142 136.112" stroke="black" stroke-miterlimit="10"/>
<path d="M66.8517 38.7766L124.898 137.181" stroke="black" stroke-miterlimit="10"/>
<path d="M73.6083 39.8455L131.655 138.25" stroke="black" stroke-miterlimit="10"/>
<path d="M80.3649 40.9346L138.411 139.319" stroke="black" stroke-miterlimit="10"/>
<path d="M87.1416 42.0036L145.168 140.408" stroke="black" stroke-miterlimit="10"/>
<path d="M93.8982 43.0726L151.945 141.477" stroke="black" stroke-miterlimit="10"/>
<path d="M100.655 44.1415L158.702 142.546" stroke="black" stroke-miterlimit="10"/>
<path d="M107.412 45.2104L165.458 143.615" stroke="black" stroke-miterlimit="10"/>
<path d="M114.168 46.2794L172.215 144.684" stroke="black" stroke-miterlimit="10"/>
<path d="M120.925 47.3687L178.971 145.753" stroke="black" stroke-miterlimit="10"/>
<path d="M127.681 48.4376L185.728 146.842" stroke="black" stroke-miterlimit="10"/>
<path d="M134.458 49.5064L192.485 147.911" stroke="black" stroke-miterlimit="10"/>
<path d="M141.215 50.5755L199.261 148.98" stroke="black" stroke-miterlimit="10"/>
<path d="M147.971 51.6445L206.018 150.049" stroke="black" stroke-miterlimit="10"/>
</g>
<path d="M162.413 76.0287C128.811 58.4413 98.0129 58.3607 66.6904 63.645C37.2234 68.2637 27.2801 100.897 59.6312 107.734C61.5069 108.138 63.4432 108.299 65.3794 108.279C95.1489 107.856 99.9289 111.405 121.147 129.315C124.495 132.139 128.508 134.216 132.845 134.882C146.701 136.98 152.066 134.055 159.851 122.256C161.081 120.401 167.193 110.377 170.521 107.452C182.36 97.0651 173.485 81.8374 162.413 76.0287Z" stroke="black" stroke-miterlimit="10"/>
<path d="M211 137.645V170.803C174.817 160.396 142.587 184.095 106 184.095C68.1225 183.792 37.2034 160.396 1 170.803V137.645C37.2438 127.299 68.7276 152.591 106 152.591C140.973 152.873 174.776 127.299 211 137.645Z" fill="white" stroke="#181919" stroke-miterlimit="10"/>
<path d="M18.3865 154.144C17.7209 154.103 17.378 154.083 16.7124 154.063C16.4906 155.112 16.3897 155.616 16.1679 156.665C15.5426 156.645 15.2401 156.645 14.6148 156.645C14.8367 155.596 14.9375 155.071 15.1594 154.023C14.635 154.023 14.3526 154.002 13.8282 154.002C13.8282 153.438 13.8282 153.155 13.8282 152.591C14.4737 152.591 14.7964 152.591 15.4619 152.611C15.6435 151.764 15.7241 151.34 15.9057 150.493C15.2804 150.473 14.9577 150.473 14.3325 150.473C14.3325 149.908 14.3325 149.646 14.3325 149.081C15.0787 149.081 15.4619 149.101 16.2082 149.121C16.4301 148.073 16.5511 147.548 16.7729 146.499C17.3982 146.52 17.7007 146.54 18.3259 146.58C18.1041 147.629 17.9831 148.153 17.7612 149.202C18.4268 149.242 18.7697 149.263 19.4151 149.303C19.6369 148.274 19.7579 147.75 19.9798 146.701C20.5849 146.742 20.9076 146.782 21.5127 146.822C21.2706 147.871 21.1496 148.395 20.9277 149.424C21.4521 149.464 21.7143 149.505 22.2186 149.545C22.2186 150.11 22.2186 150.372 22.2186 150.937C21.5933 150.876 21.2706 150.836 20.6454 150.775C20.4639 151.602 20.3832 152.026 20.2218 152.853C20.8471 152.913 21.1698 152.933 21.795 152.994C21.795 153.559 21.795 153.841 21.8152 154.386C21.0689 154.305 20.7059 154.285 19.9596 154.224C19.7579 155.253 19.6571 155.757 19.4352 156.786C18.8302 156.745 18.5075 156.725 17.9024 156.705C18.0839 155.697 18.1848 155.192 18.3865 154.144ZM16.9948 152.671C17.6805 152.691 18.0032 152.712 18.6688 152.752C18.8302 151.905 18.931 151.501 19.0924 150.654C18.4268 150.614 18.0839 150.594 17.4183 150.553C17.257 151.421 17.1763 151.824 16.9948 152.671Z" fill="#181919"/>
<path d="M29.0358 157.915C27.1399 157.613 26.1718 157.492 24.2557 157.27C24.1952 153.075 24.1146 150.836 24.2759 146.439C24.9415 146.52 25.2642 146.56 25.9096 146.661C25.7482 150.453 25.7886 152.449 25.8491 156.019C27.2408 156.221 27.9265 156.322 29.298 156.544C30.1854 156.685 30.8107 156.685 31.1334 156.423C30.9922 152.833 30.972 151.058 31.2544 147.367C31.8998 147.488 32.2427 147.548 32.8881 147.669C32.7267 149.605 32.6057 150.574 32.6057 152.429C33.2511 152.55 33.5738 152.631 34.2192 152.752C34.2192 153.357 34.1991 153.659 34.2192 154.264C33.5738 154.123 33.2511 154.063 32.6057 153.942C32.7066 156.16 32.7469 157.25 32.8276 159.287C32.1822 159.166 31.8595 159.105 31.1939 159.004C31.1737 158.5 31.1737 158.258 31.1535 157.754C30.8712 158.036 30.0846 158.076 29.0358 157.915Z" fill="#181919"/>
<path d="M36.0747 148.456C38.2328 148.92 39.3219 149.162 41.48 149.646C41.1371 152.369 40.9758 153.68 41.1573 156.261C38.9992 155.757 37.9302 155.515 35.8125 155.051C35.6511 152.469 35.7923 151.158 36.0747 148.456ZM38.1723 159.024C40.8144 159.609 42.1456 159.912 44.8079 160.537C44.8482 161.061 44.8482 161.344 44.8886 161.868C41.5808 161.082 39.927 160.698 36.6193 160.033C36.5386 158.54 36.5184 157.834 36.4176 156.181C37.063 156.322 37.3857 156.402 38.0311 156.544C38.0916 157.592 38.1118 158.097 38.1723 159.024ZM37.4865 150.352C37.3252 151.804 37.3252 152.51 37.3252 153.901C38.2126 154.103 38.6563 154.204 39.5438 154.406C39.5438 153.014 39.5438 152.328 39.7051 150.856C38.8177 150.654 38.374 150.553 37.4865 150.352ZM44.344 153.478C44.9491 153.619 45.2516 153.7 45.8567 153.841C45.8567 154.446 45.8567 154.749 45.8567 155.354C45.2516 155.212 44.9491 155.132 44.344 154.991C44.344 156.443 44.4045 157.169 44.4852 158.621C43.8398 158.46 43.5171 158.399 42.8717 158.238C42.6498 154.95 42.6901 153.337 43.1137 149.868C43.7591 150.029 44.0818 150.09 44.7272 150.251C44.586 151.562 44.344 152.268 44.344 153.478Z" fill="#181919"/>
<path d="M55.2151 164.41C55.195 163.946 55.195 163.724 55.195 163.26C54.8319 163.542 54.0252 163.522 52.9966 163.26C50.8788 162.736 49.8098 162.473 47.7123 161.969C47.6921 161.425 47.6719 161.162 47.6316 160.618C49.8704 161.142 50.9797 161.404 53.2588 161.929C54.1462 162.13 54.8118 162.13 55.1748 161.888C55.0941 158.419 55.0538 156.443 55.2555 152.712C55.9009 152.853 56.2438 152.933 56.8892 153.075C56.748 157.855 56.8287 160.235 56.869 164.813C56.2034 164.652 55.8807 164.571 55.2151 164.41ZM47.7728 154.991C47.7728 153.659 48.2972 152.651 49.0838 152.127C49.6283 151.764 50.3746 151.683 51.1208 151.844C51.8873 152.026 52.573 152.449 53.0167 153.034C53.6823 153.861 53.9243 155.011 53.9243 156.342C53.9243 157.673 53.5613 158.621 52.8554 159.125C52.3713 159.468 51.6452 159.549 50.8788 159.367C50.1124 159.186 49.3661 158.782 48.8417 158.218C48.1156 157.411 47.7728 156.302 47.7728 154.991ZM49.4266 155.354C49.4266 156.16 49.5678 156.866 49.9309 157.31C50.1527 157.592 50.4754 157.754 50.8385 157.855C51.2015 157.935 51.5242 157.915 51.7461 157.734C52.1091 157.451 52.2503 156.806 52.2503 155.999C52.2503 155.192 52.1696 154.466 51.8267 154.002C51.6251 153.72 51.3225 153.518 50.9595 153.438C50.5964 153.357 50.2536 153.397 50.0115 153.599C49.6485 153.881 49.4266 154.547 49.4266 155.354Z" fill="#181919"/>
<path d="M67.8409 163.926C67.1551 163.744 66.8324 163.663 66.1467 163.482C65.9248 164.49 65.8038 165.075 65.5618 166.164C64.9365 166.003 64.634 165.922 64.0088 165.761C64.2508 164.672 64.3718 164.107 64.5937 163.099C64.0693 162.978 63.7869 162.897 63.2625 162.776C63.2625 162.211 63.2625 161.929 63.2625 161.364C63.9079 161.505 64.2306 161.586 64.876 161.747C65.0576 160.92 65.1382 160.517 65.3198 159.71C64.6945 159.549 64.3718 159.488 63.7466 159.327C63.7466 158.762 63.7466 158.48 63.7466 157.935C64.4928 158.097 64.8559 158.198 65.6223 158.379C65.8441 157.371 65.945 156.927 66.1669 155.979C66.7921 156.14 67.1148 156.221 67.74 156.382C67.5384 157.31 67.4375 157.754 67.2156 158.762C67.9014 158.944 68.2241 159.024 68.9098 159.206C69.1317 158.198 69.2325 157.774 69.4342 156.846C70.0595 157.008 70.362 157.108 71.0074 157.27C70.8057 158.198 70.7049 158.621 70.483 159.63C71.0276 159.771 71.2898 159.851 71.8343 159.993C71.8343 160.557 71.8343 160.84 71.8343 161.404C71.1688 161.223 70.8461 161.142 70.2007 160.961C70.0191 161.767 69.9385 162.171 69.7569 162.998C70.4024 163.179 70.7251 163.26 71.3705 163.441C71.3705 164.006 71.3705 164.309 71.3705 164.873C70.604 164.672 70.2208 164.571 69.4746 164.369C69.2527 165.378 69.1115 165.983 68.8695 167.092C68.2443 166.911 67.9417 166.83 67.3165 166.669C67.498 165.539 67.619 164.954 67.8409 163.926ZM66.4291 162.151C67.1148 162.312 67.4577 162.413 68.1434 162.594C68.3249 161.767 68.4056 161.364 68.5871 160.557C67.9014 160.376 67.5585 160.295 66.8728 160.114C66.7114 160.92 66.6106 161.324 66.4291 162.151Z" fill="#181919"/>
<path d="M76.9169 169.351C75.6664 169.008 75.021 168.827 73.7705 168.484C73.8915 163.563 73.8713 161.505 73.8108 157.431C74.4966 157.613 74.8193 157.714 75.505 157.895C75.5454 161.404 75.626 162.978 75.505 167.213C76.1303 167.374 76.4328 167.475 77.0581 167.637C77.6026 167.778 78.1472 167.899 78.5909 167.899C78.5707 168.544 78.5707 168.867 78.5506 169.512C78.1068 169.613 77.5018 169.492 76.9169 169.351ZM79.0951 170.642C79.1556 167.899 79.1758 166.608 79.1758 164.127C78.3489 163.905 77.9253 163.784 77.0984 163.563C77.0984 162.937 77.0984 162.635 77.0984 162.01C77.9253 162.231 78.3489 162.352 79.1758 162.574C79.1758 160.981 79.1556 160.275 79.1355 158.783C79.801 158.964 80.1237 159.045 80.7893 159.226C80.8498 163.603 80.8498 165.882 80.749 171.045C80.0834 170.904 79.7607 170.823 79.0951 170.642ZM81.5557 171.449C81.6768 166.205 81.6566 163.885 81.6163 159.408C82.2818 159.589 82.6247 159.67 83.2903 159.831C83.3306 164.309 83.3508 166.648 83.2499 171.852C82.5642 171.691 82.2213 171.61 81.5557 171.449Z" fill="#181919"/>
<path d="M85.9931 170.259C90.0874 171.227 92.1245 171.65 96.2188 172.215C96.2188 172.84 96.2188 173.163 96.2188 173.788C92.1245 173.264 90.0672 172.86 85.9729 171.933C85.9729 171.247 85.9729 170.924 85.9931 170.259ZM88.2923 162.695C88.2923 163.3 88.2923 163.583 88.2923 164.228C91.1765 164.894 92.6085 165.176 95.4927 165.62C95.4927 166.225 95.4927 166.527 95.4927 167.153C92.6085 166.709 91.1765 166.426 88.2923 165.761C88.2923 166.406 88.2923 166.729 88.2923 167.395C91.2774 168.06 92.7699 168.363 95.7549 168.806C95.7549 169.412 95.7549 169.714 95.7549 170.339C92.0841 169.795 90.2487 169.411 86.5578 168.544C86.5578 165.398 86.578 163.825 86.5376 160.86C90.1681 161.707 91.9833 162.07 95.6137 162.594C95.6137 163.199 95.6137 163.502 95.6137 164.107C92.7094 163.643 91.237 163.341 88.2923 162.695Z" fill="#181919"/>
<path d="M102.713 171.307C102.713 172.719 102.713 173.425 102.713 174.857C102.027 174.837 101.685 174.817 100.999 174.776C100.999 173.344 100.999 172.639 100.999 171.227C100.01 171.166 99.5264 171.106 98.5381 171.005C98.5381 170.38 98.5381 170.077 98.5381 169.452C100.817 169.694 101.947 169.775 104.206 169.815C104.831 169.815 105.335 169.815 105.86 169.694C105.86 170.279 105.86 170.561 105.86 171.146C105.335 171.328 104.77 171.368 104.125 171.368C103.58 171.348 103.298 171.328 102.713 171.307ZM98.9819 165.862C98.9819 164.773 99.3651 164.006 100.01 163.542C100.535 163.179 101.281 163.018 102.128 163.058C102.996 163.099 103.722 163.341 104.266 163.764C104.932 164.289 105.295 165.115 105.295 166.184C105.295 167.253 104.912 168.08 104.266 168.585C103.742 168.988 103.016 169.19 102.128 169.149C101.261 169.109 100.535 168.827 100.01 168.363C99.3651 167.798 98.9819 166.931 98.9819 165.862ZM100.696 166.023C100.696 166.507 100.837 166.931 101.1 167.213C101.321 167.455 101.685 167.596 102.148 167.616C102.612 167.637 102.975 167.536 103.217 167.314C103.48 167.072 103.621 166.648 103.621 166.164C103.621 165.66 103.48 165.257 103.217 164.994C102.996 164.773 102.632 164.611 102.148 164.591C101.685 164.571 101.321 164.692 101.1 164.894C100.837 165.115 100.696 165.519 100.696 166.023ZM108.199 174.817C107.513 174.857 107.17 174.857 106.485 174.877C106.485 174.373 106.485 174.131 106.485 173.627C105.537 173.647 105.053 173.647 104.105 173.627C104.105 173.022 104.105 172.699 104.105 172.094C105.053 172.114 105.537 172.114 106.485 172.094C106.485 168.484 106.485 166.669 106.485 163.058C107.17 163.038 107.513 163.038 108.199 162.998C108.199 167.737 108.199 170.077 108.199 174.817Z" fill="#181919"/>
<path d="M115.137 163.966C113.584 164.188 112.818 164.268 111.265 164.41C111.265 163.804 111.265 163.502 111.265 162.897C113.504 162.695 114.613 162.534 116.852 162.171C116.852 162.615 116.852 162.836 116.852 163.28C116.872 166.89 114.895 168.887 110.983 169.674C110.983 169.069 110.983 168.766 110.983 168.161C112.576 167.798 113.705 167.253 114.371 166.447C113.947 166.568 113.383 166.689 112.697 166.749C112.112 166.81 111.83 166.83 111.245 166.89C111.245 166.305 111.245 166.003 111.245 165.398C111.85 165.337 112.152 165.317 112.757 165.257C113.847 165.136 114.613 164.994 115.057 164.793C115.117 164.551 115.137 164.268 115.137 163.966ZM111.809 172.215C111.809 171.368 112.233 170.722 112.878 170.238C113.786 169.573 115.117 169.23 116.347 169.048C117.598 168.867 118.929 168.806 119.817 169.21C120.462 169.492 120.906 170.037 120.906 170.904C120.906 171.771 120.482 172.477 119.837 173.002C118.949 173.728 117.618 174.111 116.368 174.292C115.137 174.474 113.786 174.454 112.899 173.99C112.233 173.667 111.809 173.082 111.809 172.215ZM113.524 172.033C113.524 172.336 113.685 172.518 113.947 172.659C114.492 172.901 115.44 172.881 116.327 172.76C117.235 172.618 118.183 172.376 118.727 171.953C118.99 171.731 119.151 171.509 119.151 171.207C119.151 170.924 118.99 170.743 118.727 170.622C118.183 170.38 117.235 170.46 116.327 170.601C115.44 170.743 114.472 170.944 113.947 171.348C113.665 171.529 113.524 171.751 113.524 172.033ZM118.889 168.464C118.889 165.721 118.909 164.49 118.889 161.687C119.575 161.566 119.917 161.485 120.603 161.364C120.623 164.188 120.603 165.398 120.603 168.141C119.917 168.282 119.575 168.343 118.889 168.464Z" fill="#181919"/>
<path d="M123.447 165.317C127.602 164.43 129.679 163.885 133.794 162.776C133.773 163.321 133.773 163.603 133.773 164.147C129.659 165.257 127.582 165.801 123.427 166.709C123.427 166.164 123.427 165.882 123.447 165.317ZM123.971 162.695C123.971 162.151 124.153 161.707 124.516 161.324C125.222 160.557 126.613 160.053 128.61 159.529C130.627 159.025 132.019 158.843 132.745 159.267C133.108 159.488 133.289 159.851 133.31 160.416C133.33 160.961 133.148 161.465 132.785 161.828C132.059 162.554 130.667 163.078 128.65 163.583C126.634 164.067 125.242 164.228 124.536 163.825C124.173 163.603 123.971 163.22 123.971 162.695ZM125.907 170.884C128.893 170.198 130.385 169.815 133.35 169.028C133.35 169.613 133.35 169.916 133.37 170.521C129.719 171.489 127.884 171.953 124.193 172.739C124.193 171.348 124.173 170.642 124.173 169.25C127.057 168.625 128.489 168.262 131.353 167.516C131.353 167.294 131.353 167.173 131.353 166.951C128.489 167.697 127.037 168.06 124.173 168.685C124.173 168.101 124.173 167.798 124.173 167.213C127.743 166.427 129.518 165.963 133.067 164.995C133.088 166.406 133.088 167.112 133.108 168.524C130.244 169.291 128.812 169.654 125.928 170.319C125.907 170.561 125.907 170.662 125.907 170.884ZM125.686 162.312C125.686 162.413 125.746 162.494 125.847 162.534C126.19 162.675 127.138 162.514 128.63 162.151C130.143 161.788 131.071 161.485 131.414 161.162C131.514 161.062 131.555 160.961 131.555 160.86C131.555 160.739 131.494 160.678 131.393 160.618C131.03 160.477 130.103 160.678 128.59 161.041C127.077 161.404 126.15 161.687 125.807 161.989C125.746 162.11 125.686 162.191 125.686 162.312Z" fill="#181919"/>
<path d="M144.201 163.825C143.535 164.006 143.192 164.107 142.507 164.289C142.305 165.438 142.204 166.003 141.982 167.153C141.357 167.334 141.054 167.415 140.429 167.596C140.631 166.447 140.732 165.862 140.954 164.712C140.429 164.853 140.147 164.934 139.622 165.075C139.622 164.49 139.622 164.208 139.602 163.623C140.248 163.442 140.57 163.361 141.216 163.179C141.377 162.252 141.478 161.828 141.68 160.981C141.054 161.162 140.732 161.243 140.107 161.425C140.107 160.9 140.127 160.638 140.127 160.134C140.873 159.932 141.256 159.811 142.002 159.609C142.244 158.561 142.325 157.875 142.527 156.665C143.152 156.483 143.475 156.403 144.1 156.241C143.898 157.431 143.818 158.097 143.576 159.166C144.241 158.984 144.584 158.883 145.25 158.702C145.492 157.633 145.572 156.987 145.774 155.797C146.399 155.636 146.702 155.555 147.307 155.394C147.105 156.564 147.004 157.189 146.782 158.278C147.307 158.137 147.569 158.056 148.093 157.915C148.093 158.46 148.093 158.722 148.073 159.267C147.428 159.428 147.105 159.529 146.46 159.69C146.278 160.557 146.177 160.981 146.016 161.909C146.661 161.747 146.964 161.647 147.609 161.485C147.609 162.05 147.609 162.352 147.609 162.917C146.863 163.119 146.48 163.22 145.734 163.421C145.532 164.551 145.431 165.136 145.209 166.265C144.584 166.447 144.282 166.527 143.656 166.709C143.898 165.539 143.999 164.954 144.201 163.825ZM142.789 162.756C143.475 162.574 143.818 162.473 144.483 162.292C144.645 161.364 144.745 160.941 144.927 160.073C144.241 160.255 143.918 160.356 143.233 160.537C143.051 161.404 142.95 161.828 142.789 162.756Z" fill="#181919"/>
<path d="M149.969 154.002C152.188 153.458 153.378 153.216 155.697 152.651C155.697 155.152 155.919 156.564 155.758 159.145C153.398 159.71 152.188 159.993 149.969 160.537C149.969 157.915 149.969 156.665 149.969 154.002ZM152.228 163.643C155.011 162.917 156.423 162.554 159.307 161.848C159.328 162.433 159.328 162.736 159.328 163.32C155.738 164.208 153.922 164.692 150.554 165.62C150.554 163.946 150.554 163.099 150.554 161.404C151.22 161.243 151.542 161.162 152.248 160.981C152.228 162.05 152.228 162.594 152.228 163.643ZM151.583 155.132C151.583 156.544 151.583 157.25 151.583 158.641C152.551 158.399 153.035 158.278 154.023 158.036C154.003 156.604 153.983 155.878 153.983 154.527C153.035 154.769 152.551 154.89 151.583 155.132ZM159.227 154.587C159.892 154.426 160.215 154.345 160.861 154.184C160.901 154.829 160.921 155.152 160.941 155.797C160.276 155.959 159.953 156.039 159.287 156.181C159.368 157.713 159.287 158.44 159.126 159.892C158.42 160.053 158.077 160.134 157.371 160.315C157.654 157.028 157.432 155.233 157.432 152.066C158.138 151.885 158.481 151.804 159.186 151.643C159.227 152.833 159.166 153.296 159.227 154.587Z" fill="#181919"/>
<path d="M162.534 155.253C166.83 154.265 169.009 153.78 173.325 152.974C173.365 153.599 173.385 153.902 173.406 154.527C169.089 155.354 166.931 155.838 162.615 156.806C162.575 156.201 162.575 155.878 162.534 155.253ZM164.975 151.764C164.975 152.086 164.975 152.248 164.975 152.57C168 151.885 169.513 151.562 172.538 150.957C172.558 151.562 172.559 151.864 172.599 152.49C168.847 153.216 166.972 153.619 163.24 154.466C163.14 152.893 163.18 152.227 163.16 150.795C166.851 149.888 168.706 149.424 172.397 148.617C172.417 149.222 172.417 149.505 172.417 150.11C169.452 150.735 167.96 151.078 164.975 151.764ZM164.814 160.739C167.899 160.053 169.473 159.71 172.599 159.125C172.619 159.67 172.619 159.932 172.639 160.477C168.787 161.203 166.871 161.626 163.079 162.494C163.039 161.203 162.918 160.577 163.079 159.246C166.044 158.561 167.557 158.238 170.562 157.633C170.582 157.411 170.602 157.31 170.622 157.088C167.617 157.693 166.125 158.016 163.14 158.702C163.2 158.137 163.24 157.855 163.321 157.29C167.032 156.463 168.888 156.039 172.599 155.313C172.437 156.665 172.276 157.35 172.316 158.641C169.291 159.226 167.799 159.549 164.814 160.214C164.814 160.416 164.814 160.537 164.814 160.739Z" fill="#181919"/>
<path d="M182.179 153.175C182.018 155.011 181.715 156.443 181.07 157.371C180.586 158.056 179.779 158.52 178.831 158.661C177.903 158.803 177.076 158.601 176.552 158.077C175.806 157.31 176.048 155.878 175.947 153.7C175.826 151.542 175.947 149.827 176.653 148.678C177.157 147.891 177.944 147.347 178.871 147.185C179.819 147.024 180.626 147.286 181.13 147.911C181.756 148.678 181.998 149.989 182.119 151.582C182.825 151.481 183.167 151.441 183.853 151.34C183.793 149.464 183.772 148.416 183.732 146.378C184.438 146.278 184.801 146.237 185.507 146.136C185.628 151.481 185.487 153.72 185.527 158.359C184.801 158.44 184.458 158.48 183.732 158.581C183.712 156.342 183.752 155.213 183.894 152.933C183.208 153.014 182.865 153.075 182.179 153.175ZM177.702 153.397C177.782 155.233 177.5 156.443 177.903 156.927C178.105 157.169 178.428 157.27 178.791 157.209C179.154 157.149 179.476 156.947 179.678 156.644C180.061 156.019 180.465 154.769 180.384 152.954C180.303 151.138 180.182 149.767 179.779 149.202C179.577 148.92 179.255 148.799 178.871 148.879C178.508 148.94 178.186 149.162 178.004 149.505C177.661 150.19 177.621 151.582 177.702 153.397Z" fill="#181919"/>
<path d="M193.252 148.174C193.232 147.205 193.232 146.721 193.212 145.753C193.918 145.733 194.26 145.733 194.966 145.713C195.007 148.859 195.027 150.291 195.007 153.175C194.18 153.216 193.776 153.236 192.949 153.296C192.929 154.184 192.929 154.648 192.929 155.535C193.494 155.495 193.776 155.475 194.341 155.455C195.289 155.414 195.975 155.233 196.338 154.87C196.338 151.219 196.358 149.424 196.318 145.491C197.024 145.511 197.366 145.511 198.052 145.552C198.072 147.508 198.072 148.476 198.072 150.352C198.758 150.332 199.101 150.332 199.787 150.332C199.787 150.937 199.787 151.239 199.787 151.844C199.101 151.844 198.758 151.844 198.072 151.864C198.072 154.103 198.072 155.233 198.072 157.471C197.387 157.492 197.044 157.492 196.338 157.512C196.338 157.028 196.338 156.786 196.338 156.302C195.955 156.705 195.108 156.927 193.998 156.987C191.86 157.108 190.771 157.189 188.593 157.391C188.593 156.786 188.593 156.483 188.593 155.878C189.642 155.777 190.146 155.737 191.175 155.636C191.175 154.749 191.195 154.305 191.215 153.397C190.368 153.458 189.924 153.498 189.077 153.599C189.178 150.735 189.077 149.242 188.996 145.995C189.702 145.935 190.065 145.915 190.771 145.854C190.791 146.842 190.791 147.326 190.812 148.295C191.78 148.254 192.264 148.234 193.252 148.174ZM193.272 149.787C192.304 149.848 191.8 149.888 190.832 149.969C190.832 150.755 190.852 151.159 190.852 151.945C191.82 151.864 192.324 151.824 193.292 151.764C193.272 150.957 193.272 150.574 193.272 149.787Z" fill="#181919"/>
<path d="M59.3498 130.102C61.2658 130.122 63.1416 130.586 65.0375 130.727C66.9333 130.868 68.9906 130.687 70.5033 129.537C72.0361 128.388 72.7824 126.068 71.7134 124.495C70.8663 123.224 69.2326 122.821 67.7804 122.296C63.0407 120.622 59.1884 117.032 54.489 115.197C53.0369 114.632 51.4435 114.229 49.8905 114.511C48.8417 114.713 47.8534 115.217 47.087 115.943C45.0701 117.879 44.8684 121.228 46.1391 123.729C47.4097 126.229 49.9107 127.904 52.573 128.811C55.2353 129.739 58.0388 130.082 59.3498 130.102Z" fill="#56B381"/>
<mask id="mask1_525_54461" style="mask-type:luminance" maskUnits="userSpaceOnUse" x="45" y="114" width="28" height="17">
<path d="M59.3498 130.102C61.2658 130.122 63.1416 130.586 65.0375 130.727C66.9333 130.868 68.9906 130.687 70.5033 129.537C72.0361 128.388 72.7824 126.068 71.7134 124.495C70.8663 123.224 69.2326 122.821 67.7804 122.296C63.0407 120.622 59.1884 117.032 54.489 115.197C53.0369 114.632 51.4435 114.229 49.8905 114.511C48.8417 114.713 47.8534 115.217 47.087 115.943C45.0701 117.879 44.8684 121.228 46.1391 123.729C47.4097 126.229 49.9107 127.904 52.573 128.811C55.2353 129.739 58.0388 130.082 59.3498 130.102Z" fill="white"/>
</mask>
<g mask="url(#mask1_525_54461)">
<path d="M114.431 196.68L55.7194 98.6786" stroke="black" stroke-miterlimit="10"/>
<path d="M107.655 195.651L48.9628 97.65" stroke="black" stroke-miterlimit="10"/>
<path d="M100.898 194.643L42.186 96.6215" stroke="black" stroke-miterlimit="10"/>
<path d="M94.1213 193.614L35.4294 95.5928" stroke="black" stroke-miterlimit="10"/>
<path d="M87.3648 192.586L28.6527 94.5642" stroke="black" stroke-miterlimit="10"/>
<path d="M80.588 191.557L21.8961 93.5356" stroke="black" stroke-miterlimit="10"/>
<path d="M73.8311 190.528L15.119 92.5271" stroke="black" stroke-miterlimit="10"/>
<path d="M67.0544 189.5L8.36255 91.4984" stroke="black" stroke-miterlimit="10"/>
<path d="M60.2978 188.471L1.58569 90.4698" stroke="black" stroke-miterlimit="10"/>
<path d="M53.5412 187.443L-5.1709 89.4412" stroke="black" stroke-miterlimit="10"/>
<path d="M46.7644 186.414L-11.9476 88.4125" stroke="black" stroke-miterlimit="10"/>
</g>
<path d="M59.3498 130.102C61.2658 130.122 63.1416 130.586 65.0375 130.727C66.9333 130.868 68.9906 130.687 70.5033 129.537C72.0361 128.388 72.7824 126.068 71.7134 124.495C70.8663 123.224 69.2326 122.821 67.7804 122.296C63.0407 120.622 59.1884 117.032 54.489 115.197C53.0369 114.632 51.4435 114.229 49.8905 114.511C48.8417 114.713 47.8534 115.217 47.087 115.943C45.0701 117.879 44.8684 121.228 46.1391 123.729C47.4097 126.229 49.9107 127.904 52.573 128.811C55.2353 129.739 58.0388 130.082 59.3498 130.102Z" stroke="black" stroke-miterlimit="10"/>
<path opacity="0.9882" d="M113.476 63.2867C111.076 63.2867 108.998 64.5776 107.848 66.4734V55.9452C107.848 54.2712 106.477 52.8997 104.803 52.8997H76.4655C74.7914 52.8997 73.4199 54.2712 73.4199 55.9452V84.9281C73.4199 86.6021 74.7914 87.9736 76.4655 87.9736H87.8005C85.5617 86.9047 84.0087 84.6457 84.0087 82.0238C84.0087 78.3732 86.9735 75.4083 90.6241 75.4083C94.2747 75.4083 97.2396 78.3732 97.2396 82.0238C97.2396 84.6659 95.6865 86.9249 93.4478 87.9736H104.783C106.457 87.9736 107.828 86.6021 107.828 84.9281V73.3309C108.998 75.2268 111.076 76.5176 113.455 76.5176C117.106 76.5176 120.071 73.5527 120.071 69.9021C120.071 66.2515 117.126 63.2867 113.476 63.2867Z" fill="#EBEBEB" stroke="#100917" stroke-miterlimit="10" stroke-linecap="round" stroke-linejoin="round"/>
<path opacity="0.9882" d="M160.147 68.5911C158.311 67.8247 156.294 68.2483 154.923 69.4786L158.311 61.3707C158.795 60.221 158.251 58.8899 157.101 58.4058L137.396 50.1768C136.246 49.6927 134.915 50.2373 134.431 51.387L126.021 71.5359C125.537 72.6855 126.081 74.0166 127.231 74.5007L135.117 77.7882C133.887 76.3966 133.463 74.3797 134.23 72.5644C135.298 70.0231 138.203 68.8332 140.744 69.882C143.285 70.951 144.475 73.8553 143.427 76.3966C142.66 78.2319 140.926 79.3412 139.07 79.4421L146.956 82.7297C148.106 83.2137 149.437 82.6691 149.921 81.5195L153.309 73.4116C153.41 75.2671 154.52 77.0017 156.355 77.7681C158.896 78.8371 161.801 77.6269 162.87 75.0856C163.878 72.5644 162.668 69.6601 160.147 68.5911Z" fill="#5A66FF" stroke="#100917" stroke-miterlimit="10" stroke-linecap="round" stroke-linejoin="round"/>
<path opacity="0.9882" d="M139.312 87.2072H127.977C130.216 88.2762 131.769 90.5351 131.769 93.157C131.769 96.8076 128.804 99.7725 125.154 99.7725C121.503 99.7725 118.538 96.8076 118.538 93.157C118.538 90.5149 120.091 88.256 122.33 87.2072H110.995C109.321 87.2072 107.949 88.5787 107.949 90.2528V101.91C106.88 99.6717 104.621 98.1187 101.999 98.1187C98.3489 98.1187 95.384 101.084 95.384 104.734C95.384 108.385 98.3489 111.35 101.999 111.35C104.642 111.35 106.901 109.797 107.949 107.558V119.215C107.949 120.889 109.321 122.261 110.995 122.261H139.332C141.006 122.261 142.378 120.889 142.378 119.215V90.2326C142.358 88.5787 140.986 87.2072 139.312 87.2072Z" fill="#B180E0" stroke="#100917" stroke-miterlimit="10" stroke-linecap="round" stroke-linejoin="round"/>
<path opacity="0.9882" d="M102.665 97.9572C105.307 97.9572 107.566 99.5103 108.615 101.749V90.414C108.615 88.74 107.243 87.3685 105.569 87.3685H93.9116C96.1504 86.2995 97.7034 84.0406 97.7034 81.4187C97.7034 77.7681 94.7385 74.8032 91.0879 74.8032C87.4373 74.8032 84.4725 77.7681 84.4725 81.4187C84.4725 84.0608 86.0255 86.3197 88.2643 87.3685H76.6066C74.9325 87.3685 73.561 88.74 73.561 90.414V118.752C73.561 120.426 74.9325 121.797 76.6066 121.797H105.589C107.264 121.797 108.635 120.426 108.635 118.752V107.417C107.566 109.655 105.307 111.208 102.685 111.208C99.0345 111.208 96.0697 108.243 96.0697 104.593C96.0697 100.942 99.0144 97.9572 102.665 97.9572Z" fill="#5A66FF" stroke="#100917" stroke-miterlimit="10" stroke-linecap="round" stroke-linejoin="round"/>
<path d="M125.839 116.029C121.806 116.008 118.115 114.072 116.259 111.107C118.155 108.122 121.886 106.287 125.9 106.327C129.934 106.348 133.625 108.284 135.48 111.249C133.584 114.193 129.853 116.049 125.839 116.029Z" fill="white" stroke="black" stroke-miterlimit="10" stroke-linecap="round" stroke-linejoin="round"/>
<path d="M128.401 110.563C127.896 110.563 127.433 110.361 127.07 109.998C126.727 109.635 126.525 109.171 126.525 108.667C126.525 108.506 126.464 108.344 126.343 108.223C126.222 108.102 126.061 108.042 125.9 108.042C125.073 108.042 124.266 108.364 123.681 108.949C123.096 109.534 122.753 110.321 122.753 111.148C122.753 111.975 123.076 112.782 123.661 113.366C124.246 113.951 125.032 114.294 125.859 114.294C126.686 114.294 127.493 113.971 128.078 113.387C128.663 112.802 129.006 112.015 129.006 111.188C129.006 111.027 128.945 110.865 128.824 110.744C128.723 110.623 128.562 110.563 128.401 110.563Z" fill="black"/>
<path d="M125.94 103.504L125.9 106.287" stroke="black" stroke-miterlimit="10" stroke-linecap="round" stroke-linejoin="round"/>
<path d="M120.999 104.311L122.39 106.731" stroke="black" stroke-miterlimit="10" stroke-linecap="round" stroke-linejoin="round"/>
<path d="M130.821 104.391L129.389 106.791" stroke="black" stroke-miterlimit="10" stroke-linecap="round" stroke-linejoin="round"/>
<path d="M86.6902 69.1334L86.6892 69.133C83.812 68.0249 82.11 66.2569 81.5921 64.0447C81.5437 63.8148 81.6648 63.5649 81.8955 63.4598C83.106 62.9131 83.8917 62.4763 84.7476 62.0005C84.7904 61.9767 84.8334 61.9528 84.8766 61.9288L84.8766 61.9288L84.8781 61.9279C85.0011 61.859 85.1244 61.7895 85.2496 61.7188C85.6385 61.4994 86.0462 61.2695 86.5225 61.0161C86.9804 60.8249 87.3932 60.7412 87.8608 60.7412C88.7099 60.7412 89.6667 61.0347 90.357 61.4707L90.6219 61.638L90.8879 61.4726C91.563 61.053 92.5415 60.7412 93.3871 60.7412C93.8582 60.7412 94.2711 60.8263 94.6484 60.9775C95.3626 61.3546 95.8707 61.6287 96.3569 61.9204L96.3569 61.9205L96.364 61.9246L96.3794 61.9335C97.2823 62.4552 98.0674 62.9088 99.3561 63.4614C99.5849 63.5678 99.7044 63.817 99.6556 64.046C99.1779 66.1545 97.4378 67.9662 94.6296 69.1168L94.6295 69.1168L94.6229 69.1196C93.1606 69.7435 91.9164 70.0072 90.7046 70.0072C89.4936 70.0072 88.2657 69.7439 86.6902 69.1334Z" fill="#FF88B6" stroke="black"/>
<path d="M87.76 65.3842H93.488" stroke="black" stroke-miterlimit="10" stroke-linecap="round"/>
<path d="M108.663 16.147L110.478 21.7339C110.64 22.2583 111.124 22.6011 111.668 22.6011H117.537C118.748 22.6011 119.252 24.1541 118.284 24.8601L113.524 28.3089C113.08 28.6316 112.899 29.1964 113.06 29.7006L114.875 35.2875C115.258 36.4371 113.927 37.4052 112.939 36.6791L108.179 33.2302C107.735 32.9075 107.15 32.9075 106.707 33.2302L101.947 36.6791C100.959 37.3851 99.6475 36.4371 100.011 35.2875L101.826 29.7006C101.987 29.1762 101.806 28.6115 101.362 28.3089L96.602 24.8601C95.6137 24.1541 96.118 22.6011 97.3483 22.6011H103.217C103.762 22.6011 104.246 22.2583 104.407 21.7339L106.223 16.147C106.666 14.9974 108.3 14.9974 108.663 16.147Z" fill="#FFF58C" stroke="#181919" stroke-miterlimit="10" stroke-linecap="round" stroke-linejoin="round"/>
<path d="M48.7207 46.098C59.1279 36.5177 75.6665 27.361 91.2975 26.1307" stroke="#181919" stroke-miterlimit="10" stroke-linecap="round" stroke-linejoin="round"/>
<path d="M42.6095 53.7825C44.2136 53.7825 45.5139 52.4822 45.5139 50.8781C45.5139 49.2741 44.2136 47.9738 42.6095 47.9738C41.0055 47.9738 39.7052 49.2741 39.7052 50.8781C39.7052 52.4822 41.0055 53.7825 42.6095 53.7825Z" fill="#FFF58C" stroke="#181919" stroke-miterlimit="10" stroke-linecap="round" stroke-linejoin="round"/>
<path d="M166.246 46.098C155.839 36.5177 139.3 27.361 123.669 26.1307" stroke="#181919" stroke-miterlimit="10" stroke-linecap="round" stroke-linejoin="round"/>
<path d="M172.337 53.7825C173.941 53.7825 175.241 52.4822 175.241 50.8781C175.241 49.2741 173.941 47.9738 172.337 47.9738C170.733 47.9738 169.433 49.2741 169.433 50.8781C169.433 52.4822 170.733 53.7825 172.337 53.7825Z" fill="#FFF58C" stroke="#181919" stroke-miterlimit="10" stroke-linecap="round" stroke-linejoin="round"/>
</svg>
