<svg width="212" height="185" viewBox="0 0 212 185" fill="none" xmlns="http://www.w3.org/2000/svg">
<path d="M107.291 183.53C157.695 183.53 198.556 142.669 198.556 92.2649C198.556 41.8607 157.695 1 107.291 1C56.8871 1 16.0264 41.8607 16.0264 92.2649C16.0264 142.669 56.8871 183.53 107.291 183.53Z" fill="#FF88B6"/>
<path d="M74.9187 159.488L26.9366 135.426C26.9366 135.426 20.4825 121.127 19.353 116.609C19.353 116.609 153.517 123.345 192.242 58.7235C192.242 58.7235 211.019 110.276 183.408 139.884" fill="#EBEBEB"/>
<path d="M21.1295 63.2215C23.1666 55.6985 26.9786 48.6796 32.162 42.8911C31.3553 47.0258 30.6695 51.2613 31.1132 55.4766C31.5569 59.6919 33.1906 63.8871 36.3571 66.6704C38.8379 68.8487 42.065 69.9983 45.292 70.563C46.0585 70.7042 46.8451 70.8051 47.5712 71.0471C48.7611 71.4505 49.8099 72.1967 50.8184 72.943C53.8236 75.2019 56.8287 77.9651 57.6153 81.6358C58.2406 84.5604 57.5145 88.0698 59.491 90.0262C61.0844 93.3742 64.0089 96.0769 67.4981 97.3879C71.4311 98.8602 75.9086 98.598 79.6601 100.433C80.9105 101.038 82.0803 101.886 83.4317 102.269C81.4753 102.067 79.5189 102.107 77.5625 102.39C75.8683 102.632 74.1943 103.055 72.4799 103.055C71.3908 103.055 70.2815 102.874 69.2125 102.632C62.5971 101.099 56.5867 96.3794 54.4085 89.9455C53.7631 88.0698 53.4605 86.0932 52.8554 84.2175C52.2504 82.3418 51.2822 80.466 49.6687 79.3164C48.3376 78.3684 46.6837 77.9852 45.0903 77.6222C43.8802 77.36 42.6701 77.0776 41.5608 76.4927C36.9421 77.481 31.8796 77.0776 27.8257 74.6775C23.7717 72.2774 19.9799 67.5175 21.1295 63.2215Z" fill="white"/>
<mask id="mask0_525_20641" style="mask-type:luminance" maskUnits="userSpaceOnUse" x="20" y="42" width="72" height="72">
<path d="M88.9569 113.039C88.6947 112.172 87.9484 111.567 87.2425 111.002C86.1937 110.155 85.145 109.328 84.0962 108.481C82.8659 107.492 81.6355 106.504 80.2842 105.718C75.605 102.975 69.8971 102.712 64.754 100.998C63.08 100.433 61.4463 99.7273 60.0748 98.618C57.3117 96.4196 55.8595 92.9707 54.73 89.6226C53.6006 86.2746 52.6324 82.7652 50.4744 79.9617C48.4575 78.5498 46.5011 77.0977 44.222 76.5329C40.3697 75.585 36.235 77.3397 32.3626 76.4724C31.2734 76.2304 30.2448 75.7867 29.2767 75.2421C24.7992 72.8017 21.3301 68.2636 20.8461 63.181C22.6815 55.4159 26.3119 48.1954 31.3541 42.7296C30.9104 47.3483 30.4465 52.0276 31.3541 56.5858C32.2416 61.1238 34.7022 65.6013 38.7763 67.7997C43.032 70.1192 48.7197 69.857 52.0677 73.3664C52.8745 74.2135 53.4594 75.2018 54.0645 76.2102C55.8797 79.2558 57.7151 82.3214 58.9655 85.6292C59.732 87.6662 60.2967 89.8243 61.4262 91.6799C62.838 94.0195 65.1171 95.8347 67.8399 96.6415C68.9895 98.2953 71.2485 98.6584 73.2452 98.9004C76.2907 99.2634 79.3968 99.7072 82.1196 101.119C84.197 102.188 85.9517 103.781 87.5854 105.435C88.735 106.585 91.236 109.025 91.3772 110.699C91.4377 111.708 89.7838 111.688 88.9569 113.039Z" fill="white"/>
</mask>
<g mask="url(#mask0_525_20641)">
<path d="M20.9874 1.40332L-5.29285 52.1486" stroke="black" stroke-miterlimit="10"/>
<path d="M25.3437 7.41357L-0.936523 58.1589" stroke="black" stroke-miterlimit="10"/>
<path d="M29.6804 13.4441L3.40015 64.1692" stroke="black" stroke-miterlimit="10"/>
<path d="M34.0367 19.4545L7.75647 70.1998" stroke="black" stroke-miterlimit="10"/>
<path d="M38.393 25.4648L12.1128 76.2101" stroke="black" stroke-miterlimit="10"/>
<path d="M42.7499 31.4753L16.4696 82.2206" stroke="black" stroke-miterlimit="10"/>
<path d="M47.086 37.5059L20.8058 88.231" stroke="black" stroke-miterlimit="10"/>
<path d="M51.4428 43.5162L25.1626 94.2615" stroke="black" stroke-miterlimit="10"/>
<path d="M55.7992 49.5266L29.5189 100.272" stroke="black" stroke-miterlimit="10"/>
<path d="M60.1555 55.5571L33.8551 106.282" stroke="black" stroke-miterlimit="10"/>
<path d="M64.4922 61.5674L38.2119 112.313" stroke="black" stroke-miterlimit="10"/>
<path d="M68.8485 67.578L42.5682 118.323" stroke="black" stroke-miterlimit="10"/>
<path d="M73.2048 73.5884L46.9246 124.334" stroke="black" stroke-miterlimit="10"/>
<path d="M77.5616 79.6189L51.2612 130.344" stroke="black" stroke-miterlimit="10"/>
<path d="M81.8978 85.6292L55.6176 136.374" stroke="black" stroke-miterlimit="10"/>
<path d="M86.2546 91.6395L59.9744 142.385" stroke="black" stroke-miterlimit="10"/>
<path d="M90.6109 97.6499L64.3307 148.395" stroke="black" stroke-miterlimit="10"/>
<path d="M94.9472 103.68L68.6669 154.406" stroke="black" stroke-miterlimit="10"/>
<path d="M99.304 109.691L73.0237 160.436" stroke="black" stroke-miterlimit="10"/>
</g>
<path d="M56.7672 17.0546C47.3684 21.6329 40.0672 29.64 33.9762 38.1312C32.9274 39.5834 31.8988 41.096 31.4147 42.8306C30.9508 44.4844 31.0315 46.2392 31.1323 47.9737C31.2937 50.8377 31.4752 53.6815 31.6971 56.5455C31.7979 57.9574 31.9391 59.4297 32.5442 60.7004C33.1492 61.971 34.1779 62.9795 35.2065 63.9274C37.2839 65.8435 39.5025 67.6789 42.0236 68.9697C44.4641 70.2201 47.1264 70.9462 49.5668 72.1765C52.0073 73.4069 54.3267 75.2826 54.7301 77.8844C58.9454 82.0795 58.2799 89.4211 62.233 93.8583C64.5524 96.4802 68.1022 97.6299 71.5511 98.2954C74.9798 98.961 78.5498 99.2636 81.7566 100.635C86.4358 102.652 90.0259 107.008 91.1755 112.273C91.7201 110.982 92.8496 110.034 94.0598 109.348C95.2699 108.662 96.601 108.219 97.8112 107.331C94.7858 102.41 93.9589 95.855 89.3402 92.4061C85.4678 89.5017 80.1834 89.7438 75.5042 88.4933C69.9376 87.0008 65.0365 83.1485 61.6279 78.1264C60.6397 76.0288 59.7724 73.8707 58.8446 71.4908C58.1185 62.6366 55.5571 53.9437 55.5974 45.0492C55.6176 41.7415 56.0008 38.4338 56.384 35.126C57.1706 28.4097 57.937 21.6531 59.5102 15.078C58.5017 15.8848 57.5135 16.6915 56.7672 17.0546Z" fill="#56B381"/>
<path d="M21.2103 62.3743C21.0893 69.1511 26.5955 75.585 33.3118 76.4926C36.7607 76.9565 40.3104 76.1295 43.719 76.775C46.6637 77.3397 49.3865 79.0541 51.1815 81.4542C54.9128 86.4561 54.5699 93.9388 59.0878 98.2348C63.2829 102.228 69.858 101.805 75.4449 103.338C80.9712 104.83 85.8723 108.501 88.8775 113.362" stroke="black" stroke-miterlimit="10" stroke-linecap="round" stroke-linejoin="round"/>
<path d="M59.2289 14.7756C55.3967 30.3058 54.832 46.6225 57.575 62.3947C58.5633 68.0824 60.0154 73.7902 63.061 78.6913C66.0863 83.5924 70.8865 87.6464 76.5742 88.6548C78.692 89.038 80.8702 88.9775 82.9678 89.4616C86.7798 90.349 90.0269 92.9912 92.3262 96.1577C94.6255 99.3242 96.0575 103.056 97.2677 106.787" stroke="black" stroke-miterlimit="10" stroke-linecap="round" stroke-linejoin="round"/>
<path d="M91.3363 110.699C88.795 105.375 83.8536 101.24 78.1659 99.7073C74.5556 98.7392 70.7034 98.7392 67.2343 97.3677C63.3215 95.8147 60.1751 92.4868 58.844 88.4934C58.1179 86.3353 57.9162 84.0562 57.2708 81.8779C55.8791 77.1382 52.3092 73.1044 47.7913 71.1077C44.6248 69.716 41.0549 69.2924 38.09 67.5176C34.0764 65.0973 31.7973 60.4987 31.0914 55.8599C30.3855 51.221 31.0308 46.5014 31.6964 41.8625" stroke="black" stroke-miterlimit="10" stroke-linecap="round" stroke-linejoin="round"/>
<path d="M19.353 116.589C19.353 116.589 73.5876 119.312 123.002 104.669" stroke="black" stroke-miterlimit="10" stroke-linecap="round"/>
<path d="M197.627 97.8312C198.878 90.1468 198.918 82.2406 196.558 74.8184C195.59 78.9328 193.089 83.3095 190.972 86.9601C188.854 90.6107 185.607 93.7772 181.573 95.0076C178.426 95.9555 174.998 95.6933 171.811 94.8664C171.045 94.6647 170.298 94.4428 169.532 94.3622C168.281 94.2411 167.011 94.4832 165.801 94.7454C162.13 95.5723 158.257 96.8429 156.019 99.8683C154.244 102.268 153.457 105.778 150.855 106.746C148.012 109.146 144.24 110.397 140.529 110.155C136.334 109.872 132.36 107.795 128.165 107.916C126.774 107.956 125.362 108.238 123.97 108.037C125.826 108.662 127.621 109.509 129.275 110.558C130.727 111.465 132.078 112.555 133.631 113.261C134.64 113.704 135.708 114.007 136.777 114.229C143.433 115.56 150.876 113.724 155.514 108.783C156.866 107.331 157.975 105.677 159.306 104.205C160.637 102.732 162.291 101.441 164.227 101.058C165.841 100.736 167.495 101.078 169.108 101.401C170.319 101.663 171.529 101.905 172.779 101.825C176.591 104.628 181.351 106.363 186.071 105.838C190.75 105.334 196.901 102.228 197.627 97.8312Z" fill="white"/>
<mask id="mask1_525_20641" style="mask-type:luminance" maskUnits="userSpaceOnUse" x="113" y="75" width="86" height="41">
<path d="M114.511 115.56C115.096 114.874 116.044 114.632 116.911 114.411C118.222 114.088 119.513 113.745 120.824 113.422C122.357 113.039 123.89 112.636 125.443 112.474C130.848 111.91 136.152 114.027 141.558 114.592C143.312 114.774 145.087 114.794 146.802 114.35C150.23 113.483 152.973 110.962 155.373 108.36C157.773 105.758 160.113 102.975 163.239 101.321C165.66 100.857 168.04 100.333 170.359 100.776C174.272 101.502 177.297 104.81 181.21 105.597C182.299 105.819 183.428 105.839 184.538 105.758C189.641 105.375 194.663 102.672 197.204 98.2552C198.737 90.4094 198.394 82.3419 196.054 75.3029C194.562 79.6997 193.049 84.1571 190.346 87.9287C187.664 91.7003 183.57 94.7458 178.951 95.0887C174.11 95.4315 169.048 92.8499 164.53 94.6853C163.461 95.129 162.493 95.7946 161.545 96.4602C158.641 98.4771 155.696 100.514 153.195 103.015C151.642 104.548 150.25 106.282 148.455 107.513C146.196 109.066 143.373 109.772 140.569 109.389C138.835 110.417 136.636 109.812 134.72 109.207C131.796 108.279 128.77 107.412 125.705 107.573C123.385 107.694 121.126 108.42 118.948 109.247C117.415 109.832 114.148 111.022 113.321 112.474C112.797 113.321 114.289 113.987 114.511 115.56Z" fill="white"/>
</mask>
<g mask="url(#mask1_525_20641)">
<path d="M196.7 56.6466L199.765 113.705" stroke="black" stroke-miterlimit="10"/>
<path d="M190.265 60.3173L193.311 117.396" stroke="black" stroke-miterlimit="10"/>
<path d="M183.811 64.0081L186.877 121.086" stroke="black" stroke-miterlimit="10"/>
<path d="M177.357 67.6991L180.423 124.777" stroke="black" stroke-miterlimit="10"/>
<path d="M170.903 71.39L173.969 128.448" stroke="black" stroke-miterlimit="10"/>
<path d="M164.469 75.0607L167.535 132.139" stroke="black" stroke-miterlimit="10"/>
<path d="M158.015 78.7517L161.081 135.83" stroke="black" stroke-miterlimit="10"/>
<path d="M151.561 82.4426L154.627 139.521" stroke="black" stroke-miterlimit="10"/>
<path d="M145.127 86.1334L148.193 143.192" stroke="black" stroke-miterlimit="10"/>
<path d="M138.673 89.8043L141.739 146.883" stroke="black" stroke-miterlimit="10"/>
<path d="M132.219 93.4951L135.284 150.573" stroke="black" stroke-miterlimit="10"/>
<path d="M125.785 97.1863L128.83 154.265" stroke="black" stroke-miterlimit="10"/>
<path d="M119.331 100.877L122.397 157.935" stroke="black" stroke-miterlimit="10"/>
<path d="M112.877 104.548L115.943 161.626" stroke="black" stroke-miterlimit="10"/>
</g>
<path d="M183.429 41.3988C190.105 49.4462 193.453 59.7526 195.531 70.0186C195.894 71.7733 196.217 73.5886 195.934 75.3634C195.672 77.0576 194.865 78.6308 194.079 80.1636C192.768 82.7049 191.416 85.2261 190.025 87.727C189.339 88.9775 188.633 90.2482 187.544 91.1759C186.475 92.0836 185.124 92.5878 183.792 93.0113C181.11 93.8988 178.327 94.645 175.503 94.7862C172.78 94.9274 170.037 94.4837 167.314 94.5845C164.591 94.6854 161.707 95.4518 160.255 97.6704C154.688 99.7478 152.248 106.726 146.823 109.126C143.616 110.558 139.905 110.135 136.496 109.328C133.087 108.521 129.719 107.311 126.21 107.251C121.107 107.15 116.024 109.651 112.838 113.967C112.858 112.575 112.233 111.244 111.406 110.115C110.579 108.985 109.55 108.037 108.804 106.726C113.604 103.479 117.033 97.8519 122.68 96.6216C127.4 95.5728 132.14 97.9729 136.899 98.7595C142.587 99.6873 148.658 98.2149 153.821 95.0484C155.596 93.5559 157.27 91.9424 159.106 90.1473C165.439 86.5371 169.351 75.5046 172.962 67.3967C174.313 64.3713 175.321 61.2048 176.33 58.0382C178.387 51.5841 180.465 45.13 181.735 38.4742C182.32 39.6037 182.885 40.7332 183.429 41.3988Z" fill="#5A66FF"/>
<path d="M198.476 96.5208C195.793 102.753 186.798 107.15 180.304 105.214C176.976 104.205 174.071 101.987 170.683 101.18C167.758 100.474 164.572 100.918 161.95 102.37C156.484 105.395 153.721 112.353 147.811 114.391C142.325 116.286 136.517 113.201 130.789 112.293C125.141 111.385 119.151 112.696 114.411 115.883" stroke="black" stroke-miterlimit="10" stroke-linecap="round" stroke-linejoin="round"/>
<path d="M182.401 40.854C181.534 45.5534 170.441 75.8876 164.289 84.9233C161.042 89.6832 157.371 94.3019 152.571 97.5088C147.791 100.736 141.74 102.43 136.154 101.018C134.076 100.494 132.1 99.5459 129.982 99.1223C126.13 98.3559 122.076 99.4047 118.687 101.361C115.299 103.318 112.435 106.121 109.793 109.005" stroke="black" stroke-miterlimit="10" stroke-linecap="round" stroke-linejoin="round"/>
<path d="M113.281 112.434C117.779 108.622 123.991 106.907 129.819 107.855C133.51 108.46 137.02 110.054 140.751 110.235C144.946 110.437 149.202 108.702 152.066 105.616C153.599 103.963 154.748 101.946 156.221 100.231C159.448 96.5001 164.369 94.2815 169.31 94.3218C172.78 94.3622 176.208 95.4513 179.637 95.0479C184.296 94.5033 188.269 91.2359 190.831 87.3232C193.392 83.3902 195.49 79.3161 196.801 74.8184" stroke="black" stroke-miterlimit="10" stroke-linecap="round" stroke-linejoin="round"/>
<path d="M84.8029 106.242C78.4295 122.095 77.2798 134.822 82.8263 137.928C90.6116 142.284 108.623 126.149 123.064 101.845C137.505 77.5415 142.89 54.3269 135.104 49.9704C129.719 46.9451 119.453 53.742 108.865 66.2468" stroke="#030000" stroke-miterlimit="10"/>
<path d="M82.8264 49.9906C90.6116 45.6341 108.623 61.7693 123.064 86.073C127.198 93.0313 130.587 99.8888 133.148 106.262C139.522 122.115 140.671 134.842 135.125 137.948C127.339 142.304 109.328 126.169 94.8875 101.865C80.4464 77.5617 75.0411 54.3471 82.8264 49.9906Z" fill="#5A66FF" stroke="#030000" stroke-miterlimit="10"/>
<path d="M122.815 102.254C137.321 78.0018 142.873 54.6285 135.216 50.0487C127.558 45.4688 109.592 61.4166 95.0861 85.6692C80.5804 109.922 75.0286 133.295 82.6857 137.875C90.3429 142.455 108.31 126.507 122.815 102.254Z" fill="#EBEBEB" stroke="#030000" stroke-miterlimit="10"/>
<path d="M108.965 109.751C137.838 109.751 161.244 102.681 161.244 93.9591C161.244 85.2372 137.838 78.1667 108.965 78.1667C80.093 78.1667 56.6873 85.2372 56.6873 93.9591C56.6873 102.681 80.093 109.751 108.965 109.751Z" fill="#56B381" stroke="#030000" stroke-miterlimit="10"/>
<path d="M82.8264 49.9906C90.6116 45.6341 108.623 61.7693 123.064 86.073C127.198 93.0313 130.587 99.8888 133.148 106.262C139.522 122.115 140.671 134.842 135.125 137.948C127.339 142.304 109.328 126.169 94.8875 101.865C80.4464 77.5617 75.0411 54.3471 82.8264 49.9906Z" stroke="#030000" stroke-miterlimit="10"/>
<path d="M122.815 102.254C137.321 78.0018 142.873 54.6285 135.216 50.0487C127.558 45.4688 109.592 61.4166 95.0861 85.6692C80.5804 109.922 75.0286 133.295 82.6857 137.875C90.3429 142.455 108.31 126.507 122.815 102.254Z" stroke="#030000" stroke-miterlimit="10"/>
<path d="M108.965 103.317C114.279 103.317 118.586 99.1275 118.586 93.959C118.586 88.7905 114.279 84.6006 108.965 84.6006C103.652 84.6006 99.3446 88.7905 99.3446 93.959C99.3446 99.1275 103.652 103.317 108.965 103.317Z" fill="#FFF58C" stroke="#030000" stroke-miterlimit="10"/>
<path d="M80.0027 70.926C82.832 70.926 85.1256 68.6956 85.1256 65.9443C85.1256 63.1929 82.832 60.9625 80.0027 60.9625C77.1734 60.9625 74.8798 63.1929 74.8798 65.9443C74.8798 68.6956 77.1734 70.926 80.0027 70.926Z" fill="#56B381" stroke="#030000" stroke-miterlimit="10"/>
<path d="M144.947 88.1101C147.776 88.1101 150.07 85.8797 150.07 83.1284C150.07 80.377 147.776 78.1466 144.947 78.1466C142.118 78.1466 139.824 80.377 139.824 83.1284C139.824 85.8797 142.118 88.1101 144.947 88.1101Z" fill="#5A66FF" stroke="#030000" stroke-miterlimit="10"/>
<path d="M101.503 134.66C104.332 134.66 106.626 132.43 106.626 129.678C106.626 126.927 104.332 124.697 101.503 124.697C98.6735 124.697 96.3799 126.927 96.3799 129.678C96.3799 132.43 98.6735 134.66 101.503 134.66Z" fill="#FF88B6" stroke="#030000" stroke-miterlimit="10"/>
<path d="M123.568 30.5478C124.994 30.5478 126.149 29.392 126.149 27.9662C126.149 26.5404 124.994 25.3845 123.568 25.3845C122.142 25.3845 120.986 26.5404 120.986 27.9662C120.986 29.392 122.142 30.5478 123.568 30.5478Z" fill="#FFF58C" stroke="#181919" stroke-miterlimit="10" stroke-linecap="round" stroke-linejoin="round"/>
<path d="M88.4334 30.5478C89.8592 30.5478 91.0151 29.392 91.0151 27.9662C91.0151 26.5404 89.8592 25.3845 88.4334 25.3845C87.0076 25.3845 85.8518 26.5404 85.8518 27.9662C85.8518 29.392 87.0076 30.5478 88.4334 30.5478Z" fill="#FFF58C" stroke="#181919" stroke-miterlimit="10" stroke-linecap="round" stroke-linejoin="round"/>
<path d="M107.07 15.0177L108.683 19.9994C108.824 20.4633 109.268 20.7658 109.752 20.7658H114.996C116.085 20.7658 116.529 22.1575 115.662 22.7827L111.426 25.8686C111.043 26.151 110.861 26.6552 111.023 27.1191L112.636 32.1009C112.979 33.1295 111.789 33.9967 110.922 33.3513L106.686 30.2655C106.303 29.9831 105.759 29.9831 105.375 30.2655L101.14 33.3513C100.273 33.9967 99.0827 33.1295 99.4256 32.1009L101.039 27.1191C101.18 26.6552 101.019 26.151 100.636 25.8686L96.4002 22.7827C95.5329 22.1373 95.9766 20.7658 97.0658 20.7658H102.31C102.794 20.7658 103.217 20.4633 103.379 19.9994L104.992 15.0177C105.275 13.9891 106.727 13.9891 107.07 15.0177Z" fill="#FFF58C" stroke="#181919" stroke-miterlimit="10" stroke-linecap="round" stroke-linejoin="round"/>
<path d="M107.291 183.53C157.695 183.53 198.556 142.669 198.556 92.2649C198.556 41.8607 157.695 1 107.291 1C56.8871 1 16.0264 41.8607 16.0264 92.2649C16.0264 142.669 56.8871 183.53 107.291 183.53Z" stroke="#1D1D1B" stroke-miterlimit="10"/>
<path d="M211 137.645V170.803C174.817 160.396 142.587 184.095 106 184.095C68.1225 183.792 37.2034 160.396 1 170.803V137.645C37.2438 127.299 68.7276 152.591 106 152.591C140.973 152.873 174.756 127.299 211 137.645Z" fill="white" stroke="#181919" stroke-miterlimit="10"/>
<path d="M20.3013 154.385C19.6155 154.345 19.2525 154.325 18.5667 154.284C18.3449 155.293 18.2238 155.777 18.002 156.785C17.3566 156.765 17.0339 156.765 16.3885 156.745C16.6103 155.737 16.7313 155.232 16.9532 154.224C16.3885 154.204 16.1263 154.204 15.5615 154.204C15.5615 153.659 15.5615 153.397 15.5615 152.852C16.2473 152.852 16.57 152.852 17.2557 152.873C17.4373 152.066 17.5381 151.663 17.7196 150.836C17.0742 150.815 16.7313 150.815 16.0859 150.795C16.0859 150.251 16.0859 149.988 16.0859 149.464C16.8725 149.464 17.2557 149.484 18.0221 149.504C18.244 148.496 18.365 147.992 18.6071 146.983C19.2525 147.003 19.5752 147.024 20.2206 147.064C19.9785 148.072 19.8575 148.577 19.6357 149.565C20.3214 149.605 20.6845 149.625 21.3702 149.686C21.5921 148.698 21.7131 148.193 21.9753 147.185C22.6207 147.245 22.9232 147.266 23.5686 147.326C23.3266 148.335 23.1854 148.839 22.9636 149.827C23.5081 149.888 23.7703 149.908 24.2947 149.968C24.2947 150.493 24.2947 150.775 24.2947 151.299C23.6493 151.219 23.3064 151.199 22.661 151.138C22.4795 151.945 22.3988 152.328 22.2173 153.135C22.8627 153.195 23.1854 153.216 23.851 153.296C23.851 153.841 23.851 154.103 23.8712 154.648C23.1048 154.567 22.7215 154.527 21.9551 154.466C21.7332 155.454 21.6324 155.938 21.4106 156.927C20.7652 156.886 20.4424 156.866 19.8172 156.826C19.9785 155.878 20.0794 155.394 20.3013 154.385ZM18.8491 152.973C19.555 153.014 19.8979 153.034 20.6038 153.074C20.7853 152.268 20.866 151.864 21.0475 151.057C20.3618 150.997 19.9987 150.977 19.313 150.957C19.1314 151.763 19.0306 152.167 18.8491 152.973Z" fill="#181919"/>
<path d="M26.1907 152.308C26.1907 149.545 26.473 148.234 27.1588 147.608C27.5017 147.286 27.9857 147.144 28.6311 147.245C29.2765 147.346 29.7404 147.629 30.043 148.052C30.3657 148.496 30.5472 149.121 30.6279 150.029C31.0716 150.109 31.2733 150.15 31.717 150.23C31.7977 149.262 31.8178 148.798 31.8985 147.83C32.5439 147.951 32.8868 148.012 33.5322 148.133C33.149 152.731 33.3507 155.031 33.4919 159.125C32.8464 159.004 32.5036 158.964 31.8582 158.843C31.8178 157.693 31.8178 157.148 31.7573 155.918C31.3338 155.837 31.1321 155.797 30.7085 155.736C30.6077 156.745 30.3858 157.269 30.0228 157.612C29.7001 157.915 29.2362 158.016 28.5908 157.915C27.9656 157.834 27.4613 157.592 27.1386 157.189C26.473 156.402 26.1907 155.091 26.1907 152.308ZM27.8042 152.55C27.8042 154.869 27.9252 155.858 28.1672 156.261C28.2681 156.422 28.4093 156.503 28.5504 156.523C28.7118 156.543 28.853 156.503 28.9337 156.382C29.1757 156.059 29.1354 155.091 29.1354 152.772C29.1354 150.472 29.1354 149.464 28.9135 149.02C28.8328 148.859 28.7118 148.778 28.5504 148.738C28.4093 148.718 28.2681 148.758 28.1471 148.899C27.905 149.242 27.8042 150.251 27.8042 152.55ZM30.7085 151.501C30.7287 151.965 30.7489 152.469 30.7489 153.034C30.7489 153.498 30.7489 153.901 30.7489 154.284C31.1321 154.345 31.3136 154.385 31.6968 154.466C31.6565 153.357 31.6565 152.792 31.6565 151.683C31.2935 151.602 31.0918 151.562 30.7085 151.501ZM34.1574 159.347C33.9961 155.212 33.7742 152.872 34.1978 148.173C34.8634 148.294 35.1861 148.375 35.8516 148.496C35.3877 153.195 35.6298 155.555 35.8113 159.649C35.1457 159.528 34.823 159.468 34.1574 159.347Z" fill="#181919"/>
<path d="M42.3862 156.422C42.366 156.16 42.3458 156.019 42.3458 155.757C40.6516 155.353 39.8247 155.172 38.1305 154.789C38.1305 154.224 38.1305 153.942 38.1305 153.377C42.1441 154.284 44.1409 154.789 48.2755 155.737C48.2755 156.301 48.2755 156.584 48.2755 157.149C46.541 156.745 45.6939 156.543 43.9795 156.14C43.9795 156.402 43.9997 156.543 44.0198 156.806C45.4317 157.148 46.1376 157.31 47.5696 157.633C47.6503 158.923 47.6906 159.629 47.7511 160.759C44.9073 160.093 43.5156 159.75 40.7121 159.105C40.7121 159.286 40.7323 159.387 40.7323 159.569C43.6367 160.214 45.109 160.577 48.0335 161.283C48.0537 161.767 48.0738 162.009 48.094 162.493C44.4837 161.606 42.6887 161.182 39.0986 160.416C39.0381 159.266 39.0179 158.782 38.9373 157.471C41.7408 158.096 43.1324 158.439 45.9561 159.105C45.9359 158.903 45.9359 158.782 45.9157 158.581C43.0921 157.915 41.6803 157.572 38.8969 156.947C38.8566 156.402 38.8566 156.14 38.8162 155.595C40.2684 155.938 40.9743 156.1 42.3862 156.422ZM43.2333 152.631C42.245 153.316 40.571 153.478 38.433 153.155C38.433 152.59 38.4129 152.328 38.4734 151.723C40.7726 151.985 42.487 151.622 42.6484 150.21C42.6484 150.15 42.6484 150.13 42.6685 150.089C43.3341 150.251 43.677 150.331 44.3426 150.473C44.3426 150.533 44.3426 150.553 44.3224 150.594C44.1409 152.005 45.6737 153.135 47.973 153.921C47.9125 154.506 47.9326 154.789 47.9326 155.353C45.7746 154.708 43.9997 153.74 43.2333 152.631Z" fill="#181919"/>
<path d="M54.8711 155.656C54.8912 155.232 54.9114 155.031 54.9316 154.627C53.318 154.284 52.5315 154.103 50.9381 153.76C50.9986 153.155 51.039 152.852 51.0995 152.227C53.3382 152.752 54.4475 153.014 56.7065 153.498C56.6661 154.426 56.6459 154.889 56.6258 155.817C56.4644 160.194 55.0526 162.675 50.9986 162.594C50.9784 162.009 50.9583 161.727 50.9381 161.162C53.7416 161.061 54.6492 159.085 54.8711 155.656ZM60.1352 158.459C60.8411 158.601 61.184 158.661 61.8899 158.822C61.8899 159.407 61.8899 159.71 61.8899 160.295C61.184 160.133 60.8411 160.073 60.1352 159.932C60.1352 162.09 60.1352 163.199 60.115 165.398C59.4293 165.216 59.0864 165.135 58.3805 164.974C58.3603 160.476 58.3402 158.177 58.3805 153.619C59.0662 153.76 59.4091 153.841 60.115 153.982C60.1352 155.777 60.1352 156.664 60.1352 158.459Z" fill="#181919"/>
<path d="M71.914 164.934C71.208 164.732 70.845 164.651 70.1391 164.45C69.9172 165.418 69.776 166.003 69.5138 167.072C68.8684 166.89 68.5458 166.809 67.9003 166.628C68.1424 165.559 68.2836 164.994 68.5256 164.026C67.9608 163.885 67.6986 163.804 67.1339 163.663C67.1339 163.118 67.1339 162.836 67.1339 162.292C67.7995 162.473 68.1424 162.554 68.8281 162.735C69.0096 161.949 69.1105 161.565 69.292 160.779C68.6264 160.597 68.3037 160.517 67.6381 160.355C67.6381 159.811 67.6381 159.549 67.6381 159.004C68.4247 159.206 68.8079 159.307 69.5945 159.508C69.8366 158.54 69.9374 158.137 70.1593 157.249C70.8047 157.431 71.1475 157.511 71.793 157.693C71.5711 158.58 71.4703 158.984 71.2282 159.952C71.9341 160.154 72.2972 160.234 73.0031 160.436C73.2451 159.468 73.346 159.064 73.5678 158.197C74.2132 158.379 74.5359 158.459 75.2015 158.641C74.9797 159.528 74.8788 159.932 74.6368 160.88C75.2015 161.041 75.4839 161.122 76.0285 161.263C76.0285 161.807 76.0285 162.07 76.0285 162.614C75.3427 162.433 74.9998 162.332 74.3141 162.13C74.1326 162.897 74.0317 163.3 73.8502 164.066C74.5158 164.248 74.8587 164.349 75.5242 164.53C75.5242 165.075 75.5242 165.357 75.5242 165.902C74.7376 165.68 74.3342 165.579 73.5476 165.357C73.3258 166.325 73.1846 166.91 72.9224 167.979C72.277 167.798 71.9543 167.717 71.2887 167.535C71.5308 166.487 71.6719 165.902 71.914 164.934ZM70.4416 163.159C71.1475 163.361 71.5106 163.441 72.2165 163.643C72.398 162.856 72.4989 162.473 72.6804 161.686C71.9745 161.485 71.6114 161.384 70.8854 161.202C70.724 161.989 70.6232 162.372 70.4416 163.159Z" fill="#181919"/>
<path d="M81.4134 170.319C80.1024 169.996 79.4368 169.815 78.1259 169.472C78.2469 164.772 78.2065 162.776 78.1662 158.843C78.8721 159.024 79.2351 159.125 79.9411 159.327C79.9814 162.715 80.0419 164.288 79.9411 168.302C80.5865 168.463 80.9091 168.564 81.5546 168.725C82.1193 168.867 82.684 168.988 83.1479 168.988C83.1278 169.593 83.1277 169.895 83.1075 170.521C82.6437 170.581 82.0184 170.48 81.4134 170.319ZM83.6723 171.569C83.7328 168.988 83.7328 167.757 83.7328 165.377C82.8656 165.156 82.4218 165.035 81.5546 164.813C81.5546 164.228 81.5546 163.925 81.5546 163.32C82.4218 163.542 82.8656 163.663 83.7328 163.885C83.7328 162.352 83.7127 161.666 83.7127 160.214C84.3984 160.375 84.7413 160.456 85.427 160.618C85.4674 164.893 85.4673 167.092 85.3867 171.953C84.7211 171.811 84.3581 171.731 83.6723 171.569ZM86.254 172.295C86.3347 167.374 86.3346 165.135 86.2943 160.779C86.98 160.94 87.3229 161.021 88.0288 161.162C88.0691 165.559 88.0692 167.798 87.9885 172.658C87.2826 172.517 86.9397 172.437 86.254 172.295Z" fill="#181919"/>
<path d="M90.8728 171.125C95.1285 171.912 97.2462 172.235 101.482 172.396C101.482 172.981 101.482 173.284 101.482 173.868C97.2462 173.707 95.1083 173.425 90.8527 172.658C90.8527 172.053 90.8526 171.731 90.8728 171.125ZM93.2528 163.784C93.2528 164.369 93.2528 164.671 93.2528 165.276C96.258 165.781 97.7505 165.982 100.735 166.144C100.735 166.729 100.735 167.011 100.735 167.596C97.7505 167.435 96.258 167.233 93.2528 166.729C93.2528 167.354 93.2528 167.677 93.2528 168.302C96.3588 168.826 97.9118 169.008 100.998 169.169C100.998 169.754 100.998 170.036 100.998 170.621C97.1857 170.42 95.2898 170.157 91.4577 169.431C91.4577 166.426 91.4577 164.913 91.4577 162.009C95.2293 162.695 97.1051 162.957 100.877 163.139C100.877 163.723 100.877 164.026 100.877 164.611C97.8312 164.47 96.3185 164.288 93.2528 163.784Z" fill="#181919"/>
<path d="M108.238 170.863C108.238 172.235 108.238 172.921 108.238 174.272C107.532 174.312 107.169 174.332 106.463 174.373C106.463 173.001 106.463 172.336 106.463 170.964C105.435 171.004 104.931 171.025 103.902 171.025C103.902 170.44 103.902 170.137 103.902 169.532C106.262 169.532 107.432 169.451 109.811 169.25C110.457 169.189 111.001 169.129 111.546 168.947C111.546 169.512 111.546 169.794 111.546 170.359C111.001 170.581 110.396 170.702 109.731 170.762C109.126 170.783 108.843 170.823 108.238 170.863ZM104.366 166.043C104.366 165.014 104.749 164.207 105.435 163.703C105.979 163.28 106.746 163.058 107.633 162.997C108.541 162.937 109.307 163.078 109.852 163.441C110.538 163.865 110.941 164.651 110.941 165.68C110.941 166.688 110.538 167.535 109.852 168.08C109.287 168.524 108.541 168.806 107.633 168.867C106.726 168.927 105.979 168.746 105.435 168.362C104.749 167.858 104.366 167.071 104.366 166.043ZM106.141 166.003C106.141 166.466 106.282 166.87 106.564 167.092C106.806 167.293 107.169 167.394 107.653 167.374C108.158 167.354 108.521 167.193 108.763 166.971C109.045 166.708 109.186 166.305 109.186 165.821C109.186 165.337 109.045 164.954 108.763 164.732C108.521 164.53 108.158 164.429 107.653 164.45C107.169 164.47 106.806 164.631 106.564 164.853C106.282 165.115 106.141 165.518 106.141 166.003ZM113.986 173.667C113.26 173.768 112.918 173.808 112.191 173.889C112.191 173.405 112.191 173.163 112.191 172.678C111.183 172.8 110.699 172.84 109.69 172.941C109.69 172.356 109.69 172.053 109.69 171.468C110.679 171.388 111.183 171.327 112.191 171.206C112.191 167.697 112.191 166.023 112.191 162.493C112.897 162.392 113.26 162.352 113.986 162.251C114.007 166.89 113.986 169.068 113.986 173.667Z" fill="#181919"/>
<path d="M121.227 162.534C119.614 162.876 118.807 163.038 117.193 163.32C117.193 162.715 117.193 162.433 117.173 161.828C119.513 161.404 120.662 161.142 123.002 160.617C123.002 161.061 123.002 161.283 123.022 161.727C123.083 165.317 120.985 167.253 116.911 168.403C116.911 167.818 116.911 167.515 116.911 166.951C118.585 166.446 119.755 165.821 120.461 165.014C120.017 165.176 119.432 165.317 118.726 165.458C118.121 165.579 117.818 165.619 117.213 165.74C117.213 165.176 117.234 164.913 117.213 164.329C117.839 164.228 118.161 164.167 118.807 164.046C119.936 163.824 120.743 163.623 121.207 163.381C121.207 163.118 121.227 162.836 121.227 162.534ZM117.758 170.803C117.758 169.976 118.202 169.29 118.847 168.786C119.795 168.04 121.167 167.596 122.457 167.314C123.748 167.031 125.14 166.87 126.068 167.193C126.733 167.435 127.197 167.919 127.197 168.766C127.197 169.613 126.774 170.339 126.088 170.904C125.16 171.67 123.789 172.154 122.478 172.436C121.187 172.719 119.795 172.82 118.867 172.457C118.202 172.154 117.758 171.63 117.758 170.803ZM119.553 170.46C119.553 170.742 119.714 170.924 119.997 171.025C120.561 171.226 121.55 171.126 122.478 170.924C123.426 170.722 124.414 170.399 124.979 169.956C125.261 169.734 125.422 169.472 125.422 169.189C125.422 168.907 125.241 168.746 124.979 168.645C124.414 168.463 123.426 168.604 122.478 168.806C121.55 169.008 120.561 169.31 119.997 169.734C119.694 169.956 119.553 170.178 119.553 170.46ZM125.12 166.527C125.1 163.844 125.16 162.755 125.1 159.972C125.805 159.791 126.169 159.71 126.895 159.528C126.935 162.312 126.895 163.401 126.915 166.083C126.189 166.265 125.826 166.345 125.12 166.527Z" fill="#181919"/>
<path d="M138.492 164.591C137.786 164.793 137.443 164.893 136.717 165.075C136.495 166.184 136.394 166.749 136.173 167.858C135.527 168.04 135.204 168.141 134.539 168.302C134.761 167.193 134.862 166.628 135.083 165.519C134.519 165.68 134.236 165.761 133.692 165.902C133.692 165.337 133.692 165.055 133.672 164.51C134.357 164.329 134.68 164.228 135.366 164.046C135.547 163.139 135.648 162.735 135.85 161.908C135.184 162.09 134.862 162.191 134.196 162.372C134.196 161.868 134.216 161.626 134.216 161.122C135.003 160.9 135.386 160.799 136.173 160.577C136.415 159.569 136.515 158.903 136.717 157.733C137.362 157.552 137.705 157.451 138.351 157.29C138.149 158.46 138.048 159.105 137.806 160.134C138.512 159.932 138.855 159.831 139.561 159.629C139.803 158.601 139.884 157.955 140.105 156.806C140.751 156.624 141.074 156.543 141.719 156.362C141.497 157.512 141.416 158.157 141.174 159.165C141.719 159.004 142.001 158.923 142.546 158.782C142.546 159.286 142.546 159.549 142.526 160.053C141.86 160.234 141.517 160.335 140.832 160.517C140.63 161.344 140.529 161.767 140.368 162.655C141.033 162.473 141.376 162.372 142.042 162.191C142.042 162.756 142.042 163.018 142.042 163.582C141.255 163.804 140.872 163.905 140.085 164.127C139.863 165.236 139.763 165.781 139.541 166.91C138.895 167.092 138.573 167.193 137.927 167.374C138.169 166.265 138.29 165.7 138.492 164.591ZM137.02 163.603C137.725 163.401 138.089 163.3 138.794 163.119C138.976 162.231 139.077 161.808 139.258 160.981C138.552 161.182 138.189 161.283 137.483 161.465C137.302 162.271 137.201 162.695 137.02 163.603Z" fill="#181919"/>
<path d="M144.562 158.157C144.583 157.007 144.905 155.898 145.531 155.172C146.035 154.587 146.761 154.184 147.628 153.982C148.495 153.78 149.221 153.841 149.746 154.143C150.411 154.526 150.754 155.273 150.795 156.503C150.815 157.733 150.472 158.722 149.786 159.448C149.221 160.033 148.515 160.436 147.648 160.638C146.781 160.859 146.075 160.819 145.551 160.476C144.885 160.073 144.542 159.327 144.562 158.157ZM145.369 166.124C145.369 164.49 145.349 163.663 145.349 162.029C146.035 161.848 146.398 161.747 147.083 161.586C147.083 162.614 147.083 163.139 147.083 164.167C149.947 163.401 151.44 163.018 154.445 162.271C154.445 162.836 154.465 163.118 154.465 163.703C150.734 164.611 148.939 165.115 145.369 166.124ZM146.257 157.693C146.257 158.379 146.418 158.843 146.7 159.044C146.922 159.226 147.245 159.266 147.628 159.165C148.011 159.064 148.334 158.863 148.556 158.58C148.838 158.217 149.02 157.653 149 156.947C148.979 156.241 148.818 155.777 148.556 155.555C148.334 155.373 148.011 155.333 147.628 155.434C147.245 155.535 146.922 155.737 146.7 156.039C146.418 156.422 146.257 157.007 146.257 157.693ZM152.489 160.819C152.691 157.653 152.529 155.958 152.529 152.893C153.255 152.711 153.618 152.63 154.344 152.449C154.344 155.494 154.546 157.229 154.284 160.396C153.578 160.557 153.215 160.638 152.489 160.819Z" fill="#181919"/>
<path d="M160.718 159.085C159.951 160.335 158.6 161.505 157.128 162.231C157.108 161.626 157.108 161.344 157.087 160.739C158.499 159.831 160.173 158.641 159.972 155.253C159.871 153.518 159.871 152.772 159.871 151.199C160.617 151.017 160.98 150.936 161.726 150.755C161.746 152.348 161.726 153.115 161.847 154.849C162.049 158.238 162.795 158.883 164.247 159.145C164.268 159.73 164.268 160.033 164.288 160.618C162.795 160.537 161.242 160.033 160.718 159.085ZM167.656 153.921C168.402 153.78 168.785 153.7 169.532 153.558C169.572 154.184 169.653 154.506 169.592 155.091C168.846 155.232 168.463 155.313 167.716 155.454C167.454 157.592 167.394 158.641 167.434 160.698C166.688 160.839 166.305 160.92 165.558 161.081C165.458 156.765 165.7 154.264 165.639 149.706C166.385 149.525 166.748 149.444 167.495 149.283C167.535 151.098 167.535 152.005 167.656 153.921Z" fill="#181919"/>
<path d="M177.882 153.034C177.962 155.111 177.499 156.564 176.732 157.552C176.228 158.238 175.401 158.681 174.413 158.843C173.445 159.004 172.597 158.822 172.053 158.318C171.266 157.592 171.529 156.221 171.408 154.123C171.286 152.046 171.407 150.412 172.154 149.303C172.678 148.536 173.485 148.012 174.453 147.83C175.441 147.649 176.268 147.891 176.793 148.476C177.579 149.343 177.801 150.977 177.882 153.034ZM173.243 153.8C173.324 155.575 173.041 156.725 173.465 157.189C173.666 157.411 174.009 157.512 174.392 157.431C174.776 157.35 175.119 157.169 175.32 156.866C175.724 156.261 176.127 155.071 176.046 153.316C175.966 151.582 175.845 150.251 175.421 149.726C175.219 149.464 174.856 149.363 174.493 149.424C174.13 149.484 173.787 149.706 173.586 150.029C173.203 150.694 173.162 152.046 173.243 153.8ZM181.391 158.459C180.645 158.54 180.282 158.601 179.536 158.681C179.475 154.264 179.636 152.066 179.536 146.963C180.282 146.862 180.645 146.802 181.391 146.721C181.492 151.844 181.351 154.002 181.391 158.459Z" fill="#181919"/>
<path d="M184.518 156.18C188.935 155.737 191.113 155.616 195.348 155.616C195.348 156.2 195.348 156.503 195.348 157.088C191.133 157.088 188.935 157.209 184.538 157.632C184.518 157.048 184.518 156.765 184.518 156.18ZM186.978 148.072C186.998 148.758 186.998 149.121 186.998 149.726C190.064 149.484 191.597 149.424 194.582 149.403C194.582 149.988 194.582 150.271 194.582 150.856C191.597 150.876 190.084 150.956 187.019 151.198C187.019 151.824 187.039 152.146 187.019 152.772C190.185 152.509 191.758 152.429 194.844 152.409C194.844 152.994 194.844 153.276 194.844 153.861C191.032 153.881 189.076 154.002 185.143 154.385C185.244 151.4 185.163 149.908 185.102 146.539C188.995 146.217 190.911 146.156 194.703 146.378C194.703 146.983 194.703 147.266 194.703 147.871C191.678 147.81 190.104 147.85 186.978 148.072Z" fill="#181919"/>
</svg>
