<svg width="92" height="92" viewBox="0 0 92 92" fill="none" xmlns="http://www.w3.org/2000/svg">
<path d="M45.9106 90.8213C70.7141 90.8213 90.8213 70.7141 90.8213 45.9106C90.8213 21.1072 70.7141 1 45.9106 1C21.1072 1 1 21.1072 1 45.9106C1 70.7141 21.1072 90.8213 45.9106 90.8213Z" fill="#EBEBEB"/>
<path d="M57.9397 16.89C58.729 16.89 59.3689 16.2501 59.3689 15.4608C59.3689 14.6715 58.729 14.0316 57.9397 14.0316C57.1504 14.0316 56.5105 14.6715 56.5105 15.4608C56.5105 16.2501 57.1504 16.89 57.9397 16.89Z" fill="#FFF58C" stroke="#181919" stroke-miterlimit="10" stroke-linecap="round" stroke-linejoin="round"/>
<path d="M38.5759 16.89C39.3653 16.89 40.0051 16.2501 40.0051 15.4608C40.0051 14.6715 39.3653 14.0316 38.5759 14.0316C37.7866 14.0316 37.1467 14.6715 37.1467 15.4608C37.1467 16.2501 37.7866 16.89 38.5759 16.89Z" fill="#FFF58C" stroke="#181919" stroke-miterlimit="10" stroke-linecap="round" stroke-linejoin="round"/>
<path d="M48.8485 8.32468L49.7418 11.0739C49.8212 11.332 50.0594 11.5007 50.3274 11.5007H53.2155C53.811 11.5007 54.0592 12.2649 53.5828 12.6123L51.2405 14.3095C51.0221 14.4683 50.9328 14.7462 51.0122 14.9943L51.9055 17.7435C52.094 18.3092 51.439 18.7856 50.9526 18.4283L48.6104 16.7312C48.392 16.5724 48.1042 16.5724 47.8858 16.7312L45.5435 18.4283C45.0572 18.7757 44.4121 18.3092 44.5907 17.7435L45.484 14.9943C45.5634 14.7362 45.4741 14.4583 45.2557 14.3095L42.9134 12.6123C42.4271 12.2649 42.6752 11.5007 43.2806 11.5007H46.1688C46.4368 11.5007 46.675 11.332 46.7544 11.0739L47.6476 8.32468C47.8561 7.74903 48.66 7.74903 48.8485 8.32468Z" fill="#FFF58C" stroke="#181919" stroke-miterlimit="10" stroke-linecap="round" stroke-linejoin="round"/>
<path d="M57.9397 16.89C58.729 16.89 59.3689 16.2501 59.3689 15.4608C59.3689 14.6715 58.729 14.0316 57.9397 14.0316C57.1504 14.0316 56.5105 14.6715 56.5105 15.4608C56.5105 16.2501 57.1504 16.89 57.9397 16.89Z" fill="#FFF58C" stroke="#181919" stroke-miterlimit="10" stroke-linecap="round" stroke-linejoin="round"/>
<path d="M38.5759 16.89C39.3653 16.89 40.0051 16.2501 40.0051 15.4608C40.0051 14.6715 39.3653 14.0316 38.5759 14.0316C37.7866 14.0316 37.1467 14.6715 37.1467 15.4608C37.1467 16.2501 37.7866 16.89 38.5759 16.89Z" fill="#FFF58C" stroke="#181919" stroke-miterlimit="10" stroke-linecap="round" stroke-linejoin="round"/>
<path d="M48.8485 8.32468L49.7418 11.0739C49.8212 11.332 50.0594 11.5007 50.3274 11.5007H53.2155C53.811 11.5007 54.0592 12.2649 53.5828 12.6123L51.2405 14.3095C51.0221 14.4683 50.9328 14.7462 51.0122 14.9943L51.9055 17.7435C52.094 18.3092 51.439 18.7856 50.9526 18.4283L48.6104 16.7312C48.392 16.5724 48.1042 16.5724 47.8858 16.7312L45.5435 18.4283C45.0572 18.7757 44.4121 18.3092 44.5907 17.7435L45.484 14.9943C45.5634 14.7362 45.4741 14.4583 45.2557 14.3095L42.9134 12.6123C42.4271 12.2649 42.6752 11.5007 43.2806 11.5007H46.1688C46.4368 11.5007 46.675 11.332 46.7544 11.0739L47.6476 8.32468C47.8561 7.74903 48.66 7.74903 48.8485 8.32468Z" fill="#FFF58C" stroke="#181919" stroke-miterlimit="10" stroke-linecap="round" stroke-linejoin="round"/>
<mask id="mask0_574_4202" style="mask-type:luminance" maskUnits="userSpaceOnUse" x="3" y="21" width="36" height="36">
<path d="M36.9782 56.2129C36.8492 55.7862 36.482 55.4884 36.1346 55.2105C35.6185 54.7937 35.1024 54.3867 34.5863 53.9699C33.9809 53.4836 33.3755 52.9972 32.7006 52.6102C30.388 51.2604 27.5892 51.1313 25.0484 50.2877C24.2246 50.0098 23.4207 49.6624 22.7458 49.1166C21.386 48.0347 20.6715 46.3376 20.1157 44.69C19.5598 43.0425 19.0834 41.3155 18.0215 39.9359C17.029 39.2412 16.0662 38.5266 14.9348 38.2487C13.0292 37.7822 11.0045 38.6457 9.08897 38.2189C8.55302 38.0998 8.04684 37.8815 7.57044 37.6135C5.36709 36.4126 3.65007 34.1794 3.41187 31.6783C4.31504 27.8572 6.10155 24.3041 8.5828 21.6144C8.36445 23.8872 8.13617 26.1898 8.5828 28.4329C9.02942 30.6759 10.2303 32.8693 12.2352 33.9512C14.3393 35.0925 17.1282 34.9635 18.7758 36.6905C19.1728 37.1073 19.4606 37.5936 19.7583 38.0899C20.6516 39.5886 21.5548 41.0972 22.1701 42.7249C22.5473 43.7273 22.8252 44.7893 23.381 45.7024C24.0757 46.8537 25.2072 47.7469 26.547 48.1439C27.1128 48.9578 28.2244 49.1364 29.2069 49.2555C30.7056 49.4342 32.2341 49.6525 33.5839 50.3473C34.6061 50.8733 35.4696 51.6574 36.2736 52.4712C36.8393 53.0369 38.07 54.2379 38.1394 55.0616C38.2089 55.548 37.3951 55.548 36.9782 56.2129Z" fill="white"/>
</mask>
<g mask="url(#mask0_574_4202)">
<path d="M3.51128 1.27795L-9.44086 26.2493" stroke="black" stroke-miterlimit="10"/>
<path d="M5.64514 4.23572L-7.29706 29.207" stroke="black" stroke-miterlimit="10"/>
<path d="M7.78896 7.20312L-5.15326 32.1645" stroke="black" stroke-miterlimit="10"/>
<path d="M9.93275 10.1608L-3.00946 35.1321" stroke="black" stroke-miterlimit="10"/>
<path d="M12.0765 13.1187L-0.865662 38.09" stroke="black" stroke-miterlimit="10"/>
<path d="M14.2203 16.0762L1.27814 41.0475" stroke="black" stroke-miterlimit="10"/>
<path d="M16.3641 19.0438L3.42194 44.0052" stroke="black" stroke-miterlimit="10"/>
<path d="M18.5079 22.0013L5.56573 46.9727" stroke="black" stroke-miterlimit="10"/>
<path d="M20.6517 24.9591L7.70953 49.9304" stroke="black" stroke-miterlimit="10"/>
<path d="M22.7955 27.9166L9.85333 52.8879" stroke="black" stroke-miterlimit="10"/>
<path d="M24.9396 30.8843L11.9974 55.8457" stroke="black" stroke-miterlimit="10"/>
<path d="M27.0831 33.842L14.1409 58.8134" stroke="black" stroke-miterlimit="10"/>
<path d="M29.2269 36.7997L16.2747 61.771" stroke="black" stroke-miterlimit="10"/>
<path d="M31.3709 39.7672L18.4188 64.7286" stroke="black" stroke-miterlimit="10"/>
<path d="M33.5145 42.7249L20.5623 67.6962" stroke="black" stroke-miterlimit="10"/>
<path d="M35.6582 45.6825L22.7061 70.6538" stroke="black" stroke-miterlimit="10"/>
<path d="M37.8023 48.6401L24.8502 73.6114" stroke="black" stroke-miterlimit="10"/>
<path d="M39.9458 51.6077L26.9937 76.5691" stroke="black" stroke-miterlimit="10"/>
<path d="M42.0899 54.5653L29.1378 79.5366" stroke="black" stroke-miterlimit="10"/>
</g>
<path d="M68.2124 46.0099C69.4232 45.206 70.1279 43.8264 70.5547 42.4468C70.9914 41.0573 71.1998 39.6083 71.706 38.2485C72.8771 35.1122 75.4775 32.7402 78.1572 30.7254C80.2812 29.1275 82.6235 27.5295 83.5961 25.0582C83.9137 24.2444 84.0626 23.371 84.4695 22.6067C82.693 18.7757 79.8445 15.8577 77.0556 13.0291C76.5196 12.4832 75.9737 11.9373 75.3485 11.4907C73.0161 12.3939 71.1204 14.1804 69.7805 16.2448C68.4406 18.3092 67.597 20.6515 66.7931 22.9839C66.5748 23.629 66.3465 24.294 66.3663 24.9788C66.3862 25.7133 66.674 26.4576 66.4656 27.1623C65.9792 29.8024 66.1678 32.5615 67.329 34.9137C67.6268 35.5092 67.9841 36.0948 68.1131 36.7399C68.2124 37.2263 68.1925 37.7324 68.2719 38.2287C68.3612 38.7547 68.5697 39.2609 68.6491 39.7968C68.8674 41.3054 67.9841 42.7644 66.942 43.8859C66.6045 44.2432 66.2472 44.5906 65.7907 44.7891C64.6592 45.2854 63.3789 44.6899 62.2375 44.2035C60.2426 43.3599 58.079 42.814 55.9054 42.9034C53.7318 42.9927 51.5582 43.7569 49.9702 45.2357C49.0373 46.1091 48.3425 47.2009 47.7371 48.3323C47.0423 49.6325 46.4568 51.0022 46.0399 52.6199C46.4369 52.6497 46.8537 52.4115 47.2309 52.5505C47.3401 52.5902 47.4294 52.6596 47.5386 52.6894C47.6775 52.739 47.8264 52.7192 47.9753 52.7192C48.6403 52.6993 49.3152 52.8681 49.9801 53.4636C50.5558 51.8756 51.588 50.4662 52.9279 49.4439C53.3546 49.1164 53.8211 48.8286 54.3273 48.6301C55.0617 48.3522 55.8657 48.2827 56.6497 48.2232C58.9722 48.0445 61.2947 47.9155 63.627 47.8262C64.4707 47.7964 65.3341 47.7666 66.1381 47.4887C66.9618 47.2307 67.4978 46.4863 68.2124 46.0099Z" fill="white"/>
<mask id="mask1_574_4202" style="mask-type:luminance" maskUnits="userSpaceOnUse" x="46" y="11" width="39" height="43">
<path d="M68.2124 46.1488C69.4232 45.3449 70.1279 43.9653 70.5547 42.5857C70.9914 41.1962 71.1998 39.7472 71.706 38.3875C72.8771 35.2511 75.4775 32.8791 78.1572 30.8643C80.2812 29.2664 82.6235 27.6684 83.5961 25.1971C83.9137 24.3833 84.0626 23.5099 84.4695 22.7456C82.693 18.9146 79.8445 15.9966 77.0556 13.168C76.5196 12.6221 75.9737 12.0763 75.3485 11.6296C73.0161 12.5328 71.1204 14.3193 69.7805 16.3837C68.4406 18.4481 67.597 20.7904 66.7931 23.1228C66.5748 23.7679 66.3465 24.4329 66.3663 25.1177C66.3862 25.8522 66.674 26.5965 66.4656 27.3012C65.9792 29.9413 66.1678 32.7004 67.329 35.0526C67.6268 35.6481 67.9841 36.2337 68.1131 36.8788C68.2124 37.3652 68.1925 37.8714 68.2719 38.3676C68.3612 38.8936 68.5697 39.3998 68.6491 39.9358C68.8674 41.4444 67.9841 42.9033 66.942 44.0249C66.6045 44.3822 66.2472 44.7295 65.7907 44.928C64.6592 45.4243 63.3789 44.8288 62.2375 44.3425C60.2426 43.4988 58.079 42.953 55.9054 43.0423C53.7318 43.1316 51.5582 43.8958 49.9702 45.3747C49.0373 46.2481 48.3425 47.3398 47.7371 48.4713C47.0423 49.7714 46.4568 51.1411 46.0399 52.7589C46.4369 52.7886 46.8537 52.5504 47.2309 52.6894C47.3401 52.7291 47.4294 52.7986 47.5386 52.8283C47.6775 52.878 47.8264 52.8581 47.9753 52.8581C48.6403 52.8383 49.3152 53.007 49.9801 53.6025C50.5558 52.0145 51.588 50.6051 52.9279 49.5829C53.3546 49.2553 53.8211 48.9675 54.3273 48.769C55.0617 48.4911 55.8657 48.4216 56.6497 48.3621C58.9722 48.1834 61.2947 48.0544 63.627 47.9651C64.4707 47.9353 65.3341 47.9055 66.1381 47.6276C66.9618 47.3696 67.4978 46.6252 68.2124 46.1488Z" fill="white"/>
</mask>
<g mask="url(#mask1_574_4202)">
<path d="M83.9234 0.682495L96.8656 25.6538" stroke="black" stroke-miterlimit="10"/>
<path d="M81.7598 3.13391L94.7119 28.1052" stroke="black" stroke-miterlimit="10"/>
<path d="M79.606 5.58545L92.5482 30.5468" stroke="black" stroke-miterlimit="10"/>
<path d="M77.4425 8.03687L90.3847 32.9983" stroke="black" stroke-miterlimit="10"/>
<path d="M75.2789 10.4784L88.231 35.4497" stroke="black" stroke-miterlimit="10"/>
<path d="M73.1248 12.9299L86.0671 37.9012" stroke="black" stroke-miterlimit="10"/>
<path d="M70.9612 15.3815L83.9134 40.3528" stroke="black" stroke-miterlimit="10"/>
<path d="M68.7976 17.8329L81.7498 42.8042" stroke="black" stroke-miterlimit="10"/>
<path d="M66.6441 20.2843L79.5863 45.2556" stroke="black" stroke-miterlimit="10"/>
<path d="M64.4803 22.7357L77.4324 47.6971" stroke="black" stroke-miterlimit="10"/>
<path d="M62.3267 25.1875L75.2689 50.1489" stroke="black" stroke-miterlimit="10"/>
<path d="M60.1631 27.6288L73.1053 52.6001" stroke="black" stroke-miterlimit="10"/>
<path d="M57.9993 30.0803L70.9514 55.0516" stroke="black" stroke-miterlimit="10"/>
<path d="M55.8455 32.5319L68.7877 57.5032" stroke="black" stroke-miterlimit="10"/>
<path d="M53.6819 34.9833L66.6341 59.9546" stroke="black" stroke-miterlimit="10"/>
<path d="M51.5181 37.4347L64.4702 62.406" stroke="black" stroke-miterlimit="10"/>
<path d="M49.3646 39.8864L62.3068 64.8477" stroke="black" stroke-miterlimit="10"/>
<path d="M47.2009 42.3278L60.1531 67.2991" stroke="black" stroke-miterlimit="10"/>
<path d="M45.0472 44.7794L57.9894 69.7507" stroke="black" stroke-miterlimit="10"/>
<path d="M42.8833 47.2307L55.8255 72.202" stroke="black" stroke-miterlimit="10"/>
<path d="M40.7197 49.6821L53.6719 74.6534" stroke="black" stroke-miterlimit="10"/>
</g>
<path d="M41.4545 53.4933C42.1592 53.3246 42.8638 53.1459 43.499 52.9673C42.9531 51.3892 42.4271 49.7813 42.308 48.1239C42.1889 46.4565 42.5363 44.7097 43.5685 43.3996C45.0572 41.5237 47.5881 40.9282 49.7121 39.8166C51.5879 38.8341 53.2156 37.3751 54.3868 35.6184C55.2006 34.3976 55.8259 32.9386 55.5877 31.4896C55.4487 30.6459 55.0319 29.8718 54.6051 29.1274C53.5233 27.2218 52.2132 25.207 50.0793 24.6413C46.6353 22.8647 42.5363 23.0632 38.6854 23.5098C37.0081 23.7083 35.3407 23.9366 33.7229 24.4031C29.5742 25.604 26.0112 28.2441 22.5573 30.8246C22.3091 31.0131 22.0511 31.2117 21.9221 31.4995C21.8129 31.7476 21.8228 32.0354 21.8427 32.3133C22.0412 34.5663 23.0932 36.6307 24.1353 38.6455C24.7209 39.7769 25.3164 40.9183 26.2196 41.8116C27.2121 42.7941 28.5123 43.4095 29.8224 43.8958C31.3012 44.4318 32.8296 44.8188 34.3779 45.057C35.2017 45.1761 36.0553 45.2655 36.7699 45.6922C37.4051 46.0793 37.8616 46.6947 38.2884 47.3001C39.5092 49.027 41.0872 53.662 41.0872 53.662L41.4545 53.4933Z" fill="#FFF58C"/>
<path d="M68.2919 37.2561C67.9247 37.3057 67.5475 37.3355 67.1604 37.3355C62.5255 37.3355 58.7738 33.5839 58.7738 28.9489C58.7738 24.3139 62.5255 20.5623 67.1604 20.5623C67.3292 20.5623 67.349 20.602 67.5277 20.6119" stroke="black" stroke-miterlimit="10" stroke-linecap="round" stroke-linejoin="round"/>
<path d="M75.4676 12.0366C71.1204 13.833 67.736 17.8228 66.6839 22.4082C65.3639 28.1746 67.5573 34.0701 69.0064 39.8067C68.9766 41.3253 68.4704 42.8239 67.468 43.8462C66.4557 44.8685 64.9669 45.3846 63.5377 45.2258C61.7016 45.0074 60.1533 43.7668 58.3569 43.34C56.8979 42.9927 55.3595 43.2209 53.8906 43.5485C52.7294 43.8164 51.5682 44.1539 50.5558 44.7891C47.9058 46.4466 46.8141 49.8111 46.7545 52.9375C45.6926 52.6695 44.8092 52.7886 44.0252 53.136C42.854 52.3718 42.6059 51.0418 42.457 49.8409C42.189 47.8559 41.9707 45.6724 43.0525 43.9951C43.8862 42.7048 45.3253 41.9605 46.695 41.2756C48.3227 40.4618 49.9504 39.6479 51.5781 38.844C52.6798 38.2981 53.8112 37.7126 54.5655 36.7399C55.3794 35.6779 55.6176 34.2884 55.6176 32.9486C55.6176 31.2216 55.2404 29.4649 54.3372 27.996C53.2455 26.2194 51.449 24.9391 49.4938 24.2146C47.5386 23.49 45.4246 23.2816 43.3403 23.2816C35.3011 23.3015 27.3114 26.5866 21.5847 32.224C20.5525 27.0829 20.6815 22.5074 20.8304 18.0412C20.9396 14.5178 21.0785 10.9051 22.1703 7.70927C33.9017 0.374691 49.1564 -1.01481 62.1383 3.91792C67.0115 6.04187 71.6167 8.81094 75.4676 12.0366Z" fill="#B180E0"/>
<path d="M88.5287 32.512C88.5486 30.1598 86.8712 28.1748 85.9879 25.9913C85.5115 24.8102 85.2534 23.51 84.4495 22.5275C84.0426 24.7904 83.0005 27.2716 81.3231 28.7703C79.6458 30.269 77.6906 31.4203 75.914 32.7998C74.1374 34.1794 72.48 35.8468 71.7158 37.9608C71.0309 39.8664 71.1004 42.0202 70.1873 43.8265C69.3337 45.5138 67.6862 46.6949 65.9196 47.34C64.143 47.9851 62.2374 48.1638 60.3516 48.2432C58.3468 48.3325 56.3022 48.3424 54.4264 49.0272C52.5406 49.7121 50.8236 51.2405 50.3174 53.2156C51.9749 54.0592 53.5331 55.1013 54.9524 56.2923C56.4015 54.7143 58.3071 52.6896 60.3119 51.9253C61.3938 51.5085 63.3192 51.0817 63.3192 51.0817C63.3192 51.0817 65.8004 50.7542 67.051 50.377C68.0832 50.0594 68.9268 49.583 69.7208 48.8387C71.8448 46.8735 71.6363 43.6975 73.2343 41.2857C74.0481 40.0451 75.3682 39.2015 76.7775 38.7251C78.1869 38.2487 79.6756 38.1097 81.1544 38.0303C81.879 37.9906 82.6035 37.9708 83.2982 37.7921C85.8291 37.1867 88.5089 35.033 88.5287 32.512Z" fill="#FF88B6"/>
<path d="M21.1282 8.97973C16.5032 11.2327 12.9103 15.1729 9.90303 19.3514C9.38693 20.066 8.88075 20.8103 8.64255 21.6639C8.41428 22.4777 8.45398 23.3412 8.5036 24.1948C8.583 25.6041 8.67233 27.0035 8.7815 28.4129C8.83113 29.1076 8.9006 29.8322 9.19835 30.4574C9.4961 31.0827 10.0023 31.579 10.5085 32.0454C11.5307 32.9883 12.6225 33.8915 13.8631 34.5267C15.064 35.142 16.3741 35.4993 17.5751 36.1048C18.776 36.7102 19.9174 37.6332 20.1159 38.9135C22.1902 40.9779 21.8726 44.5906 23.8179 46.7741C24.9593 48.0644 26.716 48.6301 28.4032 48.9576C30.1004 49.2852 31.8472 49.434 33.4352 50.1089C35.7378 51.1014 37.5144 53.2453 38.0702 55.8357C38.3382 55.2005 38.894 54.734 39.4895 54.3966C40.085 54.0591 40.74 53.8408 41.3454 53.4041C39.8468 50.9824 39.4498 47.7567 37.167 46.0595C35.2614 44.6303 32.6511 44.7494 30.3485 44.1341C27.6092 43.3996 25.1875 41.504 23.5102 39.0326C23.0239 38.0004 22.5971 36.9385 22.1306 35.7673C21.7733 31.4102 20.5129 27.1326 20.5327 22.7556C20.5426 21.1279 20.7312 19.5002 20.9198 17.8725C21.3069 14.5675 21.6939 11.2426 22.4681 8.00708C21.9818 8.40408 21.5054 8.79115 21.1282 8.97973Z" fill="#56B381"/>
<path d="M3.62041 31.2812C3.56086 34.6161 6.27038 37.7821 9.58533 38.2288C11.2825 38.457 13.0293 38.0501 14.7166 38.3677C16.1656 38.6456 17.5055 39.4892 18.3888 40.6703C20.2249 43.1317 20.0562 46.8139 22.2893 48.9279C24.3637 50.8931 27.5893 50.6846 30.3485 51.4389C33.0679 52.1734 35.4797 53.9797 36.9585 56.3717" stroke="black" stroke-miterlimit="10" stroke-linecap="round" stroke-linejoin="round"/>
<path d="M88.4693 31.2812C88.5289 34.6161 85.8193 37.7821 82.5044 38.2288C80.8072 38.457 79.0604 38.0501 77.3731 38.3677C75.9241 38.6456 74.5842 39.4892 73.7009 40.6703C71.8648 43.1317 72.0335 46.8139 69.8004 48.9279C67.7261 50.8931 64.5004 50.6846 61.7413 51.4389C59.0218 52.1734 56.6101 53.9797 55.1312 56.3717" stroke="black" stroke-miterlimit="10" stroke-linecap="round" stroke-linejoin="round"/>
<path d="M46.4469 52.2427C46.6057 49.3049 48.2135 46.4763 50.6452 44.8288C53.0768 43.1812 56.2925 42.7346 59.0814 43.6675C61.3741 44.4318 63.6866 46.0892 65.9694 45.3151C68.0338 44.6203 69.0064 42.149 68.8675 39.9854C68.7285 37.8118 67.7658 35.7871 67.1405 33.7028C65.6319 28.6808 66.1183 23.093 68.4606 18.3985C69.8699 15.5699 72.1527 12.9298 75.2294 12.1854" stroke="black" stroke-miterlimit="10" stroke-linecap="round" stroke-linejoin="round"/>
<path d="M83.9434 21.8923C84.7572 28.3436 78.6732 30.0507 73.2243 35.4995C70.9019 37.9113 71.6661 41.3354 69.9789 44.2335C65.7806 51.9849 54.3966 44.5015 50.3174 52.64" stroke="black" stroke-miterlimit="10" stroke-linecap="round" stroke-linejoin="round"/>
<path d="M22.3487 7.85828C20.4629 15.5005 20.185 23.5299 21.5348 31.2912C22.0212 34.0901 22.7358 36.8988 24.2344 39.3106C25.7331 41.7224 28.0953 43.7173 30.8842 44.2136C31.9263 44.4021 32.9982 44.3724 34.0304 44.6106C35.9162 45.0473 37.5141 46.3474 38.6455 47.9057C39.777 49.4738 40.4817 51.3 41.0772 53.1362" stroke="black" stroke-miterlimit="10" stroke-linecap="round" stroke-linejoin="round"/>
<path d="M8.78146 21.1874C8.46386 23.4701 8.13633 25.7926 8.48371 28.0753C8.83108 30.3581 9.96253 32.621 11.9376 33.812C13.3966 34.6854 15.1533 34.8938 16.7215 35.5786C18.9447 36.5513 20.7014 38.5462 21.3961 40.8786C21.7137 41.9505 21.813 43.072 22.1703 44.134C22.8253 46.0991 24.3836 47.7368 26.309 48.501C28.0161 49.1759 29.9118 49.1759 31.6884 49.6523C34.4971 50.4066 36.9288 52.4412 38.1694 55.0614" stroke="black" stroke-miterlimit="10" stroke-linecap="round" stroke-linejoin="round"/>
<path d="M21.9717 31.728C27.2717 26.3982 34.6857 23.2222 42.2088 23.0535C45.8116 22.9741 49.6129 23.649 52.382 25.9615C55.151 28.2641 56.4909 32.5319 54.6548 35.6384C51.9949 40.1245 44.5114 40.2039 42.5661 45.0374C41.5538 47.5683 42.5165 50.4068 43.4892 52.9575" stroke="black" stroke-miterlimit="10" stroke-linecap="round" stroke-linejoin="round"/>
<path d="M56.3124 17.0786C57.1017 17.0786 57.7416 16.4387 57.7416 15.6494C57.7416 14.8601 57.1017 14.2202 56.3124 14.2202C55.523 14.2202 54.8832 14.8601 54.8832 15.6494C54.8832 16.4387 55.523 17.0786 56.3124 17.0786Z" fill="#FFF58C" stroke="#181919" stroke-miterlimit="10" stroke-linecap="round" stroke-linejoin="round"/>
<path d="M36.9388 17.0786C37.7281 17.0786 38.368 16.4387 38.368 15.6494C38.368 14.8601 37.7281 14.2202 36.9388 14.2202C36.1495 14.2202 35.5096 14.8601 35.5096 15.6494C35.5096 16.4387 36.1495 17.0786 36.9388 17.0786Z" fill="#FFF58C" stroke="#181919" stroke-miterlimit="10" stroke-linecap="round" stroke-linejoin="round"/>
<path d="M47.2111 8.50338L48.1044 11.2526C48.1838 11.5107 48.422 11.6794 48.6899 11.6794H51.5781C52.1736 11.6794 52.4217 12.4436 51.9453 12.791L49.603 14.4882C49.3847 14.647 49.2954 14.9249 49.3748 15.173L50.268 17.9222C50.4566 18.4879 49.8015 18.9643 49.3152 18.607L46.9729 16.9099C46.7546 16.7511 46.4667 16.7511 46.2484 16.9099L43.9061 18.607C43.4197 18.9544 42.7746 18.4879 42.9533 17.9222L43.8465 15.173C43.9259 14.9149 43.8366 14.637 43.6183 14.4882L41.3057 12.8009C40.8194 12.4535 41.0675 11.6893 41.6729 11.6893H44.5611C44.8291 11.6893 45.0673 11.5206 45.1467 11.2625L46.04 8.51331C46.2285 7.93766 47.0325 7.93766 47.2111 8.50338Z" fill="#FFF58C" stroke="#181919" stroke-miterlimit="10" stroke-linecap="round" stroke-linejoin="round"/>
<mask id="mask2_574_4202" style="mask-type:luminance" maskUnits="userSpaceOnUse" x="1" y="1" width="90" height="90">
<path d="M46.0894 90.8213C70.8928 90.8213 91 70.7141 91 45.9106C91 21.1072 70.8928 1 46.0894 1C21.2859 1 1.17871 21.1072 1.17871 45.9106C1.17871 70.7141 21.2859 90.8213 46.0894 90.8213Z" fill="white"/>
</mask>
<g mask="url(#mask2_574_4202)">
<path d="M68.6985 80.7176C64.2025 77.6111 55.6074 75.507 45.742 75.507C35.8765 75.507 27.2815 77.6111 22.7855 80.7176H19.4407V85.6801C19.4407 91.2976 31.2118 95.8532 45.742 95.8532C60.2722 95.8532 72.0432 91.2976 72.0432 85.6801V80.7176H68.6985Z" fill="#5A66FF" stroke="black" stroke-miterlimit="10" stroke-linecap="round" stroke-linejoin="round"/>
<path d="M45.7419 90.8906C60.2677 90.8906 72.0432 86.3359 72.0432 80.7174C72.0432 75.099 60.2677 70.5443 45.7419 70.5443C31.2161 70.5443 19.4407 75.099 19.4407 80.7174C19.4407 86.3359 31.2161 90.8906 45.7419 90.8906Z" fill="white" stroke="black" stroke-miterlimit="10" stroke-linecap="round" stroke-linejoin="round"/>
<path d="M68.6985 75.7551C64.2025 72.6485 55.6074 70.5444 45.742 70.5444C35.8765 70.5444 27.2815 72.6485 22.7855 75.7551H19.4407V80.7176C19.4407 86.3351 31.2118 90.8907 45.742 90.8907C60.2722 90.8907 72.0432 86.3351 72.0432 80.7176V75.7551H68.6985Z" fill="#FFF58C" stroke="black" stroke-miterlimit="10" stroke-linecap="round" stroke-linejoin="round"/>
<path d="M45.7419 85.9283C60.2677 85.9283 72.0432 81.3736 72.0432 75.7552C72.0432 70.1367 60.2677 65.582 45.7419 65.582C31.2161 65.582 19.4407 70.1367 19.4407 75.7552C19.4407 81.3736 31.2161 85.9283 45.7419 85.9283Z" fill="white" stroke="black" stroke-miterlimit="10" stroke-linecap="round" stroke-linejoin="round"/>
<path d="M68.6985 70.7927C64.2025 67.6861 55.6074 65.582 45.742 65.582C35.8765 65.582 27.2815 67.6861 22.7855 70.7927H19.4407V75.7552C19.4407 81.3727 31.2118 85.9283 45.742 85.9283C60.2722 85.9283 72.0432 81.3727 72.0432 75.7552V70.7927H68.6985Z" fill="#FFF58C" stroke="black" stroke-miterlimit="10" stroke-linecap="round" stroke-linejoin="round"/>
<path d="M45.7419 80.9658C60.2677 80.9658 72.0432 76.4111 72.0432 70.7926C72.0432 65.1742 60.2677 60.6195 45.7419 60.6195C31.2161 60.6195 19.4407 65.1742 19.4407 70.7926C19.4407 76.4111 31.2161 80.9658 45.7419 80.9658Z" fill="white" stroke="black" stroke-miterlimit="10" stroke-linecap="round" stroke-linejoin="round"/>
</g>
<path d="M46.0894 90.8213C70.8928 90.8213 91 70.7141 91 45.9106C91 21.1072 70.8928 1 46.0894 1C21.2859 1 1.17871 21.1072 1.17871 45.9106C1.17871 70.7141 21.2859 90.8213 46.0894 90.8213Z" stroke="#181919" stroke-miterlimit="10"/>
<path fill-rule="evenodd" clip-rule="evenodd" d="M64.9468 51.8261C65.2347 49.4738 65.4828 49.186 64.9965 47.34C64.5399 45.6229 63.7261 44.0449 63.2795 42.3179C62.8428 40.6406 62.1778 39.1915 60.5401 38.3578C58.9025 37.5142 57.8902 36.0354 56.3816 35.1322C55.0119 34.3084 53.7415 33.2663 52.3024 32.6212C50.2182 31.6882 47.9156 31.5493 45.6725 31.1424C43.2012 30.6957 41.1467 31.4302 39.3205 33.0579C38.3677 33.9114 37.2958 34.6657 36.472 35.6285C35.1718 37.1371 33.5342 38.4372 33.0677 40.591C32.1546 44.7992 27.6288 46.2284 27.9564 51.1015C28.1251 53.5629 28.5816 55.538 30.249 57.2848C30.5964 57.652 30.8942 58.1781 30.9537 58.6644C31.4698 62.287 33.7426 64.9668 36.1941 67.2595C38.6853 69.5819 41.9208 70.8722 45.3946 71.2493C47.2307 71.4577 49.0966 71.7853 50.9228 71.6662C53.6919 71.4875 56.3419 70.5347 58.4261 68.7085C59.498 67.7756 60.8875 67.1106 61.751 65.9593C62.7534 64.6095 62.3266 63.1108 63.0115 61.6816C63.5077 60.6295 64.2322 59.8256 64.5697 58.6644C65.185 56.6695 65.0163 54.4562 64.9468 51.8261Z" fill="#5A66FF" stroke="black" stroke-miterlimit="10"/>
<path d="M42.0499 46.6948C42.1293 49.1562 46.5559 48.8386 45.7718 46.3474" stroke="black" stroke-miterlimit="10" stroke-linecap="round" stroke-linejoin="round"/>
<path d="M47.4889 46.2879C47.5782 47.0223 48.0943 47.6972 48.7891 47.9652C49.4838 48.2332 50.3175 48.0744 50.8733 47.5881C51.4291 47.0918 51.6872 46.2879 51.5085 45.5634" stroke="black" stroke-miterlimit="10" stroke-linecap="round" stroke-linejoin="round"/>
<path d="M39.3902 49.7715C39.9658 51.1412 41.1569 52.1932 42.4967 52.8383C43.8366 53.4835 45.3353 53.7415 46.8141 53.8408C47.6875 53.9003 48.5708 53.9003 49.4442 53.7415C52.5111 53.1857 55.0519 50.4563 55.3794 47.3597" stroke="black" stroke-miterlimit="10" stroke-linecap="round" stroke-linejoin="round"/>
</svg>
