<svg width="188" height="188" viewBox="0 0 188 188" fill="none" xmlns="http://www.w3.org/2000/svg">
<path d="M94 187C145.362 187 187 145.362 187 94C187 42.6375 145.362 1 94 1C42.6375 1 1 42.6375 1 94C1 145.362 42.6375 187 94 187Z" fill="#EBEBEB"/>
<path d="M118.91 33.9045C120.544 33.9045 121.87 32.5794 121.87 30.9449C121.87 29.3104 120.544 27.9854 118.91 27.9854C117.275 27.9854 115.95 29.3104 115.95 30.9449C115.95 32.5794 117.275 33.9045 118.91 33.9045Z" fill="#FFF58C" stroke="#181919" stroke-miterlimit="10" stroke-linecap="round" stroke-linejoin="round"/>
<path d="M78.7913 33.9045C80.4259 33.9045 81.7509 32.5794 81.7509 30.9449C81.7509 29.3104 80.4259 27.9854 78.7913 27.9854C77.1568 27.9854 75.8318 29.3104 75.8318 30.9449C75.8318 32.5794 77.1568 33.9045 78.7913 33.9045Z" fill="#FFF58C" stroke="#181919" stroke-miterlimit="10" stroke-linecap="round" stroke-linejoin="round"/>
<path d="M100.063 16.1677L101.913 21.8608C102.077 22.3951 102.571 22.7445 103.126 22.7445H109.106C110.34 22.7445 110.853 24.3271 109.867 25.0464L105.016 28.5609C104.564 28.8897 104.379 29.4652 104.544 29.979L106.393 35.672C106.784 36.8435 105.428 37.83 104.42 37.0901L99.57 33.5757C99.1179 33.2468 98.5218 33.2468 98.0697 33.5757L93.2193 37.0901C92.2122 37.8095 90.8763 36.8435 91.2463 35.672L93.096 29.979C93.2604 29.4446 93.0754 28.8692 92.6233 28.5609L87.7729 25.0464C86.7658 24.3271 87.2796 22.7445 88.5333 22.7445H94.5141C95.069 22.7445 95.5623 22.3951 95.7267 21.8608L97.5764 16.1677C98.0286 14.9757 99.6728 14.9757 100.063 16.1677Z" fill="#FFF58C" stroke="#181919" stroke-miterlimit="10" stroke-linecap="round" stroke-linejoin="round"/>
<path d="M118.91 33.9045C120.544 33.9045 121.87 32.5794 121.87 30.9449C121.87 29.3104 120.544 27.9854 118.91 27.9854C117.275 27.9854 115.95 29.3104 115.95 30.9449C115.95 32.5794 117.275 33.9045 118.91 33.9045Z" fill="#FFF58C" stroke="#181919" stroke-miterlimit="10" stroke-linecap="round" stroke-linejoin="round"/>
<path d="M78.7913 33.9045C80.4259 33.9045 81.7509 32.5794 81.7509 30.9449C81.7509 29.3104 80.4259 27.9854 78.7913 27.9854C77.1568 27.9854 75.8318 29.3104 75.8318 30.9449C75.8318 32.5794 77.1568 33.9045 78.7913 33.9045Z" fill="#FFF58C" stroke="#181919" stroke-miterlimit="10" stroke-linecap="round" stroke-linejoin="round"/>
<path d="M100.063 16.1677L101.913 21.8608C102.077 22.3951 102.571 22.7445 103.126 22.7445H109.106C110.34 22.7445 110.853 24.3271 109.867 25.0464L105.016 28.5609C104.564 28.8897 104.379 29.4652 104.544 29.979L106.393 35.672C106.784 36.8435 105.428 37.83 104.42 37.0901L99.57 33.5757C99.1179 33.2468 98.5218 33.2468 98.0697 33.5757L93.2193 37.0901C92.2122 37.8095 90.8763 36.8435 91.2463 35.672L93.096 29.979C93.2604 29.4446 93.0754 28.8692 92.6233 28.5609L87.7729 25.0464C86.7658 24.3271 87.2796 22.7445 88.5333 22.7445H94.5141C95.069 22.7445 95.5623 22.3951 95.7267 21.8608L97.5764 16.1677C98.0286 14.9757 99.6728 14.9757 100.063 16.1677Z" fill="#FFF58C" stroke="#181919" stroke-miterlimit="10" stroke-linecap="round" stroke-linejoin="round"/>
<mask id="mask0_645_3663" style="mask-type:luminance" maskUnits="userSpaceOnUse" x="5" y="43" width="73" height="73">
<path d="M75.5029 115.334C75.2357 114.45 74.4753 113.833 73.7559 113.258C72.6872 112.395 71.6185 111.552 70.5498 110.689C69.2961 109.682 68.0424 108.675 66.6448 107.873C61.8561 105.078 56.0602 104.811 50.7988 103.064C49.0929 102.488 47.4282 101.769 46.0307 100.639C43.215 98.3985 41.7351 94.884 40.5842 91.4723C39.4333 88.0606 38.4468 84.4844 36.2476 81.6276C34.1924 80.189 32.1988 78.7092 29.8558 78.1337C25.9097 77.1677 21.717 78.9558 17.7504 78.0721C16.6406 77.8254 15.5924 77.3733 14.6059 76.8184C10.0432 74.3315 6.48764 69.7072 5.99438 64.528C7.86466 56.6153 11.5641 49.2575 16.7022 43.6877C16.2501 48.3943 15.7774 53.1624 16.7022 57.8073C17.6271 62.4522 20.114 66.9943 24.2656 69.2345C28.6227 71.598 34.3979 71.3308 37.8097 74.907C38.6318 75.7702 39.2278 76.7772 39.8443 77.8049C41.6941 80.9083 43.5643 84.0323 44.8386 87.4029C45.6196 89.4787 46.195 91.6778 47.346 93.5686C48.7847 95.9527 51.1276 97.8024 53.9022 98.6245C55.0737 100.31 57.3756 100.68 59.4103 100.926C62.5137 101.296 65.6788 101.749 68.4739 103.187C70.5908 104.276 72.3789 105.9 74.0436 107.585C75.2151 108.757 77.7637 111.244 77.9075 112.95C78.0308 113.957 76.3661 113.957 75.5029 115.334Z" fill="white"/>
</mask>
<g mask="url(#mask0_645_3663)">
<path d="M6.17888 1.57568L-20.6216 53.2857" stroke="black" stroke-miterlimit="10"/>
<path d="M10.6182 7.70044L-16.1823 59.4105" stroke="black" stroke-miterlimit="10"/>
<path d="M15.058 13.8452L-11.7631 65.5347" stroke="black" stroke-miterlimit="10"/>
<path d="M19.4973 19.97L-7.32373 71.68" stroke="black" stroke-miterlimit="10"/>
<path d="M23.9363 26.095L-2.88477 77.805" stroke="black" stroke-miterlimit="10"/>
<path d="M28.3761 32.2195L1.55505 83.9295" stroke="black" stroke-miterlimit="10"/>
<path d="M32.8154 38.3647L5.99438 90.0542" stroke="black" stroke-miterlimit="10"/>
<path d="M37.2548 44.4893L10.4338 96.1993" stroke="black" stroke-miterlimit="10"/>
<path d="M41.6937 50.614L14.8727 102.324" stroke="black" stroke-miterlimit="10"/>
<path d="M46.133 56.7385L19.312 108.449" stroke="black" stroke-miterlimit="10"/>
<path d="M50.5522 62.8835L23.7518 114.573" stroke="black" stroke-miterlimit="10"/>
<path d="M54.9911 69.0085L28.1907 120.719" stroke="black" stroke-miterlimit="10"/>
<path d="M59.4306 75.1331L32.6301 126.843" stroke="black" stroke-miterlimit="10"/>
<path d="M63.8699 81.2783L37.0695 132.968" stroke="black" stroke-miterlimit="10"/>
<path d="M68.3093 87.4031L41.5088 139.113" stroke="black" stroke-miterlimit="10"/>
<path d="M72.7492 93.5273L45.9487 145.237" stroke="black" stroke-miterlimit="10"/>
<path d="M77.188 99.6521L50.3876 151.362" stroke="black" stroke-miterlimit="10"/>
<path d="M81.6273 105.797L54.8269 157.487" stroke="black" stroke-miterlimit="10"/>
<path d="M86.0672 111.922L59.2668 163.632" stroke="black" stroke-miterlimit="10"/>
</g>
<path d="M140.181 94.2059C142.689 92.5412 144.148 89.6844 145.032 86.8276C145.936 83.9502 146.368 80.9496 147.416 78.1339C149.841 71.6393 155.226 66.7272 160.775 62.5551C165.173 59.2461 170.024 55.9372 172.038 50.8196C172.695 49.1343 173.004 47.3257 173.846 45.7432C170.167 37.8099 164.269 31.7675 158.494 25.91C157.384 24.7796 156.253 23.6492 154.959 22.7244C150.129 24.5946 146.203 28.2941 143.429 32.569C140.654 36.8439 138.907 41.6943 137.242 46.5241C136.79 47.8601 136.317 49.2371 136.359 50.6552C136.4 52.1761 136.996 53.7175 136.564 55.1767C135.557 60.6437 135.947 66.3573 138.352 71.2282C138.969 72.4614 139.709 73.674 139.976 75.0099C140.181 76.017 140.14 77.0651 140.305 78.0928C140.49 79.182 140.921 80.2302 141.086 81.3401C141.538 84.464 139.709 87.4853 137.551 89.8077C136.852 90.5476 136.112 91.2669 135.167 91.678C132.824 92.7056 130.172 91.4724 127.809 90.4654C123.678 88.7184 119.197 87.588 114.696 87.773C110.195 87.958 105.694 89.5405 102.406 92.6028C100.474 94.4114 99.0352 96.6722 97.7815 99.0152C96.3429 101.708 95.1303 104.544 94.2671 107.894C95.0892 107.956 95.9524 107.462 96.7334 107.75C96.9594 107.832 97.1444 107.976 97.3705 108.038C97.6582 108.141 97.9665 108.099 98.2748 108.099C99.6518 108.058 101.049 108.408 102.426 109.641C103.618 106.352 105.756 103.434 108.531 101.317C109.414 100.639 110.38 100.043 111.428 99.6318C112.949 99.0563 114.614 98.9124 116.238 98.7891C121.047 98.4192 125.856 98.152 130.686 97.967C132.433 97.9054 134.221 97.8437 135.886 97.2682C137.571 96.7339 138.681 95.1924 140.181 94.2059Z" fill="white"/>
<mask id="mask1_645_3663" style="mask-type:luminance" maskUnits="userSpaceOnUse" x="94" y="23" width="80" height="87">
<path d="M140.181 94.4933C142.689 92.8285 144.148 89.9717 145.032 87.1149C145.936 84.2376 146.368 81.2369 147.416 78.4212C149.841 71.9266 155.226 67.0146 160.775 62.8424C165.173 59.5335 170.024 56.2245 172.038 51.107C172.695 49.4217 173.004 47.613 173.846 46.0305C170.167 38.0972 164.269 32.0548 158.494 26.1974C157.384 25.067 156.253 23.9366 154.959 23.0117C150.129 24.882 146.203 28.5814 143.429 32.8564C140.654 37.1313 138.907 41.9817 137.242 46.8115C136.79 48.1474 136.317 49.5244 136.359 50.9425C136.4 52.4634 136.996 54.0049 136.564 55.4641C135.557 60.9311 135.947 66.6446 138.352 71.5156C138.969 72.7487 139.709 73.9613 139.976 75.2972C140.181 76.3043 140.14 77.3525 140.305 78.3801C140.49 79.4694 140.921 80.5176 141.086 81.6274C141.538 84.7514 139.709 87.7726 137.551 90.095C136.852 90.8349 136.112 91.5543 135.167 91.9653C132.824 92.9929 130.172 91.7598 127.809 90.7527C123.678 89.0058 119.197 87.8754 114.696 88.0603C110.195 88.2453 105.694 89.8279 102.406 92.8902C100.474 94.6988 99.0352 96.9596 97.7815 99.3025C96.3429 101.995 95.1303 104.831 94.2671 108.181C95.0892 108.243 95.9524 107.75 96.7334 108.037C96.9594 108.12 97.1444 108.263 97.3705 108.325C97.6582 108.428 97.9665 108.387 98.2748 108.387C99.6518 108.346 101.049 108.695 102.426 109.928C103.618 106.64 105.756 103.721 108.531 101.604C109.414 100.926 110.38 100.33 111.428 99.9191C112.949 99.3437 114.614 99.1998 116.238 99.0765C121.047 98.7065 125.856 98.4393 130.686 98.2544C132.433 98.1927 134.221 98.1311 135.886 97.5556C137.571 97.0212 138.681 95.4798 140.181 94.4933Z" fill="white"/>
</mask>
<g mask="url(#mask1_645_3663)">
<path d="M172.695 0.342285L199.516 52.0523" stroke="black" stroke-miterlimit="10"/>
<path d="M168.236 5.4187L195.036 57.1288" stroke="black" stroke-miterlimit="10"/>
<path d="M163.754 10.4954L190.575 62.1849" stroke="black" stroke-miterlimit="10"/>
<path d="M159.274 15.5718L186.096 67.2613" stroke="black" stroke-miterlimit="10"/>
<path d="M154.814 20.6274L181.615 72.3375" stroke="black" stroke-miterlimit="10"/>
<path d="M150.334 25.7043L177.155 77.4144" stroke="black" stroke-miterlimit="10"/>
<path d="M145.874 30.7805L172.674 82.4906" stroke="black" stroke-miterlimit="10"/>
<path d="M141.394 35.8572L168.194 87.5672" stroke="black" stroke-miterlimit="10"/>
<path d="M136.913 40.9333L163.734 92.6434" stroke="black" stroke-miterlimit="10"/>
<path d="M132.453 46.01L159.254 97.6995" stroke="black" stroke-miterlimit="10"/>
<path d="M127.973 51.0867L154.794 102.776" stroke="black" stroke-miterlimit="10"/>
<path d="M123.493 56.1423L150.314 107.852" stroke="black" stroke-miterlimit="10"/>
<path d="M119.033 61.2188L145.833 112.929" stroke="black" stroke-miterlimit="10"/>
<path d="M114.552 66.2952L141.373 118.005" stroke="black" stroke-miterlimit="10"/>
<path d="M110.092 71.3718L136.893 123.082" stroke="black" stroke-miterlimit="10"/>
<path d="M105.612 76.448L132.412 128.158" stroke="black" stroke-miterlimit="10"/>
<path d="M101.131 81.5244L127.952 133.214" stroke="black" stroke-miterlimit="10"/>
<path d="M96.6714 86.5806L123.472 138.291" stroke="black" stroke-miterlimit="10"/>
<path d="M92.1911 91.657L118.992 143.367" stroke="black" stroke-miterlimit="10"/>
<path d="M87.7103 96.7334L114.531 148.443" stroke="black" stroke-miterlimit="10"/>
<path d="M83.2507 101.81L110.051 153.52" stroke="black" stroke-miterlimit="10"/>
</g>
<path d="M84.7715 109.702C86.2307 109.353 87.69 108.983 89.0054 108.613C87.875 105.345 86.7857 102.016 86.5391 98.5834C86.2924 95.1305 87.0117 91.5133 89.1492 88.8004C92.2321 84.916 97.473 83.6828 101.871 81.3809C105.756 79.3462 109.126 76.325 111.551 72.6872C113.237 70.1593 114.532 67.1381 114.038 64.1374C113.751 62.3904 112.887 60.7873 112.004 59.2459C109.763 55.2998 107.05 51.1277 102.632 49.9562C95.4999 46.2773 87.0118 46.6883 79.0374 47.6132C75.564 48.0242 72.1112 48.497 68.7612 49.4629C60.1702 51.9498 52.7919 57.4167 45.6396 62.7604C45.1258 63.1509 44.5914 63.5619 44.3242 64.1579C44.0982 64.6718 44.1187 65.2678 44.1598 65.8433C44.5709 70.5087 46.7494 74.7836 48.9075 78.9557C50.1201 81.2987 51.3532 83.6623 53.2235 85.512C55.2787 87.5467 57.9711 88.8209 60.684 89.828C63.7463 90.9378 66.9115 91.7394 70.1176 92.2326C71.8235 92.4793 73.591 92.6642 75.0707 93.548C76.3861 94.3495 77.3316 95.6238 78.2153 96.8775C80.7433 100.454 84.0111 110.052 84.0111 110.052L84.7715 109.702Z" fill="#5A66FF"/>
<path d="M140.325 76.0783C139.565 76.1811 138.784 76.2427 137.982 76.2427C128.384 76.2427 120.615 68.4739 120.615 58.8759C120.615 49.2779 128.384 41.509 137.982 41.509C138.331 41.509 138.373 41.5912 138.742 41.6118" stroke="black" stroke-miterlimit="10" stroke-linecap="round" stroke-linejoin="round"/>
<path d="M155.205 23.8544C146.203 27.5744 139.195 35.8365 137.016 45.3318C134.282 57.2728 138.825 69.4809 141.825 81.3603C141.784 84.5048 140.715 87.6082 138.64 89.7251C136.543 91.842 133.46 92.9108 130.501 92.5819C126.699 92.1298 123.492 89.5607 119.772 88.677C116.751 87.9576 113.566 88.4303 110.524 89.1086C108.119 89.6635 105.714 90.3623 103.618 91.6776C98.1306 95.1099 95.8699 102.077 95.7466 108.551C93.5475 107.996 91.7183 108.243 90.0946 108.962C87.6694 107.38 87.1556 104.626 86.8473 102.139C86.2924 98.0283 85.8402 93.5068 88.0805 90.0334C89.8069 87.3616 92.787 85.8202 95.6232 84.402C98.9938 82.7167 102.364 81.0314 105.735 79.3667C108.016 78.2363 110.359 77.0237 111.921 75.0096C113.607 72.8104 114.1 69.9331 114.1 67.1585C114.1 63.5824 113.319 59.9446 111.449 56.9028C109.188 53.2239 105.468 50.5726 101.419 49.0723C97.3702 47.572 92.9925 47.1404 88.6765 47.1404C72.029 47.1815 55.4842 53.9844 43.6254 65.6582C41.488 55.012 41.7551 45.5373 42.0634 36.2887C42.2895 28.9925 42.5772 21.5114 44.838 14.8935C69.1311 -0.294757 100.72 -3.17211 127.603 7.04248C137.674 11.4407 147.21 17.1749 155.205 23.8544Z" fill="#B180E0"/>
<path d="M182.232 66.2544C182.273 61.3835 178.8 57.273 176.971 52.7514C175.984 50.3057 175.45 47.6133 173.785 45.5786C172.942 50.2646 170.784 55.4027 167.311 58.5061C163.837 61.6096 159.789 63.9936 156.11 66.8504C152.431 69.7072 148.999 73.16 147.416 77.5377C145.998 81.4838 146.142 85.9437 144.251 89.6842C142.483 93.1782 139.072 95.6239 135.413 96.9598C131.735 98.2957 127.788 98.6657 123.883 98.8301C119.732 99.0151 115.498 99.0356 111.614 100.454C107.709 101.872 104.153 105.037 103.105 109.127C106.537 110.874 109.764 113.032 112.703 115.498C115.704 112.23 119.65 108.038 123.801 106.455C126.042 105.592 130.029 104.708 130.029 104.708C130.029 104.708 135.167 104.03 137.756 103.249C139.894 102.591 141.641 101.605 143.285 100.063C147.683 95.9939 147.252 89.4171 150.561 84.4228C152.246 81.8538 154.979 80.1068 157.898 79.1203C160.816 78.1338 163.899 77.846 166.962 77.6816C168.462 77.5994 169.962 77.5583 171.401 77.1883C176.642 75.9346 182.191 71.4748 182.232 66.2544Z" fill="#FF88B6"/>
<path d="M42.6598 17.5246C33.0823 22.1901 25.6423 30.3494 19.4149 39.002C18.3462 40.4818 17.298 42.0232 16.8048 43.7907C16.332 45.476 16.4142 47.2641 16.517 49.0316C16.6814 51.9501 16.8664 54.848 17.0925 57.7664C17.1952 59.2051 17.3391 60.7054 17.9557 62.0002C18.5723 63.295 19.6205 64.3227 20.6686 65.2886C22.7855 67.2411 25.0463 69.1114 27.6153 70.4267C30.1022 71.701 32.8151 72.4409 35.302 73.6946C37.7888 74.9483 40.1524 76.8597 40.5634 79.5109C44.8589 83.7859 44.2012 91.267 48.2295 95.7885C50.593 98.4603 54.2308 99.6318 57.7248 100.31C61.2392 100.988 64.8564 101.297 68.1448 102.694C72.913 104.749 76.5919 109.189 77.7429 114.553C78.2978 113.238 79.4487 112.272 80.6819 111.573C81.915 110.874 83.2715 110.422 84.5252 109.518C81.4217 104.503 80.5997 97.8232 75.8726 94.3087C71.9265 91.3492 66.5212 91.5958 61.753 90.3216C56.0805 88.8007 51.0657 84.8751 47.5923 79.7576C46.5853 77.6201 45.7015 75.421 44.7356 72.9958C43.9957 63.9733 41.3855 55.1151 41.4266 46.0515C41.4471 42.6809 41.8377 39.3103 42.2282 35.9397C43.0297 29.0957 43.8313 22.2106 45.4344 15.5105C44.4478 16.3326 43.4407 17.1341 42.6598 17.5246Z" fill="#56B381"/>
<path d="M6.40483 63.7058C6.28151 70.6114 11.8923 77.1677 18.7568 78.0926C22.2713 78.5653 25.8886 77.7226 29.3825 78.3803C32.3832 78.9558 35.1577 80.7027 36.9869 83.1485C40.7891 88.2455 40.4397 95.8705 45.0641 100.248C49.3595 104.318 56.0391 103.886 61.7527 105.448C67.384 106.969 72.3783 110.709 75.4406 115.663" stroke="black" stroke-miterlimit="10" stroke-linecap="round" stroke-linejoin="round"/>
<path d="M182.129 63.7058C182.252 70.6114 176.642 77.1677 169.777 78.0926C166.263 78.5653 162.645 77.7226 159.151 78.3803C156.151 78.9558 153.376 80.7027 151.547 83.1485C147.745 88.2455 148.094 95.8705 143.47 100.248C139.174 104.318 132.495 103.886 126.781 105.448C121.15 106.969 116.156 110.709 113.093 115.663" stroke="black" stroke-miterlimit="10" stroke-linecap="round" stroke-linejoin="round"/>
<path d="M95.1098 107.113C95.4386 101.029 98.7682 95.1719 103.804 91.7602C108.839 88.3485 115.498 87.4236 121.273 89.3556C126.021 90.9381 130.81 94.3704 135.537 92.7673C139.811 91.3286 141.826 86.211 141.538 81.7306C141.25 77.2296 139.257 73.0369 137.962 68.7209C134.838 58.3213 135.845 46.7503 140.695 37.0289C143.614 31.1715 148.341 25.7045 154.712 24.1631" stroke="black" stroke-miterlimit="10" stroke-linecap="round" stroke-linejoin="round"/>
<path d="M172.737 44.2632C174.422 57.6223 161.823 61.1573 150.54 72.4406C145.731 77.4349 147.313 84.5255 143.819 90.5268C135.126 106.578 111.552 91.0817 103.105 107.935" stroke="black" stroke-miterlimit="10" stroke-linecap="round" stroke-linejoin="round"/>
<path d="M45.1873 15.2019C41.2823 31.0273 40.7069 47.6543 43.502 63.7263C44.5091 69.5221 45.9888 75.3385 49.0923 80.3327C52.1957 85.327 57.0872 89.458 62.8625 90.4857C65.0205 90.8762 67.2401 90.8145 69.3776 91.3078C73.2825 92.2121 76.5915 94.9044 78.9345 98.1312C81.2774 101.378 82.7367 105.16 83.9698 108.962" stroke="black" stroke-miterlimit="10" stroke-linecap="round" stroke-linejoin="round"/>
<path d="M17.113 42.8037C16.4553 47.5308 15.777 52.3401 16.4964 57.0671C17.2157 61.7942 19.5587 66.4802 23.6487 68.9465C26.6699 70.7551 30.3077 71.1867 33.555 72.6048C38.1587 74.619 41.7965 78.75 43.2352 83.5798C43.8929 85.7995 44.0984 88.1219 44.8383 90.3211C46.1947 94.3904 49.4215 97.7816 53.4087 99.3642C56.9437 100.762 60.8692 100.762 64.5481 101.748C70.3645 103.31 75.3998 107.523 77.9689 112.949" stroke="black" stroke-miterlimit="10" stroke-linecap="round" stroke-linejoin="round"/>
<path d="M44.4064 64.6309C55.3814 53.5942 70.7341 47.0174 86.3129 46.668C93.7734 46.5036 101.645 47.9011 107.379 52.6899C113.113 57.458 115.888 66.2956 112.086 72.7285C106.578 82.0183 91.0811 82.1827 87.0528 92.1918C84.9564 97.4326 86.95 103.311 88.9641 108.593" stroke="black" stroke-miterlimit="10" stroke-linecap="round" stroke-linejoin="round"/>
<path d="M115.539 34.2953C117.174 34.2953 118.499 32.9703 118.499 31.3358C118.499 29.7013 117.174 28.3762 115.539 28.3762C113.905 28.3762 112.58 29.7013 112.58 31.3358C112.58 32.9703 113.905 34.2953 115.539 34.2953Z" fill="#FFF58C" stroke="#181919" stroke-miterlimit="10" stroke-linecap="round" stroke-linejoin="round"/>
<path d="M75.4207 34.2953C77.0553 34.2953 78.3803 32.9703 78.3803 31.3358C78.3803 29.7013 77.0553 28.3762 75.4207 28.3762C73.7862 28.3762 72.4612 29.7013 72.4612 31.3358C72.4612 32.9703 73.7862 34.2953 75.4207 34.2953Z" fill="#FFF58C" stroke="#181919" stroke-miterlimit="10" stroke-linecap="round" stroke-linejoin="round"/>
<path d="M96.6928 16.5379L98.5425 22.231C98.7069 22.7653 99.2002 23.1147 99.7551 23.1147H105.736C106.969 23.1147 107.483 24.6973 106.496 25.4166L101.646 28.9311C101.194 29.2599 101.009 29.8354 101.173 30.3492L103.023 36.0422C103.413 37.2137 102.057 38.2003 101.05 37.4604L96.1995 33.9459C95.7474 33.617 95.1513 33.617 94.6992 33.9459L89.8488 37.4604C88.8417 38.1797 87.5058 37.2137 87.8757 36.0422L89.7254 30.3492C89.8899 29.8148 89.7049 29.2394 89.2528 28.9311L84.464 25.4372C83.4569 24.7178 83.9707 23.1353 85.2244 23.1353H91.2052C91.7601 23.1353 92.2534 22.7859 92.4178 22.2515L94.2676 16.5585C94.6375 15.3664 96.3023 15.3664 96.6928 16.5379Z" fill="#FFF58C" stroke="#181919" stroke-miterlimit="10" stroke-linecap="round" stroke-linejoin="round"/>
<mask id="mask2_645_3663" style="mask-type:luminance" maskUnits="userSpaceOnUse" x="1" y="1" width="187" height="186">
<path d="M94.3503 187C145.713 187 187.35 145.362 187.35 94C187.35 42.6375 145.713 1 94.3503 1C42.9879 1 1.35034 42.6375 1.35034 94C1.35034 145.362 42.9879 187 94.3503 187Z" fill="white"/>
</mask>
<g mask="url(#mask2_645_3663)">
<path d="M141.189 166.077C131.879 159.644 114.081 155.287 93.6513 155.287C73.2222 155.287 55.4237 159.644 46.1134 166.077H39.1873V176.354C39.1873 187.986 63.5625 197.42 93.6513 197.42C123.74 197.42 148.115 187.986 148.115 176.354V166.077H141.189Z" fill="#5A66FF" stroke="black" stroke-miterlimit="10" stroke-linecap="round" stroke-linejoin="round"/>
<path d="M93.6311 187.144C123.711 187.144 148.095 177.712 148.095 166.078C148.095 154.443 123.711 145.011 93.6311 145.011C63.5514 145.011 39.167 154.443 39.167 166.078C39.167 177.712 63.5514 187.144 93.6311 187.144Z" fill="white" stroke="black" stroke-miterlimit="10" stroke-linecap="round" stroke-linejoin="round"/>
<path d="M141.189 155.801C131.879 149.368 114.081 145.011 93.6513 145.011C73.2222 145.011 55.4237 149.368 46.1134 155.801H39.1873V166.078C39.1873 177.71 63.5625 187.144 93.6513 187.144C123.74 187.144 148.115 177.71 148.115 166.078V155.801H141.189Z" fill="#5A66FF" stroke="black" stroke-miterlimit="10" stroke-linecap="round" stroke-linejoin="round"/>
<path d="M93.6311 176.868C123.711 176.868 148.095 167.436 148.095 155.801C148.095 144.167 123.711 134.735 93.6311 134.735C63.5514 134.735 39.167 144.167 39.167 155.801C39.167 167.436 63.5514 176.868 93.6311 176.868Z" fill="white" stroke="black" stroke-miterlimit="10" stroke-linecap="round" stroke-linejoin="round"/>
<path d="M141.189 145.525C131.879 139.092 114.081 134.735 93.6513 134.735C73.2222 134.735 55.4237 139.092 46.1134 145.525H39.1873V155.801C39.1873 167.434 63.5625 176.867 93.6513 176.867C123.74 176.867 148.115 167.434 148.115 155.801V145.525H141.189Z" fill="#5A66FF" stroke="black" stroke-miterlimit="10" stroke-linecap="round" stroke-linejoin="round"/>
<path d="M93.6311 166.591C123.711 166.591 148.095 157.16 148.095 145.525C148.095 133.89 123.711 124.459 93.6311 124.459C63.5514 124.459 39.167 133.89 39.167 145.525C39.167 157.16 63.5514 166.591 93.6311 166.591Z" fill="white" stroke="black" stroke-miterlimit="10" stroke-linecap="round" stroke-linejoin="round"/>
</g>
<path d="M94.3503 187C145.713 187 187.35 145.362 187.35 94C187.35 42.6375 145.713 1 94.3503 1C42.9879 1 1.35034 42.6375 1.35034 94C1.35034 145.362 42.9879 187 94.3503 187Z" stroke="#181919" stroke-miterlimit="10"/>
<path fill-rule="evenodd" clip-rule="evenodd" d="M130.953 106.085C129.597 99.8985 126.966 96.0141 124.808 89.9511C122.876 84.5253 120.06 82.6756 116.011 79.3049C113.771 77.4347 113.072 74.2901 110.647 72.5637C107.462 70.303 102.878 69.9947 99.1995 68.9465C95.0479 67.7956 90.6702 67.0351 86.3542 66.7885C82.2231 66.5624 76.1807 67.59 72.8718 70.4263C70.241 72.6459 67.3842 75.0711 65.5756 78.0512C64.6713 79.531 64.7124 81.3602 63.9931 82.9016C63.2737 84.4636 61.1773 84.813 60.6224 86.2722C60.0264 87.8548 60.1703 89.6223 59.3482 91.1432C58.1356 93.3834 55.9159 94.8837 55.1144 97.4117C54.3334 99.8574 54.8883 102.447 55.0939 104.954C55.2788 107.297 55.7926 110.175 56.4914 112.497C57.1902 114.779 58.5055 116.71 59.677 118.745C60.3142 119.834 60.5402 121.335 61.3007 122.321C62.0406 123.287 63.3148 123.657 64.1369 124.603C65.7606 126.452 66.9526 128.878 68.4735 130.851C72.2551 135.742 77.0439 141.271 82.7575 143.696C84.6278 144.497 86.5391 145.772 88.3683 146.717C89.7247 147.416 93.938 147.847 97.7197 148.094C101.029 148.731 104.07 148.998 107.585 147.642C111.099 146.285 113.915 142.977 116.155 140.099C118.457 137.14 121.314 133.933 122.814 130.44C123.78 128.158 127.212 123.308 127.87 122.362C128.816 120.985 129.35 117.286 129.843 115.724C130.049 115.087 131.323 112.312 131.549 111.675C132.31 109.579 131.446 108.366 130.953 106.085Z" fill="#DF485D" stroke="black" stroke-miterlimit="10"/>
<path d="M86.5186 101.358C86.7652 101.461 87.0324 101.502 87.2585 101.502C88.5739 101.502 89.4165 100.084 89.6631 98.6656C89.9098 97.3297 89.9098 96.0143 89.6426 94.8223C89.5399 94.3084 89.2726 93.548 88.841 92.9931C88.3272 92.2737 87.7929 92.1299 87.4435 92.1299C87.2996 92.1299 87.1558 92.1504 87.0119 92.2121C85.1827 92.8492 85.0388 95.2333 84.9361 96.5076L84.9155 96.7336C84.8127 98.2956 84.6483 100.639 86.5186 101.358Z" fill="#070707"/>
<path d="M96.8567 101.933C97.0417 101.974 97.2266 101.974 97.3705 101.974C97.946 101.974 98.3776 101.748 98.8503 101.173C99.7957 100.042 100.659 97.8022 100.433 96.158C100.31 95.3154 100.042 94.4727 99.693 93.8973C99.2819 93.219 98.7886 93.0957 98.4598 93.0957C97.35 93.0957 96.4457 94.5138 96.1785 94.966C95.7674 95.6648 95.5414 96.9801 95.4592 97.8844C95.418 97.9461 95.1508 101.604 96.8567 101.933Z" fill="#070707"/>
<path d="M78.0307 98.9119C78.7295 104.05 80.3532 109.27 83.9293 113.011C87.5055 116.751 93.4451 118.581 98.0694 116.279C99.5492 115.539 100.823 114.45 101.933 113.237C105.119 109.743 107.113 105.18 107.482 100.453" stroke="black" stroke-miterlimit="10" stroke-linecap="round" stroke-linejoin="round"/>
<path d="M128.397 84.9425C128.122 83.3422 129.13 81.8969 129.918 80.4977C131.421 77.8696 132.224 74.9157 133.013 71.9959C133.679 69.5091 134.327 66.71 132.881 64.3952C132.349 63.5344 131.591 62.838 131 62.012C130.408 61.186 130.022 60.1452 130.401 59.2769C130.565 58.9024 130.859 58.5847 131.108 58.2678C134.106 54.5491 133.493 49.2123 132.854 44.3914C132.746 43.5738 132.78 42.5341 133.591 42.3003C133.87 42.2194 134.16 42.2651 134.431 42.3026C136.781 42.7008 139.413 43.5672 141.347 42.3846C141.805 42.0978 142.225 41.6934 142.797 41.7003C143.281 41.7088 143.727 42.0051 144.102 42.3111C147.564 44.9794 151.107 48.3726 155.424 48.3733C156.48 48.5914 157.157 48.2586 157.116 47.6933C157.105 47.4654 156.952 47.2569 156.818 47.0565C156.287 46.297 155.755 45.5375 155.224 44.7781C154.019 43.0757 152.804 41.3483 151.261 39.863C149.446 38.1376 147.167 36.7159 146.074 34.5554C146.283 31.7471 144.29 28.9097 141.729 27.1212C139.167 25.3328 136.126 24.389 133.133 23.4867C131.526 23.0079 129.82 22.5054 128.228 22.8035C125.767 23.2689 124.205 25.425 121.929 26.3771C119.523 27.3737 116.466 26.9709 114.339 28.3934C113.216 29.1396 112.506 30.3093 111.695 31.3541C109.981 33.5044 107.668 35.1499 105.388 36.7694C103.945 37.2339 102.086 38.7531 101.022 40.4782C99.9583 42.2032 99.456 44.2141 98.3737 45.931C97.0645 48.0151 95.008 49.5293 92.9441 50.9593C91.8917 51.6957 90.7946 52.4329 90.1475 53.5086C89.876 53.978 89.6714 54.4969 89.3813 54.9581C88.3473 56.5137 86.1832 57.0076 84.8332 58.3237C83.4683 59.6738 83.1333 61.8592 83.1107 63.735C78.3034 60.8031 72.6443 59.1616 67.078 59.0814C66.4607 59.0753 65.7765 59.121 65.4121 59.5498C64.9844 60.0725 65.2408 60.8537 65.5717 61.4646C66.5084 63.1716 67.9992 64.5733 69.5273 65.8898C73.7991 69.5407 78.532 72.6429 83.4212 75.4889C101.658 86.0935 122.056 93.0194 142.815 96.0277C143.276 96.0873 143.781 96.146 144.124 95.8697C144.823 95.2831 143.938 94.1665 143.131 93.6315C138.235 90.2956 133.048 87.3196 128.397 84.9425Z" fill="#5A66FF"/>
<path d="M128.397 84.9425C128.122 83.3422 129.13 81.8969 129.918 80.4977C131.421 77.8696 132.224 74.9157 133.013 71.9959C133.679 69.5091 134.327 66.71 132.881 64.3952C132.349 63.5344 131.591 62.838 131 62.012C130.408 61.186 130.022 60.1452 130.401 59.2769C130.565 58.9024 130.859 58.5847 131.108 58.2678C134.106 54.5491 133.493 49.2123 132.854 44.3914C132.746 43.5738 132.78 42.5341 133.591 42.3003C133.87 42.2194 134.16 42.2651 134.431 42.3026C136.781 42.7008 139.413 43.5672 141.347 42.3846C141.805 42.0978 142.225 41.6934 142.797 41.7003C143.281 41.7088 143.727 42.0051 144.102 42.3111C147.564 44.9794 151.107 48.3726 155.424 48.3733C156.48 48.5914 157.157 48.2586 157.116 47.6933C157.105 47.4654 156.952 47.2569 156.818 47.0565C156.287 46.297 155.755 45.5375 155.224 44.7781C154.019 43.0757 152.804 41.3483 151.261 39.863C149.446 38.1376 147.167 36.7159 146.074 34.5554C146.283 31.7471 144.29 28.9097 141.729 27.1212C139.167 25.3328 136.126 24.389 133.133 23.4867C131.526 23.0079 129.82 22.5054 128.228 22.8035C125.767 23.2689 124.205 25.425 121.929 26.3771C119.523 27.3737 116.466 26.9709 114.339 28.3934C113.216 29.1396 112.506 30.3093 111.695 31.3541C109.981 33.5044 107.668 35.1499 105.388 36.7694C103.945 37.2339 102.086 38.7531 101.022 40.4782C99.9583 42.2032 99.456 44.2141 98.3737 45.931C97.0645 48.0151 95.008 49.5293 92.9441 50.9593C91.8917 51.6957 90.7946 52.4329 90.1475 53.5086C89.876 53.978 89.6714 54.4969 89.3813 54.9581C88.3473 56.5137 86.1832 57.0076 84.8332 58.3237C83.4683 59.6738 83.1333 61.8592 83.1107 63.735C78.3034 60.8031 72.6443 59.1616 67.078 59.0814C66.4607 59.0753 65.7765 59.121 65.4121 59.5498C64.9844 60.0725 65.2408 60.8537 65.5717 61.4646C66.5084 63.1716 67.9992 64.5733 69.5273 65.8898C73.7991 69.5407 78.532 72.6429 83.4212 75.4889C101.658 86.0935 122.056 93.0194 142.815 96.0277C143.276 96.0873 143.781 96.146 144.124 95.8697C144.823 95.2831 143.938 94.1665 143.131 93.6315C138.235 90.2956 133.048 87.3196 128.397 84.9425Z" fill="#A37D65" stroke="#120000" stroke-miterlimit="10" stroke-linecap="round" stroke-linejoin="round"/>
<path d="M133.468 42.2266C131.553 39.7679 129.572 37.2597 126.832 35.9812C126.43 35.7855 125.988 35.6327 125.515 35.6494C125.062 35.6742 124.549 35.9366 124.303 36.3971C124.058 36.8575 124.117 37.4309 124.359 37.8407C124.6 38.2504 124.998 38.5053 125.433 38.6751" stroke="#120000" stroke-miterlimit="10" stroke-linecap="round" stroke-linejoin="round"/>
<path d="M104.186 42.3068C106.825 45.3864 109.439 48.4749 112.079 51.5545C113.194 52.8529 114.387 54.2259 116.019 54.7972C117.072 55.1759 118.224 55.1727 119.306 55.0778C122.854 54.7624 126.227 53.3772 128.804 51.178C129.321 50.7551 129.823 50.2648 130.473 50.0422C131.124 49.8197 131.994 49.9566 132.411 50.5237C132.425 50.7938 132.429 51.0387 132.444 51.3088" stroke="#120000" stroke-miterlimit="10" stroke-linecap="round" stroke-linejoin="round"/>
<path d="M106.83 40.3598C109.812 44.0755 112.804 47.8163 115.786 51.5319C116.087 51.9068 116.407 52.2898 116.864 52.5099C117.236 52.6724 117.649 52.6905 118.05 52.6835C121.222 52.6704 124.312 51.6281 126.688 49.7872C128.22 48.6116 129.559 47.0676 131.526 46.67" stroke="#120000" stroke-miterlimit="10" stroke-linecap="round" stroke-linejoin="round"/>
<path d="M127.312 53.3243C128.275 53.299 129.272 53.3492 130.239 53.4675C131.358 55.2135 131.353 57.503 130.227 59.1193C129.066 60.7615 126.913 61.6861 126.128 63.533" stroke="#120000" stroke-miterlimit="10" stroke-linecap="round" stroke-linejoin="round"/>
<path d="M105.877 44.668C105.126 44.36 104.305 44.0618 103.565 44.2859C103.234 44.3846 102.955 44.5669 102.694 44.7573C101.508 45.5975 100.433 46.5877 99.5222 47.7103" stroke="#120000" stroke-miterlimit="10" stroke-linecap="round" stroke-linejoin="round"/>
<path d="M92.4636 54.7438C98.4055 55.13 104.366 55.5244 110.308 55.9106C111.62 55.9975 112.951 56.0926 114.152 56.6376C116.573 57.7358 117.774 60.3083 119.35 62.3758C122.067 65.9356 126.455 68.3596 130.961 68.7878" stroke="#120000" stroke-miterlimit="10" stroke-linecap="round" stroke-linejoin="round"/>
<path d="M93.1853 53.1937C97.8816 53.0357 102.6 53.1307 107.304 53.4625C110.873 53.7043 114.755 54.2448 117.439 56.614C119.562 58.4946 120.592 61.256 122.748 63.1106C124.748 64.8159 127.626 65.526 130.11 64.9082" stroke="#120000" stroke-miterlimit="10" stroke-linecap="round" stroke-linejoin="round"/>
<path d="M130.521 76.6856C129.435 76.9411 128.323 77.1041 127.193 77.1576C126.669 77.1921 126.122 77.1763 125.624 76.9991C124.59 76.6286 123.981 75.5917 123.114 74.8888C121.702 73.7645 119.779 73.6545 117.983 73.4577C111.908 72.7697 105.97 70.2968 101.189 66.4436C99.4859 65.071 97.8538 63.4859 95.794 62.7278C93.1058 61.7357 90.1794 62.3021 87.3423 62.1573C87.3572 61.6164 87.3796 61.0584 87.402 60.7032C89.0308 59.8131 91.0944 60.1066 92.9647 60.4372C94.7606 60.7353 96.5491 61.0504 98.2706 61.6202C103.093 63.2002 107.064 66.6789 111.67 68.8541C116.686 71.2079 122.516 72.0523 130.521 76.6856Z" stroke="#120000" stroke-miterlimit="10" stroke-linecap="round" stroke-linejoin="round"/>
<path d="M87.1821 64.6018C88.61 64.2727 90.0825 63.9429 91.5661 64.1451C93.0125 64.331 94.3845 64.9913 95.5445 65.8834C96.7119 66.7585 97.7008 67.8395 98.6116 68.9471" stroke="#120000" stroke-miterlimit="10" stroke-linecap="round" stroke-linejoin="round"/>
<path d="M112.833 77.8984C116.852 77.8705 120.894 78.2984 124.858 79.1584Z" fill="#5A66FF"/>
<path d="M112.833 77.8984C116.852 77.8705 120.894 78.2984 124.858 79.1584" stroke="#120000" stroke-miterlimit="10" stroke-linecap="round" stroke-linejoin="round"/>
</svg>
