<svg width="92" height="92" viewBox="0 0 92 92" fill="none" xmlns="http://www.w3.org/2000/svg">
<path d="M45.9154 90.8308C70.7215 90.8308 90.8308 70.7215 90.8308 45.9154C90.8308 21.1093 70.7215 1 45.9154 1C21.1093 1 1 21.1093 1 45.9154C1 70.7215 21.1093 90.8308 45.9154 90.8308Z" fill="#EBEBEB"/>
<path d="M57.946 16.8917C58.7354 16.8917 59.3753 16.2517 59.3753 15.4623C59.3753 14.6729 58.7354 14.033 57.946 14.033C57.1565 14.033 56.5166 14.6729 56.5166 15.4623C56.5166 16.2517 57.1565 16.8917 57.946 16.8917Z" fill="#FFF58C" stroke="#181919" stroke-miterlimit="10" stroke-linecap="round" stroke-linejoin="round"/>
<path d="M38.5702 16.8917C39.3596 16.8917 39.9995 16.2517 39.9995 15.4623C39.9995 14.6729 39.3596 14.033 38.5702 14.033C37.7808 14.033 37.1409 14.6729 37.1409 15.4623C37.1409 16.2517 37.7808 16.8917 38.5702 16.8917Z" fill="#FFF58C" stroke="#181919" stroke-miterlimit="10" stroke-linecap="round" stroke-linejoin="round"/>
<path d="M48.8438 8.32546L49.7371 11.075C49.8165 11.3331 50.0548 11.5018 50.3228 11.5018H53.2112C53.8068 11.5018 54.055 12.2661 53.5785 12.6135L51.2359 14.3109C51.0176 14.4697 50.9282 14.7476 51.0077 14.9958L51.901 17.7453C52.0896 18.3111 51.4345 18.7875 50.9481 18.4302L48.6055 16.7328C48.3872 16.574 48.0993 16.574 47.8809 16.7328L45.5384 18.4302C45.052 18.7776 44.4068 18.3111 44.5855 17.7453L45.4788 14.9958C45.5582 14.7377 45.4689 14.4598 45.2505 14.3109L42.908 12.6135C42.4216 12.2661 42.6698 11.5018 43.2752 11.5018H46.1637C46.4317 11.5018 46.67 11.3331 46.7494 11.075L47.6427 8.32546C47.8611 7.74975 48.6552 7.74975 48.8438 8.32546Z" fill="#FFF58C" stroke="#181919" stroke-miterlimit="10" stroke-linecap="round" stroke-linejoin="round"/>
<path d="M57.946 16.8917C58.7354 16.8917 59.3753 16.2517 59.3753 15.4623C59.3753 14.6729 58.7354 14.033 57.946 14.033C57.1565 14.033 56.5166 14.6729 56.5166 15.4623C56.5166 16.2517 57.1565 16.8917 57.946 16.8917Z" fill="#FFF58C" stroke="#181919" stroke-miterlimit="10" stroke-linecap="round" stroke-linejoin="round"/>
<path d="M38.5702 16.8917C39.3596 16.8917 39.9995 16.2517 39.9995 15.4623C39.9995 14.6729 39.3596 14.033 38.5702 14.033C37.7808 14.033 37.1409 14.6729 37.1409 15.4623C37.1409 16.2517 37.7808 16.8917 38.5702 16.8917Z" fill="#FFF58C" stroke="#181919" stroke-miterlimit="10" stroke-linecap="round" stroke-linejoin="round"/>
<path d="M48.8438 8.32546L49.7371 11.075C49.8165 11.3331 50.0548 11.5018 50.3228 11.5018H53.2112C53.8068 11.5018 54.055 12.2661 53.5785 12.6135L51.2359 14.3109C51.0176 14.4697 50.9282 14.7476 51.0077 14.9958L51.901 17.7453C52.0896 18.3111 51.4345 18.7875 50.9481 18.4302L48.6055 16.7328C48.3872 16.574 48.0993 16.574 47.8809 16.7328L45.5384 18.4302C45.052 18.7776 44.4068 18.3111 44.5855 17.7453L45.4788 14.9958C45.5582 14.7377 45.4689 14.4598 45.2505 14.3109L42.908 12.6135C42.4216 12.2661 42.6698 11.5018 43.2752 11.5018H46.1637C46.4317 11.5018 46.67 11.3331 46.7494 11.075L47.6427 8.32546C47.8611 7.74975 48.6552 7.74975 48.8438 8.32546Z" fill="#FFF58C" stroke="#181919" stroke-miterlimit="10" stroke-linecap="round" stroke-linejoin="round"/>
<mask id="mask0_576_12039" style="mask-type:luminance" maskUnits="userSpaceOnUse" x="3" y="21" width="36" height="36">
<path d="M36.9821 56.2188C36.853 55.792 36.4857 55.4942 36.1383 55.2163C35.6222 54.7994 35.106 54.3924 34.5899 53.9755C33.9844 53.4892 33.3789 53.0028 32.7039 52.6157C30.3912 51.2657 27.592 51.1367 25.0509 50.293C24.227 50.015 23.4231 49.6676 22.7481 49.1217C21.3882 48.0398 20.6735 46.3424 20.1177 44.6947C19.5618 43.0469 19.0854 41.3198 18.0233 39.9401C17.0307 39.2453 16.0678 38.5306 14.9363 38.2527C13.0304 37.7861 11.0055 38.6497 9.08982 38.2229C8.55381 38.1038 8.04758 37.8854 7.57113 37.6174C5.36755 36.4163 3.65033 34.183 3.41211 31.6816C4.31538 27.8601 6.10206 24.3065 8.58358 21.6166C8.36521 23.8896 8.13691 26.1925 8.58358 28.4358C9.03025 30.6791 10.2313 32.8727 12.2364 33.9547C14.3407 35.0962 17.1299 34.9671 18.7777 36.6943C19.1747 37.1112 19.4626 37.5975 19.7603 38.0938C20.6537 39.5927 21.5569 41.1014 22.1724 42.7293C22.5495 43.7318 22.8275 44.7939 23.3833 45.7071C24.0782 46.8586 25.2097 47.7519 26.5498 48.1489C27.1155 48.9629 28.2273 49.1415 29.2099 49.2607C30.7088 49.4393 32.2374 49.6577 33.5873 50.3525C34.6097 50.8786 35.4733 51.6628 36.2773 52.4767C36.8431 53.0425 38.0739 54.2435 38.1434 55.0674C38.2029 55.5538 37.3989 55.5538 36.9821 56.2188Z" fill="white"/>
</mask>
<g mask="url(#mask0_576_12039)">
<path d="M3.50121 1.27808L-9.44238 26.252" stroke="black" stroke-miterlimit="10"/>
<path d="M5.64525 4.23608L-7.29834 29.2101" stroke="black" stroke-miterlimit="10"/>
<path d="M7.78947 7.20374L-5.16406 32.1678" stroke="black" stroke-miterlimit="10"/>
<path d="M9.93351 10.1617L-3.02002 35.1357" stroke="black" stroke-miterlimit="10"/>
<path d="M12.0773 13.1199L-0.876221 38.0938" stroke="black" stroke-miterlimit="10"/>
<path d="M14.2216 16.0778L1.26807 41.0517" stroke="black" stroke-miterlimit="10"/>
<path d="M16.3656 19.0458L3.41211 44.0098" stroke="black" stroke-miterlimit="10"/>
<path d="M18.5096 22.0035L5.55615 46.9775" stroke="black" stroke-miterlimit="10"/>
<path d="M20.6534 24.9617L7.69995 49.9356" stroke="black" stroke-miterlimit="10"/>
<path d="M22.7975 27.9196L9.84399 52.8935" stroke="black" stroke-miterlimit="10"/>
<path d="M24.9318 30.8873L11.9883 55.8514" stroke="black" stroke-miterlimit="10"/>
<path d="M27.0757 33.8455L14.1321 58.8194" stroke="black" stroke-miterlimit="10"/>
<path d="M29.2197 36.8035L16.2761 61.7774" stroke="black" stroke-miterlimit="10"/>
<path d="M31.3638 39.7712L18.4202 64.7353" stroke="black" stroke-miterlimit="10"/>
<path d="M33.5078 42.7292L20.5642 67.7032" stroke="black" stroke-miterlimit="10"/>
<path d="M35.6521 45.6873L22.7085 70.6612" stroke="black" stroke-miterlimit="10"/>
<path d="M37.7959 48.6451L24.8523 73.6191" stroke="black" stroke-miterlimit="10"/>
<path d="M39.9399 51.613L26.9963 76.5771" stroke="black" stroke-miterlimit="10"/>
<path d="M42.0842 54.571L29.1406 79.545" stroke="black" stroke-miterlimit="10"/>
</g>
<path d="M68.2192 46.0149C69.4302 45.2109 70.135 43.8312 70.5618 42.4515C70.9985 41.0618 71.207 39.6126 71.7132 38.2527C72.8845 35.1161 75.4851 32.7438 78.1652 30.7288C80.2893 29.1307 82.6319 27.5326 83.6046 25.061C83.9223 24.2471 84.0712 23.3736 84.4781 22.6093C82.7014 18.7778 79.8526 15.8595 77.0634 13.0306C76.5274 12.4847 75.9814 11.9387 75.3561 11.4921C73.0235 12.3953 71.1276 14.182 69.7876 16.2466C68.4475 18.3113 67.6038 20.6538 66.7998 22.9864C66.5814 23.6316 66.3531 24.2967 66.373 24.9816C66.3928 25.7161 66.6807 26.4606 66.4723 27.1653C65.9859 29.8057 66.1745 32.5651 67.3358 34.9176C67.6336 35.5131 67.9909 36.0988 68.12 36.744C68.2192 37.2303 68.1994 37.7366 68.2788 38.2329C68.3681 38.759 68.5766 39.2652 68.656 39.8012C68.8744 41.31 67.991 42.7691 66.9487 43.8907C66.6112 44.2481 66.2539 44.5955 65.7973 44.794C64.6657 45.2903 63.3852 44.6947 62.2437 44.2084C60.2486 43.3647 58.0847 42.8187 55.9109 42.9081C53.7371 42.9974 51.5633 43.7617 49.9751 45.2407C49.0421 46.1142 48.3473 47.206 47.7418 48.3376C47.047 49.6379 46.4613 51.0077 46.0444 52.6257C46.4415 52.6554 46.8584 52.4172 47.2355 52.5562C47.3447 52.5959 47.4341 52.6654 47.5432 52.6952C47.6822 52.7448 47.8311 52.7249 47.98 52.7249C48.645 52.7051 49.32 52.8738 49.9851 53.4694C50.5608 51.8812 51.5931 50.4717 52.9331 49.4493C53.3599 49.1218 53.8264 48.8339 54.3327 48.6354C55.0672 48.3575 55.8712 48.288 56.6554 48.2284C58.9781 48.0498 61.3008 47.9207 63.6334 47.8314C64.4771 47.8016 65.3407 47.7718 66.1447 47.4939C66.9586 47.2358 67.4946 46.4914 68.2192 46.0149Z" fill="white"/>
<mask id="mask1_576_12039" style="mask-type:luminance" maskUnits="userSpaceOnUse" x="46" y="11" width="39" height="43">
<path d="M68.2192 46.1537C69.4302 45.3497 70.135 43.97 70.5618 42.5902C70.9985 41.2006 71.207 39.7514 71.7132 38.3915C72.8845 35.2549 75.4851 32.8826 78.1652 30.8676C80.2893 29.2695 82.6319 27.6714 83.6046 25.1998C83.9223 24.3859 84.0712 23.5124 84.4781 22.748C82.7014 18.9166 79.8526 15.9983 77.0634 13.1694C76.5274 12.6235 75.9814 12.0775 75.3561 11.6309C73.0235 12.5341 71.1276 14.3208 69.7876 16.3854C68.4475 18.4501 67.6038 20.7926 66.7998 23.1252C66.5814 23.7704 66.3531 24.4355 66.373 25.1204C66.3928 25.8549 66.6807 26.5994 66.4723 27.3041C65.9859 29.9444 66.1745 32.7039 67.3358 35.0564C67.6336 35.6519 67.9909 36.2376 68.12 36.8828C68.2192 37.3691 68.1994 37.8754 68.2788 38.3717C68.3681 38.8978 68.5766 39.404 68.656 39.94C68.8744 41.4488 67.991 42.9079 66.9487 44.0295C66.6112 44.3869 66.2539 44.7343 65.7973 44.9328C64.6657 45.4291 63.3852 44.8335 62.2437 44.3472C60.2486 43.5034 58.0847 42.9575 55.9109 43.0468C53.7371 43.1362 51.5633 43.9005 49.9751 45.3795C49.0421 46.253 48.3473 47.3448 47.7418 48.4764C47.047 49.7767 46.4613 51.1465 46.0444 52.7645C46.4415 52.7942 46.8584 52.556 47.2355 52.695C47.3447 52.7347 47.4341 52.8042 47.5432 52.8339C47.6822 52.8836 47.8311 52.8637 47.98 52.8637C48.645 52.8439 49.32 53.0126 49.9851 53.6082C50.5608 52.02 51.5931 50.6105 52.9331 49.5881C53.3599 49.2606 53.8264 48.9727 54.3327 48.7742C55.0672 48.4963 55.8712 48.4268 56.6554 48.3672C58.9781 48.1885 61.3008 48.0595 63.6334 47.9702C64.4771 47.9404 65.3407 47.9106 66.1447 47.6327C66.9586 47.3746 67.4946 46.6302 68.2192 46.1537Z" fill="white"/>
</mask>
<g mask="url(#mask1_576_12039)">
<path d="M83.9221 0.682373L96.8756 25.6563" stroke="black" stroke-miterlimit="10"/>
<path d="M81.7683 3.13416L94.7119 28.1081" stroke="black" stroke-miterlimit="10"/>
<path d="M79.604 5.58594L92.5575 30.55" stroke="black" stroke-miterlimit="10"/>
<path d="M77.4405 8.0376L90.394 33.0016" stroke="black" stroke-miterlimit="10"/>
<path d="M75.2864 10.4792L88.23 35.4532" stroke="black" stroke-miterlimit="10"/>
<path d="M73.1226 12.9313L86.0761 37.9052" stroke="black" stroke-miterlimit="10"/>
<path d="M70.9686 15.3828L83.9122 40.3568" stroke="black" stroke-miterlimit="10"/>
<path d="M68.8047 17.8347L81.7483 42.8087" stroke="black" stroke-miterlimit="10"/>
<path d="M66.6409 20.2864L79.5944 45.2603" stroke="black" stroke-miterlimit="10"/>
<path d="M64.4868 22.7382L77.4304 47.7022" stroke="black" stroke-miterlimit="10"/>
<path d="M62.323 25.1899L75.2765 50.154" stroke="black" stroke-miterlimit="10"/>
<path d="M60.1592 27.6316L73.1127 52.6056" stroke="black" stroke-miterlimit="10"/>
<path d="M58.0052 30.0834L70.9488 55.0573" stroke="black" stroke-miterlimit="10"/>
<path d="M55.8413 32.535L68.7948 57.509" stroke="black" stroke-miterlimit="10"/>
<path d="M53.6873 34.9869L66.6308 59.9609" stroke="black" stroke-miterlimit="10"/>
<path d="M51.5234 37.4386L64.467 62.4126" stroke="black" stroke-miterlimit="10"/>
<path d="M49.3594 39.8903L62.3129 64.8543" stroke="black" stroke-miterlimit="10"/>
<path d="M47.2056 42.3322L60.1492 67.3061" stroke="black" stroke-miterlimit="10"/>
<path d="M45.0417 44.7839L57.9853 69.7579" stroke="black" stroke-miterlimit="10"/>
<path d="M42.8777 47.2356L55.8312 72.2096" stroke="black" stroke-miterlimit="10"/>
<path d="M40.7239 49.6874L53.6675 74.6613" stroke="black" stroke-miterlimit="10"/>
</g>
<path d="M41.4584 53.4989C42.1632 53.3302 42.868 53.1515 43.5032 52.9729C42.9573 51.3946 42.4312 49.7866 42.3121 48.129C42.193 46.4614 42.5404 44.7144 43.5727 43.4041C45.0616 41.5281 47.5927 40.9326 49.7169 39.8208C51.5929 38.8382 53.2208 37.379 54.3921 35.6221C55.206 34.4012 55.8314 32.9421 55.5932 31.4929C55.4542 30.6492 55.0373 29.8749 54.6105 29.1305C53.5285 27.2247 52.2183 25.2097 50.0842 24.6439C46.6398 22.8671 42.5404 23.0656 38.6891 23.5123C37.0116 23.7108 35.344 23.9391 33.726 24.4057C29.577 25.6067 26.0135 28.2471 22.5592 30.8278C22.3111 31.0164 22.053 31.2149 21.9239 31.5028C21.8148 31.751 21.8247 32.0388 21.8446 32.3167C22.0431 34.57 23.0952 36.6346 24.1375 38.6496C24.7231 39.7811 25.3187 40.9226 26.222 41.816C27.2146 42.7987 28.5148 43.4141 29.8251 43.9005C31.3041 44.4365 32.8327 44.8236 34.3812 45.0618C35.205 45.1809 36.0587 45.2702 36.7733 45.6971C37.4086 46.0842 37.8652 46.6996 38.292 47.3051C39.5129 49.0322 41.0912 53.6677 41.0912 53.6677L41.4584 53.4989Z" fill="#5A66FF"/>
<path d="M68.2886 37.2598C67.9214 37.3095 67.5442 37.3393 67.1571 37.3393C62.5216 37.3393 58.7695 33.5872 58.7695 28.9517C58.7695 24.3163 62.5216 20.5642 67.1571 20.5642C67.3258 20.5642 67.3457 20.6039 67.5243 20.6138" stroke="black" stroke-miterlimit="10" stroke-linecap="round" stroke-linejoin="round"/>
<path d="M75.4751 12.0377C71.1274 13.8344 67.7426 17.8246 66.6905 22.4105C65.3703 28.1775 67.564 34.0736 69.0132 39.8109C68.9933 41.3296 68.4772 42.8284 67.4746 43.8508C66.4622 44.8732 64.9733 45.3893 63.5439 45.2305C61.7076 45.0121 60.1591 43.7714 58.3625 43.3445C56.9034 42.9971 55.3648 43.2254 53.8958 43.553C52.7344 43.821 51.5731 44.1585 50.5606 44.7937C47.9104 46.4514 46.8185 49.8163 46.759 52.943C45.6969 52.675 44.8135 52.7942 44.0293 53.1416C42.858 52.3773 42.6099 51.0472 42.461 49.8461C42.193 47.8609 41.9746 45.6772 43.0565 43.9997C43.8903 42.7093 45.3296 41.9648 46.6994 41.2799C48.3273 40.466 49.9551 39.6521 51.583 38.848C52.6848 38.3021 53.8164 37.7165 54.5708 36.7437C55.3847 35.6816 55.6229 34.292 55.6229 32.952C55.6229 31.2248 55.2457 29.4679 54.3425 27.9989C53.2506 26.2221 51.454 24.9416 49.4985 24.217C47.5431 23.4924 45.4289 23.284 43.3444 23.284C35.3043 23.3038 27.3138 26.5894 21.5865 32.2274C20.5542 27.0857 20.6832 22.5097 20.8321 18.043C20.9413 14.5193 21.0802 10.9062 22.1721 7.70998C33.9047 0.374624 49.1611 -1.01503 62.1444 3.91823C67.0081 6.0424 71.6138 8.81178 75.4751 12.0377Z" fill="#B180E0"/>
<path d="M88.5281 32.5153C88.5479 30.1628 86.8704 28.1776 85.987 25.9939C85.5106 24.8127 85.2525 23.5123 84.4485 22.5297C84.0415 24.7928 82.9993 27.2743 81.3217 28.7732C79.6442 30.272 77.6888 31.4234 75.9121 32.8031C74.1353 34.1829 72.4776 35.8504 71.7133 37.9647C71.0284 39.8705 71.0979 42.0244 70.1847 43.831C69.3311 45.5184 67.6834 46.6996 65.9165 47.3448C64.1397 47.99 62.2339 48.1687 60.348 48.2481C58.3429 48.3374 56.2982 48.3473 54.4221 49.0322C52.5362 49.7171 50.819 51.2458 50.3127 53.221C51.9704 54.0648 53.5288 55.107 54.9482 56.2981C56.3974 54.7199 58.3032 52.695 60.3083 51.9307C61.3902 51.5138 63.3159 51.0869 63.3159 51.0869C63.3159 51.0869 65.7974 50.7594 67.0481 50.3822C68.0804 50.0646 68.9241 49.5881 69.7182 48.8436C71.8424 46.8783 71.6339 43.702 73.232 41.2899C74.046 40.0492 75.3661 39.2054 76.7756 38.729C78.1851 38.2525 79.674 38.1136 81.153 38.0342C81.8776 37.9945 82.6022 37.9746 83.2971 37.7959C85.8282 37.1905 88.5082 35.0365 88.5281 32.5153Z" fill="#FF88B6"/>
<path d="M21.12 8.98081C16.4945 11.234 12.9013 15.1747 9.89366 19.3535C9.3775 20.0682 8.87129 20.8127 8.63306 21.6663C8.40476 22.4803 8.44445 23.3438 8.49408 24.1975C8.57349 25.607 8.66282 27.0065 8.77201 28.416C8.82164 29.1109 8.89114 29.8355 9.18892 30.4608C9.4867 31.0861 9.99294 31.5825 10.4992 32.049C11.5215 32.992 12.6134 33.8952 13.8541 34.5305C15.0552 35.1459 16.3655 35.5032 17.5665 36.1087C18.7676 36.7142 19.9091 37.6374 20.1076 38.9178C22.1821 40.9824 21.8645 44.5955 23.81 46.7792C24.9515 48.0696 26.7084 48.6354 28.3959 48.963C30.0932 49.2905 31.8402 49.4394 33.4283 50.1144C35.7312 51.107 37.508 53.251 38.0638 55.8417C38.3318 55.2065 38.8877 54.74 39.4832 54.4025C40.0788 54.065 40.7339 53.8466 41.3394 53.4099C39.8406 50.9879 39.4435 47.7619 37.1605 46.0646C35.2547 44.6352 32.6442 44.7543 30.3414 44.1389C27.6018 43.4044 25.1798 41.5085 23.5023 39.0369C23.0159 38.0046 22.5891 36.9425 22.1226 35.7712C21.7652 31.4137 20.5046 27.1356 20.5245 22.7582C20.5344 21.1303 20.723 19.5024 20.9116 17.8746C21.2987 14.5692 21.6858 11.244 22.4601 8.00806C21.9836 8.4051 21.4972 8.79222 21.12 8.98081Z" fill="#56B381"/>
<path d="M3.61034 31.2844C3.55078 34.6196 6.26058 37.786 9.57588 38.2327C11.2732 38.461 13.0202 38.054 14.7077 38.3716C16.1569 38.6496 17.4969 39.4933 18.3803 40.6745C20.2166 43.1361 20.0479 46.8187 22.2813 48.933C24.3558 50.8983 27.5818 50.6899 30.3412 51.4443C33.061 52.1788 35.473 53.9853 36.952 56.3775" stroke="black" stroke-miterlimit="10" stroke-linecap="round" stroke-linejoin="round"/>
<path d="M88.4784 31.2844C88.5379 34.6196 85.8281 37.786 82.5128 38.2327C80.8155 38.461 79.0685 38.054 77.381 38.3716C75.9318 38.6496 74.5918 39.4933 73.7084 40.6745C71.8721 43.1361 72.0408 46.8187 69.8075 48.933C67.7329 50.8983 64.5069 50.6899 61.7475 51.4443C59.0277 52.1788 56.6157 53.9853 55.1367 56.3775" stroke="black" stroke-miterlimit="10" stroke-linecap="round" stroke-linejoin="round"/>
<path d="M46.4514 52.2485C46.6102 49.3104 48.2183 46.4814 50.6502 44.8337C53.082 43.186 56.2981 42.7393 59.0873 43.6724C61.3802 44.4367 63.693 46.0943 65.976 45.3201C68.0406 44.6253 69.0134 42.1537 68.8744 39.9898C68.7354 37.816 67.7726 35.7911 67.1473 33.7066C65.6385 28.684 66.1249 23.0956 68.4674 18.4006C69.8769 15.5717 72.1599 12.9313 75.237 12.1869" stroke="black" stroke-miterlimit="10" stroke-linecap="round" stroke-linejoin="round"/>
<path d="M83.9422 21.8944C84.7562 28.3463 78.6715 30.0536 73.2221 35.503C70.8994 37.9151 71.6637 41.3396 69.9763 44.238C65.7775 51.9902 54.3924 44.506 50.3127 52.6453" stroke="black" stroke-miterlimit="10" stroke-linecap="round" stroke-linejoin="round"/>
<path d="M22.3408 7.85901C20.4548 15.5021 20.1769 23.5323 21.5268 31.2944C22.0132 34.0936 22.7279 36.9027 24.2267 39.3147C25.7255 41.7267 28.0879 43.7219 30.8772 44.2182C31.9194 44.4068 32.9914 44.377 34.0237 44.6152C35.9097 45.052 37.5078 46.3523 38.6393 47.9107C39.7709 49.479 40.4757 51.3054 41.0712 53.1417" stroke="black" stroke-miterlimit="10" stroke-linecap="round" stroke-linejoin="round"/>
<path d="M8.78195 21.1896C8.46431 23.4726 8.13674 25.7953 8.48415 28.0783C8.83156 30.3613 9.96314 32.6244 11.9384 33.8155C13.3976 34.689 15.1545 34.8975 16.7228 35.5824C18.9462 36.5551 20.7031 38.5503 21.398 40.8829C21.7156 41.9549 21.8149 43.0765 22.1722 44.1386C22.8273 46.104 24.3857 47.7418 26.3114 48.5061C28.0187 49.1811 29.9145 49.1811 31.6913 49.6575C34.5004 50.4119 36.9322 52.4467 38.173 55.0672" stroke="black" stroke-miterlimit="10" stroke-linecap="round" stroke-linejoin="round"/>
<path d="M21.9636 31.7312C27.2641 26.4009 34.6789 23.2246 42.2028 23.0558C45.806 22.9764 49.6077 23.6514 52.3771 25.9642C55.1464 28.267 56.4865 32.5352 54.6501 35.6421C51.99 40.1287 44.5057 40.2081 42.5602 45.0421C41.5477 47.5732 42.5106 50.4121 43.4833 52.963" stroke="black" stroke-miterlimit="10" stroke-linecap="round" stroke-linejoin="round"/>
<path d="M56.3181 17.0803C57.1075 17.0803 57.7474 16.4403 57.7474 15.6509C57.7474 14.8615 57.1075 14.2216 56.3181 14.2216C55.5287 14.2216 54.8887 14.8615 54.8887 15.6509C54.8887 16.4403 55.5287 17.0803 56.3181 17.0803Z" fill="#FFF58C" stroke="#181919" stroke-miterlimit="10" stroke-linecap="round" stroke-linejoin="round"/>
<path d="M36.9424 17.0803C37.7318 17.0803 38.3718 16.4403 38.3718 15.6509C38.3718 14.8615 37.7318 14.2216 36.9424 14.2216C36.153 14.2216 35.5131 14.8615 35.5131 15.6509C35.5131 16.4403 36.153 17.0803 36.9424 17.0803Z" fill="#FFF58C" stroke="#181919" stroke-miterlimit="10" stroke-linecap="round" stroke-linejoin="round"/>
<path d="M47.2159 8.50416L48.1092 11.2537C48.1886 11.5118 48.4268 11.6805 48.6948 11.6805H51.5833C52.1789 11.6805 52.427 12.4448 51.9506 12.7922L49.608 14.4896C49.3897 14.6484 49.3003 14.9263 49.3797 15.1745L50.2731 17.924C50.4617 18.4898 49.8066 18.9662 49.3202 18.6089L46.9776 16.9115C46.7593 16.7527 46.4714 16.7527 46.253 16.9115L43.9105 18.6089C43.4241 18.9563 42.7789 18.4898 42.9576 17.924L43.8509 15.1745C43.9303 14.9164 43.841 14.6385 43.6226 14.4896L41.3098 12.8021C40.8235 12.4547 41.0716 11.6904 41.6771 11.6904H44.5656C44.8336 11.6904 45.0718 11.5217 45.1512 11.2636L46.0446 8.51409C46.2233 7.93838 47.0273 7.93838 47.2159 8.50416Z" fill="#FFF58C" stroke="#181919" stroke-miterlimit="10" stroke-linecap="round" stroke-linejoin="round"/>
<mask id="mask2_576_12039" style="mask-type:luminance" maskUnits="userSpaceOnUse" x="1" y="1" width="90" height="90">
<path d="M46.0846 90.8308C70.8907 90.8308 91 70.7215 91 45.9154C91 21.1093 70.8907 1 46.0846 1C21.2785 1 1.16919 21.1093 1.16919 45.9154C1.16919 70.7215 21.2785 90.8308 46.0846 90.8308Z" fill="white"/>
</mask>
<g mask="url(#mask2_576_12039)">
<path d="M68.706 80.7261C64.2095 77.6192 55.6136 75.5149 45.7471 75.5149C35.8806 75.5149 27.2846 77.6192 22.7881 80.7261H19.443V85.6891C19.443 91.3073 31.2153 95.8633 45.7471 95.8633C60.2788 95.8633 72.0511 91.3073 72.0511 85.6891V80.7261H68.706Z" fill="#5A66FF" stroke="black" stroke-miterlimit="10" stroke-linecap="round" stroke-linejoin="round"/>
<path d="M45.7373 90.9003C60.2646 90.9003 72.0414 86.3452 72.0414 80.7261C72.0414 75.107 60.2646 70.5519 45.7373 70.5519C31.21 70.5519 19.4332 75.107 19.4332 80.7261C19.4332 86.3452 31.21 90.9003 45.7373 90.9003Z" fill="white" stroke="black" stroke-miterlimit="10" stroke-linecap="round" stroke-linejoin="round"/>
<path d="M68.706 75.7631C64.2095 72.6562 55.6136 70.5519 45.7471 70.5519C35.8806 70.5519 27.2846 72.6562 22.7881 75.7631H19.443V80.7261C19.443 86.3442 31.2153 90.9003 45.7471 90.9003C60.2788 90.9003 72.0511 86.3442 72.0511 80.7261V75.7631H68.706Z" fill="#5A66FF" stroke="black" stroke-miterlimit="10" stroke-linecap="round" stroke-linejoin="round"/>
<path d="M45.7373 85.9373C60.2646 85.9373 72.0414 81.3821 72.0414 75.7631C72.0414 70.144 60.2646 65.5889 45.7373 65.5889C31.21 65.5889 19.4332 70.144 19.4332 75.7631C19.4332 81.3821 31.21 85.9373 45.7373 85.9373Z" fill="white" stroke="black" stroke-miterlimit="10" stroke-linecap="round" stroke-linejoin="round"/>
<path d="M68.706 70.7999C64.2095 67.6931 55.6136 65.5887 45.7471 65.5887C35.8806 65.5887 27.2846 67.6931 22.7881 70.7999H19.443V75.763C19.443 81.3811 31.2153 85.9372 45.7471 85.9372C60.2788 85.9372 72.0511 81.3811 72.0511 75.763V70.7999H68.706Z" fill="#5A66FF" stroke="black" stroke-miterlimit="10" stroke-linecap="round" stroke-linejoin="round"/>
<path d="M45.7373 80.9742C60.2646 80.9742 72.0414 76.419 72.0414 70.7999C72.0414 65.1809 60.2646 60.6257 45.7373 60.6257C31.21 60.6257 19.4332 65.1809 19.4332 70.7999C19.4332 76.419 31.21 80.9742 45.7373 80.9742Z" fill="white" stroke="black" stroke-miterlimit="10" stroke-linecap="round" stroke-linejoin="round"/>
</g>
<path d="M46.0846 90.8308C70.8907 90.8308 91 70.7215 91 45.9154C91 21.1093 70.8907 1 46.0846 1C21.2785 1 1.16919 21.1093 1.16919 45.9154C1.16919 70.7215 21.2785 90.8308 46.0846 90.8308Z" stroke="#181919" stroke-miterlimit="10"/>
<path fill-rule="evenodd" clip-rule="evenodd" d="M63.7623 51.752C63.1072 48.7642 61.8367 46.8882 60.7944 43.96C59.8614 41.3396 58.5015 40.4462 56.5461 38.8183C55.4641 37.9151 55.1267 36.3964 53.9554 35.5626C52.4168 34.4707 50.2033 34.3218 48.4266 33.8156C46.4215 33.2597 44.3072 32.8925 42.2228 32.7734C40.2276 32.6642 37.3094 33.1605 35.7113 34.5303C34.4407 35.6023 33.061 36.7736 32.1875 38.2128C31.7508 38.9275 31.7706 39.8109 31.4232 40.5554C31.0758 41.3098 30.0633 41.4785 29.7953 42.1833C29.5075 42.9476 29.5769 43.8012 29.1799 44.5357C28.5943 45.6177 27.5223 46.3423 27.1351 47.5632C26.7579 48.7444 27.026 49.9951 27.1252 51.2061C27.2146 52.3376 27.4627 53.7273 27.8002 54.8489C28.1377 55.9507 28.7729 56.8838 29.3387 57.8664C29.6464 58.3925 29.7556 59.1171 30.1229 59.5936C30.4802 60.0601 31.0957 60.2388 31.4927 60.6954C32.2769 61.5887 32.8526 62.76 33.5871 63.7129C35.4135 66.0753 37.7263 68.7454 40.4857 69.9167C41.389 70.3038 42.3121 70.9192 43.1955 71.3758C43.8506 71.7133 45.8855 71.9218 47.7119 72.0409C49.31 72.3486 50.779 72.4776 52.4764 71.8225C54.1737 71.1674 55.5336 69.5693 56.6156 68.1796C57.7273 66.7503 59.107 65.2018 59.8316 63.5144C60.2981 62.4126 61.9558 60.07 62.2734 59.6134C62.73 58.9484 62.9881 57.1617 63.2263 56.4073C63.3256 56.0996 63.941 54.7596 64.0502 54.4519C64.4174 53.4394 64.0005 52.8538 63.7623 51.752Z" fill="#DF485D" stroke="black" stroke-miterlimit="10"/>
<path d="M42.3022 49.4691C42.4213 49.5188 42.5504 49.5386 42.6596 49.5386C43.2948 49.5386 43.7018 48.8537 43.8209 48.1688C43.94 47.5236 43.94 46.8884 43.811 46.3126C43.7613 46.0645 43.6323 45.6972 43.4238 45.4292C43.1757 45.0818 42.9176 45.0123 42.7489 45.0123C42.6794 45.0123 42.6099 45.0223 42.5404 45.052C41.657 45.3597 41.5875 46.5112 41.5379 47.1266L41.528 47.2358C41.4783 47.9901 41.3989 49.1217 42.3022 49.4691Z" fill="#070707"/>
<path d="M47.2951 49.747C47.3844 49.7668 47.4738 49.7668 47.5433 49.7668C47.8212 49.7668 48.0296 49.6576 48.2579 49.3797C48.7145 48.8338 49.1314 47.7518 49.0223 46.9577C48.9627 46.5508 48.8336 46.1438 48.6649 45.8659C48.4664 45.5383 48.2282 45.4788 48.0693 45.4788C47.5333 45.4788 47.0966 46.1637 46.9676 46.382C46.769 46.7195 46.6598 47.3548 46.6201 47.7915C46.6003 47.8213 46.4712 49.5882 47.2951 49.747Z" fill="#070707"/>
<path d="M38.2029 48.2877C38.5404 50.7692 39.3246 53.2905 41.0517 55.097C42.7788 56.9035 45.6474 57.787 47.8808 56.6752C48.5955 56.3179 49.2109 55.7918 49.7469 55.2062C51.2854 53.5188 52.2483 51.3152 52.4269 49.0322" stroke="black" stroke-miterlimit="10" stroke-linecap="round" stroke-linejoin="round"/>
</svg>
