<svg width="92" height="92" viewBox="0 0 92 92" fill="none" xmlns="http://www.w3.org/2000/svg">
<path d="M45.9108 90.8217C70.7144 90.8217 90.8217 70.7144 90.8217 45.9108C90.8217 21.1073 70.7144 1 45.9108 1C21.1073 1 1 21.1073 1 45.9108C1 70.7144 21.1073 90.8217 45.9108 90.8217Z" fill="#EBEBEB"/>
<path d="M57.9397 16.8902C58.729 16.8902 59.3689 16.2503 59.3689 15.4609C59.3689 14.6716 58.729 14.0317 57.9397 14.0317C57.1504 14.0317 56.5105 14.6716 56.5105 15.4609C56.5105 16.2503 57.1504 16.8902 57.9397 16.8902Z" fill="#FFF58C" stroke="#181919" stroke-miterlimit="10" stroke-linecap="round" stroke-linejoin="round"/>
<path d="M38.5659 16.8902C39.3553 16.8902 39.9951 16.2503 39.9951 15.4609C39.9951 14.6716 39.3553 14.0317 38.5659 14.0317C37.7766 14.0317 37.1367 14.6716 37.1367 15.4609C37.1367 16.2503 37.7766 16.8902 38.5659 16.8902Z" fill="#FFF58C" stroke="#181919" stroke-miterlimit="10" stroke-linecap="round" stroke-linejoin="round"/>
<path d="M48.8385 8.32468L49.7318 11.0739C49.8112 11.332 50.0494 11.5007 50.3173 11.5007H53.2055C53.801 11.5007 54.0491 12.2649 53.5727 12.6123L51.2304 14.3095C51.0121 14.4683 50.9228 14.7462 51.0022 14.9943L51.8954 17.7436C52.084 18.3093 51.4289 18.7857 50.9426 18.4284L48.6003 16.7312C48.382 16.5724 48.0941 16.5724 47.8758 16.7312L45.5335 18.4284C45.0471 18.7758 44.402 18.3093 44.5807 17.7436L45.4739 14.9943C45.5533 14.7363 45.464 14.4584 45.2456 14.3095L42.9033 12.6123C42.417 12.2649 42.6651 11.5007 43.2706 11.5007H46.1587C46.4267 11.5007 46.6649 11.332 46.7443 11.0739L47.6376 8.32468C47.8559 7.74903 48.6599 7.74903 48.8385 8.32468Z" fill="#FFF58C" stroke="#181919" stroke-miterlimit="10" stroke-linecap="round" stroke-linejoin="round"/>
<path d="M57.9397 16.8902C58.729 16.8902 59.3689 16.2503 59.3689 15.4609C59.3689 14.6716 58.729 14.0317 57.9397 14.0317C57.1504 14.0317 56.5105 14.6716 56.5105 15.4609C56.5105 16.2503 57.1504 16.8902 57.9397 16.8902Z" fill="#FFF58C" stroke="#181919" stroke-miterlimit="10" stroke-linecap="round" stroke-linejoin="round"/>
<path d="M38.5659 16.8902C39.3553 16.8902 39.9951 16.2503 39.9951 15.4609C39.9951 14.6716 39.3553 14.0317 38.5659 14.0317C37.7766 14.0317 37.1367 14.6716 37.1367 15.4609C37.1367 16.2503 37.7766 16.8902 38.5659 16.8902Z" fill="#FFF58C" stroke="#181919" stroke-miterlimit="10" stroke-linecap="round" stroke-linejoin="round"/>
<path d="M48.8385 8.32468L49.7318 11.0739C49.8112 11.332 50.0494 11.5007 50.3173 11.5007H53.2055C53.801 11.5007 54.0491 12.2649 53.5727 12.6123L51.2304 14.3095C51.0121 14.4683 50.9228 14.7462 51.0022 14.9943L51.8954 17.7436C52.084 18.3093 51.4289 18.7857 50.9426 18.4284L48.6003 16.7312C48.382 16.5724 48.0941 16.5724 47.8758 16.7312L45.5335 18.4284C45.0471 18.7758 44.402 18.3093 44.5807 17.7436L45.4739 14.9943C45.5533 14.7363 45.464 14.4584 45.2456 14.3095L42.9033 12.6123C42.417 12.2649 42.6651 11.5007 43.2706 11.5007H46.1587C46.4267 11.5007 46.6649 11.332 46.7443 11.0739L47.6376 8.32468C47.8559 7.74903 48.6599 7.74903 48.8385 8.32468Z" fill="#FFF58C" stroke="#181919" stroke-miterlimit="10" stroke-linecap="round" stroke-linejoin="round"/>
<mask id="mask0_574_3693" style="mask-type:luminance" maskUnits="userSpaceOnUse" x="3" y="21" width="36" height="36">
<path d="M36.978 56.2131C36.8489 55.7863 36.4817 55.4886 36.1343 55.2107C35.6182 54.7938 35.1021 54.3869 34.586 53.97C33.9806 53.4837 33.3752 52.9974 32.7003 52.6103C30.3877 51.2605 27.5889 51.1315 25.0481 50.2878C24.2243 50.0099 23.4204 49.6626 22.7455 49.1167C21.3857 48.0348 20.6711 46.3377 20.1153 44.6901C19.5595 43.0426 19.0831 41.3156 18.0211 39.936C17.0286 39.2413 16.0659 38.5267 14.9344 38.2488C13.0288 37.7823 11.0041 38.6458 9.08859 38.219C8.57249 38.0999 8.06631 37.8815 7.57998 37.6136C5.37662 36.4126 3.65959 34.1795 3.42139 31.6784C4.32457 27.8572 6.11107 24.3041 8.59234 21.6144C8.37398 23.8872 8.14571 26.1898 8.59234 28.4329C9.03896 30.666 10.2399 32.8694 12.2448 33.9512C14.3489 35.0926 17.1378 34.9636 18.7854 36.6905C19.1824 37.1074 19.4702 37.5937 19.7679 38.09C20.6612 39.5886 21.5644 41.0972 22.1797 42.725C22.5569 43.7274 22.8348 44.7894 23.3906 45.7025C24.0853 46.8538 25.2168 47.747 26.5567 48.144C27.1224 48.9579 28.234 49.1365 29.2166 49.2556C30.7153 49.4343 32.2437 49.6526 33.5935 50.3474C34.6158 50.8734 35.4793 51.6575 36.2832 52.4713C36.8489 53.0371 38.0797 54.238 38.1491 55.0618C38.1988 55.5481 37.3948 55.5481 36.978 56.2131Z" fill="white"/>
</mask>
<g mask="url(#mask0_574_3693)">
<path d="M3.50085 1.27795L-9.44141 26.2494" stroke="black" stroke-miterlimit="10"/>
<path d="M5.64465 4.23547L-7.29761 29.2069" stroke="black" stroke-miterlimit="10"/>
<path d="M7.78845 7.20312L-5.15381 32.1646" stroke="black" stroke-miterlimit="10"/>
<path d="M9.93225 10.1608L-3.01001 35.1322" stroke="black" stroke-miterlimit="10"/>
<path d="M12.076 13.1184L-0.866211 38.0898" stroke="black" stroke-miterlimit="10"/>
<path d="M14.2201 16.0762L1.27783 41.0476" stroke="black" stroke-miterlimit="10"/>
<path d="M16.3636 19.0437L3.42139 44.0052" stroke="black" stroke-miterlimit="10"/>
<path d="M18.5077 22.0013L5.56543 46.9728" stroke="black" stroke-miterlimit="10"/>
<path d="M20.6512 24.959L7.70898 49.9304" stroke="black" stroke-miterlimit="10"/>
<path d="M22.7952 27.9166L9.84302 52.888" stroke="black" stroke-miterlimit="10"/>
<path d="M24.939 30.8843L11.9868 55.8458" stroke="black" stroke-miterlimit="10"/>
<path d="M27.0828 33.842L14.1306 58.8135" stroke="black" stroke-miterlimit="10"/>
<path d="M29.2264 36.7997L16.2742 61.7711" stroke="black" stroke-miterlimit="10"/>
<path d="M31.3704 39.7672L18.4182 64.7287" stroke="black" stroke-miterlimit="10"/>
<path d="M33.5142 42.7249L20.562 67.6963" stroke="black" stroke-miterlimit="10"/>
<path d="M35.658 45.6825L22.7058 70.6539" stroke="black" stroke-miterlimit="10"/>
<path d="M37.8018 48.6401L24.8496 73.6116" stroke="black" stroke-miterlimit="10"/>
<path d="M39.9456 51.6077L26.9934 76.5692" stroke="black" stroke-miterlimit="10"/>
<path d="M42.0795 54.5654L29.1372 79.5368" stroke="black" stroke-miterlimit="10"/>
</g>
<path d="M68.2121 46.0102C69.423 45.2062 70.1276 43.8266 70.5544 42.4471C70.9911 41.0576 71.1995 39.6085 71.7057 38.2488C72.8769 35.1125 75.4772 32.7404 78.157 30.7256C80.281 29.1277 82.6233 27.5297 83.5959 25.0584C83.9135 24.2445 84.0624 23.3711 84.4693 22.6069C82.6928 18.7758 79.8443 15.8579 77.0553 13.0292C76.5194 12.4833 75.9735 11.9375 75.3482 11.4908C73.0158 12.394 71.1201 14.1805 69.7803 16.2449C68.4404 18.3094 67.5968 20.6517 66.7928 22.984C66.5745 23.6292 66.3462 24.2942 66.3661 24.979C66.3859 25.7134 66.6737 26.4578 66.4653 27.1625C65.979 29.8026 66.1675 32.5617 67.3288 34.914C67.6265 35.5095 67.9838 36.095 68.1129 36.7402C68.2121 37.2265 68.1923 37.7327 68.2717 38.2289C68.361 38.7549 68.5694 39.2611 68.6488 39.7971C68.8672 41.3057 67.9838 42.7647 66.9417 43.8862C66.6042 44.2435 66.2469 44.5909 65.7904 44.7894C64.6589 45.2856 63.3786 44.6901 62.2372 44.2038C60.2423 43.3602 58.0786 42.8143 55.9051 42.9036C53.7315 42.9929 51.5579 43.7572 49.9699 45.236C49.0369 46.1094 48.3422 47.2012 47.7367 48.3326C47.042 49.6328 46.4564 51.0025 46.0396 52.6202C46.4366 52.65 46.8534 52.4118 47.2306 52.5508C47.3397 52.5905 47.4291 52.6599 47.5382 52.6897C47.6772 52.7393 47.8261 52.7195 47.9749 52.7195C48.6399 52.6996 49.3148 52.8684 49.9798 53.4639C50.5554 51.8759 51.5877 50.4665 52.9275 49.4442C53.3543 49.1167 53.8208 48.8289 54.327 48.6304C55.0614 48.3525 55.8653 48.283 56.6494 48.2234C58.9719 48.0448 61.2943 47.9158 63.6267 47.8264C64.4704 47.7967 65.3338 47.7669 66.1378 47.489C66.9616 47.2309 67.4975 46.4866 68.2121 46.0102Z" fill="white"/>
<mask id="mask1_574_3693" style="mask-type:luminance" maskUnits="userSpaceOnUse" x="46" y="11" width="39" height="43">
<path d="M68.2121 46.1491C69.423 45.3451 70.1276 43.9656 70.5544 42.586C70.9911 41.1965 71.1995 39.7474 71.7057 38.3877C72.8769 35.2514 75.4772 32.8793 78.157 30.8645C80.281 29.2666 82.6233 27.6686 83.5959 25.1973C83.9135 24.3834 84.0624 23.51 84.4693 22.7458C82.6928 18.9147 79.8443 15.9968 77.0553 13.1681C76.5194 12.6223 75.9735 12.0764 75.3482 11.6298C73.0158 12.5329 71.1201 14.3194 69.7803 16.3839C68.4404 18.4483 67.5968 20.7906 66.7928 23.123C66.5745 23.7681 66.3462 24.4331 66.3661 25.1179C66.3859 25.8524 66.6737 26.5967 66.4653 27.3014C65.979 29.9415 66.1675 32.7006 67.3288 35.0529C67.6265 35.6484 67.9838 36.2339 68.1129 36.8791C68.2121 37.3654 68.1923 37.8716 68.2717 38.3678C68.361 38.8939 68.5694 39.4 68.6488 39.936C68.8672 41.4446 67.9838 42.9036 66.9417 44.0251C66.6042 44.3824 66.2469 44.7298 65.7904 44.9283C64.6589 45.4245 63.3786 44.829 62.2372 44.3427C60.2423 43.4991 58.0786 42.9532 55.9051 43.0425C53.7315 43.1319 51.5579 43.8961 49.9699 45.3749C49.0369 46.2483 48.3422 47.3401 47.7367 48.4715C47.042 49.7717 46.4564 51.1414 46.0396 52.7592C46.4366 52.7889 46.8534 52.5507 47.2306 52.6897C47.3397 52.7294 47.4291 52.7989 47.5382 52.8286C47.6772 52.8783 47.8261 52.8584 47.9749 52.8584C48.6399 52.8386 49.3148 53.0073 49.9798 53.6028C50.5554 52.0148 51.5877 50.6054 52.9275 49.5831C53.3543 49.2556 53.8208 48.9678 54.327 48.7693C55.0614 48.4914 55.8653 48.4219 56.6494 48.3624C58.9719 48.1837 61.2943 48.0547 63.6267 47.9654C64.4704 47.9356 65.3338 47.9058 66.1378 47.6279C66.9616 47.3699 67.4975 46.6255 68.2121 46.1491Z" fill="white"/>
</mask>
<g mask="url(#mask1_574_3693)">
<path d="M83.9236 0.682373L96.8659 25.6538" stroke="black" stroke-miterlimit="10"/>
<path d="M81.76 3.13379L94.7122 28.1052" stroke="black" stroke-miterlimit="10"/>
<path d="M79.5962 5.58533L92.5484 30.5468" stroke="black" stroke-miterlimit="10"/>
<path d="M77.4424 8.03687L90.3846 32.9984" stroke="black" stroke-miterlimit="10"/>
<path d="M75.2788 10.4784L88.231 35.4498" stroke="black" stroke-miterlimit="10"/>
<path d="M73.1248 12.9299L86.067 37.9014" stroke="black" stroke-miterlimit="10"/>
<path d="M70.9614 15.3813L83.9037 40.3528" stroke="black" stroke-miterlimit="10"/>
<path d="M68.7979 17.8328L81.75 42.8042" stroke="black" stroke-miterlimit="10"/>
<path d="M66.644 20.2843L79.5863 45.2557" stroke="black" stroke-miterlimit="10"/>
<path d="M64.4802 22.7357L77.4324 47.6972" stroke="black" stroke-miterlimit="10"/>
<path d="M62.3167 25.1874L75.2688 50.1489" stroke="black" stroke-miterlimit="10"/>
<path d="M60.1631 27.6288L73.1053 52.6002" stroke="black" stroke-miterlimit="10"/>
<path d="M57.999 30.0803L70.9512 55.0517" stroke="black" stroke-miterlimit="10"/>
<path d="M55.8457 32.5319L68.788 57.5033" stroke="black" stroke-miterlimit="10"/>
<path d="M53.6819 34.9834L66.6241 59.9548" stroke="black" stroke-miterlimit="10"/>
<path d="M51.5181 37.4348L64.4703 62.4062" stroke="black" stroke-miterlimit="10"/>
<path d="M49.3643 39.8864L62.3065 64.8478" stroke="black" stroke-miterlimit="10"/>
<path d="M47.2007 42.3279L60.1429 67.2993" stroke="black" stroke-miterlimit="10"/>
<path d="M45.0371 44.7794L57.9893 69.7508" stroke="black" stroke-miterlimit="10"/>
<path d="M42.8833 47.2308L55.8256 72.2023" stroke="black" stroke-miterlimit="10"/>
<path d="M40.7197 49.6823L53.6719 74.6537" stroke="black" stroke-miterlimit="10"/>
</g>
<path d="M41.4542 53.4935C42.1589 53.3248 42.8636 53.1462 43.4988 52.9675C42.9529 51.3894 42.4269 49.7816 42.3078 48.1241C42.1887 46.4567 42.5361 44.7099 43.5683 43.3998C45.057 41.5239 47.5879 40.9284 49.7119 39.8168C51.5877 38.8342 53.2154 37.3753 54.3866 35.6185C55.2004 34.3977 55.8257 32.9388 55.5875 31.4897C55.4486 30.6461 55.0317 29.8719 54.6049 29.1275C53.5231 27.2219 52.213 25.2072 50.0791 24.6414C46.6351 22.8648 42.5361 23.0633 38.6852 23.51C37.0078 23.7085 35.3404 23.9367 33.7226 24.4032C29.574 25.6042 26.0109 28.2442 22.557 30.8247C22.3088 31.0133 22.0508 31.2118 21.9218 31.4996C21.8126 31.7478 21.8225 32.0356 21.8424 32.3135C22.0409 34.5665 23.0929 36.6309 24.135 38.6457C24.7206 39.7771 25.3161 40.9185 26.2193 41.8118C27.2118 42.7943 28.512 43.4097 29.8221 43.896C31.3009 44.432 32.8294 44.819 34.3777 45.0572C35.2015 45.1763 36.055 45.2657 36.7696 45.6924C37.4048 46.0795 37.8614 46.6949 38.2882 47.3003C39.5089 49.0273 41.087 53.6623 41.087 53.6623L41.4542 53.4935Z" fill="#5A66FF"/>
<path d="M68.2916 37.2561C67.9243 37.3057 67.5472 37.3355 67.1601 37.3355C62.5251 37.3355 58.7734 33.5838 58.7734 28.9488C58.7734 24.3138 62.5251 20.5621 67.1601 20.5621C67.3288 20.5621 67.3487 20.6018 67.5273 20.6118" stroke="black" stroke-miterlimit="10" stroke-linecap="round" stroke-linejoin="round"/>
<path d="M75.4675 12.0366C71.1203 13.8331 67.7359 17.8229 66.6838 22.4083C65.3638 28.1747 67.5572 34.0702 69.0063 39.8069C68.9765 41.3254 68.4703 42.8241 67.4679 43.8464C66.4555 44.8687 64.9668 45.3848 63.5376 45.226C61.7015 45.0076 60.1532 43.767 58.3567 43.3402C56.8977 42.9928 55.3594 43.2211 53.8904 43.5486C52.7292 43.8166 51.568 44.1541 50.5556 44.7893C47.9056 46.4468 46.8139 49.8113 46.7543 52.9377C45.6924 52.6698 44.809 52.7889 44.0249 53.1362C42.8538 52.372 42.6057 51.0421 42.4568 49.8411C42.1888 47.8561 41.9705 45.6726 43.0523 43.9953C43.886 42.705 45.3251 41.9606 46.6948 41.2758C48.3225 40.4619 49.9502 39.6481 51.5779 38.8442C52.6796 38.2983 53.811 37.7127 54.5653 36.7401C55.3792 35.6781 55.6174 34.2886 55.6174 32.9487C55.6174 31.2217 55.2403 29.465 54.3371 27.9961C53.2453 26.2195 51.4489 24.9392 49.4936 24.2146C47.5384 23.4901 45.4244 23.2817 43.3401 23.2817C35.3008 23.3015 27.3112 26.5867 21.5844 32.2242C20.5522 27.083 20.6812 22.5075 20.8301 18.0413C20.9393 14.5179 21.0782 10.9052 22.17 7.7093C33.9014 0.374688 49.1562 -1.01482 62.1382 3.91793C67.0114 6.04189 71.6166 8.81098 75.4675 12.0366Z" fill="#B180E0"/>
<path d="M88.5288 32.5121C88.5487 30.1598 86.8713 28.1748 85.988 25.9913C85.5116 24.8102 85.2535 23.51 84.4496 22.5275C84.0427 24.7904 83.0006 27.2716 81.3232 28.7703C79.6459 30.269 77.6907 31.4203 75.9141 32.7999C74.1375 34.1795 72.48 35.8469 71.7158 37.9609C71.031 39.8665 71.1004 42.0203 70.1873 43.8266C69.3338 45.5139 67.6862 46.695 65.9196 47.3401C64.143 47.9852 62.2374 48.1639 60.3516 48.2433C58.3467 48.3326 56.3022 48.3425 54.4264 49.0273C52.5406 49.7122 50.8236 51.2406 50.3174 53.2157C51.9749 54.0593 53.5331 55.1015 54.9524 56.2925C56.4014 54.7144 58.307 52.6897 60.3119 51.9255C61.3937 51.5086 63.3192 51.0818 63.3192 51.0818C63.3192 51.0818 65.8005 50.7543 67.051 50.3771C68.0832 50.0595 68.9268 49.5831 69.7209 48.8388C71.8448 46.8736 71.6364 43.6976 73.2343 41.2858C74.0482 40.0452 75.3682 39.2015 76.7776 38.7251C78.1869 38.2487 79.6757 38.1098 81.1545 38.0304C81.879 37.9907 82.6036 37.9708 83.2983 37.7922C85.8292 37.1868 88.509 35.033 88.5288 32.5121Z" fill="#FF88B6"/>
<path d="M21.1278 8.97973C16.5027 11.2327 12.9098 15.173 9.90255 19.3514C9.38644 20.066 8.88027 20.8104 8.64207 21.6639C8.41379 22.4778 8.45349 23.3413 8.50312 24.1948C8.58252 25.6042 8.67184 27.0036 8.78102 28.413C8.83064 29.1077 8.90012 29.8323 9.19787 30.4575C9.49562 31.0828 10.0018 31.5791 10.508 32.0455C11.5303 32.9884 12.622 33.8916 13.8626 34.5268C15.0636 35.1422 16.3737 35.4995 17.5746 36.1049C18.7755 36.7103 19.9169 37.6333 20.1154 38.9137C22.1898 40.9781 21.8722 44.5908 23.8175 46.7743C24.9588 48.0646 26.7156 48.6303 28.4028 48.9578C30.1 49.2853 31.8468 49.4342 33.4348 50.1091C35.7374 51.1016 37.514 53.2454 38.0698 55.8359C38.3378 55.2007 38.8936 54.7342 39.4891 54.3968C40.0846 54.0593 40.7397 53.8409 41.3451 53.4042C39.8464 50.9825 39.4494 47.7569 37.1666 46.0597C35.261 44.6305 32.6508 44.7496 30.3481 44.1342C27.6088 43.3998 25.1871 41.5041 23.5098 39.0328C23.0235 38.0006 22.5967 36.9386 22.1302 35.7674C21.7729 31.4103 20.5124 27.1326 20.5323 22.7557C20.5422 21.128 20.7308 19.5003 20.9193 17.8726C21.3064 14.5675 21.6935 11.2426 22.4677 8.00708C21.9813 8.40408 21.495 8.79116 21.1278 8.97973Z" fill="#56B381"/>
<path d="M3.6201 31.2814C3.56055 34.6162 6.27009 37.7823 9.58506 38.2289C11.2822 38.4572 13.029 38.0503 14.7163 38.3679C16.1654 38.6458 17.5052 39.4894 18.3886 40.6705C20.2247 43.1319 20.056 46.8141 22.2891 48.9281C24.3635 50.8933 27.5891 50.6848 30.3483 51.4391C33.0677 52.1736 35.4795 53.98 36.9583 56.3719" stroke="black" stroke-miterlimit="10" stroke-linecap="round" stroke-linejoin="round"/>
<path d="M88.4693 31.2814C88.5289 34.6162 85.8193 37.7823 82.5044 38.2289C80.8072 38.4572 79.0604 38.0503 77.3731 38.3679C75.9241 38.6458 74.5842 39.4894 73.7009 40.6705C71.8647 43.1319 72.0335 46.8141 69.8003 48.9281C67.726 50.8933 64.5003 50.6848 61.7412 51.4391C59.0217 52.1736 56.6099 53.98 55.1311 56.3719" stroke="black" stroke-miterlimit="10" stroke-linecap="round" stroke-linejoin="round"/>
<path d="M46.4465 52.243C46.6053 49.3052 48.2132 46.4766 50.6448 44.829C53.0765 43.1815 56.2922 42.7348 59.0811 43.6678C61.3738 44.432 63.6863 46.0895 65.9691 45.3153C68.0335 44.6206 69.0062 42.1493 68.8672 39.9856C68.7283 37.812 67.7655 35.7873 67.1403 33.7031C65.6316 28.681 66.118 23.0932 68.4603 18.3986C69.8696 15.57 72.1524 12.9299 75.2292 12.1855" stroke="black" stroke-miterlimit="10" stroke-linecap="round" stroke-linejoin="round"/>
<path d="M83.9434 21.8922C84.7573 28.3435 78.6732 30.0506 73.2244 35.4994C70.9019 37.9112 71.6662 41.3354 69.9789 44.2335C65.7806 51.985 54.3966 44.5015 50.3174 52.64" stroke="black" stroke-miterlimit="10" stroke-linecap="round" stroke-linejoin="round"/>
<path d="M22.3486 7.85815C20.4629 15.5004 20.185 23.5298 21.5348 31.2912C22.0211 34.0901 22.7357 36.8988 24.2344 39.3106C25.7331 41.7224 28.0952 43.7173 30.8842 44.2136C31.9263 44.4022 32.9982 44.3724 34.0304 44.6106C35.9162 45.0473 37.5141 46.3475 38.6456 47.9057C39.777 49.4639 40.4817 51.3001 41.0772 53.1362" stroke="black" stroke-miterlimit="10" stroke-linecap="round" stroke-linejoin="round"/>
<path d="M8.78091 21.1875C8.46331 23.4703 8.13578 25.7927 8.48316 28.0755C8.83054 30.3582 9.96199 32.6212 11.9371 33.8122C13.3961 34.6856 15.1528 34.894 16.7209 35.5788C18.9442 36.5515 20.7009 38.5464 21.3956 40.8788C21.7132 41.9507 21.8125 43.0722 22.1698 44.1342C22.8249 46.0994 24.3831 47.737 26.3085 48.5012C28.0157 49.1761 29.9113 49.1761 31.6879 49.6525C34.4967 50.4068 36.9283 52.4415 38.169 55.0617" stroke="black" stroke-miterlimit="10" stroke-linecap="round" stroke-linejoin="round"/>
<path d="M21.9714 31.728C27.2714 26.3982 34.6854 23.2222 42.2086 23.0535C45.8114 22.9741 49.6127 23.649 52.3818 25.9615C55.1509 28.2642 56.4907 32.5319 54.6546 35.6385C51.9947 40.1246 44.5112 40.204 42.5659 45.0375C41.5536 47.5684 42.5163 50.4069 43.4889 52.9577" stroke="black" stroke-miterlimit="10" stroke-linecap="round" stroke-linejoin="round"/>
<path d="M56.312 17.0786C57.1013 17.0786 57.7412 16.4388 57.7412 15.6494C57.7412 14.8601 57.1013 14.2202 56.312 14.2202C55.5227 14.2202 54.8828 14.8601 54.8828 15.6494C54.8828 16.4388 55.5227 17.0786 56.312 17.0786Z" fill="#FFF58C" stroke="#181919" stroke-miterlimit="10" stroke-linecap="round" stroke-linejoin="round"/>
<path d="M36.9385 17.0786C37.7278 17.0786 38.3677 16.4388 38.3677 15.6494C38.3677 14.8601 37.7278 14.2202 36.9385 14.2202C36.1492 14.2202 35.5093 14.8601 35.5093 15.6494C35.5093 16.4388 36.1492 17.0786 36.9385 17.0786Z" fill="#FFF58C" stroke="#181919" stroke-miterlimit="10" stroke-linecap="round" stroke-linejoin="round"/>
<path d="M47.2111 8.50326L48.1043 11.2525C48.1837 11.5106 48.4219 11.6793 48.6899 11.6793H51.5781C52.1736 11.6793 52.4217 12.4435 51.9453 12.7909L49.603 14.4881C49.3846 14.6469 49.2953 14.9248 49.3747 15.1729L50.268 17.9221C50.4566 18.4879 49.8015 18.9643 49.3152 18.607L46.9729 16.9098C46.7545 16.751 46.4667 16.751 46.2483 16.9098L43.906 18.607C43.4197 18.9543 42.7746 18.4879 42.9532 17.9221L43.8465 15.1729C43.9259 14.9148 43.8365 14.6369 43.6182 14.4881L41.3057 12.8008C40.8193 12.4534 41.0675 11.6892 41.6729 11.6892H44.5611C44.8291 11.6892 45.0673 11.5205 45.1467 11.2624L46.0399 8.51319C46.2285 7.93754 47.0324 7.93754 47.2111 8.50326Z" fill="#FFF58C" stroke="#181919" stroke-miterlimit="10" stroke-linecap="round" stroke-linejoin="round"/>
<mask id="mask2_574_3693" style="mask-type:luminance" maskUnits="userSpaceOnUse" x="1" y="1" width="91" height="90">
<path d="M46.0893 90.8217C70.8929 90.8217 91.0001 70.7144 91.0001 45.9108C91.0001 21.1073 70.8929 1 46.0893 1C21.2857 1 1.17847 21.1073 1.17847 45.9108C1.17847 70.7144 21.2857 90.8217 46.0893 90.8217Z" fill="white"/>
</mask>
<g mask="url(#mask2_574_3693)">
<path d="M68.6984 80.718C64.2024 77.6114 55.6073 75.5073 45.7418 75.5073C35.8763 75.5073 27.2812 77.6114 22.7852 80.718H19.4404V85.6805C19.4404 91.2981 31.2115 95.8537 45.7418 95.8537C60.2721 95.8537 72.0432 91.2981 72.0432 85.6805V80.718H68.6984Z" fill="#5A66FF" stroke="black" stroke-miterlimit="10" stroke-linecap="round" stroke-linejoin="round"/>
<path d="M45.7418 90.8911C60.2677 90.8911 72.0432 86.3365 72.0432 80.718C72.0432 75.0995 60.2677 70.5448 45.7418 70.5448C31.216 70.5448 19.4404 75.0995 19.4404 80.718C19.4404 86.3365 31.216 90.8911 45.7418 90.8911Z" fill="white" stroke="black" stroke-miterlimit="10" stroke-linecap="round" stroke-linejoin="round"/>
<path d="M68.6984 75.7554C64.2024 72.6489 55.6073 70.5448 45.7418 70.5448C35.8763 70.5448 27.2812 72.6489 22.7852 75.7554H19.4404V80.718C19.4404 86.3355 31.2115 90.8911 45.7418 90.8911C60.2721 90.8911 72.0432 86.3355 72.0432 80.718V75.7554H68.6984Z" fill="#5A66FF" stroke="black" stroke-miterlimit="10" stroke-linecap="round" stroke-linejoin="round"/>
<path d="M45.7418 85.9285C60.2677 85.9285 72.0432 81.3738 72.0432 75.7553C72.0432 70.1368 60.2677 65.5822 45.7418 65.5822C31.216 65.5822 19.4404 70.1368 19.4404 75.7553C19.4404 81.3738 31.216 85.9285 45.7418 85.9285Z" fill="white" stroke="black" stroke-miterlimit="10" stroke-linecap="round" stroke-linejoin="round"/>
<path d="M68.6984 70.7928C64.2024 67.6863 55.6073 65.5822 45.7418 65.5822C35.8763 65.5822 27.2812 67.6863 22.7852 70.7928H19.4404V75.7553C19.4404 81.3729 31.2115 85.9285 45.7418 85.9285C60.2721 85.9285 72.0432 81.3729 72.0432 75.7553V70.7928H68.6984Z" fill="#5A66FF" stroke="black" stroke-miterlimit="10" stroke-linecap="round" stroke-linejoin="round"/>
<path d="M45.7418 80.9661C60.2677 80.9661 72.0432 76.4114 72.0432 70.7929C72.0432 65.1744 60.2677 60.6198 45.7418 60.6198C31.216 60.6198 19.4404 65.1744 19.4404 70.7929C19.4404 76.4114 31.216 80.9661 45.7418 80.9661Z" fill="white" stroke="black" stroke-miterlimit="10" stroke-linecap="round" stroke-linejoin="round"/>
</g>
<path d="M46.0893 90.8217C70.8929 90.8217 91.0001 70.7144 91.0001 45.9108C91.0001 21.1073 70.8929 1 46.0893 1C21.2857 1 1.17847 21.1073 1.17847 45.9108C1.17847 70.7144 21.2857 90.8217 46.0893 90.8217Z" stroke="#181919" stroke-miterlimit="10"/>
<path fill-rule="evenodd" clip-rule="evenodd" d="M63.2598 56.1833C63.7362 54.5457 64.1432 52.8287 64.2424 51.1414C64.3218 49.6725 63.8752 48.3525 63.8355 46.9233C63.8057 45.107 64.3615 44.3031 63.4583 42.6456C63.111 42.0104 62.9819 41.1568 62.5949 40.5613C62.1582 39.9063 61.3542 39.6482 60.7686 39.1817C59.9052 38.4969 59.3097 37.5342 58.476 36.8196C57.6621 36.1248 56.6398 35.9561 55.7764 35.3606C55.1411 34.9239 54.9923 34.1299 54.5059 33.5641C53.9601 32.9389 53.1363 32.6411 52.4515 32.2044C48.8586 29.9514 43.6182 32.3235 40.0749 33.9512C38.4671 34.6857 36.9485 35.2613 35.7675 36.6905C34.765 37.9113 33.1671 39.2512 32.522 40.6903C31.5791 42.8242 32.6808 45.2658 31.1523 47.221C30.5667 47.2706 30.1499 48.6204 30.0903 49.2656C30.001 50.1886 30.4576 50.9528 30.6164 51.8163C30.8546 53.0966 30.4675 54.4266 30.7553 55.7566C31.063 57.1758 31.6486 58.5455 32.3632 59.7663C33.0381 60.9374 33.703 62.1384 34.368 63.3194C35.0231 64.4707 35.3506 65.8801 36.353 66.7634C39.5985 69.6417 45.9307 73.7606 50.2481 70.5647C51.1811 69.8799 52.4018 69.4531 53.3943 68.6889C55.3595 67.1704 57.4636 65.096 58.863 63.0018C59.6173 61.8704 60.2426 60.6496 61.0664 59.5678C61.8505 58.5356 62.8231 57.682 63.2102 56.3918C63.2201 56.3322 63.24 56.2627 63.2598 56.1833Z" fill="#FFF58C" stroke="black" stroke-miterlimit="10"/>
<path d="M41.7025 44.6206C41.7323 44.7695 41.8216 44.8985 41.9209 44.968C42.0301 45.097 42.1492 45.1863 42.298 45.2459C42.5561 45.3451 42.8042 45.3253 43.0325 45.2062C43.5387 44.9382 43.8166 44.2335 43.9158 43.9357C44.0349 43.5784 44.154 43.1616 44.1044 42.7547C44.1342 42.5462 44.1342 42.3577 44.1143 42.1592C44.1143 42.0798 44.1044 42.0202 44.0945 41.9706C44.1143 41.7721 44.0746 41.5835 43.9654 41.3949C43.9357 41.256 43.8761 41.127 43.7669 40.9979L43.7272 40.9483C43.5585 40.73 43.3799 40.5116 43.1218 40.4124C42.9729 40.3528 42.8141 40.3429 42.6355 40.3826C41.7125 40.5712 41.6231 41.6133 41.5735 42.1095C41.504 43.1417 41.5338 43.9159 41.7025 44.6206Z" fill="black"/>
<path d="M49.4938 42.0599C48.3127 42.0897 47.211 42.7051 46.1589 43.3303C46.4865 44.0052 46.9132 44.6206 47.469 45.0871C48.0248 45.5536 48.6997 45.8811 49.4243 45.9506" stroke="black" stroke-miterlimit="10" stroke-linecap="round" stroke-linejoin="round"/>
<path d="M46.1589 43.3204C47.3499 43.7075 48.6005 43.8961 49.861 43.8762" stroke="black" stroke-miterlimit="10" stroke-linecap="round" stroke-linejoin="round"/>
<path d="M51.4092 46.8537C52.104 47.3599 52.4018 48.3524 52.1834 49.2457C52.1238 49.5037 52.0246 49.7518 51.8658 49.9702C51.707 50.1885 51.5085 50.3573 51.3001 50.526C49.1463 52.2033 46.2879 52.7988 43.7769 52.1041C42.6057 51.7765 41.4941 51.1711 40.6703 50.2481C39.8466 49.3251 39.3205 48.0844 39.3404 46.7942C39.3503 46.1292 39.5091 45.4444 39.916 44.9183" stroke="black" stroke-miterlimit="10" stroke-linecap="round" stroke-linejoin="round"/>
</svg>
