<svg width="92" height="92" viewBox="0 0 92 92" fill="none" xmlns="http://www.w3.org/2000/svg">
<path d="M45.9108 90.8216C70.7144 90.8216 90.8216 70.7144 90.8216 45.9108C90.8216 21.1073 70.7144 1 45.9108 1C21.1073 1 1 21.1073 1 45.9108C1 70.7144 21.1073 90.8216 45.9108 90.8216Z" fill="#EBEBEB"/>
<path d="M57.9397 16.8901C58.729 16.8901 59.3689 16.2503 59.3689 15.4609C59.3689 14.6716 58.729 14.0317 57.9397 14.0317C57.1504 14.0317 56.5105 14.6716 56.5105 15.4609C56.5105 16.2503 57.1504 16.8901 57.9397 16.8901Z" fill="#FFF58C" stroke="#181919" stroke-miterlimit="10" stroke-linecap="round" stroke-linejoin="round"/>
<path d="M38.566 16.8901C39.3554 16.8901 39.9953 16.2503 39.9953 15.4609C39.9953 14.6716 39.3554 14.0317 38.566 14.0317C37.7767 14.0317 37.1368 14.6716 37.1368 15.4609C37.1368 16.2503 37.7767 16.8901 38.566 16.8901Z" fill="#FFF58C" stroke="#181919" stroke-miterlimit="10" stroke-linecap="round" stroke-linejoin="round"/>
<path d="M48.8386 8.32468L49.7319 11.0739C49.8113 11.332 50.0495 11.5007 50.3175 11.5007H53.2056C53.8011 11.5007 54.0493 12.2649 53.5729 12.6123L51.2306 14.3095C51.0122 14.4683 50.9229 14.7462 51.0023 14.9943L51.8955 17.7436C52.0841 18.3093 51.4291 18.7857 50.9427 18.4284L48.6004 16.7312C48.3821 16.5724 48.0942 16.5724 47.8759 16.7312L45.5336 18.4284C45.0473 18.7758 44.4021 18.3093 44.5808 17.7436L45.474 14.9943C45.5534 14.7363 45.4641 14.4584 45.2458 14.3095L42.9034 12.6123C42.4171 12.2649 42.6652 11.5007 43.2707 11.5007H46.1589C46.4268 11.5007 46.665 11.332 46.7444 11.0739L47.6377 8.32468C47.856 7.74903 48.66 7.74903 48.8386 8.32468Z" fill="#FFF58C" stroke="#181919" stroke-miterlimit="10" stroke-linecap="round" stroke-linejoin="round"/>
<path d="M57.9397 16.8901C58.729 16.8901 59.3689 16.2503 59.3689 15.4609C59.3689 14.6716 58.729 14.0317 57.9397 14.0317C57.1504 14.0317 56.5105 14.6716 56.5105 15.4609C56.5105 16.2503 57.1504 16.8901 57.9397 16.8901Z" fill="#FFF58C" stroke="#181919" stroke-miterlimit="10" stroke-linecap="round" stroke-linejoin="round"/>
<path d="M38.566 16.8901C39.3554 16.8901 39.9953 16.2503 39.9953 15.4609C39.9953 14.6716 39.3554 14.0317 38.566 14.0317C37.7767 14.0317 37.1368 14.6716 37.1368 15.4609C37.1368 16.2503 37.7767 16.8901 38.566 16.8901Z" fill="#FFF58C" stroke="#181919" stroke-miterlimit="10" stroke-linecap="round" stroke-linejoin="round"/>
<path d="M48.8386 8.32468L49.7319 11.0739C49.8113 11.332 50.0495 11.5007 50.3175 11.5007H53.2056C53.8011 11.5007 54.0493 12.2649 53.5729 12.6123L51.2306 14.3095C51.0122 14.4683 50.9229 14.7462 51.0023 14.9943L51.8955 17.7436C52.0841 18.3093 51.4291 18.7857 50.9427 18.4284L48.6004 16.7312C48.3821 16.5724 48.0942 16.5724 47.8759 16.7312L45.5336 18.4284C45.0473 18.7758 44.4021 18.3093 44.5808 17.7436L45.474 14.9943C45.5534 14.7363 45.4641 14.4584 45.2458 14.3095L42.9034 12.6123C42.4171 12.2649 42.6652 11.5007 43.2707 11.5007H46.1589C46.4268 11.5007 46.665 11.332 46.7444 11.0739L47.6377 8.32468C47.856 7.74903 48.66 7.74903 48.8386 8.32468Z" fill="#FFF58C" stroke="#181919" stroke-miterlimit="10" stroke-linecap="round" stroke-linejoin="round"/>
<mask id="mask0_576_11663" style="mask-type:luminance" maskUnits="userSpaceOnUse" x="3" y="21" width="36" height="36">
<path d="M36.978 56.213C36.8489 55.7862 36.4817 55.4884 36.1343 55.2105C35.6182 54.7937 35.1021 54.3868 34.586 53.9699C33.9806 53.4836 33.3752 52.9972 32.7003 52.6102C30.3877 51.2604 27.5889 51.1313 25.0481 50.2877C24.2243 50.0098 23.4203 49.6624 22.7454 49.1165C21.3857 48.0347 20.6711 46.3375 20.1153 44.69C19.5595 43.0424 19.0831 41.3155 18.0211 39.9359C17.0286 39.2411 16.0659 38.5265 14.9344 38.2486C13.0288 37.7822 11.0041 38.6456 9.08859 38.2189C8.57248 38.0998 8.06631 37.8814 7.57998 37.6134C5.37662 36.4125 3.65959 34.1794 3.42139 31.6783C4.32457 27.8571 6.11107 24.3039 8.59233 21.6143C8.37398 23.8871 8.14571 26.1897 8.59233 28.4328C9.03896 30.6659 10.2399 32.8693 12.2448 33.9511C14.3489 35.0925 17.1378 34.9634 18.7854 36.6904C19.1824 37.1072 19.4702 37.5936 19.7679 38.0898C20.6612 39.5885 21.5644 41.0971 22.1797 42.7248C22.5569 43.7273 22.8348 44.7892 23.3906 45.7023C24.0853 46.8536 25.2168 47.7469 26.5567 48.1439C27.1224 48.9578 28.234 49.1364 29.2166 49.2555C30.7153 49.4342 32.2437 49.6525 33.5935 50.3473C34.6158 50.8733 35.4793 51.6574 36.2832 52.4712C36.8489 53.0369 38.0796 54.2379 38.1491 55.0617C38.1987 55.548 37.3948 55.548 36.978 56.213Z" fill="white"/>
</mask>
<g mask="url(#mask0_576_11663)">
<path d="M3.50085 1.27795L-9.44141 26.2494" stroke="black" stroke-miterlimit="10"/>
<path d="M5.64465 4.23547L-7.29761 29.2069" stroke="black" stroke-miterlimit="10"/>
<path d="M7.78845 7.20312L-5.15381 32.1646" stroke="black" stroke-miterlimit="10"/>
<path d="M9.93225 10.1608L-3.01001 35.1322" stroke="black" stroke-miterlimit="10"/>
<path d="M12.076 13.1184L-0.866211 38.0898" stroke="black" stroke-miterlimit="10"/>
<path d="M14.2201 16.0762L1.27783 41.0476" stroke="black" stroke-miterlimit="10"/>
<path d="M16.3636 19.0437L3.42139 44.0052" stroke="black" stroke-miterlimit="10"/>
<path d="M18.5077 22.0013L5.56543 46.9728" stroke="black" stroke-miterlimit="10"/>
<path d="M20.6512 24.959L7.70898 49.9304" stroke="black" stroke-miterlimit="10"/>
<path d="M22.7952 27.9166L9.84302 52.888" stroke="black" stroke-miterlimit="10"/>
<path d="M24.939 30.8843L11.9868 55.8458" stroke="black" stroke-miterlimit="10"/>
<path d="M27.0828 33.842L14.1306 58.8135" stroke="black" stroke-miterlimit="10"/>
<path d="M29.2264 36.7996L16.2742 61.771" stroke="black" stroke-miterlimit="10"/>
<path d="M31.3704 39.7672L18.4182 64.7287" stroke="black" stroke-miterlimit="10"/>
<path d="M33.5142 42.7249L20.562 67.6963" stroke="black" stroke-miterlimit="10"/>
<path d="M35.6577 45.6826L22.7056 70.654" stroke="black" stroke-miterlimit="10"/>
<path d="M37.8018 48.6401L24.8496 73.6115" stroke="black" stroke-miterlimit="10"/>
<path d="M39.9456 51.6077L26.9934 76.5692" stroke="black" stroke-miterlimit="10"/>
<path d="M42.0795 54.5653L29.1372 79.5367" stroke="black" stroke-miterlimit="10"/>
</g>
<path d="M68.2121 46.0101C69.423 45.2062 70.1276 43.8266 70.5544 42.4471C70.9911 41.0575 71.1995 39.6085 71.7057 38.2488C72.8769 35.1124 75.4772 32.7404 78.157 30.7256C80.281 29.1276 82.6233 27.5297 83.5959 25.0584C83.9135 24.2445 84.0624 23.3711 84.4693 22.6069C82.6927 18.7758 79.8443 15.8579 77.0553 13.0292C76.5194 12.4833 75.9735 11.9375 75.3482 11.4908C73.0158 12.394 71.1201 14.1805 69.7803 16.2449C68.4404 18.3093 67.5968 20.6517 66.7928 22.984C66.5745 23.6292 66.3462 24.2942 66.366 24.979C66.3859 25.7134 66.6737 26.4578 66.4653 27.1625C65.979 29.8026 66.1675 32.5617 67.3288 34.9139C67.6265 35.5094 67.9838 36.095 68.1128 36.7402C68.2121 37.2265 68.1923 37.7327 68.2717 38.2289C68.361 38.7549 68.5694 39.2611 68.6488 39.7971C68.8672 41.3057 67.9838 42.7647 66.9417 43.8862C66.6042 44.2435 66.2469 44.5909 65.7904 44.7894C64.6589 45.2856 63.3786 44.6901 62.2372 44.2038C60.2423 43.3602 58.0786 42.8143 55.905 42.9036C53.7315 42.9929 51.5579 43.7572 49.9699 45.236C49.0369 46.1094 48.3422 47.2012 47.7367 48.3326C47.042 49.6328 46.4564 51.0024 46.0396 52.6202C46.4366 52.65 46.8534 52.4118 47.2306 52.5508C47.3397 52.5905 47.4291 52.6599 47.5382 52.6897C47.6772 52.7393 47.8261 52.7195 47.9749 52.7195C48.6399 52.6996 49.3148 52.8684 49.9798 53.4639C50.5554 51.8758 51.5877 50.4665 52.9275 49.4442C53.3543 49.1167 53.8208 48.8289 54.327 48.6304C55.0614 48.3525 55.8653 48.283 56.6494 48.2234C58.9719 48.0448 61.2943 47.9158 63.6267 47.8264C64.4704 47.7967 65.3338 47.7669 66.1378 47.489C66.9615 47.2309 67.4975 46.4865 68.2121 46.0101Z" fill="white"/>
<mask id="mask1_576_11663" style="mask-type:luminance" maskUnits="userSpaceOnUse" x="46" y="11" width="39" height="43">
<path d="M68.2121 46.1489C69.423 45.345 70.1276 43.9654 70.5544 42.5858C70.9911 41.1963 71.1995 39.7473 71.7057 38.3876C72.8769 35.2512 75.4772 32.8792 78.157 30.8644C80.281 29.2664 82.6233 27.6685 83.5959 25.1972C83.9135 24.3833 84.0624 23.5099 84.4693 22.7457C82.6927 18.9146 79.8443 15.9967 77.0553 13.168C76.5194 12.6221 75.9735 12.0763 75.3482 11.6296C73.0158 12.5328 71.1201 14.3193 69.7803 16.3837C68.4404 18.4481 67.5968 20.7905 66.7928 23.1228C66.5745 23.768 66.3462 24.4329 66.366 25.1178C66.3859 25.8522 66.6737 26.5966 66.4653 27.3013C65.979 29.9413 66.1675 32.7005 67.3288 35.0527C67.6265 35.6482 67.9838 36.2338 68.1128 36.8789C68.2121 37.3653 68.1923 37.8715 68.2717 38.3677C68.361 38.8937 68.5694 39.3999 68.6488 39.9359C68.8672 41.4445 67.9838 42.9035 66.9417 44.025C66.6042 44.3823 66.2469 44.7297 65.7904 44.9282C64.6589 45.4244 63.3786 44.8289 62.2372 44.3426C60.2423 43.499 58.0786 42.9531 55.905 43.0424C53.7315 43.1317 51.5579 43.896 49.9699 45.3748C49.0369 46.2482 48.3422 47.3399 47.7367 48.4714C47.042 49.7716 46.4564 51.1412 46.0396 52.759C46.4366 52.7888 46.8534 52.5506 47.2306 52.6895C47.3397 52.7292 47.4291 52.7987 47.5382 52.8285C47.6772 52.8781 47.8261 52.8583 47.9749 52.8583C48.6399 52.8384 49.3148 53.0071 49.9798 53.6026C50.5554 52.0146 51.5877 50.6053 52.9275 49.583C53.3543 49.2555 53.8208 48.9677 54.327 48.7691C55.0614 48.4912 55.8653 48.4218 56.6494 48.3622C58.9719 48.1836 61.2943 48.0545 63.6267 47.9652C64.4704 47.9354 65.3338 47.9057 66.1378 47.6278C66.9615 47.3697 67.4975 46.6253 68.2121 46.1489Z" fill="white"/>
</mask>
<g mask="url(#mask1_576_11663)">
<path d="M83.9233 0.682251L96.8656 25.6537" stroke="black" stroke-miterlimit="10"/>
<path d="M81.7599 3.13379L94.7121 28.1052" stroke="black" stroke-miterlimit="10"/>
<path d="M79.5959 5.58545L92.5481 30.5469" stroke="black" stroke-miterlimit="10"/>
<path d="M77.4424 8.03687L90.3846 32.9983" stroke="black" stroke-miterlimit="10"/>
<path d="M75.2787 10.4783L88.2309 35.4497" stroke="black" stroke-miterlimit="10"/>
<path d="M73.1248 12.9299L86.067 37.9013" stroke="black" stroke-miterlimit="10"/>
<path d="M70.9612 15.3815L83.9034 40.3529" stroke="black" stroke-miterlimit="10"/>
<path d="M68.7976 17.8328L81.7498 42.8042" stroke="black" stroke-miterlimit="10"/>
<path d="M66.6439 20.2843L79.5862 45.2557" stroke="black" stroke-miterlimit="10"/>
<path d="M64.4801 22.7357L77.4323 47.6972" stroke="black" stroke-miterlimit="10"/>
<path d="M62.3167 25.1874L75.2688 50.1489" stroke="black" stroke-miterlimit="10"/>
<path d="M60.1628 27.6288L73.1051 52.6002" stroke="black" stroke-miterlimit="10"/>
<path d="M57.999 30.0803L70.9512 55.0517" stroke="black" stroke-miterlimit="10"/>
<path d="M55.8455 32.5319L68.7877 57.5033" stroke="black" stroke-miterlimit="10"/>
<path d="M53.6818 34.9833L66.624 59.9547" stroke="black" stroke-miterlimit="10"/>
<path d="M51.5179 37.4347L64.4701 62.4061" stroke="black" stroke-miterlimit="10"/>
<path d="M49.3644 39.8864L62.3066 64.8478" stroke="black" stroke-miterlimit="10"/>
<path d="M47.2007 42.3279L60.1429 67.2993" stroke="black" stroke-miterlimit="10"/>
<path d="M45.0371 44.7793L57.9893 69.7507" stroke="black" stroke-miterlimit="10"/>
<path d="M42.8833 47.2308L55.8256 72.2022" stroke="black" stroke-miterlimit="10"/>
<path d="M40.7196 49.6823L53.6718 74.6537" stroke="black" stroke-miterlimit="10"/>
</g>
<path d="M41.4542 53.4935C42.1589 53.3248 42.8636 53.1461 43.4988 52.9675C42.9529 51.3894 42.4269 49.7816 42.3078 48.1241C42.1887 46.4567 42.5361 44.7099 43.5683 43.3998C45.057 41.5239 47.5879 40.9284 49.7119 39.8168C51.5877 38.8342 53.2154 37.3753 54.3866 35.6185C55.2004 34.3977 55.8257 32.9388 55.5875 31.4897C55.4486 30.6461 55.0317 29.8719 54.6049 29.1275C53.5231 27.2219 52.213 25.2072 50.0791 24.6414C46.6351 22.8648 42.5361 23.0633 38.6851 23.51C37.0078 23.7085 35.3404 23.9367 33.7226 24.4032C29.574 25.6042 26.0109 28.2442 22.557 30.8247C22.3088 31.0133 22.0508 31.2118 21.9218 31.4996C21.8126 31.7478 21.8225 32.0356 21.8424 32.3135C22.0409 34.5665 23.0929 36.6309 24.135 38.6457C24.7206 39.7771 25.3161 40.9185 26.2193 41.8117C27.2118 42.7943 28.512 43.4097 29.8221 43.896C31.3009 44.432 32.8294 44.819 34.3777 45.0572C35.2015 45.1763 36.055 45.2657 36.7696 45.6924C37.4048 46.0795 37.8614 46.6949 38.2882 47.3003C39.5089 49.0273 41.087 53.6622 41.087 53.6622L41.4542 53.4935Z" fill="#5A66FF"/>
<path d="M68.2916 37.2561C67.9243 37.3057 67.5472 37.3355 67.1601 37.3355C62.5251 37.3355 58.7734 33.5838 58.7734 28.9488C58.7734 24.3138 62.5251 20.5621 67.1601 20.5621C67.3288 20.5621 67.3487 20.6018 67.5273 20.6118" stroke="black" stroke-miterlimit="10" stroke-linecap="round" stroke-linejoin="round"/>
<path d="M75.4675 12.0366C71.1203 13.833 67.7359 17.8229 66.6838 22.4083C65.3638 28.1747 67.5572 34.0702 69.0063 39.8069C68.9765 41.3254 68.4703 42.8241 67.4679 43.8464C66.4555 44.8687 64.9668 45.3848 63.5376 45.226C61.7014 45.0076 60.1531 43.767 58.3567 43.3402C56.8977 42.9928 55.3593 43.2211 53.8904 43.5486C52.7292 43.8166 51.568 44.1541 50.5556 44.7893C47.9056 46.4467 46.8139 49.8113 46.7543 52.9377C45.6923 52.6697 44.809 52.7888 44.0249 53.1362C42.8538 52.372 42.6057 51.042 42.4568 49.8411C42.1888 47.8561 41.9705 45.6726 43.0523 43.9953C43.886 42.705 45.3251 41.9606 46.6948 41.2758C48.3225 40.4619 49.9502 39.6481 51.5779 38.8442C52.6796 38.2983 53.811 37.7127 54.5653 36.74C55.3792 35.6781 55.6174 34.2886 55.6174 32.9487C55.6174 31.2217 55.2402 29.465 54.3371 27.9961C53.2453 26.2195 51.4489 24.9392 49.4936 24.2146C47.5384 23.4901 45.4244 23.2817 43.3401 23.2817C35.3008 23.3015 27.3112 26.5867 21.5844 32.2242C20.5522 27.083 20.6812 22.5075 20.8301 18.0413C20.9393 14.5179 21.0782 10.9052 22.17 7.7093C33.9014 0.374689 49.1562 -1.01482 62.1381 3.91793C67.0113 6.04189 71.6166 8.81097 75.4675 12.0366Z" fill="#B180E0"/>
<path d="M88.5288 32.5121C88.5486 30.1598 86.8713 28.1748 85.988 25.9913C85.5116 24.8102 85.2535 23.51 84.4496 22.5275C84.0427 24.7904 83.0006 27.2716 81.3232 28.7703C79.6459 30.269 77.6907 31.4203 75.9141 32.7999C74.1375 34.1795 72.48 35.8469 71.7158 37.9609C71.031 39.8665 71.1004 42.0203 70.1873 43.8266C69.3338 45.5139 67.6862 46.6949 65.9196 47.3401C64.143 47.9852 62.2374 48.1639 60.3516 48.2433C58.3467 48.3326 56.3022 48.3425 54.4264 49.0273C52.5406 49.7122 50.8236 51.2406 50.3174 53.2157C51.9749 54.0593 53.5331 55.1015 54.9524 56.2925C56.4014 54.7144 58.307 52.6897 60.3119 51.9254C61.3937 51.5086 63.3192 51.0818 63.3192 51.0818C63.3192 51.0818 65.8005 50.7543 67.051 50.3771C68.0832 50.0595 68.9268 49.5831 69.7208 48.8388C71.8448 46.8736 71.6364 43.6976 73.2343 41.2858C74.0482 40.0452 75.3682 39.2015 76.7776 38.7251C78.1869 38.2487 79.6757 38.1098 81.1545 38.0304C81.879 37.9907 82.6036 37.9708 83.2983 37.7922C85.8292 37.1868 88.5089 35.033 88.5288 32.5121Z" fill="#FF88B6"/>
<path d="M21.128 8.97973C16.5029 11.2327 12.9101 15.173 9.90279 19.3514C9.38669 20.066 8.88051 20.8104 8.64231 21.6639C8.41403 22.4778 8.45373 23.3413 8.50336 24.1948C8.58276 25.6042 8.67208 27.0036 8.78126 28.413C8.83089 29.1077 8.90036 29.8323 9.19811 30.4575C9.49587 31.0828 10.002 31.5791 10.5082 32.0455C11.5305 32.9884 12.6223 33.8916 13.8629 34.5268C15.0638 35.1421 16.3739 35.4994 17.5748 36.1049C18.7758 36.7103 19.9172 37.6333 20.1157 38.9137C22.19 40.9781 21.8724 44.5908 23.8177 46.7743C24.9591 48.0646 26.7158 48.6303 28.4031 48.9578C30.1003 49.2853 31.8471 49.4342 33.4351 50.1091C35.7377 51.1016 37.5143 53.2454 38.0701 55.8359C38.338 55.2007 38.8938 54.7342 39.4893 54.3967C40.0848 54.0593 40.7399 53.8409 41.3453 53.4042C39.8466 50.9825 39.4496 47.7569 37.1669 46.0597C35.2613 44.6305 32.651 44.7496 30.3484 44.1342C27.6091 43.3998 25.1874 41.5041 23.51 39.0328C23.0237 38.0006 22.5969 36.9386 22.1304 35.7674C21.7731 31.4103 20.5127 27.1326 20.5325 22.7557C20.5424 21.128 20.731 19.5003 20.9196 17.8726C21.3067 14.5675 21.6937 11.2426 22.4679 8.00708C21.9816 8.40408 21.4952 8.79116 21.128 8.97973Z" fill="#56B381"/>
<path d="M3.6201 31.2812C3.56055 34.6161 6.27009 37.7822 9.58506 38.2288C11.2822 38.4571 13.029 38.0501 14.7163 38.3677C16.1654 38.6456 17.5052 39.4893 18.3886 40.6703C20.2247 43.1318 20.056 46.8139 22.2891 48.928C24.3634 50.8931 27.5891 50.6847 30.3482 51.439C33.0677 52.1735 35.4795 53.9798 36.9583 56.3718" stroke="black" stroke-miterlimit="10" stroke-linecap="round" stroke-linejoin="round"/>
<path d="M88.4692 31.2812C88.5287 34.6161 85.8192 37.7822 82.5042 38.2288C80.8071 38.4571 79.0603 38.0501 77.373 38.3677C75.9239 38.6456 74.5841 39.4893 73.7007 40.6703C71.8646 43.1318 72.0333 46.8139 69.8002 48.928C67.7259 50.8931 64.5002 50.6847 61.7411 51.439C59.0216 52.1735 56.6098 53.9798 55.131 56.3718" stroke="black" stroke-miterlimit="10" stroke-linecap="round" stroke-linejoin="round"/>
<path d="M46.4465 52.243C46.6053 49.3052 48.2132 46.4766 50.6448 44.829C53.0765 43.1815 56.2922 42.7348 59.0811 43.6678C61.3738 44.432 63.6863 46.0895 65.9691 45.3153C68.0335 44.6206 69.0062 42.1493 68.8672 39.9856C68.7283 37.812 67.7655 35.7873 67.1402 33.703C65.6316 28.681 66.118 23.0932 68.4603 18.3986C69.8696 15.57 72.1524 12.9299 75.2292 12.1855" stroke="black" stroke-miterlimit="10" stroke-linecap="round" stroke-linejoin="round"/>
<path d="M83.9434 21.8922C84.7573 28.3435 78.6732 30.0506 73.2244 35.4994C70.9019 37.9112 71.6662 41.3354 69.9789 44.2335C65.7806 51.9849 54.3966 44.5015 50.3174 52.64" stroke="black" stroke-miterlimit="10" stroke-linecap="round" stroke-linejoin="round"/>
<path d="M22.3486 7.85815C20.4629 15.5004 20.185 23.5298 21.5348 31.2912C22.0211 34.09 22.7357 36.8988 24.2344 39.3106C25.7331 41.7224 28.0952 43.7173 30.8842 44.2136C31.9263 44.4022 32.9982 44.3724 34.0304 44.6106C35.9162 45.0473 37.5141 46.3475 38.6456 47.9057C39.777 49.4639 40.4817 51.3001 41.0772 53.1362" stroke="black" stroke-miterlimit="10" stroke-linecap="round" stroke-linejoin="round"/>
<path d="M8.78091 21.1875C8.46331 23.4703 8.13578 25.7927 8.48316 28.0755C8.83054 30.3582 9.96199 32.6211 11.9371 33.8122C13.3961 34.6856 15.1528 34.894 16.7209 35.5788C18.9442 36.5515 20.7009 38.5464 21.3956 40.8788C21.7132 41.9507 21.8125 43.0722 22.1698 44.1342C22.8248 46.0994 24.3831 47.737 26.3085 48.5012C28.0156 49.1761 29.9113 49.1761 31.6879 49.6525C34.4967 50.4068 36.9283 52.4415 38.169 55.0617" stroke="black" stroke-miterlimit="10" stroke-linecap="round" stroke-linejoin="round"/>
<path d="M21.9714 31.728C27.2714 26.3982 34.6854 23.2222 42.2086 23.0535C45.8114 22.9741 49.6127 23.649 52.3818 25.9615C55.1509 28.2642 56.4907 32.5319 54.6546 35.6385C51.9947 40.1246 44.5112 40.204 42.5659 45.0375C41.5535 47.5684 42.5163 50.4069 43.4889 52.9577" stroke="black" stroke-miterlimit="10" stroke-linecap="round" stroke-linejoin="round"/>
<path d="M56.3121 17.0786C57.1015 17.0786 57.7413 16.4388 57.7413 15.6494C57.7413 14.8601 57.1015 14.2202 56.3121 14.2202C55.5228 14.2202 54.8829 14.8601 54.8829 15.6494C54.8829 16.4388 55.5228 17.0786 56.3121 17.0786Z" fill="#FFF58C" stroke="#181919" stroke-miterlimit="10" stroke-linecap="round" stroke-linejoin="round"/>
<path d="M36.9385 17.0786C37.7278 17.0786 38.3677 16.4388 38.3677 15.6494C38.3677 14.8601 37.7278 14.2202 36.9385 14.2202C36.1492 14.2202 35.5093 14.8601 35.5093 15.6494C35.5093 16.4388 36.1492 17.0786 36.9385 17.0786Z" fill="#FFF58C" stroke="#181919" stroke-miterlimit="10" stroke-linecap="round" stroke-linejoin="round"/>
<path d="M47.2111 8.50326L48.1043 11.2525C48.1837 11.5106 48.4219 11.6793 48.6899 11.6793H51.5781C52.1736 11.6793 52.4217 12.4435 51.9453 12.7909L49.603 14.4881C49.3846 14.6469 49.2953 14.9248 49.3747 15.1729L50.268 17.9221C50.4566 18.4879 49.8015 18.9643 49.3152 18.607L46.9729 16.9098C46.7545 16.751 46.4667 16.751 46.2483 16.9098L43.906 18.607C43.4197 18.9543 42.7746 18.4879 42.9532 17.9221L43.8465 15.1729C43.9259 14.9148 43.8365 14.6369 43.6182 14.4881L41.3057 12.8008C40.8193 12.4534 41.0675 11.6892 41.6729 11.6892H44.5611C44.8291 11.6892 45.0673 11.5205 45.1467 11.2624L46.0399 8.51319C46.2285 7.93754 47.0324 7.93754 47.2111 8.50326Z" fill="#FFF58C" stroke="#181919" stroke-miterlimit="10" stroke-linecap="round" stroke-linejoin="round"/>
<mask id="mask2_576_11663" style="mask-type:luminance" maskUnits="userSpaceOnUse" x="1" y="1" width="91" height="90">
<path d="M46.0893 90.8216C70.8929 90.8216 91.0001 70.7144 91.0001 45.9108C91.0001 21.1073 70.8929 1 46.0893 1C21.2857 1 1.17847 21.1073 1.17847 45.9108C1.17847 70.7144 21.2857 90.8216 46.0893 90.8216Z" fill="white"/>
</mask>
<g mask="url(#mask2_576_11663)">
<path d="M68.6984 80.718C64.2024 77.6114 55.6073 75.5073 45.7418 75.5073C35.8763 75.5073 27.2812 77.6114 22.7852 80.718H19.4404V85.6805C19.4404 91.2981 31.2115 95.8537 45.7418 95.8537C60.2721 95.8537 72.0432 91.2981 72.0432 85.6805V80.718H68.6984Z" fill="#5A66FF" stroke="black" stroke-miterlimit="10" stroke-linecap="round" stroke-linejoin="round"/>
<path d="M45.7418 90.8911C60.2676 90.8911 72.0432 86.3365 72.0432 80.718C72.0432 75.0995 60.2676 70.5448 45.7418 70.5448C31.2159 70.5448 19.4404 75.0995 19.4404 80.718C19.4404 86.3365 31.2159 90.8911 45.7418 90.8911Z" fill="white" stroke="black" stroke-miterlimit="10" stroke-linecap="round" stroke-linejoin="round"/>
<path d="M68.6984 75.7554C64.2024 72.6489 55.6073 70.5448 45.7418 70.5448C35.8763 70.5448 27.2812 72.6489 22.7852 75.7554H19.4404V80.718C19.4404 86.3355 31.2115 90.8911 45.7418 90.8911C60.2721 90.8911 72.0432 86.3355 72.0432 80.718V75.7554H68.6984Z" fill="#5A66FF" stroke="black" stroke-miterlimit="10" stroke-linecap="round" stroke-linejoin="round"/>
<path d="M45.7418 85.9285C60.2676 85.9285 72.0432 81.3738 72.0432 75.7553C72.0432 70.1368 60.2676 65.5822 45.7418 65.5822C31.2159 65.5822 19.4404 70.1368 19.4404 75.7553C19.4404 81.3738 31.2159 85.9285 45.7418 85.9285Z" fill="white" stroke="black" stroke-miterlimit="10" stroke-linecap="round" stroke-linejoin="round"/>
<path d="M68.6984 70.7928C64.2024 67.6863 55.6073 65.5822 45.7418 65.5822C35.8763 65.5822 27.2812 67.6863 22.7852 70.7928H19.4404V75.7553C19.4404 81.3729 31.2115 85.9285 45.7418 85.9285C60.2721 85.9285 72.0432 81.3729 72.0432 75.7553V70.7928H68.6984Z" fill="#5A66FF" stroke="black" stroke-miterlimit="10" stroke-linecap="round" stroke-linejoin="round"/>
<path d="M45.7418 80.9661C60.2676 80.9661 72.0432 76.4114 72.0432 70.7929C72.0432 65.1744 60.2676 60.6198 45.7418 60.6198C31.2159 60.6198 19.4404 65.1744 19.4404 70.7929C19.4404 76.4114 31.2159 80.9661 45.7418 80.9661Z" fill="white" stroke="black" stroke-miterlimit="10" stroke-linecap="round" stroke-linejoin="round"/>
</g>
<path d="M46.0893 90.8216C70.8929 90.8216 91.0001 70.7144 91.0001 45.9108C91.0001 21.1073 70.8929 1 46.0893 1C21.2857 1 1.17847 21.1073 1.17847 45.9108C1.17847 70.7144 21.2857 90.8216 46.0893 90.8216Z" stroke="#181919" stroke-miterlimit="10"/>
<path fill-rule="evenodd" clip-rule="evenodd" d="M65.1283 55.6314C65.66 53.8036 66.1142 51.8872 66.2249 50.0041C66.3136 48.3646 65.8151 46.8913 65.7708 45.2962C65.7375 43.269 66.3579 42.3718 65.3498 40.5219C64.9621 39.8129 64.8181 38.8603 64.3861 38.1956C63.8987 37.4645 63.0014 37.1765 62.3479 36.6559C61.3841 35.8915 60.7195 34.817 59.789 34.0195C58.8807 33.244 57.7397 33.0557 56.776 32.3911C56.067 31.9037 55.9009 31.0175 55.3581 30.3861C54.7488 29.6882 53.8294 29.3559 53.0651 28.8685C49.055 26.3539 43.2062 29.0014 39.2516 30.8181C37.4571 31.6378 35.7622 32.2803 34.444 33.8755C33.3252 35.238 31.5418 36.7334 30.8217 38.3396C29.7694 40.7213 30.999 43.4463 29.2931 45.6285C28.6395 45.6839 28.1742 47.1904 28.1078 47.9105C28.0081 48.9406 28.5176 49.7936 28.6949 50.7573C28.9607 52.1863 28.5287 53.6707 28.85 55.155C29.1934 56.7391 29.8469 58.2678 30.6445 59.6303C31.3978 60.9374 32.1399 62.2778 32.8821 63.596C33.6132 64.881 33.9788 66.4539 35.0976 67.4398C38.7199 70.6523 45.7872 75.2494 50.6059 71.6825C51.6471 70.9181 53.0097 70.4418 54.1174 69.5888C56.3107 67.894 58.6591 65.5788 60.221 63.2415C61.0629 61.9787 61.7608 60.6162 62.6802 59.4088C63.5553 58.2567 64.6409 57.3041 65.0729 55.864C65.084 55.7975 65.1061 55.72 65.1283 55.6314Z" fill="#FFD54C" stroke="black" stroke-miterlimit="10"/>
<path d="M41.0682 42.7261C41.1015 42.8923 41.2012 43.0363 41.3119 43.1138C41.4338 43.2578 41.5667 43.3575 41.7329 43.424C42.0209 43.5347 42.2978 43.5126 42.5526 43.3797C43.1176 43.0806 43.4277 42.2941 43.5385 41.9618C43.6714 41.563 43.8044 41.0977 43.749 40.6436C43.7822 40.4109 43.7822 40.2005 43.76 39.9789C43.76 39.8903 43.749 39.8238 43.7379 39.7684C43.76 39.5469 43.7157 39.3364 43.5939 39.126C43.5607 38.9709 43.4942 38.8269 43.3723 38.6829L43.328 38.6275C43.1397 38.3838 42.9403 38.1401 42.6523 38.0293C42.4861 37.9628 42.3089 37.9518 42.1095 37.9961C41.0793 38.2065 40.9796 39.3697 40.9242 39.9235C40.8467 41.0756 40.8799 41.9396 41.0682 42.7261Z" fill="black"/>
<path d="M49.7641 39.8683C48.4459 39.9015 47.2163 40.5883 46.0421 41.2862C46.4077 42.0394 46.884 42.7262 47.5043 43.2469C48.1247 43.7675 48.8779 44.1331 49.6866 44.2106" stroke="black" stroke-miterlimit="10" stroke-linecap="round" stroke-linejoin="round"/>
<path d="M46.0421 41.2751C47.3714 41.7072 48.7671 41.9176 50.174 41.8955" stroke="black" stroke-miterlimit="10" stroke-linecap="round" stroke-linejoin="round"/>
<path d="M51.9018 45.2186C52.6772 45.7835 53.0096 46.8912 52.7659 47.8882C52.6994 48.1762 52.5886 48.4531 52.4114 48.6968C52.2341 48.9405 52.0126 49.1289 51.78 49.3172C49.3762 51.1892 46.1859 51.8539 43.3833 51.0785C42.0762 50.7129 40.8355 50.0372 39.9161 49.007C38.9967 47.9768 38.4096 46.5921 38.4318 45.1521C38.4428 44.4099 38.6201 43.6456 39.0742 43.0585" stroke="black" stroke-miterlimit="10" stroke-linecap="round" stroke-linejoin="round"/>
</svg>
