<svg width="213" height="231" viewBox="0 0 213 231" fill="none" xmlns="http://www.w3.org/2000/svg">
<path d="M109 230C160.362 230 202 188.362 202 137C202 85.6375 160.362 44 109 44C57.6375 44 16 85.6375 16 137C16 188.362 57.6375 230 109 230Z" fill="#EBEBEB"/>
<path d="M133.91 76.9047C135.544 76.9047 136.869 75.5797 136.869 73.9452C136.869 72.3106 135.544 70.9856 133.91 70.9856C132.275 70.9856 130.95 72.3106 130.95 73.9452C130.95 75.5797 132.275 76.9047 133.91 76.9047Z" fill="#FFF58C" stroke="#181919" stroke-miterlimit="10" stroke-linecap="round" stroke-linejoin="round"/>
<path d="M93.8115 76.9047C95.446 76.9047 96.7711 75.5797 96.7711 73.9452C96.7711 72.3106 95.446 70.9856 93.8115 70.9856C92.177 70.9856 90.8519 72.3106 90.8519 73.9452C90.8519 75.5797 92.177 76.9047 93.8115 76.9047Z" fill="#FFF58C" stroke="#181919" stroke-miterlimit="10" stroke-linecap="round" stroke-linejoin="round"/>
<path d="M115.084 59.1677L116.933 64.8608C117.098 65.3951 117.591 65.7445 118.146 65.7445H124.127C125.36 65.7445 125.874 67.3271 124.887 68.0464L120.037 71.5609C119.585 71.8897 119.4 72.4652 119.564 72.979L121.414 78.672C121.804 79.8435 120.448 80.83 119.441 80.0901L114.59 76.5757C114.138 76.2468 113.542 76.2468 113.09 76.5757L108.24 80.0901C107.233 80.8095 105.897 79.8435 106.267 78.672L108.116 72.979C108.281 72.4446 108.096 71.8692 107.644 71.5609L102.793 68.0464C101.786 67.3271 102.3 65.7445 103.554 65.7445H109.535C110.089 65.7445 110.583 65.3951 110.747 64.8608L112.597 59.1677C113.028 57.9757 114.693 57.9757 115.084 59.1677Z" fill="#FFF58C" stroke="#181919" stroke-miterlimit="10" stroke-linecap="round" stroke-linejoin="round"/>
<path d="M133.91 76.9047C135.544 76.9047 136.869 75.5797 136.869 73.9452C136.869 72.3106 135.544 70.9856 133.91 70.9856C132.275 70.9856 130.95 72.3106 130.95 73.9452C130.95 75.5797 132.275 76.9047 133.91 76.9047Z" fill="#FFF58C" stroke="#181919" stroke-miterlimit="10" stroke-linecap="round" stroke-linejoin="round"/>
<path d="M93.8115 76.9047C95.446 76.9047 96.7711 75.5797 96.7711 73.9452C96.7711 72.3106 95.446 70.9856 93.8115 70.9856C92.177 70.9856 90.8519 72.3106 90.8519 73.9452C90.8519 75.5797 92.177 76.9047 93.8115 76.9047Z" fill="#FFF58C" stroke="#181919" stroke-miterlimit="10" stroke-linecap="round" stroke-linejoin="round"/>
<path d="M115.084 59.1677L116.933 64.8608C117.098 65.3951 117.591 65.7445 118.146 65.7445H124.127C125.36 65.7445 125.874 67.3271 124.887 68.0464L120.037 71.5609C119.585 71.8897 119.4 72.4652 119.564 72.979L121.414 78.672C121.804 79.8435 120.448 80.83 119.441 80.0901L114.59 76.5757C114.138 76.2468 113.542 76.2468 113.09 76.5757L108.24 80.0901C107.233 80.8095 105.897 79.8435 106.267 78.672L108.116 72.979C108.281 72.4446 108.096 71.8692 107.644 71.5609L102.793 68.0464C101.786 67.3271 102.3 65.7445 103.554 65.7445H109.535C110.089 65.7445 110.583 65.3951 110.747 64.8608L112.597 59.1677C113.028 57.9757 114.693 57.9757 115.084 59.1677Z" fill="#FFF58C" stroke="#181919" stroke-miterlimit="10" stroke-linecap="round" stroke-linejoin="round"/>
<mask id="mask0_625_3530" style="mask-type:luminance" maskUnits="userSpaceOnUse" x="20" y="86" width="73" height="73">
<path d="M90.503 158.334C90.2358 157.45 89.4754 156.833 88.7561 156.258C87.6873 155.395 86.6186 154.552 85.5499 153.689C84.2962 152.682 83.0425 151.675 81.6449 150.873C76.8562 148.078 71.0604 147.811 65.7989 146.064C64.0931 145.488 62.4283 144.769 61.0307 143.639C58.215 141.398 56.7353 137.884 55.5843 134.472C54.4334 131.061 53.4469 127.484 51.2478 124.628C49.1925 123.189 47.1989 121.709 44.8559 121.134C40.9099 120.168 36.7172 121.956 32.7505 121.072C31.6407 120.825 30.5925 120.373 29.606 119.818C25.0434 117.331 21.4878 112.707 20.9945 107.528C22.8648 99.6153 26.5642 92.2575 31.7024 86.6877C31.2502 91.3943 30.7775 96.1624 31.7024 100.807C32.6272 105.452 35.1141 109.994 39.2657 112.234C43.6228 114.598 49.398 114.331 52.8097 117.907C53.6318 118.77 54.2279 119.777 54.8445 120.805C56.6942 123.908 58.5645 127.032 59.8387 130.403C60.6197 132.479 61.1952 134.678 62.3461 136.569C63.7848 138.953 66.1278 140.802 68.9023 141.625C70.0738 143.31 72.3757 143.68 74.4104 143.926C77.5138 144.296 80.6789 144.749 83.474 146.187C85.591 147.276 87.3791 148.9 89.0438 150.585C90.2153 151.757 92.7638 154.244 92.9076 155.95C93.0515 156.957 91.3662 156.957 90.503 158.334Z" fill="white"/>
</mask>
<g mask="url(#mask0_625_3530)">
<path d="M21.2003 44.5757L-5.62073 96.2857" stroke="black" stroke-miterlimit="10"/>
<path d="M25.619 50.7004L-1.1814 102.41" stroke="black" stroke-miterlimit="10"/>
<path d="M30.0584 56.8455L3.25793 108.535" stroke="black" stroke-miterlimit="10"/>
<path d="M34.4977 62.97L7.69727 114.68" stroke="black" stroke-miterlimit="10"/>
<path d="M38.937 69.095L12.1366 120.805" stroke="black" stroke-miterlimit="10"/>
<path d="M43.3764 75.2195L16.5759 126.93" stroke="black" stroke-miterlimit="10"/>
<path d="M47.8157 81.3647L21.0153 133.054" stroke="black" stroke-miterlimit="10"/>
<path d="M52.2551 87.4893L25.4547 139.199" stroke="black" stroke-miterlimit="10"/>
<path d="M56.6944 93.614L29.894 145.324" stroke="black" stroke-miterlimit="10"/>
<path d="M61.1337 99.7385L34.3333 151.449" stroke="black" stroke-miterlimit="10"/>
<path d="M65.5736 105.884L38.7731 157.573" stroke="black" stroke-miterlimit="10"/>
<path d="M70.0124 112.009L43.212 163.719" stroke="black" stroke-miterlimit="10"/>
<path d="M74.4516 118.133L47.6306 169.843" stroke="black" stroke-miterlimit="10"/>
<path d="M78.8915 124.278L52.0704 175.968" stroke="black" stroke-miterlimit="10"/>
<path d="M83.3303 130.403L56.5093 182.113" stroke="black" stroke-miterlimit="10"/>
<path d="M87.7696 136.528L60.9486 188.238" stroke="black" stroke-miterlimit="10"/>
<path d="M92.2094 142.652L65.3884 194.362" stroke="black" stroke-miterlimit="10"/>
<path d="M96.6482 148.797L69.8273 200.487" stroke="black" stroke-miterlimit="10"/>
<path d="M101.088 154.922L74.2672 206.632" stroke="black" stroke-miterlimit="10"/>
</g>
<path d="M155.182 137.206C157.689 135.541 159.148 132.684 160.032 129.827C160.937 126.95 161.368 123.949 162.416 121.134C164.842 114.639 170.226 109.727 175.775 105.555C180.174 102.246 185.024 98.9369 187.038 93.8194C187.696 92.1341 188.004 90.3254 188.847 88.7429C185.168 80.8096 179.269 74.7672 173.494 68.9098C172.384 67.7794 171.254 66.649 169.959 65.7241C165.129 67.5944 161.204 71.2938 158.429 75.5688C155.655 79.8437 153.908 84.6941 152.243 89.5239C151.791 90.8598 151.318 92.2368 151.359 93.6549C151.4 95.1758 151.996 96.7173 151.565 98.1765C150.558 103.643 150.948 109.357 153.353 114.228C153.969 115.461 154.709 116.674 154.976 118.01C155.182 119.017 155.141 120.065 155.305 121.093C155.49 122.182 155.922 123.23 156.086 124.34C156.538 127.464 154.709 130.485 152.551 132.807C151.852 133.547 151.112 134.267 150.167 134.678C147.824 135.705 145.173 134.472 142.809 133.465C138.678 131.718 134.198 130.588 129.697 130.773C125.196 130.958 120.695 132.54 117.406 135.603C115.474 137.411 114.036 139.672 112.782 142.015C111.343 144.707 110.131 147.544 109.268 150.894C110.09 150.955 110.953 150.462 111.734 150.75C111.96 150.832 112.145 150.976 112.371 151.037C112.659 151.14 112.967 151.099 113.275 151.099C114.652 151.058 116.05 151.407 117.427 152.641C118.619 149.352 120.756 146.434 123.531 144.317C124.415 143.639 125.381 143.043 126.429 142.632C127.95 142.056 129.615 141.912 131.238 141.789C136.048 141.419 140.857 141.152 145.687 140.967C147.434 140.905 149.222 140.843 150.886 140.268C152.592 139.734 153.702 138.192 155.182 137.206Z" fill="white"/>
<mask id="mask1_625_3530" style="mask-type:luminance" maskUnits="userSpaceOnUse" x="109" y="66" width="80" height="87">
<path d="M155.182 137.493C157.689 135.829 159.148 132.972 160.032 130.115C160.937 127.238 161.368 124.237 162.416 121.421C164.842 114.927 170.226 110.015 175.775 105.842C180.174 102.533 185.024 99.2245 187.038 94.107C187.696 92.4217 188.004 90.613 188.847 89.0305C185.168 81.0972 179.269 75.0548 173.494 69.1974C172.384 68.067 171.254 66.9366 169.959 66.0117C165.129 67.882 161.204 71.5814 158.429 75.8564C155.655 80.1313 153.908 84.9817 152.243 89.8115C151.791 91.1474 151.318 92.5244 151.359 93.9425C151.4 95.4634 151.996 97.0049 151.565 98.4641C150.558 103.931 150.948 109.645 153.353 114.516C153.969 115.749 154.709 116.961 154.976 118.297C155.182 119.304 155.141 120.352 155.305 121.38C155.49 122.469 155.922 123.518 156.086 124.627C156.538 127.751 154.709 130.773 152.551 133.095C151.852 133.835 151.112 134.554 150.167 134.965C147.824 135.993 145.173 134.76 142.809 133.753C138.678 132.006 134.198 130.875 129.697 131.06C125.196 131.245 120.695 132.828 117.406 135.89C115.474 137.699 114.036 139.96 112.782 142.303C111.343 144.995 110.131 147.831 109.268 151.181C110.09 151.243 110.953 150.75 111.734 151.037C111.96 151.12 112.145 151.263 112.371 151.325C112.659 151.428 112.967 151.387 113.275 151.387C114.652 151.346 116.05 151.695 117.427 152.928C118.619 149.64 120.756 146.721 123.531 144.604C124.415 143.926 125.381 143.33 126.429 142.919C127.95 142.344 129.615 142.2 131.238 142.076C136.048 141.707 140.857 141.439 145.687 141.254C147.434 141.193 149.222 141.131 150.886 140.556C152.592 140.021 153.702 138.48 155.182 137.493Z" fill="white"/>
</mask>
<g mask="url(#mask1_625_3530)">
<path d="M187.716 43.3425L214.516 95.0526" stroke="black" stroke-miterlimit="10"/>
<path d="M183.236 48.4189L210.057 100.129" stroke="black" stroke-miterlimit="10"/>
<path d="M178.776 53.4954L205.576 105.185" stroke="black" stroke-miterlimit="10"/>
<path d="M174.295 58.5718L201.096 110.261" stroke="black" stroke-miterlimit="10"/>
<path d="M169.815 63.6277L196.636 115.338" stroke="black" stroke-miterlimit="10"/>
<path d="M165.355 68.7043L192.155 120.414" stroke="black" stroke-miterlimit="10"/>
<path d="M160.874 73.7808L187.695 125.491" stroke="black" stroke-miterlimit="10"/>
<path d="M156.394 78.8572L183.215 130.567" stroke="black" stroke-miterlimit="10"/>
<path d="M151.934 83.9336L178.735 135.644" stroke="black" stroke-miterlimit="10"/>
<path d="M147.454 89.01L174.275 140.7" stroke="black" stroke-miterlimit="10"/>
<path d="M142.994 94.0867L169.794 145.776" stroke="black" stroke-miterlimit="10"/>
<path d="M138.514 99.1423L165.314 150.852" stroke="black" stroke-miterlimit="10"/>
<path d="M134.033 104.219L160.854 155.929" stroke="black" stroke-miterlimit="10"/>
<path d="M129.573 109.296L156.373 161.006" stroke="black" stroke-miterlimit="10"/>
<path d="M125.093 114.372L151.914 166.082" stroke="black" stroke-miterlimit="10"/>
<path d="M120.612 119.448L147.433 171.158" stroke="black" stroke-miterlimit="10"/>
<path d="M116.152 124.525L142.953 176.214" stroke="black" stroke-miterlimit="10"/>
<path d="M111.672 129.581L138.493 181.291" stroke="black" stroke-miterlimit="10"/>
<path d="M107.212 134.657L134.012 186.367" stroke="black" stroke-miterlimit="10"/>
<path d="M102.731 139.734L129.532 191.444" stroke="black" stroke-miterlimit="10"/>
<path d="M98.2508 144.81L125.072 196.52" stroke="black" stroke-miterlimit="10"/>
</g>
<path d="M99.7722 152.702C101.231 152.353 102.691 151.983 104.006 151.613C102.876 148.345 101.786 145.016 101.54 141.583C101.293 138.131 102.012 134.513 104.15 131.8C107.233 127.916 112.474 126.683 116.872 124.381C120.756 122.346 124.127 119.325 126.552 115.687C128.237 113.159 129.532 110.138 129.039 107.137C128.751 105.39 127.888 103.787 127.004 102.246C124.764 98.2998 122.051 94.1277 117.632 92.9562C110.501 89.2773 102.012 89.6883 94.0381 90.6132C90.5647 91.0242 87.1119 91.497 83.7618 92.4629C75.1709 94.9498 67.7926 100.417 60.6403 105.76C60.1265 106.151 59.5921 106.562 59.3249 107.158C59.0988 107.672 59.1194 108.268 59.1605 108.843C59.5716 113.509 61.7501 117.784 63.9081 121.956C65.1207 124.299 66.3538 126.662 68.2241 128.512C70.2794 130.547 72.9718 131.821 75.6847 132.828C78.747 133.938 81.9121 134.739 85.1183 135.233C86.8242 135.479 88.5917 135.664 90.0715 136.548C91.3868 137.35 92.3322 138.624 93.216 139.878C95.7439 143.454 99.0117 153.052 99.0117 153.052L99.7722 152.702Z" fill="#FFF58C"/>
<path d="M155.347 119.078C154.586 119.181 153.805 119.243 153.004 119.243C143.406 119.243 135.637 111.474 135.637 101.876C135.637 92.2779 143.406 84.509 153.004 84.509C153.353 84.509 153.394 84.5912 153.764 84.6118" stroke="black" stroke-miterlimit="10" stroke-linecap="round" stroke-linejoin="round"/>
<path d="M170.206 66.8544C161.204 70.5744 154.195 78.8365 152.017 88.3318C149.283 100.273 153.826 112.481 156.826 124.36C156.765 127.505 155.716 130.608 153.641 132.725C151.544 134.842 148.461 135.911 145.502 135.582C141.7 135.13 138.493 132.561 134.773 131.677C131.752 130.958 128.567 131.43 125.525 132.109C123.12 132.663 120.715 133.362 118.619 134.678C113.132 138.11 110.871 145.077 110.748 151.551C108.548 150.996 106.719 151.243 105.096 151.962C102.67 150.38 102.157 147.626 101.848 145.139C101.293 141.028 100.841 136.507 103.081 133.033C104.808 130.362 107.788 128.82 110.624 127.402C113.995 125.717 117.365 124.031 120.736 122.367C123.017 121.236 125.36 120.024 126.922 118.01C128.608 115.81 129.101 112.933 129.101 110.159C129.101 106.582 128.32 102.945 126.45 99.9028C124.189 96.2239 120.469 93.5726 116.42 92.0723C112.371 90.572 107.993 90.1404 103.677 90.1404C87.0299 90.1815 70.4852 96.9844 58.6264 108.658C56.4889 98.012 56.7561 88.5373 57.0644 79.2887C57.2905 71.9925 57.5782 64.5114 59.839 57.8935C84.132 42.7052 115.721 39.8279 142.604 50.0425C152.695 54.4407 162.231 60.1749 170.206 66.8544Z" fill="#B180E0"/>
<path d="M197.253 109.254C197.294 104.383 193.82 100.273 191.991 95.7514C191.005 93.3057 190.47 90.6133 188.806 88.5786C187.963 93.2646 185.805 98.4027 182.332 101.506C178.858 104.61 174.809 106.994 171.13 109.85C167.452 112.707 164.019 116.16 162.437 120.538C161.019 124.484 161.162 128.944 159.272 132.684C157.504 136.178 154.092 138.624 150.434 139.96C146.755 141.296 142.809 141.666 138.904 141.83C134.753 142.015 130.519 142.036 126.634 143.454C122.729 144.872 119.174 148.037 118.126 152.127C121.558 153.874 124.785 156.032 127.724 158.498C130.724 155.23 134.67 151.038 138.822 149.455C141.062 148.592 145.049 147.708 145.049 147.708C145.049 147.708 150.187 147.03 152.777 146.249C154.915 145.591 156.661 144.605 158.306 143.063C162.704 138.994 162.272 132.417 165.581 127.423C167.267 124.854 170 123.107 172.919 122.12C175.837 121.134 178.92 120.846 181.982 120.682C183.483 120.599 184.983 120.558 186.421 120.188C191.662 118.935 197.212 114.475 197.253 109.254Z" fill="#FF88B6"/>
<path d="M57.6811 60.5244C48.1037 65.1898 40.6637 73.3491 34.4363 82.0017C33.3675 83.4815 32.3194 85.023 31.8261 86.7905C31.3534 88.4758 31.4356 90.2638 31.5384 92.0314C31.7028 94.9498 31.8877 97.8477 32.1138 100.766C32.2166 102.205 32.3605 103.705 32.977 105C33.5936 106.295 34.6418 107.322 35.69 108.288C37.8069 110.241 40.0676 112.111 42.6367 113.426C45.1235 114.701 47.8365 115.441 50.3233 116.694C52.8102 117.948 55.1737 119.859 55.5848 122.511C59.8802 126.786 59.2225 134.267 63.2508 138.788C65.6144 141.46 69.2521 142.632 72.7461 143.31C76.2605 143.988 79.8778 144.296 83.1662 145.694C87.9344 147.749 91.6133 152.188 92.7642 157.553C93.3191 156.237 94.4701 155.271 95.7032 154.573C96.9364 153.874 98.2928 153.422 99.5465 152.517C96.4431 147.503 95.621 140.823 90.8939 137.308C86.9479 134.349 81.5426 134.596 76.7744 133.321C71.1019 131.8 66.0871 127.875 62.6137 122.757C61.6066 120.62 60.7229 118.421 59.7569 115.996C59.017 106.973 56.4069 98.1149 56.448 89.0512C56.4685 85.6806 56.859 82.31 57.2495 78.9394C58.0511 72.0954 58.8526 65.2104 60.4557 58.5103C59.4486 59.3324 58.4621 60.1339 57.6811 60.5244Z" fill="#56B381"/>
<path d="M21.4262 106.706C21.3029 113.611 26.9138 120.168 33.7783 121.093C37.2928 121.565 40.91 120.723 44.4039 121.38C47.4046 121.956 50.1792 123.703 52.0083 126.148C55.8105 131.245 55.4612 138.87 60.0855 143.248C64.3809 147.318 71.0605 146.886 76.7741 148.448C82.4055 149.969 87.3997 153.709 90.462 158.663" stroke="black" stroke-miterlimit="10" stroke-linecap="round" stroke-linejoin="round"/>
<path d="M197.13 106.706C197.253 113.611 191.642 120.168 184.777 121.093C181.263 121.565 177.646 120.723 174.152 121.38C171.151 121.956 168.377 123.703 166.547 126.148C162.745 131.245 163.095 138.87 158.47 143.248C154.175 147.318 147.495 146.886 141.782 148.448C136.15 149.969 131.156 153.709 128.094 158.663" stroke="black" stroke-miterlimit="10" stroke-linecap="round" stroke-linejoin="round"/>
<path d="M110.11 150.112C110.439 144.029 113.769 138.171 118.804 134.76C123.839 131.348 130.498 130.423 136.274 132.355C141.021 133.938 145.81 137.37 150.537 135.767C154.812 134.328 156.826 129.211 156.538 124.73C156.251 120.229 154.257 116.036 152.962 111.72C149.838 101.321 150.845 89.7498 155.696 80.0285C158.614 74.171 163.341 68.704 169.713 67.1626" stroke="black" stroke-miterlimit="10" stroke-linecap="round" stroke-linejoin="round"/>
<path d="M187.757 87.2634C189.443 100.623 176.844 104.158 165.561 115.441C160.751 120.435 162.334 127.526 158.84 133.527C150.146 149.579 126.573 134.082 118.126 150.935" stroke="black" stroke-miterlimit="10" stroke-linecap="round" stroke-linejoin="round"/>
<path d="M60.2084 58.2019C56.3034 74.0273 55.728 90.6543 58.5231 106.726C59.5302 112.522 61.0099 118.338 64.1134 123.333C67.2168 128.327 72.1083 132.458 77.8835 133.486C80.0415 133.876 82.2612 133.815 84.3987 134.308C88.3037 135.212 91.6126 137.904 93.9556 141.131C96.2986 144.378 97.7578 148.16 98.991 151.962" stroke="black" stroke-miterlimit="10" stroke-linecap="round" stroke-linejoin="round"/>
<path d="M32.1136 85.8037C31.456 90.5308 30.7777 95.3401 31.4971 100.067C32.2164 104.794 34.5594 109.48 38.6493 111.946C41.6705 113.755 45.3083 114.187 48.5556 115.605C53.1594 117.619 56.7972 121.75 58.2358 126.58C58.8935 128.8 59.0991 131.122 59.839 133.321C61.1954 137.39 64.4222 140.782 68.4093 142.364C71.9444 143.762 75.8699 143.762 79.5488 144.748C85.3651 146.31 90.4005 150.523 92.9695 155.949" stroke="black" stroke-miterlimit="10" stroke-linecap="round" stroke-linejoin="round"/>
<path d="M59.4278 107.631C70.4028 96.5939 85.7555 90.0171 101.334 89.6678C108.795 89.5033 116.666 90.9009 122.401 95.6896C128.135 100.458 130.909 109.295 127.107 115.728C121.599 125.018 106.103 125.182 102.074 135.192C99.9779 140.432 101.971 146.31 103.986 151.592" stroke="black" stroke-miterlimit="10" stroke-linecap="round" stroke-linejoin="round"/>
<path d="M130.54 77.2953C132.174 77.2953 133.499 75.9703 133.499 74.3358C133.499 72.7013 132.174 71.3762 130.54 71.3762C128.905 71.3762 127.58 72.7013 127.58 74.3358C127.58 75.9703 128.905 77.2953 130.54 77.2953Z" fill="#FFF58C" stroke="#181919" stroke-miterlimit="10" stroke-linecap="round" stroke-linejoin="round"/>
<path d="M90.4213 77.2953C92.0558 77.2953 93.3809 75.9703 93.3809 74.3358C93.3809 72.7013 92.0558 71.3762 90.4213 71.3762C88.7868 71.3762 87.4617 72.7013 87.4617 74.3358C87.4617 75.9703 88.7868 77.2953 90.4213 77.2953Z" fill="#FFF58C" stroke="#181919" stroke-miterlimit="10" stroke-linecap="round" stroke-linejoin="round"/>
<path d="M111.693 59.5379L113.543 65.231C113.707 65.7653 114.2 66.1147 114.755 66.1147H120.736C121.969 66.1147 122.483 67.6973 121.497 68.4166L116.646 71.9311C116.194 72.2599 116.009 72.8354 116.173 73.3492L118.023 79.0422C118.414 80.2137 117.057 81.2002 116.05 80.4604L111.2 76.9459C110.748 76.617 110.152 76.617 109.699 76.9459L104.849 80.4604C103.842 81.1797 102.506 80.2137 102.876 79.0422L104.726 73.3492C104.89 72.8148 104.705 72.2394 104.253 71.9311L99.4643 68.4372C98.4572 67.7178 98.971 66.1353 100.225 66.1353H106.205C106.76 66.1353 107.254 65.7859 107.418 65.2515L109.268 59.5585C109.658 58.3664 111.323 58.3664 111.693 59.5379Z" fill="#FFF58C" stroke="#181919" stroke-miterlimit="10" stroke-linecap="round" stroke-linejoin="round"/>
<mask id="mask2_625_3530" style="mask-type:luminance" maskUnits="userSpaceOnUse" x="16" y="44" width="187" height="186">
<path d="M109.37 230C160.733 230 202.37 188.362 202.37 137C202.37 85.6375 160.733 44 109.37 44C58.0076 44 16.3701 85.6375 16.3701 137C16.3701 188.362 58.0076 230 109.37 230Z" fill="white"/>
</mask>
<g mask="url(#mask2_625_3530)">
<path d="M156.189 209.077C146.878 202.644 129.08 198.287 108.651 198.287C88.2215 198.287 70.423 202.644 61.1128 209.077H54.1866V219.354C54.1866 230.986 78.5618 240.42 108.651 240.42C138.739 240.42 163.115 230.986 163.115 219.354V209.077H156.189Z" fill="#5A66FF" stroke="black" stroke-miterlimit="10" stroke-linecap="round" stroke-linejoin="round"/>
<path d="M108.651 230.144C138.73 230.144 163.115 220.712 163.115 209.077C163.115 197.443 138.73 188.011 108.651 188.011C78.5709 188.011 54.1865 197.443 54.1865 209.077C54.1865 220.712 78.5709 230.144 108.651 230.144Z" fill="white" stroke="black" stroke-miterlimit="10" stroke-linecap="round" stroke-linejoin="round"/>
<path d="M156.189 198.801C146.878 192.368 129.08 188.011 108.651 188.011C88.2215 188.011 70.423 192.368 61.1128 198.801H54.1866V209.078C54.1866 220.71 78.5618 230.144 108.651 230.144C138.739 230.144 163.115 220.71 163.115 209.078V198.801H156.189Z" fill="#FFF58C" stroke="black" stroke-miterlimit="10" stroke-linecap="round" stroke-linejoin="round"/>
<path d="M108.651 219.868C138.73 219.868 163.115 210.436 163.115 198.801C163.115 187.167 138.73 177.735 108.651 177.735C78.5709 177.735 54.1865 187.167 54.1865 198.801C54.1865 210.436 78.5709 219.868 108.651 219.868Z" fill="white" stroke="black" stroke-miterlimit="10" stroke-linecap="round" stroke-linejoin="round"/>
<path d="M156.189 188.525C146.878 182.092 129.08 177.735 108.651 177.735C88.2215 177.735 70.423 182.092 61.1128 188.525H54.1866V198.801C54.1866 210.434 78.5618 219.868 108.651 219.868C138.739 219.868 163.115 210.434 163.115 198.801V188.525H156.189Z" fill="#FFF58C" stroke="black" stroke-miterlimit="10" stroke-linecap="round" stroke-linejoin="round"/>
<path d="M108.651 209.591C138.73 209.591 163.115 200.16 163.115 188.525C163.115 176.89 138.73 167.459 108.651 167.459C78.5709 167.459 54.1865 176.89 54.1865 188.525C54.1865 200.16 78.5709 209.591 108.651 209.591Z" fill="white" stroke="black" stroke-miterlimit="10" stroke-linecap="round" stroke-linejoin="round"/>
</g>
<path d="M109.37 230C160.733 230 202.37 188.362 202.37 137C202.37 85.6375 160.733 44 109.37 44C58.0076 44 16.3701 85.6375 16.3701 137C16.3701 188.362 58.0076 230 109.37 230Z" stroke="#181919" stroke-miterlimit="10"/>
<path fill-rule="evenodd" clip-rule="evenodd" d="M148.42 149.249C149.016 144.379 149.53 143.783 148.523 139.96C147.577 136.404 145.892 133.136 144.967 129.56C144.063 126.087 142.686 123.086 139.295 121.36C135.903 119.613 133.807 116.55 130.683 114.68C127.847 112.974 125.216 110.816 122.236 109.48C117.92 107.548 113.152 107.261 108.507 106.418C103.389 105.493 99.135 107.014 95.3533 110.385C93.3803 112.152 91.1606 113.714 89.4547 115.708C86.7624 118.832 83.3712 121.524 82.4053 125.984C80.5144 134.698 71.1425 137.658 71.8207 147.749C72.1701 152.846 73.1155 156.936 76.5684 160.553C77.2877 161.314 77.9043 162.403 78.0276 163.41C79.0963 170.912 83.8028 176.461 88.8793 181.209C94.038 186.018 100.738 188.69 107.931 189.471C111.734 189.902 115.598 190.581 119.379 190.334C125.113 189.964 130.601 187.991 134.917 184.209C137.137 182.277 140.014 180.9 141.802 178.516C143.878 175.721 142.994 172.618 144.412 169.658C145.44 167.48 146.94 165.815 147.639 163.41C148.913 159.279 148.564 154.696 148.42 149.249Z" fill="#33B2C1" stroke="black" stroke-miterlimit="10"/>
<path d="M101.005 138.624C101.17 143.721 110.336 143.063 108.712 137.905" stroke="black" stroke-miterlimit="10" stroke-linecap="round" stroke-linejoin="round"/>
<path d="M112.268 137.781C112.453 139.302 113.522 140.7 114.96 141.254C116.399 141.809 118.126 141.481 119.277 140.473C120.427 139.446 120.962 137.781 120.592 136.281" stroke="black" stroke-miterlimit="10" stroke-linecap="round" stroke-linejoin="round"/>
<path d="M95.4976 144.995C96.6897 147.831 99.156 150.01 101.931 151.346C104.705 152.682 107.809 153.216 110.871 153.422C112.68 153.545 114.509 153.545 116.317 153.216C122.668 152.065 127.929 146.413 128.608 140.001" stroke="black" stroke-miterlimit="10" stroke-linecap="round" stroke-linejoin="round"/>
<path d="M148.397 124.815C148.122 123.214 149.13 121.769 149.918 120.37C151.421 117.742 152.224 114.788 153.013 111.868C153.679 109.381 154.327 106.582 152.881 104.267C152.349 103.406 151.591 102.71 151 101.884C150.408 101.058 150.022 100.017 150.401 99.149C150.565 98.7744 150.859 98.4567 151.108 98.1398C154.106 94.4212 153.493 89.0844 152.854 84.2634C152.746 83.4459 152.78 82.4062 153.591 82.1724C153.87 82.0915 154.16 82.1371 154.431 82.1746C156.781 82.5729 159.413 83.4393 161.347 82.2567C161.805 81.9699 162.225 81.5655 162.797 81.5724C163.281 81.5809 163.727 81.8772 164.102 82.1832C167.564 84.8514 171.107 88.2447 175.424 88.2454C176.48 88.4635 177.157 88.1307 177.116 87.5654C177.105 87.3375 176.952 87.1289 176.818 86.9285C176.287 86.1691 175.755 85.4096 175.224 84.6501C174.019 82.9478 172.804 81.2203 171.261 79.7351C169.446 78.0096 167.167 76.588 166.074 74.4275C166.283 71.6192 164.29 68.7817 161.729 66.9933C159.167 65.2048 156.126 64.2611 153.133 63.3587C151.526 62.8799 149.82 62.3775 148.228 62.6756C145.767 63.141 144.205 65.2971 141.929 66.2492C139.523 67.2458 136.466 66.8429 134.339 68.2655C133.216 69.0116 132.506 70.1814 131.695 71.2262C129.981 73.3765 127.668 75.0219 125.388 76.6415C123.945 77.1059 122.086 78.6252 121.022 80.3502C119.958 82.0753 119.456 84.0861 118.374 85.803C117.064 87.8872 115.008 89.4014 112.944 90.8313C111.892 91.5678 110.795 92.305 110.147 93.3807C109.876 93.8501 109.671 94.3689 109.381 94.8302C108.347 96.3857 106.183 96.8797 104.833 98.1958C103.468 99.5459 103.133 101.731 103.111 103.607C98.3034 100.675 92.6443 99.0337 87.078 98.9535C86.4607 98.9473 85.7765 98.9931 85.4121 99.4218C84.9844 99.9446 85.2408 100.726 85.5717 101.337C86.5084 103.044 87.9992 104.445 89.5273 105.762C93.7991 109.413 98.532 112.515 103.421 115.361C121.658 125.966 142.056 132.892 162.815 135.9C163.276 135.959 163.781 136.018 164.124 135.742C164.823 135.155 163.938 134.039 163.131 133.504C158.235 130.168 153.048 127.192 148.397 124.815Z" fill="#A37D65"/>
<path d="M148.397 124.815C148.122 123.214 149.13 121.769 149.918 120.37C151.421 117.742 152.224 114.788 153.013 111.868C153.679 109.381 154.327 106.582 152.881 104.267C152.349 103.406 151.591 102.71 151 101.884C150.408 101.058 150.022 100.017 150.401 99.149C150.565 98.7744 150.859 98.4567 151.108 98.1398C154.106 94.4212 153.493 89.0844 152.854 84.2634C152.746 83.4459 152.78 82.4062 153.591 82.1724C153.87 82.0915 154.16 82.1371 154.431 82.1746C156.781 82.5729 159.413 83.4393 161.347 82.2567C161.805 81.9699 162.225 81.5655 162.797 81.5724C163.281 81.5809 163.727 81.8772 164.102 82.1832C167.564 84.8514 171.107 88.2447 175.424 88.2454C176.48 88.4635 177.157 88.1307 177.116 87.5654C177.105 87.3375 176.952 87.1289 176.818 86.9285C176.287 86.1691 175.755 85.4096 175.224 84.6501C174.019 82.9478 172.804 81.2203 171.261 79.7351C169.446 78.0096 167.167 76.588 166.074 74.4275C166.283 71.6192 164.29 68.7817 161.729 66.9933C159.167 65.2048 156.126 64.2611 153.133 63.3587C151.526 62.8799 149.82 62.3775 148.228 62.6756C145.767 63.141 144.205 65.2971 141.929 66.2492C139.523 67.2458 136.466 66.8429 134.339 68.2655C133.216 69.0116 132.506 70.1814 131.695 71.2262C129.981 73.3765 127.668 75.0219 125.388 76.6415C123.945 77.1059 122.086 78.6252 121.022 80.3502C119.958 82.0753 119.456 84.0861 118.374 85.803C117.064 87.8872 115.008 89.4014 112.944 90.8313C111.892 91.5678 110.795 92.305 110.147 93.3807C109.876 93.8501 109.671 94.3689 109.381 94.8302C108.347 96.3857 106.183 96.8797 104.833 98.1958C103.468 99.5459 103.133 101.731 103.111 103.607C98.3034 100.675 92.6443 99.0337 87.078 98.9535C86.4607 98.9473 85.7765 98.9931 85.4121 99.4218C84.9844 99.9446 85.2408 100.726 85.5717 101.337C86.5084 103.044 87.9992 104.445 89.5273 105.762C93.7991 109.413 98.532 112.515 103.421 115.361C121.658 125.966 142.056 132.892 162.815 135.9C163.276 135.959 163.781 136.018 164.124 135.742C164.823 135.155 163.938 134.039 163.131 133.504C158.235 130.168 153.048 127.192 148.397 124.815Z" fill="#A37D65" stroke="#120000" stroke-miterlimit="10" stroke-linecap="round" stroke-linejoin="round"/>
<path d="M153.468 82.0986C151.553 79.64 149.572 77.1318 146.832 75.8533C146.43 75.6576 145.988 75.5048 145.515 75.5215C145.062 75.5463 144.549 75.8087 144.303 76.2691C144.058 76.7296 144.117 77.303 144.359 77.7127C144.6 78.1225 144.998 78.3774 145.433 78.5472" fill="#A37D65"/>
<path d="M153.468 82.0986C151.553 79.64 149.572 77.1318 146.832 75.8533C146.43 75.6576 145.988 75.5048 145.515 75.5215C145.062 75.5463 144.549 75.8087 144.303 76.2691C144.058 76.7296 144.117 77.303 144.359 77.7127C144.6 78.1225 144.998 78.3774 145.433 78.5472" stroke="#120000" stroke-miterlimit="10" stroke-linecap="round" stroke-linejoin="round"/>
<path d="M124.186 82.1788C126.826 85.2584 129.439 88.347 132.079 91.4266C133.194 92.7249 134.387 94.098 136.019 94.6693C137.072 95.048 138.224 95.0447 139.306 94.9498C142.854 94.6345 146.227 93.2493 148.804 91.0501C149.321 90.6271 149.823 90.1369 150.473 89.9143C151.124 89.6917 151.994 89.8286 152.411 90.3958C152.425 90.6659 152.429 90.9108 152.444 91.1809" fill="#A37D65"/>
<path d="M124.186 82.1788C126.826 85.2584 129.439 88.347 132.079 91.4266C133.194 92.7249 134.387 94.098 136.019 94.6693C137.072 95.048 138.224 95.0447 139.306 94.9498C142.854 94.6345 146.227 93.2493 148.804 91.0501C149.321 90.6271 149.823 90.1369 150.473 89.9143C151.124 89.6917 151.994 89.8286 152.411 90.3958C152.425 90.6659 152.429 90.9108 152.444 91.1809" stroke="#120000" stroke-miterlimit="10" stroke-linecap="round" stroke-linejoin="round"/>
<path d="M126.83 80.2319C129.812 83.9475 132.804 87.6883 135.786 91.404C136.087 91.7789 136.407 92.1619 136.864 92.382C137.236 92.5445 137.649 92.5626 138.05 92.5556C141.222 92.5425 144.312 91.5001 146.688 89.6593C148.22 88.4836 149.559 86.9397 151.526 86.5421" fill="#A37D65"/>
<path d="M126.83 80.2319C129.812 83.9475 132.804 87.6883 135.786 91.404C136.087 91.7789 136.407 92.1619 136.864 92.382C137.236 92.5445 137.649 92.5626 138.05 92.5556C141.222 92.5425 144.312 91.5001 146.688 89.6593C148.22 88.4836 149.559 86.9397 151.526 86.5421" stroke="#120000" stroke-miterlimit="10" stroke-linecap="round" stroke-linejoin="round"/>
<path d="M147.312 93.1963C148.275 93.1711 149.272 93.2213 150.239 93.3396C151.358 95.0856 151.353 97.375 150.227 98.9913C149.066 100.634 146.913 101.558 146.128 103.405" fill="#A37D65"/>
<path d="M147.312 93.1963C148.275 93.1711 149.272 93.2213 150.239 93.3396C151.358 95.0856 151.353 97.375 150.227 98.9913C149.066 100.634 146.913 101.558 146.128 103.405" stroke="#120000" stroke-miterlimit="10" stroke-linecap="round" stroke-linejoin="round"/>
<path d="M125.877 84.54C125.126 84.2321 124.305 83.9339 123.565 84.158C123.234 84.2567 122.955 84.439 122.694 84.6294C121.508 85.4695 120.433 86.4598 119.522 87.5823" fill="#A37D65"/>
<path d="M125.877 84.54C125.126 84.2321 124.305 83.9339 123.565 84.158C123.234 84.2567 122.955 84.439 122.694 84.6294C121.508 85.4695 120.433 86.4598 119.522 87.5823" stroke="#120000" stroke-miterlimit="10" stroke-linecap="round" stroke-linejoin="round"/>
<path d="M112.464 94.6158C118.405 95.0021 124.366 95.3964 130.308 95.7827C131.62 95.8696 132.951 95.9646 134.152 96.5097C136.573 97.6079 137.774 100.18 139.35 102.248C142.067 105.808 146.455 108.232 150.961 108.66" fill="#A37D65"/>
<path d="M112.464 94.6158C118.405 95.0021 124.366 95.3964 130.308 95.7827C131.62 95.8696 132.951 95.9646 134.152 96.5097C136.573 97.6079 137.774 100.18 139.35 102.248C142.067 105.808 146.455 108.232 150.961 108.66" stroke="#120000" stroke-miterlimit="10" stroke-linecap="round" stroke-linejoin="round"/>
<path d="M113.185 93.0657C117.882 92.9077 122.6 93.0028 127.304 93.3346C130.873 93.5764 134.755 94.1169 137.439 96.4861C139.562 98.3667 140.592 101.128 142.748 102.983C144.748 104.688 147.626 105.398 150.11 104.78" fill="#A37D65"/>
<path d="M113.185 93.0657C117.882 92.9077 122.6 93.0028 127.304 93.3346C130.873 93.5764 134.755 94.1169 137.439 96.4861C139.562 98.3667 140.592 101.128 142.748 102.983C144.748 104.688 147.626 105.398 150.11 104.78" stroke="#120000" stroke-miterlimit="10" stroke-linecap="round" stroke-linejoin="round"/>
<path d="M150.521 116.558C149.435 116.813 148.323 116.976 147.193 117.03C146.669 117.064 146.122 117.048 145.624 116.871C144.59 116.501 143.981 115.464 143.114 114.761C141.702 113.637 139.779 113.527 137.983 113.33C131.908 112.642 125.97 110.169 121.189 106.316C119.486 104.943 117.854 103.358 115.794 102.6C113.106 101.608 110.179 102.174 107.342 102.029C107.357 101.488 107.38 100.93 107.402 100.575C109.031 99.6852 111.094 99.9786 112.965 100.309C114.761 100.607 116.549 100.922 118.271 101.492C123.093 103.072 127.064 106.551 131.67 108.726C136.686 111.08 142.516 111.924 150.521 116.558Z" fill="#A37D65" stroke="#120000" stroke-miterlimit="10" stroke-linecap="round" stroke-linejoin="round"/>
<path d="M107.182 104.474C108.61 104.145 110.083 103.815 111.566 104.017C113.013 104.203 114.384 104.863 115.544 105.756C116.712 106.631 117.701 107.712 118.612 108.819" fill="#A37D65"/>
<path d="M107.182 104.474C108.61 104.145 110.083 103.815 111.566 104.017C113.013 104.203 114.384 104.863 115.544 105.756C116.712 106.631 117.701 107.712 118.612 108.819" stroke="#120000" stroke-miterlimit="10" stroke-linecap="round" stroke-linejoin="round"/>
<path d="M132.833 117.771C136.852 117.743 140.894 118.17 144.858 119.031L132.833 117.771Z" fill="#A37D65"/>
<path d="M132.833 117.771C136.852 117.743 140.894 118.17 144.858 119.031" stroke="#120000" stroke-miterlimit="10" stroke-linecap="round" stroke-linejoin="round"/>
<path d="M63.5325 26.3719C63.5399 26.7351 63.4476 27.0492 63.3146 27.0492C57.9859 27.059 52.6535 27.0492 47.3248 27.0492C38.8942 27.0492 30.4635 27.0492 22.0292 27.0492C19.5419 27.0492 8.84882 27.0492 3.76877 27.0492C2.23176 27.0492 1.01358 25.8922 1.00451 24.3552C0.964533 17.5737 1.20708 1 1.06883 1C5.5999 1 39.4518 1 42.5242 1C48.6744 1 54.8245 1 60.9747 1C62.49 1 63.6612 2.12944 63.6593 3.64474C63.652 9.53732 63.4823 23.3315 63.5325 26.3719Z" fill="white" stroke="black" stroke-miterlimit="10" stroke-linecap="round" stroke-linejoin="round"/>
<path d="M29.3611 16.6003H30.8171V8.31233H20.4011V9.61433H29.3611V16.6003ZM19.6731 19.2743H31.6151V17.9723H19.6731V19.2743ZM43.0099 7.89233V10.1323H40.9379V11.3923H43.0099V14.8923H44.3959V7.89233H43.0099ZM33.6299 10.7623V14.4723H37.7599C39.4539 14.4723 40.8819 14.2623 41.6099 13.9403V12.8063C40.8399 13.1423 39.4679 13.3383 37.8439 13.3383H35.0019V11.8683H40.1539V8.18633H33.6019V9.32033H38.7819V10.7623H33.6299ZM34.2179 19.6943H44.3539V15.5503H34.2179V19.6943ZM35.5899 16.6843H42.9819V18.5603H35.5899V16.6843Z" fill="black"/>
<path d="M211.606 57.605C211.628 58.0411 211.352 58.4182 210.956 58.4182C195.058 58.43 179.15 58.4182 163.253 58.4182C138.101 58.4182 112.95 58.4182 87.7873 58.4182C79.2046 58.4182 37.87 58.4182 27.5792 58.4182C26.2107 58.4182 25.1191 57.4818 25.0826 56.1138C24.8839 48.6875 25.6848 27.1416 25.2556 27.1416C38.7733 27.1416 139.765 27.1416 148.931 27.1416C169.178 27.1416 189.425 27.1416 209.672 27.1416C210.991 27.1416 211.977 28.0332 211.983 29.3524C212.013 35.7464 211.448 53.7765 211.606 57.605Z" fill="white" stroke="black" stroke-miterlimit="10" stroke-linecap="round" stroke-linejoin="round"/>
<path d="M49.3695 36.8242V48.7802H50.7555V36.8242H49.3695ZM44.7075 38.5322H47.7735V37.2582H40.1435V38.5322H43.3075C43.2515 42.9702 41.9915 46.3022 39.8635 46.6942V48.0662C41.6695 47.8562 43.0975 46.3722 43.9235 43.8662L47.1435 47.9682L48.2355 47.1422L44.3295 42.3122C44.5535 41.1922 44.6935 39.9182 44.7075 38.5322ZM62.7243 40.9822H64.1243V36.9642H53.8623V38.1402H62.7243V40.9822ZM53.0643 42.8582H65.0063V41.6962H53.0643V42.8582ZM53.8903 48.6402H64.1663V44.0762H53.8903V48.6402ZM55.2763 47.5062V45.2102H62.7943V47.5062H55.2763ZM77.6331 37.0342H76.2611V38.7142H68.7291V37.0342H67.3571V43.1662H77.6331V37.0342ZM68.7291 41.9342V39.9462H76.2611V41.9342H68.7291ZM78.4731 44.4402H66.5311V45.7282H71.7811V49.0602H73.2091V45.7282H78.4731V44.4402ZM89.8539 36.8242V41.6962H87.6419V42.9982H89.8539V48.7802H91.2539V36.8242H89.8539ZM82.0139 46.7922V43.2082H86.7879V41.9342H82.0139V38.5322H87.4599V37.2582H80.6279V48.0662H85.2059C86.3539 48.0662 87.5719 47.8562 88.2999 47.4922V46.2182C87.5719 46.5682 86.3399 46.7922 85.2059 46.7922H82.0139ZM108.547 36.8242H107.161V42.6762H108.547V36.8242ZM101.602 40.4922L105.354 42.4102L105.971 41.4022L102.176 39.5122C102.331 39.1202 102.429 38.7142 102.47 38.2802H105.579V37.1322H97.8365V38.2802H101.099C100.903 39.9462 99.6425 41.1502 97.6825 41.4022V42.5502C99.3905 42.3682 100.762 41.5982 101.602 40.4922ZM99.7965 47.5342V46.4982H108.547V43.3342H98.3965V44.4262H107.174V45.4622H98.4245V48.6262H108.841V47.5342H99.7965ZM121.929 36.9642H111.709V41.7522H121.929V36.9642ZM120.543 40.6042H113.095V38.1122H120.543V40.6042ZM110.855 42.9562V44.1322H116.119V46.1902H117.519V44.1322H122.797V42.9562H110.855ZM113.095 45.1542H111.695V48.6402H122.195V47.4502H113.095V45.1542ZM130.286 41.1362C133.17 41.1362 135.536 40.5482 135.536 38.9522C135.536 37.3702 133.17 36.7822 130.286 36.7822C127.402 36.7822 125.036 37.3702 125.036 38.9522C125.036 40.5482 127.402 41.1362 130.286 41.1362ZM130.286 40.0722C128.2 40.0722 126.464 39.7502 126.464 38.9522C126.464 38.1682 128.2 37.8322 130.286 37.8322C132.372 37.8322 134.108 38.1682 134.108 38.9522C134.108 39.7502 132.372 40.0722 130.286 40.0722ZM124.322 42.9562H136.264V41.8782H124.322V42.9562ZM125.148 48.6402H135.648V47.6042H126.506V46.7642H135.438V43.9082H125.12V44.9442H134.08V45.7842H125.148V48.6402ZM151.485 36.8242V48.7802H152.871V36.8242H151.485ZM147.061 37.1742L145.647 37.1182C145.633 42.1442 144.317 46.2882 141.923 46.6662V48.0662C143.813 47.9262 145.269 46.3302 146.151 43.6982L149.329 48.0382L150.449 47.2402L146.585 42.0882C146.893 40.6602 147.047 39.0082 147.061 37.1742ZM167.682 39.3582H166.002V36.8242H164.616V43.9642H166.002V40.6742H167.682V39.3582ZM159.296 41.1642L162.74 43.5162L163.482 42.4802L159.814 40.0162C159.982 39.4842 160.094 38.9242 160.108 38.3222H163.132V37.1322H155.502V38.3222H158.722C158.582 40.5062 157.35 42.0602 155.348 42.3542V43.6142C157.084 43.4322 158.47 42.5222 159.296 41.1642ZM155.894 45.8262H164.602V48.7802H166.002V44.6222H155.894V45.8262ZM176.724 37.6922H173.364V36.6142H171.964V37.6922H168.604V38.7282H176.724V37.6922ZM179.468 39.3162V36.8242H178.082V43.0682H179.468V40.5062H181.148V39.3162H179.468ZM172.664 43.0262C174.624 43.0262 176.164 42.3822 176.164 41.1782C176.164 39.9742 174.624 39.3302 172.664 39.3302C170.69 39.3302 169.15 39.9742 169.15 41.1782C169.15 42.3822 170.69 43.0262 172.664 43.0262ZM172.664 40.3102C173.994 40.3102 174.848 40.6602 174.848 41.1782C174.848 41.6962 173.994 42.0462 172.664 42.0462C171.32 42.0462 170.48 41.6962 170.48 41.1782C170.48 40.6602 171.32 40.3102 172.664 40.3102ZM170.844 46.6522H179.468V43.7122H169.458V44.7342H178.11V45.6722H169.486V48.6262H179.762V47.6042H170.844V46.6522ZM192.277 36.8242V48.7802H193.607V36.8242H192.277ZM189.295 41.6402H187.335C187.363 41.2622 187.377 40.8842 187.377 40.4782V37.2582H182.379V38.5182H186.033V40.5482C186.033 44.2442 184.605 46.6662 182.379 46.7362V48.0382C184.745 48.0102 186.551 46.1202 187.153 42.9562H189.295V48.5702H190.611V36.8942H189.295V41.6402ZM196.098 45.3782H197.162L197.526 37.2722H195.748L196.098 45.3782ZM196.63 48.7102C197.218 48.7102 197.666 48.2622 197.666 47.6742C197.666 47.1002 197.218 46.6522 196.63 46.6522C196.042 46.6522 195.594 47.1002 195.594 47.6742C195.594 48.2622 196.042 48.7102 196.63 48.7102Z" fill="black"/>
</svg>
