<svg width="213" height="231" viewBox="0 0 213 231" fill="none" xmlns="http://www.w3.org/2000/svg">
<path d="M108.313 230C159.296 230 200.626 188.362 200.626 137C200.626 85.6375 159.296 44 108.313 44C57.3299 44 16 85.6375 16 137C16 188.362 57.3299 230 108.313 230Z" fill="#EBEBEB"/>
<path d="M133.038 76.9048C134.661 76.9048 135.976 75.5798 135.976 73.9453C135.976 72.3108 134.661 70.9857 133.038 70.9857C131.416 70.9857 130.101 72.3108 130.101 73.9453C130.101 75.5798 131.416 76.9048 133.038 76.9048Z" fill="#FFF58C" stroke="#181919" stroke-miterlimit="10" stroke-linecap="round" stroke-linejoin="round"/>
<path d="M93.2165 76.9048C94.8389 76.9048 96.1542 75.5798 96.1542 73.9453C96.1542 72.3108 94.8389 70.9857 93.2165 70.9857C91.5941 70.9857 90.2788 72.3108 90.2788 73.9453C90.2788 75.5798 91.5941 76.9048 93.2165 76.9048Z" fill="#FFF58C" stroke="#181919" stroke-miterlimit="10" stroke-linecap="round" stroke-linejoin="round"/>
<path d="M114.331 59.1678L116.167 64.8609C116.331 65.3952 116.82 65.7446 117.371 65.7446H123.308C124.532 65.7446 125.042 67.3272 124.062 68.0465L119.248 71.561C118.799 71.8898 118.615 72.4653 118.779 72.9791L120.615 78.6721C121.002 79.8436 119.656 80.8302 118.656 80.0903L113.842 76.5758C113.393 76.247 112.801 76.247 112.352 76.5758L107.538 80.0903C106.538 80.8096 105.212 79.8436 105.579 78.6721L107.416 72.9791C107.579 72.4447 107.395 71.8693 106.946 71.561L102.132 68.0465C101.132 67.3272 101.642 65.7446 102.887 65.7446H108.823C109.374 65.7446 109.864 65.3952 110.027 64.8609L111.863 59.1678C112.291 57.9758 113.944 57.9758 114.331 59.1678Z" fill="#FFF58C" stroke="#181919" stroke-miterlimit="10" stroke-linecap="round" stroke-linejoin="round"/>
<path d="M133.038 76.9048C134.661 76.9048 135.976 75.5798 135.976 73.9453C135.976 72.3108 134.661 70.9857 133.038 70.9857C131.416 70.9857 130.101 72.3108 130.101 73.9453C130.101 75.5798 131.416 76.9048 133.038 76.9048Z" fill="#FFF58C" stroke="#181919" stroke-miterlimit="10" stroke-linecap="round" stroke-linejoin="round"/>
<path d="M93.2165 76.9048C94.8389 76.9048 96.1542 75.5798 96.1542 73.9453C96.1542 72.3108 94.8389 70.9857 93.2165 70.9857C91.5941 70.9857 90.2788 72.3108 90.2788 73.9453C90.2788 75.5798 91.5941 76.9048 93.2165 76.9048Z" fill="#FFF58C" stroke="#181919" stroke-miterlimit="10" stroke-linecap="round" stroke-linejoin="round"/>
<path d="M114.331 59.1678L116.167 64.8609C116.331 65.3952 116.82 65.7446 117.371 65.7446H123.308C124.532 65.7446 125.042 67.3272 124.062 68.0465L119.248 71.561C118.799 71.8898 118.615 72.4653 118.779 72.9791L120.615 78.6721C121.002 79.8436 119.656 80.8302 118.656 80.0903L113.842 76.5758C113.393 76.247 112.801 76.247 112.352 76.5758L107.538 80.0903C106.538 80.8096 105.212 79.8436 105.579 78.6721L107.416 72.9791C107.579 72.4447 107.395 71.8693 106.946 71.561L102.132 68.0465C101.132 67.3272 101.642 65.7446 102.887 65.7446H108.823C109.374 65.7446 109.864 65.3952 110.027 64.8609L111.863 59.1678C112.291 57.9758 113.944 57.9758 114.331 59.1678Z" fill="#FFF58C" stroke="#181919" stroke-miterlimit="10" stroke-linecap="round" stroke-linejoin="round"/>
<mask id="mask0_639_2381" style="mask-type:luminance" maskUnits="userSpaceOnUse" x="20" y="86" width="73" height="73">
<path d="M89.952 158.333C89.6868 157.45 88.932 156.833 88.218 156.258C87.1571 155.394 86.0962 154.552 85.0354 153.689C83.7909 152.682 82.5466 151.674 81.1593 150.873C76.406 148.078 70.6529 147.811 65.4304 146.064C63.7371 145.488 62.0847 144.769 60.6974 143.638C57.9025 141.398 56.4338 137.884 55.2913 134.472C54.1489 131.06 53.1697 127.484 50.9868 124.627C48.9468 123.189 46.9678 121.709 44.6421 121.133C40.7252 120.167 36.5636 121.956 32.6263 121.072C31.5246 120.825 30.4841 120.373 29.5049 119.818C24.976 117.331 21.4466 112.707 20.957 107.528C22.8135 99.615 26.4856 92.2572 31.5858 86.6875C31.137 91.394 30.6678 96.1622 31.5858 100.807C32.5038 105.452 34.9723 109.994 39.0932 112.234C43.4182 114.598 49.1507 114.331 52.5372 117.907C53.3532 118.77 53.9449 119.777 54.5569 120.805C56.393 123.908 58.2494 127.032 59.5143 130.403C60.2895 132.478 60.8607 134.678 62.0031 136.568C63.4311 138.952 65.7568 140.802 68.5109 141.624C69.6737 143.31 71.9586 143.68 73.9783 143.926C77.0587 144.296 80.2005 144.748 82.975 146.187C85.0763 147.276 86.851 148.9 88.5035 150.585C89.6663 151.757 92.196 154.244 92.3388 155.949C92.4612 156.956 90.8088 156.956 89.952 158.333Z" fill="white"/>
</mask>
<g mask="url(#mask0_639_2381)">
<path d="M21.1411 44.5756L-5.48181 96.2856" stroke="black" stroke-miterlimit="10"/>
<path d="M25.547 50.7001L-1.07581 102.41" stroke="black" stroke-miterlimit="10"/>
<path d="M29.954 56.8453L3.33118 108.535" stroke="black" stroke-miterlimit="10"/>
<path d="M34.3606 62.9698L7.73779 114.68" stroke="black" stroke-miterlimit="10"/>
<path d="M38.7666 69.0947L12.1438 120.805" stroke="black" stroke-miterlimit="10"/>
<path d="M43.1736 75.2194L16.5508 126.929" stroke="black" stroke-miterlimit="10"/>
<path d="M47.5797 81.3645L20.9569 133.054" stroke="black" stroke-miterlimit="10"/>
<path d="M51.9863 87.4891L25.3634 139.199" stroke="black" stroke-miterlimit="10"/>
<path d="M56.3729 93.6138L29.7705 145.324" stroke="black" stroke-miterlimit="10"/>
<path d="M60.779 99.7383L34.1765 151.448" stroke="black" stroke-miterlimit="10"/>
<path d="M65.1859 105.884L38.5835 157.573" stroke="black" stroke-miterlimit="10"/>
<path d="M69.5926 112.008L42.9901 163.718" stroke="black" stroke-miterlimit="10"/>
<path d="M73.999 118.133L47.3966 169.843" stroke="black" stroke-miterlimit="10"/>
<path d="M78.4055 124.278L51.8031 175.968" stroke="black" stroke-miterlimit="10"/>
<path d="M82.8121 130.403L56.2097 182.113" stroke="black" stroke-miterlimit="10"/>
<path d="M87.2186 136.527L60.6162 188.237" stroke="black" stroke-miterlimit="10"/>
<path d="M91.6253 142.652L65.0228 194.362" stroke="black" stroke-miterlimit="10"/>
<path d="M96.0312 148.797L69.4288 200.487" stroke="black" stroke-miterlimit="10"/>
<path d="M100.438 154.922L73.8148 206.632" stroke="black" stroke-miterlimit="10"/>
</g>
<path d="M154.153 137.206C156.642 135.541 158.09 132.684 158.968 129.827C159.865 126.95 160.294 123.949 161.334 121.134C163.741 114.639 169.086 109.727 174.594 105.555C178.96 102.246 183.775 98.9369 185.774 93.8194C186.427 92.1341 186.733 90.3254 187.569 88.7429C183.917 80.8096 178.063 74.7672 172.33 68.9098C171.228 67.7794 170.106 66.649 168.821 65.7241C164.027 67.5944 160.13 71.2938 157.376 75.5688C154.622 79.8437 152.888 84.6941 151.236 89.5239C150.787 90.8598 150.318 92.2368 150.358 93.6549C150.399 95.1758 150.991 96.7173 150.563 98.1765C149.563 103.643 149.951 109.357 152.337 114.228C152.949 115.461 153.684 116.674 153.949 118.01C154.153 119.017 154.112 120.065 154.275 121.093C154.459 122.182 154.887 123.23 155.051 124.34C155.499 127.464 153.684 130.485 151.542 132.807C150.848 133.547 150.114 134.267 149.175 134.678C146.85 135.705 144.218 134.472 141.872 133.465C137.771 131.718 133.324 130.588 128.856 130.773C124.388 130.958 119.921 132.54 116.657 135.603C114.739 137.411 113.311 139.672 112.066 142.015C110.638 144.707 109.435 147.544 108.578 150.894C109.394 150.955 110.251 150.462 111.026 150.75C111.251 150.832 111.434 150.976 111.659 151.037C111.944 151.14 112.25 151.099 112.556 151.099C113.923 151.058 115.31 151.407 116.677 152.641C117.86 149.352 119.982 146.434 122.736 144.317C123.613 143.639 124.572 143.043 125.612 142.632C127.122 142.056 128.775 141.912 130.386 141.789C135.16 141.419 139.934 141.152 144.728 140.967C146.462 140.905 148.237 140.843 149.889 140.268C151.562 139.734 152.664 138.192 154.153 137.206Z" fill="white"/>
<mask id="mask1_639_2381" style="mask-type:luminance" maskUnits="userSpaceOnUse" x="108" y="66" width="80" height="87">
<path d="M154.153 137.493C156.642 135.828 158.09 132.972 158.968 130.115C159.865 127.237 160.294 124.237 161.334 121.421C163.741 114.927 169.086 110.014 174.594 105.842C178.96 102.533 183.775 99.2244 185.774 94.1068C186.427 92.4215 186.733 90.6129 187.569 89.0304C183.917 81.0971 178.063 75.0547 172.33 69.1972C171.228 68.0668 170.106 66.9365 168.821 66.0116C164.027 67.8819 160.13 71.5813 157.376 75.8562C154.622 80.1312 152.888 84.9815 151.236 89.8114C150.787 91.1473 150.318 92.5243 150.358 93.9424C150.399 95.4633 150.991 97.0047 150.563 98.464C149.563 103.931 149.951 109.645 152.337 114.515C152.949 115.749 153.684 116.961 153.949 118.297C154.153 119.304 154.112 120.352 154.275 121.38C154.459 122.469 154.887 123.517 155.051 124.627C155.499 127.751 153.684 130.772 151.542 133.095C150.848 133.835 150.114 134.554 149.175 134.965C146.85 135.993 144.218 134.76 141.872 133.753C137.771 132.006 133.324 130.875 128.856 131.06C124.388 131.245 119.921 132.828 116.657 135.89C114.739 137.699 113.311 139.959 112.066 142.302C110.638 144.995 109.435 147.831 108.578 151.181C109.394 151.243 110.251 150.749 111.026 151.037C111.251 151.119 111.434 151.263 111.659 151.325C111.944 151.428 112.25 151.387 112.556 151.387C113.923 151.346 115.31 151.695 116.677 152.928C117.86 149.64 119.982 146.721 122.736 144.604C123.613 143.926 124.572 143.33 125.612 142.919C127.122 142.344 128.775 142.2 130.386 142.076C135.16 141.706 139.934 141.439 144.728 141.254C146.462 141.193 148.237 141.131 149.889 140.555C151.562 140.021 152.664 138.48 154.153 137.493Z" fill="white"/>
</mask>
<g mask="url(#mask1_639_2381)">
<path d="M186.427 43.3422L213.05 95.0522" stroke="black" stroke-miterlimit="10"/>
<path d="M182 48.4186L208.602 100.129" stroke="black" stroke-miterlimit="10"/>
<path d="M177.552 53.4952L204.154 105.185" stroke="black" stroke-miterlimit="10"/>
<path d="M173.105 58.5717L199.728 110.261" stroke="black" stroke-miterlimit="10"/>
<path d="M168.678 63.6274L195.28 115.337" stroke="black" stroke-miterlimit="10"/>
<path d="M164.231 68.7041L190.854 120.414" stroke="black" stroke-miterlimit="10"/>
<path d="M159.783 73.7805L186.406 125.491" stroke="black" stroke-miterlimit="10"/>
<path d="M155.357 78.8569L181.959 130.567" stroke="black" stroke-miterlimit="10"/>
<path d="M150.909 83.9333L177.532 135.643" stroke="black" stroke-miterlimit="10"/>
<path d="M146.482 89.0098L173.084 140.699" stroke="black" stroke-miterlimit="10"/>
<path d="M142.035 94.0864L168.637 145.776" stroke="black" stroke-miterlimit="10"/>
<path d="M137.588 99.1422L164.21 150.852" stroke="black" stroke-miterlimit="10"/>
<path d="M133.161 104.219L159.763 155.929" stroke="black" stroke-miterlimit="10"/>
<path d="M128.713 109.295L155.316 161.005" stroke="black" stroke-miterlimit="10"/>
<path d="M124.266 114.372L150.889 166.082" stroke="black" stroke-miterlimit="10"/>
<path d="M119.839 119.448L146.441 171.158" stroke="black" stroke-miterlimit="10"/>
<path d="M115.392 124.525L142.015 176.214" stroke="black" stroke-miterlimit="10"/>
<path d="M110.945 129.581L137.567 181.291" stroke="black" stroke-miterlimit="10"/>
<path d="M106.517 134.657L133.12 186.367" stroke="black" stroke-miterlimit="10"/>
<path d="M102.07 139.733L128.693 191.443" stroke="black" stroke-miterlimit="10"/>
<path d="M97.6432 144.81L124.246 196.52" stroke="black" stroke-miterlimit="10"/>
</g>
<path d="M99.1529 152.702C100.601 152.353 102.05 151.983 103.355 151.613C102.233 148.345 101.152 145.016 100.907 141.583C100.663 138.13 101.377 134.513 103.498 131.8C106.558 127.916 111.761 126.683 116.126 124.381C119.982 122.346 123.328 119.325 125.735 115.687C127.408 113.159 128.693 110.138 128.203 107.137C127.918 105.39 127.061 103.787 126.184 102.246C123.96 98.2997 121.267 94.1276 116.881 92.9561C109.802 89.2772 101.377 89.6882 93.4611 90.6131C90.0134 91.0241 86.5861 91.4968 83.2608 92.4628C74.7333 94.9496 67.4095 100.417 60.3101 105.76C59.8 106.151 59.2697 106.562 59.0045 107.158C58.7801 107.672 58.8005 108.268 58.8413 108.843C59.2493 113.509 61.4117 117.783 63.5538 121.956C64.7575 124.299 65.9814 126.662 67.8379 128.512C69.878 130.547 72.5505 131.821 75.2433 132.828C78.283 133.938 81.4248 134.739 84.6073 135.233C86.3005 135.479 88.0549 135.664 89.5238 136.548C90.8294 137.349 91.7679 138.624 92.6451 139.877C95.1544 143.454 98.3981 153.052 98.3981 153.052L99.1529 152.702Z" fill="#5A66FF"/>
<path d="M154.296 119.078C153.541 119.181 152.766 119.243 151.97 119.243C142.443 119.243 134.732 111.474 134.732 101.876C134.732 92.2778 142.443 84.5089 151.97 84.5089C152.317 84.5089 152.358 84.5911 152.725 84.6117" stroke="black" stroke-miterlimit="10" stroke-linecap="round" stroke-linejoin="round"/>
<path d="M169.066 66.8544C160.131 70.5744 153.174 78.8365 151.012 88.3318C148.298 100.273 152.807 112.481 155.785 124.36C155.724 127.505 154.684 130.608 152.623 132.725C150.542 134.842 147.482 135.911 144.545 135.582C140.771 135.13 137.588 132.561 133.895 131.677C130.897 130.958 127.734 131.43 124.715 132.109C122.328 132.663 119.941 133.362 117.861 134.678C112.414 138.11 110.169 145.077 110.047 151.551C107.864 150.996 106.049 151.243 104.437 151.962C102.03 150.38 101.52 147.626 101.193 145.139C100.642 141.028 100.194 136.507 102.417 133.033C104.131 130.362 107.089 128.82 109.904 127.402C113.25 125.717 116.596 124.031 119.941 122.367C122.206 121.236 124.532 120.024 126.082 118.01C127.755 115.81 128.245 112.933 128.245 110.159C128.245 106.582 127.469 102.945 125.613 99.9028C123.369 96.2239 119.676 93.5726 115.657 92.0723C111.638 90.572 107.293 90.1404 103.009 90.1404C86.4845 90.1815 70.0619 96.9844 58.2907 108.658C56.169 98.012 56.4342 88.5373 56.7402 79.2887C56.9646 71.9925 57.2503 64.5114 59.4944 57.8935C83.6079 42.7052 114.964 39.8279 141.648 50.0425C151.664 54.4407 161.13 60.1749 169.066 66.8544Z" fill="#B180E0"/>
<path d="M195.893 109.254C195.934 104.383 192.486 100.273 190.67 95.7513C189.691 93.3056 189.161 90.6132 187.508 88.5785C186.672 93.2645 184.53 98.4026 181.082 101.506C177.634 104.609 173.615 106.994 169.964 109.85C166.312 112.707 162.905 116.16 161.334 120.538C159.927 124.484 160.069 128.944 158.193 132.684C156.438 136.178 153.052 138.624 149.42 139.96C145.769 141.296 141.852 141.666 137.975 141.83C133.855 142.015 129.652 142.036 125.796 143.454C121.92 144.872 118.391 148.037 117.35 152.127C120.757 153.874 123.96 156.032 126.878 158.498C129.856 155.23 133.773 151.037 137.894 149.455C140.118 148.592 144.075 147.708 144.075 147.708C144.075 147.708 149.175 147.03 151.746 146.249C153.868 145.591 155.602 144.605 157.234 143.063C161.599 138.994 161.171 132.417 164.456 127.423C166.128 124.854 168.842 123.107 171.738 122.12C174.635 121.134 177.696 120.846 180.735 120.681C182.224 120.599 183.714 120.558 185.142 120.188C190.344 118.935 195.852 114.475 195.893 109.254Z" fill="#FF88B6"/>
<path d="M57.3518 60.5243C47.8451 65.1897 40.4601 73.349 34.2787 82.0016C33.2179 83.4814 32.1774 85.0228 31.6878 86.7904C31.2186 88.4757 31.3001 90.2637 31.4021 92.0312C31.5653 94.9497 31.749 97.8476 31.9734 100.766C32.0754 102.205 32.2182 103.705 32.8302 105C33.4422 106.295 34.4827 107.322 35.5231 108.288C37.6244 110.241 39.8685 112.111 42.4185 113.426C44.887 114.701 47.5799 115.441 50.0484 116.694C52.5168 117.948 54.8629 119.859 55.2709 122.511C59.5346 126.785 58.8818 134.267 62.8803 138.788C65.2264 141.46 68.8373 142.631 72.3054 143.31C75.7939 143.988 79.3844 144.296 82.6485 145.694C87.3815 147.749 91.0331 152.188 92.1756 157.553C92.7264 156.237 93.8689 155.271 95.093 154.572C96.317 153.874 97.6635 153.422 98.9079 152.517C95.8274 147.502 95.0113 140.823 90.3192 137.308C86.4023 134.349 81.0369 134.595 76.304 133.321C70.6734 131.8 65.6956 127.875 62.2479 122.757C61.2483 120.62 60.371 118.421 59.4122 115.995C58.6778 106.973 56.0869 98.1148 56.1277 89.0511C56.1481 85.6805 56.5357 82.3099 56.9234 78.9393C57.719 72.0953 58.5146 65.2102 60.1059 58.5101C59.1266 59.3322 58.127 60.1338 57.3518 60.5243Z" fill="#56B381"/>
<path d="M21.3649 106.706C21.2425 113.611 26.8119 120.168 33.6257 121.092C37.1142 121.565 40.7047 120.722 44.1728 121.38C47.1513 121.956 49.9054 123.703 51.721 126.148C55.4952 131.245 55.1483 138.87 59.7385 143.248C64.0022 147.317 70.6324 146.886 76.3038 148.448C81.8936 149.969 86.8509 153.709 89.8906 158.662" stroke="black" stroke-miterlimit="10" stroke-linecap="round" stroke-linejoin="round"/>
<path d="M195.791 106.706C195.913 113.611 190.344 120.168 183.53 121.092C180.041 121.565 176.451 120.722 172.983 121.38C170.004 121.956 167.25 123.703 165.435 126.148C161.66 131.245 162.007 138.87 157.417 143.248C153.153 147.317 146.523 146.886 140.852 148.448C135.262 149.969 130.305 153.709 127.265 158.662" stroke="black" stroke-miterlimit="10" stroke-linecap="round" stroke-linejoin="round"/>
<path d="M109.394 150.113C109.72 144.029 113.025 138.172 118.023 134.76C123.022 131.348 129.631 130.423 135.364 132.355C140.077 133.938 144.83 137.37 149.522 135.767C153.765 134.328 155.765 129.211 155.479 124.73C155.193 120.229 153.215 116.037 151.929 111.721C148.828 101.321 149.828 89.7499 154.643 80.0286C157.54 74.1711 162.232 68.7042 168.556 67.1627" stroke="black" stroke-miterlimit="10" stroke-linecap="round" stroke-linejoin="round"/>
<path d="M186.468 87.2631C188.141 100.622 175.635 104.157 164.435 115.441C159.661 120.435 161.232 127.525 157.764 133.527C149.135 149.578 125.735 134.082 117.35 150.935" stroke="black" stroke-miterlimit="10" stroke-linecap="round" stroke-linejoin="round"/>
<path d="M59.8611 58.2018C55.985 74.0272 55.4137 90.6542 58.1882 106.726C59.1879 112.522 60.6568 118.338 63.7373 123.333C66.7974 128.327 71.673 132.458 77.4056 133.486C79.5477 133.876 81.751 133.814 83.8727 134.308C87.7488 135.212 91.0332 137.904 93.3589 141.131C95.6846 144.378 97.133 148.16 98.3571 151.962" stroke="black" stroke-miterlimit="10" stroke-linecap="round" stroke-linejoin="round"/>
<path d="M31.9938 85.8037C31.341 90.5308 30.6678 95.3401 31.3818 100.067C32.0958 104.794 34.4216 109.48 38.4813 111.946C41.4802 113.755 45.091 114.187 48.3143 115.605C52.8841 117.619 56.495 121.75 57.9231 126.58C58.5759 128.8 58.7799 131.122 59.5144 133.321C60.8608 137.39 64.0637 140.782 68.0214 142.364C71.5303 143.762 75.4268 143.762 79.0785 144.748C84.8519 146.31 89.8501 150.523 92.4002 155.949" stroke="black" stroke-miterlimit="10" stroke-linecap="round" stroke-linejoin="round"/>
<path d="M59.0859 107.631C69.9799 96.5939 85.2192 90.0171 100.683 89.6678C108.088 89.5033 115.902 90.9009 121.594 95.6896C127.285 100.458 130.039 109.295 126.265 115.728C120.798 125.018 105.416 125.182 101.417 135.192C99.3364 140.432 101.315 146.31 103.314 151.592" stroke="black" stroke-miterlimit="10" stroke-linecap="round" stroke-linejoin="round"/>
<path d="M129.672 77.2952C131.295 77.2952 132.61 75.9702 132.61 74.3357C132.61 72.7011 131.295 71.3761 129.672 71.3761C128.05 71.3761 126.735 72.7011 126.735 74.3357C126.735 75.9702 128.05 77.2952 129.672 77.2952Z" fill="#FFF58C" stroke="#181919" stroke-miterlimit="10" stroke-linecap="round" stroke-linejoin="round"/>
<path d="M89.871 77.2952C91.4935 77.2952 92.8087 75.9702 92.8087 74.3357C92.8087 72.7011 91.4935 71.3761 89.871 71.3761C88.2486 71.3761 86.9333 72.7011 86.9333 74.3357C86.9333 75.9702 88.2486 77.2952 89.871 77.2952Z" fill="#FFF58C" stroke="#181919" stroke-miterlimit="10" stroke-linecap="round" stroke-linejoin="round"/>
<path d="M110.985 59.5378L112.821 65.2308C112.985 65.7652 113.474 66.1146 114.025 66.1146H119.962C121.186 66.1146 121.696 67.6971 120.716 68.4165L115.902 71.931C115.453 72.2598 115.269 72.8353 115.433 73.3491L117.269 79.0421C117.656 80.2136 116.31 81.2001 115.31 80.4602L110.496 76.9458C110.047 76.6169 109.455 76.6169 109.006 76.9458L104.192 80.4602C103.192 81.1796 101.866 80.2136 102.233 79.0421L104.069 73.3491C104.233 72.8147 104.049 72.2392 103.6 71.931L98.8469 68.437C97.8473 67.7177 98.3573 66.1352 99.6017 66.1352H105.538C106.089 66.1352 106.579 65.7858 106.742 65.2514L108.578 59.5584C108.945 58.3663 110.598 58.3663 110.985 59.5378Z" fill="#FFF58C" stroke="#181919" stroke-miterlimit="10" stroke-linecap="round" stroke-linejoin="round"/>
<mask id="mask2_639_2381" style="mask-type:luminance" maskUnits="userSpaceOnUse" x="16" y="44" width="185" height="186">
<path d="M108.66 230C159.643 230 200.972 188.362 200.972 137C200.972 85.6375 159.643 44 108.66 44C57.6766 44 16.3467 85.6375 16.3467 137C16.3467 188.362 57.6766 230 108.66 230Z" fill="white"/>
</mask>
<g mask="url(#mask2_639_2381)">
<path d="M155.132 209.077C145.891 202.644 128.224 198.287 107.945 198.287C87.6671 198.287 70.0002 202.644 60.7587 209.077H53.8837V219.354C53.8837 230.986 78.0788 240.42 107.945 240.42C137.812 240.42 162.007 230.986 162.007 219.354V209.077H155.132Z" fill="#5A66FF" stroke="black" stroke-miterlimit="10" stroke-linecap="round" stroke-linejoin="round"/>
<path d="M107.945 230.144C137.803 230.144 162.007 220.712 162.007 209.077C162.007 197.443 137.803 188.011 107.945 188.011C78.0878 188.011 53.8835 197.443 53.8835 209.077C53.8835 220.712 78.0878 230.144 107.945 230.144Z" fill="white" stroke="black" stroke-miterlimit="10" stroke-linecap="round" stroke-linejoin="round"/>
<path d="M155.132 198.801C145.891 192.368 128.224 188.011 107.945 188.011C87.6671 188.011 70.0002 192.368 60.7587 198.801H53.8837V209.077C53.8837 220.71 78.0788 230.144 107.945 230.144C137.812 230.144 162.007 220.71 162.007 209.077V198.801H155.132Z" fill="#FF88B6" stroke="black" stroke-miterlimit="10"/>
<path d="M107.945 219.867C137.803 219.867 162.007 210.436 162.007 198.801C162.007 187.167 137.803 177.735 107.945 177.735C78.0878 177.735 53.8835 187.167 53.8835 198.801C53.8835 210.436 78.0878 219.867 107.945 219.867Z" fill="white" stroke="black" stroke-miterlimit="10" stroke-linecap="round" stroke-linejoin="round"/>
<path d="M155.132 188.525C145.891 182.092 128.224 177.735 107.945 177.735C87.6671 177.735 70.0002 182.092 60.7587 188.525H53.8837V198.801C53.8837 210.434 78.0788 219.867 107.945 219.867C137.812 219.867 162.007 210.434 162.007 198.801V188.525H155.132Z" fill="#FF88B6" stroke="black" stroke-miterlimit="10"/>
<path d="M107.945 209.591C137.803 209.591 162.007 200.16 162.007 188.525C162.007 176.89 137.803 167.459 107.945 167.459C78.0878 167.459 53.8835 176.89 53.8835 188.525C53.8835 200.16 78.0878 209.591 107.945 209.591Z" fill="white" stroke="black" stroke-miterlimit="10" stroke-linecap="round" stroke-linejoin="round"/>
</g>
<path d="M108.66 230C159.643 230 200.972 188.362 200.972 137C200.972 85.6375 159.643 44 108.66 44C57.6766 44 16.3467 85.6375 16.3467 137C16.3467 188.362 57.6766 230 108.66 230Z" stroke="#181919" stroke-miterlimit="10"/>
<path d="M144.299 157.203C144.054 152.394 144.136 146.331 142.688 141.85C141.341 137.76 138.791 134.143 136.608 130.464C132.426 123.415 126.816 120.414 121.104 115.05C119.451 113.509 116.922 113.878 115.004 112.851C112.76 111.659 110.965 110.467 108.455 109.85C103.559 108.638 98.5202 109.193 94.236 112.008C90.2783 114.618 86.1981 117.023 82.4852 120.003C79.4659 122.408 77.1811 126.128 74.3454 128.368C67.3888 133.835 66.6136 143.104 67.1236 151.366C67.3888 155.621 68.0212 159.587 70.5509 163.102C72.7746 166.205 76.0386 168.63 77.7727 172.083C80.0168 176.481 81.0777 180.263 85.0966 183.551C92.4612 189.594 102.233 192.101 111.556 191.587C115.575 191.361 119.41 191.546 122.96 189.368C125.959 187.518 127.061 184.497 129.529 182.236C131.243 180.674 133.528 180.674 135.507 179.667C137.873 178.475 138.199 177.324 139.811 175.31C140.464 174.508 141.076 173.604 141.545 172.679C143.973 167.932 144.626 163.04 144.32 157.758C144.32 157.553 144.299 157.388 144.299 157.203Z" fill="#45B757" stroke="black" stroke-miterlimit="10"/>
<path d="M118.208 138.809C117.596 137.678 116.066 138.274 115.78 139.302C112.944 148.098 103.54 152.086 96.0119 152.086C94.7674 152.209 92.4011 151.284 92.2991 153.134C92.6867 156.751 103.234 160.738 106.722 161.005C116.555 161.087 123.104 146.66 118.208 138.809Z" stroke="black" stroke-miterlimit="10"/>
<path d="M90.1355 141.707C92.5836 141.501 95.0522 141.48 97.5206 141.604C96.4598 144.604 94.0729 146.906 91.7472 149.085" stroke="black" stroke-miterlimit="10" stroke-linecap="round" stroke-linejoin="round"/>
<path d="M88.7079 146.125C91.8088 145.591 94.7669 144.173 97.1129 142.056" stroke="black" stroke-miterlimit="10" stroke-linecap="round" stroke-linejoin="round"/>
<path d="M110.394 133.301C108.925 135.746 106.925 137.863 104.579 139.466C107.007 139.836 109.476 139.836 111.903 139.446" stroke="black" stroke-miterlimit="10" stroke-linecap="round" stroke-linejoin="round"/>
<path d="M105.212 139.117C107.293 138.48 109.313 137.596 111.19 136.507" stroke="black" stroke-miterlimit="10" stroke-linecap="round" stroke-linejoin="round"/>
<path d="M63.5325 26.3719C63.5399 26.7351 63.4476 27.0492 63.3146 27.0492C57.9859 27.059 52.6535 27.0492 47.3248 27.0492C38.8942 27.0492 30.4635 27.0492 22.0292 27.0492C19.5419 27.0492 8.84882 27.0492 3.76877 27.0492C2.23176 27.0492 1.01358 25.8922 1.00451 24.3552C0.964533 17.5737 1.20708 1 1.06883 1C5.5999 1 39.4518 1 42.5242 1C48.6744 1 54.8245 1 60.9747 1C62.49 1 63.6612 2.12944 63.6593 3.64474C63.652 9.53732 63.4823 23.3315 63.5325 26.3719Z" fill="white" stroke="black" stroke-miterlimit="10" stroke-linecap="round" stroke-linejoin="round"/>
<path d="M27.1479 9.43233H22.3039V7.73833H20.8759V9.43233H16.0599V10.6783H27.1479V9.43233ZM16.6059 13.9123C16.6059 15.6063 18.7759 16.3063 21.6039 16.3063C24.4319 16.3063 26.6019 15.6063 26.6019 13.9123C26.6019 12.2043 24.4319 11.5043 21.6039 11.5043C18.7759 11.5043 16.6059 12.2043 16.6059 13.9123ZM25.1879 13.9123C25.1879 14.7943 23.6339 15.1163 21.6039 15.1163C19.5879 15.1163 18.0199 14.7943 18.0199 13.9123C18.0199 13.0163 19.5879 12.6943 21.6039 12.6943C23.6339 12.6943 25.1879 13.0163 25.1879 13.9123ZM15.6399 18.0143V19.2743H27.5819V18.0143H15.6399ZM35.0707 12.4283C37.9687 12.4283 40.3487 11.7563 40.3487 10.1183C40.3487 8.49433 37.9687 7.82233 35.0707 7.82233C32.1727 7.82233 29.7927 8.49433 29.7927 10.1183C29.7927 11.7563 32.1727 12.4283 35.0707 12.4283ZM35.0707 11.3223C32.9847 11.3223 31.2627 10.9583 31.2627 10.1183C31.2627 9.29233 32.9847 8.91433 35.0707 8.91433C37.1567 8.91433 38.8787 9.29233 38.8787 10.1183C38.8787 10.9583 37.1567 11.3223 35.0707 11.3223ZM29.1067 14.4863H41.0487V13.3663H29.1067V14.4863ZM29.9327 19.7083H40.2087V15.6483H29.9327V19.7083ZM31.3187 18.6023V16.7543H38.8367V18.6023H31.3187ZM42.6575 13.3943V14.7943C43.0915 14.3323 43.5395 14.0663 44.1975 14.0663C45.2475 14.0663 46.1155 15.0743 47.3195 15.0743C48.0615 15.0743 48.6075 14.7803 49.0135 14.2903V12.8763C48.5655 13.4223 48.1315 13.7863 47.4595 13.7863C46.4235 13.7863 45.5555 12.7783 44.3515 12.7783C43.6375 12.7783 43.0635 13.0023 42.6575 13.3943Z" fill="black"/>
<path d="M211.606 57.605C211.628 58.0411 211.352 58.4182 210.956 58.4182C195.058 58.43 179.15 58.4182 163.253 58.4182C138.101 58.4182 112.95 58.4182 87.7873 58.4182C79.2046 58.4182 37.87 58.4182 27.5792 58.4182C26.2107 58.4182 25.1191 57.4818 25.0826 56.1138C24.8839 48.6875 25.6848 27.1416 25.2556 27.1416C38.7733 27.1416 139.765 27.1416 148.931 27.1416C169.178 27.1416 189.425 27.1416 209.672 27.1416C210.991 27.1416 211.977 28.0332 211.983 29.3524C212.013 35.7464 211.448 53.7765 211.606 57.605Z" fill="white" stroke="black" stroke-miterlimit="10" stroke-linecap="round" stroke-linejoin="round"/>
<path d="M57.3767 36.8242V41.0662H52.9527V42.3822H57.3767V48.7802H58.7627V36.8242H57.3767ZM49.5507 46.7782V37.1882H48.1367V48.0662H52.6867C53.8347 48.0662 55.0807 47.8562 55.8087 47.4922V46.2182C55.0807 46.5682 53.8487 46.7782 52.7147 46.7782H49.5507ZM71.1515 36.8242V48.7802H72.4675V36.8242H71.1515ZM68.2675 41.8082H66.6715C66.5315 38.5462 65.5795 37.1042 63.9135 37.1042C62.1075 37.1042 61.1275 38.7982 61.1275 42.6622C61.1275 46.5262 62.1075 48.2202 63.9135 48.2202C65.6495 48.2202 66.6015 46.6662 66.6855 43.1242H68.2675V48.5702H69.5695V36.8942H68.2675V41.8082ZM63.9135 46.9602C62.9195 46.9602 62.4435 45.6022 62.4435 42.6622C62.4435 39.7222 62.9195 38.3642 63.9135 38.3642C64.9075 38.3642 65.3695 39.7222 65.3695 42.6622C65.3695 45.6022 64.9075 46.9602 63.9135 46.9602ZM84.6043 36.8242V48.7802H85.9343V36.8242H84.6043ZM81.6223 41.6402H79.6623C79.6903 41.2622 79.7043 40.8842 79.7043 40.4782V37.2582H74.7063V38.5182H78.3603V40.5482C78.3603 44.2442 76.9323 46.6662 74.7063 46.7362V48.0382C77.0723 48.0102 78.8783 46.1202 79.4803 42.9562H81.6223V48.5702H82.9383V36.8942H81.6223V41.6402ZM95.3869 41.1782H96.7449V36.9642H92.5309V38.1262H95.3869V41.1782ZM101.589 41.3182H102.961V36.9642H97.4449V38.1262H101.589V41.3182ZM99.2369 42.3402V39.7782H97.8649V42.3402H91.8309V43.5162H103.773V42.3402H99.2369ZM92.5589 46.0222H101.533V48.7942H102.933V44.8322H92.5589V46.0222ZM120.044 39.2742V36.8242H118.658V43.3202H120.044V40.6042H121.724V39.2742H120.044ZM116.628 37.1182H109.642V42.7462H116.628V37.1182ZM115.256 41.5702H111.014V38.2942H115.256V41.5702ZM116.026 45.1402H120.198V43.9782H110.02V45.1402H114.57C113.982 46.5822 112.008 47.4222 109.88 47.4222V48.6262C111.784 48.6262 113.674 48.0662 114.878 46.9602L120.128 48.7802L120.52 47.5902L115.648 46.0222C115.802 45.7562 115.942 45.4622 116.026 45.1402ZM123.542 41.4582H133.888V40.2262H124.942V36.8242H123.542V41.4582ZM122.688 44.0062H134.63V42.7742H122.688V44.0062ZM123.514 48.6402H134.014V47.4082H124.928V45.0702H123.514V48.6402ZM152.581 41.6682H150.901V36.8242H149.515V48.7802H150.901V42.9982H152.581V41.6682ZM145.245 37.1742L143.831 37.1182C143.817 42.1442 142.571 46.2882 140.177 46.6662V48.0662C142.039 47.9262 143.481 46.3722 144.335 43.7682L147.415 48.0382L148.535 47.2402L144.769 42.1442C145.077 40.7022 145.231 39.0362 145.245 37.1742ZM163.416 36.8242V39.2182H160.952C160.616 37.8602 159.286 36.9642 157.354 36.9642C155.086 36.9642 153.658 38.1822 153.658 39.9182C153.658 41.6542 155.086 42.8722 157.354 42.8722C159.342 42.8722 160.686 41.9202 160.98 40.5062H163.416V42.9562H164.802V36.8242H163.416ZM157.354 41.7242C155.982 41.7242 155.044 41.0382 155.044 39.9182C155.044 38.7982 155.982 38.1122 157.354 38.1122C158.726 38.1122 159.65 38.7982 159.65 39.9182C159.65 41.0382 158.726 41.7242 157.354 41.7242ZM163.43 44.8742H156.122V43.6142H154.764V48.6262H164.802V43.6142H163.43V44.8742ZM156.122 47.4922V45.9802H163.43V47.4922H156.122ZM172.977 41.9762C175.875 41.9762 178.283 41.1362 178.283 39.3582C178.283 37.5942 175.875 36.7542 172.977 36.7542C170.079 36.7542 167.671 37.5942 167.671 39.3582C167.671 41.1362 170.079 41.9762 172.977 41.9762ZM172.977 40.8562C170.891 40.8562 169.141 40.3382 169.141 39.3582C169.141 38.3922 170.891 37.8742 172.977 37.8742C175.063 37.8742 176.813 38.3922 176.813 39.3582C176.813 40.3382 175.063 40.8562 172.977 40.8562ZM167.013 44.2162H178.955V43.0402H167.013V44.2162ZM167.839 48.6402H178.339V47.4502H169.253V45.2382H167.839V48.6402ZM181.515 48.6682C182.075 48.6682 182.495 48.2342 182.495 47.6742C182.495 47.1142 182.075 46.6802 181.515 46.6802C180.955 46.6802 180.521 47.1142 180.521 47.6742C180.521 48.2342 180.955 48.6682 181.515 48.6682ZM185.111 48.6682C185.671 48.6682 186.091 48.2342 186.091 47.6742C186.091 47.1142 185.671 46.6802 185.111 46.6802C184.551 46.6802 184.117 47.1142 184.117 47.6742C184.117 48.2342 184.551 48.6682 185.111 48.6682ZM188.189 45.3782H189.253L189.617 37.2722H187.839L188.189 45.3782ZM188.721 48.7102C189.309 48.7102 189.757 48.2622 189.757 47.6742C189.757 47.1002 189.309 46.6522 188.721 46.6522C188.133 46.6522 187.685 47.1002 187.685 47.6742C187.685 48.2622 188.133 48.7102 188.721 48.7102Z" fill="black"/>
</svg>
