<svg width="117" height="74" viewBox="0 0 117 74" fill="none" xmlns="http://www.w3.org/2000/svg">
<path d="M104.842 22.73C76.4431 7.86556 50.4133 7.79737 23.9403 12.2635C-0.964455 16.1671 -9.36831 43.7481 17.974 49.5269C19.5594 49.8678 21.1958 50.0042 22.8323 49.9871C47.9927 49.6291 52.0327 52.6293 69.9654 67.7665C72.7951 70.1529 76.1874 71.9087 79.8524 72.4713C91.5632 74.2441 96.0975 71.7724 102.677 61.8002C103.717 60.232 108.882 51.7599 111.695 49.2882C121.701 40.4923 114.201 27.6223 104.842 22.73Z" fill="#56B381"/>
<mask id="mask0_525_47764" style="mask-type:luminance" maskUnits="userSpaceOnUse" x="1" y="9" width="116" height="64">
<path d="M104.842 22.73C76.4431 7.86556 50.4133 7.79737 23.9403 12.2635C-0.964455 16.1671 -9.36831 43.7481 17.974 49.5269C19.5594 49.8678 21.1958 50.0042 22.8323 49.9871C47.9927 49.6291 52.0327 52.6293 69.9654 67.7665C72.7951 70.1529 76.1874 71.9087 79.8524 72.4713C91.5632 74.2441 96.0975 71.7724 102.677 61.8002C103.717 60.232 108.882 51.7599 111.695 49.2882C121.701 40.4923 114.201 27.6223 104.842 22.73Z" fill="white"/>
</mask>
<g mask="url(#mask0_525_47764)">
<path d="M-27.335 -16.9199L21.7074 66.2493" stroke="black" stroke-miterlimit="10"/>
<path d="M-21.6243 -16.0165L27.4351 67.1526" stroke="black" stroke-miterlimit="10"/>
<path d="M-15.9141 -15.096L33.1454 68.0561" stroke="black" stroke-miterlimit="10"/>
<path d="M-10.2034 -14.1926L38.856 68.9765" stroke="black" stroke-miterlimit="10"/>
<path d="M-4.49292 -13.2891L44.5665 69.8801" stroke="black" stroke-miterlimit="10"/>
<path d="M1.21777 -12.3857L50.2772 70.7835" stroke="black" stroke-miterlimit="10"/>
<path d="M6.92822 -11.4822L55.9876 71.6869" stroke="black" stroke-miterlimit="10"/>
<path d="M12.656 -10.5618L61.6984 72.5904" stroke="black" stroke-miterlimit="10"/>
<path d="M18.3662 -9.6582L67.4256 73.4939" stroke="black" stroke-miterlimit="10"/>
<path d="M24.0767 -8.75482L73.1361 74.4144" stroke="black" stroke-miterlimit="10"/>
<path d="M29.7876 -7.85126L78.847 75.3179" stroke="black" stroke-miterlimit="10"/>
<path d="M35.4983 -6.94781L84.5577 76.2214" stroke="black" stroke-miterlimit="10"/>
<path d="M41.2083 -6.04431L90.2677 77.1249" stroke="black" stroke-miterlimit="10"/>
<path d="M46.9189 -5.1239L95.9784 78.0282" stroke="black" stroke-miterlimit="10"/>
<path d="M52.6294 -4.2204L101.689 78.9488" stroke="black" stroke-miterlimit="10"/>
<path d="M58.3572 -3.31696L107.417 79.8522" stroke="black" stroke-miterlimit="10"/>
<path d="M64.0676 -2.41345L113.127 80.7557" stroke="black" stroke-miterlimit="10"/>
<path d="M69.7783 -1.51013L118.838 81.659" stroke="black" stroke-miterlimit="10"/>
<path d="M75.4885 -0.606628L124.548 82.5625" stroke="black" stroke-miterlimit="10"/>
<path d="M81.1992 0.313904L130.259 83.466" stroke="black" stroke-miterlimit="10"/>
<path d="M86.9099 1.21729L135.969 84.3865" stroke="black" stroke-miterlimit="10"/>
<path d="M92.6199 2.12085L141.679 85.29" stroke="black" stroke-miterlimit="10"/>
</g>
<path d="M104.842 22.73C76.4431 7.86556 50.4133 7.79737 23.9403 12.2635C-0.964455 16.1671 -9.36831 43.7481 17.974 49.5269C19.5594 49.8678 21.1958 50.0042 22.8323 49.9871C47.9927 49.6291 52.0327 52.6293 69.9654 67.7665C72.7951 70.1529 76.1874 71.9087 79.8524 72.4713C91.5632 74.2441 96.0975 71.7724 102.677 61.8002C103.717 60.232 108.882 51.7599 111.695 49.2882C121.701 40.4923 114.201 27.6223 104.842 22.73Z" stroke="black" stroke-miterlimit="10"/>
<path d="M17.7189 68.4315C19.3383 68.4485 20.9236 68.8406 22.526 68.9599C24.1283 69.0793 25.867 68.9258 27.1455 67.9542C28.441 66.9826 29.0718 65.0222 28.1683 63.6926C27.4524 62.6187 26.0716 62.2778 24.8443 61.8346C20.8384 60.4197 17.5825 57.3855 13.6107 55.8342C12.3834 55.3569 11.0367 55.016 9.72414 55.2547C8.83773 55.4251 8.00249 55.8513 7.35473 56.4649C5.65009 58.1014 5.47963 60.9311 6.55355 63.0448C7.62747 65.1415 9.74122 66.5734 11.9913 67.3405C14.2415 68.1247 16.6279 68.4144 17.7189 68.4315Z" fill="#56B381"/>
<mask id="mask1_525_47764" style="mask-type:luminance" maskUnits="userSpaceOnUse" x="5" y="55" width="24" height="14">
<path d="M17.7189 68.4315C19.3383 68.4485 20.9236 68.8406 22.526 68.9599C24.1283 69.0793 25.867 68.9258 27.1455 67.9542C28.441 66.9826 29.0718 65.0222 28.1683 63.6926C27.4524 62.6187 26.0716 62.2778 24.8443 61.8346C20.8384 60.4197 17.5825 57.3855 13.6107 55.8342C12.3834 55.3569 11.0367 55.016 9.72414 55.2547C8.83773 55.4251 8.00249 55.8513 7.35473 56.4649C5.65009 58.1014 5.47963 60.9311 6.55355 63.0448C7.62747 65.1415 9.74122 66.5734 11.9913 67.3405C14.2415 68.1247 16.6279 68.4144 17.7189 68.4315Z" fill="white"/>
</mask>
<g mask="url(#mask1_525_47764)">
<path d="M64.2895 124.702L14.6675 41.8734" stroke="black" stroke-miterlimit="10"/>
<path d="M58.5621 123.832L8.94019 41.004" stroke="black" stroke-miterlimit="10"/>
<path d="M52.8515 122.963L3.22949 40.1346" stroke="black" stroke-miterlimit="10"/>
<path d="M47.1239 122.094L-2.49805 39.2653" stroke="black" stroke-miterlimit="10"/>
<path d="M41.4134 121.224L-8.2085 38.3959" stroke="black" stroke-miterlimit="10"/>
<path d="M35.6859 120.355L-13.936 37.5266" stroke="black" stroke-miterlimit="10"/>
<path d="M29.9754 119.485L-19.6465 36.6572" stroke="black" stroke-miterlimit="10"/>
<path d="M24.2477 118.633L-25.3743 35.7879" stroke="black" stroke-miterlimit="10"/>
<path d="M18.537 117.764L-31.085 34.9185" stroke="black" stroke-miterlimit="10"/>
<path d="M12.8095 116.894L-36.7954 34.0491" stroke="black" stroke-miterlimit="10"/>
<path d="M7.09897 116.025L-42.5229 33.1797" stroke="black" stroke-miterlimit="10"/>
</g>
<path d="M17.7189 68.4315C19.3383 68.4485 20.9236 68.8406 22.526 68.9599C24.1283 69.0793 25.867 68.9258 27.1455 67.9542C28.441 66.9826 29.0718 65.0222 28.1683 63.6926C27.4524 62.6187 26.0716 62.2778 24.8443 61.8346C20.8384 60.4197 17.5825 57.3855 13.6107 55.8342C12.3834 55.3569 11.0367 55.016 9.72414 55.2547C8.83773 55.4251 8.00249 55.8513 7.35473 56.4649C5.65009 58.1014 5.47963 60.9311 6.55355 63.0448C7.62747 65.1415 9.74122 66.5734 11.9913 67.3405C14.2415 68.1247 16.6279 68.4144 17.7189 68.4315Z" stroke="black" stroke-miterlimit="10"/>
<path opacity="0.9882" d="M64.2041 12.2124C62.1756 12.2124 60.4199 13.3034 59.4482 14.9058V6.02462C59.4482 4.60977 58.2891 3.45062 56.8742 3.45062H32.9241C31.5093 3.45062 30.3501 4.60977 30.3501 6.02462V30.5202C30.3501 31.9351 31.5093 33.0942 32.9241 33.0942H42.5042C40.612 32.1908 39.2994 30.2816 39.2994 28.0656C39.2994 24.9802 41.8052 22.4744 44.8906 22.4744C47.976 22.4744 50.4818 24.9802 50.4818 28.0656C50.4818 30.2986 49.1693 32.2078 47.2771 33.0942H56.8572C58.272 33.0942 59.4312 31.9351 59.4312 30.5202V20.7186C60.4199 22.3209 62.1757 23.4119 64.1871 23.4119C67.2725 23.4119 69.7783 20.9061 69.7783 17.8207C69.7783 14.7353 67.3066 12.2124 64.2041 12.2124Z" fill="#EBEBEB" stroke="#100917" stroke-miterlimit="10" stroke-linecap="round" stroke-linejoin="round"/>
<path opacity="0.9882" d="M103.649 16.7128C102.098 16.065 100.393 16.423 99.2341 17.4628L102.098 10.6102C102.507 9.63852 102.047 8.51346 101.075 8.10435L84.4208 1.14943C83.4492 0.740319 82.3241 1.20057 81.915 2.17222L74.8067 19.2015C74.3975 20.1732 74.8578 21.2982 75.8294 21.7073L82.4946 24.4859C81.4548 23.3097 81.0968 21.6051 81.7445 20.0709C82.648 17.9231 85.1027 16.9173 87.2505 17.8037C89.3984 18.7072 90.4041 21.1619 89.5177 23.3097C88.8699 24.8609 87.4039 25.7985 85.8357 25.8837L92.5008 28.6623C93.4724 29.0714 94.5975 28.6111 95.0066 27.6395L97.8704 20.7868C97.9556 22.3551 98.8932 23.8211 100.444 24.4688C102.592 25.3723 105.047 24.3495 105.95 22.2017C106.803 20.0709 105.797 17.5992 103.649 16.7128Z" fill="#5A66FF" stroke="#100917" stroke-miterlimit="10" stroke-linecap="round" stroke-linejoin="round"/>
<path opacity="0.9882" d="M86.0405 32.4464H76.4604C78.3526 33.3499 79.6652 35.2591 79.6652 37.4751C79.6652 40.5605 77.1594 43.0663 74.074 43.0663C70.9886 43.0663 68.4828 40.5605 68.4828 37.4751C68.4828 35.242 69.7953 33.3328 71.6875 32.4464H62.1074C60.6926 32.4464 59.5334 33.6056 59.5334 35.0204V44.8732C58.63 42.9811 56.7208 41.6685 54.5048 41.6685C51.4194 41.6685 48.9136 44.1743 48.9136 47.2597C48.9136 50.3451 51.4194 52.8509 54.5048 52.8509C56.7379 52.8509 58.647 51.5383 59.5334 49.6462V59.499C59.5334 60.9138 60.6926 62.073 62.1074 62.073H86.0575C87.4724 62.073 88.6316 60.9138 88.6316 59.499V35.0204C88.6145 33.6056 87.4724 32.4464 86.0405 32.4464Z" fill="#B180E0" stroke="#100917" stroke-miterlimit="10" stroke-linecap="round" stroke-linejoin="round"/>
<path opacity="0.9882" d="M54.4654 41.9525C56.6984 41.9525 58.6076 43.265 59.494 45.1572V35.5771C59.494 34.1623 58.3349 33.0031 56.92 33.0031H47.0673C48.9594 32.0997 50.2719 30.1905 50.2719 27.9744C50.2719 24.8891 47.7661 22.3832 44.6807 22.3832C41.5953 22.3832 39.0895 24.8891 39.0895 27.9744C39.0895 30.2075 40.4021 32.1167 42.2942 33.0031H32.4414C31.0266 33.0031 29.8674 34.1623 29.8674 35.5771V59.5272C29.8674 60.9421 31.0266 62.1012 32.4414 62.1012H56.9371C58.3519 62.1012 59.5111 60.9421 59.5111 59.5272V49.9472C58.6076 51.8393 56.6984 53.1519 54.4824 53.1519C51.397 53.1519 48.8912 50.6461 48.8912 47.5607C48.8912 44.4753 51.3629 41.9525 54.4654 41.9525Z" fill="#5A66FF" stroke="#100917" stroke-miterlimit="10" stroke-linecap="round" stroke-linejoin="round"/>
<path d="M41.6106 17.0989L41.6096 17.0986C39.1947 16.1685 37.7799 14.6909 37.3494 12.8535C37.3166 12.6953 37.4002 12.5203 37.5622 12.4464C38.5883 11.983 39.2548 11.6124 39.9784 11.2102C40.0146 11.1901 40.0509 11.1699 40.0874 11.1496L40.0874 11.1496L40.0889 11.1488C40.1934 11.0903 40.298 11.0312 40.4041 10.9714C40.7316 10.7866 41.0739 10.5935 41.474 10.3806C41.8507 10.2237 42.1887 10.1556 42.572 10.1556C43.2743 10.1556 44.0687 10.3992 44.6404 10.7602L44.9053 10.9275L45.1713 10.7621C45.7309 10.4143 46.5439 10.1556 47.2427 10.1556C47.6295 10.1556 47.9675 10.2251 48.2762 10.3483C48.8778 10.666 49.3047 10.8963 49.7129 11.1413L49.7129 11.1413L49.72 11.1454L49.7335 11.1532C50.4966 11.5942 51.1632 11.9793 52.2559 12.448C52.4162 12.523 52.4984 12.6975 52.465 12.8548C52.0685 14.6041 50.6219 16.1191 48.2634 17.0854L48.2634 17.0854L48.259 17.0873C47.011 17.6127 45.9863 17.8322 44.9755 17.8322C43.9643 17.8322 42.9362 17.6126 41.6106 17.0989Z" fill="#FF88B6" stroke="black"/>
<path d="M42.4697 14.0025H47.3279" stroke="black" stroke-miterlimit="10" stroke-linecap="round"/>
</svg>
