<svg width="176" height="176" viewBox="0 0 176 176" fill="none" xmlns="http://www.w3.org/2000/svg">
<path d="M88 175C136.049 175 175 136.049 175 88C175 39.9512 136.049 1 88 1C39.9512 1 1 39.9512 1 88C1 136.049 39.9512 175 88 175Z" fill="#FF88B6" stroke="black" stroke-miterlimit="10"/>
<path d="M145.545 76.0027C115.647 55.6418 86.5192 52.181 56.2567 53.7576C27.8591 54.892 14.8427 84.6931 44.7207 94.7293C46.4511 95.3061 48.2776 95.6906 50.1041 95.8637C78.3479 98.7284 82.4816 102.612 100.612 121.916C103.477 124.953 107.034 127.357 111.071 128.472C123.972 131.99 129.375 129.799 138.046 119.493C139.411 117.878 146.314 109.053 149.774 106.65C162.137 98.094 155.389 82.6935 145.545 76.0027Z" fill="#56B381"/>
<mask id="mask0_525_54686" style="mask-type:luminance" maskUnits="userSpaceOnUse" x="27" y="53" width="130" height="78">
<path d="M145.545 76.0027C115.647 55.6418 86.5192 52.181 56.2567 53.7576C27.8591 54.892 14.8427 84.6931 44.7207 94.7293C46.4511 95.3061 48.2776 95.6906 50.1041 95.8637C78.3479 98.7284 82.4816 102.612 100.612 121.916C103.477 124.953 107.034 127.357 111.071 128.472C123.972 131.99 129.375 129.799 138.046 119.493C139.411 117.878 146.314 109.053 149.774 106.65C162.137 98.094 155.389 82.6935 145.545 76.0027Z" fill="white"/>
</mask>
<g mask="url(#mask0_525_54686)">
<path d="M2.61475 14.3818L46.7588 113.937" stroke="black" stroke-miterlimit="10"/>
<path d="M8.90198 16.151L53.0461 115.706" stroke="black" stroke-miterlimit="10"/>
<path d="M15.1698 17.9004L59.3139 117.455" stroke="black" stroke-miterlimit="10"/>
<path d="M21.4568 19.6693L65.6009 119.224" stroke="black" stroke-miterlimit="10"/>
<path d="M27.7439 21.4189L71.888 120.974" stroke="black" stroke-miterlimit="10"/>
<path d="M34.0309 23.1683L78.175 122.742" stroke="black" stroke-miterlimit="10"/>
<path d="M40.2988 24.9373L84.4428 124.492" stroke="black" stroke-miterlimit="10"/>
<path d="M46.5859 26.6869L90.7299 126.261" stroke="black" stroke-miterlimit="10"/>
<path d="M52.873 28.4556L97.0171 128.01" stroke="black" stroke-miterlimit="10"/>
<path d="M59.16 30.2052L103.304 129.76" stroke="black" stroke-miterlimit="10"/>
<path d="M65.4279 31.9744L109.572 131.529" stroke="black" stroke-miterlimit="10"/>
<path d="M71.715 33.7238L115.859 133.279" stroke="black" stroke-miterlimit="10"/>
<path d="M78.0021 35.4927L122.146 135.048" stroke="black" stroke-miterlimit="10"/>
<path d="M84.2891 37.2423L128.433 136.797" stroke="black" stroke-miterlimit="10"/>
<path d="M90.5762 39.011L134.72 138.566" stroke="black" stroke-miterlimit="10"/>
<path d="M96.844 40.7606L140.988 140.316" stroke="black" stroke-miterlimit="10"/>
<path d="M103.131 42.5295L147.275 142.084" stroke="black" stroke-miterlimit="10"/>
<path d="M109.418 44.2789L153.562 143.834" stroke="black" stroke-miterlimit="10"/>
<path d="M115.705 46.0479L159.849 145.603" stroke="black" stroke-miterlimit="10"/>
<path d="M121.973 47.7977L166.117 147.353" stroke="black" stroke-miterlimit="10"/>
<path d="M128.26 49.5471L172.404 149.121" stroke="black" stroke-miterlimit="10"/>
<path d="M134.547 51.316L178.691 150.871" stroke="black" stroke-miterlimit="10"/>
</g>
<path d="M145.545 76.0027C115.647 55.6418 86.5192 52.181 56.2567 53.7576C27.8591 54.892 14.8427 84.6931 44.7207 94.7293C46.4511 95.3061 48.2776 95.6906 50.1041 95.8637C78.3479 98.7284 82.4816 102.612 100.612 121.916C103.477 124.953 107.034 127.357 111.071 128.472C123.972 131.99 129.375 129.799 138.046 119.493C139.411 117.878 146.314 109.053 149.774 106.65C162.137 98.094 155.389 82.6935 145.545 76.0027Z" stroke="black" stroke-miterlimit="10"/>
<path d="M47.9127 142.2C49.6046 142.853 51.1428 143.892 52.777 144.661C54.4305 145.43 56.3147 145.93 58.0643 145.41C59.8139 144.891 61.2559 143.084 60.8329 141.315C60.4869 139.892 59.1603 138.989 58.0451 138.047C54.3536 134.97 52.1041 130.471 48.528 127.299C47.4128 126.299 46.1247 125.434 44.6442 125.165C43.6445 124.992 42.587 125.107 41.6641 125.511C39.2223 126.568 37.915 129.491 38.2418 132.144C38.5494 134.797 40.2221 137.124 42.2986 138.816C44.3558 140.508 46.7591 141.757 47.9127 142.2Z" fill="#56B381"/>
<mask id="mask1_525_54686" style="mask-type:luminance" maskUnits="userSpaceOnUse" x="38" y="125" width="23" height="21">
<path d="M47.9127 142.2C49.6046 142.853 51.1428 143.892 52.777 144.661C54.4305 145.43 56.3147 145.93 58.0643 145.41C59.8139 144.891 61.2559 143.084 60.8329 141.315C60.4869 139.892 59.1603 138.989 58.0451 138.047C54.3536 134.97 52.1041 130.471 48.528 127.299C47.4128 126.299 46.1247 125.434 44.6442 125.165C43.6445 124.992 42.587 125.107 41.6641 125.511C39.2223 126.568 37.915 129.491 38.2418 132.144C38.5494 134.797 40.2221 137.124 42.2986 138.816C44.3558 140.508 46.7591 141.757 47.9127 142.2Z" fill="white"/>
</mask>
<g mask="url(#mask1_525_54686)">
<path d="M75.022 219.99L55.1225 112.918" stroke="black" stroke-miterlimit="10"/>
<path d="M69.3116 216.837L49.4122 109.765" stroke="black" stroke-miterlimit="10"/>
<path d="M63.6206 213.665L43.7212 106.592" stroke="black" stroke-miterlimit="10"/>
<path d="M57.9103 210.512L38.0109 103.439" stroke="black" stroke-miterlimit="10"/>
<path d="M52.2001 207.339L32.3007 100.267" stroke="black" stroke-miterlimit="10"/>
<path d="M46.509 204.167L26.6095 97.0942" stroke="black" stroke-miterlimit="10"/>
<path d="M40.7987 201.014L20.8993 93.9412" stroke="black" stroke-miterlimit="10"/>
</g>
<path d="M47.9127 142.2C49.6046 142.853 51.1428 143.892 52.777 144.661C54.4305 145.43 56.3147 145.93 58.0643 145.41C59.8139 144.891 61.2559 143.084 60.8329 141.315C60.4869 139.892 59.1603 138.989 58.0451 138.047C54.3536 134.97 52.1041 130.471 48.528 127.299C47.4128 126.299 46.1247 125.434 44.6442 125.165C43.6445 124.992 42.587 125.107 41.6641 125.511C39.2223 126.568 37.915 129.491 38.2418 132.144C38.5494 134.797 40.2221 137.124 42.2986 138.816C44.3558 140.508 46.7591 141.757 47.9127 142.2Z" stroke="black" stroke-miterlimit="10"/>
<path opacity="0.9882" d="M93.998 70.85C91.3639 70.85 89.0568 72.2728 87.7878 74.3685V62.7556C87.7878 60.8907 86.2882 59.391 84.4232 59.391H53.1416C51.2766 59.391 49.777 60.8907 49.777 62.7556V94.7486C49.777 96.6136 51.2766 98.1132 53.1416 98.1132H65.6389C63.1779 96.9404 61.4667 94.4409 61.4667 91.5377C61.4667 87.5002 64.7352 84.2317 68.7728 84.2317C72.8104 84.2317 76.0789 87.5002 76.0789 91.5377C76.0789 94.4409 74.3677 96.9404 71.9067 98.1132H84.404C86.2689 98.1132 87.7686 96.6136 87.7686 94.7486V81.963C89.0568 84.0587 91.3448 85.4814 93.9788 85.4814C98.0164 85.4814 101.285 82.2129 101.285 78.1753C101.285 74.1378 98.0355 70.85 93.998 70.85Z" fill="#EBEBEB" stroke="#100917" stroke-miterlimit="10" stroke-linecap="round" stroke-linejoin="round"/>
<path opacity="0.9882" d="M145.507 76.7142C143.488 75.8682 141.258 76.3297 139.739 77.714L143.469 68.7545C144.007 67.4855 143.392 66.0243 142.123 65.4859L120.378 56.411C119.109 55.8727 117.647 56.4879 117.109 57.7569L107.823 80.0019C107.284 81.2709 107.9 82.7321 109.169 83.2705L117.878 86.9043C116.513 85.3854 116.052 83.1551 116.878 81.1363C118.051 78.3293 121.262 77.0218 124.069 78.1946C126.876 79.3674 128.184 82.5783 127.011 85.3854C126.165 87.4042 124.261 88.6346 122.204 88.7308L130.914 92.3646C132.183 92.903 133.644 92.2877 134.182 91.0187L137.912 82.0592C138.008 84.1164 139.239 86.0198 141.258 86.8658C144.065 88.0386 147.276 86.712 148.448 83.9241C149.621 81.0978 148.314 77.887 145.507 76.7142Z" fill="#5A66FF" stroke="#100917" stroke-miterlimit="10" stroke-linecap="round" stroke-linejoin="round"/>
<path opacity="0.9882" d="M122.512 97.2675H110.015C112.476 98.4403 114.187 100.94 114.187 103.843C114.187 107.881 110.918 111.149 106.881 111.149C102.843 111.149 99.5748 107.881 99.5748 103.843C99.5748 100.94 101.286 98.4403 103.747 97.2675H91.2497C89.3847 97.2675 87.885 98.7671 87.885 100.632V113.495C86.7122 111.034 84.2128 109.322 81.3096 109.322C77.272 109.322 74.0035 112.591 74.0035 116.629C74.0035 120.666 77.272 123.935 81.3096 123.935C84.2128 123.935 86.7122 122.224 87.885 119.763V132.625C87.885 134.49 89.3847 135.99 91.2497 135.99H122.512C124.377 135.99 125.877 134.49 125.877 132.625V100.632C125.877 98.7671 124.377 97.2675 122.512 97.2675Z" fill="#B180E0" stroke="#100917" stroke-miterlimit="10" stroke-linecap="round" stroke-linejoin="round"/>
<path opacity="0.9882" d="M82.0777 109.111C84.9809 109.111 87.4803 110.822 88.6531 113.283V100.786C88.6531 98.9207 87.1534 97.421 85.2884 97.421H72.4259C74.8869 96.2482 76.5981 93.7488 76.5981 90.8456C76.5981 86.808 73.3296 83.5396 69.292 83.5396C65.2545 83.5396 61.9859 86.808 61.9859 90.8456C61.9859 93.7488 63.6971 96.2482 66.1581 97.421H53.2955C51.4306 97.421 49.9309 98.9207 49.9309 100.786V132.048C49.9309 133.913 51.4306 135.413 53.2955 135.413H85.2884C87.1534 135.413 88.6531 133.913 88.6531 132.048V119.551C87.4803 122.012 84.9809 123.723 82.0777 123.723C78.0401 123.723 74.7715 120.454 74.7715 116.417C74.7715 112.379 78.0401 109.111 82.0777 109.111Z" fill="#5A66FF" stroke="#100917" stroke-miterlimit="10" stroke-linecap="round" stroke-linejoin="round"/>
<path d="M107.649 129.068C103.208 129.03 99.1321 126.915 97.0941 123.627C99.1898 120.339 103.304 118.301 107.746 118.34C112.187 118.378 116.263 120.493 118.301 123.781C116.205 127.049 112.091 129.106 107.649 129.068Z" fill="white" stroke="black" stroke-miterlimit="10" stroke-linecap="round" stroke-linejoin="round"/>
<path d="M110.475 123.031C109.918 123.031 109.399 122.8 109.014 122.415C108.63 122.031 108.418 121.493 108.418 120.954C108.418 120.762 108.341 120.589 108.226 120.474C108.111 120.358 107.918 120.262 107.745 120.262C106.822 120.262 105.957 120.608 105.303 121.262C104.65 121.916 104.285 122.781 104.265 123.684C104.246 124.588 104.611 125.473 105.265 126.126C105.9 126.78 106.784 127.145 107.707 127.164C108.63 127.164 109.495 126.818 110.149 126.165C110.802 125.511 111.168 124.646 111.187 123.742C111.187 123.55 111.11 123.377 110.995 123.261C110.879 123.146 110.668 123.031 110.475 123.031Z" fill="black"/>
<path d="M107.765 115.244L107.707 118.32" stroke="black" stroke-miterlimit="10" stroke-linecap="round" stroke-linejoin="round"/>
<path d="M102.324 116.147L103.843 118.801" stroke="black" stroke-miterlimit="10" stroke-linecap="round" stroke-linejoin="round"/>
<path d="M113.148 116.244L111.571 118.878" stroke="black" stroke-miterlimit="10" stroke-linecap="round" stroke-linejoin="round"/>
<path d="M68.7973 69.1788L68.522 69.0018C67.7884 68.5302 66.7085 68.1776 65.7545 68.1776C65.2567 68.1776 64.8087 68.2747 64.333 68.4766C63.8684 68.7156 63.4707 68.9414 63.0871 69.1593C62.8958 69.2679 62.7079 69.3746 62.5171 69.4799M68.7973 69.1788L62.2745 69.0427M68.7973 69.1788L69.0697 68.9972C69.7936 68.5146 70.8888 68.1776 71.8301 68.1776C72.3441 68.1776 72.7887 68.2619 73.1923 68.4372C73.963 68.8323 74.5278 69.1524 75.0765 69.474L75.0795 69.4758C76.0866 70.0568 76.9687 70.547 78.3935 71.1717C78.6023 71.268 78.7112 71.4948 78.6674 71.7025C78.1373 73.9928 76.2344 75.9832 73.1805 77.2312C71.5474 77.8881 70.1898 78.1944 68.8885 78.1944C67.5649 78.1944 66.2239 77.9059 64.4917 77.247C61.3661 76.0374 59.4855 74.1059 58.9366 71.7031M68.7973 69.1788L58.9366 71.7031M62.5171 69.4799C62.5167 69.4801 62.5164 69.4803 62.5161 69.4805L62.2745 69.0427M62.5171 69.4799C62.5174 69.4797 62.5177 69.4795 62.5181 69.4794L62.2745 69.0427M62.5171 69.4799C62.4309 69.528 62.3456 69.5757 62.2607 69.6231C61.3641 70.1246 60.5133 70.6004 59.2104 71.1717M62.2745 69.0427C62.188 69.0909 62.1025 69.1388 62.0176 69.1863C61.121 69.6876 60.2881 70.1534 59.0061 70.7154M59.2104 71.1717C59.2113 71.1713 59.2121 71.1709 59.213 71.1706L59.0061 70.7154M59.2104 71.1717C59.0014 71.2681 58.8925 71.4953 58.9366 71.7031M59.2104 71.1717C59.2092 71.1722 59.208 71.1728 59.2068 71.1733L59.0061 70.7154M59.0061 70.7154L58.9366 71.7031" fill="#FF88B6" stroke="black"/>
<path d="M65.6201 73.1763H71.9455" stroke="black" stroke-miterlimit="10" stroke-linecap="round"/>
<path d="M32.1663 43.9907C42.0871 34.8581 57.8529 26.1292 72.7534 24.9564" stroke="#181919" stroke-miterlimit="10" stroke-linecap="round" stroke-linejoin="round"/>
<path d="M26.3598 51.3158C27.8889 51.3158 29.1284 50.0763 29.1284 48.5472C29.1284 47.0181 27.8889 45.7786 26.3598 45.7786C24.8307 45.7786 23.5912 47.0181 23.5912 48.5472C23.5912 50.0763 24.8307 51.3158 26.3598 51.3158Z" fill="#FFF58C" stroke="#181919" stroke-miterlimit="10" stroke-linecap="round" stroke-linejoin="round"/>
<path d="M144.199 43.9907C134.279 34.8581 118.513 26.1292 103.612 24.9564" stroke="#181919" stroke-miterlimit="10" stroke-linecap="round" stroke-linejoin="round"/>
<path d="M150.006 51.3158C151.535 51.3158 152.774 50.0763 152.774 48.5472C152.774 47.0181 151.535 45.7786 150.006 45.7786C148.477 45.7786 147.237 47.0181 147.237 48.5472C147.237 50.0763 148.477 51.3158 150.006 51.3158Z" fill="#FFF58C" stroke="#181919" stroke-miterlimit="10" stroke-linecap="round" stroke-linejoin="round"/>
<path d="M88.9619 11.8209L90.6873 17.1397C90.8407 17.6389 91.3009 17.9653 91.8185 17.9653H97.3975C98.5478 17.9653 99.0271 19.4439 98.1069 20.1159L93.5823 23.3994C93.1605 23.7066 92.988 24.2442 93.1413 24.7243L94.8668 30.0431C95.2311 31.1376 93.9657 32.0592 93.0263 31.368L88.5017 28.0845C88.08 27.7773 87.524 27.7773 87.1022 28.0845L82.5776 31.368C81.6382 32.04 80.392 31.1376 80.7371 30.0431L82.4626 24.7243C82.616 24.225 82.4434 23.6874 82.0216 23.3994L77.4971 20.1159C76.5576 19.4439 77.0369 17.9653 78.2064 17.9653H83.7855C84.3031 17.9653 84.7632 17.6389 84.9166 17.1397L86.6421 11.8209C87.0639 10.7264 88.6168 10.7264 88.9619 11.8209Z" fill="#FFF58C" stroke="#181919" stroke-miterlimit="10" stroke-linecap="round" stroke-linejoin="round"/>
</svg>
