<svg width="175" height="175" viewBox="0 0 175 175" fill="none" xmlns="http://www.w3.org/2000/svg">
<path d="M87.7023 174.444C135.576 174.444 174.386 135.634 174.386 87.7602C174.386 39.8862 135.576 1.07666 87.7023 1.07666C39.8283 1.07666 1.0188 39.8862 1.0188 87.7602C1.0188 135.634 39.8283 174.444 87.7023 174.444Z" fill="#5A66FF" stroke="#181919" stroke-miterlimit="10"/>
<path d="M5.84677 60.2515C7.78159 53.1061 11.4022 46.4396 16.3446 40.9417C15.5783 44.8688 14.927 48.8916 15.3484 52.8953C15.7507 56.8799 17.3216 60.8837 20.3483 63.5273C22.7046 65.5962 25.7696 66.6881 28.8538 67.2245C29.5818 67.3586 30.3289 67.4543 31.0185 67.6842C32.1487 68.0674 33.1449 68.7762 34.1027 69.485C36.9571 71.6305 39.8114 74.2549 40.5585 77.7414C41.1523 80.5191 40.4627 83.8524 42.34 85.7106C43.8534 88.8906 46.6311 91.4575 49.9452 92.7027C53.6807 94.1012 57.9335 93.8521 61.5158 95.5954C62.7035 96.1701 63.8146 96.9747 65.0981 97.3386C63.2399 97.1471 61.3625 97.1854 59.5235 97.4536C57.9143 97.6835 56.3244 98.0858 54.6961 98.0858C53.6616 98.0858 52.608 97.9133 51.5927 97.6834C45.3093 96.2275 39.6007 91.7449 37.5126 85.634C36.8996 83.8524 36.6122 81.975 36.0184 80.1935C35.4437 78.4119 34.5241 76.6304 32.9916 75.5384C31.7273 74.6381 30.1564 74.2741 28.6239 73.9293C27.4745 73.6803 26.3251 73.4121 25.2715 72.8565C20.8655 73.7952 16.0764 73.4121 12.2068 71.1324C8.33714 68.8528 4.73569 64.3127 5.84677 60.2515Z" fill="white"/>
<path d="M130.594 87.8561C132.931 86.3044 134.291 83.6417 135.115 80.9789C135.958 78.297 136.36 75.5001 137.337 72.8757C139.598 66.8222 144.617 62.2438 149.789 58.355C153.888 55.2708 158.409 52.1866 160.287 47.4166C160.9 45.8457 161.187 44.16 161.973 42.6849C158.543 35.2905 153.046 29.6584 147.663 24.1988C146.628 23.1452 145.574 22.0915 144.368 21.2295C139.866 22.9727 136.207 26.4209 133.621 30.4055C131.035 34.3901 129.406 38.9111 127.855 43.4129C127.433 44.658 126.993 45.9415 127.031 47.2633C127.069 48.6809 127.625 50.1176 127.222 51.4778C126.284 56.5734 126.648 61.8989 128.889 66.439C129.464 67.5884 130.153 68.7187 130.402 69.9639C130.594 70.9025 130.556 71.8795 130.709 72.8373C130.881 73.8526 131.284 74.8297 131.437 75.8641C131.858 78.7759 130.786 81.8793 128.774 84.044C128.123 84.7336 127.242 85.4424 126.36 85.8255C124.177 86.7833 121.284 85.9022 119.081 84.9635C115.23 83.3352 111.054 81.6877 106.859 81.8601C102.664 82.0325 98.4684 83.5076 95.4034 86.3619C93.6027 88.0477 92.2617 90.1549 91.0931 92.3388C89.7522 94.8483 88.622 97.4919 87.8174 100.614C88.5836 100.672 89.3882 100.212 90.1161 100.48C90.3269 100.557 90.4993 100.691 90.71 100.749C90.9782 100.844 91.2655 100.806 91.5529 100.806C92.8364 100.768 94.1391 101.093 95.4225 102.243C96.5336 99.1777 98.5259 96.4575 101.112 94.4843C101.936 93.8521 102.836 93.2966 103.813 92.9135C105.231 92.3771 106.782 92.243 108.296 92.128C112.778 91.7832 117.261 91.5342 121.763 91.3618C123.391 91.3043 125.058 91.2469 126.609 90.7105C128.18 90.2124 129.215 88.7948 130.594 87.8561Z" fill="white"/>
<mask id="mask0_457_6681" style="mask-type:luminance" maskUnits="userSpaceOnUse" x="87" y="21" width="75" height="82">
<path d="M130.594 88.1242C132.931 86.5725 134.292 83.9097 135.115 81.247C135.958 78.565 136.361 75.7682 137.337 73.1437C139.598 67.0902 144.617 62.5118 149.789 58.623C153.889 55.5388 158.41 52.4546 160.287 47.6846C160.9 46.1137 161.187 44.428 161.973 42.9529C158.544 35.5585 153.046 29.9264 147.663 24.4668C146.628 23.4132 145.575 22.3596 144.368 21.4976C139.866 23.2408 136.207 26.689 133.621 30.6736C131.035 34.6581 129.407 39.1791 127.855 43.6809C127.434 44.926 126.993 46.2095 127.031 47.5314C127.07 48.9489 127.625 50.3857 127.223 51.7458C126.284 56.8415 126.648 62.167 128.889 66.7071C129.464 67.8565 130.154 68.9867 130.403 70.2319C130.594 71.1706 130.556 72.1476 130.709 73.1054C130.882 74.1207 131.284 75.0977 131.437 76.1321C131.859 79.0439 130.269 82.2622 128.142 84.0246C127.414 84.6376 126.801 85.3848 125.92 85.7679C123.736 86.7257 121.265 85.5763 119.062 84.6377C115.212 83.0093 111.036 81.9557 106.84 82.1281C102.645 82.3006 98.4496 83.7756 95.3846 86.63C93.5839 88.3157 92.2429 90.423 91.0743 92.6068C89.7334 95.1163 88.6032 97.7599 87.7986 100.882C88.5648 100.94 89.3694 100.48 90.0974 100.748C90.3081 100.825 90.4805 100.959 90.6912 101.017C90.9594 101.112 91.2468 101.074 91.5341 101.074C92.8176 101.036 94.1203 101.361 95.4038 102.511C96.5148 99.4457 98.5071 96.7255 101.093 94.7523C101.917 94.1202 102.817 93.5646 103.794 93.1815C105.212 92.6451 106.764 92.511 108.277 92.3961C112.76 92.0513 117.242 91.8022 121.744 91.6298C123.372 91.5723 125.039 91.5149 126.591 90.9785C128.181 90.4804 129.215 89.0628 130.594 88.1242Z" fill="white"/>
</mask>
<g mask="url(#mask0_457_6681)">
<path d="M160.919 0.368164L185.899 48.5661" stroke="black" stroke-miterlimit="10"/>
<path d="M156.743 5.09985L181.742 53.2978" stroke="black" stroke-miterlimit="10"/>
<path d="M152.586 9.83154L177.566 58.0295" stroke="black" stroke-miterlimit="10"/>
<path d="M148.41 14.563L173.39 62.761" stroke="black" stroke-miterlimit="10"/>
<path d="M144.234 19.2947L169.233 67.4927" stroke="black" stroke-miterlimit="10"/>
<path d="M140.077 24.0264L165.057 72.2052" stroke="black" stroke-miterlimit="10"/>
<path d="M135.901 28.7581L160.881 76.9369" stroke="black" stroke-miterlimit="10"/>
<path d="M131.725 33.4707L156.724 81.6687" stroke="black" stroke-miterlimit="10"/>
<path d="M127.568 38.2024L152.548 86.4004" stroke="black" stroke-miterlimit="10"/>
<path d="M123.391 42.9341L148.391 91.1321" stroke="black" stroke-miterlimit="10"/>
<path d="M119.215 47.6658L144.215 95.8637" stroke="black" stroke-miterlimit="10"/>
<path d="M115.058 52.3972L140.038 100.595" stroke="black" stroke-miterlimit="10"/>
<path d="M110.882 57.1289L135.882 105.308" stroke="black" stroke-miterlimit="10"/>
<path d="M106.725 61.8606L131.705 110.039" stroke="black" stroke-miterlimit="10"/>
<path d="M102.549 66.5732L127.529 114.771" stroke="black" stroke-miterlimit="10"/>
<path d="M98.3729 71.3049L123.372 119.503" stroke="black" stroke-miterlimit="10"/>
<path d="M94.2161 76.0366L119.196 124.235" stroke="black" stroke-miterlimit="10"/>
<path d="M90.0399 80.7686L115.02 128.967" stroke="black" stroke-miterlimit="10"/>
<path d="M85.8636 85.5002L110.863 133.679" stroke="black" stroke-miterlimit="10"/>
<path d="M81.7068 90.2317L106.687 138.41" stroke="black" stroke-miterlimit="10"/>
<path d="M77.5306 94.9438L102.53 143.142" stroke="black" stroke-miterlimit="10"/>
</g>
<mask id="mask1_457_6681" style="mask-type:luminance" maskUnits="userSpaceOnUse" x="5" y="40" width="68" height="68">
<path d="M70.3083 107.549C70.0593 106.725 69.3505 106.15 68.68 105.614C67.6839 104.81 66.6877 104.024 65.6916 103.22C64.523 102.281 63.3545 101.342 62.0519 100.595C57.5884 97.9898 52.1862 97.7407 47.2821 96.1124C45.6921 95.576 44.1404 94.9055 42.8378 93.8519C40.2133 91.7639 38.8341 88.4881 37.7613 85.3081C36.6886 82.1281 35.769 78.7948 33.7192 76.1321C31.8036 74.7911 29.9454 73.4119 27.7616 72.8755C24.0835 71.9751 20.1755 73.6418 16.4783 72.818C15.4439 72.5882 14.4669 72.1667 13.5474 71.6495C9.2946 69.3315 5.98051 65.0212 5.52075 60.1938C7.264 52.8185 10.7122 45.9605 15.5014 40.769C15.0799 45.1559 14.6393 49.6002 15.5014 53.9296C16.3634 58.2398 18.6814 62.4926 22.551 64.5807C26.6122 66.7837 31.9952 66.5347 35.1752 69.8679C35.9414 70.6725 36.497 71.6112 37.0717 72.569C38.7957 75.4616 40.539 78.3734 41.7267 81.5151C42.4547 83.4499 42.9911 85.4996 44.0639 87.2621C45.4048 89.4842 47.5886 91.2084 50.1747 91.9746C51.2667 93.5455 53.4123 93.8903 55.3088 94.1201C58.2014 94.465 61.1515 94.8864 63.7568 96.2274C65.7299 97.2427 67.3966 98.756 68.9482 100.327C70.0402 101.419 72.4156 103.737 72.5497 105.327C72.6838 106.285 71.1129 106.265 70.3083 107.549Z" fill="white"/>
</mask>
<g mask="url(#mask1_457_6681)">
<path d="M5.69328 1.51733L-19.2869 49.7153" stroke="black" stroke-miterlimit="10"/>
<path d="M9.83122 7.24512L-15.1489 55.4239" stroke="black" stroke-miterlimit="10"/>
<path d="M13.9689 12.9536L-11.0112 61.1515" stroke="black" stroke-miterlimit="10"/>
<path d="M18.1067 18.6624L-6.87354 66.8603" stroke="black" stroke-miterlimit="10"/>
<path d="M22.2446 24.3901L-2.7356 72.5689" stroke="black" stroke-miterlimit="10"/>
<path d="M26.3825 30.0986L1.40234 78.2966" stroke="black" stroke-miterlimit="10"/>
<path d="M30.5202 35.8076L5.54004 84.0056" stroke="black" stroke-miterlimit="10"/>
<path d="M34.6582 41.5164L9.67798 89.7143" stroke="black" stroke-miterlimit="10"/>
<path d="M38.7961 47.2439L13.8159 95.4227" stroke="black" stroke-miterlimit="10"/>
<path d="M42.9336 52.9526L17.9343 101.151" stroke="black" stroke-miterlimit="10"/>
<path d="M47.0715 58.6614L22.0721 106.859" stroke="black" stroke-miterlimit="10"/>
<path d="M51.2094 64.3701L26.2101 112.568" stroke="black" stroke-miterlimit="10"/>
<path d="M55.3472 70.0979L30.3479 118.277" stroke="black" stroke-miterlimit="10"/>
<path d="M59.485 75.8066L34.4857 124.005" stroke="black" stroke-miterlimit="10"/>
<path d="M63.6228 81.5151L38.6234 129.713" stroke="black" stroke-miterlimit="10"/>
<path d="M67.7607 87.2429L42.7614 135.422" stroke="black" stroke-miterlimit="10"/>
<path d="M71.8985 92.9517L46.8992 141.15" stroke="black" stroke-miterlimit="10"/>
<path d="M76.0362 98.6602L51.0369 146.858" stroke="black" stroke-miterlimit="10"/>
<path d="M80.155 104.369L55.1748 152.567" stroke="black" stroke-miterlimit="10"/>
</g>
<path d="M4.16064 110.94C4.16064 110.94 131.59 117.338 168.371 55.9604C168.371 55.9604 187.336 106.266 161.111 134.388L152.931 144.77L137.548 159.444L120.307 168.544L105.365 172.567L91.0932 174.865L75.4232 173.505L58.7569 169.425L42.0141 161.437L24.0069 146.494L11.3635 128.813C11.3444 128.813 5.23341 115.212 4.16064 110.94Z" fill="#EBEBEB"/>
<path d="M169.808 61.803C169.846 57.2629 166.609 53.4316 164.904 49.2171C163.984 46.9375 163.486 44.428 161.935 42.5315C161.149 46.8992 159.138 51.6883 155.9 54.5809C152.663 57.4736 148.889 59.6957 145.46 62.3585C142.031 65.0213 138.832 68.2396 137.357 72.32C136.035 75.998 136.169 80.155 134.407 83.6415C132.759 86.8981 129.579 89.1778 126.169 90.423C122.74 91.6681 119.062 92.0129 115.423 92.1662C111.553 92.3386 107.607 92.3577 103.986 93.6795C100.346 95.0013 97.0322 97.9515 96.0552 101.764C99.2543 103.392 102.262 105.403 105.001 107.702C107.798 104.656 111.476 100.748 115.346 99.2733C117.434 98.4687 121.15 97.645 121.15 97.645C121.15 97.645 125.939 97.0128 128.353 96.2849C130.345 95.6719 131.974 94.7523 133.506 93.3156C137.606 89.5226 141.629 89.7141 144.694 85.0399C146.265 82.6453 148.812 81.017 151.533 80.0975C154.253 79.178 152.72 72.5882 155.575 72.4541C156.973 72.3774 158.372 72.3391 159.713 71.9943C164.597 70.8257 169.77 66.6879 169.808 61.803Z" fill="#FF88B6"/>
<path d="M39.715 16.3827C30.788 20.7312 23.8533 28.3364 18.0489 36.4013C17.0527 37.7806 16.0758 39.2173 15.616 40.8648C15.1754 42.4356 15.252 44.1023 15.3478 45.7498C15.501 48.47 15.6734 51.1711 15.8842 53.8913C15.98 55.2323 16.1141 56.6307 16.6888 57.8376C17.2635 59.0444 18.2405 60.0023 19.2175 60.9026C21.1906 62.7225 23.2978 64.4657 25.6923 65.6918C28.0103 66.8795 30.539 67.5691 32.8569 68.7377C35.1749 69.9062 37.3779 71.6877 37.761 74.159C41.7647 78.1435 41.1517 85.1165 44.9064 89.331C47.1094 91.8214 50.5002 92.9132 53.7568 93.5454C57.0325 94.1776 60.4041 94.4649 63.4691 95.7676C67.9134 97.6832 71.3425 101.821 72.4153 106.821C72.9325 105.595 74.0052 104.695 75.1546 104.043C76.304 103.392 77.5684 102.97 78.7369 102.128C75.8443 97.4534 75.078 91.2275 70.672 87.9517C66.9939 85.1932 61.9558 85.423 57.5114 84.2353C52.2242 82.8177 47.55 79.1588 44.3125 74.3888C43.3739 72.3965 42.5502 70.3468 41.6498 68.0863C40.9602 59.6766 38.5272 51.4201 38.5656 42.972C38.5847 39.8303 38.9487 36.6887 39.3127 33.547C40.0598 27.1679 40.8069 20.7504 42.3011 14.5054C41.3624 15.2908 40.4238 16.0379 39.715 16.3827Z" fill="#56B381"/>
<path d="M5.923 59.4275C5.80806 65.8641 11.0378 71.9751 17.4361 72.8371C20.7118 73.2777 24.0834 72.4923 27.3401 73.1053C30.1369 73.6417 32.723 75.27 34.428 77.5497C37.9719 82.3005 37.6463 89.4075 41.9565 93.4879C45.9603 97.2809 52.1861 96.8786 57.5117 98.3345C62.7606 99.7521 67.4156 103.239 70.27 107.855" stroke="black" stroke-miterlimit="10" stroke-linecap="round" stroke-linejoin="round"/>
<path d="M169.693 59.4275C169.808 65.8641 164.578 71.9751 158.18 72.8371C154.904 73.2777 154.061 79.5228 150.804 80.1549C148.007 80.6913 145.421 82.3196 143.716 84.5993C140.172 89.3501 137.969 89.4267 133.678 93.5071C129.675 97.3001 123.449 96.8978 118.123 98.3537C112.874 99.7713 108.219 103.258 105.365 107.875" stroke="black" stroke-miterlimit="10" stroke-linecap="round" stroke-linejoin="round"/>
<path d="M88.5834 99.9055C88.8899 94.2352 91.9932 88.7756 96.6866 85.5956C101.38 82.4156 107.587 81.5536 112.97 83.3543C117.395 84.8293 121.858 88.0284 126.264 86.5342C130.249 85.1933 132.126 80.4233 131.858 76.2472C131.59 72.0519 129.732 68.1439 128.525 64.1211C125.613 54.4278 126.552 43.6426 131.073 34.5816C133.793 29.122 138.199 24.0263 144.137 22.5896" stroke="black" stroke-miterlimit="10" stroke-linecap="round" stroke-linejoin="round"/>
<path d="M160.958 41.3057C162.528 53.7574 150.786 57.0524 140.269 67.5693C135.786 72.2244 137.261 78.8334 134.004 84.4272C125.901 99.3885 103.929 84.9444 96.0552 100.653" stroke="black" stroke-miterlimit="10" stroke-linecap="round" stroke-linejoin="round"/>
<path d="M42.0713 14.2183C38.4315 28.9688 37.8951 44.4665 40.5004 59.447C41.4391 64.8491 42.8184 70.2704 45.711 74.9255C48.6037 79.5805 53.163 83.431 58.546 84.3888C60.5574 84.7528 62.6263 84.6954 64.6186 85.1552C68.2583 85.998 71.3425 88.5075 73.5264 91.5151C75.7102 94.5418 77.0704 98.0667 78.2197 101.611" stroke="black" stroke-miterlimit="10" stroke-linecap="round" stroke-linejoin="round"/>
<path d="M72.5883 105.327C70.1746 100.27 65.4812 96.3425 60.079 94.8866C56.65 93.9671 52.9911 93.9671 49.6962 92.6645C45.9798 91.1894 42.9722 88.0286 41.7079 84.2356C41.0183 82.1858 40.8267 80.0211 40.2137 77.9522C38.8919 73.4504 35.5012 69.6191 31.1909 67.7226C28.1834 66.4008 24.7735 65.9985 21.9575 64.3127C18.1453 62.0139 15.9806 57.6462 15.2909 53.2402C14.6205 48.8342 15.2335 44.3516 15.8657 39.9456" stroke="black" stroke-miterlimit="10" stroke-linecap="round" stroke-linejoin="round"/>
<path d="M4.16064 110.94C4.16064 110.94 131.59 117.338 168.371 55.9604" stroke="black" stroke-miterlimit="10" stroke-linecap="round"/>
<path d="M26.0955 48.5657C27.619 48.5657 28.854 47.3306 28.854 45.8071C28.854 44.2836 27.619 43.0486 26.0955 43.0486C24.572 43.0486 23.3369 44.2836 23.3369 45.8071C23.3369 47.3306 24.572 48.5657 26.0955 48.5657Z" fill="#FFF58C" stroke="#181919" stroke-miterlimit="10" stroke-linecap="round" stroke-linejoin="round"/>
<path d="M150.019 49.3704C151.543 49.3704 152.778 48.1353 152.778 46.6118C152.778 45.0883 151.543 43.8533 150.019 43.8533C148.496 43.8533 147.261 45.0883 147.261 46.6118C147.261 48.1353 148.496 49.3704 150.019 49.3704Z" fill="#FFF58C" stroke="#181919" stroke-miterlimit="10" stroke-linecap="round" stroke-linejoin="round"/>
<path d="M56.9947 129.656H42.7039" stroke="black" stroke-miterlimit="10" stroke-linecap="round"/>
<path d="M100.518 58.0483V69.9829H89.6567V81.9175H78.7949V93.852H67.9332V105.787H67.8948H57.0331V117.721H46.1713V127.702C46.1713 128.774 47.1483 129.656 48.336 129.656H57.0331H114.484C115.691 129.656 116.648 128.774 116.648 127.702V69.9829V60.0023C116.648 58.9296 115.671 58.0483 114.484 58.0483H100.518Z" fill="white" stroke="black" stroke-miterlimit="10"/>
<path d="M56.9947 117.721H42.7039" stroke="black" stroke-miterlimit="10" stroke-linecap="round"/>
<path d="M67.914 105.787H53.604" stroke="black" stroke-miterlimit="10" stroke-linecap="round"/>
<path d="M78.814 93.8521H64.5232" stroke="black" stroke-miterlimit="10" stroke-linecap="round"/>
<path d="M89.6376 81.9172H75.3468" stroke="black" stroke-miterlimit="10" stroke-linecap="round"/>
<path d="M100.518 70.0022H86.2275" stroke="black" stroke-miterlimit="10" stroke-linecap="round"/>
<path d="M110.691 58.0483H96.3998" stroke="black" stroke-miterlimit="10" stroke-linecap="round"/>
<path d="M105.71 82.8179V119.005" stroke="black" stroke-miterlimit="10" stroke-linecap="round"/>
<path d="M87.6835 174.367C135.558 174.367 174.367 135.558 174.367 87.6835C174.367 39.8095 135.558 1 87.6835 1C39.8095 1 1 39.8095 1 87.6835C1 135.558 39.8095 174.367 87.6835 174.367Z" stroke="#181919" stroke-miterlimit="10"/>
<path d="M118.334 149.655C128.174 149.655 136.15 141.679 136.15 131.84C136.15 122 128.174 114.024 118.334 114.024C108.495 114.024 100.519 122 100.519 131.84C100.519 141.679 108.495 149.655 118.334 149.655Z" fill="#B180E0" stroke="#181919" stroke-miterlimit="10"/>
<path d="M125.633 133.277L121.227 122.491C120.901 121.687 119.829 121.514 119.273 122.185L110.787 131.208C110.154 131.974 110.71 133.123 111.706 133.104L116.227 133.008L115.308 139.502C115.212 140.135 115.652 140.728 116.304 140.805L118.258 141.073C118.89 141.169 119.484 140.728 119.56 140.077L120.48 133.506L124.235 134.752C125.135 135.135 126.016 134.196 125.633 133.277Z" fill="white" stroke="#181919" stroke-miterlimit="10"/>
</svg>
