<svg width="113" height="97" viewBox="0 0 113 97" fill="none" xmlns="http://www.w3.org/2000/svg">
<path d="M14.9562 92.2174L1.1415 40.7559C0.550498 38.5544 1.86547 36.2938 4.06696 35.7028L36.9858 26.8673C39.2021 26.2763 41.4626 27.5765 42.0536 29.7928L55.8683 81.2543C56.4593 83.4558 55.1444 85.7164 52.9429 86.3074L20.024 95.1429C17.8225 95.7339 15.5472 94.4337 14.9562 92.2174Z" fill="#EBEBEB" stroke="#181919" stroke-miterlimit="10" stroke-linecap="round" stroke-linejoin="round"/>
<path d="M52.0859 78.1368L39.4385 30.9896C39.1873 30.0588 38.2417 29.5121 37.3109 29.7633L8.48473 37.5054C8.30743 40.0763 7.00722 42.4255 4.95349 43.8735L17.6009 91.0207C17.8521 91.9515 18.7977 92.4982 19.7286 92.247L48.5547 84.5049C48.732 81.9488 50.0322 79.5996 52.0859 78.1368Z" fill="#B180E0" stroke="#181919" stroke-miterlimit="10" stroke-linecap="round" stroke-linejoin="round"/>
<path d="M20.5558 81.8897L36.6458 77.5753" stroke="#181919" stroke-miterlimit="10" stroke-linecap="round" stroke-linejoin="round"/>
<path d="M21.3982 85.6721L42.6891 79.9541" stroke="#181919" stroke-miterlimit="10" stroke-linecap="round" stroke-linejoin="round"/>
<path d="M30.337 69.6411C24.6634 71.1629 18.842 67.7942 17.3202 62.1354C15.8722 56.7425 19.0784 51.1871 24.4713 49.7391L24.9589 49.6061C30.4848 48.1286 36.1732 51.4087 37.6654 56.9346C39.143 62.4752 35.8629 68.1636 30.337 69.6411Z" fill="#EBEBEB" stroke="#181919" stroke-miterlimit="10" stroke-linecap="round" stroke-linejoin="round"/>
<path d="M21.1616 67.543L36.7493 63.8492" stroke="#181919" stroke-miterlimit="10" stroke-linecap="round" stroke-linejoin="round"/>
<path d="M18.65 63.4208L37.5916 58.3381" stroke="#181919" stroke-miterlimit="10" stroke-linecap="round" stroke-linejoin="round"/>
<path d="M17.468 59.6236L36.3949 54.541" stroke="#181919" stroke-miterlimit="10" stroke-linecap="round" stroke-linejoin="round"/>
<path d="M18.8125 54.9694L32.4942 51.2904" stroke="#181919" stroke-miterlimit="10" stroke-linecap="round" stroke-linejoin="round"/>
<path d="M25.0921 52.1474C24.9739 49.9607 25.6387 47.7296 26.9389 45.9419C27.5743 45.0849 28.313 44.3166 29.1552 43.6517" stroke="#181919" stroke-miterlimit="10" stroke-linecap="round" stroke-linejoin="round"/>
<path d="M56.4742 81.5648L71.1163 30.3249C71.7368 28.1234 74.0417 26.8527 76.2285 27.4881L109 36.8555C111.201 37.476 112.472 39.7661 111.836 41.9676L97.1943 93.2075C96.5737 95.409 94.2688 96.6797 92.0821 96.0444L59.311 86.677C57.1095 86.0564 55.8389 83.7663 56.4742 81.5648Z" fill="#EBEBEB" stroke="#181919" stroke-miterlimit="10" stroke-linecap="round" stroke-linejoin="round"/>
<path d="M107.773 39.5002L79.0651 31.3C77.5876 33.4129 75.268 34.7574 72.7562 34.9495L59.3404 81.8899C59.0745 82.8059 59.6064 83.7663 60.5372 84.0322L89.2452 92.2324C90.7227 90.1196 93.0424 88.775 95.5541 88.583L108.97 41.6426C109.221 40.7265 108.689 39.7662 107.773 39.5002Z" fill="#56B381" stroke="#181919" stroke-miterlimit="10" stroke-linecap="round" stroke-linejoin="round"/>
<path d="M74.1155 64.6178L78.1491 50.4929L94.9927 55.3095L90.9591 69.4345C90.5011 71.045 88.8167 71.9758 87.2062 71.5178L76.2136 68.3707C74.5883 67.9127 73.6575 66.2283 74.1155 64.6178Z" fill="#EBEBEB" stroke="#181919" stroke-miterlimit="10" stroke-linecap="round" stroke-linejoin="round"/>
<path d="M85.256 53.3593L80.7201 69.272" stroke="#181919" stroke-miterlimit="10" stroke-linecap="round" stroke-linejoin="round"/>
<path d="M88.536 54.1571L83.9852 70.0698" stroke="#181919" stroke-miterlimit="10" stroke-linecap="round" stroke-linejoin="round"/>
<path d="M66.5952 75.5808L82.6114 80.1611" stroke="#181919" stroke-miterlimit="10" stroke-linecap="round" stroke-linejoin="round"/>
<path d="M65.3687 79.2599L86.5561 85.3177" stroke="#181919" stroke-miterlimit="10" stroke-linecap="round" stroke-linejoin="round"/>
<path d="M35.6265 82.9388V29.0689C35.6265 26.9561 37.3404 25.2274 39.468 25.2274H74.1599C76.2727 25.2274 78.0014 26.9413 78.0014 29.0689V82.9536C78.0014 85.0664 76.2875 86.7951 74.1599 86.7951H39.468C37.3404 86.7803 35.6265 85.0664 35.6265 82.9388Z" fill="#EBEBEB" stroke="#181919" stroke-miterlimit="10" stroke-linecap="round" stroke-linejoin="round"/>
<path d="M75.135 78.6688V29.7191C75.135 28.8326 74.411 28.1086 73.5245 28.1086H43.5459C42.7038 30.5465 40.8421 32.4672 38.4781 33.3537V82.3035C38.4781 83.19 39.2021 83.914 40.0886 83.914H70.0672C70.9093 81.4761 72.771 79.5406 75.135 78.6688Z" fill="#FF88B6" stroke="#181919" stroke-miterlimit="10" stroke-linecap="round" stroke-linejoin="round"/>
<path d="M47.934 57.9985V49.03H65.4425V57.9985C65.4425 62.8299 61.5271 66.7601 56.6809 66.7601C51.8494 66.7601 47.934 62.8299 47.934 57.9985Z" fill="#EBEBEB" stroke="#181919" stroke-miterlimit="10" stroke-linecap="round" stroke-linejoin="round"/>
<path d="M51.2585 49.296V64.4996" stroke="#181919" stroke-miterlimit="10" stroke-linecap="round" stroke-linejoin="round"/>
<path d="M55.558 49.8278V66.3906" stroke="#181919" stroke-miterlimit="10" stroke-linecap="round" stroke-linejoin="round"/>
<path d="M58.9268 49.6949V66.2578" stroke="#181919" stroke-miterlimit="10" stroke-linecap="round" stroke-linejoin="round"/>
<path d="M62.4285 49.562V63.7756" stroke="#181919" stroke-miterlimit="10" stroke-linecap="round" stroke-linejoin="round"/>
<path d="M53.2531 44.3906V48.6754" stroke="#181919" stroke-miterlimit="10" stroke-linecap="round" stroke-linejoin="round"/>
<path d="M60.611 44.3906V48.6754" stroke="#181919" stroke-miterlimit="10" stroke-linecap="round" stroke-linejoin="round"/>
<path d="M53.2531 44.3611C54.1344 44.3611 54.8488 43.6467 54.8488 42.7654C54.8488 41.8841 54.1344 41.1697 53.2531 41.1697C52.3718 41.1697 51.6574 41.8841 51.6574 42.7654C51.6574 43.6467 52.3718 44.3611 53.2531 44.3611Z" fill="#EBEBEB" stroke="#181919" stroke-miterlimit="10" stroke-linecap="round" stroke-linejoin="round"/>
<path d="M60.6406 44.3611C61.5219 44.3611 62.2363 43.6467 62.2363 42.7654C62.2363 41.8841 61.5219 41.1697 60.6406 41.1697C59.7593 41.1697 59.0449 41.8841 59.0449 42.7654C59.0449 43.6467 59.7593 44.3611 60.6406 44.3611Z" fill="#EBEBEB" stroke="#181919" stroke-miterlimit="10" stroke-linecap="round" stroke-linejoin="round"/>
<path d="M43.7084 74.1181H60.3746" stroke="#181919" stroke-miterlimit="10" stroke-linecap="round" stroke-linejoin="round"/>
<path d="M43.5459 77.9891H65.5903" stroke="#181919" stroke-miterlimit="10" stroke-linecap="round" stroke-linejoin="round"/>
<path d="M57.2823 1.63581L58.6376 5.75558C58.7581 6.14227 59.1195 6.39511 59.5261 6.39511H63.9083C64.8119 6.39511 65.1884 7.54032 64.4655 8.06087L60.9116 10.6041C60.5803 10.8421 60.4447 11.2585 60.5652 11.6303L61.9205 15.7501C62.2067 16.5979 61.2128 17.3118 60.4749 16.7763L56.9209 14.2331C56.5896 13.9951 56.1529 13.9951 55.8216 14.2331L52.2676 16.7763C51.5297 17.2969 50.5509 16.5979 50.822 15.7501L52.1773 11.6303C52.2978 11.2437 52.1622 10.8272 51.8309 10.6041L48.277 8.06087C47.5391 7.54032 47.9156 6.39511 48.8342 6.39511H53.2164C53.623 6.39511 53.9844 6.14227 54.1049 5.75558L55.4602 1.63581C55.7764 0.788062 56.9962 0.788062 57.2823 1.63581Z" fill="#FFF58C" stroke="#181919" stroke-miterlimit="10" stroke-linecap="round" stroke-linejoin="round"/>
<path d="M12.6956 20.6175C23.1711 16.0077 34.3115 12.8754 45.6587 11.3387" stroke="#181919" stroke-miterlimit="10" stroke-linecap="round" stroke-linejoin="round"/>
<path d="M8.58818 26.6162C9.76323 26.6162 10.7158 25.6637 10.7158 24.4886C10.7158 23.3136 9.76323 22.361 8.58818 22.361C7.41314 22.361 6.46057 23.3136 6.46057 24.4886C6.46057 25.6637 7.41314 26.6162 8.58818 26.6162Z" fill="#FFF58C" stroke="#181919" stroke-miterlimit="10" stroke-linecap="round" stroke-linejoin="round"/>
<path d="M100.075 21.2529C89.5995 16.6431 78.4591 13.5108 67.1119 11.9742" stroke="#181919" stroke-miterlimit="10" stroke-linecap="round" stroke-linejoin="round"/>
<path d="M104.182 27.2517C105.358 27.2517 106.31 26.2992 106.31 25.1241C106.31 23.9491 105.358 22.9965 104.182 22.9965C103.007 22.9965 102.055 23.9491 102.055 25.1241C102.055 26.2992 103.007 27.2517 104.182 27.2517Z" fill="#FFF58C" stroke="#181919" stroke-miterlimit="10" stroke-linecap="round" stroke-linejoin="round"/>
</svg>
