<svg width="176" height="175" viewBox="0 0 176 175" fill="none" xmlns="http://www.w3.org/2000/svg">
<path d="M88 173.965C136.049 173.965 175 135.246 175 87.4826C175 39.7196 136.049 1 88 1C39.9512 1 1 39.7196 1 87.4826C1 135.246 39.9512 173.965 88 173.965Z" fill="#5A66FF"/>
<mask id="mask0_474_7839" style="mask-type:luminance" maskUnits="userSpaceOnUse" x="1" y="1" width="174" height="173">
<path d="M88 173.965C136.049 173.965 175 135.246 175 87.4826C175 39.7196 136.049 1 88 1C39.9512 1 1 39.7196 1 87.4826C1 135.246 39.9512 173.965 88 173.965Z" fill="white"/>
</mask>
<g mask="url(#mask0_474_7839)">
<path d="M-10.4205 46.2956L-22.5139 67.3764L-19.1108 75.6519C-19.1108 75.6519 -15.3424 79.9522 -11.5163 81.2709C-7.69027 82.5897 1.7307 81.9972 6.96032 82.6661C12.1899 83.335 16.7466 89.9861 17.8041 92.8529C18.8616 95.7197 21.5725 103.173 24.0719 104.836C26.5714 106.499 30.955 108.544 38.5495 109.595C43.3946 110.264 47.3745 119.266 49.6816 122.63C53.277 127.924 64.1208 129.415 64.1208 129.415L68.0622 125.363C68.0622 125.363 62.1981 111.927 51.5659 108.066C40.9336 104.206 31.974 109.48 26.9175 98.8732C21.8417 88.266 24.2834 85.9725 17.9579 80.1242C11.6324 74.2759 2.26904 75.3653 -0.557262 72.8807C-3.38356 70.3961 -9.78598 64.3949 -9.49758 58.107C-9.20918 51.8 -8.94 46.1619 -8.94 46.1619L-10.4205 46.2956Z" fill="#359B61"/>
</g>
<mask id="mask1_474_7839" style="mask-type:luminance" maskUnits="userSpaceOnUse" x="1" y="1" width="174" height="173">
<path d="M88 173.965C136.049 173.965 175 135.246 175 87.4826C175 39.7196 136.049 1 88 1C39.9512 1 1 39.7196 1 87.4826C1 135.246 39.9512 173.965 88 173.965Z" fill="white"/>
</mask>
<g mask="url(#mask1_474_7839)">
<path d="M92.8643 118.54C92.8643 118.54 97.4018 105.926 111.61 104.894C125.838 103.843 139.969 104.703 143.065 99.218C146.16 93.7328 148.217 80.6792 152.197 76.7803C156.177 72.8814 175.711 61.8728 179.076 54.8395C182.441 47.8062 181.402 46.7933 181.402 46.7933L160.003 25.5405C160.003 25.5405 146.679 25.9419 137.951 43.8882C129.241 61.8346 139.758 82.3802 140.777 82.9726C141.796 83.5651 142.757 89.0503 141.604 91.4967C140.45 93.943 136.585 98.9122 131.202 98.6064C125.838 98.3006 117.224 94.1341 114.552 93.943C111.879 93.7328 101.901 95.1089 97.5364 96.2174C89.1152 98.3388 83.5972 119.076 83.5972 119.076L92.8643 118.54Z" fill="#E56CA3"/>
</g>
<mask id="mask2_474_7839" style="mask-type:luminance" maskUnits="userSpaceOnUse" x="1" y="1" width="174" height="173">
<path d="M88 173.965C136.049 173.965 175 135.246 175 87.4826C175 39.7196 136.049 1 88 1C39.9512 1 1 39.7196 1 87.4826C1 135.246 39.9512 173.965 88 173.965Z" fill="white"/>
</mask>
<g mask="url(#mask2_474_7839)">
<mask id="mask3_474_7839" style="mask-type:luminance" maskUnits="userSpaceOnUse" x="84" y="24" width="98" height="98">
<path d="M140.623 99.9815C143.661 98.2232 145.43 95.2035 146.506 92.1646C147.583 89.1258 148.141 85.9532 149.41 82.9717C152.351 76.0913 158.888 70.8928 165.598 66.4779C170.924 62.9804 176.808 59.4637 179.249 54.055C180.038 52.2775 180.422 50.3663 181.441 48.6844C176.981 40.2751 169.847 33.8916 162.849 27.6802C161.503 26.4761 160.138 25.272 158.562 24.3164C152.717 26.3041 147.948 30.2221 144.584 34.7517C141.219 39.2813 139.085 44.4033 137.086 49.5254C136.528 50.9397 135.97 52.4113 136.009 53.902C136.047 55.5075 136.778 57.1511 136.259 58.6992C135.028 64.4902 135.509 70.5297 138.412 75.7091C139.143 77.0278 140.046 78.2892 140.392 79.7226C140.642 80.7929 140.585 81.9014 140.796 82.9908C141.008 84.1566 141.546 85.2651 141.738 86.431C142.296 89.7374 140.085 92.9482 137.47 95.3946C136.624 96.1782 135.72 96.9427 134.586 97.3823C131.741 98.4717 128.53 97.172 125.665 96.1018C120.647 94.2479 115.225 93.0629 109.784 93.254C104.343 93.4452 98.8632 95.1079 94.9025 98.3761C92.5761 100.287 90.8265 102.695 89.3076 105.161C87.558 108.009 86.0968 111.009 85.0394 114.564C86.0391 114.621 83.3281 120.049 84.2702 120.355C84.5394 120.432 86.116 120.068 86.3852 120.145C86.0199 120.164 86.7313 120.24 86.3852 120.145C88.0579 120.107 90.9227 119.954 92.5954 121.272C94.0181 117.794 98.9593 109.843 102.324 107.588C103.401 106.862 104.573 106.231 105.842 105.811C107.688 105.199 109.688 105.046 111.668 104.912C117.494 104.53 123.339 104.244 129.164 104.052C131.298 103.976 133.452 103.919 135.47 103.307C137.47 102.657 138.816 101.033 140.623 99.9815Z" fill="white"/>
</mask>
<g mask="url(#mask3_474_7839)">
<path d="M174.616 5.66333L207.089 60.4006" stroke="black" stroke-miterlimit="10"/>
<path d="M169.194 11.0334L201.667 65.7707" stroke="black" stroke-miterlimit="10"/>
<path d="M163.772 16.4043L196.265 71.1607" stroke="black" stroke-miterlimit="10"/>
<path d="M158.35 21.7751L190.843 76.5315" stroke="black" stroke-miterlimit="10"/>
<path d="M152.928 27.1453L185.421 81.9017" stroke="black" stroke-miterlimit="10"/>
<path d="M147.506 32.5156L179.999 87.272" stroke="black" stroke-miterlimit="10"/>
<path d="M142.084 37.8865L174.577 92.6429" stroke="black" stroke-miterlimit="10"/>
<path d="M136.662 43.2573L169.155 98.0137" stroke="black" stroke-miterlimit="10"/>
<path d="M131.24 48.6272L163.733 103.384" stroke="black" stroke-miterlimit="10"/>
<path d="M125.838 54.0168L158.312 108.754" stroke="black" stroke-miterlimit="10"/>
<path d="M120.416 59.3875L152.889 114.125" stroke="black" stroke-miterlimit="10"/>
<path d="M114.994 64.7581L147.468 119.495" stroke="black" stroke-miterlimit="10"/>
<path d="M109.572 70.1289L142.065 124.866" stroke="black" stroke-miterlimit="10"/>
<path d="M104.15 75.499L136.643 130.255" stroke="black" stroke-miterlimit="10"/>
<path d="M98.7285 80.8699L131.221 135.626" stroke="black" stroke-miterlimit="10"/>
<path d="M93.3065 86.2405L125.799 140.997" stroke="black" stroke-miterlimit="10"/>
<path d="M87.8845 91.6106L120.377 146.367" stroke="black" stroke-miterlimit="10"/>
<path d="M82.4629 96.9805L114.956 151.737" stroke="black" stroke-miterlimit="10"/>
<path d="M77.0409 102.351L109.534 157.108" stroke="black" stroke-miterlimit="10"/>
<path d="M71.6383 107.722L104.112 162.479" stroke="black" stroke-miterlimit="10"/>
</g>
</g>
<mask id="mask4_474_7839" style="mask-type:luminance" maskUnits="userSpaceOnUse" x="1" y="1" width="174" height="173">
<path d="M88 173.965C136.049 173.965 175 135.246 175 87.4826C175 39.7196 136.049 1 88 1C39.9512 1 1 39.7196 1 87.4826C1 135.246 39.9512 173.965 88 173.965Z" fill="white"/>
</mask>
<g mask="url(#mask4_474_7839)">
<mask id="mask5_474_7839" style="mask-type:luminance" maskUnits="userSpaceOnUse" x="-22" y="46" width="91" height="85">
<path d="M65.2164 130.676C64.8896 129.739 58.5833 128.726 57.7181 128.115C56.4299 127.217 53.719 125.821 52.4308 124.923C50.9119 123.872 47.3166 120.699 46.586 118.96C41.5871 107.359 39.8951 110.857 33.5312 109.003C31.4739 108.41 28.2631 107.665 26.5712 106.48C23.1489 104.11 21.3607 100.402 19.9764 96.7708C18.5921 93.1395 17.3809 89.3744 14.7276 86.3547C12.2282 84.8257 9.82483 83.2585 6.99853 82.6469C2.23035 81.634 -2.86467 83.5261 -7.65207 82.5705C-8.99792 82.3029 -10.2669 81.8251 -11.4781 81.2517C-17.0154 78.6143 -21.3029 73.7216 -21.8989 68.2364C-19.6302 59.8461 -15.1504 52.0675 -8.92103 46.1809C-9.47859 51.1501 -10.0362 56.2148 -8.92103 61.1266C-7.80589 66.0385 -4.76806 70.8547 0.250062 73.2438C5.51813 75.7475 12.5358 75.4608 16.6695 79.245C17.65 80.1433 18.3999 81.2326 19.1305 82.3029C21.38 85.5902 23.6295 88.8966 25.1869 92.4706C26.1482 94.6685 26.8403 96.9811 28.2246 99.007C29.9742 101.53 32.8005 103.479 36.1652 104.358C37.5879 106.136 40.3758 106.518 42.8368 106.786C46.6052 107.187 50.4505 107.665 53.8151 109.194C56.3722 110.34 58.5449 112.061 60.5829 113.838C62.0056 115.08 67.9274 123.566 68.1004 125.382C68.1389 126.452 66.2547 129.204 65.2164 130.676Z" fill="white"/>
</mask>
<g mask="url(#mask5_474_7839)">
<path d="M5.13343 34.0442L-27.3594 88.8006" stroke="black" stroke-miterlimit="10"/>
<path d="M10.5169 40.5427L-21.976 95.28" stroke="black" stroke-miterlimit="10"/>
<path d="M15.8808 47.0215L-16.5928 101.778" stroke="black" stroke-miterlimit="10"/>
<path d="M21.2643 53.519L-11.2094 108.275" stroke="black" stroke-miterlimit="10"/>
<path d="M26.6476 60.0176L-5.84521 114.755" stroke="black" stroke-miterlimit="10"/>
<path d="M32.031 66.4968L-0.461792 121.253" stroke="black" stroke-miterlimit="10"/>
<path d="M37.3953 72.9951L4.92175 127.752" stroke="black" stroke-miterlimit="10"/>
<path d="M42.7791 79.4932L10.2863 134.23" stroke="black" stroke-miterlimit="10"/>
<path d="M48.1621 85.9719L15.6693 140.728" stroke="black" stroke-miterlimit="10"/>
<path d="M53.5457 92.4702L21.0529 147.227" stroke="black" stroke-miterlimit="10"/>
<path d="M58.9098 98.9683L26.4363 153.706" stroke="black" stroke-miterlimit="10"/>
<path d="M64.2932 105.448L31.8004 160.204" stroke="black" stroke-miterlimit="10"/>
<path d="M69.6771 111.946L37.1843 166.702" stroke="black" stroke-miterlimit="10"/>
<path d="M75.041 118.425L42.5674 173.181" stroke="black" stroke-miterlimit="10"/>
<path d="M80.4247 124.923L47.9319 179.679" stroke="black" stroke-miterlimit="10"/>
</g>
</g>
<mask id="mask6_474_7839" style="mask-type:luminance" maskUnits="userSpaceOnUse" x="1" y="1" width="174" height="173">
<path d="M88 173.965C136.049 173.965 175 135.246 175 87.4826C175 39.7196 136.049 1 88 1C39.9512 1 1 39.7196 1 87.4826C1 135.246 39.9512 173.965 88 173.965Z" fill="white"/>
</mask>
<g mask="url(#mask6_474_7839)">
<path d="M73.4839 116.093C75.2528 115.711 77.0216 115.329 78.6174 114.947C77.2523 111.487 75.9257 107.971 75.6373 104.32C75.3489 100.67 76.1949 96.8284 78.7905 93.9616C82.5204 89.8524 88.8844 88.5528 94.2101 86.1065C98.9206 83.9468 102.997 80.755 105.957 76.8944C108.015 74.2187 109.572 71.0078 108.976 67.8352C108.63 65.9813 107.573 64.2804 106.515 62.6558C103.804 58.4702 100.497 54.0553 95.1714 52.8321C86.5195 48.9333 76.2333 49.3728 66.5624 50.3476C62.371 50.768 58.1604 51.2841 54.1036 52.3161C43.6828 54.9345 34.7617 60.7255 26.0713 66.4018C25.4368 66.8032 24.8024 67.2427 24.4755 67.8734C24.2064 68.4277 24.2256 69.0584 24.2833 69.6509C24.7832 74.5818 27.4172 79.1305 30.032 83.5263C31.4932 85.9918 32.9928 88.5146 35.2424 90.4831C37.7226 92.6428 40.9911 93.9998 44.2788 95.051C47.9703 96.2359 51.8156 97.0768 55.6994 97.5929C57.7566 97.8604 59.91 98.0516 61.6981 98.9881C63.2939 99.829 64.4282 101.186 65.5049 102.505C68.5619 106.289 72.5226 116.457 72.5226 116.457L73.4839 116.093Z" fill="#5A66FF"/>
</g>
<mask id="mask7_474_7839" style="mask-type:luminance" maskUnits="userSpaceOnUse" x="1" y="1" width="174" height="173">
<path d="M88 173.965C136.049 173.965 175 135.246 175 87.4826C175 39.7196 136.049 1 88 1C39.9512 1 1 39.7196 1 87.4826C1 135.246 39.9512 173.965 88 173.965Z" fill="white"/>
</mask>
<g mask="url(#mask7_474_7839)">
<path d="M140.796 80.4875C139.873 80.6022 138.931 80.6595 137.97 80.6595C126.338 80.6595 116.917 72.4222 116.917 62.2736C116.917 52.125 126.338 43.8877 137.97 43.8877C138.412 43.8877 138.451 43.9833 138.874 44.0024" stroke="black" stroke-miterlimit="10" stroke-linecap="round" stroke-linejoin="round"/>
</g>
<mask id="mask8_474_7839" style="mask-type:luminance" maskUnits="userSpaceOnUse" x="1" y="1" width="174" height="173">
<path d="M88 173.965C136.049 173.965 175 135.246 175 87.4826C175 39.7196 136.049 1 88 1C39.9512 1 1 39.7196 1 87.4826C1 135.246 39.9512 173.965 88 173.965Z" fill="white"/>
</mask>
<g mask="url(#mask8_474_7839)">
<path d="M158.811 25.1774C147.891 29.1145 139.412 37.8679 136.778 47.9209C133.471 60.5732 138.969 73.493 142.603 86.0689C142.546 89.3944 141.277 92.6817 138.739 94.9178C136.201 97.1539 132.452 98.3006 128.876 97.9375C124.28 97.4597 120.377 94.7267 115.878 93.8093C112.206 93.0448 108.342 93.5417 104.669 94.268C101.747 94.8413 98.8245 95.6058 96.3058 97.001C89.6727 100.651 86.9041 108.01 86.7695 114.871C84.1162 114.298 81.8859 114.546 79.9056 115.291C76.9639 113.629 76.3487 110.685 75.9642 108.067C75.3105 103.709 74.7337 98.9313 77.4446 95.2427C79.5211 92.4141 83.1357 90.7704 86.5964 89.2797C90.6725 87.5023 94.7677 85.7248 98.8437 83.9474C101.593 82.7433 103.843 81.0806 105.727 78.94C107.765 76.6083 108.976 73.9708 108.976 71.0276C108.976 67.2433 108.034 63.4018 105.765 60.1718C103.035 56.273 98.5169 53.4826 93.5949 51.8963C88.6921 50.31 83.3856 49.8321 78.156 49.8513C57.9681 49.8895 37.9341 57.0948 23.5527 69.4795C20.9571 58.2033 21.284 48.1885 21.6493 38.3648C21.9377 30.6435 22.2645 22.712 25.0139 15.7169C54.4689 -0.356441 92.7105 -3.41437 125.319 7.40312C137.585 12.0474 149.14 18.1059 158.811 25.1774Z" fill="#B180E0"/>
</g>
<mask id="mask9_474_7839" style="mask-type:luminance" maskUnits="userSpaceOnUse" x="1" y="1" width="174" height="173">
<path d="M88 173.965C136.049 173.965 175 135.246 175 87.4826C175 39.7196 136.049 1 88 1C39.9512 1 1 39.7196 1 87.4826C1 135.246 39.9512 173.965 88 173.965Z" fill="white"/>
</mask>
<g mask="url(#mask9_474_7839)">
<path d="M191.592 70.0714C191.631 66.0578 189.151 62.6176 187.17 59.3303C185.017 55.7181 183.883 51.6854 181.479 48.207C180.864 53.3673 177.596 57.8778 173.693 61.3371C169.79 64.7773 165.214 67.3766 160.945 70.3772C156.946 73.2058 153.043 76.5313 150.736 80.9271C148.41 85.3611 148.102 90.5596 145.583 94.8981C143.43 98.5867 139.316 101.186 134.855 102.6C130.414 104.034 125.607 104.397 120.877 104.588C115.859 104.779 110.726 104.817 105.996 106.308C101.266 107.799 94.114 114.201 92.8643 118.521C92.8643 125.822 98.9591 132.109 102.516 134.747C106.15 131.288 106.707 126.51 120.07 123.471C122.896 122.821 125.53 120.47 125.53 120.47C125.53 120.47 130.587 116.361 133.721 115.52C136.316 114.832 142.411 107.531 144.391 105.926C149.717 101.606 149.198 94.6496 153.197 89.3555C155.254 86.6416 158.561 84.7878 162.08 83.7557C165.598 82.7045 169.347 82.3987 173.077 82.2267C174.885 82.1503 176.711 82.0929 178.461 81.7107C184.806 80.3155 191.535 75.6139 191.592 70.0714Z" fill="#FF88B6"/>
</g>
<mask id="mask10_474_7839" style="mask-type:luminance" maskUnits="userSpaceOnUse" x="1" y="1" width="174" height="173">
<path d="M88 173.965C136.049 173.965 175 135.246 175 87.4826C175 39.7196 136.049 1 88 1C39.9512 1 1 39.7196 1 87.4826C1 135.246 39.9512 173.965 88 173.965Z" fill="white"/>
</mask>
<g mask="url(#mask10_474_7839)">
<path d="M22.4569 18.4682C10.8441 23.4182 1.82681 32.0569 -5.72921 41.2116C-7.01739 42.7788 -8.30555 44.4225 -8.90158 46.2764C-9.47837 48.0729 -9.38223 49.965 -9.24764 51.8189C-9.05537 54.896 -8.82468 57.973 -8.55551 61.0501C-8.42093 62.5791 -8.2671 64.1462 -7.51726 65.5414C-6.76743 66.9175 -5.51772 67.9878 -4.22955 69.0199C-1.65319 71.1031 1.07698 73.0525 4.19168 74.4477C7.19102 75.7856 10.498 76.5883 13.5166 77.907C16.5351 79.2258 19.3999 81.2517 19.8998 84.0803C25.1102 88.6098 24.3026 96.5414 29.1862 101.319C32.0701 104.148 36.4538 105.39 40.7028 106.097C44.9519 106.805 49.3548 107.13 53.3155 108.62C59.1027 110.799 66.6394 119.648 68.0429 125.324C68.7159 123.948 70.9077 124.158 72.4074 123.413C73.9071 122.687 75.1183 122.61 76.618 121.636C72.8688 116.323 68.4083 103.46 62.6788 99.714C57.8914 96.5796 51.3543 96.8472 45.5864 95.4902C38.7033 93.8848 32.647 89.7375 28.4364 84.3096C27.2059 82.0544 26.1484 79.7227 24.9948 77.1425C24.0911 67.5864 20.9187 58.2024 20.9956 48.6081C21.0149 45.0341 21.4955 41.4601 21.957 37.9052C22.9183 30.6426 23.8797 23.38 25.8408 16.2703C24.6103 17.2259 23.399 18.0668 22.4569 18.4682Z" fill="#56B381"/>
</g>
<mask id="mask11_474_7839" style="mask-type:luminance" maskUnits="userSpaceOnUse" x="1" y="1" width="174" height="173">
<path d="M88 173.965C136.049 173.965 175 135.246 175 87.4826C175 39.7196 136.049 1 88 1C39.9512 1 1 39.7196 1 87.4826C1 135.246 39.9512 173.965 88 173.965Z" fill="white"/>
</mask>
<g mask="url(#mask11_474_7839)">
<path d="M-21.476 67.3767C-21.6298 74.6967 -14.8236 81.6344 -6.51773 82.6091C-2.24944 83.106 2.13421 82.2078 6.34481 82.9149C9.99785 83.5265 13.3433 85.3613 15.5736 87.9605C20.1879 93.3693 19.7457 101.435 25.3599 106.079C30.551 110.379 40.5104 107.818 43.9327 114.01C50.7581 126.395 57.6988 129.147 65.2164 129.835" stroke="black" stroke-miterlimit="10" stroke-linecap="round" stroke-linejoin="round"/>
</g>
<mask id="mask12_474_7839" style="mask-type:luminance" maskUnits="userSpaceOnUse" x="1" y="1" width="174" height="173">
<path d="M88 173.965C136.049 173.965 175 135.246 175 87.4826C175 39.7196 136.049 1 88 1C39.9512 1 1 39.7196 1 87.4826C1 135.246 39.9512 173.965 88 173.965Z" fill="white"/>
</mask>
<g mask="url(#mask12_474_7839)">
<path d="M191.439 67.3767C191.593 74.6967 184.786 81.6344 176.481 82.6091C172.212 83.106 167.829 82.2078 163.618 82.9149C159.965 83.5265 156.62 85.3613 154.389 87.9605C151.986 90.7891 151.275 94.8983 149.852 98.262C146.699 105.697 140.508 111.316 133.721 115.52C125.492 120.604 117.186 125.631 107.976 128.708C104.054 130.026 100.036 131.039 96.1137 132.358C93.6911 133.18 90.6918 134.155 89.1537 136.353" stroke="black" stroke-miterlimit="10" stroke-linecap="round" stroke-linejoin="round"/>
</g>
<mask id="mask13_474_7839" style="mask-type:luminance" maskUnits="userSpaceOnUse" x="1" y="1" width="174" height="173">
<path d="M88 173.965C136.049 173.965 175 135.246 175 87.4826C175 39.7196 136.049 1 88 1C39.9512 1 1 39.7196 1 87.4826C1 135.246 39.9512 173.965 88 173.965Z" fill="white"/>
</mask>
<g mask="url(#mask13_474_7839)">
<path d="M86.3659 123.987C86.7696 117.547 82.0207 105.965 94.9025 98.033C100.94 94.3061 110.707 92.5096 117.705 94.5546C123.454 96.2365 129.26 99.8678 134.99 98.1668C140.162 96.6378 142.603 91.2291 142.257 86.4702C141.911 81.7112 139.489 77.2772 137.931 72.7094C134.144 61.7008 135.355 49.4499 141.238 39.1675C144.795 32.9752 150.506 27.1842 158.215 25.5405" stroke="black" stroke-miterlimit="10" stroke-linecap="round" stroke-linejoin="round"/>
</g>
<mask id="mask14_474_7839" style="mask-type:luminance" maskUnits="userSpaceOnUse" x="1" y="1" width="174" height="173">
<path d="M88 173.965C136.049 173.965 175 135.246 175 87.4826C175 39.7196 136.049 1 88 1C39.9512 1 1 39.7196 1 87.4826C1 135.246 39.9512 173.965 88 173.965Z" fill="white"/>
</mask>
<g mask="url(#mask14_474_7839)">
<path d="M180.076 46.7927C182.114 60.9357 166.867 64.6817 153.178 76.6268C147.352 81.9209 149.256 89.432 145.026 95.7772C134.49 112.768 97.5749 92.3561 90.6918 125.42" stroke="black" stroke-miterlimit="10" stroke-linecap="round" stroke-linejoin="round"/>
</g>
<mask id="mask15_474_7839" style="mask-type:luminance" maskUnits="userSpaceOnUse" x="1" y="1" width="174" height="173">
<path d="M88 173.965C136.049 173.965 175 135.246 175 87.4826C175 39.7196 136.049 1 88 1C39.9512 1 1 39.7196 1 87.4826C1 135.246 39.9512 173.965 88 173.965Z" fill="white"/>
</mask>
<g mask="url(#mask15_474_7839)">
<path d="M25.5139 16.0227C20.7842 32.7841 20.0728 50.3864 23.4759 67.3962C24.7064 73.5312 26.4945 79.6854 30.2437 84.9795C33.9929 90.2735 39.9146 94.6502 46.9323 95.7205C49.5471 96.1218 52.2388 96.0645 54.8344 96.5996C59.5641 97.5553 63.5632 100.403 66.4088 103.843C69.2543 107.283 74.2724 119.458 75.7528 123.49" stroke="black" stroke-miterlimit="10" stroke-linecap="round" stroke-linejoin="round"/>
</g>
<mask id="mask16_474_7839" style="mask-type:luminance" maskUnits="userSpaceOnUse" x="1" y="1" width="174" height="173">
<path d="M88 173.965C136.049 173.965 175 135.246 175 87.4826C175 39.7196 136.049 1 88 1C39.9512 1 1 39.7196 1 87.4826C1 135.246 39.9512 173.965 88 173.965Z" fill="white"/>
</mask>
<g mask="url(#mask16_474_7839)">
<path d="M-8.517 45.2449C-9.32452 50.2523 -10.1321 55.3361 -9.26687 60.3435C-8.38245 65.3318 -5.55615 70.3201 -0.614932 72.9193C3.03811 74.8496 7.46019 75.2892 11.3824 76.7991C16.9581 78.9396 21.361 83.3163 23.0914 88.4193C23.8797 90.7701 24.1488 93.2356 25.0332 95.5481C26.6867 99.8484 30.5897 103.461 35.4155 105.123C39.7031 106.614 44.3559 107.035 48.9126 107.646C60.6792 109.213 64.9667 121.713 68.1006 127.465" stroke="black" stroke-miterlimit="10" stroke-linecap="round" stroke-linejoin="round"/>
</g>
<mask id="mask17_474_7839" style="mask-type:luminance" maskUnits="userSpaceOnUse" x="1" y="1" width="174" height="173">
<path d="M88 173.965C136.049 173.965 175 135.246 175 87.4826C175 39.7196 136.049 1 88 1C39.9512 1 1 39.7196 1 87.4826C1 135.246 39.9512 173.965 88 173.965Z" fill="white"/>
</mask>
<g mask="url(#mask17_474_7839)">
<path d="M24.5719 68.3517C37.8767 56.6551 56.4879 49.6982 75.3491 49.3351C84.3856 49.1631 93.9412 50.6539 100.882 55.6995C107.842 60.7642 111.187 70.1101 106.573 76.914C99.9014 86.7377 81.1171 86.9288 76.2528 97.536C73.6957 103.079 79.1175 116.667 81.5401 122.248" stroke="black" stroke-miterlimit="10" stroke-linecap="round" stroke-linejoin="round"/>
</g>
<path d="M4.1908 110.8C4.1908 110.8 68.5612 126.147 109.783 114.813C156.984 101.817 170.942 113.647 170.942 113.647C170.942 113.647 155.85 160.51 114.224 169.971C96.0936 174.08 95.2668 179.317 58.7172 168.958C33.319 161.753 19.2452 140.519 19.2452 140.519L8.76672 121.789L4.1908 110.8Z" fill="#EBEBEB"/>
<path d="M107.937 34.37C109.466 34.37 110.706 33.1379 110.706 31.6179C110.706 30.0979 109.466 28.8657 107.937 28.8657C106.408 28.8657 105.168 30.0979 105.168 31.6179C105.168 33.1379 106.408 34.37 107.937 34.37Z" fill="#FFF58C" stroke="#181919" stroke-miterlimit="10" stroke-linecap="round" stroke-linejoin="round"/>
<path d="M70.4069 34.3698C71.936 34.3698 73.1756 33.1376 73.1756 31.6176C73.1756 30.0977 71.936 28.8655 70.4069 28.8655C68.8779 28.8655 67.6383 30.0977 67.6383 31.6176C67.6383 33.1376 68.8779 34.3698 70.4069 34.3698Z" fill="#FFF58C" stroke="#181919" stroke-miterlimit="10" stroke-linecap="round" stroke-linejoin="round"/>
<path d="M90.3069 17.8761L92.0373 23.1701C92.1911 23.6671 92.6525 23.9919 93.1716 23.9919H98.7665C99.9201 23.9919 100.401 25.4636 99.4779 26.1325L94.9405 29.4007C94.5175 29.7065 94.3444 30.2416 94.4982 30.7194L96.2286 36.0135C96.5939 37.1029 95.325 38.0203 94.3829 37.3322L89.8455 34.0641C89.4225 33.7583 88.8649 33.7583 88.4419 34.0641L83.9044 37.3322C82.9623 38.0012 81.7126 37.1029 82.0587 36.0135L83.7891 30.7194C83.9429 30.2225 83.7699 29.6874 83.3469 29.4007L78.8094 26.1325C77.8673 25.4636 78.348 23.9919 79.5208 23.9919H85.1157C85.6348 23.9919 86.0962 23.6671 86.2501 23.1701L87.9805 17.8761C88.3842 16.7676 89.9416 16.7676 90.3069 17.8761Z" fill="#FFF58C" stroke="#181919" stroke-miterlimit="10" stroke-linecap="round" stroke-linejoin="round"/>
<path d="M88 173.965C136.049 173.965 175 135.246 175 87.4826C175 39.7196 136.049 1 88 1C39.9512 1 1 39.7196 1 87.4826C1 135.246 39.9512 173.965 88 173.965Z" stroke="#1D1D1B" stroke-miterlimit="10"/>
<path d="M4.1908 110.799C39.7214 120.126 75.675 121.005 111.782 114.144C126.183 111.411 140.757 107.378 155.311 109.328C161.867 110.207 164.809 111.105 171.096 113.169" stroke="black" stroke-miterlimit="10"/>
<path d="M76.1373 113.246C80.1748 112.882 84.2124 112.653 88.25 112.538C90.4995 112.481 92.749 112.462 94.9985 112.653C95.9983 112.749 97.0557 112.902 97.8248 113.532C98.2862 113.915 98.6131 114.411 98.9591 114.889C99.709 115.883 100.613 116.724 101.555 117.527C102.151 118.024 102.766 118.482 103.4 118.922C104.131 119.419 104.881 119.897 105.496 120.527C106.111 121.158 106.573 121.999 106.554 122.878C105.881 123.127 105.131 122.916 104.419 122.725C100.959 121.846 97.3633 121.751 93.7872 121.674C88.3845 121.559 82.9819 121.483 77.5793 121.54C76.3872 121.559 75.176 121.579 73.9839 121.77C72.9649 121.942 71.9459 122.247 70.9077 122.228C70.2155 122.209 69.5041 122.056 68.812 122.095C67.3315 122.171 65.8895 123.146 64.4475 122.783C65.3319 121.33 66.7163 120.26 68.0814 119.228C70.8307 117.183 73.5609 115.119 76.1373 113.246Z" fill="#EBEBEB"/>
<path d="M81.8666 127.637C87.0962 127.37 92.3067 127.121 97.5363 126.853C98.2476 126.815 98.959 126.777 99.6704 126.815C99.9972 126.834 100.305 126.853 100.632 126.834C100.939 126.815 101.228 126.758 101.535 126.701C103.669 126.318 105.804 125.936 107.938 125.535C107.246 126.662 107.457 128.115 107.169 129.415C107.034 130.083 106.746 130.714 106.477 131.326C104.342 136.238 102.131 141.111 99.8434 145.947C99.6127 146.424 99.382 146.921 98.9783 147.284C98.3053 147.896 97.3055 147.992 96.3827 148.03C94.1332 148.125 91.8836 148.068 89.6341 148.011C88.0191 147.972 86.3849 147.934 84.7698 147.896C81.3091 147.82 77.829 147.743 74.3683 147.667C73.7338 147.648 73.0801 147.628 72.5418 147.304C71.9265 146.921 71.6189 146.214 71.3305 145.564C70.273 143.042 69.1964 140.5 68.1389 137.977C67.4083 136.218 66.6584 134.46 66.1393 132.625C65.9086 131.804 65.7356 130.982 65.3895 130.198C64.832 128.918 63.8706 127.79 63.5822 126.433C63.5053 126.108 63.5053 125.707 63.7744 125.497C64.0244 125.305 64.3705 125.382 64.6781 125.477C66.5238 125.993 68.3888 126.509 70.2346 127.045C70.8498 127.217 71.4651 127.389 72.0803 127.446C72.5417 127.484 73.0032 127.465 73.4646 127.465C76.5024 127.331 79.5017 127.752 81.8666 127.637Z" fill="#C79FFF"/>
<path d="M108.418 126.146L100.593 146.023C100.266 147.189 99.1893 147.992 97.9781 147.992H74.2333C73.022 147.992 71.9454 147.189 71.6185 146.023L63.8318 126.146C63.5626 125.172 63.851 124.121 64.6009 123.433L76.1945 112.806H96.0554L107.649 123.433C108.399 124.121 108.706 125.172 108.418 126.146Z" stroke="#181919" stroke-miterlimit="10"/>
<path d="M85.7506 127.446C98.0893 127.446 108.092 126.111 108.092 124.464C108.092 122.818 98.0893 121.483 85.7506 121.483C73.4119 121.483 63.4094 122.818 63.4094 124.464C63.4094 126.111 73.4119 127.446 85.7506 127.446Z" fill="#B180E0" stroke="black" stroke-miterlimit="10"/>
<path d="M84.751 121.56C73.8495 90.6936 87.9233 57.3046 116.59 44.595C115.917 72.6325 90.4612 98.8162 84.751 121.56Z" fill="white" stroke="#181919" stroke-miterlimit="10"/>
<path d="M116.129 45.7039C94.5373 73.1107 77.9833 105.085 86.0584 142.201" stroke="#181919" stroke-miterlimit="10" stroke-linecap="round" stroke-linejoin="round"/>
<path d="M84.5393 80.7751C85.1161 82.5144 85.789 84.2345 86.5773 85.9163Z" fill="white"/>
<path d="M85.4429 80.4692L86.558 85.9162L83.6164 81.0617C82.8665 79.6474 85.193 78.902 85.4429 80.4692Z" fill="#181919"/>
<path d="M95.4986 61.3946L96.4022 68.447L93.6528 61.8915C93.1145 60.5536 95.2871 59.9803 95.4986 61.3946Z" fill="#181919"/>
<path d="M109.419 73.493L101.266 77.9461L108.342 71.9258C109.399 71.0466 110.63 72.8049 109.419 73.493Z" fill="#181919"/>
<path d="M99.5746 92.0701L90.2689 99.046L98.2864 90.6558C99.2477 89.681 100.651 91.2483 99.5746 92.0701Z" fill="#181919"/>
<path d="M76.1948 112.787V107.971C76.1948 107.569 76.5216 107.225 76.9446 107.225H95.306C95.7097 107.225 96.0558 107.55 96.0558 107.971V112.787H76.1948Z" fill="#EBEBEB" stroke="#181919" stroke-miterlimit="10"/>
</svg>
