<svg width="176" height="176" viewBox="0 0 176 176" fill="none" xmlns="http://www.w3.org/2000/svg">
<path d="M88 174.692C136.049 174.692 175 135.81 175 87.8462C175 39.8824 136.049 1 88 1C39.9512 1 1 39.8824 1 87.8462C1 135.81 39.9512 174.692 88 174.692Z" fill="#FF88B6" stroke="#181919" stroke-miterlimit="10" stroke-linecap="round" stroke-linejoin="round"/>
<path d="M88 174.692C136.049 174.692 175 135.81 175 87.8462C175 39.8824 136.049 1 88 1C39.9512 1 1 39.8824 1 87.8462C1 135.81 39.9512 174.692 88 174.692Z" stroke="#181919" stroke-miterlimit="10"/>
<path d="M43.3374 135.213L15.2859 69.7853C14.6899 68.4035 15.3436 66.7913 16.7279 66.1963L58.5456 48.3281C59.9299 47.7331 61.5449 48.3857 62.1409 49.7675L90.1924 115.195L43.3374 135.213Z" fill="#EBEBEB" stroke="black" stroke-miterlimit="10"/>
<path d="M60.1801 57.6193L59.1996 55.3157C58.9881 54.8358 59.2188 54.2791 59.6995 54.0871L66.9671 50.9773C67.4477 50.7661 68.0053 50.9965 68.1976 51.4764L69.1781 53.78C69.3896 54.2599 69.1589 54.8166 68.6782 55.0086L61.4106 58.1185C60.93 58.3296 60.3916 58.0993 60.1801 57.6193Z" fill="#B180E0" stroke="black" stroke-miterlimit="10"/>
<path d="M88.0201 76.6575L78.8298 98.5562V74.8342C82.0791 74.8342 85.1938 75.4868 88.0201 76.6575Z" fill="#EBEBEB" stroke="black" stroke-miterlimit="10"/>
<path d="M102.612 98.5755C102.612 102.414 101.709 106.041 100.074 109.247C98.9401 111.511 97.4404 113.584 95.6524 115.369L78.8484 98.6138V98.5755L100.978 89.958C102.036 92.6258 102.612 95.543 102.612 98.5755Z" fill="#FF88B6" stroke="black" stroke-miterlimit="10"/>
<path d="M95.6531 115.368C93.2498 117.767 90.3466 119.648 87.1166 120.838C84.5402 121.797 81.7523 122.316 78.8299 122.316C75.5806 122.316 72.4659 121.663 69.6396 120.473C66.7557 119.283 64.1793 117.537 62.0067 115.368L78.8299 98.5936V98.5745H78.8491V98.6128L95.6531 115.368Z" fill="#B180E0" stroke="black" stroke-miterlimit="10"/>
<path d="M78.8491 98.5942H78.8298" stroke="black" stroke-miterlimit="10"/>
<path d="M100.979 89.9569L78.8491 98.5744H78.8298V98.5552L88.0201 76.6565C90.8849 77.8656 93.4804 79.6313 95.653 81.7809C97.9602 84.084 99.7867 86.8669 100.979 89.9569Z" fill="#56B381" stroke="black" stroke-miterlimit="10"/>
<path d="M78.8491 98.5942H78.8298" stroke="black" stroke-miterlimit="10"/>
<path d="M78.8295 74.8342V98.5946L62.0063 115.369C59.7183 113.066 57.8726 110.302 56.6613 107.212C55.6231 104.525 55.0463 101.627 55.0463 98.5754C55.0463 94.7369 55.9691 91.1095 57.5842 87.9043C58.7378 85.6204 60.2374 83.5668 62.0063 81.7819C64.4096 79.4021 67.3128 77.5212 70.5621 76.3121C73.1384 75.3524 75.9263 74.8342 78.8295 74.8342Z" fill="#5A66FF" stroke="black" stroke-miterlimit="10"/>
<path d="M41.3573 124.83C41.6457 120.665 41.5688 113.468 43.8183 109.955C45.3564 107.556 49.3363 104.274 52.0857 105.081C55.1235 105.963 57.1615 106.424 58.5074 109.303C59.9686 112.45 66.6017 116.577 68.4283 114.274C70.2548 111.971 73.0811 111.491 73.0811 111.491C73.0811 111.491 75.1191 111.069 77.9262 109.917C79.5027 109.284 83.6172 110.474 83.6172 110.474C83.6172 110.474 84.4439 111.03 86.7896 111.03C89.885 111.03 86.7896 111.932 90.0389 111.779C92.3076 111.664 89.9043 112.834 92.9036 112.086C94.6532 111.644 95.9799 110.167 96.672 108.516C97.3642 106.865 97.518 105.042 97.5372 103.468C97.8833 96.9813 99.1715 90.571 100.825 84.295C101.767 80.7252 102.882 77.0978 104.997 74.0654C107.112 71.033 110.4 68.5955 114.11 68.3844C119.609 68.0581 124.32 72.6068 126.492 77.6736C128.646 82.7212 128.973 88.3446 130.222 93.6801C131.126 97.4995 132.952 101.664 136.567 102.509C138.221 102.835 140.047 102.259 141.201 101.05C142.816 99.3611 143.2 96.6358 145.123 95.3115C146.623 94.2751 148.834 94.4862 150.122 95.7529C151.198 96.8277 151.564 98.4207 152.294 99.7642C153.025 101.108 154.621 102.298 156.005 101.664C156.659 101.357 157.082 100.724 157.447 100.11C158.466 98.3631 159.216 96.4631 159.658 94.4862C160.716 89.8608 160.12 85.0627 159.504 80.3605C158.889 75.6584 158.293 70.8602 159.35 66.2348C160.408 61.6286 163.465 57.1568 169.252 55.084C173.001 67.348 175.289 80.1494 174.828 92.9508C174.366 105.752 171.079 118.592 163.1 130.204C142.508 135.673 121.859 141.143 100.729 143.888C79.5989 146.632 57.8537 146.517 37.3005 140.951C40.7805 136.038 40.992 129.858 41.3573 124.83Z" fill="#56B381"/>
<path d="M40.3956 135.021C40.7417 127.882 40.2226 116.136 43.818 109.956C45.1062 107.749 46.6443 104.889 50.3165 104.889C55.2962 104.889 58.3724 109.265 59.2184 110.109C61.7371 112.624 63.5828 115.81 66.486 114.524C74.7727 110.839 76.6761 108.113 92.3842 112.412C96.3256 113.487 97.3446 106.463 97.6138 102.394C97.9791 97.0201 98.7097 91.6653 99.8056 86.4066C100.632 82.4721 101.69 78.4993 103.901 75.1598C106.112 71.8203 109.707 69.1525 113.726 68.9414C119.628 68.6343 124.608 73.6244 126.877 79.0558C129.145 84.4873 129.511 90.5138 131.068 96.1948C131.645 98.3251 132.471 100.513 134.144 101.953C135.817 103.392 138.547 103.833 140.2 102.375C141.719 101.031 141.835 98.6898 142.988 97.02C144.93 94.2371 149.891 94.5826 151.41 97.615C152.467 99.707 153.121 103.219 155.37 102.586C156.178 102.356 156.678 101.607 157.081 100.878C159.812 95.7533 159.965 89.6693 159.773 83.8732C159.562 78.077 158.62 70.2081 160.292 64.6423C161.965 59.0764 163.195 56.2167 169.06 56.2359" stroke="black" stroke-miterlimit="10"/>
<path d="M137.163 79.8615L139.682 72.741C140.278 71.0713 142.104 70.1884 143.777 70.7834L151.275 73.432C152.948 74.0269 153.832 75.8502 153.236 77.52L150.718 84.6404C150.122 86.3101 148.295 87.193 146.622 86.598L139.124 83.9495C137.451 83.3545 136.586 81.5312 137.163 79.8615Z" fill="#EBEBEB" stroke="black" stroke-miterlimit="10"/>
<path d="M116.225 59.9216L110.88 54.586C109.63 53.3385 109.63 51.3041 110.88 50.0566L116.513 44.4332C117.763 43.1857 119.801 43.1857 121.051 44.4332L126.396 49.7687C127.645 51.0162 127.645 53.0506 126.396 54.2982L120.762 59.9216C119.513 61.1691 117.494 61.1691 116.225 59.9216Z" fill="#EBEBEB" stroke="black" stroke-miterlimit="10"/>
<path d="M118.647 49.0581V55.2778" stroke="#1D1D1B" stroke-miterlimit="10" stroke-linecap="round" stroke-linejoin="round"/>
<path d="M115.513 52.1672H121.762" stroke="#1D1D1B" stroke-miterlimit="10" stroke-linecap="round" stroke-linejoin="round"/>
<path d="M142.373 77.9043L147.968 79.9008" stroke="#1D1D1B" stroke-miterlimit="10" stroke-linecap="round" stroke-linejoin="round"/>
<path d="M107.938 31.9974C109.467 31.9974 110.707 30.7598 110.707 29.2331C110.707 27.7064 109.467 26.4688 107.938 26.4688C106.409 26.4688 105.17 27.7064 105.17 29.2331C105.17 30.7598 106.409 31.9974 107.938 31.9974Z" fill="#FFF58C" stroke="#181919" stroke-miterlimit="10" stroke-linecap="round" stroke-linejoin="round"/>
<path d="M70.4081 31.9974C71.9372 31.9974 73.1768 30.7598 73.1768 29.2331C73.1768 27.7064 71.9372 26.4688 70.4081 26.4688C68.8791 26.4688 67.6395 27.7064 67.6395 29.2331C67.6395 30.7598 68.8791 31.9974 70.4081 31.9974Z" fill="#FFF58C" stroke="#181919" stroke-miterlimit="10" stroke-linecap="round" stroke-linejoin="round"/>
<path d="M90.3076 15.433L92.038 20.7494C92.1918 21.2484 92.6532 21.5746 93.1723 21.5746H98.7673C99.9208 21.5746 100.402 23.0524 99.4786 23.7242L94.9412 27.0061C94.5182 27.3132 94.3452 27.8506 94.499 28.3304L96.2294 33.6467C96.5947 34.7407 95.3257 35.6619 94.3836 34.971L89.8462 31.6891C89.4232 31.382 88.8656 31.382 88.4426 31.6891L83.9051 34.971C82.963 35.6427 81.7133 34.7407 82.0594 33.6467L83.7898 28.3304C83.9436 27.8314 83.7706 27.294 83.3476 27.0061L78.8101 23.7242C77.868 23.0524 78.3487 21.5746 79.5215 21.5746H85.1164C85.6355 21.5746 86.097 21.2484 86.2508 20.7494L87.9812 15.433C88.3849 14.3199 89.9423 14.3199 90.3076 15.433Z" fill="#FFF58C" stroke="#181919" stroke-miterlimit="10" stroke-linecap="round" stroke-linejoin="round"/>
<path d="M151.947 124.869C148.352 123.103 143.526 122.892 140.104 124.907C136.547 126.999 134.624 131.221 130.375 131.951C124.973 132.891 121.204 127.652 116.398 125.368C111.918 123.237 105.804 123.947 102.17 126.999C99.6513 129.11 97.9402 132.335 94.4409 132.91C89.3075 133.755 86.2697 128.477 82.8474 125.118C76.2142 118.612 62.1981 119.264 56.4686 126.346C55.315 127.767 54.4306 129.398 52.7963 130.434C49.1433 132.738 43.856 130.895 40.3952 128.381C36.9344 125.886 33.7621 122.642 29.263 121.932C22.3223 120.857 16.4774 126.404 13.5358 131.816C13.5358 131.816 24.2642 151.143 43.3369 162.524C62.4096 173.906 94.5371 179.068 112.821 171.276C131.106 163.484 150.967 154.521 165.925 126.961C163.772 125.483 155.562 126.634 151.947 124.869Z" fill="#B180E0"/>
<path d="M13.4972 131.663C16.4388 126.25 22.2837 120.704 29.2245 121.779C33.7042 122.469 36.8766 125.732 40.3566 128.227C43.8174 130.722 49.1047 132.584 52.7577 130.281C54.392 129.244 55.2764 127.613 56.43 126.193C62.1787 119.111 76.1949 118.477 82.8088 124.964C86.2119 128.304 89.2689 133.601 94.4024 132.757C97.8824 132.181 99.6128 128.957 102.131 126.845C105.784 123.794 111.879 123.084 116.359 125.214C121.166 127.498 124.934 132.737 130.337 131.797C133.548 131.24 134.49 128.534 136.624 126.557C139.239 124.139 143.584 122.815 147.083 123.256C149.025 123.506 150.871 124.254 152.716 124.888C154.831 125.636 157.004 126.25 159.253 126.442C161.638 126.653 165.156 126.615 166.809 124.6" stroke="black" stroke-miterlimit="10"/>
<mask id="mask0_457_7472" style="mask-type:luminance" maskUnits="userSpaceOnUse" x="12" y="120" width="154" height="55">
<path d="M12.9406 132.143C15.9014 126.73 21.7655 121.184 28.7255 122.258C33.2245 122.949 36.4161 126.212 39.8961 128.707C43.3761 131.202 48.6827 133.064 52.3549 130.761C53.9892 129.724 54.8928 128.093 56.0464 126.673C61.8144 119.591 75.8882 118.957 82.5406 125.444C85.9629 128.784 89.0199 134.081 94.1726 133.237C97.6718 132.661 99.4022 129.437 101.921 127.325C105.574 124.274 111.707 123.564 116.206 125.694C121.032 127.978 124.82 133.217 130.242 132.277C134.51 131.548 136.432 127.325 140.009 125.233C143.45 123.218 148.276 123.429 151.891 125.195C155.505 126.961 162.081 126.654 165.888 127.46C159.12 140.491 138.817 160.317 125.512 166.708C115.091 171.718 101.363 175.422 90.7118 174.846C62.0259 173.311 46.7985 165.614 33.9167 155.711C26.7837 150.203 17.4396 136.768 12.9406 132.143Z" fill="white"/>
</mask>
<g mask="url(#mask0_457_7472)">
<path d="M159.408 94.5244C181.192 124.887 203.59 154.847 226.605 184.345Z" fill="#56B381"/>
<path d="M159.408 94.5244C181.192 124.887 203.59 154.847 226.605 184.345" stroke="black" stroke-miterlimit="10"/>
<path d="M152.16 94.5244C173.943 124.887 196.342 154.847 219.356 184.345Z" fill="#56B381"/>
<path d="M152.16 94.5244C173.943 124.887 196.342 154.847 219.356 184.345" stroke="black" stroke-miterlimit="10"/>
<path d="M144.892 94.5244C166.676 124.887 189.075 154.847 212.089 184.345Z" fill="#56B381"/>
<path d="M144.892 94.5244C166.676 124.887 189.075 154.847 212.089 184.345" stroke="black" stroke-miterlimit="10"/>
<path d="M137.624 94.5244C159.408 124.887 181.807 154.847 204.821 184.345Z" fill="#56B381"/>
<path d="M137.624 94.5244C159.408 124.887 181.807 154.847 204.821 184.345" stroke="black" stroke-miterlimit="10"/>
<path d="M130.357 94.5244C152.14 124.887 174.539 154.847 197.553 184.345Z" fill="#56B381"/>
<path d="M130.357 94.5244C152.14 124.887 174.539 154.847 197.553 184.345" stroke="black" stroke-miterlimit="10"/>
<path d="M123.089 94.5244C144.873 124.887 167.272 154.847 190.286 184.345Z" fill="#56B381"/>
<path d="M123.089 94.5244C144.873 124.887 167.272 154.847 190.286 184.345" stroke="black" stroke-miterlimit="10"/>
<path d="M115.822 94.5244C137.605 124.887 160.004 154.847 183.018 184.345Z" fill="#56B381"/>
<path d="M115.822 94.5244C137.605 124.887 160.004 154.847 183.018 184.345" stroke="black" stroke-miterlimit="10"/>
<path d="M108.573 94.5244C130.357 124.887 152.756 154.847 175.77 184.345Z" fill="#56B381"/>
<path d="M108.573 94.5244C130.357 124.887 152.756 154.847 175.77 184.345" stroke="black" stroke-miterlimit="10"/>
<path d="M101.305 94.5244C123.089 124.887 145.488 154.847 168.502 184.345Z" fill="#56B381"/>
<path d="M101.305 94.5244C123.089 124.887 145.488 154.847 168.502 184.345" stroke="black" stroke-miterlimit="10"/>
<path d="M94.0378 94.5244C115.821 124.887 138.22 154.847 161.235 184.345Z" fill="#56B381"/>
<path d="M94.0378 94.5244C115.821 124.887 138.22 154.847 161.235 184.345" stroke="black" stroke-miterlimit="10"/>
<path d="M86.7704 94.5244C108.554 124.887 130.953 154.847 153.967 184.345Z" fill="#56B381"/>
<path d="M86.7704 94.5244C108.554 124.887 130.953 154.847 153.967 184.345" stroke="black" stroke-miterlimit="10"/>
<path d="M79.5027 94.5244C101.286 124.887 123.685 154.847 146.699 184.345Z" fill="#56B381"/>
<path d="M79.5027 94.5244C101.286 124.887 123.685 154.847 146.699 184.345" stroke="black" stroke-miterlimit="10"/>
<path d="M72.235 94.5244C94.0186 124.887 116.418 154.847 139.432 184.345Z" fill="#56B381"/>
<path d="M72.235 94.5244C94.0186 124.887 116.418 154.847 139.432 184.345" stroke="black" stroke-miterlimit="10"/>
<path d="M64.9673 94.5244C86.7509 124.887 109.15 154.847 132.164 184.345Z" fill="#56B381"/>
<path d="M64.9673 94.5244C86.7509 124.887 109.15 154.847 132.164 184.345" stroke="black" stroke-miterlimit="10"/>
<path d="M57.7191 94.5244C79.5028 124.887 101.902 154.847 124.916 184.345Z" fill="#56B381"/>
<path d="M57.7191 94.5244C79.5028 124.887 101.902 154.847 124.916 184.345" stroke="black" stroke-miterlimit="10"/>
<path d="M50.4514 94.5244C72.2351 124.887 94.6339 154.847 117.648 184.345Z" fill="#56B381"/>
<path d="M50.4514 94.5244C72.2351 124.887 94.6339 154.847 117.648 184.345" stroke="black" stroke-miterlimit="10"/>
<path d="M43.1837 94.5244C64.9674 124.887 87.3662 154.847 110.38 184.345Z" fill="#56B381"/>
<path d="M43.1837 94.5244C64.9674 124.887 87.3662 154.847 110.38 184.345" stroke="black" stroke-miterlimit="10"/>
<path d="M35.9161 94.5244C57.6998 124.887 80.0987 154.847 103.113 184.345Z" fill="#56B381"/>
<path d="M35.9161 94.5244C57.6998 124.887 80.0987 154.847 103.113 184.345" stroke="black" stroke-miterlimit="10"/>
<path d="M28.6483 94.5244C50.432 124.887 72.8308 154.847 95.845 184.345Z" fill="#56B381"/>
<path d="M28.6483 94.5244C50.432 124.887 72.8308 154.847 95.845 184.345" stroke="black" stroke-miterlimit="10"/>
<path d="M21.381 94.5244C43.1646 124.887 65.5635 154.847 88.5777 184.345Z" fill="#56B381"/>
<path d="M21.381 94.5244C43.1646 124.887 65.5635 154.847 88.5777 184.345" stroke="black" stroke-miterlimit="10"/>
<path d="M14.1133 94.5244C35.8969 124.887 58.2958 154.847 81.31 184.345Z" fill="#56B381"/>
<path d="M14.1133 94.5244C35.8969 124.887 58.2958 154.847 81.31 184.345" stroke="black" stroke-miterlimit="10"/>
<path d="M6.86487 94.5244C28.6485 124.887 51.0474 154.847 74.0615 184.345Z" fill="#56B381"/>
<path d="M6.86487 94.5244C28.6485 124.887 51.0474 154.847 74.0615 184.345" stroke="black" stroke-miterlimit="10"/>
<path d="M-0.402832 94.5244C21.3808 124.887 43.7797 154.847 66.7938 184.345Z" fill="#56B381"/>
<path d="M-0.402832 94.5244C21.3808 124.887 43.7797 154.847 66.7938 184.345" stroke="black" stroke-miterlimit="10"/>
<path d="M-7.67029 94.5244C14.1134 124.887 36.5123 154.847 59.5264 184.345Z" fill="#56B381"/>
<path d="M-7.67029 94.5244C14.1134 124.887 36.5123 154.847 59.5264 184.345" stroke="black" stroke-miterlimit="10"/>
<path d="M-14.938 94.5244C6.84566 124.887 29.2446 154.847 52.2587 184.345Z" fill="#56B381"/>
<path d="M-14.938 94.5244C6.84566 124.887 29.2446 154.847 52.2587 184.345" stroke="black" stroke-miterlimit="10"/>
<path d="M-22.2057 94.5244C-0.422043 124.887 21.9769 154.847 44.991 184.345Z" fill="#56B381"/>
<path d="M-22.2057 94.5244C-0.422043 124.887 21.9769 154.847 44.991 184.345" stroke="black" stroke-miterlimit="10"/>
<path d="M-29.4734 94.5244C-7.68974 124.887 14.7091 154.847 37.7233 184.345Z" fill="#56B381"/>
<path d="M-29.4734 94.5244C-7.68974 124.887 14.7091 154.847 37.7233 184.345" stroke="black" stroke-miterlimit="10"/>
<path d="M-36.7218 94.5244C-14.9382 124.887 7.46073 154.847 30.4749 184.345Z" fill="#56B381"/>
<path d="M-36.7218 94.5244C-14.9382 124.887 7.46073 154.847 30.4749 184.345" stroke="black" stroke-miterlimit="10"/>
<path d="M-43.9893 94.5244C-22.2056 124.887 0.193306 154.847 23.2074 184.345Z" fill="#56B381"/>
<path d="M-43.9893 94.5244C-22.2056 124.887 0.193306 154.847 23.2074 184.345" stroke="black" stroke-miterlimit="10"/>
<path d="M-51.2568 94.5244C-29.4732 124.887 -7.07427 154.847 15.9399 184.345Z" fill="#56B381"/>
<path d="M-51.2568 94.5244C-29.4732 124.887 -7.07427 154.847 15.9399 184.345" stroke="black" stroke-miterlimit="10"/>
</g>
<path d="M88 174.692C136.049 174.692 175 135.81 175 87.8462C175 39.8824 136.049 1 88 1C39.9512 1 1 39.8824 1 87.8462C1 135.81 39.9512 174.692 88 174.692Z" stroke="#181919" stroke-miterlimit="10" stroke-linecap="round" stroke-linejoin="round"/>
</svg>
