<svg width="56" height="107" viewBox="0 0 56 107" fill="none" xmlns="http://www.w3.org/2000/svg">
<path d="M8.71451 15.0742L10.9421 18.0506C11.1457 18.3318 11.5057 18.4384 11.8319 18.3273L15.3479 17.1295C16.0729 16.8826 16.6919 17.71 16.256 18.3305L14.1083 21.368C13.9084 21.6518 13.9149 22.0272 14.1144 22.2963L16.342 25.2727C16.8062 25.8832 16.2063 26.7348 15.4661 26.5015L11.9108 25.4068C11.5791 25.304 11.2287 25.4234 11.0288 25.7073L8.88119 28.7448C8.43321 29.3693 7.45439 29.069 7.43726 28.3062L7.38454 24.5889C7.37418 24.2419 7.1502 23.9406 6.82264 23.8499L3.26735 22.7552C2.53125 22.534 2.51637 21.5008 3.2534 21.2497L6.76939 20.0519C7.09561 19.9408 7.31561 19.6366 7.30525 19.2895L7.25254 15.5723C7.28374 14.793 8.26241 14.4596 8.71451 15.0742Z" fill="#FFF58C" stroke="#181919" stroke-miterlimit="10" stroke-linecap="round" stroke-linejoin="round"/>
<path d="M14.1045 70.8176C18.1862 70.4483 22.268 70.215 26.3498 70.0984C28.6239 70.0401 30.898 70.0207 33.1721 70.215C34.1828 70.3122 35.2519 70.4677 36.0294 71.1091C36.4958 71.4979 36.8263 72.0032 37.1761 72.4892C37.9342 73.4999 38.8477 74.3551 39.8001 75.1715C40.4027 75.6768 41.0247 76.1433 41.6661 76.5904C42.4047 77.0957 43.1627 77.5816 43.7847 78.2231C44.4067 78.8645 44.8732 79.7197 44.8537 80.6138C44.1734 80.8665 43.4154 80.6527 42.6962 80.4583C39.1976 79.5642 35.5629 79.467 31.9476 79.3893C26.4858 79.2727 21.024 79.1949 15.5622 79.2532C14.3571 79.2727 13.1326 79.2921 11.9275 79.4865C10.8973 79.6614 9.86719 79.9724 8.8176 79.9529C8.11787 79.9335 7.3987 79.778 6.69897 79.8169C5.20233 79.8946 3.74455 80.8859 2.28677 80.5166C3.18087 79.0394 4.58033 77.9509 5.96036 76.9014C8.73985 74.8216 11.4999 72.7224 14.1045 70.8176Z" fill="#EBEBEB"/>
<path d="M19.8964 85.4535C25.1833 85.1814 30.4507 84.9287 35.7376 84.6566C36.4567 84.6177 37.1759 84.5789 37.8951 84.6177C38.2255 84.6372 38.5365 84.6566 38.8669 84.6372C39.1779 84.6177 39.4695 84.5594 39.7805 84.5011C41.938 84.1124 44.0955 83.7236 46.253 83.3155C45.5532 84.4622 45.767 85.9394 45.4755 87.2612C45.3394 87.9415 45.0479 88.5829 44.7758 89.2049C42.6183 94.2002 40.383 99.1566 38.07 104.074C37.8368 104.56 37.6035 105.065 37.1953 105.435C36.515 106.057 35.5043 106.154 34.5714 106.193C32.2972 106.29 30.0231 106.232 27.749 106.173C26.1163 106.134 24.4641 106.096 22.8314 106.057C19.3328 105.979 15.8147 105.901 12.316 105.823C11.6746 105.804 11.0137 105.785 10.4695 105.454C9.84752 105.065 9.53654 104.346 9.24498 103.685C8.17595 101.12 7.08747 98.5346 6.01844 95.9689C5.27984 94.1807 4.52181 92.3925 3.99701 90.5266C3.76377 89.6908 3.58882 88.855 3.23895 88.0581C2.67528 86.7558 1.70344 85.609 1.41189 84.229C1.33414 83.8986 1.33414 83.4904 1.60626 83.2766C1.85894 83.0822 2.2088 83.16 2.51979 83.2571C4.38574 83.7819 6.27113 84.3067 8.13708 84.851C8.75906 85.0259 9.38104 85.2008 10.003 85.2592C10.4695 85.298 10.936 85.2786 11.4025 85.2786C14.4735 85.1425 17.5057 85.5702 19.8964 85.4535Z" fill="#C79FFF"/>
<path d="M46.7392 83.9375L38.8284 104.152C38.4979 105.338 37.4095 106.154 36.1849 106.154H12.1803C10.9558 106.154 9.86728 105.338 9.53686 104.152L1.66488 83.9375C1.39276 82.9462 1.68432 81.8772 2.44236 81.1774L14.1628 70.3705H34.2412L45.9617 81.1774C46.7198 81.8772 47.0113 82.9462 46.7392 83.9375Z" stroke="#181919" stroke-miterlimit="10"/>
<path d="M23.8229 85.2593C36.2967 85.2593 46.4086 83.9018 46.4086 82.2271C46.4086 80.5525 36.2967 79.1949 23.8229 79.1949C11.3491 79.1949 1.23712 80.5525 1.23712 82.2271C1.23712 83.9018 11.3491 85.2593 23.8229 85.2593Z" fill="#B180E0" stroke="black" stroke-miterlimit="10"/>
<path d="M22.8125 79.2727C11.7918 47.882 26.0196 13.9256 55.0002 1C54.3199 29.4946 28.5853 56.1427 22.8125 79.2727Z" fill="white" stroke="#181919" stroke-miterlimit="10"/>
<path d="M54.5332 2.12732C32.7055 29.9999 15.9702 62.518 24.1337 100.265" stroke="#181919" stroke-miterlimit="10" stroke-linecap="round" stroke-linejoin="round"/>
<path d="M22.5992 37.7747C23.1823 39.5435 23.8625 41.2928 24.6595 43.0033L22.5992 37.7747Z" fill="white"/>
<path d="M23.5123 37.4832L24.6397 43.0227L21.6658 38.0857C20.9078 36.6474 23.2597 35.8699 23.5123 37.4832Z" fill="#181919"/>
<path d="M33.6774 18.0851L34.5909 25.2573L31.8114 18.5905C31.2672 17.2299 33.4635 16.6468 33.6774 18.0851Z" fill="#181919"/>
<path d="M47.7499 30.3887L39.5086 34.9175L46.6614 28.7949C47.7305 27.8813 48.9744 29.689 47.7499 30.3887Z" fill="#181919"/>
<path d="M37.7987 49.2815L28.3912 56.376L36.4964 47.8432C37.4683 46.8519 38.8872 48.4457 37.7987 49.2815Z" fill="#181919"/>
<path d="M14.1626 70.3511V65.453C14.1626 65.0448 14.493 64.6949 14.9206 64.6949H33.4829C33.8911 64.6949 34.241 65.0254 34.241 65.453V70.3511H14.1626Z" fill="#EBEBEB" stroke="#181919" stroke-miterlimit="10"/>
</svg>
