<svg width="176" height="176" viewBox="0 0 176 176" fill="none" xmlns="http://www.w3.org/2000/svg">
<path d="M88 175C136.049 175 175 136.049 175 88C175 39.9512 136.049 1 88 1C39.9512 1 1 39.9512 1 88C1 136.049 39.9512 175 88 175Z" fill="#B180E0"/>
<path d="M101.843 58.949L75.9642 60.1026C75.9642 60.1026 8.24843 119.186 8.28688 121.493C8.34456 124.319 9.97882 126.819 11.5938 129.126C14.3432 133.029 16.3813 139.335 20.0727 142.354C25.5523 146.833 29.5514 153.678 36.9536 158.446C47.1052 166.291 66.1203 173.654 79.9057 174.616C93.6719 175.558 114.379 171.347 127.164 166.137C133.278 163.657 139.085 157.985 144.43 154.236C149.16 153.063 150.775 144.507 155.408 143.027C158.427 139.124 162.214 135.605 164.252 131.491C164.714 129.549 164.599 127.453 165.579 125.723C166.271 124.454 167.502 123.531 168.155 122.262C168.521 121.57 168.963 119.916 168.963 119.916L101.843 58.949Z" fill="#5A66FF"/>
<path d="M8.28687 121.127L76.368 59.6794L102.689 60.7754L168.559 119.589" stroke="black" stroke-miterlimit="10"/>
<path d="M125.126 84.1163C97.8438 75.1375 75.8102 82.4436 54.3726 95.0946C10.4208 121.031 59.0831 160.542 101.593 152.563C105.035 151.928 111.552 148.621 114.763 148.237C125.069 146.949 128.375 142.834 131.779 129.529C132.317 127.453 134.855 116.263 136.701 112.629C143.257 99.6898 134.124 87.0579 125.126 84.1163Z" fill="#FFF58C"/>
<mask id="mask0_457_7003" style="mask-type:luminance" maskUnits="userSpaceOnUse" x="37" y="80" width="102" height="74">
<path d="M125.126 84.1163C97.8438 75.1375 75.8102 82.4436 54.3726 95.0946C10.4208 121.031 59.0831 160.542 101.593 152.563C105.035 151.928 111.552 148.621 114.763 148.237C125.069 146.949 128.375 142.834 131.779 129.529C132.317 127.453 134.855 116.263 136.701 112.629C143.257 99.6898 134.124 87.0579 125.126 84.1163Z" fill="white"/>
</mask>
<g mask="url(#mask0_457_7003)">
<path d="M4.63354 76.1758L64.2165 157.581" stroke="black" stroke-miterlimit="10"/>
<path d="M9.6709 75.5989L69.2539 157.004" stroke="black" stroke-miterlimit="10"/>
<path d="M14.7083 75.022L74.2912 156.427" stroke="black" stroke-miterlimit="10"/>
<path d="M19.7263 74.426L79.3285 155.831" stroke="black" stroke-miterlimit="10"/>
<path d="M24.7635 73.8491L84.3465 155.254" stroke="black" stroke-miterlimit="10"/>
<path d="M29.8009 73.2727L89.3839 154.678" stroke="black" stroke-miterlimit="10"/>
<path d="M34.8384 72.6958L94.4213 154.082" stroke="black" stroke-miterlimit="10"/>
<path d="M39.8564 72.0996L99.4587 153.505" stroke="black" stroke-miterlimit="10"/>
<path d="M44.8938 71.5227L104.477 152.928" stroke="black" stroke-miterlimit="10"/>
<path d="M49.9312 70.9458L109.514 152.351" stroke="black" stroke-miterlimit="10"/>
<path d="M54.9685 70.3503L114.551 151.755" stroke="black" stroke-miterlimit="10"/>
<path d="M59.9866 69.7732L119.589 151.178" stroke="black" stroke-miterlimit="10"/>
<path d="M65.0239 69.1963L124.607 150.601" stroke="black" stroke-miterlimit="10"/>
<path d="M70.0614 68.6003L129.644 150.005" stroke="black" stroke-miterlimit="10"/>
<path d="M75.0988 68.0239L134.682 149.429" stroke="black" stroke-miterlimit="10"/>
<path d="M80.1168 67.447L139.719 148.852" stroke="black" stroke-miterlimit="10"/>
<path d="M85.1542 66.8701L144.737 148.275" stroke="black" stroke-miterlimit="10"/>
<path d="M90.1915 66.2739L149.775 147.679" stroke="black" stroke-miterlimit="10"/>
<path d="M95.2289 65.697L154.812 147.102" stroke="black" stroke-miterlimit="10"/>
<path d="M100.247 65.1206L159.849 146.526" stroke="black" stroke-miterlimit="10"/>
<path d="M105.284 64.5247L164.867 145.93" stroke="black" stroke-miterlimit="10"/>
<path d="M110.322 63.9478L169.905 145.353" stroke="black" stroke-miterlimit="10"/>
</g>
<path d="M125.126 84.1163C97.8438 75.1375 75.8102 82.4436 54.3726 95.0946C10.4208 121.031 59.0831 160.542 101.593 152.563C105.035 151.928 111.552 148.621 114.763 148.237C125.069 146.949 128.375 142.834 131.779 129.529C132.317 127.453 134.855 116.263 136.701 112.629C143.257 99.6898 134.124 87.0579 125.126 84.1163Z" stroke="black" stroke-miterlimit="10"/>
<path d="M69.5805 104.438C67.4271 99.4202 63.3319 95.2673 58.333 93.0754C53.2764 90.8452 47.0278 90.3068 43.6247 85.9616C39.9524 81.2704 41.3367 74.2719 38.5297 69.0231C37.1838 66.5044 34.8574 64.5048 32.1465 63.5627C29.0125 62.4668 25.5518 62.736 22.3602 61.8131C16.15 60.0058 11.9009 50.3157 13.3429 43.8363C17.0729 37.53 21.6103 31.7044 27.4744 26.6863C25.744 28.9742 25.148 31.9159 24.6481 34.7422C23.9944 38.5683 23.4176 42.4712 24.0329 46.3165C24.6289 50.1426 26.5515 53.9495 29.8777 55.9683C31.4928 56.9488 33.3577 57.4679 35.0689 58.2562C40.7984 60.871 44.8552 66.812 45.2013 73.0991C45.2782 74.3488 45.2013 75.6178 45.3743 76.8675C46.0857 82.2125 50.8923 86.1539 55.9104 88.115C60.6017 89.9415 66.1005 90.8067 69.1575 95.1135C68.8115 98.2858 68.6961 101.497 69.5805 104.438Z" fill="#FFFCFC" stroke="black" stroke-miterlimit="10" stroke-linecap="round" stroke-linejoin="round"/>
<path d="M88.9806 68.6777C92.7289 68.6777 95.7675 65.6391 95.7675 61.8907C95.7675 58.1424 92.7289 55.1038 88.9806 55.1038C85.2322 55.1038 82.1936 58.1424 82.1936 61.8907C82.1936 65.6391 85.2322 68.6777 88.9806 68.6777Z" fill="#FFF58C" stroke="black" stroke-miterlimit="10"/>
<path d="M88.9806 46.0479C80.2326 46.0479 73.1379 53.1424 73.1379 61.8905H104.843C104.823 53.1424 97.7287 46.0479 88.9806 46.0479Z" fill="black"/>
<path d="M84.3469 45.7405V44.0486C84.3469 41.3953 86.5003 39.2419 89.1536 39.2419C91.8068 39.2419 93.9602 41.3953 93.9602 44.0486V45.7405C93.9602 48.3938 91.8068 50.5471 89.1536 50.5471C86.5003 50.5471 84.3469 48.3938 84.3469 45.7405Z" fill="black"/>
<path d="M99.8436 42.7603H91.9222V45.029H99.8436V42.7603Z" fill="black"/>
<path d="M137.412 92.9605L98.8437 46.2208C97.5555 44.6635 97.767 42.3371 99.3436 41.0489C100.901 39.7607 103.227 39.9722 104.516 41.5488L143.084 88.2692C144.372 89.8266 144.161 92.153 142.584 93.4411C141.027 94.7678 138.7 94.5371 137.412 92.9605Z" fill="#EBEBEB" stroke="#1D1D1B" stroke-miterlimit="10"/>
<path d="M106.15 148.467L137.047 88.9998C137.989 87.1925 140.2 86.5003 142.007 87.4424C143.815 88.3845 144.507 90.5956 143.565 92.4029L112.668 151.89C111.726 153.697 109.515 154.389 107.707 153.447C105.919 152.505 105.208 150.275 106.15 148.467Z" fill="#EBEBEB" stroke="#1D1D1B" stroke-miterlimit="10"/>
<path d="M110.976 154.466H108.131V159.791H110.976V154.466Z" fill="black"/>
<path d="M62.2367 162.33V158.446C62.2367 157.773 62.775 157.254 63.4287 157.254H114.879C115.552 157.254 116.071 157.792 116.071 158.446V162.33H62.2367Z" fill="black"/>
<path d="M102.362 47.99C104.348 47.99 105.958 46.3803 105.958 44.3947C105.958 42.409 104.348 40.7993 102.362 40.7993C100.377 40.7993 98.7671 42.409 98.7671 44.3947C98.7671 46.3803 100.377 47.99 102.362 47.99Z" stroke="black" stroke-miterlimit="10"/>
<path d="M109.534 154.14C111.52 154.14 113.129 152.53 113.129 150.544C113.129 148.559 111.52 146.949 109.534 146.949C107.548 146.949 105.938 148.559 105.938 150.544C105.938 152.53 107.548 154.14 109.534 154.14Z" stroke="black" stroke-miterlimit="10"/>
<path d="M25.7444 28.9363C24.4754 33.2238 23.1873 37.569 23.2065 42.0295C23.2257 46.4901 24.7254 51.1621 28.167 54.0077C30.7049 56.1034 34.031 57.007 36.8189 58.7758C40.7988 61.2945 43.5866 65.6013 44.2403 70.2733C44.548 72.4074 44.4134 74.5993 44.7787 76.7334C45.4708 80.6748 47.9895 84.2702 51.4502 86.289C54.5265 88.0771 58.1603 88.6154 61.4288 90.0382C66.5815 92.2877 70.6575 96.8828 72.2918 102.266" stroke="black" stroke-miterlimit="10" stroke-linecap="round" stroke-linejoin="round"/>
<path d="M105.881 29.2633C107.24 29.2633 108.342 28.1615 108.342 26.8023C108.342 25.4431 107.24 24.3413 105.881 24.3413C104.522 24.3413 103.42 25.4431 103.42 26.8023C103.42 28.1615 104.522 29.2633 105.881 29.2633Z" fill="#FFF58C" stroke="#181919" stroke-miterlimit="10" stroke-linecap="round" stroke-linejoin="round"/>
<path d="M72.3882 29.2633C73.7474 29.2633 74.8492 28.1615 74.8492 26.8023C74.8492 25.4431 73.7474 24.3413 72.3882 24.3413C71.0291 24.3413 69.9272 25.4431 69.9272 26.8023C69.9272 28.1615 71.0291 29.2633 72.3882 29.2633Z" fill="#FFF58C" stroke="#181919" stroke-miterlimit="10" stroke-linecap="round" stroke-linejoin="round"/>
<path d="M90.1536 14.4588L91.6918 19.2078C91.8264 19.65 92.2494 19.9384 92.7108 19.9384H97.7096C98.7479 19.9384 99.1709 21.265 98.3441 21.861L94.3066 24.8027C93.9413 25.0719 93.7682 25.5525 93.922 25.9947L95.4602 30.7437C95.787 31.7242 94.6526 32.551 93.8259 31.9357L89.7883 28.994C89.423 28.7249 88.9039 28.7249 88.5386 28.994L84.501 31.9357C83.6743 32.551 82.5399 31.7242 82.8668 30.7437L84.4049 25.9947C84.5395 25.5525 84.3857 25.0719 84.0204 24.8027L79.9828 21.861C79.156 21.2458 79.5791 19.9384 80.6173 19.9384H85.6162C86.0776 19.9384 86.4814 19.65 86.6352 19.2078L88.1733 14.4588C88.4425 13.4783 89.8268 13.4783 90.1536 14.4588Z" fill="#FFF58C" stroke="#181919" stroke-miterlimit="10" stroke-linecap="round" stroke-linejoin="round"/>
<path d="M132.047 88.9997C134.393 87.4424 135.758 84.7699 136.585 82.0974C137.431 79.4057 137.834 76.5986 138.815 73.9646C141.084 67.889 146.121 63.2939 151.312 59.3909C155.427 56.2954 159.964 53.1999 161.848 48.4125C162.464 46.836 162.752 45.144 163.54 43.6636C160.099 36.2421 154.581 30.5895 149.178 25.11C148.14 24.0525 147.082 22.9951 145.871 22.1299C141.353 23.8795 137.681 27.3403 135.085 31.3394C132.489 35.3385 130.855 39.8759 129.298 44.3942C128.875 45.6439 128.433 46.9321 128.471 48.2587C128.51 49.6815 129.067 51.1235 128.663 52.4885C127.721 57.6028 128.087 62.9478 130.336 67.5044C130.913 68.658 131.605 69.7924 131.855 71.0421C132.047 71.9842 132.009 72.9648 132.163 73.9261C132.336 74.9451 132.739 75.9257 132.893 76.9639C133.316 79.8863 132.932 83.1933 130.913 85.3659C130.259 86.058 128.529 86.3657 127.664 86.7502C125.472 87.7115 122.684 87.4039 120.492 86.4618C116.628 84.8275 112.436 82.8088 108.226 82.9818C104.015 83.1548 99.8044 84.6353 96.7281 87.5C94.9208 89.192 93.575 91.3069 92.4022 93.4987C91.0563 96.0174 89.9219 98.6706 89.1144 101.805C89.8834 101.862 90.691 101.401 91.4216 101.67C91.6331 101.747 91.8061 101.881 92.0176 101.939C92.2868 102.035 92.5752 101.997 92.8636 101.997C94.1518 101.958 95.4591 102.285 96.7473 103.439C97.8624 100.363 99.862 97.6324 102.458 95.6521C103.284 95.0176 104.188 94.46 105.169 94.0755C106.591 93.5372 108.149 93.4026 109.668 93.2872C114.167 92.9411 118.666 92.6912 123.184 92.5182C124.818 92.4605 126.491 92.4028 128.048 91.8645C129.625 91.3646 130.663 89.9226 132.047 88.9997Z" fill="white"/>
<mask id="mask1_457_7003" style="mask-type:luminance" maskUnits="userSpaceOnUse" x="89" y="22" width="75" height="82">
<path d="M132.048 89.2687C134.393 87.7114 135.758 85.0389 136.585 82.3664C137.431 79.6747 137.835 76.8676 138.815 74.2336C141.084 68.158 146.121 63.5629 151.313 59.6599C155.427 56.5644 159.965 53.469 161.849 48.6816C162.464 47.105 162.752 45.4131 163.541 43.9326C160.099 36.5112 154.581 30.8586 149.178 25.379C148.14 24.3216 147.083 23.2641 145.871 22.3989C141.353 24.1485 137.681 27.6093 135.085 31.6084C132.49 35.6075 130.856 40.145 129.298 44.6632C128.875 45.913 128.433 47.2011 128.471 48.5278C128.51 49.9505 129.067 51.3925 128.664 52.7576C127.722 57.8718 128.087 63.2168 130.336 67.7735C130.913 68.9271 131.605 70.0615 131.855 71.3112C132.048 72.2533 132.009 73.2338 132.163 74.1952C132.336 75.2142 132.74 76.1947 132.894 77.233C133.317 80.1554 131.605 82.9817 129.587 85.1543C128.933 85.8464 128.241 86.5194 127.356 86.9039C125.165 87.8652 122.684 86.7116 120.473 85.7695C116.609 84.1353 112.417 83.0778 108.207 83.2508C103.996 83.4239 99.7855 84.9043 96.7093 87.7691C94.902 89.461 93.5561 91.5759 92.3833 93.7678C91.0374 96.2864 89.9031 98.9397 89.0956 102.074C89.8646 102.131 90.6721 101.67 91.4027 101.939C91.6142 102.016 91.7873 102.151 91.9987 102.208C92.2679 102.304 92.5563 102.266 92.8447 102.266C94.1329 102.227 95.4403 102.554 96.7285 103.708C97.8436 100.632 99.8432 97.9015 102.439 95.9211C103.266 95.2867 104.169 94.7291 105.15 94.3446C106.572 93.8062 108.13 93.6716 109.649 93.5563C114.148 93.2102 118.647 92.9602 123.165 92.7872C124.799 92.7295 126.472 92.6718 128.029 92.1335C129.625 91.6336 130.663 90.1916 132.048 89.2687Z" fill="white"/>
</mask>
<g mask="url(#mask1_457_7003)">
<path d="M162.483 1.19214L187.555 49.566" stroke="black" stroke-miterlimit="10"/>
<path d="M158.292 5.94092L183.382 54.2956" stroke="black" stroke-miterlimit="10"/>
<path d="M154.12 10.6899L179.191 59.0447" stroke="black" stroke-miterlimit="10"/>
<path d="M149.928 15.4199L175 63.7938" stroke="black" stroke-miterlimit="10"/>
<path d="M145.737 20.1687L170.828 68.5426" stroke="black" stroke-miterlimit="10"/>
<path d="M141.565 24.9177L166.636 73.2916" stroke="black" stroke-miterlimit="10"/>
<path d="M137.373 29.6663L162.445 78.0402" stroke="black" stroke-miterlimit="10"/>
<path d="M133.182 34.4155L158.273 82.7894" stroke="black" stroke-miterlimit="10"/>
<path d="M129.01 39.1646L154.081 87.5192" stroke="black" stroke-miterlimit="10"/>
<path d="M124.818 43.894L149.909 92.268" stroke="black" stroke-miterlimit="10"/>
<path d="M120.627 48.6428L145.718 97.0168" stroke="black" stroke-miterlimit="10"/>
<path d="M116.455 53.3923L141.526 101.766" stroke="black" stroke-miterlimit="10"/>
<path d="M112.264 58.1411L137.354 106.515" stroke="black" stroke-miterlimit="10"/>
<path d="M108.091 62.8901L133.163 111.264" stroke="black" stroke-miterlimit="10"/>
<path d="M103.9 67.6387L128.971 115.993" stroke="black" stroke-miterlimit="10"/>
<path d="M99.7086 72.3879L124.799 120.743" stroke="black" stroke-miterlimit="10"/>
<path d="M95.5365 77.1174L120.608 125.491" stroke="black" stroke-miterlimit="10"/>
<path d="M91.3451 81.8665L116.436 130.24" stroke="black" stroke-miterlimit="10"/>
<path d="M87.1537 86.6152L112.244 134.989" stroke="black" stroke-miterlimit="10"/>
<path d="M82.9816 91.3647L108.053 139.739" stroke="black" stroke-miterlimit="10"/>
<path d="M78.7902 96.1133L103.881 144.487" stroke="black" stroke-miterlimit="10"/>
</g>
<path d="M171.404 62.8514C171.442 58.2947 168.193 54.4494 166.482 50.2196C165.559 47.9316 165.059 45.4129 163.502 43.5095C162.713 47.8932 160.695 52.6998 157.445 55.603C154.196 58.5062 150.409 60.7365 146.967 63.409C143.525 66.0815 140.315 69.3115 138.834 73.4067C137.508 77.0982 137.642 81.2704 135.873 84.7696C134.22 88.0381 131.028 90.3261 127.606 91.5758C124.184 92.8255 119.973 90.8644 116.32 91.0375C112.436 91.2105 107.63 90.4222 103.976 91.7296C100.323 93.0563 97.3818 95.7672 96.4012 99.6125C99.6121 101.247 103.592 106.63 106.341 108.937C109.148 105.88 112.84 101.958 116.724 100.478C118.819 99.6702 122.549 98.8434 122.549 98.8434C122.549 98.8434 127.356 98.209 129.779 97.4784C131.778 96.8631 133.412 95.9402 134.95 94.4982C139.065 90.6914 138.661 84.5389 141.757 79.8669C143.333 77.4635 145.89 75.8293 148.62 74.9064C151.351 73.9836 154.235 73.7144 157.099 73.5606C158.503 73.4837 159.906 73.4452 161.252 73.0991C166.174 71.9071 171.365 67.7349 171.404 62.8514Z" fill="#FF88B6"/>
<path d="M171.404 63.1597C171.52 69.6198 166.155 73.0613 159.753 73.9265C156.465 74.3687 153.081 73.5804 149.813 74.1957C147.006 74.734 144.41 76.3683 142.699 78.6562C139.142 83.4244 139.469 90.5575 135.143 94.6527C131.125 98.4596 124.876 98.0558 119.531 99.517C114.263 100.94 109.591 104.439 106.726 109.073" stroke="black" stroke-miterlimit="10" stroke-linecap="round" stroke-linejoin="round"/>
<path d="M89.8842 101.074C90.1918 95.383 93.3064 89.9034 98.0169 86.7118C102.727 83.5202 108.957 82.655 114.359 84.4623C118.801 85.9428 123.281 89.1536 127.703 87.6539C131.702 86.3081 133.586 81.5207 133.317 77.3293C133.048 73.1379 131.183 69.1965 129.971 65.1589C127.049 55.4303 127.991 44.6058 132.529 35.5116C135.259 30.0321 139.681 24.9178 145.641 23.4758" stroke="black" stroke-miterlimit="10" stroke-linecap="round" stroke-linejoin="round"/>
<path d="M163.252 44.3369C161.541 55.5652 152.312 58.0839 141.737 68.6392C137.238 73.3113 138.719 79.9444 135.45 85.5586C127.317 100.574 100.631 79.3869 97.3625 101.843" stroke="black" stroke-miterlimit="10" stroke-linecap="round" stroke-linejoin="round"/>
<path d="M88 175C136.049 175 175 136.049 175 88C175 39.9512 136.049 1 88 1C39.9512 1 1 39.9512 1 88C1 136.049 39.9512 175 88 175Z" stroke="black" stroke-miterlimit="10"/>
<path d="M26.9554 86.8852C24.1098 87.3851 21.5335 89.2501 20.1684 91.788C18.8033 94.3259 18.6687 97.4983 19.8416 100.152C21.0336 102.862 23.4561 104.997 24.0329 107.881C24.379 109.534 24.0522 111.245 24.0522 112.956C24.0522 114.668 24.4559 116.513 25.8018 117.513C27.6091 118.859 30.2239 118.09 32.1465 116.917C34.0692 115.744 35.9341 114.187 38.1836 114.014C39.2603 113.937 40.3178 114.187 41.3753 114.245C45.4513 114.514 49.5465 111.86 50.9885 108.034C52.4305 104.208 51.0846 99.5171 47.8546 97.0176C46.9125 96.287 45.7974 95.7102 45.1052 94.7489C43.6824 92.807 44.3554 89.9999 43.2787 87.8466C42.6442 86.5392 41.4329 85.6163 40.1255 84.9626C36.0303 82.9438 30.6661 83.7513 26.9554 86.8852Z" fill="#FFF58C" stroke="black" stroke-miterlimit="10" stroke-linecap="round" stroke-linejoin="round"/>
<mask id="mask2_457_7003" style="mask-type:luminance" maskUnits="userSpaceOnUse" x="12" y="29" width="61" height="76">
<path d="M69.6959 104.15C69.5805 103.304 68.9653 102.612 68.3693 101.978C67.5041 101.035 66.6196 100.093 65.7544 99.1512C64.7354 98.0553 63.7164 96.9402 62.5436 95.9981C58.5061 92.7488 53.1803 91.6913 48.5467 89.3457C47.047 88.5766 45.6243 87.673 44.4707 86.4425C42.1635 83.9815 41.2983 80.5399 40.7023 77.2138C40.1063 73.8876 39.7025 70.446 38.049 67.5044C36.3379 65.8893 34.7036 64.2358 32.6271 63.3899C29.1279 61.9479 24.975 63.0246 21.4373 61.6403C20.4568 61.2557 19.5339 60.6789 18.6879 60.0445C14.8042 57.1028 12.1701 52.3346 12.4393 47.4703C15.2848 40.395 19.7069 34.1079 25.2442 29.6858C24.1675 33.9733 23.0716 38.3377 23.2831 42.7406C23.4945 47.1627 25.1673 51.7002 28.7049 54.3727C32.3964 57.1605 37.7991 57.7181 40.4524 61.5057C41.0868 62.4093 41.5098 63.4476 41.9328 64.4666C43.2209 67.6005 44.5091 70.7344 45.2205 74.0414C45.6627 76.0794 45.8934 78.1751 46.6817 80.0977C47.6815 82.501 49.5849 84.5391 52.0459 85.6734C52.9111 87.3846 54.9684 88.0575 56.8141 88.5574C59.6404 89.3457 62.5052 90.1917 64.87 91.9028C66.6773 93.2102 68.1001 94.9406 69.4267 96.7287C70.3496 97.9784 72.3684 100.632 72.253 102.227C72.2146 103.227 70.6765 102.977 69.6959 104.15Z" fill="white"/>
</mask>
<g mask="url(#mask2_457_7003)">
<path d="M21.3601 -10.7283L-10.6328 33.3774" stroke="black" stroke-miterlimit="10"/>
<path d="M24.6094 -4.44116L-7.38354 39.6645" stroke="black" stroke-miterlimit="10"/>
<path d="M27.8587 1.84595L-4.11499 45.9708" stroke="black" stroke-miterlimit="10"/>
<path d="M31.108 8.13306L-0.865723 52.2579" stroke="black" stroke-miterlimit="10"/>
<path d="M34.3765 14.4202L2.38354 58.545" stroke="black" stroke-miterlimit="10"/>
<path d="M37.6258 20.7073L5.6521 64.8321" stroke="black" stroke-miterlimit="10"/>
<path d="M40.8753 26.9944L8.90161 71.1192" stroke="black" stroke-miterlimit="10"/>
<path d="M44.1436 33.2808L12.1506 77.4056" stroke="black" stroke-miterlimit="10"/>
<path d="M47.3931 39.5679L15.4001 83.6927" stroke="black" stroke-miterlimit="10"/>
<path d="M50.6422 45.855L18.6685 89.9798" stroke="black" stroke-miterlimit="10"/>
<path d="M53.8916 52.1421L21.9178 96.267" stroke="black" stroke-miterlimit="10"/>
<path d="M57.16 58.4292L25.1671 102.554" stroke="black" stroke-miterlimit="10"/>
<path d="M60.4093 64.7358L28.4164 108.841" stroke="black" stroke-miterlimit="10"/>
<path d="M63.6585 71.0229L31.6848 115.129" stroke="black" stroke-miterlimit="10"/>
<path d="M66.9079 77.3101L34.9342 121.416" stroke="black" stroke-miterlimit="10"/>
<path d="M70.1764 83.5972L38.1835 127.703" stroke="black" stroke-miterlimit="10"/>
<path d="M73.4256 89.8843L41.4519 133.99" stroke="black" stroke-miterlimit="10"/>
<path d="M76.675 96.1714L44.7013 140.277" stroke="black" stroke-miterlimit="10"/>
<path d="M79.9434 102.458L47.9504 146.564" stroke="black" stroke-miterlimit="10"/>
</g>
<path d="M52.8926 9.09502C36.6847 14.4784 15.8047 31.8015 25.8986 50.2205C29.6093 57.2382 40.9337 58.065 42.3373 66.1401C45.7211 70.6968 44.0677 77.5222 47.1631 82.2711C54.4308 90.8462 71.7538 88.8082 71.8692 103.728C73.3881 101.267 76.4259 101.228 78.8484 100.017C76.0606 87.7122 73.5419 81.9443 60.4679 79.0988C36.2232 65.3326 48.9705 28.8599 55.7574 7.63379C54.7 8.24904 53.6617 8.84508 52.8926 9.09502Z" fill="#56B381" stroke="black" stroke-miterlimit="10"/>
<path d="M117.416 129.299C117.416 130.337 116.109 131.01 115.013 130.51C107.668 127.184 98.8626 127.184 91.5181 130.51L89.134 131.587V98.8054L92.018 97.4979C99.0549 94.3063 107.515 94.3063 114.551 97.4979L116.224 98.267C116.955 98.5938 117.435 99.2476 117.435 99.9782L117.416 129.299Z" fill="white" stroke="black" stroke-miterlimit="10" stroke-linecap="round"/>
<path d="M89.1341 131.606L86.7501 130.529C79.4055 127.203 70.5998 127.203 63.2552 130.529C62.1786 131.029 60.8519 130.356 60.8519 129.318V99.9977C60.8519 99.2863 61.3134 98.6326 62.0632 98.2866L64.7549 97.0561C71.1573 94.1529 78.8287 94.1529 85.2311 97.0561L89.1341 98.8249V131.606Z" fill="white" stroke="black" stroke-miterlimit="10" stroke-linecap="round"/>
</svg>
