<svg width="56" height="82" viewBox="0 0 56 82" fill="none" xmlns="http://www.w3.org/2000/svg">
<path d="M1 53.9348C1 68.8623 13.1015 81 28.0652 81C42.9928 81 55.1304 68.8985 55.1304 53.9348C55.1304 43.337 49.0435 34.1522 40.1486 29.7138V13.0833C40.1486 6.39855 34.75 1 28.0652 1C21.3804 1 15.9819 6.39855 15.9819 13.0833V29.75C7.08699 34.1884 1 43.3551 1 53.9348Z" fill="white" stroke="#181919" stroke-miterlimit="10" stroke-linecap="round" stroke-linejoin="round"/>
<path d="M40.1305 24.1522H15.9638" stroke="#181919" stroke-miterlimit="10" stroke-linecap="round" stroke-linejoin="round"/>
<path d="M40.1305 14.9492H15.9638" stroke="#181919" stroke-miterlimit="10" stroke-linecap="round" stroke-linejoin="round"/>
<path d="M28.0659 67.1594C35.3597 67.1594 41.2725 61.2466 41.2725 53.9529C41.2725 46.6591 35.3597 40.7463 28.0659 40.7463C20.7722 40.7463 14.8594 46.6591 14.8594 53.9529C14.8594 61.2466 20.7722 67.1594 28.0659 67.1594Z" fill="#FF88B6" stroke="#181919" stroke-miterlimit="10" stroke-linecap="round" stroke-linejoin="round"/>
<path d="M28.1025 60.1125C31.5043 60.1125 34.2619 57.3548 34.2619 53.9531C34.2619 50.5513 31.5043 47.7936 28.1025 47.7936C24.7008 47.7936 21.9431 50.5513 21.9431 53.9531C21.9431 57.3548 24.7008 60.1125 28.1025 60.1125Z" fill="#5A66FF" stroke="#181919" stroke-miterlimit="10" stroke-linecap="round" stroke-linejoin="round"/>
</svg>
