<svg width="213" height="231" viewBox="0 0 213 231" fill="none" xmlns="http://www.w3.org/2000/svg">
<path d="M109 230C160.362 230 202 188.362 202 137C202 85.6375 160.362 44 109 44C57.6375 44 16 85.6375 16 137C16 188.362 57.6375 230 109 230Z" fill="#EBEBEB"/>
<path d="M133.91 76.9047C135.544 76.9047 136.869 75.5797 136.869 73.9452C136.869 72.3106 135.544 70.9856 133.91 70.9856C132.275 70.9856 130.95 72.3106 130.95 73.9452C130.95 75.5797 132.275 76.9047 133.91 76.9047Z" fill="#FFF58C" stroke="#181919" stroke-miterlimit="10" stroke-linecap="round" stroke-linejoin="round"/>
<path d="M93.8115 76.9047C95.446 76.9047 96.7711 75.5797 96.7711 73.9452C96.7711 72.3106 95.446 70.9856 93.8115 70.9856C92.177 70.9856 90.8519 72.3106 90.8519 73.9452C90.8519 75.5797 92.177 76.9047 93.8115 76.9047Z" fill="#FFF58C" stroke="#181919" stroke-miterlimit="10" stroke-linecap="round" stroke-linejoin="round"/>
<path d="M115.084 59.1678L116.933 64.8609C117.098 65.3952 117.591 65.7446 118.146 65.7446H124.127C125.36 65.7446 125.874 67.3272 124.887 68.0465L120.037 71.561C119.585 71.8898 119.4 72.4653 119.564 72.9791L121.414 78.6721C121.804 79.8436 120.448 80.8302 119.441 80.0903L114.59 76.5758C114.138 76.247 113.542 76.247 113.09 76.5758L108.24 80.0903C107.233 80.8096 105.897 79.8436 106.267 78.6721L108.116 72.9791C108.281 72.4447 108.096 71.8693 107.644 71.561L102.793 68.0465C101.786 67.3272 102.3 65.7446 103.554 65.7446H109.535C110.089 65.7446 110.583 65.3952 110.747 64.8609L112.597 59.1678C113.028 57.9758 114.693 57.9758 115.084 59.1678Z" fill="#FFF58C" stroke="#181919" stroke-miterlimit="10" stroke-linecap="round" stroke-linejoin="round"/>
<path d="M133.91 76.9047C135.544 76.9047 136.869 75.5797 136.869 73.9452C136.869 72.3106 135.544 70.9856 133.91 70.9856C132.275 70.9856 130.95 72.3106 130.95 73.9452C130.95 75.5797 132.275 76.9047 133.91 76.9047Z" fill="#FFF58C" stroke="#181919" stroke-miterlimit="10" stroke-linecap="round" stroke-linejoin="round"/>
<path d="M93.8115 76.9047C95.446 76.9047 96.7711 75.5797 96.7711 73.9452C96.7711 72.3106 95.446 70.9856 93.8115 70.9856C92.177 70.9856 90.8519 72.3106 90.8519 73.9452C90.8519 75.5797 92.177 76.9047 93.8115 76.9047Z" fill="#FFF58C" stroke="#181919" stroke-miterlimit="10" stroke-linecap="round" stroke-linejoin="round"/>
<path d="M115.084 59.1678L116.933 64.8609C117.098 65.3952 117.591 65.7446 118.146 65.7446H124.127C125.36 65.7446 125.874 67.3272 124.887 68.0465L120.037 71.561C119.585 71.8898 119.4 72.4653 119.564 72.9791L121.414 78.6721C121.804 79.8436 120.448 80.8302 119.441 80.0903L114.59 76.5758C114.138 76.247 113.542 76.247 113.09 76.5758L108.24 80.0903C107.233 80.8096 105.897 79.8436 106.267 78.6721L108.116 72.9791C108.281 72.4447 108.096 71.8693 107.644 71.561L102.793 68.0465C101.786 67.3272 102.3 65.7446 103.554 65.7446H109.535C110.089 65.7446 110.583 65.3952 110.747 64.8609L112.597 59.1678C113.028 57.9758 114.693 57.9758 115.084 59.1678Z" fill="#FFF58C" stroke="#181919" stroke-miterlimit="10" stroke-linecap="round" stroke-linejoin="round"/>
<mask id="mask0_639_2383" style="mask-type:luminance" maskUnits="userSpaceOnUse" x="20" y="86" width="73" height="73">
<path d="M90.503 158.334C90.2358 157.45 89.4754 156.833 88.7561 156.258C87.6873 155.395 86.6186 154.552 85.5499 153.689C84.2962 152.682 83.0425 151.675 81.6449 150.873C76.8562 148.078 71.0604 147.811 65.7989 146.064C64.0931 145.488 62.4283 144.769 61.0307 143.639C58.215 141.398 56.7353 137.884 55.5843 134.472C54.4334 131.06 53.4469 127.484 51.2478 124.628C49.1925 123.189 47.1989 121.709 44.8559 121.134C40.9099 120.168 36.7172 121.956 32.7505 121.072C31.6407 120.825 30.5925 120.373 29.606 119.818C25.0434 117.331 21.4878 112.707 20.9945 107.528C22.8648 99.6151 26.5642 92.2573 31.7024 86.6876C31.2502 91.3941 30.7775 96.1623 31.7024 100.807C32.6272 105.452 35.1141 109.994 39.2657 112.234C43.6228 114.598 49.398 114.331 52.8097 117.907C53.6318 118.77 54.2279 119.777 54.8445 120.805C56.6942 123.908 58.5645 127.032 59.8387 130.403C60.6197 132.479 61.1952 134.678 62.3461 136.569C63.7848 138.953 66.1278 140.802 68.9023 141.624C70.0738 143.31 72.3757 143.68 74.4104 143.926C77.5138 144.296 80.6789 144.748 83.474 146.187C85.591 147.276 87.3791 148.9 89.0438 150.585C90.2153 151.757 92.7638 154.244 92.9076 155.95C93.0515 156.957 91.3662 156.957 90.503 158.334Z" fill="white"/>
</mask>
<g mask="url(#mask0_639_2383)">
<path d="M21.2003 44.5756L-5.62073 96.2856" stroke="black" stroke-miterlimit="10"/>
<path d="M25.619 50.7002L-1.1814 102.41" stroke="black" stroke-miterlimit="10"/>
<path d="M30.0584 56.8453L3.25793 108.535" stroke="black" stroke-miterlimit="10"/>
<path d="M34.4977 62.97L7.69727 114.68" stroke="black" stroke-miterlimit="10"/>
<path d="M38.937 69.0948L12.1366 120.805" stroke="black" stroke-miterlimit="10"/>
<path d="M43.3764 75.2195L16.5759 126.93" stroke="black" stroke-miterlimit="10"/>
<path d="M47.8157 81.3645L21.0153 133.054" stroke="black" stroke-miterlimit="10"/>
<path d="M52.2551 87.4891L25.4547 139.199" stroke="black" stroke-miterlimit="10"/>
<path d="M56.6944 93.6138L29.894 145.324" stroke="black" stroke-miterlimit="10"/>
<path d="M61.1337 99.7384L34.3333 151.448" stroke="black" stroke-miterlimit="10"/>
<path d="M65.5736 105.884L38.7731 157.573" stroke="black" stroke-miterlimit="10"/>
<path d="M70.0124 112.008L43.212 163.718" stroke="black" stroke-miterlimit="10"/>
<path d="M74.4516 118.133L47.6306 169.843" stroke="black" stroke-miterlimit="10"/>
<path d="M78.8915 124.278L52.0704 175.968" stroke="black" stroke-miterlimit="10"/>
<path d="M83.3303 130.403L56.5093 182.113" stroke="black" stroke-miterlimit="10"/>
<path d="M87.7696 136.527L60.9486 188.238" stroke="black" stroke-miterlimit="10"/>
<path d="M92.2094 142.652L65.3884 194.362" stroke="black" stroke-miterlimit="10"/>
<path d="M96.6482 148.797L69.8273 200.487" stroke="black" stroke-miterlimit="10"/>
<path d="M101.088 154.922L74.2672 206.632" stroke="black" stroke-miterlimit="10"/>
</g>
<path d="M155.182 137.206C157.689 135.541 159.148 132.684 160.032 129.827C160.937 126.95 161.368 123.949 162.416 121.133C164.842 114.639 170.226 109.727 175.775 105.555C180.174 102.246 185.024 98.9368 187.038 93.8192C187.696 92.1339 188.004 90.3253 188.847 88.7428C185.168 80.8095 179.269 74.7671 173.494 68.9096C172.384 67.7792 171.254 66.6489 169.959 65.724C165.129 67.5943 161.204 71.2937 158.429 75.5686C155.655 79.8436 153.908 84.6939 152.243 89.5238C151.791 90.8597 151.318 92.2367 151.359 93.6548C151.4 95.1757 151.996 96.7171 151.565 98.1764C150.558 103.643 150.948 109.357 153.353 114.228C153.969 115.461 154.709 116.674 154.976 118.01C155.182 119.017 155.141 120.065 155.305 121.092C155.49 122.182 155.922 123.23 156.086 124.34C156.538 127.464 154.709 130.485 152.551 132.807C151.852 133.547 151.112 134.267 150.167 134.678C147.824 135.705 145.173 134.472 142.809 133.465C138.678 131.718 134.198 130.588 129.697 130.773C125.196 130.958 120.695 132.54 117.406 135.602C115.474 137.411 114.036 139.672 112.782 142.015C111.343 144.707 110.131 147.543 109.268 150.894C110.09 150.955 110.953 150.462 111.734 150.75C111.96 150.832 112.145 150.976 112.371 151.037C112.659 151.14 112.967 151.099 113.275 151.099C114.652 151.058 116.05 151.407 117.427 152.64C118.619 149.352 120.756 146.434 123.531 144.317C124.415 143.638 125.381 143.042 126.429 142.631C127.95 142.056 129.615 141.912 131.238 141.789C136.048 141.419 140.857 141.152 145.687 140.967C147.434 140.905 149.222 140.843 150.886 140.268C152.592 139.733 153.702 138.192 155.182 137.206Z" fill="white"/>
<mask id="mask1_639_2383" style="mask-type:luminance" maskUnits="userSpaceOnUse" x="109" y="66" width="80" height="87">
<path d="M155.182 137.493C157.689 135.828 159.148 132.972 160.032 130.115C160.937 127.237 161.368 124.237 162.416 121.421C164.842 114.927 170.226 110.014 175.775 105.842C180.174 102.533 185.024 99.2244 187.038 94.1068C187.696 92.4215 188.004 90.6129 188.847 89.0304C185.168 81.0971 179.269 75.0547 173.494 69.1972C172.384 68.0668 171.254 66.9365 169.959 66.0116C165.129 67.8819 161.204 71.5813 158.429 75.8562C155.655 80.1312 153.908 84.9815 152.243 89.8114C151.791 91.1473 151.318 92.5243 151.359 93.9424C151.4 95.4633 151.996 97.0047 151.565 98.464C150.558 103.931 150.948 109.645 153.353 114.515C153.969 115.749 154.709 116.961 154.976 118.297C155.182 119.304 155.141 120.352 155.305 121.38C155.49 122.469 155.922 123.517 156.086 124.627C156.538 127.751 154.709 130.772 152.551 133.095C151.852 133.835 151.112 134.554 150.167 134.965C147.824 135.993 145.173 134.76 142.809 133.753C138.678 132.006 134.198 130.875 129.697 131.06C125.196 131.245 120.695 132.828 117.406 135.89C115.474 137.699 114.036 139.959 112.782 142.302C111.343 144.995 110.131 147.831 109.268 151.181C110.09 151.243 110.953 150.749 111.734 151.037C111.96 151.119 112.145 151.263 112.371 151.325C112.659 151.428 112.967 151.387 113.275 151.387C114.652 151.346 116.05 151.695 117.427 152.928C118.619 149.64 120.756 146.721 123.531 144.604C124.415 143.926 125.381 143.33 126.429 142.919C127.95 142.344 129.615 142.2 131.238 142.076C136.048 141.706 140.857 141.439 145.687 141.254C147.434 141.193 149.222 141.131 150.886 140.555C152.592 140.021 153.702 138.48 155.182 137.493Z" fill="white"/>
</mask>
<g mask="url(#mask1_639_2383)">
<path d="M187.716 43.3423L214.516 95.0523" stroke="black" stroke-miterlimit="10"/>
<path d="M183.236 48.4186L210.057 100.129" stroke="black" stroke-miterlimit="10"/>
<path d="M178.776 53.4952L205.576 105.185" stroke="black" stroke-miterlimit="10"/>
<path d="M174.295 58.5715L201.096 110.261" stroke="black" stroke-miterlimit="10"/>
<path d="M169.815 63.6274L196.636 115.337" stroke="black" stroke-miterlimit="10"/>
<path d="M165.355 68.704L192.155 120.414" stroke="black" stroke-miterlimit="10"/>
<path d="M160.874 73.7806L187.695 125.491" stroke="black" stroke-miterlimit="10"/>
<path d="M156.394 78.8569L183.215 130.567" stroke="black" stroke-miterlimit="10"/>
<path d="M151.934 83.9333L178.735 135.643" stroke="black" stroke-miterlimit="10"/>
<path d="M147.454 89.0096L174.275 140.699" stroke="black" stroke-miterlimit="10"/>
<path d="M142.994 94.0865L169.794 145.776" stroke="black" stroke-miterlimit="10"/>
<path d="M138.514 99.1421L165.314 150.852" stroke="black" stroke-miterlimit="10"/>
<path d="M134.033 104.219L160.854 155.929" stroke="black" stroke-miterlimit="10"/>
<path d="M129.573 109.295L156.373 161.005" stroke="black" stroke-miterlimit="10"/>
<path d="M125.093 114.372L151.914 166.082" stroke="black" stroke-miterlimit="10"/>
<path d="M120.612 119.448L147.433 171.158" stroke="black" stroke-miterlimit="10"/>
<path d="M116.152 124.525L142.953 176.214" stroke="black" stroke-miterlimit="10"/>
<path d="M111.672 129.58L138.493 181.291" stroke="black" stroke-miterlimit="10"/>
<path d="M107.212 134.657L134.012 186.367" stroke="black" stroke-miterlimit="10"/>
<path d="M102.731 139.733L129.532 191.443" stroke="black" stroke-miterlimit="10"/>
<path d="M98.2508 144.81L125.072 196.52" stroke="black" stroke-miterlimit="10"/>
</g>
<path d="M99.7722 152.702C101.231 152.353 102.691 151.983 104.006 151.613C102.876 148.345 101.786 145.015 101.54 141.583C101.293 138.13 102.012 134.513 104.15 131.8C107.233 127.916 112.474 126.683 116.872 124.381C120.756 122.346 124.127 119.325 126.552 115.687C128.237 113.159 129.532 110.138 129.039 107.137C128.751 105.39 127.888 103.787 127.004 102.246C124.764 98.2996 122.051 94.1274 117.632 92.9559C110.501 89.277 102.012 89.6881 94.0381 90.613C90.5647 91.024 87.1119 91.4967 83.7618 92.4627C75.1709 94.9495 67.7926 100.416 60.6403 105.76C60.1265 106.151 59.5921 106.562 59.3249 107.158C59.0988 107.672 59.1194 108.268 59.1605 108.843C59.5716 113.508 61.7501 117.783 63.9081 121.955C65.1207 124.298 66.3538 126.662 68.2241 128.512C70.2794 130.546 72.9718 131.821 75.6847 132.828C78.747 133.938 81.9121 134.739 85.1183 135.232C86.8242 135.479 88.5917 135.664 90.0715 136.548C91.3868 137.349 92.3322 138.624 93.216 139.877C95.7439 143.453 99.0117 153.051 99.0117 153.051L99.7722 152.702Z" fill="#FFF58C"/>
<path d="M155.347 119.078C154.586 119.181 153.805 119.243 153.004 119.243C143.406 119.243 135.637 111.474 135.637 101.876C135.637 92.2778 143.406 84.5089 153.004 84.5089C153.353 84.5089 153.394 84.5911 153.764 84.6117" stroke="black" stroke-miterlimit="10" stroke-linecap="round" stroke-linejoin="round"/>
<path d="M170.206 66.8543C161.204 70.5743 154.195 78.8364 152.017 88.3316C149.283 100.273 153.826 112.481 156.826 124.36C156.765 127.505 155.716 130.608 153.641 132.725C151.544 134.842 148.461 135.911 145.502 135.582C141.7 135.13 138.493 132.561 134.773 131.677C131.752 130.958 128.567 131.43 125.525 132.108C123.12 132.663 120.715 133.362 118.619 134.677C113.132 138.11 110.871 145.077 110.748 151.551C108.548 150.996 106.719 151.243 105.096 151.962C102.67 150.38 102.157 147.626 101.848 145.139C101.293 141.028 100.841 136.507 103.081 133.033C104.808 130.361 107.788 128.82 110.624 127.402C113.995 125.717 117.365 124.031 120.736 122.367C123.017 121.236 125.36 120.024 126.922 118.009C128.608 115.81 129.101 112.933 129.101 110.158C129.101 106.582 128.32 102.944 126.45 99.9027C124.189 96.2238 120.469 93.5725 116.42 92.0722C112.371 90.5719 107.993 90.1403 103.677 90.1403C87.0299 90.1814 70.4852 96.9842 58.6264 108.658C56.4889 98.0119 56.7561 88.5372 57.0644 79.2885C57.2905 71.9924 57.5782 64.5113 59.839 57.8934C84.132 42.7051 115.721 39.8278 142.604 50.0424C152.695 54.4406 162.231 60.1747 170.206 66.8543Z" fill="#B180E0"/>
<path d="M197.253 109.254C197.294 104.383 193.82 100.273 191.991 95.7512C191.005 93.3054 190.47 90.6131 188.806 88.5784C187.963 93.2643 185.805 98.4025 182.332 101.506C178.858 104.609 174.809 106.993 171.13 109.85C167.452 112.707 164.019 116.16 162.437 120.537C161.019 124.484 161.162 128.943 159.272 132.684C157.504 136.178 154.092 138.624 150.434 139.96C146.755 141.295 142.809 141.665 138.904 141.83C134.753 142.015 130.519 142.035 126.634 143.454C122.729 144.872 119.174 148.037 118.126 152.127C121.558 153.874 124.785 156.032 127.724 158.498C130.724 155.23 134.67 151.037 138.822 149.455C141.062 148.592 145.049 147.708 145.049 147.708C145.049 147.708 150.187 147.03 152.777 146.249C154.915 145.591 156.661 144.604 158.306 143.063C162.704 138.994 162.272 132.417 165.581 127.423C167.267 124.854 170 123.107 172.919 122.12C175.837 121.134 178.92 120.846 181.982 120.681C183.483 120.599 184.983 120.558 186.421 120.188C191.662 118.934 197.212 114.475 197.253 109.254Z" fill="#FF88B6"/>
<path d="M57.6811 60.5243C48.1037 65.1897 40.6637 73.349 34.4363 82.0016C33.3675 83.4814 32.3194 85.0228 31.8261 86.7904C31.3534 88.4757 31.4356 90.2637 31.5384 92.0312C31.7028 94.9497 31.8877 97.8476 32.1138 100.766C32.2166 102.205 32.3605 103.705 32.977 105C33.5936 106.295 34.6418 107.322 35.69 108.288C37.8069 110.241 40.0676 112.111 42.6367 113.426C45.1235 114.701 47.8365 115.441 50.3233 116.694C52.8102 117.948 55.1737 119.859 55.5848 122.511C59.8802 126.785 59.2225 134.267 63.2508 138.788C65.6144 141.46 69.2521 142.631 72.7461 143.31C76.2605 143.988 79.8778 144.296 83.1662 145.694C87.9344 147.749 91.6133 152.188 92.7642 157.553C93.3191 156.237 94.4701 155.271 95.7032 154.572C96.9364 153.874 98.2928 153.422 99.5465 152.517C96.4431 147.502 95.621 140.823 90.8939 137.308C86.9479 134.349 81.5426 134.595 76.7744 133.321C71.1019 131.8 66.0871 127.875 62.6137 122.757C61.6066 120.62 60.7229 118.421 59.7569 115.995C59.017 106.973 56.4069 98.1148 56.448 89.0511C56.4685 85.6805 56.859 82.3099 57.2495 78.9393C58.0511 72.0953 58.8526 65.2102 60.4557 58.5101C59.4486 59.3322 58.4621 60.1338 57.6811 60.5243Z" fill="#56B381"/>
<path d="M21.4262 106.706C21.3029 113.611 26.9138 120.167 33.7783 121.092C37.2928 121.565 40.91 120.722 44.4039 121.38C47.4046 121.956 50.1792 123.702 52.0083 126.148C55.8105 131.245 55.4612 138.87 60.0855 143.248C64.3809 147.317 71.0605 146.886 76.7741 148.448C82.4055 149.969 87.3997 153.709 90.462 158.662" stroke="black" stroke-miterlimit="10" stroke-linecap="round" stroke-linejoin="round"/>
<path d="M197.13 106.706C197.253 113.611 191.642 120.167 184.777 121.092C181.263 121.565 177.646 120.722 174.152 121.38C171.151 121.956 168.377 123.702 166.547 126.148C162.745 131.245 163.095 138.87 158.47 143.248C154.175 147.317 147.495 146.886 141.782 148.448C136.15 149.969 131.156 153.709 128.094 158.662" stroke="black" stroke-miterlimit="10" stroke-linecap="round" stroke-linejoin="round"/>
<path d="M110.11 150.112C110.439 144.029 113.769 138.171 118.804 134.76C123.839 131.348 130.498 130.423 136.274 132.355C141.021 133.938 145.81 137.37 150.537 135.767C154.812 134.328 156.826 129.211 156.538 124.73C156.251 120.229 154.257 116.036 152.962 111.72C149.838 101.321 150.845 89.7498 155.696 80.0285C158.614 74.171 163.341 68.704 169.713 67.1626" stroke="black" stroke-miterlimit="10" stroke-linecap="round" stroke-linejoin="round"/>
<path d="M187.757 87.2632C189.443 100.622 176.844 104.157 165.561 115.441C160.751 120.435 162.334 127.525 158.84 133.527C150.146 149.578 126.573 134.082 118.126 150.935" stroke="black" stroke-miterlimit="10" stroke-linecap="round" stroke-linejoin="round"/>
<path d="M60.2084 58.2018C56.3034 74.0272 55.728 90.6542 58.5231 106.726C59.5302 112.522 61.0099 118.338 64.1134 123.333C67.2168 128.327 72.1083 132.458 77.8835 133.486C80.0415 133.876 82.2612 133.814 84.3987 134.308C88.3037 135.212 91.6126 137.904 93.9556 141.131C96.2986 144.378 97.7578 148.16 98.991 151.962" stroke="black" stroke-miterlimit="10" stroke-linecap="round" stroke-linejoin="round"/>
<path d="M32.1136 85.8036C31.456 90.5307 30.7777 95.3399 31.4971 100.067C32.2164 104.794 34.5594 109.48 38.6493 111.946C41.6705 113.755 45.3083 114.187 48.5556 115.605C53.1594 117.619 56.7972 121.75 58.2358 126.58C58.8935 128.799 59.0991 131.122 59.839 133.321C61.1954 137.39 64.4222 140.781 68.4093 142.364C71.9444 143.762 75.8699 143.762 79.5488 144.748C85.3651 146.31 90.4005 150.523 92.9695 155.949" stroke="black" stroke-miterlimit="10" stroke-linecap="round" stroke-linejoin="round"/>
<path d="M59.4278 107.631C70.4028 96.5939 85.7555 90.0171 101.334 89.6678C108.795 89.5033 116.666 90.9009 122.401 95.6896C128.135 100.458 130.909 109.295 127.107 115.728C121.599 125.018 106.103 125.182 102.074 135.192C99.9779 140.432 101.971 146.31 103.986 151.592" stroke="black" stroke-miterlimit="10" stroke-linecap="round" stroke-linejoin="round"/>
<path d="M130.54 77.2953C132.174 77.2953 133.499 75.9703 133.499 74.3358C133.499 72.7013 132.174 71.3762 130.54 71.3762C128.905 71.3762 127.58 72.7013 127.58 74.3358C127.58 75.9703 128.905 77.2953 130.54 77.2953Z" fill="#FFF58C" stroke="#181919" stroke-miterlimit="10" stroke-linecap="round" stroke-linejoin="round"/>
<path d="M90.4213 77.2953C92.0558 77.2953 93.3809 75.9703 93.3809 74.3358C93.3809 72.7013 92.0558 71.3762 90.4213 71.3762C88.7868 71.3762 87.4617 72.7013 87.4617 74.3358C87.4617 75.9703 88.7868 77.2953 90.4213 77.2953Z" fill="#FFF58C" stroke="#181919" stroke-miterlimit="10" stroke-linecap="round" stroke-linejoin="round"/>
<path d="M111.693 59.5378L113.543 65.2308C113.707 65.7652 114.2 66.1146 114.755 66.1146H120.736C121.969 66.1146 122.483 67.6971 121.497 68.4165L116.646 71.931C116.194 72.2598 116.009 72.8353 116.173 73.3491L118.023 79.0421C118.414 80.2136 117.057 81.2001 116.05 80.4602L111.2 76.9458C110.748 76.6169 110.152 76.6169 109.699 76.9458L104.849 80.4602C103.842 81.1796 102.506 80.2136 102.876 79.0421L104.726 73.3491C104.89 72.8147 104.705 72.2392 104.253 71.931L99.4643 68.437C98.4572 67.7177 98.971 66.1352 100.225 66.1352H106.205C106.76 66.1352 107.254 65.7858 107.418 65.2514L109.268 59.5584C109.658 58.3663 111.323 58.3663 111.693 59.5378Z" fill="#FFF58C" stroke="#181919" stroke-miterlimit="10" stroke-linecap="round" stroke-linejoin="round"/>
<mask id="mask2_639_2383" style="mask-type:luminance" maskUnits="userSpaceOnUse" x="16" y="44" width="187" height="186">
<path d="M109.37 230C160.733 230 202.37 188.362 202.37 137C202.37 85.6375 160.733 44 109.37 44C58.0076 44 16.3701 85.6375 16.3701 137C16.3701 188.362 58.0076 230 109.37 230Z" fill="white"/>
</mask>
<g mask="url(#mask2_639_2383)">
<path d="M156.189 209.077C146.878 202.644 129.08 198.287 108.651 198.287C88.2215 198.287 70.423 202.644 61.1128 209.077H54.1866V219.354C54.1866 230.986 78.5618 240.42 108.651 240.42C138.739 240.42 163.115 230.986 163.115 219.354V209.077H156.189Z" fill="#5A66FF" stroke="black" stroke-miterlimit="10" stroke-linecap="round" stroke-linejoin="round"/>
<path d="M108.651 230.144C138.73 230.144 163.115 220.712 163.115 209.077C163.115 197.443 138.73 188.011 108.651 188.011C78.5709 188.011 54.1865 197.443 54.1865 209.077C54.1865 220.712 78.5709 230.144 108.651 230.144Z" fill="white" stroke="black" stroke-miterlimit="10" stroke-linecap="round" stroke-linejoin="round"/>
<path d="M156.189 198.801C146.878 192.368 129.08 188.011 108.651 188.011C88.2215 188.011 70.423 192.368 61.1128 198.801H54.1866V209.077C54.1866 220.71 78.5618 230.144 108.651 230.144C138.739 230.144 163.115 220.71 163.115 209.077V198.801H156.189Z" fill="#FFF58C" stroke="black" stroke-miterlimit="10" stroke-linecap="round" stroke-linejoin="round"/>
<path d="M108.651 219.868C138.73 219.868 163.115 210.436 163.115 198.801C163.115 187.167 138.73 177.735 108.651 177.735C78.5709 177.735 54.1865 187.167 54.1865 198.801C54.1865 210.436 78.5709 219.868 108.651 219.868Z" fill="white" stroke="black" stroke-miterlimit="10" stroke-linecap="round" stroke-linejoin="round"/>
<path d="M156.189 188.525C146.878 182.092 129.08 177.735 108.651 177.735C88.2215 177.735 70.423 182.092 61.1128 188.525H54.1866V198.801C54.1866 210.434 78.5618 219.868 108.651 219.868C138.739 219.868 163.115 210.434 163.115 198.801V188.525H156.189Z" fill="#FFF58C" stroke="black" stroke-miterlimit="10" stroke-linecap="round" stroke-linejoin="round"/>
<path d="M108.651 209.591C138.73 209.591 163.115 200.16 163.115 188.525C163.115 176.89 138.73 167.459 108.651 167.459C78.5709 167.459 54.1865 176.89 54.1865 188.525C54.1865 200.16 78.5709 209.591 108.651 209.591Z" fill="white" stroke="black" stroke-miterlimit="10" stroke-linecap="round" stroke-linejoin="round"/>
</g>
<path d="M109.37 230C160.733 230 202.37 188.362 202.37 137C202.37 85.6375 160.733 44 109.37 44C58.0076 44 16.3701 85.6375 16.3701 137C16.3701 188.362 58.0076 230 109.37 230Z" stroke="#181919" stroke-miterlimit="10"/>
<path fill-rule="evenodd" clip-rule="evenodd" d="M148.42 149.249C149.016 144.378 149.53 143.782 148.523 139.96C147.577 136.404 145.892 133.136 144.967 129.56C144.063 126.087 142.686 123.086 139.295 121.36C135.903 119.613 133.807 116.55 130.683 114.68C127.847 112.974 125.216 110.816 122.236 109.48C117.92 107.548 113.152 107.261 108.507 106.418C103.389 105.493 99.135 107.014 95.3533 110.385C93.3803 112.152 91.1606 113.714 89.4547 115.708C86.7624 118.832 83.3712 121.524 82.4053 125.984C80.5144 134.698 71.1425 137.658 71.8207 147.749C72.1701 152.846 73.1155 156.936 76.5684 160.553C77.2877 161.314 77.9043 162.403 78.0276 163.41C79.0963 170.912 83.8028 176.461 88.8793 181.208C94.038 186.018 100.738 188.69 107.931 189.471C111.734 189.902 115.598 190.58 119.379 190.334C125.113 189.964 130.601 187.991 134.917 184.209C137.137 182.277 140.014 180.9 141.802 178.516C143.878 175.721 142.994 172.618 144.412 169.658C145.44 167.479 146.94 165.815 147.639 163.41C148.913 159.279 148.564 154.696 148.42 149.249Z" fill="#33B2C1" stroke="black" stroke-miterlimit="10"/>
<path d="M101.005 138.624C101.17 143.721 110.336 143.063 108.712 137.904" stroke="black" stroke-miterlimit="10" stroke-linecap="round" stroke-linejoin="round"/>
<path d="M112.268 137.781C112.453 139.302 113.522 140.7 114.96 141.254C116.399 141.809 118.126 141.481 119.277 140.473C120.427 139.446 120.962 137.781 120.592 136.281" stroke="black" stroke-miterlimit="10" stroke-linecap="round" stroke-linejoin="round"/>
<path d="M95.4976 144.995C96.6897 147.831 99.156 150.01 101.931 151.346C104.705 152.681 107.809 153.216 110.871 153.421C112.68 153.545 114.509 153.545 116.317 153.216C122.668 152.065 127.929 146.413 128.608 140.001" stroke="black" stroke-miterlimit="10" stroke-linecap="round" stroke-linejoin="round"/>
<path d="M148.397 124.815C148.122 123.214 149.13 121.769 149.918 120.37C151.421 117.742 152.224 114.788 153.013 111.868C153.679 109.381 154.327 106.582 152.881 104.267C152.349 103.406 151.591 102.71 151 101.884C150.408 101.058 150.022 100.017 150.401 99.149C150.565 98.7744 150.859 98.4567 151.108 98.1398C154.106 94.4212 153.493 89.0844 152.854 84.2634C152.746 83.4459 152.78 82.4062 153.591 82.1724C153.87 82.0915 154.16 82.1371 154.431 82.1746C156.781 82.5729 159.413 83.4393 161.347 82.2567C161.805 81.9699 162.225 81.5655 162.797 81.5724C163.281 81.5809 163.727 81.8772 164.102 82.1832C167.564 84.8514 171.107 88.2447 175.424 88.2454C176.48 88.4635 177.157 88.1307 177.116 87.5654C177.105 87.3375 176.952 87.1289 176.818 86.9285C176.287 86.1691 175.755 85.4096 175.224 84.6501C174.019 82.9478 172.804 81.2203 171.261 79.7351C169.446 78.0096 167.167 76.588 166.074 74.4275C166.283 71.6192 164.29 68.7817 161.729 66.9933C159.167 65.2048 156.126 64.2611 153.133 63.3587C151.526 62.8799 149.82 62.3775 148.228 62.6756C145.767 63.141 144.205 65.2971 141.929 66.2492C139.523 67.2458 136.466 66.8429 134.339 68.2655C133.216 69.0116 132.506 70.1814 131.695 71.2262C129.981 73.3765 127.668 75.0219 125.388 76.6415C123.945 77.1059 122.086 78.6252 121.022 80.3502C119.958 82.0753 119.456 84.0861 118.374 85.803C117.064 87.8872 115.008 89.4014 112.944 90.8313C111.892 91.5678 110.795 92.305 110.147 93.3807C109.876 93.8501 109.671 94.3689 109.381 94.8302C108.347 96.3857 106.183 96.8797 104.833 98.1958C103.468 99.5459 103.133 101.731 103.111 103.607C98.3034 100.675 92.6443 99.0337 87.078 98.9535C86.4607 98.9473 85.7765 98.9931 85.4121 99.4218C84.9844 99.9446 85.2408 100.726 85.5717 101.337C86.5084 103.044 87.9992 104.445 89.5273 105.762C93.7991 109.413 98.532 112.515 103.421 115.361C121.658 125.966 142.056 132.892 162.815 135.9C163.276 135.959 163.781 136.018 164.124 135.742C164.823 135.155 163.938 134.039 163.131 133.504C158.235 130.168 153.048 127.192 148.397 124.815Z" fill="#A37D65"/>
<path d="M148.397 124.815C148.122 123.214 149.13 121.769 149.918 120.37C151.421 117.742 152.224 114.788 153.013 111.868C153.679 109.381 154.327 106.582 152.881 104.267C152.349 103.406 151.591 102.71 151 101.884C150.408 101.058 150.022 100.017 150.401 99.149C150.565 98.7744 150.859 98.4567 151.108 98.1398C154.106 94.4212 153.493 89.0844 152.854 84.2634C152.746 83.4459 152.78 82.4062 153.591 82.1724C153.87 82.0915 154.16 82.1371 154.431 82.1746C156.781 82.5729 159.413 83.4393 161.347 82.2567C161.805 81.9699 162.225 81.5655 162.797 81.5724C163.281 81.5809 163.727 81.8772 164.102 82.1832C167.564 84.8514 171.107 88.2447 175.424 88.2454C176.48 88.4635 177.157 88.1307 177.116 87.5654C177.105 87.3375 176.952 87.1289 176.818 86.9285C176.287 86.1691 175.755 85.4096 175.224 84.6501C174.019 82.9478 172.804 81.2203 171.261 79.7351C169.446 78.0096 167.167 76.588 166.074 74.4275C166.283 71.6192 164.29 68.7817 161.729 66.9933C159.167 65.2048 156.126 64.2611 153.133 63.3587C151.526 62.8799 149.82 62.3775 148.228 62.6756C145.767 63.141 144.205 65.2971 141.929 66.2492C139.523 67.2458 136.466 66.8429 134.339 68.2655C133.216 69.0116 132.506 70.1814 131.695 71.2262C129.981 73.3765 127.668 75.0219 125.388 76.6415C123.945 77.1059 122.086 78.6252 121.022 80.3502C119.958 82.0753 119.456 84.0861 118.374 85.803C117.064 87.8872 115.008 89.4014 112.944 90.8313C111.892 91.5678 110.795 92.305 110.147 93.3807C109.876 93.8501 109.671 94.3689 109.381 94.8302C108.347 96.3857 106.183 96.8797 104.833 98.1958C103.468 99.5459 103.133 101.731 103.111 103.607C98.3034 100.675 92.6443 99.0337 87.078 98.9535C86.4607 98.9473 85.7765 98.9931 85.4121 99.4218C84.9844 99.9446 85.2408 100.726 85.5717 101.337C86.5084 103.044 87.9992 104.445 89.5273 105.762C93.7991 109.413 98.532 112.515 103.421 115.361C121.658 125.966 142.056 132.892 162.815 135.9C163.276 135.959 163.781 136.018 164.124 135.742C164.823 135.155 163.938 134.039 163.131 133.504C158.235 130.168 153.048 127.192 148.397 124.815Z" fill="#A37D65" stroke="#120000" stroke-miterlimit="10" stroke-linecap="round" stroke-linejoin="round"/>
<path d="M153.468 82.0985C151.553 79.6398 149.572 77.1316 146.832 75.8532C146.43 75.6574 145.988 75.5047 145.515 75.5213C145.062 75.5462 144.549 75.8086 144.303 76.269C144.058 76.7295 144.117 77.3029 144.359 77.7126C144.6 78.1223 144.998 78.3773 145.433 78.5471" fill="#A37D65"/>
<path d="M153.468 82.0985C151.553 79.6398 149.572 77.1316 146.832 75.8532C146.43 75.6574 145.988 75.5047 145.515 75.5213C145.062 75.5462 144.549 75.8086 144.303 76.269C144.058 76.7295 144.117 77.3029 144.359 77.7126C144.6 78.1223 144.998 78.3773 145.433 78.5471" stroke="#120000" stroke-miterlimit="10" stroke-linecap="round" stroke-linejoin="round"/>
<path d="M124.186 82.179C126.826 85.2586 129.439 88.3471 132.079 91.4267C133.194 92.7251 134.387 94.0981 136.019 94.6694C137.072 95.0481 138.224 95.0449 139.306 94.9499C142.854 94.6346 146.227 93.2494 148.804 91.0502C149.321 90.6273 149.823 90.137 150.473 89.9144C151.124 89.6919 151.994 89.8287 152.411 90.3959C152.425 90.666 152.429 90.9109 152.444 91.181" fill="#A37D65"/>
<path d="M124.186 82.179C126.826 85.2586 129.439 88.3471 132.079 91.4267C133.194 92.7251 134.387 94.0981 136.019 94.6694C137.072 95.0481 138.224 95.0449 139.306 94.9499C142.854 94.6346 146.227 93.2494 148.804 91.0502C149.321 90.6273 149.823 90.137 150.473 89.9144C151.124 89.6919 151.994 89.8287 152.411 90.3959C152.425 90.666 152.429 90.9109 152.444 91.181" stroke="#120000" stroke-miterlimit="10" stroke-linecap="round" stroke-linejoin="round"/>
<path d="M126.83 80.2319C129.812 83.9475 132.804 87.6883 135.786 91.404C136.087 91.7789 136.407 92.1619 136.864 92.382C137.236 92.5445 137.649 92.5626 138.05 92.5556C141.222 92.5425 144.312 91.5001 146.688 89.6593C148.22 88.4836 149.559 86.9397 151.526 86.5421" fill="#A37D65"/>
<path d="M126.83 80.2319C129.812 83.9475 132.804 87.6883 135.786 91.404C136.087 91.7789 136.407 92.1619 136.864 92.382C137.236 92.5445 137.649 92.5626 138.05 92.5556C141.222 92.5425 144.312 91.5001 146.688 89.6593C148.22 88.4836 149.559 86.9397 151.526 86.5421" stroke="#120000" stroke-miterlimit="10" stroke-linecap="round" stroke-linejoin="round"/>
<path d="M147.312 93.1965C148.275 93.1712 149.272 93.2214 150.239 93.3397C151.358 95.0857 151.353 97.3752 150.227 98.9915C149.066 100.634 146.913 101.558 146.128 103.405" fill="#A37D65"/>
<path d="M147.312 93.1965C148.275 93.1712 149.272 93.2214 150.239 93.3397C151.358 95.0857 151.353 97.3752 150.227 98.9915C149.066 100.634 146.913 101.558 146.128 103.405" stroke="#120000" stroke-miterlimit="10" stroke-linecap="round" stroke-linejoin="round"/>
<path d="M125.877 84.5401C125.126 84.2322 124.305 83.934 123.565 84.1581C123.234 84.2568 122.955 84.4391 122.694 84.6295C121.508 85.4696 120.433 86.4599 119.522 87.5825" fill="#A37D65"/>
<path d="M125.877 84.5401C125.126 84.2322 124.305 83.934 123.565 84.1581C123.234 84.2568 122.955 84.4391 122.694 84.6295C121.508 85.4696 120.433 86.4599 119.522 87.5825" stroke="#120000" stroke-miterlimit="10" stroke-linecap="round" stroke-linejoin="round"/>
<path d="M112.464 94.6158C118.405 95.0021 124.366 95.3964 130.308 95.7827C131.62 95.8696 132.951 95.9646 134.152 96.5097C136.573 97.6079 137.774 100.18 139.35 102.248C142.067 105.808 146.455 108.232 150.961 108.66" fill="#A37D65"/>
<path d="M112.464 94.6158C118.405 95.0021 124.366 95.3964 130.308 95.7827C131.62 95.8696 132.951 95.9646 134.152 96.5097C136.573 97.6079 137.774 100.18 139.35 102.248C142.067 105.808 146.455 108.232 150.961 108.66" stroke="#120000" stroke-miterlimit="10" stroke-linecap="round" stroke-linejoin="round"/>
<path d="M113.185 93.0657C117.882 92.9077 122.6 93.0028 127.304 93.3346C130.873 93.5764 134.755 94.1169 137.439 96.4861C139.562 98.3667 140.592 101.128 142.748 102.983C144.748 104.688 147.626 105.398 150.11 104.78" fill="#A37D65"/>
<path d="M113.185 93.0657C117.882 92.9077 122.6 93.0028 127.304 93.3346C130.873 93.5764 134.755 94.1169 137.439 96.4861C139.562 98.3667 140.592 101.128 142.748 102.983C144.748 104.688 147.626 105.398 150.11 104.78" stroke="#120000" stroke-miterlimit="10" stroke-linecap="round" stroke-linejoin="round"/>
<path d="M150.521 116.558C149.435 116.813 148.323 116.976 147.193 117.03C146.669 117.064 146.122 117.048 145.624 116.871C144.59 116.501 143.981 115.464 143.114 114.761C141.702 113.637 139.779 113.527 137.983 113.33C131.908 112.642 125.97 110.169 121.189 106.316C119.486 104.943 117.854 103.358 115.794 102.6C113.106 101.608 110.179 102.174 107.342 102.029C107.357 101.488 107.38 100.93 107.402 100.575C109.031 99.6852 111.094 99.9786 112.965 100.309C114.761 100.607 116.549 100.922 118.271 101.492C123.093 103.072 127.064 106.551 131.67 108.726C136.686 111.08 142.516 111.924 150.521 116.558Z" fill="#A37D65" stroke="#120000" stroke-miterlimit="10" stroke-linecap="round" stroke-linejoin="round"/>
<path d="M107.182 104.474C108.61 104.145 110.083 103.815 111.566 104.017C113.013 104.203 114.384 104.863 115.544 105.755C116.712 106.63 117.701 107.711 118.612 108.819" fill="#A37D65"/>
<path d="M107.182 104.474C108.61 104.145 110.083 103.815 111.566 104.017C113.013 104.203 114.384 104.863 115.544 105.755C116.712 106.63 117.701 107.711 118.612 108.819" stroke="#120000" stroke-miterlimit="10" stroke-linecap="round" stroke-linejoin="round"/>
<path d="M132.833 117.771C136.852 117.743 140.894 118.17 144.858 119.031L132.833 117.771Z" fill="#A37D65"/>
<path d="M132.833 117.771C136.852 117.743 140.894 118.17 144.858 119.031" stroke="#120000" stroke-miterlimit="10" stroke-linecap="round" stroke-linejoin="round"/>
<path d="M63.5325 26.3719C63.5399 26.7351 63.4476 27.0492 63.3146 27.0492C57.9859 27.059 52.6535 27.0492 47.3248 27.0492C38.8942 27.0492 30.4635 27.0492 22.0292 27.0492C19.5419 27.0492 8.84882 27.0492 3.76877 27.0492C2.23176 27.0492 1.01358 25.8922 1.00451 24.3552C0.964533 17.5737 1.20708 1 1.06883 1C5.5999 1 39.4518 1 42.5242 1C48.6744 1 54.8245 1 60.9747 1C62.49 1 63.6612 2.12944 63.6593 3.64474C63.652 9.53732 63.4823 23.3315 63.5325 26.3719Z" fill="white" stroke="black" stroke-miterlimit="10" stroke-linecap="round" stroke-linejoin="round"/>
<path d="M27.1479 9.43233H22.3039V7.73833H20.8759V9.43233H16.0599V10.6783H27.1479V9.43233ZM16.6059 13.9123C16.6059 15.6063 18.7759 16.3063 21.6039 16.3063C24.4319 16.3063 26.6019 15.6063 26.6019 13.9123C26.6019 12.2043 24.4319 11.5043 21.6039 11.5043C18.7759 11.5043 16.6059 12.2043 16.6059 13.9123ZM25.1879 13.9123C25.1879 14.7943 23.6339 15.1163 21.6039 15.1163C19.5879 15.1163 18.0199 14.7943 18.0199 13.9123C18.0199 13.0163 19.5879 12.6943 21.6039 12.6943C23.6339 12.6943 25.1879 13.0163 25.1879 13.9123ZM15.6399 18.0143V19.2743H27.5819V18.0143H15.6399ZM35.0707 12.4283C37.9687 12.4283 40.3487 11.7563 40.3487 10.1183C40.3487 8.49433 37.9687 7.82233 35.0707 7.82233C32.1727 7.82233 29.7927 8.49433 29.7927 10.1183C29.7927 11.7563 32.1727 12.4283 35.0707 12.4283ZM35.0707 11.3223C32.9847 11.3223 31.2627 10.9583 31.2627 10.1183C31.2627 9.29233 32.9847 8.91433 35.0707 8.91433C37.1567 8.91433 38.8787 9.29233 38.8787 10.1183C38.8787 10.9583 37.1567 11.3223 35.0707 11.3223ZM29.1067 14.4863H41.0487V13.3663H29.1067V14.4863ZM29.9327 19.7083H40.2087V15.6483H29.9327V19.7083ZM31.3187 18.6023V16.7543H38.8367V18.6023H31.3187ZM42.6575 13.3943V14.7943C43.0915 14.3323 43.5395 14.0663 44.1975 14.0663C45.2475 14.0663 46.1155 15.0743 47.3195 15.0743C48.0615 15.0743 48.6075 14.7803 49.0135 14.2903V12.8763C48.5655 13.4223 48.1315 13.7863 47.4595 13.7863C46.4235 13.7863 45.5555 12.7783 44.3515 12.7783C43.6375 12.7783 43.0635 13.0023 42.6575 13.3943Z" fill="black"/>
<path d="M211.606 57.605C211.628 58.0411 211.352 58.4182 210.956 58.4182C195.058 58.43 179.15 58.4182 163.253 58.4182C138.101 58.4182 112.95 58.4182 87.7873 58.4182C79.2046 58.4182 37.87 58.4182 27.5792 58.4182C26.2107 58.4182 25.1191 57.4818 25.0826 56.1138C24.8839 48.6875 25.6848 27.1416 25.2556 27.1416C38.7733 27.1416 139.765 27.1416 148.931 27.1416C169.178 27.1416 189.425 27.1416 209.672 27.1416C210.991 27.1416 211.977 28.0332 211.983 29.3524C212.013 35.7464 211.448 53.7765 211.606 57.605Z" fill="white" stroke="black" stroke-miterlimit="10" stroke-linecap="round" stroke-linejoin="round"/>
<path d="M57.3767 36.8242V41.0662H52.9527V42.3822H57.3767V48.7802H58.7627V36.8242H57.3767ZM49.5507 46.7782V37.1882H48.1367V48.0662H52.6867C53.8347 48.0662 55.0807 47.8562 55.8087 47.4922V46.2182C55.0807 46.5682 53.8487 46.7782 52.7147 46.7782H49.5507ZM71.1515 36.8242V48.7802H72.4675V36.8242H71.1515ZM68.2675 41.8082H66.6715C66.5315 38.5462 65.5795 37.1042 63.9135 37.1042C62.1075 37.1042 61.1275 38.7982 61.1275 42.6622C61.1275 46.5262 62.1075 48.2202 63.9135 48.2202C65.6495 48.2202 66.6015 46.6662 66.6855 43.1242H68.2675V48.5702H69.5695V36.8942H68.2675V41.8082ZM63.9135 46.9602C62.9195 46.9602 62.4435 45.6022 62.4435 42.6622C62.4435 39.7222 62.9195 38.3642 63.9135 38.3642C64.9075 38.3642 65.3695 39.7222 65.3695 42.6622C65.3695 45.6022 64.9075 46.9602 63.9135 46.9602ZM84.6043 36.8242V48.7802H85.9343V36.8242H84.6043ZM81.6223 41.6402H79.6623C79.6903 41.2622 79.7043 40.8842 79.7043 40.4782V37.2582H74.7063V38.5182H78.3603V40.5482C78.3603 44.2442 76.9323 46.6662 74.7063 46.7362V48.0382C77.0723 48.0102 78.8783 46.1202 79.4803 42.9562H81.6223V48.5702H82.9383V36.8942H81.6223V41.6402ZM95.3869 41.1782H96.7449V36.9642H92.5309V38.1262H95.3869V41.1782ZM101.589 41.3182H102.961V36.9642H97.4449V38.1262H101.589V41.3182ZM99.2369 42.3402V39.7782H97.8649V42.3402H91.8309V43.5162H103.773V42.3402H99.2369ZM92.5589 46.0222H101.533V48.7942H102.933V44.8322H92.5589V46.0222ZM120.044 39.2742V36.8242H118.658V43.3202H120.044V40.6042H121.724V39.2742H120.044ZM116.628 37.1182H109.642V42.7462H116.628V37.1182ZM115.256 41.5702H111.014V38.2942H115.256V41.5702ZM116.026 45.1402H120.198V43.9782H110.02V45.1402H114.57C113.982 46.5822 112.008 47.4222 109.88 47.4222V48.6262C111.784 48.6262 113.674 48.0662 114.878 46.9602L120.128 48.7802L120.52 47.5902L115.648 46.0222C115.802 45.7562 115.942 45.4622 116.026 45.1402ZM123.542 41.4582H133.888V40.2262H124.942V36.8242H123.542V41.4582ZM122.688 44.0062H134.63V42.7742H122.688V44.0062ZM123.514 48.6402H134.014V47.4082H124.928V45.0702H123.514V48.6402ZM152.581 41.6682H150.901V36.8242H149.515V48.7802H150.901V42.9982H152.581V41.6682ZM145.245 37.1742L143.831 37.1182C143.817 42.1442 142.571 46.2882 140.177 46.6662V48.0662C142.039 47.9262 143.481 46.3722 144.335 43.7682L147.415 48.0382L148.535 47.2402L144.769 42.1442C145.077 40.7022 145.231 39.0362 145.245 37.1742ZM163.416 36.8242V39.2182H160.952C160.616 37.8602 159.286 36.9642 157.354 36.9642C155.086 36.9642 153.658 38.1822 153.658 39.9182C153.658 41.6542 155.086 42.8722 157.354 42.8722C159.342 42.8722 160.686 41.9202 160.98 40.5062H163.416V42.9562H164.802V36.8242H163.416ZM157.354 41.7242C155.982 41.7242 155.044 41.0382 155.044 39.9182C155.044 38.7982 155.982 38.1122 157.354 38.1122C158.726 38.1122 159.65 38.7982 159.65 39.9182C159.65 41.0382 158.726 41.7242 157.354 41.7242ZM163.43 44.8742H156.122V43.6142H154.764V48.6262H164.802V43.6142H163.43V44.8742ZM156.122 47.4922V45.9802H163.43V47.4922H156.122ZM172.977 41.9762C175.875 41.9762 178.283 41.1362 178.283 39.3582C178.283 37.5942 175.875 36.7542 172.977 36.7542C170.079 36.7542 167.671 37.5942 167.671 39.3582C167.671 41.1362 170.079 41.9762 172.977 41.9762ZM172.977 40.8562C170.891 40.8562 169.141 40.3382 169.141 39.3582C169.141 38.3922 170.891 37.8742 172.977 37.8742C175.063 37.8742 176.813 38.3922 176.813 39.3582C176.813 40.3382 175.063 40.8562 172.977 40.8562ZM167.013 44.2162H178.955V43.0402H167.013V44.2162ZM167.839 48.6402H178.339V47.4502H169.253V45.2382H167.839V48.6402ZM181.515 48.6682C182.075 48.6682 182.495 48.2342 182.495 47.6742C182.495 47.1142 182.075 46.6802 181.515 46.6802C180.955 46.6802 180.521 47.1142 180.521 47.6742C180.521 48.2342 180.955 48.6682 181.515 48.6682ZM185.111 48.6682C185.671 48.6682 186.091 48.2342 186.091 47.6742C186.091 47.1142 185.671 46.6802 185.111 46.6802C184.551 46.6802 184.117 47.1142 184.117 47.6742C184.117 48.2342 184.551 48.6682 185.111 48.6682ZM188.189 45.3782H189.253L189.617 37.2722H187.839L188.189 45.3782ZM188.721 48.7102C189.309 48.7102 189.757 48.2622 189.757 47.6742C189.757 47.1002 189.309 46.6522 188.721 46.6522C188.133 46.6522 187.685 47.1002 187.685 47.6742C187.685 48.2622 188.133 48.7102 188.721 48.7102Z" fill="black"/>
</svg>
