<svg width="120" height="103" viewBox="0 0 120 103" fill="none" xmlns="http://www.w3.org/2000/svg">
<path d="M33.1154 100.121L1.25083 25.668C0.573787 24.0956 1.31635 22.261 2.88884 21.5839L50.391 1.25083C51.9635 0.573787 53.7981 1.31635 54.4751 2.88884L86.3397 77.3417L33.1154 100.121Z" fill="#EBEBEB" stroke="black" stroke-miterlimit="10"/>
<path d="M52.2254 11.8214L51.1116 9.20062C50.8713 8.65462 51.1334 8.02126 51.6794 7.80286L59.9351 4.26478C60.4811 4.02454 61.1143 4.2866 61.3327 4.83261L62.4466 7.45341C62.6868 7.99941 62.4247 8.63277 61.8787 8.85118L53.6232 12.3893C53.0991 12.6295 52.4657 12.3674 52.2254 11.8214Z" fill="#B180E0" stroke="black" stroke-miterlimit="10"/>
<path d="M103.553 49.2141L82.8716 66.5992L95.2186 42.5941C98.5009 44.2823 101.308 46.561 103.553 49.2141Z" fill="#EBEBEB" stroke="black" stroke-miterlimit="10"/>
<path d="M106.886 78.9756C104.888 82.8599 102.087 86.0611 98.7678 88.4554C96.4432 90.1578 93.8495 91.4761 91.1142 92.3533L82.8606 66.6674L82.8806 66.6286L109.72 69.4062C109.4 72.6552 108.464 75.907 106.886 78.9756Z" fill="#FF88B6" stroke="black" stroke-miterlimit="10"/>
<path d="M91.1147 92.3534C87.4383 93.5324 83.5267 93.9273 79.6445 93.4532C76.5425 93.0857 73.4567 92.1616 70.5046 90.6432C67.2223 88.955 64.4156 86.6763 62.18 84.0037C59.8861 81.3012 58.1927 78.1952 57.1269 74.8718L82.8516 66.6381L82.8616 66.6187L82.881 66.6287L82.8611 66.6675L91.1147 92.3534Z" fill="#B180E0" stroke="black" stroke-miterlimit="10"/>
<path d="M82.8719 66.6486L82.8517 66.6382" stroke="black" stroke-miterlimit="10"/>
<path d="M109.721 69.4065L82.8811 66.6289L82.8616 66.6189L82.8716 66.5995L103.553 49.2144C105.818 51.9264 107.521 55.0617 108.596 58.3658C109.728 61.8951 110.125 65.6602 109.721 69.4065Z" fill="#56B381" stroke="black" stroke-miterlimit="10"/>
<path d="M82.8719 66.6486L82.8517 66.6382" stroke="black" stroke-miterlimit="10"/>
<path d="M95.2183 42.5939L82.8513 66.6379L57.1265 74.8716C56.0141 71.3523 55.5881 67.5965 55.9728 63.8403C56.3226 60.5818 57.2484 57.3495 58.8367 54.2615C60.8346 50.3772 63.6549 47.186 66.9546 44.7817C69.3086 43.0699 71.8923 41.7709 74.6081 40.8838C78.2745 39.7242 82.1862 39.3293 86.0978 39.7939C89.1998 40.1615 92.2856 41.0855 95.2183 42.5939Z" fill="#5A66FF" stroke="black" stroke-miterlimit="10"/>
</svg>
