<svg width="176" height="176" viewBox="0 0 176 176" fill="none" xmlns="http://www.w3.org/2000/svg">
<path d="M87.8843 174.769C135.869 174.769 174.769 135.869 174.769 87.8843C174.769 39.8994 135.869 1 87.8843 1C39.8994 1 1 39.8994 1 87.8843C1 135.869 39.8994 174.769 87.8843 174.769Z" fill="#5A66FF"/>
<path d="M6.14526 114.9C6.14526 114.9 132.814 121.678 169.66 60.1577C169.66 60.1577 184.33 110.56 153.877 142.818C153.877 142.818 145.083 154.434 136.539 159.561C127.994 164.688 111.808 171.254 111.808 171.254L96.8889 174.115L76.4015 173.962C76.4015 173.962 51.4211 167.261 45.296 163.459C39.1709 159.657 26.2102 149.135 26.2102 149.135L13.3456 132.814C13.3648 132.814 7.22052 119.201 6.14526 114.9Z" fill="#EBEBEB"/>
<path d="M89.5549 16.2071L91.283 21.5257C91.4366 22.025 91.8975 22.3514 92.4159 22.3514H98.0034C99.1554 22.3514 99.6354 23.8299 98.7138 24.5019L94.1824 27.7852C93.7599 28.0925 93.5871 28.6301 93.7407 29.1101L95.4688 34.4288C95.8337 35.5232 94.5664 36.4449 93.6255 35.7536L89.0941 32.4703C88.6717 32.1631 88.1149 32.1631 87.6924 32.4703L83.161 35.7536C82.2202 36.4257 80.9721 35.5232 81.3177 34.4288L83.0458 29.1101C83.1994 28.6109 83.0266 28.0733 82.6042 27.7852L78.0728 24.5019C77.1319 23.8299 77.612 22.3514 78.7832 22.3514H84.3707C84.8891 22.3514 85.3499 22.025 85.5035 21.5257L87.2316 16.2071C87.6348 15.1126 89.1901 15.1126 89.5549 16.2071Z" fill="#FFF58C" stroke="#181919" stroke-miterlimit="10" stroke-linecap="round" stroke-linejoin="round"/>
<path d="M31.4719 40.8797C45.0854 34.889 59.5629 30.8184 74.3092 28.8215" stroke="#181919" stroke-miterlimit="10" stroke-linecap="round" stroke-linejoin="round"/>
<path d="M26.1532 48.6754C27.6803 48.6754 28.9182 47.4375 28.9182 45.9104C28.9182 44.3834 27.6803 43.1455 26.1532 43.1455C24.6262 43.1455 23.3883 44.3834 23.3883 45.9104C23.3883 47.4375 24.6262 48.6754 26.1532 48.6754Z" fill="#FFF58C" stroke="#181919" stroke-miterlimit="10" stroke-linecap="round" stroke-linejoin="round"/>
<path d="M5.49268 114.516C21.199 115.822 37.0206 115.745 52.7078 114.247" stroke="#020303" stroke-miterlimit="10"/>
<path d="M162.519 43.3952C157.43 47.0818 158.198 54.1477 156.298 60.1576C154.589 65.5915 150.768 70.1421 146.428 73.8287C138.94 80.2034 129.666 84.4468 119.95 85.9637C133.007 77.8993 140.553 60.388 136.54 45.1617C135.234 40.227 132.892 35.5804 132.028 30.5497C131.164 25.5191 132.22 19.6628 136.559 16.3411C141.244 18.5492 144.911 22.3702 148.713 25.8839C153.225 30.0505 159.082 37.2893 162.519 43.3952Z" fill="#B180E0" stroke="#020303" stroke-miterlimit="10" stroke-linecap="round" stroke-linejoin="round"/>
<path d="M58.219 87.8844C38.7877 83.5258 17.3402 89.4781 2.59387 103.898C3.78433 110.234 5.85803 116.417 8.69977 123.387C18.8187 105.05 37.9428 91.9934 58.219 87.8844Z" fill="#FFF58C" stroke="#020303" stroke-miterlimit="10" stroke-linecap="round" stroke-linejoin="round"/>
<path d="M145.045 41.7059C131.432 35.7152 116.954 31.6446 102.208 29.6477" stroke="#181919" stroke-miterlimit="10" stroke-linecap="round" stroke-linejoin="round"/>
<path d="M150.364 49.482C151.891 49.482 153.129 48.2441 153.129 46.7171C153.129 45.1901 151.891 43.9521 150.364 43.9521C148.837 43.9521 147.599 45.1901 147.599 46.7171C147.599 48.2441 148.837 49.482 150.364 49.482Z" fill="#FFF58C" stroke="#181919" stroke-miterlimit="10" stroke-linecap="round" stroke-linejoin="round"/>
<path d="M54.4166 82.9107C38.0766 77.3616 19.4325 79.0321 4.34054 87.3845C3.32289 87.9413 2.26683 88.575 1.69081 89.5926C1.15318 90.5335 1.09558 91.6855 1.09558 92.7608C1.09558 96.2554 1.4796 99.7691 2.24763 103.168C13.8834 93.9704 28.0153 86.9045 42.8384 87.3845C45.0081 87.4613 47.2162 87.6917 49.3091 87.1157C51.4212 86.5781 53.4181 84.9652 54.4166 82.9107Z" fill="#FF88B6" stroke="#020303" stroke-miterlimit="10"/>
<path d="M73.2716 86.9814L60.8485 74.5583C60.3493 74.0591 60.3493 73.2527 60.8485 72.7535L73.2716 60.3305C73.7708 59.8312 74.5772 59.8312 75.0764 60.3305L87.4995 72.7535C87.9987 73.2527 87.9987 74.0591 87.4995 74.5583L75.0764 86.9814C74.5772 87.4806 73.7708 87.4806 73.2716 86.9814Z" stroke="black" stroke-miterlimit="10"/>
<path d="M52.3817 55.1465V120.583C52.3817 121.985 53.5338 123.137 54.9546 123.137H120.833C122.254 123.137 123.406 121.985 123.406 120.583V55.1465C123.406 53.7448 122.254 52.5928 120.833 52.5928H54.9546C53.5338 52.5928 52.3817 53.7256 52.3817 55.1465Z" fill="#EBEBEB"/>
<mask id="mask0_525_18820" style="mask-type:luminance" maskUnits="userSpaceOnUse" x="52" y="52" width="72" height="72">
<path d="M52.3817 55.1465V120.583C52.3817 121.985 53.5338 123.137 54.9546 123.137H120.833C122.254 123.137 123.406 121.985 123.406 120.583V55.1465C123.406 53.7448 122.254 52.5928 120.833 52.5928H54.9546C53.5338 52.5928 52.3817 53.7256 52.3817 55.1465Z" fill="white"/>
</mask>
<g mask="url(#mask0_525_18820)">
<path d="M17.4934 87.9417L87.8073 157.795" stroke="black" stroke-miterlimit="10"/>
<path d="M21.0649 84.4082L91.3596 154.261" stroke="black" stroke-miterlimit="10"/>
<path d="M24.6168 80.8755L94.9115 150.728" stroke="black" stroke-miterlimit="10"/>
<path d="M28.1692 77.3425L98.4638 147.176" stroke="black" stroke-miterlimit="10"/>
<path d="M31.7404 73.8101L102.035 143.644" stroke="black" stroke-miterlimit="10"/>
<path d="M35.2927 70.2766L105.587 140.11" stroke="black" stroke-miterlimit="10"/>
<path d="M38.8451 66.7434L109.14 136.577" stroke="black" stroke-miterlimit="10"/>
<path d="M42.4161 63.2109L112.711 133.045" stroke="black" stroke-miterlimit="10"/>
<path d="M45.9685 59.6777L116.263 129.512" stroke="black" stroke-miterlimit="10"/>
<path d="M49.5204 56.1445L119.815 125.978" stroke="black" stroke-miterlimit="10"/>
<path d="M53.0728 52.5928L123.387 122.446" stroke="black" stroke-miterlimit="10"/>
<path d="M56.6439 49.0598L126.939 118.913" stroke="black" stroke-miterlimit="10"/>
<path d="M60.1963 45.5264L130.491 115.379" stroke="black" stroke-miterlimit="10"/>
<path d="M63.7487 41.9937L134.063 111.827" stroke="black" stroke-miterlimit="10"/>
<path d="M67.3197 38.4607L137.614 108.295" stroke="black" stroke-miterlimit="10"/>
<path d="M70.8721 34.928L141.167 104.762" stroke="black" stroke-miterlimit="10"/>
<path d="M74.424 31.3945L144.738 101.228" stroke="black" stroke-miterlimit="10"/>
<path d="M77.9956 27.8616L148.29 97.6954" stroke="black" stroke-miterlimit="10"/>
<path d="M81.548 24.3289L151.843 94.1627" stroke="black" stroke-miterlimit="10"/>
<path d="M85.0999 20.7764L155.414 90.6294" stroke="black" stroke-miterlimit="10"/>
</g>
<path d="M52.3817 55.1465V120.583C52.3817 121.985 53.5338 123.137 54.9546 123.137H120.833C122.254 123.137 123.406 121.985 123.406 120.583V55.1465C123.406 53.7448 122.254 52.5928 120.833 52.5928H54.9546C53.5338 52.5928 52.3817 53.7256 52.3817 55.1465Z" stroke="black" stroke-miterlimit="10"/>
<path d="M86.9819 72.7346L74.5589 60.3116C74.0596 59.8123 74.0596 59.0059 74.5589 58.5067L86.9819 46.0836C87.4811 45.5844 88.2875 45.5844 88.7868 46.0836L101.21 58.5067C101.709 59.0059 101.709 59.8123 101.21 60.3116L88.7868 72.7346C88.2875 73.2338 87.4811 73.2338 86.9819 72.7346Z" fill="#FF88B6" stroke="black" stroke-miterlimit="10"/>
<path d="M101.21 86.9623L88.7865 74.5393C88.2873 74.0401 88.2873 73.2337 88.7865 72.7344L101.21 60.3114C101.709 59.8122 102.515 59.8122 103.014 60.3114L115.437 72.7344C115.937 73.2337 115.937 74.0401 115.437 74.5393L103.014 86.9623C102.515 87.4616 101.709 87.4616 101.21 86.9623Z" fill="white" stroke="black" stroke-miterlimit="10"/>
<path d="M115.456 101.191L103.033 88.7676C102.534 88.2684 102.534 87.4619 103.033 86.9627L115.456 74.5397C115.956 74.0405 116.762 74.0405 117.261 74.5397L129.684 86.9627C130.184 87.4619 130.184 88.2684 129.684 88.7676L117.261 101.191C116.762 101.69 115.956 101.69 115.456 101.191Z" fill="#B180E0" stroke="black" stroke-miterlimit="10"/>
<path d="M86.9819 101.191L74.5589 88.7676C74.0596 88.2684 74.0596 87.4619 74.5589 86.9627L86.9819 74.5397C87.4811 74.0405 88.2875 74.0405 88.7868 74.5397L101.21 86.9627C101.709 87.4619 101.709 88.2684 101.21 88.7676L88.7868 101.191C88.2875 101.69 87.4811 101.69 86.9819 101.191Z" fill="#5A66FF" stroke="black" stroke-miterlimit="10"/>
<path d="M101.21 115.418L88.7865 102.995C88.2873 102.496 88.2873 101.69 88.7865 101.19L101.21 88.7675C101.709 88.2683 102.515 88.2683 103.014 88.7675L115.437 101.19C115.937 101.69 115.937 102.496 115.437 102.995L103.014 115.418C102.515 115.918 101.709 115.918 101.21 115.418Z" fill="white" stroke="black" stroke-miterlimit="10"/>
<path d="M58.5259 101.191L46.1029 88.7676C45.6037 88.2684 45.6037 87.4619 46.1029 86.9627L58.5259 74.5397C59.0252 74.0405 59.8316 74.0405 60.3308 74.5397L72.7538 86.9627C73.2531 87.4619 73.2531 88.2684 72.7538 88.7676L60.3308 101.191C59.8316 101.69 59.0252 101.69 58.5259 101.191Z" fill="#FFF58C" stroke="black" stroke-miterlimit="10"/>
<path d="M72.7536 115.418L60.3306 102.995C59.8314 102.496 59.8314 101.69 60.3306 101.19L72.7536 88.7675C73.2528 88.2683 74.0593 88.2683 74.5585 88.7675L86.9815 101.19C87.4807 101.69 87.4807 102.496 86.9815 102.995L74.5585 115.418C74.0593 115.918 73.2528 115.918 72.7536 115.418Z" fill="white" stroke="black" stroke-miterlimit="10"/>
<path d="M86.9819 129.665L74.5589 117.242C74.0596 116.743 74.0596 115.937 74.5589 115.437L86.9819 103.014C87.4811 102.515 88.2875 102.515 88.7868 103.014L101.21 115.437C101.709 115.937 101.709 116.743 101.21 117.242L88.7868 129.665C88.2875 130.164 87.4811 130.164 86.9819 129.665Z" fill="#56B381" stroke="black" stroke-miterlimit="10"/>
<path d="M72.7536 86.9623L60.3306 74.5393C59.8314 74.0401 59.8314 73.2337 60.3306 72.7344L72.7536 60.3114C73.2528 59.8122 74.0593 59.8122 74.5585 60.3114L86.9815 72.7344C87.4807 73.2337 87.4807 74.0401 86.9815 74.5393L74.5585 86.9623C74.0593 87.4616 73.2528 87.4616 72.7536 86.9623Z" fill="white"/>
<path d="M72.7536 86.9623L60.3306 74.5393C59.8314 74.0401 59.8314 73.2337 60.3306 72.7344L72.7536 60.3114C73.2528 59.8122 74.0593 59.8122 74.5585 60.3114L86.9815 72.7344C87.4807 73.2337 87.4807 74.0401 86.9815 74.5393L74.5585 86.9623C74.0593 87.4616 73.2528 87.4616 72.7536 86.9623Z" stroke="black" stroke-miterlimit="10"/>
<path d="M124.252 95.8714C142.953 89.3239 159.313 76.3056 169.873 59.5432" stroke="#020303" stroke-miterlimit="10"/>
<path d="M26.4416 89.4965C32.8573 89.4965 38.0582 84.2957 38.0582 77.88C38.0582 71.4643 32.8573 66.2634 26.4416 66.2634C20.026 66.2634 14.8251 71.4643 14.8251 77.88C14.8251 84.2957 20.026 89.4965 26.4416 89.4965Z" fill="#FF88B6" stroke="#1D1D1B" stroke-miterlimit="10"/>
<path d="M39.3823 120.66C42.7651 120.66 45.5074 117.918 45.5074 114.535C45.5074 111.152 42.7651 108.41 39.3823 108.41C35.9995 108.41 33.2572 111.152 33.2572 114.535C33.2572 117.918 35.9995 120.66 39.3823 120.66Z" fill="#56B381" stroke="#1D1D1B" stroke-miterlimit="10"/>
<path d="M150.479 107.834C154.985 107.834 158.639 104.18 158.639 99.6736C158.639 95.1667 154.985 91.5132 150.479 91.5132C145.972 91.5132 142.318 95.1667 142.318 99.6736C142.318 104.18 145.972 107.834 150.479 107.834Z" fill="#FFF58C" stroke="#1D1D1B" stroke-miterlimit="10"/>
<path d="M174.039 76.0948C173.501 72.7922 172.368 69.048 169.277 67.7808C165.283 66.1487 160.848 70.1233 160.099 74.3667C159.331 78.6293 160.944 82.8919 161.98 87.0777C164.323 96.5822 163.44 107.546 156.931 114.842C155.663 116.263 153.724 117.607 151.996 116.839C149.826 115.879 150.037 112.749 150.806 110.522C151.574 108.295 152.418 105.472 150.729 103.84C149.097 102.266 146.159 103.187 144.872 105.05C143.586 106.912 143.452 109.312 143.279 111.578C143.106 113.844 142.78 116.263 141.243 117.934C138.882 120.468 133.985 119.7 132.507 116.551C131.413 114.17 132.181 111.405 132.603 108.813C133.025 106.221 132.833 103.072 130.625 101.67C127.726 99.8272 123.905 102.554 122.446 105.664C119.662 111.559 121.14 118.586 119.508 124.904C117.895 131.201 113.402 136.04 107.776 139.439C107.757 139.458 76.1331 157.296 17.5702 139.439C17.5702 139.439 48.0613 182.449 96.9469 174.596C137.557 168.087 157.18 140.706 162.672 131.624C164.054 129.512 165.264 127.304 166.358 125.038C173.655 109.946 176.727 92.646 174.039 76.0948Z" fill="#B180E0"/>
<path d="M173.635 74.6351C173.367 72.9263 173.328 71.9662 172.541 70.4301C171.811 68.9901 170.774 67.8188 169.277 67.2044C165.283 65.5723 160.848 69.5469 160.099 73.7903C159.331 78.0529 160.944 82.3155 161.98 86.5013C164.323 96.0058 163.44 106.97 156.931 114.266C155.663 115.687 153.724 117.031 151.996 116.263C149.826 115.303 150.037 112.173 150.806 109.946C151.574 107.718 152.418 104.896 150.729 103.264C149.097 101.689 146.159 102.611 144.872 104.473C143.586 106.336 143.452 108.736 143.279 111.002C143.106 113.267 142.78 115.687 141.243 117.357C138.882 119.892 133.985 119.124 132.507 115.975C131.413 113.594 132.181 110.829 132.603 108.237C133.025 105.645 132.833 102.496 130.625 101.094C127.726 99.2507 123.905 101.977 122.446 105.088C119.662 110.983 121.14 118.01 119.508 124.327C117.895 130.625 113.402 135.464 107.776 138.862C107.757 138.881 76.1331 156.719 17.5702 138.862" stroke="#020303" stroke-miterlimit="10"/>
<path d="M87.8843 174.769C135.869 174.769 174.769 135.869 174.769 87.8843C174.769 39.8994 135.869 1 87.8843 1C39.8994 1 1 39.8994 1 87.8843C1 135.869 39.8994 174.769 87.8843 174.769Z" stroke="#020303" stroke-miterlimit="10"/>
</svg>
