<svg width="176" height="176" viewBox="0 0 176 176" fill="none" xmlns="http://www.w3.org/2000/svg">
<path d="M88.0031 174.954C135.977 174.954 174.867 136.727 174.867 89.5714C174.867 42.4159 135.977 4.18872 88.0031 4.18872C40.0294 4.18872 1.13892 42.4159 1.13892 89.5714C1.13892 136.727 40.0294 174.954 88.0031 174.954Z" fill="#FF88B6"/>
<path d="M33.4851 39.2861C43.3905 30.3233 59.1317 21.7567 74.009 20.6057" stroke="#181919" stroke-miterlimit="10" stroke-linecap="round" stroke-linejoin="round"/>
<path d="M27.688 46.4748C29.2147 46.4748 30.4523 45.2583 30.4523 43.7577C30.4523 42.257 29.2147 41.0405 27.688 41.0405C26.1613 41.0405 24.9237 42.257 24.9237 43.7577C24.9237 45.2583 26.1613 46.4748 27.688 46.4748Z" fill="#FFF58C" stroke="#181919" stroke-miterlimit="10" stroke-linecap="round" stroke-linejoin="round"/>
<path d="M145.343 39.2861C135.438 30.3233 119.697 21.7567 104.82 20.6057" stroke="#181919" stroke-miterlimit="10" stroke-linecap="round" stroke-linejoin="round"/>
<path d="M151.16 46.4748C152.687 46.4748 153.924 45.2583 153.924 43.7577C153.924 42.257 152.687 41.0405 151.16 41.0405C149.633 41.0405 148.396 42.257 148.396 43.7577C148.396 45.2583 149.633 46.4748 151.16 46.4748Z" fill="#FFF58C" stroke="#181919" stroke-miterlimit="10" stroke-linecap="round" stroke-linejoin="round"/>
<path d="M90.5565 11.2647L92.2841 16.4914C92.4377 16.982 92.8984 17.3028 93.4167 17.3028H99.0029C100.155 17.3028 100.635 18.7557 99.7132 19.4161L95.1828 22.6427C94.7605 22.9446 94.5877 23.473 94.7413 23.9447L96.469 29.1715C96.8337 30.247 95.5667 31.1527 94.6261 30.4734L90.0958 27.2468C89.6734 26.9449 89.1167 26.9449 88.6944 27.2468L84.1641 30.4734C83.2234 31.1338 81.9756 30.247 82.3211 29.1715L84.0488 23.9447C84.2024 23.4541 84.0297 22.9258 83.6073 22.6427L79.0769 19.4161C78.1363 18.7557 78.6162 17.3028 79.7872 17.3028H85.3734C85.8917 17.3028 86.3524 16.982 86.506 16.4914L88.2337 11.2647C88.6368 10.1891 90.1917 10.1891 90.5565 11.2647Z" fill="#FFF58C" stroke="#181919" stroke-miterlimit="10" stroke-linecap="round" stroke-linejoin="round"/>
<path d="M58.7093 83.4964C46.2892 85.0625 33.9075 80.515 22.7927 74.8354C16.4962 71.6088 10.123 67.6652 6.82116 61.7969C1.83007 73.2882 0.428736 86.0626 1.1966 98.535C1.88767 109.8 4.51759 121.404 11.3899 130.631C23.1958 130.348 34.5601 134.5 45.8285 137.934C54.4861 140.575 63.2781 142.821 72.2045 144.972C74.5081 144.217 76.2166 142.311 77.7331 140.443C89.3662 126.273 97.9854 109.724 102.362 92.4214C87.6577 89.4401 72.9723 86.4965 58.7093 83.4964Z" fill="#56B381"/>
<path d="M6.37917 61.5511C20.2007 77.42 42.4687 85.779 63.5272 82.9864C68 82.4015 72.492 81.2882 76.2353 78.8163C79.9786 76.3445 82.8389 72.3065 82.9541 67.8723C83.0693 63.438 79.8442 58.9094 75.3907 58.2679C70.9371 57.6263 66.2339 61.9096 67.2513 66.2306C64.9285 61.3813 67.1361 55.1545 71.5705 52.0788C76.0241 49.0031 82.1478 48.8333 87.1581 50.9089C92.1684 52.9845 96.1613 57.0225 98.964 61.6077C106.316 73.533 106.028 89.2698 99.463 101.629C92.8978 113.988 80.6121 122.97 67.0209 126.97C53.4298 130.971 38.6677 130.272 25.0382 126.423C16.4765 124.008 7.68454 119.857 3.38452 112.422" stroke="#181919" stroke-miterlimit="10"/>
<path d="M165.269 128.895C166.69 125.348 168.091 121.819 169.512 118.272C170.472 115.894 171.431 113.441 171.566 110.894C169.493 109.139 166.767 108.177 164.002 108.158C161.257 108.139 158.493 109.045 156.305 110.705C151.39 103.403 141.792 99.7233 133.345 101.799C124.899 103.874 118.18 111.573 117.393 120.102C113.304 118.196 108.736 118.649 105.491 120.989C101.71 115.573 100.136 109.045 100.807 102.705C96.8721 104.761 92.5145 105.554 88.3104 105.365C84.1064 105.195 79.9983 104.101 75.9479 102.969C76.0247 107.648 75.0649 113.271 73.7019 116.668C67.4631 112.611 64.9675 115.083 64.1996 116.97C62.3952 114.8 59.938 113.196 57.2121 112.611C54.467 112.007 51.4532 112.498 49.2264 114.177C46.4429 116.271 45.2527 119.838 44.8112 123.253C44.5041 120.819 43.0643 118.366 40.7991 117.102C38.5339 115.837 35.4817 115.913 33.4852 117.555C37.6701 114.668 39.8969 109.365 39.2634 104.365C38.6491 99.3647 35.3089 94.855 30.8361 92.4398C26.3441 90.0245 20.8347 89.6849 15.9588 91.2322C14.2119 91.7982 12.5226 92.5907 11.1021 93.7229C8.85608 95.4777 7.32036 97.9496 5.88062 100.384C4.70963 102.346 3.53867 104.403 3.44269 106.667C3.3851 107.969 3.71143 109.252 4.03777 110.516C5.78466 117.121 8.14584 123.555 10.7758 131.121C13.9048 132.688 26.5361 151.934 31.8919 154.802C37.3053 157.708 59.6117 177.068 80.8238 174.728C94.7413 173.2 115.761 174.068 126.799 166.067C133.941 160.897 141.139 156.783 144.192 154.783C151.16 150.198 160.873 139.952 165.269 128.895Z" fill="#FFF58C"/>
<path d="M75.7747 102.592C76.3506 112.403 73.7974 122.366 68.5376 130.725" stroke="#181919" stroke-miterlimit="10" stroke-linecap="round" stroke-linejoin="round"/>
<path d="M100.423 102.441C100.212 112.744 104.089 123.065 111.058 130.764" stroke="#181919" stroke-miterlimit="10" stroke-linecap="round" stroke-linejoin="round"/>
<path d="M104.972 121.914C108.063 117.649 112.613 117.517 117.335 119.951C117.968 111.29 124.745 103.403 133.326 101.327C141.906 99.2518 151.812 102.912 156.477 110.271C161.103 106.932 167.284 107.064 171.412 110.97" stroke="#181919" stroke-miterlimit="10" stroke-linecap="round" stroke-linejoin="round"/>
<path d="M116.145 64.8534C117.374 65.0421 119.793 61.6079 120.676 60.74C125.647 55.8529 126.818 54.1358 130.255 48.1354C134.075 41.4369 136.34 33.5118 133.806 17.8127C138.874 19.6619 151.966 31.2475 154.865 34.2477C156.746 36.2101 158.147 39.3235 159.779 41.4746C162.697 45.3239 163.177 44.3993 165.346 49.5128C159.299 55.4566 153.329 62.8533 146.725 67.9857C142.483 71.2878 140.314 75.4013 135.035 76.5334C131.426 77.307 120.56 83.1187 116.951 83.8924C116.625 83.9678 116.318 73.6842 115.992 73.6087C115.512 73.5144 117.297 70.7972 116.951 70.4576C115.205 68.7593 114.667 69.1933 112.555 67.9668C112.613 65.8912 115.32 66.6271 116.145 64.8534Z" fill="white"/>
<path d="M133.671 17.4348C133.671 17.4348 143.672 39.2286 118.487 62.9094C113.899 67.2304 107.41 70.457 101.536 68.0984C85.7949 61.6829 92.4561 36.6624 105.778 47.0593C101.824 35.2473 86.8891 41.5495 85.2574 51.3803C79.5368 68.4946 97.14 87.2317 110.539 84.3258C123.842 84.9485 136.589 76.0611 144.344 69.9853C153.808 62.5509 165.364 49.55 165.364 49.55" stroke="#181919" stroke-miterlimit="10"/>
<path d="M68.8447 114.479C66.9827 113.781 64.6791 114.554 63.6425 116.215C60.8782 112.781 55.7527 111.384 51.5871 112.932C47.4214 114.479 44.5035 118.856 44.7339 123.234C44.9067 120.592 43.3517 117.913 40.933 116.705C38.5334 115.498 35.4044 115.837 33.3312 117.517C39.1285 114.403 40.549 106.252 37.7463 100.365C34.5405 93.6473 26.6124 89.4207 19.1258 90.4773C11.6391 91.534 5.01628 98.4967 3.42297 106.592" stroke="#181919" stroke-miterlimit="10" stroke-linecap="round" stroke-linejoin="round"/>
<path d="M88.0031 174.954C135.977 174.954 174.867 136.727 174.867 89.5714C174.867 42.4159 135.977 4.18872 88.0031 4.18872C40.0294 4.18872 1.13892 42.4159 1.13892 89.5714C1.13892 136.727 40.0294 174.954 88.0031 174.954Z" stroke="black" stroke-miterlimit="10"/>
<path d="M58.9971 109.724V71.0426L75.3141 56.4001V95.0818L58.9971 109.724Z" fill="#B180E0" stroke="#181919" stroke-miterlimit="10" stroke-linecap="round" stroke-linejoin="round"/>
<path d="M115.972 109.724V71.0426L99.6553 56.4001V95.0818L115.972 109.724Z" fill="#B180E0" stroke="#181919" stroke-miterlimit="10" stroke-linecap="round" stroke-linejoin="round"/>
<path d="M110.617 49.5502C110.617 19.8125 87.4849 1 87.4849 1C87.4849 1 64.3531 19.8125 64.3531 49.5502C64.3531 67.4381 68.0965 85.194 73.8746 96.5154H101.095C106.873 85.194 110.617 67.4381 110.617 49.5502Z" fill="#5A66FF" stroke="#181919" stroke-miterlimit="10" stroke-linecap="round" stroke-linejoin="round"/>
<path d="M87.4848 54.6072C95.7013 54.6072 102.362 48.06 102.362 39.9837C102.362 31.9073 95.7013 25.3601 87.4848 25.3601C79.2683 25.3601 72.6075 31.9073 72.6075 39.9837C72.6075 48.06 79.2683 54.6072 87.4848 54.6072Z" fill="#EBEBEB" stroke="#181919" stroke-miterlimit="10" stroke-linecap="round" stroke-linejoin="round"/>
<path d="M91.0935 70.0042C91.0935 68.5513 89.7114 67.3625 88.0029 67.3625C86.2944 67.3625 84.9122 68.5513 84.9122 70.0042C84.9122 70.0608 84.9314 70.0986 84.9314 70.1552L88.0221 115.007L91.1127 70.0608C91.0935 70.0231 91.0935 70.0042 91.0935 70.0042Z" fill="#56B381" stroke="#181919" stroke-miterlimit="10" stroke-linecap="round" stroke-linejoin="round"/>
<path d="M88.4639 32.0592L89.9229 36.4934C90.0572 36.9085 90.4412 37.1727 90.8827 37.1727H95.6242C96.6032 37.1727 97.0064 38.3992 96.2193 38.9653L92.38 41.7013C92.0345 41.9466 91.8809 42.3994 92.0153 42.8146L93.4742 47.2488C93.7813 48.1734 92.7063 48.9282 91.9193 48.3621L88.08 45.6261C87.7344 45.3808 87.2545 45.3808 86.8898 45.6261L83.0505 48.3621C82.2634 48.9282 81.1884 48.1734 81.4956 47.2488L82.9545 42.8146C83.0889 42.3994 82.9353 41.9466 82.5898 41.7013L78.7505 38.9653C77.9634 38.3992 78.3666 37.1727 79.3456 37.1727H84.0871C84.5286 37.1727 84.9126 36.8897 85.0469 36.4934L86.5058 32.0592C86.8322 31.1535 88.1568 31.1535 88.4639 32.0592Z" fill="#FFF58C" stroke="#181919" stroke-miterlimit="10" stroke-linecap="round" stroke-linejoin="round"/>
<mask id="mask0_457_7285" style="mask-type:luminance" maskUnits="userSpaceOnUse" x="3" y="90" width="169" height="85">
<path d="M165.269 128.838C166.69 125.291 168.091 121.762 169.512 118.215C170.472 115.837 171.431 113.384 171.566 110.837C169.493 109.082 166.767 108.12 164.002 108.101C161.257 108.082 158.493 108.988 156.305 110.648C151.39 103.346 141.792 99.6666 133.345 101.742C124.899 103.818 118.18 111.516 117.393 120.045C113.304 118.139 108.736 118.592 105.491 120.932C101.71 115.517 100.136 108.988 100.807 102.648C96.8721 104.705 92.5145 105.497 88.3104 105.308C84.1064 105.139 79.9983 104.044 75.9479 102.912C76.0247 107.592 75.0649 113.215 73.7019 116.611C67.4631 112.554 64.9675 115.026 64.1996 116.913C62.3952 114.743 59.938 113.139 57.2121 112.554C54.467 111.95 51.4532 112.441 49.2264 114.12C46.4429 116.215 45.2527 119.781 44.8112 123.196C44.5041 120.762 43.0643 118.309 40.7991 117.045C38.5339 115.781 35.4817 115.856 33.4852 117.498C37.6701 114.611 39.8969 109.309 39.2634 104.308C38.6491 99.3081 35.3089 94.7984 30.8361 92.3831C26.3633 89.9679 20.8347 89.6283 15.9588 91.1755C14.2119 91.7416 12.5226 92.5341 11.1021 93.6662C8.85608 95.4211 7.32036 97.8929 5.88062 100.327C4.70963 102.289 3.53867 104.346 3.44269 106.61C3.3851 107.912 3.71143 109.196 4.03777 110.46C5.78466 117.064 9.95028 124.385 12.5994 131.971C15.8052 135.141 23.6374 153.293 41.8357 161.935C54.4862 167.935 71.5519 174.728 88.0225 174.992C104.781 175.256 120.945 168.897 133.326 162.482C142.905 157.463 160.873 139.896 165.269 128.838Z" fill="white"/>
</mask>
<g mask="url(#mask0_457_7285)">
<path d="M166.997 68.9478V174.728" stroke="#181919" stroke-miterlimit="10" stroke-linecap="round" stroke-linejoin="round"/>
<path d="M161.91 68.9478V174.728" stroke="#181919" stroke-miterlimit="10" stroke-linecap="round" stroke-linejoin="round"/>
<path d="M156.823 68.9478V174.728" stroke="#181919" stroke-miterlimit="10" stroke-linecap="round" stroke-linejoin="round"/>
<path d="M151.736 68.9668V174.747" stroke="#181919" stroke-miterlimit="10" stroke-linecap="round" stroke-linejoin="round"/>
<path d="M146.649 68.9668V174.747" stroke="#181919" stroke-miterlimit="10" stroke-linecap="round" stroke-linejoin="round"/>
<path d="M141.581 68.9668V174.766" stroke="#181919" stroke-miterlimit="10" stroke-linecap="round" stroke-linejoin="round"/>
<path d="M136.494 68.9856V174.766" stroke="#181919" stroke-miterlimit="10" stroke-linecap="round" stroke-linejoin="round"/>
<path d="M131.407 68.9856V174.766" stroke="#181919" stroke-miterlimit="10" stroke-linecap="round" stroke-linejoin="round"/>
<path d="M126.32 69.0046V174.785" stroke="#181919" stroke-miterlimit="10" stroke-linecap="round" stroke-linejoin="round"/>
<path d="M121.233 69.0046V174.785" stroke="#181919" stroke-miterlimit="10" stroke-linecap="round" stroke-linejoin="round"/>
<path d="M116.145 69.0046V174.804" stroke="#181919" stroke-miterlimit="10" stroke-linecap="round" stroke-linejoin="round"/>
<path d="M111.078 69.0232V174.803" stroke="#181919" stroke-miterlimit="10" stroke-linecap="round" stroke-linejoin="round"/>
<path d="M105.991 69.0232V174.803" stroke="#181919" stroke-miterlimit="10" stroke-linecap="round" stroke-linejoin="round"/>
<path d="M100.903 69.0232V174.822" stroke="#181919" stroke-miterlimit="10" stroke-linecap="round" stroke-linejoin="round"/>
<path d="M96 69V174.78" stroke="#181919" stroke-miterlimit="10" stroke-linecap="round" stroke-linejoin="round"/>
<path d="M90.7291 69.0422V174.822" stroke="#181919" stroke-miterlimit="10" stroke-linecap="round" stroke-linejoin="round"/>
<path d="M85.6422 69.0613V174.842" stroke="#181919" stroke-miterlimit="10" stroke-linecap="round" stroke-linejoin="round"/>
<path d="M80.5743 69.0613V174.842" stroke="#181919" stroke-miterlimit="10" stroke-linecap="round" stroke-linejoin="round"/>
<path d="M75.4869 69.0613V174.86" stroke="#181919" stroke-miterlimit="10" stroke-linecap="round" stroke-linejoin="round"/>
<path d="M70.4 69.0801V174.86" stroke="#181919" stroke-miterlimit="10" stroke-linecap="round" stroke-linejoin="round"/>
<path d="M65.3131 69.0801V174.86" stroke="#181919" stroke-miterlimit="10" stroke-linecap="round" stroke-linejoin="round"/>
<path d="M60.2262 69.0991V174.879" stroke="#181919" stroke-miterlimit="10" stroke-linecap="round" stroke-linejoin="round"/>
<path d="M55.1392 69.0991V174.879" stroke="#181919" stroke-miterlimit="10" stroke-linecap="round" stroke-linejoin="round"/>
<path d="M50.0709 69.0991V174.879" stroke="#181919" stroke-miterlimit="10" stroke-linecap="round" stroke-linejoin="round"/>
<path d="M44.984 69.1182V174.898" stroke="#181919" stroke-miterlimit="10" stroke-linecap="round" stroke-linejoin="round"/>
<path d="M39.8966 69.1182V174.898" stroke="#181919" stroke-miterlimit="10" stroke-linecap="round" stroke-linejoin="round"/>
<path d="M34.8101 69.1182V174.917" stroke="#181919" stroke-miterlimit="10" stroke-linecap="round" stroke-linejoin="round"/>
<path d="M29.7228 69.1367V174.917" stroke="#181919" stroke-miterlimit="10" stroke-linecap="round" stroke-linejoin="round"/>
<path d="M24.6354 69.1367V174.917" stroke="#181919" stroke-miterlimit="10" stroke-linecap="round" stroke-linejoin="round"/>
<path d="M19.5675 69.1555V174.936" stroke="#181919" stroke-miterlimit="10" stroke-linecap="round" stroke-linejoin="round"/>
<path d="M14.4806 69.1555V174.936" stroke="#181919" stroke-miterlimit="10" stroke-linecap="round" stroke-linejoin="round"/>
<path d="M9.39368 69.1555V174.955" stroke="#181919" stroke-miterlimit="10" stroke-linecap="round" stroke-linejoin="round"/>
<path d="M4.30664 69.1741V174.954" stroke="#181919" stroke-miterlimit="10" stroke-linecap="round" stroke-linejoin="round"/>
</g>
<path d="M43.1979 59.4755C43.889 57.9849 44.3881 56.4187 44.7144 54.8337C44.868 54.0223 44.9832 53.1732 44.7144 52.3996C44.4457 51.626 43.7162 50.9467 42.8716 50.9844C41.8542 51.041 41.2207 52.0411 40.6832 52.9091C40.1456 53.777 39.3394 54.7016 38.3412 54.5129C37.9189 54.4375 37.5542 54.1544 37.1318 54.0412C36.4792 53.8525 35.7689 54.1167 35.2122 54.5318C34.1948 55.3054 33.6573 56.6263 33.83 57.8716C34.0028 59.117 34.905 60.2303 36.0952 60.702C36.5943 60.8907 37.1318 60.985 37.6118 61.2492C39.1475 62.0983 39.4738 64.4758 41.1823 64.9476C41.6814 65.0796 42.2189 65.023 42.718 64.9287C43.5626 64.7777 44.4265 64.5324 45.0216 63.9286C45.6167 63.3248 45.8663 62.3059 45.3479 61.6455C44.9832 61.1926 44.3689 61.0039 43.889 60.6454C43.4283 60.3058 43.1211 59.551 43.1979 59.4755Z" fill="#B180E0" stroke="#1D1D1B" stroke-miterlimit="10"/>
<path d="M152.081 79.0997C150.871 81.3262 148.817 82.9678 146.552 83.515C145.285 83.817 143.961 83.7981 142.713 84.2321C141.177 84.7793 139.814 86.0624 139.085 87.6663C138.47 89.0248 138.298 90.7231 139.027 91.9307C140.217 93.8742 142.886 93.4779 144.959 92.7609C146.898 92.1005 148.798 91.3269 150.679 90.44C152.234 89.7041 153.789 88.8927 155.114 87.6663C156.189 86.6662 157.072 85.402 157.686 84.0056C158.281 82.6471 158.627 81.0809 158.3 79.6657C157.936 78.0807 156.688 76.8543 155.229 76.6467C153.808 76.4203 152.983 77.4769 152.081 79.0997Z" fill="#B180E0" stroke="#1D1D1B" stroke-miterlimit="10"/>
</svg>
