<svg width="174" height="174" viewBox="0 0 174 174" fill="none" xmlns="http://www.w3.org/2000/svg">
<path d="M1.68954 103.739C4.33917 119.137 12.4417 133.535 24.1922 143.8C26.7267 146.011 29.4339 148.048 32.3907 149.605C36.5572 151.816 41.1653 150.355 45.7733 151.239C54.663 152.95 63.764 156.064 72.8073 156.468C83.4826 156.93 94.1772 157.391 104.68 156.122C122.67 153.969 139.893 146.857 155.196 140.647C158.652 139.763 159.842 134.688 161.455 131.516C162.492 129.459 164.124 128.71 164.354 126.422C164.546 124.5 165.852 124.827 166.351 122.943C168.367 115.234 170.364 107.526 172.495 99.8171C169.845 97.1835 166.101 96.0301 162.53 94.9728C124.053 83.6118 94.9452 87.7833 58.7335 88.6483C55.1814 88.7252 40.7621 93.8386 37.2868 93.1274C35.1556 92.7045 33.0435 92.0893 30.8547 91.974C28.1091 91.8202 25.3827 92.4546 22.7138 93.1274C15.3217 95.0113 8.02562 97.2412 0.844727 99.8555C1.15193 101.355 1.53594 102.797 1.68954 103.739Z" fill="#FF88B6"/>
<mask id="mask0_457_7543" style="mask-type:luminance" maskUnits="userSpaceOnUse" x="0" y="87" width="173" height="70">
<path d="M1.68954 103.739C4.33917 119.137 12.4417 133.535 24.1922 143.8C26.7267 146.011 29.4339 148.048 32.3907 149.605C36.5572 151.816 41.1653 150.355 45.7733 151.239C54.663 152.95 63.764 156.064 72.8073 156.468C83.4826 156.93 94.1772 157.391 104.68 156.122C122.67 153.969 139.893 146.857 155.196 140.647C158.652 139.763 162.492 138.571 164.104 135.399C165.141 133.343 164.949 130.92 165.18 128.633C165.372 126.71 165.852 124.827 166.351 122.943C168.367 115.234 170.364 107.526 172.495 99.8171C169.845 97.1835 166.101 96.0301 162.53 94.9728C124.053 83.6118 94.9452 87.7833 58.7335 88.6483C55.1814 88.7252 40.7621 93.8386 37.2868 93.1274C35.1556 92.7045 33.0435 92.0893 30.8547 91.974C28.1091 91.8202 25.3827 92.4546 22.7138 93.1274C15.3217 95.0113 8.02562 97.2412 0.844727 99.8555C1.15193 101.355 1.53594 102.797 1.68954 103.739Z" fill="white"/>
</mask>
<g mask="url(#mask0_457_7543)">
<path d="M206.979 78.0569L146.728 140.302" stroke="#181919" stroke-miterlimit="10" stroke-linecap="round" stroke-linejoin="round"/>
<path d="M204.617 80.4783L144.367 142.704" stroke="#181919" stroke-miterlimit="10" stroke-linecap="round" stroke-linejoin="round"/>
<path d="M198.338 80.6709L138.088 142.916" stroke="#181919" stroke-miterlimit="10" stroke-linecap="round" stroke-linejoin="round"/>
<path d="M192.06 80.8625L131.81 143.108" stroke="#181919" stroke-miterlimit="10" stroke-linecap="round" stroke-linejoin="round"/>
<path d="M185.801 81.0742L125.55 143.3" stroke="#181919" stroke-miterlimit="10" stroke-linecap="round" stroke-linejoin="round"/>
<path d="M179.522 81.2664L119.272 143.511" stroke="#181919" stroke-miterlimit="10" stroke-linecap="round" stroke-linejoin="round"/>
<path d="M173.244 81.4585L112.994 143.704" stroke="#181919" stroke-miterlimit="10" stroke-linecap="round" stroke-linejoin="round"/>
<path d="M166.966 81.6702L106.715 143.896" stroke="#181919" stroke-miterlimit="10" stroke-linecap="round" stroke-linejoin="round"/>
<path d="M160.706 81.8623L100.456 144.107" stroke="#181919" stroke-miterlimit="10" stroke-linecap="round" stroke-linejoin="round"/>
<path d="M154.428 82.0547L94.1771 144.3" stroke="#181919" stroke-miterlimit="10" stroke-linecap="round" stroke-linejoin="round"/>
<path d="M148.149 82.2661L87.8987 144.492" stroke="#181919" stroke-miterlimit="10" stroke-linecap="round" stroke-linejoin="round"/>
<path d="M141.89 82.459L81.6394 144.704" stroke="#181919" stroke-miterlimit="10" stroke-linecap="round" stroke-linejoin="round"/>
<path d="M135.611 82.6506L75.3611 144.896" stroke="#181919" stroke-miterlimit="10" stroke-linecap="round" stroke-linejoin="round"/>
<path d="M129.333 82.8623L69.0826 145.088" stroke="#181919" stroke-miterlimit="10" stroke-linecap="round" stroke-linejoin="round"/>
<path d="M123.074 83.0549L62.8234 145.3" stroke="#181919" stroke-miterlimit="10" stroke-linecap="round" stroke-linejoin="round"/>
<path d="M116.795 83.2466L56.5446 145.492" stroke="#181919" stroke-miterlimit="10" stroke-linecap="round" stroke-linejoin="round"/>
<path d="M110.517 83.4583L50.2662 145.684" stroke="#181919" stroke-miterlimit="10" stroke-linecap="round" stroke-linejoin="round"/>
<path d="M104.238 83.6504L43.9878 145.895" stroke="#181919" stroke-miterlimit="10" stroke-linecap="round" stroke-linejoin="round"/>
<path d="M97.9789 83.8425L37.7285 146.088" stroke="#181919" stroke-miterlimit="10" stroke-linecap="round" stroke-linejoin="round"/>
<path d="M91.7001 84.0542L31.4497 146.28" stroke="#181919" stroke-miterlimit="10" stroke-linecap="round" stroke-linejoin="round"/>
<path d="M85.4221 84.2458L25.1718 146.491" stroke="#181919" stroke-miterlimit="10" stroke-linecap="round" stroke-linejoin="round"/>
<path d="M79.1627 84.4385L18.9124 146.684" stroke="#181919" stroke-miterlimit="10" stroke-linecap="round" stroke-linejoin="round"/>
<path d="M72.8839 84.6497L12.6335 146.875" stroke="#181919" stroke-miterlimit="10" stroke-linecap="round" stroke-linejoin="round"/>
<path d="M66.6056 84.8423L6.35522 147.087" stroke="#181919" stroke-miterlimit="10" stroke-linecap="round" stroke-linejoin="round"/>
<path d="M60.3465 85.0339L0.0769043 147.279" stroke="#181919" stroke-miterlimit="10" stroke-linecap="round" stroke-linejoin="round"/>
<path d="M54.068 85.2461L-6.18237 147.472" stroke="#181919" stroke-miterlimit="10" stroke-linecap="round" stroke-linejoin="round"/>
<path d="M47.7892 85.4382L-12.4612 147.683" stroke="#181919" stroke-miterlimit="10" stroke-linecap="round" stroke-linejoin="round"/>
<path d="M41.5109 85.6304L-18.7395 147.875" stroke="#181919" stroke-miterlimit="10" stroke-linecap="round" stroke-linejoin="round"/>
<path d="M35.2516 85.8418L-24.9988 148.068" stroke="#181919" stroke-miterlimit="10" stroke-linecap="round" stroke-linejoin="round"/>
<path d="M28.973 86.0337L-31.2773 148.279" stroke="#181919" stroke-miterlimit="10" stroke-linecap="round" stroke-linejoin="round"/>
<path d="M22.6947 86.2263L-37.5557 148.471" stroke="#181919" stroke-miterlimit="10" stroke-linecap="round" stroke-linejoin="round"/>
<path d="M16.4355 86.4382L-43.8149 148.664" stroke="#181919" stroke-miterlimit="10" stroke-linecap="round" stroke-linejoin="round"/>
</g>
<path d="M172.956 98.8944C153.468 92.4546 135.554 83.0928 115.605 87.2643C107.022 89.052 94.7917 85.3612 85.134 86.0532C62.1705 87.7256 39.0533 89.4365 16.7618 95.1458C11.6546 96.453 6.50892 98.0101 2.11206 100.913C-2.1888 79.6903 2.47686 56.6031 14.6882 38.4371C26.8996 20.2711 46.503 6.29573 68.2953 2.16272C80.0843 -0.701553 92.5452 -0.720777 104.353 2.10505C106.849 2.70097 109.307 3.43146 111.784 4.14272C114.357 4.89243 116.949 5.66136 119.464 6.58408C125.915 8.96777 131.925 12.4664 137.608 16.3495C142.197 19.4829 146.632 22.9047 150.357 27.0184C154.063 31.0938 157.001 35.7843 159.938 40.4555C162.05 43.8196 164.162 47.1837 165.717 50.8361C166.62 52.9507 167.33 55.1614 168.021 57.3528C171.458 68.0987 174.953 79.2097 173.762 90.4169C173.359 94.1462 173.34 95.6456 172.956 99.1635C172.86 98.0293 172.879 98.6445 172.956 98.8944Z" fill="#5A66FF"/>
<path d="M172.687 99.0094C158.94 93.1271 144.002 90.6088 129.141 89.0325C97.3452 85.6684 65.108 86.495 33.5236 91.4931C22.541 93.2232 11.5009 95.5107 1.43994 100.278" stroke="#181919" stroke-miterlimit="10" stroke-linecap="round" stroke-linejoin="round"/>
<path d="M67.6039 123.462V73.5583C67.6039 71.5975 69.1975 70.002 71.1559 70.002H103.259C105.217 70.002 106.811 71.5975 106.811 73.5583V123.481C106.811 125.442 105.217 127.037 103.259 127.037H71.1559C69.1783 127.018 67.6039 125.442 67.6039 123.462Z" fill="#EBEBEB" stroke="#181919" stroke-miterlimit="10" stroke-linecap="round" stroke-linejoin="round"/>
<path d="M102.663 72.6543H71.7317C70.9061 72.6543 70.2341 73.3271 70.2341 74.1537V122.866C70.2341 123.692 70.9061 124.365 71.7317 124.365H102.663C103.489 124.365 104.161 123.692 104.161 122.866V74.1537C104.161 73.3271 103.489 72.6543 102.663 72.6543Z" fill="#FF88B6" stroke="#181919" stroke-miterlimit="10" stroke-linecap="round" stroke-linejoin="round"/>
<path d="M79.0856 102.24V93.9351H95.2906V102.24C95.2906 106.719 91.6617 110.352 87.1881 110.352C82.7144 110.352 79.0856 106.719 79.0856 102.24Z" fill="#EBEBEB" stroke="#181919" stroke-miterlimit="10" stroke-linecap="round" stroke-linejoin="round"/>
<path d="M82.1768 94.1843V108.275" stroke="#181919" stroke-miterlimit="10" stroke-linecap="round" stroke-linejoin="round"/>
<path d="M86.1512 94.6841V110.024" stroke="#181919" stroke-miterlimit="10" stroke-linecap="round" stroke-linejoin="round"/>
<path d="M89.2618 94.55V109.89" stroke="#181919" stroke-miterlimit="10" stroke-linecap="round" stroke-linejoin="round"/>
<path d="M92.5066 94.4348V107.603" stroke="#181919" stroke-miterlimit="10" stroke-linecap="round" stroke-linejoin="round"/>
<path d="M84.02 89.6482V93.6082" stroke="#181919" stroke-miterlimit="10" stroke-linecap="round" stroke-linejoin="round"/>
<path d="M90.8361 89.6482V93.6082" stroke="#181919" stroke-miterlimit="10" stroke-linecap="round" stroke-linejoin="round"/>
<path d="M84.0202 89.6091C84.8367 89.6091 85.4986 88.9464 85.4986 88.1289C85.4986 87.3114 84.8367 86.6487 84.0202 86.6487C83.2037 86.6487 82.5417 87.3114 82.5417 88.1289C82.5417 88.9464 83.2037 89.6091 84.0202 89.6091Z" fill="#EBEBEB" stroke="#181919" stroke-miterlimit="10" stroke-linecap="round" stroke-linejoin="round"/>
<path d="M90.8552 89.6091C91.6718 89.6091 92.3337 88.9464 92.3337 88.1289C92.3337 87.3114 91.6718 86.6487 90.8552 86.6487C90.0387 86.6487 89.3768 87.3114 89.3768 88.1289C89.3768 88.9464 90.0387 89.6091 90.8552 89.6091Z" fill="#EBEBEB" stroke="#181919" stroke-miterlimit="10" stroke-linecap="round" stroke-linejoin="round"/>
<path d="M70.196 66.1764L87.2075 51.8743L104.2 66.1764" fill="#EBEBEB"/>
<path d="M70.196 66.1764L87.2075 51.8743L104.2 66.1764" stroke="black" stroke-miterlimit="10" stroke-linecap="round" stroke-linejoin="round"/>
<path d="M87.3803 56.2569H86.9962C85.4026 56.2569 84.1162 54.969 84.1162 53.3734V50.9897C84.1162 50.5092 84.5002 50.1055 84.9994 50.1055H89.3771C89.8571 50.1055 90.2603 50.4899 90.2603 50.9897V53.3734C90.2603 54.969 88.9739 56.2569 87.3803 56.2569Z" fill="#EBEBEB" stroke="black" stroke-miterlimit="10"/>
<path d="M26.9377 56.1613L43.9492 41.8591L60.9414 56.1613" fill="#EBEBEB"/>
<path d="M26.9377 56.1613L43.9492 41.8591L60.9414 56.1613" stroke="black" stroke-miterlimit="10" stroke-linecap="round" stroke-linejoin="round"/>
<path d="M44.1411 46.2415H43.7571C42.1635 46.2415 40.8771 44.9536 40.8771 43.358V40.9744C40.8771 40.4938 41.2611 40.0901 41.7603 40.0901H46.1379C46.6179 40.0901 47.0212 40.4746 47.0212 40.9744V43.358C47.0212 44.9536 45.7155 46.2415 44.1411 46.2415Z" fill="#EBEBEB" stroke="black" stroke-miterlimit="10"/>
<path d="M24.5187 113.388L24.1731 64.0225C24.1539 61.908 25.8628 60.1779 27.9748 60.1779L59.5208 59.9472C61.6328 59.928 63.3609 61.6388 63.3801 63.7534L63.7257 113.119C63.7449 115.233 62.036 116.964 59.924 116.964L28.378 117.194C26.266 117.213 24.5379 115.503 24.5187 113.388Z" fill="#EBEBEB" stroke="#181919" stroke-miterlimit="10" stroke-linecap="round" stroke-linejoin="round"/>
<path d="M60.7306 64.2149C60.7306 63.3307 60.001 62.6194 59.1178 62.6194L28.4166 62.8308C27.5334 62.8308 26.823 63.5613 26.823 64.4456L27.1686 112.927C27.1686 113.811 27.8982 114.522 28.7814 114.522L59.4826 114.311C60.3658 114.311 61.0762 113.58 61.0762 112.696L60.7306 64.2149Z" fill="#B180E0" stroke="#181919" stroke-miterlimit="10" stroke-linecap="round" stroke-linejoin="round"/>
<path d="M44.1222 100.355C38.6885 100.393 34.2533 96.0103 34.2149 90.5893C34.1765 85.4182 38.3429 81.1891 43.5078 81.1506H43.9686C49.2679 81.1122 53.5879 85.3798 53.6263 90.6854C53.7031 95.991 49.4407 100.316 44.1222 100.355Z" fill="#EBEBEB" stroke="#181919" stroke-miterlimit="10" stroke-linecap="round" stroke-linejoin="round"/>
<path d="M36.4037 96.3367L51.2263 96.6635" stroke="#181919" stroke-miterlimit="10" stroke-linecap="round" stroke-linejoin="round"/>
<path d="M35.1174 92.0517L53.2617 91.9346" stroke="#181919" stroke-miterlimit="10" stroke-linecap="round" stroke-linejoin="round"/>
<path d="M34.9447 88.3589L53.0889 88.2244" stroke="#181919" stroke-miterlimit="10" stroke-linecap="round" stroke-linejoin="round"/>
<path d="M37.2485 84.516L50.3431 84.4187" stroke="#181919" stroke-miterlimit="10" stroke-linecap="round" stroke-linejoin="round"/>
<path d="M43.527 83.4378C43.9302 81.4386 45.063 79.5932 46.6182 78.3052C47.3862 77.6901 48.231 77.171 49.1334 76.7673" stroke="#181919" stroke-miterlimit="10" stroke-linecap="round" stroke-linejoin="round"/>
<path d="M113.454 56.1613L130.446 41.8591L147.458 56.1613" fill="#EBEBEB"/>
<path d="M113.454 56.1613L130.446 41.8591L147.458 56.1613" stroke="black" stroke-miterlimit="10" stroke-linecap="round" stroke-linejoin="round"/>
<path d="M130.638 46.2415H130.254C128.661 46.2415 127.374 44.9536 127.374 43.358V40.9744C127.374 40.4938 127.758 40.0901 128.258 40.0901H132.635C133.115 40.0901 133.518 40.4746 133.518 40.9744V43.358C133.518 44.9536 132.232 46.2415 130.638 46.2415Z" fill="#EBEBEB" stroke="black" stroke-miterlimit="10"/>
<path d="M110.843 113.253V63.8879C110.843 61.7734 112.552 60.0625 114.683 60.0625H146.229C148.341 60.0625 150.05 61.7734 150.05 63.8879V113.253C150.05 115.368 148.341 117.079 146.21 117.079H114.664C112.571 117.079 110.843 115.368 110.843 113.253Z" fill="#EBEBEB" stroke="#181919" stroke-miterlimit="10" stroke-linecap="round" stroke-linejoin="round"/>
<path d="M145.807 62.7156H115.105C114.222 62.7156 113.493 63.4461 113.493 64.3303V112.812C113.493 113.696 114.203 114.426 115.105 114.426H145.807C146.69 114.426 147.42 113.696 147.42 112.812V64.3303C147.42 63.4461 146.69 62.7156 145.807 62.7156Z" fill="#56B381" stroke="#181919" stroke-miterlimit="10" stroke-linecap="round" stroke-linejoin="round"/>
<path d="M122.344 93.9729V80.3628H138.549V93.9729C138.549 95.53 137.282 96.7795 135.746 96.7795H125.167C123.611 96.7795 122.344 95.53 122.344 93.9729Z" fill="#EBEBEB" stroke="#181919" stroke-miterlimit="10" stroke-linecap="round" stroke-linejoin="round"/>
<path d="M129.41 81.0928V96.433" stroke="#181919" stroke-miterlimit="10" stroke-linecap="round" stroke-linejoin="round"/>
<path d="M132.52 80.9778V96.318" stroke="#181919" stroke-miterlimit="10" stroke-linecap="round" stroke-linejoin="round"/>
<path d="M106.791 31.0551C108.318 31.0551 109.556 29.8158 109.556 28.287C109.556 26.7581 108.318 25.5188 106.791 25.5188C105.264 25.5188 104.026 26.7581 104.026 28.287C104.026 29.8158 105.264 31.0551 106.791 31.0551Z" fill="#FFF58C" stroke="#181919" stroke-miterlimit="10" stroke-linecap="round" stroke-linejoin="round"/>
<path d="M69.3314 31.0551C70.8583 31.0551 72.0962 29.8158 72.0962 28.287C72.0962 26.7581 70.8583 25.5188 69.3314 25.5188C67.8044 25.5188 66.5665 26.7581 66.5665 28.287C66.5665 29.8158 67.8044 31.0551 69.3314 31.0551Z" fill="#FFF58C" stroke="#181919" stroke-miterlimit="10" stroke-linecap="round" stroke-linejoin="round"/>
<path d="M89.2039 14.4649L90.9319 19.7897C91.0855 20.2895 91.5463 20.6163 92.0647 20.6163H97.652C98.804 20.6163 99.2841 22.0965 98.3624 22.7693L93.8312 26.0565C93.4088 26.3641 93.236 26.9024 93.3896 27.3829L95.1176 32.7078C95.4824 33.8035 94.2152 34.7262 93.2744 34.0342L88.7431 30.747C88.3207 30.4394 87.7639 30.4394 87.3415 30.747L82.8102 34.0342C81.8694 34.707 80.6214 33.8035 80.967 32.7078L82.695 27.3829C82.8486 26.8831 82.6758 26.3449 82.2534 26.0565L77.7222 22.7693C76.7814 22.0965 77.2614 20.6163 78.4326 20.6163H84.0199C84.5383 20.6163 84.9991 20.2895 85.1527 19.7897L86.8807 14.4649C87.2839 13.3499 88.8391 13.3499 89.2039 14.4649Z" fill="#FFF58C" stroke="#181919" stroke-miterlimit="10" stroke-linecap="round" stroke-linejoin="round"/>
<path d="M119.771 121.808C118.83 119.693 117.639 117.675 116.238 115.83C115.527 114.907 114.721 113.984 113.646 113.523C112.571 113.061 111.169 113.196 110.439 114.119C109.556 115.234 110.017 116.848 110.459 118.213C110.9 119.578 111.111 121.308 109.979 122.193C109.499 122.558 108.865 122.673 108.347 123C107.54 123.519 107.156 124.499 107.099 125.46C106.964 127.248 107.867 129.055 109.345 130.055C110.823 131.054 112.859 131.17 114.452 130.362C115.124 130.016 115.719 129.536 116.43 129.286C118.753 128.479 121.595 130.401 123.668 129.074C124.283 128.69 124.705 128.075 125.07 127.46C125.684 126.441 126.222 125.307 126.164 124.115C126.107 122.923 125.224 121.712 124.052 121.616C123.227 121.558 122.459 122.02 121.652 122.193C120.846 122.366 119.751 121.962 119.771 121.808Z" fill="#B180E0" stroke="#1D1D1B" stroke-miterlimit="10"/>
<mask id="mask1_457_7543" style="mask-type:luminance" maskUnits="userSpaceOnUse" x="0" y="0" width="174" height="175">
<path d="M86.8811 174C134.864 174 173.762 135.055 173.762 87.0147C173.762 38.974 134.864 0.0292969 86.8811 0.0292969C38.898 0.0292969 0 38.974 0 87.0147C0 135.055 38.898 174 86.8811 174Z" fill="white"/>
</mask>
<g mask="url(#mask1_457_7543)">
<path d="M121.845 139.244C128.469 135.438 132.04 128.979 133.096 122.539C134.152 116.1 132.981 109.564 131.79 103.143C131.445 101.259 131.138 99.1831 132.405 97.5876C134.325 95.1654 139.087 95.1462 141.928 96.8763C144.77 98.6256 146.056 101.528 146.786 104.316C147.227 106.007 148.456 108.257 150.549 107.795C151.893 107.507 152.412 106.238 152.584 105.142C152.815 103.643 152.796 102.105 152.508 100.606C152.22 99.1254 151.682 97.6452 151.778 96.1458C151.874 94.6464 152.815 93.0509 154.581 92.5318C157.365 91.7245 160.149 94.0505 160.706 96.3765C160.956 97.4146 160.956 98.5103 161.474 99.4715C161.992 100.433 163.279 101.278 164.565 101.009C166.274 100.644 166.562 98.8371 166.485 97.4146C166.313 94.1658 166.14 90.9171 165.967 87.6684C165.871 85.9767 166.255 83.7852 168.329 83.42C170.441 83.0548 171.938 84.9963 172.533 86.6495C175.183 93.8583 174.473 101.605 172.303 108.91C171.516 111.582 170.517 114.235 168.943 116.696C167.292 119.252 165.045 121.54 162.76 123.77C159.17 127.249 155.407 130.671 150.856 133.343C142.715 138.13 132.232 140.283 121.845 139.244Z" fill="#B180E0" stroke="#1D1D1B" stroke-miterlimit="10"/>
</g>
<mask id="mask2_457_7543" style="mask-type:luminance" maskUnits="userSpaceOnUse" x="0" y="0" width="174" height="175">
<path d="M86.8811 174C134.864 174 173.762 135.055 173.762 87.0147C173.762 38.974 134.864 0.0292969 86.8811 0.0292969C38.898 0.0292969 0 38.974 0 87.0147C0 135.055 38.898 174 86.8811 174Z" fill="white"/>
</mask>
<g mask="url(#mask2_457_7543)">
<path d="M0.633632 104.834C0.0768252 101.143 -0.46078 97.2984 0.729636 93.7421C1.92005 90.1858 5.3953 86.9563 9.46575 87.0716C12.5378 87.1677 15.2642 89.1093 16.7618 91.5506C18.2787 93.9728 18.7779 96.837 18.9891 99.6244C19.1235 101.393 19.1811 103.238 20.0259 104.815C20.8899 106.41 22.8099 107.679 24.6915 107.256C27.418 106.641 27.9556 103.392 29.5108 101.258C31.7572 98.1635 37.1333 97.5099 40.1861 99.9704C42.567 101.893 43.2582 104.93 44.1798 107.698C45.1014 110.466 46.7526 113.446 49.8055 114.215C55.2392 115.561 60.4808 108.909 65.7609 110.697C68.1993 111.524 69.5817 113.946 70.0617 116.272C70.5417 118.617 70.4073 121.039 70.9834 123.346C71.233 124.346 71.6554 125.384 72.5386 126.018C74.6698 127.556 77.8378 125.96 79.4891 123.98C81.1403 122 82.3883 119.501 84.9035 118.579C88.6284 117.214 92.6412 120.27 94.2541 123.615C95.8477 126.979 96.0973 130.805 98.0749 133.996C102.203 140.666 112.475 142.05 120.424 139.609C131.234 136.302 139.624 127.114 141.256 116.791C141.698 113.965 141.679 111.082 142.331 108.313C143.003 105.526 144.501 102.739 147.189 101.278C149.877 99.8167 153.871 100.24 155.464 102.7C156.655 104.526 156.252 106.833 156.578 108.928C156.924 111.024 158.805 113.388 161.052 112.792C161.916 112.562 162.569 111.947 163.106 111.293C164.949 109.063 165.833 106.16 165.545 103.373C165.372 101.835 164.853 100.24 165.468 98.7978C166.082 97.3561 168.559 96.5679 169.423 97.8943C169.769 98.4326 171.727 98.4133 172.015 98.9708C172.898 100.624 173.954 100.547 174.742 98.8555C175.529 97.1638 174.953 95.2223 174.742 93.3961C174.53 91.5698 175.068 89.3207 176.95 88.6671C177.641 88.3019 178.217 89.3015 178.294 90.032C179.772 104.488 177.391 119.424 170.191 132.362C168.386 135.61 166.274 138.725 163.509 141.339C159.996 144.665 143.733 161.35 139.183 163.388C119.464 172.25 106.485 180.651 84.5579 179.459C62.6312 178.267 38.2469 171.347 20.7363 149.528C17.2802 148.259 16.109 143.223 13.4978 140.801C9.90735 137.437 10.1762 132.054 7.50732 128.056C2.34245 120.386 1.38244 109.755 0.633632 104.834Z" fill="#56B381"/>
<mask id="mask3_457_7543" style="mask-type:luminance" maskUnits="userSpaceOnUse" x="0" y="5" width="174" height="175">
<path d="M86.8811 179.459C134.864 179.459 173.762 140.514 173.762 92.4737C173.762 44.433 134.864 5.48828 86.8811 5.48828C38.898 5.48828 0 44.433 0 92.4737C0 140.514 38.898 179.459 86.8811 179.459Z" fill="white"/>
</mask>
<g mask="url(#mask3_457_7543)">
<path d="M0.748779 94.3383C1.93919 90.8974 5.41444 87.7639 9.46569 87.8601C12.5185 87.9562 15.245 89.8401 16.7426 92.2045C18.2594 94.5498 18.7586 97.3372 18.9506 100.028C19.085 101.739 19.1426 103.527 19.9874 105.065C20.8514 106.622 22.7715 107.852 24.6531 107.429C27.3795 106.833 27.9171 103.681 29.4532 101.605C31.6804 98.6059 37.0565 97.9715 40.0901 100.355C42.4517 102.22 43.1429 105.161 44.0837 107.852C45.0054 110.544 46.6566 113.427 49.6902 114.177C55.1047 115.484 60.3272 109.025 65.588 110.755C68.0265 111.562 69.3897 113.908 69.8697 116.157C70.3497 118.425 70.2153 120.79 70.7913 123.019C71.0409 123.981 71.4633 124.999 72.3465 125.615C74.4777 127.114 77.6266 125.557 79.2778 123.635C80.9098 121.712 82.1578 119.29 84.6731 118.387C88.3787 117.06 92.3916 120.021 93.9852 123.269C95.5596 126.537 95.8284 130.247 97.7869 133.342C101.896 139.821 112.149 141.147 120.059 138.783C130.85 135.572 139.202 126.653 140.834 116.657C141.275 113.908 141.256 111.12 141.909 108.429C142.581 105.719 144.079 103.027 146.747 101.605C149.436 100.182 153.41 100.605 155.004 102.989C156.194 104.757 155.791 107.006 156.117 109.025C156.444 111.043 158.325 113.35 160.572 112.773C161.436 112.543 162.088 111.947 162.626 111.312C164.469 109.14 165.353 106.334 165.045 103.623C164.873 102.124 164.239 100.528 164.969 99.1826C168.194 93.281 173.57 100.605 173.57 100.605C173.57 100.605 174.434 95.7032 174.223 93.9346C174.012 92.1661 174.53 89.9746 176.412 89.3403C177.103 88.9942 177.679 89.9554 177.756 90.6667C179.234 104.68 176.853 119.175 169.673 131.728" stroke="black" stroke-miterlimit="10"/>
</g>
<path d="M87.1119 173.808C135.095 173.808 173.993 134.863 173.993 86.8224C173.993 38.7816 135.095 -0.163086 87.1119 -0.163086C39.1287 -0.163086 0.230713 38.7816 0.230713 86.8224C0.230713 134.863 39.1287 173.808 87.1119 173.808Z" stroke="#181919" stroke-miterlimit="10"/>
</g>
</svg>
