<svg width="176" height="176" viewBox="0 0 176 176" fill="none" xmlns="http://www.w3.org/2000/svg">
<path d="M88.3959 174.597C136.333 174.597 175.194 135.736 175.194 87.7986C175.194 39.861 136.333 1 88.3959 1C40.4584 1 1.59729 39.861 1.59729 87.7986C1.59729 135.736 40.4584 174.597 88.3959 174.597Z" fill="#FF88B6"/>
<path d="M41.858 161.438C41.858 161.438 61.6155 177.36 96.0856 174.194C130.536 171.049 153.478 144.558 153.478 144.558C188.504 105.312 168.613 55.8799 168.613 55.8799C160.902 68.7702 149.488 81.0467 135.811 88.6427C119.181 97.8885 99.2314 101.974 80.3179 105.331C40.5728 112.371 4.18457 110.951 4.18457 110.951C5.25876 115.248 11.397 128.848 11.397 128.848L27.0495 149.795L41.858 161.438Z" fill="#EBEBEB"/>
<path d="M5.87231 60.1766C7.80969 53.0217 11.4351 46.3463 16.3649 40.8411C15.5976 44.7734 14.9454 48.8016 15.3674 52.8107C15.7702 56.8005 17.3432 60.8096 20.3547 63.4567C22.7141 65.5283 25.7833 66.6217 28.8524 67.1588C29.5813 67.2931 30.3294 67.389 31.0199 67.6192C32.1517 68.0028 33.1491 68.7126 34.1082 69.4223C36.9663 71.5707 39.8245 74.1986 40.5726 77.6897C41.1672 80.4711 40.4767 83.8088 42.3565 85.6695C43.8719 88.8537 46.6533 91.4241 49.9718 92.6709C53.7122 94.0712 57.9706 93.8218 61.5385 95.5674C62.7278 96.1429 63.8403 96.9484 65.1255 97.3129C63.2649 97.1211 61.4042 97.1594 59.5436 97.428C57.9323 97.6582 56.3402 98.061 54.7097 98.061C53.6739 98.061 52.6189 97.8884 51.6022 97.6582C45.3105 96.2004 39.5943 91.7118 37.5226 85.5927C36.9088 83.8088 36.6211 81.929 36.0456 80.145C35.4702 78.3611 34.5494 76.5772 33.0149 75.4838C31.7489 74.5823 30.1759 74.2178 28.6605 73.8725C27.5096 73.6231 26.3587 73.3546 25.3037 72.7983C20.911 73.7382 16.0963 73.3546 12.2408 71.0719C8.36599 68.8085 4.75975 64.2623 5.87231 60.1766Z" fill="white"/>
<mask id="mask0_525_18718" style="mask-type:luminance" maskUnits="userSpaceOnUse" x="5" y="40" width="68" height="68">
<path d="M70.3624 107.556C70.113 106.731 69.4033 106.156 68.7319 105.619C67.7344 104.813 66.737 104.027 65.7395 103.221C64.5694 102.281 63.3993 101.341 62.1141 100.593C57.6639 97.9842 52.2354 97.7348 47.344 96.1043C45.7519 95.5672 44.1981 94.8958 42.8937 93.8408C40.2658 91.75 38.8847 88.4699 37.8105 85.2857C36.7363 82.1015 35.8156 78.7638 33.7631 76.0975C31.8449 74.7547 29.9842 73.3737 27.8167 72.8366C24.1529 71.935 20.2206 73.6038 16.5377 72.779C15.5018 72.5488 14.5235 72.1268 13.6028 71.6089C9.34441 69.2879 6.04508 64.9719 5.58472 60.1381C7.33028 52.753 10.7831 45.8858 15.5786 40.6875C15.1566 45.0802 14.7154 49.5304 15.5786 53.8655C16.4226 58.1815 18.7628 62.4399 22.6375 64.5307C26.6849 66.7367 32.0942 66.4873 35.2785 69.825C36.0457 70.6306 36.602 71.5705 37.1775 72.5296C38.9039 75.4261 40.6494 78.3418 41.8387 81.4876C42.5676 83.425 43.1047 85.4775 44.1789 87.2422C45.5216 89.4673 47.6892 91.1937 50.2788 91.961C51.3722 93.534 53.5205 93.8792 55.4196 94.1094C58.316 94.4547 61.2701 94.8767 63.8597 96.2194C65.8354 97.2361 67.5042 98.7514 69.058 100.324C70.1513 101.418 72.5299 103.739 72.6642 105.331C72.7217 106.271 71.168 106.252 70.3624 107.556Z" fill="white"/>
</mask>
<g mask="url(#mask0_525_18718)">
<path d="M5.71891 1.38354L-19.2753 49.6263" stroke="black" stroke-miterlimit="10"/>
<path d="M9.86183 7.09961L-15.1323 55.3615" stroke="black" stroke-miterlimit="10"/>
<path d="M14.0055 12.8159L-10.9886 61.0779" stroke="black" stroke-miterlimit="10"/>
<path d="M18.1486 18.5513L-6.86475 66.7941" stroke="black" stroke-miterlimit="10"/>
<path d="M22.2726 24.2673L-2.72156 72.5293" stroke="black" stroke-miterlimit="10"/>
<path d="M26.4161 29.9836L1.422 78.2455" stroke="black" stroke-miterlimit="10"/>
<path d="M30.5593 35.6997L5.56519 83.9616" stroke="black" stroke-miterlimit="10"/>
<path d="M34.7029 41.4358L9.68958 89.6785" stroke="black" stroke-miterlimit="10"/>
<path d="M38.8269 47.1521L13.8328 95.414" stroke="black" stroke-miterlimit="10"/>
<path d="M42.97 52.8682L17.9758 101.13" stroke="black" stroke-miterlimit="10"/>
<path d="M47.1137 58.5845L22.1195 106.846" stroke="black" stroke-miterlimit="10"/>
<path d="M51.2376 64.3198L26.2434 112.563" stroke="black" stroke-miterlimit="10"/>
<path d="M55.3812 70.0359L30.3871 118.298" stroke="black" stroke-miterlimit="10"/>
<path d="M59.5243 75.7522L34.5302 124.014" stroke="black" stroke-miterlimit="10"/>
<path d="M63.6675 81.4683L38.6733 129.73" stroke="black" stroke-miterlimit="10"/>
<path d="M67.7919 87.2041L42.7977 135.447" stroke="black" stroke-miterlimit="10"/>
<path d="M71.9351 92.9202L46.9409 141.182" stroke="black" stroke-miterlimit="10"/>
<path d="M76.0781 98.6365L51.084 146.898" stroke="black" stroke-miterlimit="10"/>
<path d="M80.2219 104.372L55.2085 152.614" stroke="black" stroke-miterlimit="10"/>
</g>
<path d="M39.7476 16.2687C30.8088 20.623 23.8649 28.2383 18.0719 36.3139C17.0745 37.695 16.0962 39.1337 15.6359 40.7833C15.1947 42.3562 15.2714 44.0251 15.3673 45.6748C15.5208 48.3986 15.6934 51.1033 15.9044 53.8271C16.0003 55.1699 16.1346 56.5701 16.71 57.7786C17.2855 58.9871 18.2638 59.9462 19.242 60.8477C21.2178 62.67 23.3278 64.4156 25.7256 65.6432C28.0466 66.8325 30.5786 67.5231 32.8997 68.6932C35.2207 69.8633 37.4266 71.6472 37.8102 74.1217C41.8193 78.1115 41.1863 85.0938 44.946 89.3138C47.1519 91.8075 50.5279 92.9008 53.808 93.5338C57.069 94.1668 60.4642 94.4546 63.5141 95.759C67.9644 97.6772 71.3788 101.821 72.4721 106.827C72.9901 105.599 74.0642 104.698 75.2152 104.046C76.3661 103.393 77.6321 102.971 78.783 102.127C75.9057 97.447 75.1192 91.2128 70.7266 87.9327C67.0436 85.1705 62.0179 85.4007 57.5677 84.2114C52.2735 82.7919 47.6123 79.1282 44.3705 74.3518C43.4306 72.3569 42.6057 70.3045 41.7234 68.041C41.0328 59.6201 38.5967 51.3526 38.6351 42.8934C38.6542 39.7475 39.0187 36.6017 39.3832 33.4558C40.1313 27.0682 40.8602 20.6423 42.3564 14.3889C41.3973 15.1562 40.4765 15.9043 39.7476 16.2687Z" fill="#56B381"/>
<path d="M5.94913 59.3706C5.83404 65.8158 11.0707 71.9348 17.4583 72.798C20.7385 73.2392 24.1145 72.4528 27.3563 73.0666C30.1568 73.6037 32.7464 75.2342 34.4536 77.5168C38.0023 82.274 37.6762 89.3904 41.9729 93.4762C45.9628 97.2742 52.2161 96.8714 57.5295 98.3293C62.7854 99.7487 67.4466 103.24 70.3047 107.863" stroke="black" stroke-miterlimit="10" stroke-linecap="round" stroke-linejoin="round"/>
<path d="M42.107 14.1016C38.4624 28.8717 37.9253 44.3899 40.5341 59.3903C41.474 64.7996 42.8551 70.2281 45.7516 74.8893C48.6481 79.5505 53.1942 83.4061 58.6035 84.3652C60.6176 84.7297 62.6893 84.6722 64.6842 85.1325C68.3096 85.9765 71.3979 88.4893 73.5847 91.5009C75.7714 94.5317 77.1334 98.0612 78.2843 101.61" stroke="black" stroke-miterlimit="10" stroke-linecap="round" stroke-linejoin="round"/>
<path d="M72.645 105.312C70.2281 100.248 65.5285 96.3153 60.1192 94.8575C56.6856 93.9368 53.0218 93.9367 49.7225 92.6324C46.0012 91.1554 43.0088 87.9903 41.7428 84.1923C41.0523 82.1398 40.8604 79.9723 40.2466 77.9006C38.9231 73.3928 35.5278 69.5564 31.231 67.6574C28.2195 66.3339 24.8243 65.931 22.0045 64.243C18.1873 61.9412 16.0197 57.5677 15.3483 53.1558C14.677 48.744 15.2908 44.2554 15.9238 39.8435" stroke="black" stroke-miterlimit="10" stroke-linecap="round" stroke-linejoin="round"/>
<path d="M4.18457 110.932C4.18457 110.932 55.765 113.521 102.761 99.5952" stroke="black" stroke-miterlimit="10" stroke-linecap="round"/>
<path d="M173.715 93.093C174.904 85.7846 174.942 78.2653 172.698 71.2063C171.777 75.1194 169.399 79.2819 167.385 82.7538C165.371 86.2258 162.282 89.2374 158.446 90.4075C155.454 91.3091 152.193 91.0597 149.162 90.2732C148.433 90.0814 147.723 89.8704 146.994 89.7937C145.805 89.6786 144.597 89.9088 143.446 90.1581C139.954 90.9446 136.272 92.153 134.142 95.0303C132.454 97.313 131.706 100.651 129.232 101.571C126.527 103.854 122.94 105.043 119.411 104.813C115.421 104.545 111.642 102.569 107.652 102.684C106.328 102.722 104.986 102.991 103.662 102.799C105.427 103.394 107.134 104.199 108.707 105.197C110.088 106.06 111.373 107.096 112.85 107.767C113.809 108.189 114.826 108.477 115.843 108.688C122.173 109.954 129.251 108.208 133.663 103.509C134.948 102.128 136.003 100.555 137.269 99.1545C138.535 97.7542 140.108 96.5266 141.949 96.1621C143.484 95.8552 145.057 96.1813 146.591 96.4882C147.742 96.7375 148.893 96.9677 150.083 96.891C153.708 99.5573 158.235 101.207 162.724 100.708C167.193 100.229 173.043 97.2555 173.715 93.093Z" fill="white"/>
<mask id="mask1_525_18718" style="mask-type:luminance" maskUnits="userSpaceOnUse" x="93" y="71" width="82" height="39">
<path d="M94.6658 109.954C95.2221 109.302 96.1236 109.072 96.9484 108.861C98.1953 108.554 99.4229 108.228 100.67 107.921C102.128 107.556 103.585 107.173 105.062 107.019C110.203 106.482 115.248 108.496 120.389 109.033C122.058 109.206 123.746 109.225 125.376 108.803C128.637 107.978 131.246 105.581 133.529 103.106C135.83 100.651 138.036 97.9844 141.009 96.4115C143.311 95.9703 145.575 95.4716 147.781 95.8936C151.502 96.5842 154.379 99.7301 158.101 100.478C159.136 100.689 160.211 100.708 161.266 100.632C166.119 100.267 170.895 97.6967 173.312 93.4959C174.77 86.0341 174.444 78.3613 172.219 71.6667C170.799 75.8484 169.361 80.0877 166.79 83.6747C164.239 87.2617 160.345 90.1582 155.952 90.4843C151.349 90.8104 146.534 88.3551 142.237 90.1007C141.22 90.5227 140.3 91.1557 139.398 91.7887C136.636 93.7069 133.835 95.6443 131.457 98.0229C129.98 99.4807 128.656 101.13 126.949 102.3C124.801 103.777 122.115 104.449 119.449 104.084C117.799 105.063 115.708 104.487 113.886 103.912C111.105 103.029 108.227 102.205 105.312 102.358C103.106 102.473 100.957 103.164 98.8858 103.95C97.428 104.506 94.3205 105.638 93.534 107.019C93.0353 107.825 94.474 108.439 94.6658 109.954Z" fill="white"/>
</mask>
<g mask="url(#mask1_525_18718)">
<path d="M172.852 53.9041L175.748 108.189" stroke="black" stroke-miterlimit="10"/>
<path d="M166.714 57.4146L169.629 111.7" stroke="black" stroke-miterlimit="10"/>
<path d="M160.575 60.9246L163.491 115.19" stroke="black" stroke-miterlimit="10"/>
<path d="M154.456 64.4158L157.353 118.701" stroke="black" stroke-miterlimit="10"/>
<path d="M148.318 67.9263L151.234 122.211" stroke="black" stroke-miterlimit="10"/>
<path d="M142.18 71.4363L145.095 125.721" stroke="black" stroke-miterlimit="10"/>
<path d="M136.06 74.9465L138.957 129.212" stroke="black" stroke-miterlimit="10"/>
<path d="M129.922 78.438L132.838 132.723" stroke="black" stroke-miterlimit="10"/>
<path d="M123.784 81.948L126.7 136.233" stroke="black" stroke-miterlimit="10"/>
<path d="M117.665 85.4583L120.562 139.743" stroke="black" stroke-miterlimit="10"/>
<path d="M111.527 88.9688L114.443 143.254" stroke="black" stroke-miterlimit="10"/>
<path d="M105.388 92.4788L108.304 146.745" stroke="black" stroke-miterlimit="10"/>
<path d="M99.2501 95.97L102.166 150.255" stroke="black" stroke-miterlimit="10"/>
<path d="M93.1312 99.4805L96.0469 153.766" stroke="black" stroke-miterlimit="10"/>
</g>
<path d="M160.211 39.4027C166.56 47.0563 169.744 56.8583 171.72 66.622C172.065 68.2908 173.366 69.812 173.097 71.5C172.848 73.1113 171.345 75.5422 170.597 77C169.35 79.4169 168.597 82 166.483 83.4638C165.831 84.6531 165.16 85.8616 164.124 86.7439C163.107 87.6071 159.863 89.5829 158.597 89.9857C156.046 90.8297 155.358 90.0432 152.672 90.1775C150.083 90.3117 147.474 89.8898 144.884 89.9857C142.295 90.0816 139.552 90.8105 138.17 92.9205C132.876 94.8963 130.555 101.533 125.395 103.816C122.345 105.178 118.816 104.775 115.574 104.008C112.332 103.24 109.129 102.09 105.791 102.032C100.938 101.936 96.1043 104.315 93.0736 108.42C93.0928 107.096 92.4981 105.83 91.7117 104.756C90.9252 103.682 89.9469 102.78 89.2372 101.533C93.8025 98.4449 97.0634 93.0931 102.434 91.923C106.923 90.9256 111.431 93.2082 115.958 93.9563C121.367 94.8387 127.141 93.4384 132.051 90.4268C135.097 89.5 135.352 88.4511 137.097 86.7439C142.097 82.5 146.822 71.8395 150.255 64.1283C151.54 61.251 152.499 58.2394 153.459 55.2278C155.415 49.0896 157.889 44.8301 159.097 38.5C159.654 39.5934 159.693 38.7889 160.211 39.4027Z" fill="#5A66FF"/>
<path d="M174.54 91.8462C171.989 97.7734 163.433 101.955 157.257 100.114C154.092 99.1545 151.329 97.0445 148.107 96.2772C145.326 95.6059 142.295 96.0279 139.801 97.409C134.603 100.286 131.975 106.904 126.355 108.841C121.137 110.645 115.613 107.71 110.165 106.846C104.794 105.983 99.0969 107.23 94.5891 110.261" stroke="black" stroke-miterlimit="10" stroke-linecap="round" stroke-linejoin="round"/>
<path d="M159.252 38.9038C158.427 43.3732 147.877 72.223 142.026 80.8165C138.938 85.3435 135.447 89.7361 130.881 92.7861C126.335 95.8552 120.581 97.4665 115.267 96.1237C113.291 95.625 111.412 94.7234 109.397 94.3206C105.734 93.5917 101.878 94.5892 98.6556 96.4498C95.433 98.3105 92.7091 100.977 90.1963 103.72" stroke="black" stroke-miterlimit="10" stroke-linecap="round" stroke-linejoin="round"/>
<path d="M93.5148 106.981C97.7924 103.355 103.7 101.725 109.244 102.626C112.754 103.202 116.092 104.717 119.641 104.89C123.631 105.082 127.678 103.432 130.402 100.497C131.86 98.9243 132.953 97.0061 134.353 95.3756C137.422 91.827 142.103 89.7169 146.802 89.7553C150.102 89.7936 153.363 90.8295 156.624 90.4459C161.055 89.9279 164.833 86.8205 167.27 83.0992C169.706 79.3587 171.701 75.4839 172.947 71.2063" stroke="black" stroke-miterlimit="10" stroke-linecap="round" stroke-linejoin="round"/>
<path d="M64.4158 105.752C58.3543 120.83 57.2609 132.933 62.536 135.887C69.9402 140.031 87.0698 124.685 100.804 101.571C114.538 78.4756 119.66 56.378 112.256 52.2346C107.134 49.3573 97.3705 55.8217 87.3 67.7145" stroke="#030000" stroke-miterlimit="10"/>
<path d="M62.5361 52.2538C69.9404 48.1105 87.0699 63.4561 100.804 86.5704C104.737 93.1882 107.959 99.7101 110.395 105.772C116.457 120.849 117.55 132.953 112.275 135.907C104.871 140.05 87.7413 124.704 74.0069 101.59C60.2726 78.4948 55.1319 56.3971 62.5361 52.2538Z" fill="#5A66FF" stroke="#030000" stroke-miterlimit="10"/>
<path d="M100.591 101.946C114.387 78.8802 119.667 56.6508 112.385 52.2951C105.102 47.9393 88.0147 63.1068 74.2189 86.1724C60.423 109.238 55.1428 131.468 62.4253 135.823C69.7077 140.179 86.7951 125.012 100.591 101.946Z" fill="#EBEBEB" stroke="#030000" stroke-miterlimit="10"/>
<path d="M87.3959 109.09C114.855 109.09 137.116 102.366 137.116 94.0708C137.116 85.7757 114.855 79.0513 87.3959 79.0513C59.9365 79.0513 37.6761 85.7757 37.6761 94.0708C37.6761 102.366 59.9365 109.09 87.3959 109.09Z" fill="#56B381" stroke="#030000" stroke-miterlimit="10"/>
<path d="M62.5361 52.2538C69.9404 48.1105 87.0699 63.4561 100.804 86.5704C104.737 93.1882 107.959 99.7101 110.395 105.772C116.457 120.849 117.55 132.953 112.275 135.907C104.871 140.05 87.7413 124.704 74.0069 101.59C60.2726 78.4948 55.1319 56.3971 62.5361 52.2538Z" stroke="#030000" stroke-miterlimit="10"/>
<path d="M100.591 101.946C114.387 78.8802 119.667 56.6508 112.385 52.2951C105.102 47.9393 88.0147 63.1068 74.2189 86.1724C60.423 109.238 55.1428 131.468 62.4253 135.823C69.7077 140.179 86.7951 125.012 100.591 101.946Z" stroke="#030000" stroke-miterlimit="10"/>
<path d="M87.3957 102.971C92.449 102.971 96.5455 98.9864 96.5455 94.0708C96.5455 89.1552 92.449 85.1704 87.3957 85.1704C82.3424 85.1704 78.2458 89.1552 78.2458 94.0708C78.2458 98.9864 82.3424 102.971 87.3957 102.971Z" fill="#FFF58C" stroke="#030000" stroke-miterlimit="10"/>
<path d="M59.8506 72.1651C62.5415 72.1651 64.7229 70.0439 64.7229 67.4272C64.7229 64.8105 62.5415 62.6892 59.8506 62.6892C57.1598 62.6892 54.9784 64.8105 54.9784 67.4272C54.9784 70.0439 57.1598 72.1651 59.8506 72.1651Z" fill="#56B381" stroke="#030000" stroke-miterlimit="10"/>
<path d="M121.617 88.5081C124.307 88.5081 126.489 86.3869 126.489 83.7702C126.489 81.1535 124.307 79.0322 121.617 79.0322C118.926 79.0322 116.744 81.1535 116.744 83.7702C116.744 86.3869 118.926 88.5081 121.617 88.5081Z" fill="#5A66FF" stroke="#030000" stroke-miterlimit="10"/>
<path d="M80.2984 132.78C82.9892 132.78 85.1706 130.659 85.1706 128.042C85.1706 125.426 82.9892 123.304 80.2984 123.304C77.6075 123.304 75.4261 125.426 75.4261 128.042C75.4261 130.659 77.6075 132.78 80.2984 132.78Z" fill="#FF88B6" stroke="#030000" stroke-miterlimit="10"/>
<path d="M87.7986 174.597C135.736 174.597 174.597 135.736 174.597 87.7986C174.597 39.861 135.736 1 87.7986 1C39.861 1 1 39.861 1 87.7986C1 135.736 39.861 174.597 87.7986 174.597Z" stroke="#1D1D1B" stroke-miterlimit="10"/>
<path d="M105.446 29.6196C106.802 29.6196 107.901 28.5203 107.901 27.1643C107.901 25.8083 106.802 24.709 105.446 24.709C104.09 24.709 102.991 25.8083 102.991 27.1643C102.991 28.5203 104.09 29.6196 105.446 29.6196Z" fill="#FFF58C" stroke="#181919" stroke-miterlimit="10" stroke-linecap="round" stroke-linejoin="round"/>
<path d="M72.0311 29.6196C73.3871 29.6196 74.4864 28.5203 74.4864 27.1643C74.4864 25.8083 73.3871 24.709 72.0311 24.709C70.6751 24.709 69.5758 25.8083 69.5758 27.1643C69.5758 28.5203 70.6751 29.6196 72.0311 29.6196Z" fill="#FFF58C" stroke="#181919" stroke-miterlimit="10" stroke-linecap="round" stroke-linejoin="round"/>
<path d="M89.7553 14.8489L91.2898 19.5869C91.4241 20.0281 91.8461 20.3158 92.3065 20.3158H97.2938C98.3296 20.3158 98.7516 21.6394 97.9268 22.234L93.8986 25.1689C93.5341 25.4374 93.3615 25.917 93.515 26.3582L95.0495 31.0961C95.3756 32.0744 94.2439 32.8992 93.419 32.2854L89.3908 29.3505C89.0264 29.082 88.5085 29.082 88.144 29.3505L84.1158 32.2854C83.2909 32.8992 82.1592 32.0744 82.4853 31.0961L84.0199 26.3582C84.1541 25.917 84.0007 25.4374 83.6362 25.1689L79.608 22.234C78.7832 21.6202 79.2052 20.3158 80.241 20.3158H85.2283C85.6887 20.3158 86.0915 20.0281 86.245 19.5869L87.7795 14.8489C88.0481 13.8707 89.4292 13.8707 89.7553 14.8489Z" fill="#FFF58C" stroke="#181919" stroke-miterlimit="10" stroke-linecap="round" stroke-linejoin="round"/>
</svg>
