<svg width="213" height="231" viewBox="0 0 213 231" fill="none" xmlns="http://www.w3.org/2000/svg">
<path d="M109 229.872C160.363 229.872 202 188.235 202 136.872C202 85.5096 160.363 43.8721 109 43.8721C57.6375 43.8721 16 85.5096 16 136.872C16 188.235 57.6375 229.872 109 229.872Z" fill="#EBEBEB"/>
<path d="M133.909 76.7768C135.544 76.7768 136.869 75.4517 136.869 73.8172C136.869 72.1827 135.544 70.8577 133.909 70.8577C132.275 70.8577 130.95 72.1827 130.95 73.8172C130.95 75.4517 132.275 76.7768 133.909 76.7768Z" fill="#FFF58C" stroke="#181919" stroke-miterlimit="10" stroke-linecap="round" stroke-linejoin="round"/>
<path d="M93.7907 76.7768C95.4253 76.7768 96.7503 75.4517 96.7503 73.8172C96.7503 72.1827 95.4253 70.8577 93.7907 70.8577C92.1562 70.8577 90.8312 72.1827 90.8312 73.8172C90.8312 75.4517 92.1562 76.7768 93.7907 76.7768Z" fill="#FFF58C" stroke="#181919" stroke-miterlimit="10" stroke-linecap="round" stroke-linejoin="round"/>
<path d="M115.063 59.0398L116.912 64.7328C117.077 65.2672 117.57 65.6166 118.125 65.6166H124.106C125.339 65.6166 125.853 67.1991 124.866 67.9185L120.016 71.4329C119.564 71.7618 119.379 72.3372 119.543 72.8511L121.393 78.5441C121.783 79.7156 120.427 80.7021 119.42 79.9622L114.569 76.4477C114.117 76.1189 113.521 76.1189 113.069 76.4477L108.219 79.9622C107.212 80.6815 105.876 79.7156 106.246 78.5441L108.095 72.8511C108.26 72.3167 108.075 71.7412 107.623 71.4329L102.772 67.9185C101.765 67.1991 102.279 65.6166 103.533 65.6166H109.513C110.068 65.6166 110.562 65.2672 110.726 64.7328L112.576 59.0398C113.028 57.8477 114.693 57.8477 115.063 59.0398Z" fill="#FFF58C" stroke="#181919" stroke-miterlimit="10" stroke-linecap="round" stroke-linejoin="round"/>
<path d="M133.909 76.7768C135.544 76.7768 136.869 75.4517 136.869 73.8172C136.869 72.1827 135.544 70.8577 133.909 70.8577C132.275 70.8577 130.95 72.1827 130.95 73.8172C130.95 75.4517 132.275 76.7768 133.909 76.7768Z" fill="#FFF58C" stroke="#181919" stroke-miterlimit="10" stroke-linecap="round" stroke-linejoin="round"/>
<path d="M93.7907 76.7768C95.4253 76.7768 96.7503 75.4517 96.7503 73.8172C96.7503 72.1827 95.4253 70.8577 93.7907 70.8577C92.1562 70.8577 90.8312 72.1827 90.8312 73.8172C90.8312 75.4517 92.1562 76.7768 93.7907 76.7768Z" fill="#FFF58C" stroke="#181919" stroke-miterlimit="10" stroke-linecap="round" stroke-linejoin="round"/>
<path d="M115.063 59.0398L116.912 64.7328C117.077 65.2672 117.57 65.6166 118.125 65.6166H124.106C125.339 65.6166 125.853 67.1991 124.866 67.9185L120.016 71.4329C119.564 71.7618 119.379 72.3372 119.543 72.8511L121.393 78.5441C121.783 79.7156 120.427 80.7021 119.42 79.9622L114.569 76.4477C114.117 76.1189 113.521 76.1189 113.069 76.4477L108.219 79.9622C107.212 80.6815 105.876 79.7156 106.246 78.5441L108.095 72.8511C108.26 72.3167 108.075 71.7412 107.623 71.4329L102.772 67.9185C101.765 67.1991 102.279 65.6166 103.533 65.6166H109.513C110.068 65.6166 110.562 65.2672 110.726 64.7328L112.576 59.0398C113.028 57.8477 114.693 57.8477 115.063 59.0398Z" fill="#FFF58C" stroke="#181919" stroke-miterlimit="10" stroke-linecap="round" stroke-linejoin="round"/>
<mask id="mask0_625_2386" style="mask-type:luminance" maskUnits="userSpaceOnUse" x="21" y="86" width="72" height="73">
<path d="M90.5021 158.206C90.2349 157.322 89.4745 156.705 88.7551 156.13C87.6864 155.267 86.6177 154.424 85.549 153.561C84.2953 152.554 83.0416 151.547 81.644 150.745C76.8553 147.95 71.0595 147.683 65.798 145.936C64.0922 145.36 62.4274 144.641 61.0298 143.511C58.2142 141.27 56.7344 137.756 55.5834 134.344C54.4325 130.932 53.446 127.356 51.2469 124.499C49.1916 123.061 47.198 121.581 44.855 121.006C40.909 120.04 36.7163 121.828 32.7496 120.944C31.6809 120.697 30.6327 120.245 29.6256 119.69C25.063 117.203 21.5074 112.579 21.0142 107.4C22.8844 99.4871 26.5839 92.1293 31.722 86.5596C31.2698 91.2661 30.7971 96.0343 31.722 100.679C32.6469 105.303 35.1337 109.866 39.2853 112.106C43.6424 114.47 49.4177 114.203 52.8294 117.779C53.6515 118.642 54.2475 119.649 54.8641 120.677C56.7138 123.78 58.5841 126.904 59.8584 130.275C60.6394 132.351 61.2148 134.55 62.3658 136.44C63.8044 138.825 66.1474 140.674 68.922 141.496C70.0935 143.182 72.3954 143.552 74.4301 143.798C77.5335 144.168 80.6986 144.62 83.4937 146.059C85.6106 147.148 87.3987 148.772 89.0634 150.457C90.2349 151.629 92.7834 154.116 92.9273 155.821C93.0301 156.829 91.3653 156.829 90.5021 158.206Z" fill="white"/>
</mask>
<g mask="url(#mask0_625_2386)">
<path d="M21.1786 44.4475L-5.62183 96.1576" stroke="black" stroke-miterlimit="10"/>
<path d="M25.6176 50.572L-1.18286 102.282" stroke="black" stroke-miterlimit="10"/>
<path d="M30.0575 56.7173L3.25708 108.407" stroke="black" stroke-miterlimit="10"/>
<path d="M34.4965 62.8418L7.69604 114.552" stroke="black" stroke-miterlimit="10"/>
<path d="M38.9357 68.9666L12.1353 120.677" stroke="black" stroke-miterlimit="10"/>
<path d="M43.3756 75.0911L16.5752 126.801" stroke="black" stroke-miterlimit="10"/>
<path d="M47.8146 81.2363L21.0142 132.926" stroke="black" stroke-miterlimit="10"/>
<path d="M52.2541 87.3611L25.4536 139.071" stroke="black" stroke-miterlimit="10"/>
<path d="M56.693 93.4856L29.8926 145.196" stroke="black" stroke-miterlimit="10"/>
<path d="M61.1325 99.6101L34.3115 151.32" stroke="black" stroke-miterlimit="10"/>
<path d="M65.572 105.755L38.751 157.445" stroke="black" stroke-miterlimit="10"/>
<path d="M70.0112 111.88L43.1902 163.59" stroke="black" stroke-miterlimit="10"/>
<path d="M74.4504 118.005L47.6294 169.715" stroke="black" stroke-miterlimit="10"/>
<path d="M78.8903 124.15L52.0693 175.839" stroke="black" stroke-miterlimit="10"/>
<path d="M83.3293 130.275L56.5083 181.985" stroke="black" stroke-miterlimit="10"/>
<path d="M87.7686 136.399L60.9476 188.109" stroke="black" stroke-miterlimit="10"/>
<path d="M92.2079 142.524L65.387 194.234" stroke="black" stroke-miterlimit="10"/>
<path d="M96.6475 148.669L69.8265 200.358" stroke="black" stroke-miterlimit="10"/>
<path d="M101.066 154.794L74.2659 206.504" stroke="black" stroke-miterlimit="10"/>
</g>
<path d="M155.181 137.078C157.688 135.413 159.148 132.556 160.031 129.699C160.936 126.822 161.367 123.821 162.415 121.006C164.841 114.511 170.225 109.599 175.775 105.427C180.173 102.118 185.023 98.809 187.037 93.6914C187.695 92.0061 188.003 90.1975 188.846 88.615C185.167 80.6817 179.268 74.6393 173.493 68.7818C172.383 67.6514 171.253 66.5211 169.958 65.5962C165.128 67.4665 161.203 71.1659 158.428 75.4408C155.654 79.7157 153.907 84.5661 152.242 89.396C151.79 90.7319 151.317 92.1089 151.358 93.527C151.399 95.0479 151.995 96.5893 151.564 98.0486C150.557 103.516 150.947 109.229 153.352 114.1C153.968 115.333 154.708 116.546 154.975 117.882C155.181 118.889 155.14 119.937 155.304 120.965C155.489 122.054 155.921 123.102 156.085 124.212C156.537 127.336 154.708 130.357 152.55 132.68C151.851 133.419 151.112 134.139 150.166 134.55C147.823 135.577 145.172 134.344 142.808 133.337C138.677 131.59 134.197 130.46 129.696 130.645C125.195 130.83 120.694 132.412 117.406 135.475C115.474 137.283 114.035 139.544 112.781 141.887C111.343 144.579 110.13 147.416 109.267 150.766C110.089 150.827 110.952 150.334 111.733 150.622C111.959 150.704 112.144 150.848 112.37 150.91C112.658 151.012 112.966 150.971 113.274 150.971C114.651 150.93 116.049 151.28 117.426 152.513C118.618 149.224 120.756 146.306 123.53 144.189C124.414 143.511 125.38 142.915 126.428 142.504C127.949 141.928 129.614 141.784 131.237 141.661C136.047 141.291 140.856 141.024 145.686 140.839C147.433 140.777 149.221 140.716 150.886 140.14C152.591 139.606 153.701 138.064 155.181 137.078Z" fill="white"/>
<mask id="mask1_625_2386" style="mask-type:luminance" maskUnits="userSpaceOnUse" x="109" y="65" width="80" height="88">
<path d="M155.181 137.365C157.688 135.701 159.148 132.844 160.031 129.987C160.936 127.11 161.367 124.109 162.415 121.293C164.841 114.799 170.225 109.887 175.775 105.715C180.173 102.406 185.023 99.0966 187.037 93.979C187.695 92.2937 188.003 90.4851 188.846 88.9026C185.167 80.9693 179.268 74.9269 173.493 69.0694C172.383 67.939 171.253 66.8087 169.958 65.8838C165.128 67.7541 161.203 71.4535 158.428 75.7284C155.654 80.0033 153.907 84.8537 152.242 89.6836C151.79 91.0195 151.317 92.3965 151.358 93.8146C151.399 95.3355 151.995 96.8769 151.564 98.3362C150.557 103.803 150.947 109.517 153.352 114.388C153.968 115.621 154.708 116.833 154.975 118.169C155.181 119.176 155.14 120.225 155.304 121.252C155.489 122.341 155.921 123.39 156.085 124.499C156.537 127.623 154.708 130.645 152.55 132.967C151.851 133.707 151.112 134.426 150.166 134.837C147.823 135.865 145.172 134.632 142.808 133.625C138.677 131.878 134.197 130.747 129.696 130.932C125.195 131.117 120.694 132.7 117.406 135.762C115.474 137.571 114.035 139.832 112.781 142.175C111.343 144.867 110.13 147.703 109.267 151.053C110.089 151.115 110.952 150.622 111.733 150.909C111.959 150.992 112.144 151.135 112.37 151.197C112.658 151.3 112.966 151.259 113.274 151.259C114.651 151.218 116.049 151.567 117.426 152.8C118.618 149.512 120.756 146.593 123.53 144.476C124.414 143.798 125.38 143.202 126.428 142.791C127.949 142.216 129.614 142.072 131.237 141.949C136.047 141.579 140.856 141.311 145.686 141.126C147.433 141.065 149.221 141.003 150.886 140.428C152.591 139.893 153.701 138.352 155.181 137.365Z" fill="white"/>
</mask>
<g mask="url(#mask1_625_2386)">
<path d="M187.716 43.2141L214.516 94.9242" stroke="black" stroke-miterlimit="10"/>
<path d="M183.236 48.2908L210.057 100.001" stroke="black" stroke-miterlimit="10"/>
<path d="M178.755 53.3672L205.576 105.057" stroke="black" stroke-miterlimit="10"/>
<path d="M174.295 58.4436L201.095 110.133" stroke="black" stroke-miterlimit="10"/>
<path d="M169.815 63.4995L196.636 115.21" stroke="black" stroke-miterlimit="10"/>
<path d="M165.354 68.5762L192.155 120.286" stroke="black" stroke-miterlimit="10"/>
<path d="M160.874 73.6526L187.674 125.363" stroke="black" stroke-miterlimit="10"/>
<path d="M156.394 78.729L183.215 130.439" stroke="black" stroke-miterlimit="10"/>
<path d="M151.934 83.8054L178.734 135.515" stroke="black" stroke-miterlimit="10"/>
<path d="M147.453 88.8816L174.274 140.571" stroke="black" stroke-miterlimit="10"/>
<path d="M142.973 93.9585L169.794 145.648" stroke="black" stroke-miterlimit="10"/>
<path d="M138.513 99.0142L165.314 150.724" stroke="black" stroke-miterlimit="10"/>
<path d="M134.032 104.091L160.853 155.801" stroke="black" stroke-miterlimit="10"/>
<path d="M129.573 109.167L156.373 160.877" stroke="black" stroke-miterlimit="10"/>
<path d="M125.092 114.244L151.892 165.954" stroke="black" stroke-miterlimit="10"/>
<path d="M120.611 119.32L147.432 171.03" stroke="black" stroke-miterlimit="10"/>
<path d="M116.152 124.396L142.952 176.086" stroke="black" stroke-miterlimit="10"/>
<path d="M111.671 129.452L138.472 181.162" stroke="black" stroke-miterlimit="10"/>
<path d="M107.191 134.529L134.012 186.239" stroke="black" stroke-miterlimit="10"/>
<path d="M102.731 139.605L129.531 191.316" stroke="black" stroke-miterlimit="10"/>
<path d="M98.2506 144.682L125.072 196.392" stroke="black" stroke-miterlimit="10"/>
</g>
<path d="M99.7711 152.574C101.23 152.225 102.69 151.855 104.005 151.485C102.874 148.217 101.785 144.887 101.539 141.455C101.292 138.002 102.011 134.385 104.149 131.672C107.232 127.788 112.472 126.555 116.871 124.253C120.755 122.218 124.126 119.197 126.551 115.559C128.236 113.031 129.531 110.01 129.038 107.009C128.75 105.262 127.887 103.659 127.003 102.118C124.763 98.1717 122.05 93.9995 117.631 92.828C110.499 89.1491 102.011 89.5602 94.0369 90.485C90.5635 90.8961 87.1107 91.3688 83.7607 92.3347C75.1697 94.8216 67.7914 100.289 60.6391 105.632C60.1253 106.023 59.5909 106.434 59.3238 107.03C59.0977 107.544 59.1182 108.14 59.1593 108.715C59.5704 113.38 61.749 117.655 63.907 121.828C65.1196 124.171 66.3527 126.534 68.223 128.384C70.2782 130.418 72.9706 131.693 75.6835 132.7C78.7459 133.81 81.9109 134.611 85.1171 135.104C86.823 135.351 88.5905 135.536 90.0703 136.42C91.3857 137.221 92.3311 138.496 93.2148 139.749C95.7428 143.325 99.0106 152.923 99.0106 152.923L99.7711 152.574Z" fill="#5A66FF"/>
<path d="M155.345 118.95C154.585 119.053 153.804 119.115 153.002 119.115C143.404 119.115 135.635 111.346 135.635 101.748C135.635 92.1497 143.404 84.3809 153.002 84.3809C153.352 84.3809 153.393 84.4631 153.763 84.4836" stroke="black" stroke-miterlimit="10" stroke-linecap="round" stroke-linejoin="round"/>
<path d="M170.205 66.7265C161.203 70.4465 154.195 78.7086 152.016 88.2038C149.283 100.145 153.825 112.353 156.825 124.232C156.764 127.377 155.715 130.48 153.64 132.597C151.543 134.714 148.46 135.783 145.501 135.454C141.699 135.002 138.493 132.433 134.773 131.549C131.751 130.83 128.566 131.302 125.524 131.981C123.119 132.536 120.715 133.234 118.618 134.55C113.131 137.982 110.87 144.949 110.747 151.423C108.548 150.868 106.718 151.115 105.095 151.834C102.67 150.252 102.156 147.498 101.847 145.011C101.292 140.9 100.84 136.379 103.081 132.905C104.807 130.234 107.787 128.692 110.623 127.274C113.994 125.589 117.365 123.904 120.735 122.239C123.016 121.108 125.359 119.896 126.921 117.882C128.607 115.683 129.1 112.805 129.1 110.031C129.1 106.454 128.319 102.817 126.449 99.7749C124.188 96.096 120.468 93.4447 116.419 91.9444C112.37 90.4441 107.993 90.0125 103.677 90.0125C87.0291 90.0536 70.4843 96.8564 58.6255 108.53C56.4881 97.8841 56.7553 88.4094 57.0635 79.1607C57.2896 71.8646 57.5774 64.3835 59.8381 57.7656C84.1312 42.5773 115.72 39.7 142.603 49.9145C152.694 54.3128 162.231 60.0469 170.205 66.7265Z" fill="#B180E0"/>
<path d="M197.252 109.126C197.293 104.255 193.819 100.145 191.99 95.6233C191.004 93.1775 190.469 90.4851 188.805 88.4504C187.962 93.1364 185.804 98.2745 182.331 101.378C178.857 104.481 174.808 106.865 171.13 109.722C167.451 112.579 164.018 116.032 162.436 120.41C161.018 124.356 161.162 128.816 159.271 132.556C157.503 136.05 154.091 138.496 150.433 139.832C146.754 141.168 142.808 141.538 138.903 141.702C134.752 141.887 130.518 141.907 126.633 143.326C122.728 144.744 119.173 147.909 118.125 151.999C121.557 153.746 124.784 155.904 127.723 158.37C130.723 155.102 134.669 150.909 138.821 149.327C141.061 148.464 145.048 147.58 145.048 147.58C145.048 147.58 150.187 146.902 152.776 146.121C154.914 145.463 156.661 144.477 158.305 142.935C162.703 138.866 162.271 132.289 165.58 127.295C167.266 124.726 169.999 122.979 172.918 121.992C175.836 121.006 178.919 120.718 181.981 120.553C183.482 120.471 184.982 120.43 186.421 120.06C191.661 118.806 197.211 114.347 197.252 109.126Z" fill="#FF88B6"/>
<path d="M57.6803 60.3965C48.1028 65.0619 40.6628 73.2212 34.4354 81.8738C33.3667 83.3536 32.3185 84.895 31.8252 86.6625C31.3525 88.3479 31.4347 90.1359 31.5375 91.9034C31.7019 94.8219 31.8869 97.7198 32.113 100.638C32.2157 102.077 32.3596 103.577 32.9762 104.872C33.5928 106.167 34.6409 107.194 35.6891 108.16C37.806 110.113 40.0668 111.983 42.6359 113.299C45.1227 114.573 47.8356 115.313 50.3225 116.566C52.8093 117.82 55.1729 119.732 55.5839 122.383C59.8794 126.658 59.2217 134.139 63.25 138.66C65.6135 141.332 69.2513 142.504 72.7452 143.182C76.2597 143.86 79.877 144.168 83.1654 145.566C87.9335 147.621 91.6124 152.061 92.7634 157.425C93.3183 156.109 94.4692 155.143 95.7024 154.445C96.9355 153.746 98.292 153.294 99.5457 152.389C96.4423 147.375 95.6202 140.695 90.8931 137.181C86.947 134.221 81.5417 134.468 76.7735 133.193C71.101 131.673 66.0862 127.747 62.6129 122.629C61.6058 120.492 60.722 118.293 59.7561 115.868C59.0162 106.845 56.406 97.987 56.4471 88.9233C56.4677 85.5527 56.8582 82.1821 57.2487 78.8115C58.0502 71.9675 58.8518 65.0824 60.4549 58.3823C59.4478 59.2044 58.4407 60.006 57.6803 60.3965Z" fill="#56B381"/>
<path d="M21.4253 106.578C21.302 113.483 26.9129 120.04 33.7774 120.964C37.2919 121.437 40.9091 120.594 44.403 121.252C47.4037 121.828 50.1783 123.575 52.0074 126.02C55.8096 131.117 55.4603 138.742 60.0846 143.12C64.38 147.189 71.0596 146.758 76.7732 148.32C82.4046 149.841 87.3988 153.581 90.4611 158.534" stroke="black" stroke-miterlimit="10" stroke-linecap="round" stroke-linejoin="round"/>
<path d="M197.129 106.578C197.252 113.483 191.641 120.04 184.777 120.964C181.262 121.437 177.645 120.594 174.151 121.252C171.15 121.828 168.376 123.575 166.547 126.02C162.744 131.117 163.094 138.742 158.469 143.12C154.174 147.189 147.494 146.758 141.781 148.32C136.149 149.841 131.155 153.581 128.093 158.534" stroke="black" stroke-miterlimit="10" stroke-linecap="round" stroke-linejoin="round"/>
<path d="M110.109 149.984C110.438 143.901 113.767 138.044 118.803 134.632C123.838 131.22 130.497 130.295 136.272 132.227C141.02 133.81 145.809 137.242 150.536 135.639C154.811 134.2 156.825 129.083 156.537 124.602C156.249 120.101 154.256 115.908 152.961 111.592C149.837 101.193 150.844 89.6218 155.695 79.9005C158.613 74.0431 163.34 68.5761 169.711 67.0347" stroke="black" stroke-miterlimit="10" stroke-linecap="round" stroke-linejoin="round"/>
<path d="M187.756 87.135C189.442 100.494 176.843 104.029 165.56 115.312C160.75 120.307 162.333 127.397 158.839 133.399C150.145 149.45 126.572 133.954 118.125 150.807" stroke="black" stroke-miterlimit="10" stroke-linecap="round" stroke-linejoin="round"/>
<path d="M60.2079 58.074C56.303 73.8994 55.7275 90.5263 58.5226 106.598C59.5297 112.394 61.0095 118.211 64.1129 123.205C67.2163 128.199 72.1078 132.33 77.8831 133.358C80.0411 133.748 82.2608 133.687 84.3982 134.18C88.3032 135.084 91.6121 137.777 93.9551 141.003C96.2981 144.23 97.7573 148.032 98.9905 151.834" stroke="black" stroke-miterlimit="10" stroke-linecap="round" stroke-linejoin="round"/>
<path d="M32.1125 85.6758C31.4548 90.4029 30.7766 95.2121 31.4959 99.9392C32.2152 104.666 34.5582 109.352 38.6482 111.819C41.6694 113.627 45.3072 114.059 48.5545 115.477C53.1582 117.491 56.796 121.622 58.2347 126.452C58.8924 128.672 59.0979 130.994 59.8378 133.193C61.1943 137.263 64.421 140.654 68.4082 142.236C71.9432 143.634 75.8687 143.634 79.5476 144.62C85.364 146.182 90.3993 150.396 92.9684 155.821" stroke="black" stroke-miterlimit="10" stroke-linecap="round" stroke-linejoin="round"/>
<path d="M59.4269 107.503C70.4019 96.466 85.7546 89.8892 101.333 89.5398C108.794 89.3754 116.666 90.773 122.4 95.5617C128.134 100.33 130.908 109.167 127.106 115.6C121.598 124.89 106.102 125.055 102.073 135.064C99.9769 140.304 101.971 146.182 103.985 151.464" stroke="black" stroke-miterlimit="10" stroke-linecap="round" stroke-linejoin="round"/>
<path d="M130.539 77.1672C132.173 77.1672 133.498 75.8421 133.498 74.2076C133.498 72.5731 132.173 71.248 130.539 71.248C128.904 71.248 127.579 72.5731 127.579 74.2076C127.579 75.8421 128.904 77.1672 130.539 77.1672Z" fill="#FFF58C" stroke="#181919" stroke-miterlimit="10" stroke-linecap="round" stroke-linejoin="round"/>
<path d="M90.4203 77.1672C92.0548 77.1672 93.3798 75.8421 93.3798 74.2076C93.3798 72.5731 92.0548 71.248 90.4203 71.248C88.7857 71.248 87.4607 72.5731 87.4607 74.2076C87.4607 75.8421 88.7857 77.1672 90.4203 77.1672Z" fill="#FFF58C" stroke="#181919" stroke-miterlimit="10" stroke-linecap="round" stroke-linejoin="round"/>
<path d="M111.692 59.4098L113.542 65.1028C113.706 65.6372 114.2 65.9866 114.754 65.9866H120.735C121.968 65.9866 122.482 67.5691 121.496 68.2884L116.645 71.8029C116.193 72.1317 116.008 72.7072 116.173 73.221L118.022 78.9141C118.413 80.0856 117.056 81.0721 116.049 80.3322L111.199 76.8177C110.747 76.4889 110.151 76.4889 109.699 76.8177L104.848 80.3322C103.841 81.0515 102.505 80.0856 102.875 78.9141L104.725 73.221C104.889 72.6867 104.704 72.1112 104.252 71.8029L99.4634 68.309C98.4563 67.5896 98.9701 66.0071 100.224 66.0071H106.205C106.76 66.0071 107.253 65.6577 107.417 65.1234L109.267 59.4303C109.657 58.2383 111.322 58.2383 111.692 59.4098Z" fill="#FFF58C" stroke="#181919" stroke-miterlimit="10" stroke-linecap="round" stroke-linejoin="round"/>
<mask id="mask2_625_2386" style="mask-type:luminance" maskUnits="userSpaceOnUse" x="16" y="43" width="187" height="187">
<path d="M109.369 229.872C160.732 229.872 202.369 188.235 202.369 136.872C202.369 85.5096 160.732 43.8721 109.369 43.8721C58.0069 43.8721 16.3694 85.5096 16.3694 136.872C16.3694 188.235 58.0069 229.872 109.369 229.872Z" fill="white"/>
</mask>
<g mask="url(#mask2_625_2386)">
<path d="M156.188 208.95C146.878 202.517 129.079 198.16 108.65 198.16C88.2207 198.16 70.4223 202.517 61.112 208.95H54.1858V219.226C54.1858 230.859 78.561 240.292 108.65 240.292C138.739 240.292 163.114 230.859 163.114 219.226V208.95H156.188Z" fill="#5A66FF" stroke="black" stroke-miterlimit="10" stroke-linecap="round" stroke-linejoin="round"/>
<path d="M108.65 230.016C138.73 230.016 163.114 220.584 163.114 208.95C163.114 197.315 138.73 187.883 108.65 187.883C78.5702 187.883 54.1858 197.315 54.1858 208.95C54.1858 220.584 78.5702 230.016 108.65 230.016Z" fill="white" stroke="black" stroke-miterlimit="10" stroke-linecap="round" stroke-linejoin="round"/>
<path d="M156.188 198.673C146.878 192.24 129.079 187.883 108.65 187.883C88.2207 187.883 70.4223 192.24 61.112 198.673H54.1858V208.95C54.1858 220.582 78.561 230.016 108.65 230.016C138.739 230.016 163.114 220.582 163.114 208.95V198.673H156.188Z" fill="#5A66FF" stroke="black" stroke-miterlimit="10" stroke-linecap="round" stroke-linejoin="round"/>
<path d="M108.65 219.74C138.73 219.74 163.114 210.308 163.114 198.673C163.114 187.039 138.73 177.607 108.65 177.607C78.5702 177.607 54.1858 187.039 54.1858 198.673C54.1858 210.308 78.5702 219.74 108.65 219.74Z" fill="white" stroke="black" stroke-miterlimit="10" stroke-linecap="round" stroke-linejoin="round"/>
<path d="M156.188 188.397C146.878 181.964 129.079 177.607 108.65 177.607C88.2207 177.607 70.4223 181.964 61.112 188.397H54.1858V198.673C54.1858 210.306 78.561 219.74 108.65 219.74C138.739 219.74 163.114 210.306 163.114 198.673V188.397H156.188Z" fill="#5A66FF" stroke="black" stroke-miterlimit="10" stroke-linecap="round" stroke-linejoin="round"/>
<path d="M108.65 209.463C138.73 209.463 163.114 200.032 163.114 188.397C163.114 176.763 138.73 167.331 108.65 167.331C78.5702 167.331 54.1858 176.763 54.1858 188.397C54.1858 200.032 78.5702 209.463 108.65 209.463Z" fill="white" stroke="black" stroke-miterlimit="10" stroke-linecap="round" stroke-linejoin="round"/>
</g>
<path d="M109.369 229.872C160.732 229.872 202.369 188.235 202.369 136.872C202.369 85.5096 160.732 43.8721 109.369 43.8721C58.0069 43.8721 16.3694 85.5096 16.3694 136.872C16.3694 188.235 58.0069 229.872 109.369 229.872Z" stroke="#181919" stroke-miterlimit="10"/>
<path fill-rule="evenodd" clip-rule="evenodd" d="M144.926 158.144C145.912 154.753 146.755 151.197 146.96 147.703C147.125 144.662 146.2 141.928 146.118 138.968C146.056 135.207 147.207 133.543 145.337 130.11C144.617 128.795 144.35 127.027 143.549 125.794C142.644 124.438 140.98 123.904 139.767 122.938C137.979 121.519 136.746 119.526 135.019 118.046C133.334 116.607 131.217 116.258 129.429 115.025C128.114 114.121 127.805 112.476 126.798 111.305C125.668 110.01 123.962 109.393 122.544 108.489C115.104 103.824 104.252 108.736 96.915 112.106C93.5855 113.627 90.441 114.819 87.9952 117.779C85.9194 120.307 82.6105 123.081 81.2746 126.062C79.3221 130.48 81.6034 135.536 78.4383 139.585C77.2257 139.688 76.3625 142.483 76.2392 143.819C76.0542 145.73 76.9997 147.313 77.3285 149.101C77.8218 151.752 77.0202 154.506 77.6162 157.26C78.2534 160.199 79.466 163.035 80.9457 165.563C82.3433 167.989 83.7203 170.475 85.0973 172.921C86.4538 175.305 87.132 178.224 89.2078 180.053C95.9285 186.013 109.041 194.542 117.981 187.924C119.913 186.506 122.441 185.623 124.496 184.04C128.566 180.896 132.923 176.6 135.821 172.264C137.383 169.921 138.678 167.393 140.384 165.152C142.007 163.015 144.021 161.247 144.823 158.576C144.843 158.452 144.885 158.308 144.926 158.144Z" fill="#FFD54C" stroke="black" stroke-miterlimit="10"/>
<path d="M100.285 134.2C100.347 134.509 100.532 134.776 100.737 134.92C100.964 135.187 101.21 135.372 101.518 135.495C102.053 135.701 102.567 135.659 103.039 135.413C104.088 134.858 104.663 133.399 104.869 132.782C105.115 132.042 105.362 131.179 105.259 130.336C105.321 129.905 105.321 129.514 105.28 129.103C105.28 128.939 105.259 128.815 105.238 128.713C105.28 128.302 105.197 127.911 104.971 127.521C104.91 127.233 104.786 126.966 104.56 126.699L104.478 126.596C104.129 126.144 103.759 125.692 103.224 125.486C102.916 125.363 102.587 125.342 102.217 125.424C100.306 125.815 100.121 127.973 100.018 129C99.8743 131.138 99.9359 132.741 100.285 134.2Z" fill="black"/>
<path d="M116.42 128.897C113.974 128.959 111.692 130.233 109.514 131.528C110.192 132.926 111.076 134.2 112.227 135.166C113.378 136.132 114.775 136.81 116.276 136.954" stroke="black" stroke-miterlimit="10" stroke-linecap="round" stroke-linejoin="round"/>
<path d="M109.514 131.508C111.98 132.309 114.57 132.7 117.18 132.659" stroke="black" stroke-miterlimit="10" stroke-linecap="round" stroke-linejoin="round"/>
<path d="M120.386 138.824C121.825 139.873 122.441 141.928 121.989 143.778C121.866 144.312 121.66 144.826 121.331 145.278C121.003 145.73 120.592 146.079 120.16 146.429C115.7 149.902 109.781 151.135 104.581 149.697C102.156 149.018 99.8541 147.765 98.1482 145.853C96.4424 143.942 95.3531 141.373 95.3942 138.701C95.4147 137.324 95.7436 135.906 96.5862 134.817" stroke="black" stroke-miterlimit="10" stroke-linecap="round" stroke-linejoin="round"/>
<path d="M148.397 124.815C148.122 123.214 149.13 121.769 149.918 120.37C151.421 117.742 152.224 114.788 153.013 111.868C153.679 109.381 154.327 106.582 152.881 104.267C152.349 103.406 151.591 102.71 151 101.884C150.408 101.058 150.022 100.017 150.401 99.149C150.565 98.7744 150.859 98.4567 151.108 98.1398C154.106 94.4212 153.493 89.0844 152.854 84.2634C152.746 83.4459 152.78 82.4062 153.591 82.1724C153.87 82.0915 154.16 82.1371 154.431 82.1746C156.781 82.5729 159.413 83.4393 161.347 82.2567C161.805 81.9699 162.225 81.5655 162.797 81.5724C163.281 81.5809 163.727 81.8772 164.102 82.1832C167.564 84.8514 171.107 88.2447 175.424 88.2454C176.48 88.4635 177.157 88.1307 177.116 87.5654C177.105 87.3375 176.952 87.1289 176.818 86.9285C176.287 86.1691 175.755 85.4096 175.224 84.6501C174.019 82.9478 172.804 81.2203 171.261 79.7351C169.446 78.0096 167.167 76.588 166.074 74.4275C166.283 71.6192 164.29 68.7817 161.729 66.9933C159.167 65.2048 156.126 64.2611 153.133 63.3587C151.526 62.8799 149.82 62.3775 148.228 62.6756C145.767 63.141 144.205 65.2971 141.929 66.2492C139.523 67.2458 136.466 66.8429 134.339 68.2655C133.216 69.0116 132.506 70.1814 131.695 71.2262C129.981 73.3765 127.668 75.0219 125.388 76.6415C123.945 77.1059 122.086 78.6252 121.022 80.3502C119.958 82.0753 119.456 84.0861 118.374 85.803C117.064 87.8872 115.008 89.4014 112.944 90.8313C111.892 91.5678 110.795 92.305 110.147 93.3807C109.876 93.8501 109.671 94.3689 109.381 94.8302C108.347 96.3857 106.183 96.8797 104.833 98.1958C103.468 99.5459 103.133 101.731 103.111 103.607C98.3034 100.675 92.6443 99.0337 87.078 98.9535C86.4607 98.9473 85.7765 98.9931 85.4121 99.4218C84.9844 99.9446 85.2408 100.726 85.5717 101.337C86.5084 103.044 87.9992 104.445 89.5273 105.762C93.7991 109.413 98.532 112.515 103.421 115.361C121.658 125.966 142.056 132.892 162.815 135.9C163.276 135.959 163.781 136.018 164.124 135.742C164.823 135.155 163.938 134.039 163.131 133.504C158.235 130.168 153.048 127.192 148.397 124.815Z" fill="#5A66FF"/>
<path d="M148.397 124.815C148.122 123.214 149.13 121.769 149.918 120.37C151.421 117.742 152.224 114.788 153.013 111.868C153.679 109.381 154.327 106.582 152.881 104.267C152.349 103.406 151.591 102.71 151 101.884C150.408 101.058 150.022 100.017 150.401 99.149C150.565 98.7744 150.859 98.4567 151.108 98.1398C154.106 94.4212 153.493 89.0844 152.854 84.2634C152.746 83.4459 152.78 82.4062 153.591 82.1724C153.87 82.0915 154.16 82.1371 154.431 82.1746C156.781 82.5729 159.413 83.4393 161.347 82.2567C161.805 81.9699 162.225 81.5655 162.797 81.5724C163.281 81.5809 163.727 81.8772 164.102 82.1832C167.564 84.8514 171.107 88.2447 175.424 88.2454C176.48 88.4635 177.157 88.1307 177.116 87.5654C177.105 87.3375 176.952 87.1289 176.818 86.9285C176.287 86.1691 175.755 85.4096 175.224 84.6501C174.019 82.9478 172.804 81.2203 171.261 79.7351C169.446 78.0096 167.167 76.588 166.074 74.4275C166.283 71.6192 164.29 68.7817 161.729 66.9933C159.167 65.2048 156.126 64.2611 153.133 63.3587C151.526 62.8799 149.82 62.3775 148.228 62.6756C145.767 63.141 144.205 65.2971 141.929 66.2492C139.523 67.2458 136.466 66.8429 134.339 68.2655C133.216 69.0116 132.506 70.1814 131.695 71.2262C129.981 73.3765 127.668 75.0219 125.388 76.6415C123.945 77.1059 122.086 78.6252 121.022 80.3502C119.958 82.0753 119.456 84.0861 118.374 85.803C117.064 87.8872 115.008 89.4014 112.944 90.8313C111.892 91.5678 110.795 92.305 110.147 93.3807C109.876 93.8501 109.671 94.3689 109.381 94.8302C108.347 96.3857 106.183 96.8797 104.833 98.1958C103.468 99.5459 103.133 101.731 103.111 103.607C98.3034 100.675 92.6443 99.0337 87.078 98.9535C86.4607 98.9473 85.7765 98.9931 85.4121 99.4218C84.9844 99.9446 85.2408 100.726 85.5717 101.337C86.5084 103.044 87.9992 104.445 89.5273 105.762C93.7991 109.413 98.532 112.515 103.421 115.361C121.658 125.966 142.056 132.892 162.815 135.9C163.276 135.959 163.781 136.018 164.124 135.742C164.823 135.155 163.938 134.039 163.131 133.504C158.235 130.168 153.048 127.192 148.397 124.815Z" fill="#A37D65" stroke="#120000" stroke-miterlimit="10" stroke-linecap="round" stroke-linejoin="round"/>
<path d="M153.468 82.0986C151.553 79.64 149.572 77.1318 146.832 75.8533C146.43 75.6576 145.988 75.5048 145.515 75.5215C145.062 75.5463 144.549 75.8087 144.303 76.2691C144.058 76.7296 144.117 77.303 144.359 77.7127C144.6 78.1225 144.998 78.3774 145.433 78.5472" stroke="#120000" stroke-miterlimit="10" stroke-linecap="round" stroke-linejoin="round"/>
<path d="M124.186 82.1788C126.825 85.2584 129.439 88.347 132.079 91.4266C133.194 92.7249 134.387 94.098 136.019 94.6693C137.072 95.048 138.224 95.0447 139.306 94.9498C142.854 94.6345 146.227 93.2493 148.804 91.0501C149.321 90.6271 149.823 90.1369 150.473 89.9143C151.124 89.6917 151.994 89.8286 152.411 90.3958C152.425 90.6659 152.429 90.9108 152.444 91.1809" stroke="#120000" stroke-miterlimit="10" stroke-linecap="round" stroke-linejoin="round"/>
<path d="M126.83 80.2319C129.812 83.9475 132.804 87.6883 135.786 91.404C136.087 91.7789 136.407 92.1619 136.864 92.382C137.236 92.5445 137.649 92.5626 138.05 92.5556C141.222 92.5425 144.312 91.5001 146.688 89.6593C148.22 88.4836 149.559 86.9397 151.526 86.5421" stroke="#120000" stroke-miterlimit="10" stroke-linecap="round" stroke-linejoin="round"/>
<path d="M147.312 93.1963C148.275 93.1711 149.272 93.2213 150.239 93.3396C151.358 95.0856 151.353 97.375 150.227 98.9913C149.066 100.634 146.913 101.558 146.128 103.405" stroke="#120000" stroke-miterlimit="10" stroke-linecap="round" stroke-linejoin="round"/>
<path d="M125.877 84.54C125.126 84.2321 124.304 83.9339 123.565 84.158C123.234 84.2567 122.955 84.439 122.694 84.6294C121.508 85.4695 120.433 86.4598 119.522 87.5823" stroke="#120000" stroke-miterlimit="10" stroke-linecap="round" stroke-linejoin="round"/>
<path d="M112.464 94.6158C118.405 95.0021 124.366 95.3964 130.308 95.7827C131.62 95.8696 132.951 95.9646 134.152 96.5097C136.573 97.6079 137.774 100.18 139.35 102.248C142.067 105.808 146.455 108.232 150.961 108.66" stroke="#120000" stroke-miterlimit="10" stroke-linecap="round" stroke-linejoin="round"/>
<path d="M113.185 93.0657C117.882 92.9077 122.6 93.0028 127.304 93.3346C130.873 93.5764 134.755 94.1169 137.44 96.4861C139.562 98.3667 140.592 101.128 142.748 102.983C144.748 104.688 147.626 105.398 150.11 104.78" stroke="#120000" stroke-miterlimit="10" stroke-linecap="round" stroke-linejoin="round"/>
<path d="M150.521 116.558C149.435 116.813 148.323 116.976 147.193 117.03C146.669 117.064 146.122 117.048 145.624 116.871C144.59 116.501 143.981 115.464 143.114 114.761C141.702 113.637 139.779 113.527 137.983 113.33C131.908 112.642 125.97 110.169 121.189 106.316C119.486 104.943 117.854 103.358 115.794 102.6C113.106 101.608 110.179 102.174 107.342 102.029C107.357 101.488 107.38 100.93 107.402 100.575C109.031 99.6852 111.094 99.9786 112.965 100.309C114.761 100.607 116.549 100.922 118.271 101.492C123.093 103.072 127.064 106.551 131.67 108.726C136.686 111.08 142.516 111.924 150.521 116.558Z" stroke="#120000" stroke-miterlimit="10" stroke-linecap="round" stroke-linejoin="round"/>
<path d="M107.182 104.474C108.61 104.145 110.083 103.815 111.566 104.017C113.013 104.203 114.385 104.863 115.545 105.756C116.712 106.631 117.701 107.712 118.612 108.819" stroke="#120000" stroke-miterlimit="10" stroke-linecap="round" stroke-linejoin="round"/>
<path d="M132.833 117.771C136.852 117.743 140.894 118.17 144.857 119.031L132.833 117.771Z" fill="#5A66FF"/>
<path d="M132.833 117.771C136.852 117.743 140.894 118.17 144.857 119.031" stroke="#120000" stroke-miterlimit="10" stroke-linecap="round" stroke-linejoin="round"/>
<path d="M63.5325 26.3719C63.5399 26.7351 63.4476 27.0492 63.3146 27.0492C57.9859 27.059 52.6535 27.0492 47.3248 27.0492C38.8942 27.0492 30.4635 27.0492 22.0292 27.0492C19.5419 27.0492 8.84882 27.0492 3.76877 27.0492C2.23176 27.0492 1.01358 25.8922 1.00451 24.3552C0.964533 17.5737 1.20708 1 1.06883 1C5.5999 1 39.4518 1 42.5242 1C48.6744 1 54.8245 1 60.9747 1C62.49 1 63.6612 2.12944 63.6593 3.64474C63.652 9.53732 63.4823 23.3315 63.5325 26.3719Z" fill="white" stroke="black" stroke-miterlimit="10" stroke-linecap="round" stroke-linejoin="round"/>
<path d="M29.3611 16.6003H30.8171V8.31233H20.4011V9.61433H29.3611V16.6003ZM19.6731 19.2743H31.6151V17.9723H19.6731V19.2743ZM43.0099 7.89233V10.1323H40.9379V11.3923H43.0099V14.8923H44.3959V7.89233H43.0099ZM33.6299 10.7623V14.4723H37.7599C39.4539 14.4723 40.8819 14.2623 41.6099 13.9403V12.8063C40.8399 13.1423 39.4679 13.3383 37.8439 13.3383H35.0019V11.8683H40.1539V8.18633H33.6019V9.32033H38.7819V10.7623H33.6299ZM34.2179 19.6943H44.3539V15.5503H34.2179V19.6943ZM35.5899 16.6843H42.9819V18.5603H35.5899V16.6843Z" fill="black"/>
<path d="M211.606 57.605C211.628 58.0411 211.352 58.4182 210.956 58.4182C195.058 58.43 179.15 58.4182 163.253 58.4182C138.101 58.4182 112.95 58.4182 87.7873 58.4182C79.2046 58.4182 37.87 58.4182 27.5792 58.4182C26.2107 58.4182 25.1191 57.4818 25.0826 56.1138C24.8839 48.6875 25.6848 27.1416 25.2556 27.1416C38.7733 27.1416 139.765 27.1416 148.931 27.1416C169.178 27.1416 189.425 27.1416 209.672 27.1416C210.991 27.1416 211.977 28.0332 211.983 29.3524C212.013 35.7464 211.448 53.7765 211.606 57.605Z" fill="white" stroke="black" stroke-miterlimit="10" stroke-linecap="round" stroke-linejoin="round"/>
<path d="M49.3695 36.8242V48.7802H50.7555V36.8242H49.3695ZM44.7075 38.5322H47.7735V37.2582H40.1435V38.5322H43.3075C43.2515 42.9702 41.9915 46.3022 39.8635 46.6942V48.0662C41.6695 47.8562 43.0975 46.3722 43.9235 43.8662L47.1435 47.9682L48.2355 47.1422L44.3295 42.3122C44.5535 41.1922 44.6935 39.9182 44.7075 38.5322ZM62.7243 40.9822H64.1243V36.9642H53.8623V38.1402H62.7243V40.9822ZM53.0643 42.8582H65.0063V41.6962H53.0643V42.8582ZM53.8903 48.6402H64.1663V44.0762H53.8903V48.6402ZM55.2763 47.5062V45.2102H62.7943V47.5062H55.2763ZM77.6331 37.0342H76.2611V38.7142H68.7291V37.0342H67.3571V43.1662H77.6331V37.0342ZM68.7291 41.9342V39.9462H76.2611V41.9342H68.7291ZM78.4731 44.4402H66.5311V45.7282H71.7811V49.0602H73.2091V45.7282H78.4731V44.4402ZM89.8539 36.8242V41.6962H87.6419V42.9982H89.8539V48.7802H91.2539V36.8242H89.8539ZM82.0139 46.7922V43.2082H86.7879V41.9342H82.0139V38.5322H87.4599V37.2582H80.6279V48.0662H85.2059C86.3539 48.0662 87.5719 47.8562 88.2999 47.4922V46.2182C87.5719 46.5682 86.3399 46.7922 85.2059 46.7922H82.0139ZM108.547 36.8242H107.161V42.6762H108.547V36.8242ZM101.602 40.4922L105.354 42.4102L105.971 41.4022L102.176 39.5122C102.331 39.1202 102.429 38.7142 102.47 38.2802H105.579V37.1322H97.8365V38.2802H101.099C100.903 39.9462 99.6425 41.1502 97.6825 41.4022V42.5502C99.3905 42.3682 100.762 41.5982 101.602 40.4922ZM99.7965 47.5342V46.4982H108.547V43.3342H98.3965V44.4262H107.174V45.4622H98.4245V48.6262H108.841V47.5342H99.7965ZM121.929 36.9642H111.709V41.7522H121.929V36.9642ZM120.543 40.6042H113.095V38.1122H120.543V40.6042ZM110.855 42.9562V44.1322H116.119V46.1902H117.519V44.1322H122.797V42.9562H110.855ZM113.095 45.1542H111.695V48.6402H122.195V47.4502H113.095V45.1542ZM130.286 41.1362C133.17 41.1362 135.536 40.5482 135.536 38.9522C135.536 37.3702 133.17 36.7822 130.286 36.7822C127.402 36.7822 125.036 37.3702 125.036 38.9522C125.036 40.5482 127.402 41.1362 130.286 41.1362ZM130.286 40.0722C128.2 40.0722 126.464 39.7502 126.464 38.9522C126.464 38.1682 128.2 37.8322 130.286 37.8322C132.372 37.8322 134.108 38.1682 134.108 38.9522C134.108 39.7502 132.372 40.0722 130.286 40.0722ZM124.322 42.9562H136.264V41.8782H124.322V42.9562ZM125.148 48.6402H135.648V47.6042H126.506V46.7642H135.438V43.9082H125.12V44.9442H134.08V45.7842H125.148V48.6402ZM151.485 36.8242V48.7802H152.871V36.8242H151.485ZM147.061 37.1742L145.647 37.1182C145.633 42.1442 144.317 46.2882 141.923 46.6662V48.0662C143.813 47.9262 145.269 46.3302 146.151 43.6982L149.329 48.0382L150.449 47.2402L146.585 42.0882C146.893 40.6602 147.047 39.0082 147.061 37.1742ZM167.682 39.3582H166.002V36.8242H164.616V43.9642H166.002V40.6742H167.682V39.3582ZM159.296 41.1642L162.74 43.5162L163.482 42.4802L159.814 40.0162C159.982 39.4842 160.094 38.9242 160.108 38.3222H163.132V37.1322H155.502V38.3222H158.722C158.582 40.5062 157.35 42.0602 155.348 42.3542V43.6142C157.084 43.4322 158.47 42.5222 159.296 41.1642ZM155.894 45.8262H164.602V48.7802H166.002V44.6222H155.894V45.8262ZM176.724 37.6922H173.364V36.6142H171.964V37.6922H168.604V38.7282H176.724V37.6922ZM179.468 39.3162V36.8242H178.082V43.0682H179.468V40.5062H181.148V39.3162H179.468ZM172.664 43.0262C174.624 43.0262 176.164 42.3822 176.164 41.1782C176.164 39.9742 174.624 39.3302 172.664 39.3302C170.69 39.3302 169.15 39.9742 169.15 41.1782C169.15 42.3822 170.69 43.0262 172.664 43.0262ZM172.664 40.3102C173.994 40.3102 174.848 40.6602 174.848 41.1782C174.848 41.6962 173.994 42.0462 172.664 42.0462C171.32 42.0462 170.48 41.6962 170.48 41.1782C170.48 40.6602 171.32 40.3102 172.664 40.3102ZM170.844 46.6522H179.468V43.7122H169.458V44.7342H178.11V45.6722H169.486V48.6262H179.762V47.6042H170.844V46.6522ZM192.277 36.8242V48.7802H193.607V36.8242H192.277ZM189.295 41.6402H187.335C187.363 41.2622 187.377 40.8842 187.377 40.4782V37.2582H182.379V38.5182H186.033V40.5482C186.033 44.2442 184.605 46.6662 182.379 46.7362V48.0382C184.745 48.0102 186.551 46.1202 187.153 42.9562H189.295V48.5702H190.611V36.8942H189.295V41.6402ZM196.098 45.3782H197.162L197.526 37.2722H195.748L196.098 45.3782ZM196.63 48.7102C197.218 48.7102 197.666 48.2622 197.666 47.6742C197.666 47.1002 197.218 46.6522 196.63 46.6522C196.042 46.6522 195.594 47.1002 195.594 47.6742C195.594 48.2622 196.042 48.7102 196.63 48.7102Z" fill="black"/>
</svg>
