<svg width="213" height="231" viewBox="0 0 213 231" fill="none" xmlns="http://www.w3.org/2000/svg">
<path d="M109 230C160.362 230 202 188.362 202 137C202 85.6375 160.362 44 109 44C57.6375 44 16 85.6375 16 137C16 188.362 57.6375 230 109 230Z" fill="#EBEBEB"/>
<path d="M133.91 76.9045C135.544 76.9045 136.87 75.5794 136.87 73.9449C136.87 72.3104 135.544 70.9854 133.91 70.9854C132.275 70.9854 130.95 72.3104 130.95 73.9449C130.95 75.5794 132.275 76.9045 133.91 76.9045Z" fill="#FFF58C" stroke="#181919" stroke-miterlimit="10" stroke-linecap="round" stroke-linejoin="round"/>
<path d="M93.7913 76.9045C95.4259 76.9045 96.7509 75.5794 96.7509 73.9449C96.7509 72.3104 95.4259 70.9854 93.7913 70.9854C92.1568 70.9854 90.8318 72.3104 90.8318 73.9449C90.8318 75.5794 92.1568 76.9045 93.7913 76.9045Z" fill="#FFF58C" stroke="#181919" stroke-miterlimit="10" stroke-linecap="round" stroke-linejoin="round"/>
<path d="M115.063 59.1677L116.913 64.8608C117.077 65.3951 117.571 65.7445 118.126 65.7445H124.106C125.34 65.7445 125.853 67.3271 124.867 68.0464L120.016 71.5609C119.564 71.8897 119.379 72.4652 119.544 72.979L121.393 78.672C121.784 79.8435 120.428 80.83 119.42 80.0901L114.57 76.5757C114.118 76.2468 113.522 76.2468 113.07 76.5757L108.219 80.0901C107.212 80.8095 105.876 79.8435 106.246 78.672L108.096 72.979C108.26 72.4446 108.075 71.8692 107.623 71.5609L102.773 68.0464C101.766 67.3271 102.28 65.7445 103.533 65.7445H109.514C110.069 65.7445 110.562 65.3951 110.727 64.8608L112.576 59.1677C113.029 57.9757 114.673 57.9757 115.063 59.1677Z" fill="#FFF58C" stroke="#181919" stroke-miterlimit="10" stroke-linecap="round" stroke-linejoin="round"/>
<path d="M133.91 76.9045C135.544 76.9045 136.87 75.5794 136.87 73.9449C136.87 72.3104 135.544 70.9854 133.91 70.9854C132.275 70.9854 130.95 72.3104 130.95 73.9449C130.95 75.5794 132.275 76.9045 133.91 76.9045Z" fill="#FFF58C" stroke="#181919" stroke-miterlimit="10" stroke-linecap="round" stroke-linejoin="round"/>
<path d="M93.7913 76.9045C95.4259 76.9045 96.7509 75.5794 96.7509 73.9449C96.7509 72.3104 95.4259 70.9854 93.7913 70.9854C92.1568 70.9854 90.8318 72.3104 90.8318 73.9449C90.8318 75.5794 92.1568 76.9045 93.7913 76.9045Z" fill="#FFF58C" stroke="#181919" stroke-miterlimit="10" stroke-linecap="round" stroke-linejoin="round"/>
<path d="M115.063 59.1677L116.913 64.8608C117.077 65.3951 117.571 65.7445 118.126 65.7445H124.106C125.34 65.7445 125.853 67.3271 124.867 68.0464L120.016 71.5609C119.564 71.8897 119.379 72.4652 119.544 72.979L121.393 78.672C121.784 79.8435 120.428 80.83 119.42 80.0901L114.57 76.5757C114.118 76.2468 113.522 76.2468 113.07 76.5757L108.219 80.0901C107.212 80.8095 105.876 79.8435 106.246 78.672L108.096 72.979C108.26 72.4446 108.075 71.8692 107.623 71.5609L102.773 68.0464C101.766 67.3271 102.28 65.7445 103.533 65.7445H109.514C110.069 65.7445 110.562 65.3951 110.727 64.8608L112.576 59.1677C113.029 57.9757 114.673 57.9757 115.063 59.1677Z" fill="#FFF58C" stroke="#181919" stroke-miterlimit="10" stroke-linecap="round" stroke-linejoin="round"/>
<mask id="mask0_625_3335" style="mask-type:luminance" maskUnits="userSpaceOnUse" x="20" y="86" width="73" height="73">
<path d="M90.5029 158.334C90.2357 157.45 89.4753 156.833 88.7559 156.258C87.6872 155.395 86.6185 154.552 85.5498 153.689C84.2961 152.682 83.0424 151.675 81.6448 150.873C76.8561 148.078 71.0602 147.811 65.7988 146.064C64.0929 145.488 62.4282 144.769 61.0307 143.639C58.215 141.398 56.7351 137.884 55.5842 134.472C54.4333 131.061 53.4468 127.484 51.2476 124.628C49.1924 123.189 47.1988 121.709 44.8558 121.134C40.9097 120.168 36.717 121.956 32.7504 121.072C31.6406 120.825 30.5924 120.373 29.6059 119.818C25.0432 117.332 21.4876 112.707 20.9944 107.528C22.8647 99.6153 26.5641 92.2575 31.7022 86.6877C31.2501 91.3943 30.7774 96.1624 31.7022 100.807C32.6271 105.452 35.114 109.994 39.2656 112.234C43.6227 114.598 49.3979 114.331 52.8097 117.907C53.6318 118.77 54.2278 119.777 54.8443 120.805C56.6941 123.908 58.5643 127.032 59.8386 130.403C60.6196 132.479 61.195 134.678 62.346 136.569C63.7847 138.953 66.1276 140.802 68.9022 141.625C70.0737 143.31 72.3756 143.68 74.4103 143.926C77.5137 144.296 80.6788 144.749 83.4739 146.187C85.5908 147.276 87.3789 148.9 89.0436 150.585C90.2151 151.757 92.7636 154.244 92.9075 155.95C93.0308 156.957 91.3661 156.957 90.5029 158.334Z" fill="white"/>
</mask>
<g mask="url(#mask0_625_3335)">
<path d="M21.1789 44.5757L-5.62158 96.2857" stroke="black" stroke-miterlimit="10"/>
<path d="M25.6182 50.7004L-1.18225 102.41" stroke="black" stroke-miterlimit="10"/>
<path d="M30.058 56.8452L3.23694 108.535" stroke="black" stroke-miterlimit="10"/>
<path d="M34.4973 62.97L7.67627 114.68" stroke="black" stroke-miterlimit="10"/>
<path d="M38.9363 69.095L12.1152 120.805" stroke="black" stroke-miterlimit="10"/>
<path d="M43.3761 75.2195L16.5551 126.93" stroke="black" stroke-miterlimit="10"/>
<path d="M47.8154 81.3647L20.9944 133.054" stroke="black" stroke-miterlimit="10"/>
<path d="M52.2548 87.4893L25.4338 139.199" stroke="black" stroke-miterlimit="10"/>
<path d="M56.6937 93.614L29.8727 145.324" stroke="black" stroke-miterlimit="10"/>
<path d="M61.133 99.7385L34.312 151.449" stroke="black" stroke-miterlimit="10"/>
<path d="M65.5522 105.884L38.7518 157.573" stroke="black" stroke-miterlimit="10"/>
<path d="M69.9911 112.009L43.1907 163.719" stroke="black" stroke-miterlimit="10"/>
<path d="M74.4306 118.133L47.6301 169.843" stroke="black" stroke-miterlimit="10"/>
<path d="M78.8699 124.278L52.0695 175.968" stroke="black" stroke-miterlimit="10"/>
<path d="M83.3093 130.403L56.5088 182.113" stroke="black" stroke-miterlimit="10"/>
<path d="M87.7492 136.527L60.9487 188.237" stroke="black" stroke-miterlimit="10"/>
<path d="M92.188 142.652L65.3876 194.362" stroke="black" stroke-miterlimit="10"/>
<path d="M96.6273 148.797L69.8269 200.487" stroke="black" stroke-miterlimit="10"/>
<path d="M101.067 154.922L74.2668 206.632" stroke="black" stroke-miterlimit="10"/>
</g>
<path d="M155.181 137.206C157.689 135.541 159.148 132.684 160.032 129.828C160.936 126.95 161.368 123.95 162.416 121.134C164.841 114.639 170.226 109.727 175.775 105.555C180.173 102.246 185.024 98.9372 187.038 93.8196C187.695 92.1343 188.004 90.3257 188.846 88.7432C185.167 80.8099 179.269 74.7675 173.494 68.91C172.384 67.7796 171.253 66.6492 169.959 65.7244C165.129 67.5946 161.203 71.2941 158.429 75.569C155.654 79.8439 153.907 84.6943 152.242 89.5241C151.79 90.8601 151.317 92.2371 151.359 93.6552C151.4 95.1761 151.996 96.7175 151.564 98.1767C150.557 103.644 150.947 109.357 153.352 114.228C153.969 115.461 154.709 116.674 154.976 118.01C155.181 119.017 155.14 120.065 155.305 121.093C155.49 122.182 155.921 123.23 156.086 124.34C156.538 127.464 154.709 130.485 152.551 132.808C151.852 133.548 151.112 134.267 150.167 134.678C147.824 135.706 145.172 134.472 142.809 133.465C138.678 131.718 134.197 130.588 129.696 130.773C125.195 130.958 120.694 132.541 117.406 135.603C115.474 137.411 114.035 139.672 112.782 142.015C111.343 144.708 110.13 147.544 109.267 150.894C110.089 150.956 110.952 150.462 111.733 150.75C111.959 150.832 112.144 150.976 112.37 151.038C112.658 151.141 112.967 151.099 113.275 151.099C114.652 151.058 116.049 151.408 117.426 152.641C118.618 149.352 120.756 146.434 123.531 144.317C124.414 143.639 125.38 143.043 126.428 142.632C127.949 142.056 129.614 141.912 131.238 141.789C136.047 141.419 140.856 141.152 145.686 140.967C147.433 140.905 149.221 140.844 150.886 140.268C152.571 139.734 153.681 138.192 155.181 137.206Z" fill="white"/>
<mask id="mask1_625_3335" style="mask-type:luminance" maskUnits="userSpaceOnUse" x="109" y="66" width="80" height="87">
<path d="M155.181 137.493C157.689 135.829 159.148 132.972 160.032 130.115C160.936 127.238 161.368 124.237 162.416 121.421C164.841 114.927 170.226 110.015 175.775 105.842C180.173 102.533 185.024 99.2245 187.038 94.107C187.695 92.4217 188.004 90.613 188.846 89.0305C185.167 81.0972 179.269 75.0548 173.494 69.1974C172.384 68.067 171.253 66.9366 169.959 66.0117C165.129 67.882 161.203 71.5814 158.429 75.8564C155.654 80.1313 153.907 84.9817 152.242 89.8115C151.79 91.1474 151.317 92.5244 151.359 93.9425C151.4 95.4634 151.996 97.0049 151.564 98.4641C150.557 103.931 150.947 109.645 153.352 114.516C153.969 115.749 154.709 116.961 154.976 118.297C155.181 119.304 155.14 120.352 155.305 121.38C155.49 122.469 155.921 123.518 156.086 124.627C156.538 127.751 154.709 130.773 152.551 133.095C151.852 133.835 151.112 134.554 150.167 134.965C147.824 135.993 145.172 134.76 142.809 133.753C138.678 132.006 134.197 130.875 129.696 131.06C125.195 131.245 120.694 132.828 117.406 135.89C115.474 137.699 114.035 139.96 112.782 142.303C111.343 144.995 110.13 147.831 109.267 151.181C110.089 151.243 110.952 150.75 111.733 151.037C111.959 151.12 112.144 151.263 112.37 151.325C112.658 151.428 112.967 151.387 113.275 151.387C114.652 151.346 116.049 151.695 117.426 152.928C118.618 149.64 120.756 146.721 123.531 144.604C124.414 143.926 125.38 143.33 126.428 142.919C127.949 142.344 129.614 142.2 131.238 142.076C136.047 141.707 140.856 141.439 145.686 141.254C147.433 141.193 149.221 141.131 150.886 140.556C152.571 140.021 153.681 138.48 155.181 137.493Z" fill="white"/>
</mask>
<g mask="url(#mask1_625_3335)">
<path d="M187.695 43.3423L214.516 95.0523" stroke="black" stroke-miterlimit="10"/>
<path d="M183.236 48.4187L210.036 100.129" stroke="black" stroke-miterlimit="10"/>
<path d="M178.754 53.4954L205.575 105.185" stroke="black" stroke-miterlimit="10"/>
<path d="M174.274 58.5718L201.096 110.261" stroke="black" stroke-miterlimit="10"/>
<path d="M169.814 63.6274L196.615 115.337" stroke="black" stroke-miterlimit="10"/>
<path d="M165.334 68.7043L192.155 120.414" stroke="black" stroke-miterlimit="10"/>
<path d="M160.874 73.7805L187.674 125.491" stroke="black" stroke-miterlimit="10"/>
<path d="M156.394 78.8572L183.194 130.567" stroke="black" stroke-miterlimit="10"/>
<path d="M151.913 83.9333L178.734 135.643" stroke="black" stroke-miterlimit="10"/>
<path d="M147.453 89.01L174.254 140.7" stroke="black" stroke-miterlimit="10"/>
<path d="M142.973 94.0867L169.794 145.776" stroke="black" stroke-miterlimit="10"/>
<path d="M138.493 99.1423L165.314 150.852" stroke="black" stroke-miterlimit="10"/>
<path d="M134.033 104.219L160.833 155.929" stroke="black" stroke-miterlimit="10"/>
<path d="M129.552 109.295L156.373 161.005" stroke="black" stroke-miterlimit="10"/>
<path d="M125.092 114.372L151.893 166.082" stroke="black" stroke-miterlimit="10"/>
<path d="M120.612 119.448L147.412 171.158" stroke="black" stroke-miterlimit="10"/>
<path d="M116.131 124.524L142.952 176.214" stroke="black" stroke-miterlimit="10"/>
<path d="M111.671 129.581L138.472 181.291" stroke="black" stroke-miterlimit="10"/>
<path d="M107.191 134.657L133.992 186.367" stroke="black" stroke-miterlimit="10"/>
<path d="M102.71 139.733L129.531 191.443" stroke="black" stroke-miterlimit="10"/>
<path d="M98.2507 144.81L125.051 196.52" stroke="black" stroke-miterlimit="10"/>
</g>
<path d="M99.7715 152.702C101.231 152.353 102.69 151.983 104.005 151.613C102.875 148.345 101.786 145.016 101.539 141.583C101.292 138.131 102.012 134.513 104.149 131.8C107.232 127.916 112.473 126.683 116.871 124.381C120.756 122.346 124.126 119.325 126.551 115.687C128.237 113.159 129.532 110.138 129.038 107.137C128.751 105.39 127.887 103.787 127.004 102.246C124.763 98.2998 122.05 94.1277 117.632 92.9562C110.5 89.2773 102.012 89.6883 94.0374 90.6132C90.564 91.0242 87.1112 91.497 83.7612 92.4629C75.1702 94.9498 67.7919 100.417 60.6396 105.76C60.1258 106.151 59.5914 106.562 59.3242 107.158C59.0982 107.672 59.1187 108.268 59.1598 108.843C59.5709 113.509 61.7494 117.784 63.9075 121.956C65.1201 124.299 66.3532 126.662 68.2235 128.512C70.2787 130.547 72.9711 131.821 75.684 132.828C78.7463 133.938 81.9115 134.739 85.1176 135.233C86.8235 135.479 88.591 135.664 90.0707 136.548C91.3861 137.35 92.3316 138.624 93.2153 139.877C95.7433 143.454 99.0111 153.052 99.0111 153.052L99.7715 152.702Z" fill="#5A66FF"/>
<path d="M155.325 119.078C154.565 119.181 153.784 119.243 152.982 119.243C143.384 119.243 135.615 111.474 135.615 101.876C135.615 92.2779 143.384 84.509 152.982 84.509C153.331 84.509 153.373 84.5912 153.742 84.6118" stroke="black" stroke-miterlimit="10" stroke-linecap="round" stroke-linejoin="round"/>
<path d="M170.205 66.8544C161.203 70.5744 154.195 78.8365 152.016 88.3318C149.282 100.273 153.825 112.481 156.825 124.36C156.784 127.505 155.715 130.608 153.64 132.725C151.543 134.842 148.46 135.911 145.501 135.582C141.699 135.13 138.492 132.561 134.772 131.677C131.751 130.958 128.566 131.43 125.524 132.109C123.119 132.663 120.714 133.362 118.618 134.678C113.131 138.11 110.87 145.077 110.747 151.551C108.547 150.996 106.718 151.243 105.095 151.962C102.669 150.38 102.156 147.626 101.847 145.139C101.292 141.028 100.84 136.507 103.08 133.033C104.807 130.362 107.787 128.82 110.623 127.402C113.994 125.717 117.364 124.031 120.735 122.367C123.016 121.236 125.359 120.024 126.921 118.01C128.607 115.81 129.1 112.933 129.1 110.159C129.1 106.582 128.319 102.945 126.449 99.9028C124.188 96.2239 120.468 93.5726 116.419 92.0723C112.37 90.572 107.993 90.1404 103.677 90.1404C87.029 90.1815 70.4842 96.9844 58.6254 108.658C56.488 98.012 56.7551 88.5373 57.0634 79.2887C57.2895 71.9925 57.5772 64.5114 59.838 57.8935C84.1311 42.7052 115.72 39.8279 142.603 50.0425C152.674 54.4407 162.21 60.1749 170.205 66.8544Z" fill="#B180E0"/>
<path d="M197.232 109.254C197.273 104.383 193.8 100.273 191.971 95.7514C190.984 93.3057 190.45 90.6133 188.785 88.5786C187.942 93.2646 185.784 98.4027 182.311 101.506C178.837 104.61 174.789 106.994 171.11 109.85C167.431 112.707 163.999 116.16 162.416 120.538C160.998 124.484 161.142 128.944 159.251 132.684C157.483 136.178 154.072 138.624 150.413 139.96C146.735 141.296 142.788 141.666 138.883 141.83C134.732 142.015 130.498 142.036 126.614 143.454C122.709 144.872 119.153 148.037 118.105 152.127C121.537 153.874 124.764 156.032 127.703 158.498C130.704 155.23 134.65 151.038 138.801 149.455C141.042 148.592 145.029 147.708 145.029 147.708C145.029 147.708 150.167 147.03 152.756 146.249C154.894 145.591 156.641 144.605 158.285 143.063C162.683 138.994 162.252 132.417 165.561 127.423C167.246 124.854 169.979 123.107 172.898 122.12C175.816 121.134 178.899 120.846 181.962 120.682C183.462 120.599 184.962 120.558 186.401 120.188C191.642 118.935 197.191 114.475 197.232 109.254Z" fill="#FF88B6"/>
<path d="M57.6598 60.5246C48.0823 65.1901 40.6423 73.3494 34.4149 82.002C33.3462 83.4818 32.298 85.0232 31.8048 86.7907C31.332 88.476 31.4142 90.2641 31.517 92.0316C31.6814 94.9501 31.8664 97.848 32.0925 100.766C32.1952 102.205 32.3391 103.705 32.9557 105C33.5723 106.295 34.6205 107.323 35.6686 108.289C37.7855 110.241 40.0463 112.111 42.6153 113.427C45.1022 114.701 47.8151 115.441 50.302 116.695C52.7888 117.948 55.1524 119.86 55.5634 122.511C59.8589 126.786 59.2012 134.267 63.2295 138.789C65.593 141.46 69.2308 142.632 72.7248 143.31C76.2392 143.988 79.8564 144.297 83.1448 145.694C87.913 147.749 91.5919 152.189 92.7429 157.553C93.2978 156.238 94.4487 155.272 95.6819 154.573C96.915 153.874 98.2715 153.422 99.5252 152.518C96.4217 147.503 95.5996 140.823 90.8726 137.309C86.9265 134.349 81.5212 134.596 76.753 133.322C71.0805 131.801 66.0657 127.875 62.5923 122.758C61.5853 120.62 60.7015 118.421 59.7356 115.996C58.9957 106.973 56.3855 98.1151 56.4266 89.0515C56.4471 85.6809 56.8377 82.3103 57.2282 78.9397C58.0297 72.0957 58.8313 65.2106 60.4344 58.5105C59.4478 59.3326 58.4407 60.1341 57.6598 60.5246Z" fill="#56B381"/>
<path d="M21.4048 106.706C21.2815 113.611 26.8923 120.168 33.7568 121.093C37.2713 121.565 40.8886 120.723 44.3825 121.38C47.3832 121.956 50.1577 123.703 51.9869 126.148C55.7891 131.245 55.4397 138.87 60.0641 143.248C64.3595 147.318 71.0391 146.886 76.7527 148.448C82.384 149.969 87.3783 153.709 90.4406 158.663" stroke="black" stroke-miterlimit="10" stroke-linecap="round" stroke-linejoin="round"/>
<path d="M197.129 106.706C197.252 113.611 191.642 120.168 184.777 121.093C181.263 121.565 177.645 120.723 174.151 121.38C171.151 121.956 168.376 123.703 166.547 126.148C162.745 131.245 163.094 138.87 158.47 143.248C154.174 147.318 147.495 146.886 141.781 148.448C136.15 149.969 131.156 153.709 128.093 158.663" stroke="black" stroke-miterlimit="10" stroke-linecap="round" stroke-linejoin="round"/>
<path d="M110.11 150.113C110.439 144.029 113.768 138.172 118.804 134.76C123.839 131.349 130.498 130.424 136.273 132.356C141.021 133.938 145.81 137.37 150.537 135.767C154.811 134.329 156.826 129.211 156.538 124.731C156.25 120.23 154.257 116.037 152.962 111.721C149.838 101.321 150.845 89.7503 155.695 80.0289C158.614 74.1715 163.341 68.7045 169.712 67.1631" stroke="black" stroke-miterlimit="10" stroke-linecap="round" stroke-linejoin="round"/>
<path d="M187.737 87.2632C189.422 100.622 176.823 104.157 165.54 115.441C160.731 120.435 162.313 127.526 158.819 133.527C150.126 149.578 126.552 134.082 118.105 150.935" stroke="black" stroke-miterlimit="10" stroke-linecap="round" stroke-linejoin="round"/>
<path d="M60.1873 58.2019C56.2823 74.0273 55.7069 90.6543 58.502 106.726C59.5091 112.522 60.9888 118.338 64.0923 123.333C67.1957 128.327 72.0872 132.458 77.8625 133.486C80.0205 133.876 82.2401 133.815 84.3776 134.308C88.2825 135.212 91.5915 137.904 93.9345 141.131C96.2774 144.378 97.7367 148.16 98.9698 151.962" stroke="black" stroke-miterlimit="10" stroke-linecap="round" stroke-linejoin="round"/>
<path d="M32.113 85.8037C31.4553 90.5308 30.777 95.3401 31.4964 100.067C32.2157 104.794 34.5587 109.48 38.6487 111.946C41.6699 113.755 45.3077 114.187 48.555 115.605C53.1587 117.619 56.7965 121.75 58.2352 126.58C58.8929 128.8 59.0984 131.122 59.8383 133.321C61.1947 137.39 64.4215 140.782 68.4087 142.364C71.9437 143.762 75.8692 143.762 79.5481 144.748C85.3645 146.31 90.3998 150.523 92.9689 155.949" stroke="black" stroke-miterlimit="10" stroke-linecap="round" stroke-linejoin="round"/>
<path d="M59.4064 107.631C70.3814 96.5942 85.7341 90.0174 101.313 89.668C108.773 89.5036 116.645 90.9011 122.379 95.6899C128.113 100.458 130.888 109.296 127.086 115.729C121.578 125.018 106.081 125.183 102.053 135.192C99.9564 140.433 101.95 146.311 103.964 151.593" stroke="black" stroke-miterlimit="10" stroke-linecap="round" stroke-linejoin="round"/>
<path d="M130.539 77.2953C132.174 77.2953 133.499 75.9703 133.499 74.3358C133.499 72.7013 132.174 71.3762 130.539 71.3762C128.905 71.3762 127.58 72.7013 127.58 74.3358C127.58 75.9703 128.905 77.2953 130.539 77.2953Z" fill="#FFF58C" stroke="#181919" stroke-miterlimit="10" stroke-linecap="round" stroke-linejoin="round"/>
<path d="M90.4207 77.2953C92.0553 77.2953 93.3803 75.9703 93.3803 74.3358C93.3803 72.7013 92.0553 71.3762 90.4207 71.3762C88.7862 71.3762 87.4612 72.7013 87.4612 74.3358C87.4612 75.9703 88.7862 77.2953 90.4207 77.2953Z" fill="#FFF58C" stroke="#181919" stroke-miterlimit="10" stroke-linecap="round" stroke-linejoin="round"/>
<path d="M111.693 59.5379L113.542 65.231C113.707 65.7653 114.2 66.1147 114.755 66.1147H120.736C121.969 66.1147 122.483 67.6973 121.496 68.4166L116.646 71.9311C116.194 72.2599 116.009 72.8354 116.173 73.3492L118.023 79.0422C118.413 80.2137 117.057 81.2003 116.05 80.4604L111.2 76.9459C110.747 76.617 110.151 76.617 109.699 76.9459L104.849 80.4604C103.842 81.1797 102.506 80.2137 102.876 79.0422L104.725 73.3492C104.89 72.8148 104.705 72.2394 104.253 71.9311L99.464 68.4372C98.4569 67.7178 98.9707 66.1353 100.224 66.1353H106.205C106.76 66.1353 107.253 65.7859 107.418 65.2515L109.268 59.5585C109.638 58.3664 111.302 58.3664 111.693 59.5379Z" fill="#FFF58C" stroke="#181919" stroke-miterlimit="10" stroke-linecap="round" stroke-linejoin="round"/>
<mask id="mask2_625_3335" style="mask-type:luminance" maskUnits="userSpaceOnUse" x="16" y="44" width="187" height="186">
<path d="M109.35 230C160.713 230 202.35 188.362 202.35 137C202.35 85.6375 160.713 44 109.35 44C57.9879 44 16.3503 85.6375 16.3503 137C16.3503 188.362 57.9879 230 109.35 230Z" fill="white"/>
</mask>
<g mask="url(#mask2_625_3335)">
<path d="M156.189 209.077C146.879 202.644 129.081 198.287 108.651 198.287C88.2222 198.287 70.4237 202.644 61.1134 209.077H54.1873V219.354C54.1873 230.986 78.5625 240.42 108.651 240.42C138.74 240.42 163.115 230.986 163.115 219.354V209.077H156.189Z" fill="#5A66FF" stroke="black" stroke-miterlimit="10" stroke-linecap="round" stroke-linejoin="round"/>
<path d="M108.631 230.144C138.711 230.144 163.095 220.712 163.095 209.078C163.095 197.443 138.711 188.011 108.631 188.011C78.5514 188.011 54.167 197.443 54.167 209.078C54.167 220.712 78.5514 230.144 108.631 230.144Z" fill="white" stroke="black" stroke-miterlimit="10" stroke-linecap="round" stroke-linejoin="round"/>
<path d="M156.189 198.801C146.879 192.368 129.081 188.011 108.651 188.011C88.2222 188.011 70.4237 192.368 61.1134 198.801H54.1873V209.078C54.1873 220.71 78.5625 230.144 108.651 230.144C138.74 230.144 163.115 220.71 163.115 209.078V198.801H156.189Z" fill="#5A66FF" stroke="black" stroke-miterlimit="10" stroke-linecap="round" stroke-linejoin="round"/>
<path d="M108.631 219.868C138.711 219.868 163.095 210.436 163.095 198.801C163.095 187.167 138.711 177.735 108.631 177.735C78.5514 177.735 54.167 187.167 54.167 198.801C54.167 210.436 78.5514 219.868 108.631 219.868Z" fill="white" stroke="black" stroke-miterlimit="10" stroke-linecap="round" stroke-linejoin="round"/>
<path d="M156.189 188.525C146.879 182.092 129.081 177.735 108.651 177.735C88.2222 177.735 70.4237 182.092 61.1134 188.525H54.1873V198.801C54.1873 210.434 78.5625 219.867 108.651 219.867C138.74 219.867 163.115 210.434 163.115 198.801V188.525H156.189Z" fill="#5A66FF" stroke="black" stroke-miterlimit="10" stroke-linecap="round" stroke-linejoin="round"/>
<path d="M108.631 209.591C138.711 209.591 163.095 200.16 163.095 188.525C163.095 176.89 138.711 167.459 108.631 167.459C78.5514 167.459 54.167 176.89 54.167 188.525C54.167 200.16 78.5514 209.591 108.631 209.591Z" fill="white" stroke="black" stroke-miterlimit="10" stroke-linecap="round" stroke-linejoin="round"/>
</g>
<path d="M109.35 230C160.713 230 202.35 188.362 202.35 137C202.35 85.6375 160.713 44 109.35 44C57.9879 44 16.3503 85.6375 16.3503 137C16.3503 188.362 57.9879 230 109.35 230Z" stroke="#181919" stroke-miterlimit="10"/>
<path fill-rule="evenodd" clip-rule="evenodd" d="M145.953 149.085C144.597 142.899 141.966 139.014 139.808 132.951C137.876 127.525 135.06 125.676 131.011 122.305C128.771 120.435 128.072 117.29 125.647 115.564C122.462 113.303 117.878 112.995 114.199 111.946C110.048 110.796 105.67 110.035 101.354 109.788C97.2231 109.562 91.1807 110.59 87.8718 113.426C85.241 115.646 82.3842 118.071 80.5756 121.051C79.6713 122.531 79.7124 124.36 78.9931 125.902C78.2737 127.464 76.1773 127.813 75.6224 129.272C75.0264 130.855 75.1703 132.622 74.3482 134.143C73.1356 136.383 70.9159 137.884 70.1144 140.412C69.3334 142.857 69.8883 145.447 70.0939 147.954C70.2788 150.297 70.7926 153.175 71.4914 155.497C72.1902 157.779 73.5055 159.71 74.677 161.745C75.3142 162.834 75.5402 164.335 76.3007 165.321C77.0406 166.287 78.3148 166.657 79.1369 167.603C80.7606 169.452 81.9526 171.878 83.4735 173.851C87.2551 178.742 92.0439 184.271 97.7575 186.696C99.6278 187.497 101.539 188.772 103.368 189.717C104.725 190.416 108.938 190.847 112.72 191.094C116.029 191.731 119.07 191.998 122.585 190.642C126.099 189.285 128.915 185.977 131.155 183.099C133.457 180.14 136.314 176.933 137.814 173.44C138.78 171.158 142.212 166.308 142.87 165.362C143.816 163.985 144.35 160.286 144.843 158.724C145.049 158.087 146.323 155.312 146.549 154.675C147.31 152.579 146.446 151.366 145.953 149.085Z" fill="#DF485D" stroke="black" stroke-miterlimit="10"/>
<path d="M101.519 144.358C101.765 144.461 102.032 144.502 102.259 144.502C103.574 144.502 104.416 143.084 104.663 141.666C104.91 140.33 104.91 139.014 104.643 137.822C104.54 137.308 104.273 136.548 103.841 135.993C103.327 135.274 102.793 135.13 102.443 135.13C102.3 135.13 102.156 135.15 102.012 135.212C100.183 135.849 100.039 138.233 99.9361 139.508L99.9155 139.734C99.8127 141.296 99.6483 143.639 101.519 144.358Z" fill="#070707"/>
<path d="M111.857 144.933C112.042 144.974 112.227 144.974 112.371 144.974C112.946 144.974 113.378 144.748 113.85 144.173C114.796 143.042 115.659 140.802 115.433 139.158C115.31 138.315 115.042 137.473 114.693 136.897C114.282 136.219 113.789 136.096 113.46 136.096C112.35 136.096 111.446 137.514 111.178 137.966C110.767 138.665 110.541 139.98 110.459 140.884C110.418 140.946 110.151 144.604 111.857 144.933Z" fill="#070707"/>
<path d="M93.0307 141.912C93.7295 147.05 95.3532 152.27 98.9293 156.011C102.505 159.751 108.445 161.581 113.069 159.279C114.549 158.539 115.823 157.45 116.933 156.237C120.119 152.743 122.113 148.18 122.482 143.453" stroke="black" stroke-miterlimit="10" stroke-linecap="round" stroke-linejoin="round"/>
<path d="M143.397 127.942C143.122 126.342 144.13 124.897 144.918 123.498C146.421 120.87 147.224 117.916 148.013 114.996C148.679 112.509 149.327 109.71 147.881 107.395C147.349 106.534 146.591 105.838 146 105.012C145.408 104.186 145.022 103.145 145.401 102.277C145.565 101.902 145.859 101.585 146.108 101.268C149.106 97.5491 148.493 92.2123 147.854 87.3914C147.746 86.5738 147.78 85.5341 148.591 85.3003C148.87 85.2194 149.16 85.2651 149.431 85.3026C151.781 85.7008 154.413 86.5672 156.347 85.3846C156.805 85.0978 157.225 84.6934 157.797 84.7003C158.281 84.7088 158.727 85.0051 159.102 85.3111C162.564 87.9794 166.107 91.3726 170.424 91.3733C171.48 91.5914 172.157 91.2586 172.116 90.6933C172.105 90.4654 171.952 90.2569 171.818 90.0565C171.287 89.297 170.755 88.5375 170.224 87.7781C169.019 86.0757 167.804 84.3483 166.261 82.863C164.446 81.1376 162.167 79.7159 161.074 77.5554C161.283 74.7471 159.29 71.9097 156.729 70.1212C154.167 68.3328 151.126 67.389 148.133 66.4867C146.526 66.0079 144.82 65.5054 143.228 65.8035C140.767 66.2689 139.205 68.425 136.929 69.3771C134.523 70.3737 131.466 69.9709 129.339 71.3934C128.216 72.1396 127.506 73.3093 126.695 74.3541C124.981 76.5044 122.668 78.1499 120.388 79.7694C118.945 80.2339 117.086 81.7531 116.022 83.4782C114.958 85.2032 114.456 87.2141 113.374 88.931C112.064 91.0151 110.008 92.5293 107.944 93.9593C106.892 94.6957 105.795 95.4329 105.147 96.5086C104.876 96.978 104.671 97.4969 104.381 97.9581C103.347 99.5137 101.183 100.008 99.8332 101.324C98.4683 102.674 98.1333 104.859 98.1107 106.735C93.3034 103.803 87.6443 102.162 82.078 102.081C81.4607 102.075 80.7765 102.121 80.4121 102.55C79.9844 103.073 80.2408 103.854 80.5717 104.465C81.5084 106.172 82.9992 107.573 84.5273 108.89C88.7991 112.541 93.532 115.643 98.4212 118.489C116.658 129.094 137.056 136.019 157.815 139.028C158.276 139.087 158.781 139.146 159.124 138.87C159.823 138.283 158.938 137.167 158.131 136.631C153.235 133.296 148.048 130.32 143.397 127.942Z" fill="#5A66FF"/>
<path d="M143.397 127.942C143.122 126.342 144.13 124.897 144.918 123.498C146.421 120.87 147.224 117.916 148.013 114.996C148.679 112.509 149.327 109.71 147.881 107.395C147.349 106.534 146.591 105.838 146 105.012C145.408 104.186 145.022 103.145 145.401 102.277C145.565 101.902 145.859 101.585 146.108 101.268C149.106 97.5491 148.493 92.2123 147.854 87.3914C147.746 86.5738 147.78 85.5341 148.591 85.3003C148.87 85.2194 149.16 85.2651 149.431 85.3026C151.781 85.7008 154.413 86.5672 156.347 85.3846C156.805 85.0978 157.225 84.6934 157.797 84.7003C158.281 84.7088 158.727 85.0051 159.102 85.3111C162.564 87.9794 166.107 91.3726 170.424 91.3733C171.48 91.5914 172.157 91.2586 172.116 90.6933C172.105 90.4654 171.952 90.2569 171.818 90.0565C171.287 89.297 170.755 88.5375 170.224 87.7781C169.019 86.0757 167.804 84.3483 166.261 82.863C164.446 81.1376 162.167 79.7159 161.074 77.5554C161.283 74.7471 159.29 71.9097 156.729 70.1212C154.167 68.3328 151.126 67.389 148.133 66.4867C146.526 66.0079 144.82 65.5054 143.228 65.8035C140.767 66.2689 139.205 68.425 136.929 69.3771C134.523 70.3737 131.466 69.9709 129.339 71.3934C128.216 72.1396 127.506 73.3093 126.695 74.3541C124.981 76.5044 122.668 78.1499 120.388 79.7694C118.945 80.2339 117.086 81.7531 116.022 83.4782C114.958 85.2032 114.456 87.2141 113.374 88.931C112.064 91.0151 110.008 92.5293 107.944 93.9593C106.892 94.6957 105.795 95.4329 105.147 96.5086C104.876 96.978 104.671 97.4969 104.381 97.9581C103.347 99.5137 101.183 100.008 99.8332 101.324C98.4683 102.674 98.1333 104.859 98.1107 106.735C93.3034 103.803 87.6443 102.162 82.078 102.081C81.4607 102.075 80.7765 102.121 80.4121 102.55C79.9844 103.073 80.2408 103.854 80.5717 104.465C81.5084 106.172 82.9992 107.573 84.5273 108.89C88.7991 112.541 93.532 115.643 98.4212 118.489C116.658 129.094 137.056 136.019 157.815 139.028C158.276 139.087 158.781 139.146 159.124 138.87C159.823 138.283 158.938 137.167 158.131 136.631C153.235 133.296 148.048 130.32 143.397 127.942Z" fill="#A37D65" stroke="#120000" stroke-miterlimit="10" stroke-linecap="round" stroke-linejoin="round"/>
<path d="M148.468 85.2266C146.553 82.7679 144.572 80.2597 141.832 78.9812C141.43 78.7855 140.988 78.6327 140.515 78.6494C140.062 78.6742 139.549 78.9366 139.303 79.3971C139.058 79.8575 139.117 80.4309 139.359 80.8407C139.6 81.2504 139.998 81.5053 140.433 81.6751" stroke="#120000" stroke-miterlimit="10" stroke-linecap="round" stroke-linejoin="round"/>
<path d="M119.186 85.3068C121.825 88.3864 124.439 91.4749 127.079 94.5545C128.194 95.8529 129.387 97.2259 131.019 97.7972C132.072 98.1759 133.224 98.1727 134.306 98.0778C137.854 97.7624 141.227 96.3772 143.804 94.178C144.321 93.7551 144.823 93.2648 145.473 93.0422C146.124 92.8197 146.994 92.9566 147.411 93.5237C147.425 93.7938 147.429 94.0387 147.444 94.3088" stroke="#120000" stroke-miterlimit="10" stroke-linecap="round" stroke-linejoin="round"/>
<path d="M121.83 83.3598C124.812 87.0755 127.804 90.8163 130.786 94.5319C131.087 94.9068 131.407 95.2898 131.864 95.5099C132.236 95.6724 132.649 95.6905 133.05 95.6835C136.222 95.6704 139.312 94.6281 141.688 92.7872C143.22 91.6116 144.559 90.0676 146.526 89.67" stroke="#120000" stroke-miterlimit="10" stroke-linecap="round" stroke-linejoin="round"/>
<path d="M142.312 96.3243C143.275 96.299 144.272 96.3492 145.239 96.4675C146.358 98.2135 146.353 100.503 145.227 102.119C144.066 103.761 141.913 104.686 141.128 106.533" stroke="#120000" stroke-miterlimit="10" stroke-linecap="round" stroke-linejoin="round"/>
<path d="M120.877 87.668C120.126 87.36 119.305 87.0618 118.565 87.2859C118.234 87.3846 117.955 87.5669 117.694 87.7573C116.508 88.5975 115.433 89.5877 114.522 90.7103" stroke="#120000" stroke-miterlimit="10" stroke-linecap="round" stroke-linejoin="round"/>
<path d="M107.464 97.7438C113.405 98.13 119.366 98.5244 125.308 98.9106C126.62 98.9975 127.951 99.0926 129.152 99.6376C131.573 100.736 132.774 103.308 134.35 105.376C137.067 108.936 141.455 111.36 145.961 111.788" stroke="#120000" stroke-miterlimit="10" stroke-linecap="round" stroke-linejoin="round"/>
<path d="M108.185 96.1937C112.882 96.0357 117.6 96.1307 122.304 96.4625C125.873 96.7043 129.755 97.2448 132.439 99.614C134.562 101.495 135.592 104.256 137.748 106.111C139.748 107.816 142.626 108.526 145.11 107.908" stroke="#120000" stroke-miterlimit="10" stroke-linecap="round" stroke-linejoin="round"/>
<path d="M145.521 119.686C144.435 119.941 143.323 120.104 142.193 120.158C141.669 120.192 141.122 120.176 140.624 119.999C139.59 119.629 138.981 118.592 138.114 117.889C136.702 116.765 134.779 116.654 132.983 116.458C126.908 115.77 120.97 113.297 116.189 109.444C114.486 108.071 112.854 106.486 110.794 105.728C108.106 104.736 105.179 105.302 102.342 105.157C102.357 104.616 102.38 104.058 102.402 103.703C104.031 102.813 106.094 103.107 107.965 103.437C109.761 103.735 111.549 104.05 113.271 104.62C118.093 106.2 122.064 109.679 126.67 111.854C131.686 114.208 137.516 115.052 145.521 119.686Z" stroke="#120000" stroke-miterlimit="10" stroke-linecap="round" stroke-linejoin="round"/>
<path d="M102.182 107.602C103.61 107.273 105.083 106.943 106.566 107.145C108.013 107.331 109.384 107.991 110.544 108.883C111.712 109.759 112.701 110.839 113.612 111.947" stroke="#120000" stroke-miterlimit="10" stroke-linecap="round" stroke-linejoin="round"/>
<path d="M127.833 120.898C131.852 120.871 135.894 121.298 139.858 122.158L127.833 120.898Z" fill="#5A66FF"/>
<path d="M127.833 120.898C131.852 120.871 135.894 121.298 139.858 122.158" stroke="#120000" stroke-miterlimit="10" stroke-linecap="round" stroke-linejoin="round"/>
<path d="M63.5325 26.3719C63.5399 26.7351 63.4476 27.0492 63.3146 27.0492C57.9859 27.059 52.6535 27.0492 47.3248 27.0492C38.8942 27.0492 30.4635 27.0492 22.0292 27.0492C19.5419 27.0492 8.84882 27.0492 3.76877 27.0492C2.23176 27.0492 1.01358 25.8922 1.00451 24.3552C0.964533 17.5737 1.20708 1 1.06883 1C5.5999 1 39.4518 1 42.5242 1C48.6744 1 54.8245 1 60.9747 1C62.49 1 63.6612 2.12944 63.6593 3.64474C63.652 9.53732 63.4823 23.3315 63.5325 26.3719Z" fill="white" stroke="black" stroke-miterlimit="10" stroke-linecap="round" stroke-linejoin="round"/>
<path d="M29.3611 16.6003H30.8171V8.31233H20.4011V9.61433H29.3611V16.6003ZM19.6731 19.2743H31.6151V17.9723H19.6731V19.2743ZM43.0099 7.89233V10.1323H40.9379V11.3923H43.0099V14.8923H44.3959V7.89233H43.0099ZM33.6299 10.7623V14.4723H37.7599C39.4539 14.4723 40.8819 14.2623 41.6099 13.9403V12.8063C40.8399 13.1423 39.4679 13.3383 37.8439 13.3383H35.0019V11.8683H40.1539V8.18633H33.6019V9.32033H38.7819V10.7623H33.6299ZM34.2179 19.6943H44.3539V15.5503H34.2179V19.6943ZM35.5899 16.6843H42.9819V18.5603H35.5899V16.6843Z" fill="black"/>
<path d="M211.606 57.605C211.628 58.0411 211.352 58.4182 210.956 58.4182C195.058 58.43 179.15 58.4182 163.253 58.4182C138.101 58.4182 112.95 58.4182 87.7873 58.4182C79.2046 58.4182 37.87 58.4182 27.5792 58.4182C26.2107 58.4182 25.1191 57.4818 25.0826 56.1138C24.8839 48.6875 25.6848 27.1416 25.2556 27.1416C38.7733 27.1416 139.765 27.1416 148.931 27.1416C169.178 27.1416 189.425 27.1416 209.672 27.1416C210.991 27.1416 211.977 28.0332 211.983 29.3524C212.013 35.7464 211.448 53.7765 211.606 57.605Z" fill="white" stroke="black" stroke-miterlimit="10" stroke-linecap="round" stroke-linejoin="round"/>
<path d="M49.3695 36.8242V48.7802H50.7555V36.8242H49.3695ZM44.7075 38.5322H47.7735V37.2582H40.1435V38.5322H43.3075C43.2515 42.9702 41.9915 46.3022 39.8635 46.6942V48.0662C41.6695 47.8562 43.0975 46.3722 43.9235 43.8662L47.1435 47.9682L48.2355 47.1422L44.3295 42.3122C44.5535 41.1922 44.6935 39.9182 44.7075 38.5322ZM62.7243 40.9822H64.1243V36.9642H53.8623V38.1402H62.7243V40.9822ZM53.0643 42.8582H65.0063V41.6962H53.0643V42.8582ZM53.8903 48.6402H64.1663V44.0762H53.8903V48.6402ZM55.2763 47.5062V45.2102H62.7943V47.5062H55.2763ZM77.6331 37.0342H76.2611V38.7142H68.7291V37.0342H67.3571V43.1662H77.6331V37.0342ZM68.7291 41.9342V39.9462H76.2611V41.9342H68.7291ZM78.4731 44.4402H66.5311V45.7282H71.7811V49.0602H73.2091V45.7282H78.4731V44.4402ZM89.8539 36.8242V41.6962H87.6419V42.9982H89.8539V48.7802H91.2539V36.8242H89.8539ZM82.0139 46.7922V43.2082H86.7879V41.9342H82.0139V38.5322H87.4599V37.2582H80.6279V48.0662H85.2059C86.3539 48.0662 87.5719 47.8562 88.2999 47.4922V46.2182C87.5719 46.5682 86.3399 46.7922 85.2059 46.7922H82.0139ZM108.547 36.8242H107.161V42.6762H108.547V36.8242ZM101.602 40.4922L105.354 42.4102L105.971 41.4022L102.176 39.5122C102.331 39.1202 102.429 38.7142 102.47 38.2802H105.579V37.1322H97.8365V38.2802H101.099C100.903 39.9462 99.6425 41.1502 97.6825 41.4022V42.5502C99.3905 42.3682 100.762 41.5982 101.602 40.4922ZM99.7965 47.5342V46.4982H108.547V43.3342H98.3965V44.4262H107.174V45.4622H98.4245V48.6262H108.841V47.5342H99.7965ZM121.929 36.9642H111.709V41.7522H121.929V36.9642ZM120.543 40.6042H113.095V38.1122H120.543V40.6042ZM110.855 42.9562V44.1322H116.119V46.1902H117.519V44.1322H122.797V42.9562H110.855ZM113.095 45.1542H111.695V48.6402H122.195V47.4502H113.095V45.1542ZM130.286 41.1362C133.17 41.1362 135.536 40.5482 135.536 38.9522C135.536 37.3702 133.17 36.7822 130.286 36.7822C127.402 36.7822 125.036 37.3702 125.036 38.9522C125.036 40.5482 127.402 41.1362 130.286 41.1362ZM130.286 40.0722C128.2 40.0722 126.464 39.7502 126.464 38.9522C126.464 38.1682 128.2 37.8322 130.286 37.8322C132.372 37.8322 134.108 38.1682 134.108 38.9522C134.108 39.7502 132.372 40.0722 130.286 40.0722ZM124.322 42.9562H136.264V41.8782H124.322V42.9562ZM125.148 48.6402H135.648V47.6042H126.506V46.7642H135.438V43.9082H125.12V44.9442H134.08V45.7842H125.148V48.6402ZM151.485 36.8242V48.7802H152.871V36.8242H151.485ZM147.061 37.1742L145.647 37.1182C145.633 42.1442 144.317 46.2882 141.923 46.6662V48.0662C143.813 47.9262 145.269 46.3302 146.151 43.6982L149.329 48.0382L150.449 47.2402L146.585 42.0882C146.893 40.6602 147.047 39.0082 147.061 37.1742ZM167.682 39.3582H166.002V36.8242H164.616V43.9642H166.002V40.6742H167.682V39.3582ZM159.296 41.1642L162.74 43.5162L163.482 42.4802L159.814 40.0162C159.982 39.4842 160.094 38.9242 160.108 38.3222H163.132V37.1322H155.502V38.3222H158.722C158.582 40.5062 157.35 42.0602 155.348 42.3542V43.6142C157.084 43.4322 158.47 42.5222 159.296 41.1642ZM155.894 45.8262H164.602V48.7802H166.002V44.6222H155.894V45.8262ZM176.724 37.6922H173.364V36.6142H171.964V37.6922H168.604V38.7282H176.724V37.6922ZM179.468 39.3162V36.8242H178.082V43.0682H179.468V40.5062H181.148V39.3162H179.468ZM172.664 43.0262C174.624 43.0262 176.164 42.3822 176.164 41.1782C176.164 39.9742 174.624 39.3302 172.664 39.3302C170.69 39.3302 169.15 39.9742 169.15 41.1782C169.15 42.3822 170.69 43.0262 172.664 43.0262ZM172.664 40.3102C173.994 40.3102 174.848 40.6602 174.848 41.1782C174.848 41.6962 173.994 42.0462 172.664 42.0462C171.32 42.0462 170.48 41.6962 170.48 41.1782C170.48 40.6602 171.32 40.3102 172.664 40.3102ZM170.844 46.6522H179.468V43.7122H169.458V44.7342H178.11V45.6722H169.486V48.6262H179.762V47.6042H170.844V46.6522ZM192.277 36.8242V48.7802H193.607V36.8242H192.277ZM189.295 41.6402H187.335C187.363 41.2622 187.377 40.8842 187.377 40.4782V37.2582H182.379V38.5182H186.033V40.5482C186.033 44.2442 184.605 46.6662 182.379 46.7362V48.0382C184.745 48.0102 186.551 46.1202 187.153 42.9562H189.295V48.5702H190.611V36.8942H189.295V41.6402ZM196.098 45.3782H197.162L197.526 37.2722H195.748L196.098 45.3782ZM196.63 48.7102C197.218 48.7102 197.666 48.2622 197.666 47.6742C197.666 47.1002 197.218 46.6522 196.63 46.6522C196.042 46.6522 195.594 47.1002 195.594 47.6742C195.594 48.2622 196.042 48.7102 196.63 48.7102Z" fill="black"/>
</svg>
