<svg width="213" height="231" viewBox="0 0 213 231" fill="none" xmlns="http://www.w3.org/2000/svg">
<path d="M108.313 230C159.296 230 200.626 188.362 200.626 137C200.626 85.6375 159.296 44 108.313 44C57.3299 44 16 85.6375 16 137C16 188.362 57.3299 230 108.313 230Z" fill="#EBEBEB"/>
<path d="M133.038 76.905C134.661 76.905 135.976 75.5799 135.976 73.9454C135.976 72.3109 134.661 70.9858 133.038 70.9858C131.416 70.9858 130.101 72.3109 130.101 73.9454C130.101 75.5799 131.416 76.905 133.038 76.905Z" fill="#FFF58C" stroke="#181919" stroke-miterlimit="10" stroke-linecap="round" stroke-linejoin="round"/>
<path d="M93.2165 76.905C94.8389 76.905 96.1542 75.5799 96.1542 73.9454C96.1542 72.3109 94.8389 70.9858 93.2165 70.9858C91.5941 70.9858 90.2788 72.3109 90.2788 73.9454C90.2788 75.5799 91.5941 76.905 93.2165 76.905Z" fill="#FFF58C" stroke="#181919" stroke-miterlimit="10" stroke-linecap="round" stroke-linejoin="round"/>
<path d="M114.331 59.168L116.167 64.861C116.331 65.3954 116.82 65.7448 117.371 65.7448H123.308C124.532 65.7448 125.042 67.3273 124.062 68.0466L119.248 71.5611C118.799 71.8899 118.615 72.4654 118.779 72.9792L120.615 78.6723C121.002 79.8438 119.656 80.8303 118.656 80.0904L113.842 76.5759C113.393 76.2471 112.801 76.2471 112.352 76.5759L107.538 80.0904C106.538 80.8097 105.212 79.8438 105.579 78.6723L107.416 72.9792C107.579 72.4449 107.395 71.8694 106.946 71.5611L102.132 68.0466C101.132 67.3273 101.642 65.7448 102.887 65.7448H108.823C109.374 65.7448 109.864 65.3954 110.027 64.861L111.863 59.168C112.291 57.9759 113.944 57.9759 114.331 59.168Z" fill="#FFF58C" stroke="#181919" stroke-miterlimit="10" stroke-linecap="round" stroke-linejoin="round"/>
<path d="M133.038 76.905C134.661 76.905 135.976 75.5799 135.976 73.9454C135.976 72.3109 134.661 70.9858 133.038 70.9858C131.416 70.9858 130.101 72.3109 130.101 73.9454C130.101 75.5799 131.416 76.905 133.038 76.905Z" fill="#FFF58C" stroke="#181919" stroke-miterlimit="10" stroke-linecap="round" stroke-linejoin="round"/>
<path d="M93.2165 76.905C94.8389 76.905 96.1542 75.5799 96.1542 73.9454C96.1542 72.3109 94.8389 70.9858 93.2165 70.9858C91.5941 70.9858 90.2788 72.3109 90.2788 73.9454C90.2788 75.5799 91.5941 76.905 93.2165 76.905Z" fill="#FFF58C" stroke="#181919" stroke-miterlimit="10" stroke-linecap="round" stroke-linejoin="round"/>
<path d="M114.331 59.168L116.167 64.861C116.331 65.3954 116.82 65.7448 117.371 65.7448H123.308C124.532 65.7448 125.042 67.3273 124.062 68.0466L119.248 71.5611C118.799 71.8899 118.615 72.4654 118.779 72.9792L120.615 78.6723C121.002 79.8438 119.656 80.8303 118.656 80.0904L113.842 76.5759C113.393 76.2471 112.801 76.2471 112.352 76.5759L107.538 80.0904C106.538 80.8097 105.212 79.8438 105.579 78.6723L107.416 72.9792C107.579 72.4449 107.395 71.8694 106.946 71.5611L102.132 68.0466C101.132 67.3273 101.642 65.7448 102.887 65.7448H108.823C109.374 65.7448 109.864 65.3954 110.027 64.861L111.863 59.168C112.291 57.9759 113.944 57.9759 114.331 59.168Z" fill="#FFF58C" stroke="#181919" stroke-miterlimit="10" stroke-linecap="round" stroke-linejoin="round"/>
<mask id="mask0_625_3139" style="mask-type:luminance" maskUnits="userSpaceOnUse" x="20" y="86" width="73" height="73">
<path d="M89.952 158.333C89.6868 157.45 88.932 156.833 88.218 156.258C87.1571 155.394 86.0962 154.552 85.0354 153.689C83.7909 152.682 82.5466 151.674 81.1593 150.873C76.406 148.078 70.6529 147.811 65.4304 146.064C63.7371 145.488 62.0847 144.769 60.6974 143.638C57.9025 141.398 56.4338 137.884 55.2913 134.472C54.1489 131.06 53.1697 127.484 50.9868 124.627C48.9468 123.189 46.9678 121.709 44.6421 121.133C40.7252 120.167 36.5636 121.956 32.6263 121.072C31.5246 120.825 30.4841 120.373 29.5049 119.818C24.976 117.331 21.4466 112.707 20.957 107.528C22.8135 99.615 26.4856 92.2572 31.5858 86.6875C31.137 91.394 30.6678 96.1622 31.5858 100.807C32.5038 105.452 34.9723 109.994 39.0932 112.234C43.4182 114.598 49.1507 114.331 52.5372 117.907C53.3532 118.77 53.9449 119.777 54.5569 120.805C56.393 123.908 58.2494 127.032 59.5143 130.403C60.2895 132.478 60.8607 134.678 62.0031 136.568C63.4311 138.952 65.7568 140.802 68.5109 141.624C69.6737 143.31 71.9586 143.68 73.9783 143.926C77.0587 144.296 80.2005 144.748 82.975 146.187C85.0763 147.276 86.851 148.9 88.5035 150.585C89.6663 151.757 92.196 154.244 92.3388 155.949C92.4612 156.956 90.8088 156.956 89.952 158.333Z" fill="white"/>
</mask>
<g mask="url(#mask0_625_3139)">
<path d="M21.1411 44.5754L-5.48181 96.2855" stroke="black" stroke-miterlimit="10"/>
<path d="M25.547 50.7L-1.07581 102.41" stroke="black" stroke-miterlimit="10"/>
<path d="M29.954 56.8452L3.33118 108.535" stroke="black" stroke-miterlimit="10"/>
<path d="M34.3606 62.9697L7.73779 114.68" stroke="black" stroke-miterlimit="10"/>
<path d="M38.7666 69.0947L12.1438 120.805" stroke="black" stroke-miterlimit="10"/>
<path d="M43.1736 75.2192L16.5508 126.929" stroke="black" stroke-miterlimit="10"/>
<path d="M47.5797 81.3645L20.9569 133.054" stroke="black" stroke-miterlimit="10"/>
<path d="M51.9863 87.489L25.3634 139.199" stroke="black" stroke-miterlimit="10"/>
<path d="M56.3729 93.6135L29.7705 145.324" stroke="black" stroke-miterlimit="10"/>
<path d="M60.779 99.7383L34.1765 151.448" stroke="black" stroke-miterlimit="10"/>
<path d="M65.1859 105.883L38.5835 157.573" stroke="black" stroke-miterlimit="10"/>
<path d="M69.5926 112.008L42.9901 163.718" stroke="black" stroke-miterlimit="10"/>
<path d="M73.999 118.133L47.3966 169.843" stroke="black" stroke-miterlimit="10"/>
<path d="M78.4055 124.278L51.8031 175.968" stroke="black" stroke-miterlimit="10"/>
<path d="M82.8121 130.403L56.2097 182.113" stroke="black" stroke-miterlimit="10"/>
<path d="M87.2186 136.527L60.6162 188.237" stroke="black" stroke-miterlimit="10"/>
<path d="M91.6253 142.652L65.0228 194.362" stroke="black" stroke-miterlimit="10"/>
<path d="M96.0312 148.797L69.4288 200.486" stroke="black" stroke-miterlimit="10"/>
<path d="M100.438 154.922L73.8148 206.632" stroke="black" stroke-miterlimit="10"/>
</g>
<path d="M154.153 137.206C156.642 135.541 158.09 132.684 158.968 129.827C159.865 126.95 160.294 123.949 161.334 121.134C163.741 114.639 169.086 109.727 174.594 105.555C178.96 102.246 183.775 98.9369 185.774 93.8194C186.427 92.1341 186.733 90.3254 187.569 88.7429C183.917 80.8096 178.063 74.7672 172.33 68.9098C171.228 67.7794 170.106 66.649 168.821 65.7241C164.027 67.5944 160.13 71.2938 157.376 75.5688C154.622 79.8437 152.888 84.6941 151.236 89.5239C150.787 90.8598 150.318 92.2368 150.358 93.6549C150.399 95.1758 150.991 96.7173 150.563 98.1765C149.563 103.643 149.951 109.357 152.337 114.228C152.949 115.461 153.684 116.674 153.949 118.01C154.153 119.017 154.112 120.065 154.275 121.093C154.459 122.182 154.887 123.23 155.051 124.34C155.499 127.464 153.684 130.485 151.542 132.807C150.848 133.547 150.114 134.267 149.175 134.678C146.85 135.705 144.218 134.472 141.872 133.465C137.771 131.718 133.324 130.588 128.856 130.773C124.388 130.958 119.921 132.54 116.657 135.603C114.739 137.411 113.311 139.672 112.066 142.015C110.638 144.707 109.435 147.544 108.578 150.894C109.394 150.955 110.251 150.462 111.026 150.75C111.251 150.832 111.434 150.976 111.659 151.037C111.944 151.14 112.25 151.099 112.556 151.099C113.923 151.058 115.31 151.407 116.677 152.641C117.86 149.352 119.982 146.434 122.736 144.317C123.613 143.639 124.572 143.043 125.612 142.632C127.122 142.056 128.775 141.912 130.386 141.789C135.16 141.419 139.934 141.152 144.728 140.967C146.462 140.905 148.237 140.843 149.889 140.268C151.562 139.734 152.664 138.192 154.153 137.206Z" fill="white"/>
<mask id="mask1_625_3139" style="mask-type:luminance" maskUnits="userSpaceOnUse" x="108" y="66" width="80" height="87">
<path d="M154.153 137.493C156.642 135.829 158.09 132.972 158.968 130.115C159.865 127.238 160.294 124.237 161.334 121.421C163.741 114.927 169.086 110.015 174.594 105.842C178.96 102.533 183.775 99.2245 185.774 94.107C186.427 92.4217 186.733 90.613 187.569 89.0305C183.917 81.0972 178.063 75.0548 172.33 69.1974C171.228 68.067 170.106 66.9366 168.821 66.0117C164.027 67.882 160.13 71.5814 157.376 75.8564C154.622 80.1313 152.888 84.9817 151.236 89.8115C150.787 91.1474 150.318 92.5244 150.358 93.9425C150.399 95.4634 150.991 97.0049 150.563 98.4641C149.563 103.931 149.951 109.645 152.337 114.516C152.949 115.749 153.684 116.961 153.949 118.297C154.153 119.304 154.112 120.352 154.275 121.38C154.459 122.469 154.887 123.518 155.051 124.627C155.499 127.751 153.684 130.773 151.542 133.095C150.848 133.835 150.114 134.554 149.175 134.965C146.85 135.993 144.218 134.76 141.872 133.753C137.771 132.006 133.324 130.875 128.856 131.06C124.388 131.245 119.921 132.828 116.657 135.89C114.739 137.699 113.311 139.96 112.066 142.303C110.638 144.995 109.435 147.831 108.578 151.181C109.394 151.243 110.251 150.75 111.026 151.037C111.251 151.12 111.434 151.263 111.659 151.325C111.944 151.428 112.25 151.387 112.556 151.387C113.923 151.346 115.31 151.695 116.677 152.928C117.86 149.64 119.982 146.721 122.736 144.604C123.613 143.926 124.572 143.33 125.612 142.919C127.122 142.344 128.775 142.2 130.386 142.076C135.16 141.707 139.934 141.439 144.728 141.254C146.462 141.193 148.237 141.131 149.889 140.556C151.562 140.021 152.664 138.48 154.153 137.493Z" fill="white"/>
</mask>
<g mask="url(#mask1_625_3139)">
<path d="M186.427 43.3423L213.05 95.0523" stroke="black" stroke-miterlimit="10"/>
<path d="M182 48.4187L208.602 100.129" stroke="black" stroke-miterlimit="10"/>
<path d="M177.552 53.4954L204.154 105.185" stroke="black" stroke-miterlimit="10"/>
<path d="M173.105 58.5718L199.728 110.261" stroke="black" stroke-miterlimit="10"/>
<path d="M168.678 63.6277L195.28 115.338" stroke="black" stroke-miterlimit="10"/>
<path d="M164.231 68.7043L190.854 120.414" stroke="black" stroke-miterlimit="10"/>
<path d="M159.783 73.7808L186.406 125.491" stroke="black" stroke-miterlimit="10"/>
<path d="M155.357 78.8572L181.959 130.567" stroke="black" stroke-miterlimit="10"/>
<path d="M150.909 83.9333L177.532 135.643" stroke="black" stroke-miterlimit="10"/>
<path d="M146.482 89.0098L173.084 140.699" stroke="black" stroke-miterlimit="10"/>
<path d="M142.035 94.0864L168.637 145.776" stroke="black" stroke-miterlimit="10"/>
<path d="M137.588 99.1423L164.21 150.852" stroke="black" stroke-miterlimit="10"/>
<path d="M133.161 104.219L159.763 155.929" stroke="black" stroke-miterlimit="10"/>
<path d="M128.713 109.295L155.316 161.005" stroke="black" stroke-miterlimit="10"/>
<path d="M124.266 114.372L150.889 166.082" stroke="black" stroke-miterlimit="10"/>
<path d="M119.839 119.448L146.441 171.158" stroke="black" stroke-miterlimit="10"/>
<path d="M115.392 124.525L142.015 176.214" stroke="black" stroke-miterlimit="10"/>
<path d="M110.945 129.581L137.567 181.291" stroke="black" stroke-miterlimit="10"/>
<path d="M106.517 134.657L133.12 186.367" stroke="black" stroke-miterlimit="10"/>
<path d="M102.07 139.733L128.693 191.443" stroke="black" stroke-miterlimit="10"/>
<path d="M97.6432 144.81L124.246 196.52" stroke="black" stroke-miterlimit="10"/>
</g>
<path d="M99.1529 152.702C100.601 152.353 102.05 151.983 103.355 151.613C102.233 148.345 101.152 145.015 100.907 141.583C100.663 138.13 101.377 134.513 103.498 131.8C106.558 127.916 111.761 126.683 116.126 124.381C119.982 122.346 123.328 119.325 125.735 115.687C127.408 113.159 128.693 110.138 128.203 107.137C127.918 105.39 127.061 103.787 126.184 102.246C123.96 98.2996 121.267 94.1274 116.881 92.9559C109.802 89.277 101.377 89.6881 93.4611 90.613C90.0134 91.024 86.5861 91.4967 83.2608 92.4627C74.7333 94.9495 67.4095 100.416 60.3101 105.76C59.8 106.151 59.2697 106.562 59.0045 107.158C58.7801 107.672 58.8005 108.268 58.8413 108.843C59.2493 113.508 61.4117 117.783 63.5538 121.955C64.7575 124.298 65.9814 126.662 67.8379 128.512C69.878 130.546 72.5505 131.821 75.2433 132.828C78.283 133.938 81.4248 134.739 84.6073 135.232C86.3005 135.479 88.0549 135.664 89.5238 136.548C90.8294 137.349 91.7679 138.624 92.6451 139.877C95.1544 143.453 98.3981 153.051 98.3981 153.051L99.1529 152.702Z" fill="#5A66FF"/>
<path d="M154.296 119.078C153.541 119.181 152.766 119.242 151.97 119.242C142.443 119.242 134.732 111.474 134.732 101.876C134.732 92.2776 142.443 84.5088 151.97 84.5088C152.317 84.5088 152.358 84.591 152.725 84.6115" stroke="black" stroke-miterlimit="10" stroke-linecap="round" stroke-linejoin="round"/>
<path d="M169.066 66.8544C160.131 70.5744 153.174 78.8365 151.012 88.3318C148.298 100.273 152.807 112.481 155.785 124.36C155.724 127.505 154.684 130.608 152.623 132.725C150.542 134.842 147.482 135.911 144.545 135.582C140.771 135.13 137.588 132.561 133.895 131.677C130.897 130.958 127.734 131.43 124.715 132.109C122.328 132.663 119.941 133.362 117.861 134.678C112.414 138.11 110.169 145.077 110.047 151.551C107.864 150.996 106.049 151.243 104.437 151.962C102.03 150.38 101.52 147.626 101.193 145.139C100.642 141.028 100.194 136.507 102.417 133.033C104.131 130.362 107.089 128.82 109.904 127.402C113.25 125.717 116.596 124.031 119.941 122.367C122.206 121.236 124.532 120.024 126.082 118.01C127.755 115.81 128.245 112.933 128.245 110.159C128.245 106.582 127.469 102.945 125.613 99.9028C123.369 96.2239 119.676 93.5726 115.657 92.0723C111.638 90.572 107.293 90.1404 103.009 90.1404C86.4845 90.1815 70.0619 96.9844 58.2907 108.658C56.169 98.012 56.4342 88.5373 56.7402 79.2887C56.9646 71.9925 57.2503 64.5114 59.4944 57.8935C83.6079 42.7052 114.964 39.8279 141.648 50.0425C151.664 54.4407 161.13 60.1749 169.066 66.8544Z" fill="#B180E0"/>
<path d="M195.893 109.254C195.934 104.383 192.486 100.273 190.67 95.7512C189.691 93.3054 189.161 90.6131 187.508 88.5784C186.672 93.2643 184.53 98.4025 181.082 101.506C177.634 104.609 173.615 106.993 169.964 109.85C166.312 112.707 162.905 116.16 161.334 120.537C159.927 124.484 160.069 128.943 158.193 132.684C156.438 136.178 153.052 138.624 149.42 139.96C145.769 141.295 141.852 141.665 137.975 141.83C133.855 142.015 129.652 142.035 125.796 143.454C121.92 144.872 118.391 148.037 117.35 152.127C120.757 153.874 123.96 156.032 126.878 158.498C129.856 155.23 133.773 151.037 137.894 149.455C140.118 148.592 144.075 147.708 144.075 147.708C144.075 147.708 149.175 147.03 151.746 146.249C153.868 145.591 155.602 144.604 157.234 143.063C161.599 138.994 161.171 132.417 164.456 127.423C166.128 124.854 168.842 123.107 171.738 122.12C174.635 121.134 177.696 120.846 180.735 120.681C182.224 120.599 183.714 120.558 185.142 120.188C190.344 118.934 195.852 114.475 195.893 109.254Z" fill="#FF88B6"/>
<path d="M57.3518 60.5244C47.8451 65.1898 40.4601 73.3491 34.2787 82.0017C33.2179 83.4815 32.1774 85.023 31.6878 86.7905C31.2186 88.4758 31.3001 90.2638 31.4021 92.0314C31.5653 94.9498 31.749 97.8477 31.9734 100.766C32.0754 102.205 32.2182 103.705 32.8302 105C33.4422 106.295 34.4827 107.322 35.5231 108.288C37.6244 110.241 39.8685 112.111 42.4185 113.426C44.887 114.701 47.5799 115.441 50.0484 116.694C52.5168 117.948 54.8629 119.859 55.2709 122.511C59.5346 126.786 58.8818 134.267 62.8803 138.788C65.2264 141.46 68.8373 142.632 72.3054 143.31C75.7939 143.988 79.3844 144.296 82.6485 145.694C87.3815 147.749 91.0331 152.188 92.1756 157.553C92.7264 156.237 93.8689 155.271 95.093 154.573C96.317 153.874 97.6635 153.422 98.9079 152.517C95.8274 147.503 95.0113 140.823 90.3192 137.308C86.4023 134.349 81.0369 134.596 76.304 133.321C70.6734 131.8 65.6956 127.875 62.2479 122.757C61.2483 120.62 60.371 118.421 59.4122 115.996C58.6778 106.973 56.0869 98.1149 56.1277 89.0512C56.1481 85.6806 56.5357 82.31 56.9234 78.9394C57.719 72.0954 58.5146 65.2104 60.1058 58.5103C59.1266 59.3324 58.127 60.1339 57.3518 60.5244Z" fill="#56B381"/>
<path d="M21.3649 106.706C21.2425 113.611 26.8119 120.167 33.6257 121.092C37.1142 121.565 40.7047 120.722 44.1728 121.38C47.1513 121.956 49.9054 123.702 51.721 126.148C55.4952 131.245 55.1483 138.87 59.7385 143.248C64.0022 147.317 70.6324 146.886 76.3038 148.448C81.8936 149.969 86.8509 153.709 89.8906 158.662" stroke="black" stroke-miterlimit="10" stroke-linecap="round" stroke-linejoin="round"/>
<path d="M195.791 106.706C195.913 113.611 190.344 120.167 183.53 121.092C180.041 121.565 176.451 120.722 172.983 121.38C170.004 121.956 167.25 123.702 165.435 126.148C161.66 131.245 162.007 138.87 157.417 143.248C153.153 147.317 146.523 146.886 140.852 148.448C135.262 149.969 130.305 153.709 127.265 158.662" stroke="black" stroke-miterlimit="10" stroke-linecap="round" stroke-linejoin="round"/>
<path d="M109.394 150.112C109.72 144.029 113.025 138.171 118.023 134.76C123.022 131.348 129.631 130.423 135.364 132.355C140.077 133.938 144.83 137.37 149.522 135.767C153.765 134.328 155.765 129.211 155.479 124.73C155.193 120.229 153.215 116.036 151.929 111.72C148.828 101.321 149.828 89.7498 154.643 80.0285C157.54 74.171 162.232 68.704 168.556 67.1626" stroke="black" stroke-miterlimit="10" stroke-linecap="round" stroke-linejoin="round"/>
<path d="M186.468 87.2632C188.141 100.622 175.635 104.157 164.435 115.441C159.661 120.435 161.232 127.525 157.764 133.527C149.135 149.578 125.735 134.082 117.35 150.935" stroke="black" stroke-miterlimit="10" stroke-linecap="round" stroke-linejoin="round"/>
<path d="M59.8611 58.2019C55.985 74.0273 55.4137 90.6543 58.1882 106.726C59.1879 112.522 60.6568 118.338 63.7373 123.333C66.7974 128.327 71.673 132.458 77.4056 133.486C79.5477 133.876 81.751 133.814 83.8727 134.308C87.7488 135.212 91.0332 137.904 93.3589 141.131C95.6846 144.378 97.133 148.16 98.3571 151.962" stroke="black" stroke-miterlimit="10" stroke-linecap="round" stroke-linejoin="round"/>
<path d="M31.9938 85.8037C31.341 90.5308 30.6678 95.3401 31.3818 100.067C32.0958 104.794 34.4216 109.48 38.4813 111.946C41.4802 113.755 45.091 114.187 48.3143 115.605C52.8841 117.619 56.495 121.75 57.9231 126.58C58.5759 128.8 58.7799 131.122 59.5144 133.321C60.8608 137.39 64.0637 140.782 68.0214 142.364C71.5303 143.762 75.4268 143.762 79.0785 144.748C84.8519 146.31 89.8501 150.523 92.4002 155.949" stroke="black" stroke-miterlimit="10" stroke-linecap="round" stroke-linejoin="round"/>
<path d="M59.0859 107.631C69.9799 96.5939 85.2192 90.0171 100.683 89.6678C108.088 89.5033 115.902 90.9009 121.594 95.6896C127.285 100.458 130.039 109.295 126.265 115.728C120.798 125.018 105.416 125.182 101.417 135.192C99.3364 140.432 101.315 146.31 103.314 151.592" stroke="black" stroke-miterlimit="10" stroke-linecap="round" stroke-linejoin="round"/>
<path d="M129.672 77.2951C131.295 77.2951 132.61 75.9701 132.61 74.3355C132.61 72.701 131.295 71.376 129.672 71.376C128.05 71.376 126.735 72.701 126.735 74.3355C126.735 75.9701 128.05 77.2951 129.672 77.2951Z" fill="#FFF58C" stroke="#181919" stroke-miterlimit="10" stroke-linecap="round" stroke-linejoin="round"/>
<path d="M89.871 77.2951C91.4935 77.2951 92.8087 75.9701 92.8087 74.3355C92.8087 72.701 91.4935 71.376 89.871 71.376C88.2486 71.376 86.9333 72.701 86.9333 74.3355C86.9333 75.9701 88.2486 77.2951 89.871 77.2951Z" fill="#FFF58C" stroke="#181919" stroke-miterlimit="10" stroke-linecap="round" stroke-linejoin="round"/>
<path d="M110.985 59.5377L112.821 65.2307C112.985 65.7651 113.474 66.1145 114.025 66.1145H119.962C121.186 66.1145 121.696 67.697 120.716 68.4164L115.902 71.9308C115.453 72.2597 115.269 72.8351 115.433 73.349L117.269 79.042C117.656 80.2135 116.31 81.2 115.31 80.4601L110.496 76.9456C110.047 76.6168 109.455 76.6168 109.006 76.9456L104.192 80.4601C103.192 81.1795 101.866 80.2135 102.233 79.042L104.069 73.349C104.233 72.8146 104.049 72.2391 103.6 71.9308L98.8469 68.4369C97.8473 67.7176 98.3573 66.135 99.6017 66.135H105.538C106.089 66.135 106.579 65.7856 106.742 65.2513L108.578 59.5582C108.945 58.3662 110.598 58.3662 110.985 59.5377Z" fill="#FFF58C" stroke="#181919" stroke-miterlimit="10" stroke-linecap="round" stroke-linejoin="round"/>
<mask id="mask2_625_3139" style="mask-type:luminance" maskUnits="userSpaceOnUse" x="16" y="44" width="185" height="186">
<path d="M108.66 230C159.643 230 200.972 188.362 200.972 137C200.972 85.6375 159.643 44 108.66 44C57.6766 44 16.3467 85.6375 16.3467 137C16.3467 188.362 57.6766 230 108.66 230Z" fill="white"/>
</mask>
<g mask="url(#mask2_625_3139)">
<path d="M155.132 209.077C145.891 202.644 128.224 198.287 107.945 198.287C87.6671 198.287 70.0002 202.644 60.7587 209.077H53.8837V219.354C53.8837 230.986 78.0788 240.42 107.945 240.42C137.812 240.42 162.007 230.986 162.007 219.354V209.077H155.132Z" fill="#5A66FF" stroke="black" stroke-miterlimit="10" stroke-linecap="round" stroke-linejoin="round"/>
<path d="M107.945 230.144C137.803 230.144 162.007 220.712 162.007 209.078C162.007 197.443 137.803 188.011 107.945 188.011C78.0878 188.011 53.8835 197.443 53.8835 209.078C53.8835 220.712 78.0878 230.144 107.945 230.144Z" fill="white" stroke="black" stroke-miterlimit="10" stroke-linecap="round" stroke-linejoin="round"/>
<path d="M155.132 198.801C145.891 192.368 128.224 188.011 107.945 188.011C87.6671 188.011 70.0002 192.368 60.7587 198.801H53.8837V209.077C53.8837 220.71 78.0788 230.144 107.945 230.144C137.812 230.144 162.007 220.71 162.007 209.077V198.801H155.132Z" fill="#FF88B6" stroke="black" stroke-miterlimit="10"/>
<path d="M107.945 219.867C137.803 219.867 162.007 210.436 162.007 198.801C162.007 187.167 137.803 177.735 107.945 177.735C78.0878 177.735 53.8835 187.167 53.8835 198.801C53.8835 210.436 78.0878 219.867 107.945 219.867Z" fill="white" stroke="black" stroke-miterlimit="10" stroke-linecap="round" stroke-linejoin="round"/>
<path d="M155.132 188.525C145.891 182.092 128.224 177.735 107.945 177.735C87.6671 177.735 70.0002 182.092 60.7587 188.525H53.8837V198.801C53.8837 210.434 78.0788 219.867 107.945 219.867C137.812 219.867 162.007 210.434 162.007 198.801V188.525H155.132Z" fill="#FF88B6" stroke="black" stroke-miterlimit="10"/>
<path d="M107.945 209.591C137.803 209.591 162.007 200.16 162.007 188.525C162.007 176.89 137.803 167.459 107.945 167.459C78.0878 167.459 53.8835 176.89 53.8835 188.525C53.8835 200.16 78.0878 209.591 107.945 209.591Z" fill="white" stroke="black" stroke-miterlimit="10" stroke-linecap="round" stroke-linejoin="round"/>
</g>
<path d="M108.66 230C159.643 230 200.972 188.362 200.972 137C200.972 85.6375 159.643 44 108.66 44C57.6766 44 16.3467 85.6375 16.3467 137C16.3467 188.362 57.6766 230 108.66 230Z" stroke="#181919" stroke-miterlimit="10"/>
<path d="M144.299 157.203C144.054 152.394 144.136 146.331 142.688 141.85C141.341 137.76 138.791 134.143 136.608 130.464C132.426 123.415 126.816 120.414 121.104 115.05C119.451 113.509 116.922 113.878 115.004 112.851C112.76 111.659 110.965 110.467 108.455 109.85C103.559 108.638 98.5202 109.193 94.236 112.008C90.2783 114.618 86.1981 117.023 82.4852 120.003C79.4659 122.408 77.1811 126.128 74.3454 128.368C67.3888 133.835 66.6136 143.104 67.1236 151.366C67.3888 155.621 68.0212 159.587 70.5509 163.102C72.7746 166.205 76.0386 168.63 77.7727 172.083C80.0168 176.481 81.0777 180.263 85.0966 183.551C92.4612 189.594 102.233 192.101 111.556 191.587C115.575 191.361 119.41 191.546 122.96 189.368C125.959 187.518 127.061 184.497 129.529 182.236C131.243 180.674 133.528 180.674 135.507 179.667C137.873 178.475 138.199 177.324 139.811 175.31C140.464 174.508 141.076 173.604 141.545 172.679C143.973 167.932 144.626 163.04 144.32 157.758C144.32 157.553 144.299 157.388 144.299 157.203Z" fill="#45B757" stroke="black" stroke-miterlimit="10"/>
<path d="M118.208 138.809C117.596 137.678 116.066 138.274 115.78 139.302C112.944 148.098 103.54 152.086 96.0119 152.086C94.7674 152.209 92.4011 151.284 92.2991 153.134C92.6867 156.751 103.234 160.738 106.722 161.005C116.555 161.087 123.104 146.66 118.208 138.809Z" stroke="black" stroke-miterlimit="10"/>
<path d="M90.1355 141.706C92.5836 141.501 95.0522 141.48 97.5206 141.604C96.4598 144.604 94.0729 146.906 91.7472 149.085" stroke="black" stroke-miterlimit="10" stroke-linecap="round" stroke-linejoin="round"/>
<path d="M88.7079 146.125C91.8088 145.591 94.7669 144.173 97.1129 142.056" stroke="black" stroke-miterlimit="10" stroke-linecap="round" stroke-linejoin="round"/>
<path d="M110.394 133.301C108.925 135.747 106.925 137.863 104.579 139.467C107.007 139.836 109.476 139.836 111.903 139.446" stroke="black" stroke-miterlimit="10" stroke-linecap="round" stroke-linejoin="round"/>
<path d="M105.212 139.117C107.293 138.48 109.313 137.596 111.19 136.507" stroke="black" stroke-miterlimit="10" stroke-linecap="round" stroke-linejoin="round"/>
<path d="M143.397 125.942C143.122 124.342 144.13 122.897 144.918 121.498C146.421 118.87 147.224 115.916 148.013 112.996C148.679 110.509 149.327 107.71 147.881 105.395C147.349 104.534 146.591 103.838 146 103.012C145.408 102.186 145.022 101.145 145.401 100.277C145.565 99.9024 145.859 99.5847 146.108 99.2678C149.106 95.5491 148.493 90.2123 147.854 85.3914C147.746 84.5738 147.78 83.5341 148.591 83.3003C148.87 83.2194 149.16 83.2651 149.431 83.3026C151.781 83.7008 154.413 84.5672 156.347 83.3846C156.805 83.0978 157.225 82.6934 157.797 82.7003C158.281 82.7088 158.727 83.0051 159.102 83.3111C162.564 85.9794 166.107 89.3726 170.424 89.3733C171.48 89.5914 172.157 89.2586 172.116 88.6933C172.105 88.4654 171.952 88.2569 171.818 88.0565C171.287 87.297 170.755 86.5375 170.224 85.7781C169.019 84.0757 167.804 82.3483 166.261 80.863C164.446 79.1376 162.167 77.7159 161.074 75.5554C161.283 72.7471 159.29 69.9097 156.729 68.1212C154.167 66.3328 151.126 65.389 148.133 64.4867C146.526 64.0079 144.82 63.5054 143.228 63.8035C140.767 64.2689 139.205 66.425 136.929 67.3771C134.523 68.3737 131.466 67.9709 129.339 69.3934C128.216 70.1396 127.506 71.3093 126.695 72.3541C124.981 74.5044 122.668 76.1499 120.388 77.7694C118.945 78.2339 117.086 79.7531 116.022 81.4782C114.958 83.2032 114.456 85.2141 113.374 86.931C112.064 89.0151 110.008 90.5293 107.944 91.9593C106.892 92.6957 105.795 93.4329 105.147 94.5086C104.876 94.978 104.671 95.4969 104.381 95.9581C103.347 97.5137 101.183 98.0076 99.8332 99.3237C98.4683 100.674 98.1333 102.859 98.1107 104.735C93.3034 101.803 87.6443 100.162 82.078 100.081C81.4607 100.075 80.7765 100.121 80.4121 100.55C79.9844 101.073 80.2408 101.854 80.5717 102.465C81.5084 104.172 82.9992 105.573 84.5273 106.89C88.7991 110.541 93.532 113.643 98.4212 116.489C116.658 127.094 137.056 134.019 157.815 137.028C158.276 137.087 158.781 137.146 159.124 136.87C159.823 136.283 158.938 135.167 158.131 134.631C153.235 131.296 148.048 128.32 143.397 125.942Z" fill="#5A66FF"/>
<path d="M143.397 125.942C143.122 124.342 144.13 122.897 144.918 121.498C146.421 118.87 147.224 115.916 148.013 112.996C148.679 110.509 149.327 107.71 147.881 105.395C147.349 104.534 146.591 103.838 146 103.012C145.408 102.186 145.022 101.145 145.401 100.277C145.565 99.9024 145.859 99.5847 146.108 99.2678C149.106 95.5491 148.493 90.2123 147.854 85.3914C147.746 84.5738 147.78 83.5341 148.591 83.3003C148.87 83.2194 149.16 83.2651 149.431 83.3026C151.781 83.7008 154.413 84.5672 156.347 83.3846C156.805 83.0978 157.225 82.6934 157.797 82.7003C158.281 82.7088 158.727 83.0051 159.102 83.3111C162.564 85.9794 166.107 89.3726 170.424 89.3733C171.48 89.5914 172.157 89.2586 172.116 88.6933C172.105 88.4654 171.952 88.2569 171.818 88.0565C171.287 87.297 170.755 86.5375 170.224 85.7781C169.019 84.0757 167.804 82.3483 166.261 80.863C164.446 79.1376 162.167 77.7159 161.074 75.5554C161.283 72.7471 159.29 69.9097 156.729 68.1212C154.167 66.3328 151.126 65.389 148.133 64.4867C146.526 64.0079 144.82 63.5054 143.228 63.8035C140.767 64.2689 139.205 66.425 136.929 67.3771C134.523 68.3737 131.466 67.9709 129.339 69.3934C128.216 70.1396 127.506 71.3093 126.695 72.3541C124.981 74.5044 122.668 76.1499 120.388 77.7694C118.945 78.2339 117.086 79.7531 116.022 81.4782C114.958 83.2032 114.456 85.2141 113.374 86.931C112.064 89.0151 110.008 90.5293 107.944 91.9593C106.892 92.6957 105.795 93.4329 105.147 94.5086C104.876 94.978 104.671 95.4969 104.381 95.9581C103.347 97.5137 101.183 98.0076 99.8332 99.3237C98.4683 100.674 98.1333 102.859 98.1107 104.735C93.3034 101.803 87.6443 100.162 82.078 100.081C81.4607 100.075 80.7765 100.121 80.4121 100.55C79.9844 101.073 80.2408 101.854 80.5717 102.465C81.5084 104.172 82.9992 105.573 84.5273 106.89C88.7991 110.541 93.532 113.643 98.4212 116.489C116.658 127.094 137.056 134.019 157.815 137.028C158.276 137.087 158.781 137.146 159.124 136.87C159.823 136.283 158.938 135.167 158.131 134.631C153.235 131.296 148.048 128.32 143.397 125.942Z" fill="#A37D65" stroke="#120000" stroke-miterlimit="10" stroke-linecap="round" stroke-linejoin="round"/>
<path d="M148.468 83.2266C146.553 80.7679 144.572 78.2597 141.832 76.9812C141.43 76.7855 140.988 76.6327 140.515 76.6494C140.062 76.6742 139.549 76.9366 139.303 77.3971C139.058 77.8575 139.117 78.4309 139.359 78.8407C139.6 79.2504 139.998 79.5053 140.433 79.6751" stroke="#120000" stroke-miterlimit="10" stroke-linecap="round" stroke-linejoin="round"/>
<path d="M119.186 83.3068C121.825 86.3864 124.439 89.4749 127.079 92.5545C128.194 93.8529 129.387 95.2259 131.019 95.7972C132.072 96.1759 133.224 96.1727 134.306 96.0778C137.854 95.7624 141.227 94.3772 143.804 92.178C144.321 91.7551 144.823 91.2648 145.473 91.0422C146.124 90.8197 146.994 90.9566 147.411 91.5237C147.425 91.7938 147.429 92.0387 147.444 92.3088" stroke="#120000" stroke-miterlimit="10" stroke-linecap="round" stroke-linejoin="round"/>
<path d="M121.83 81.3598C124.812 85.0755 127.804 88.8163 130.786 92.5319C131.087 92.9068 131.407 93.2898 131.864 93.5099C132.236 93.6724 132.649 93.6905 133.05 93.6835C136.222 93.6704 139.312 92.6281 141.688 90.7872C143.22 89.6116 144.559 88.0676 146.526 87.67" stroke="#120000" stroke-miterlimit="10" stroke-linecap="round" stroke-linejoin="round"/>
<path d="M142.312 94.3243C143.275 94.299 144.272 94.3492 145.239 94.4675C146.358 96.2135 146.353 98.503 145.227 100.119C144.066 101.761 141.913 102.686 141.128 104.533" stroke="#120000" stroke-miterlimit="10" stroke-linecap="round" stroke-linejoin="round"/>
<path d="M120.877 85.668C120.126 85.36 119.304 85.0618 118.565 85.2859C118.234 85.3846 117.955 85.5669 117.694 85.7573C116.508 86.5975 115.433 87.5877 114.522 88.7103" stroke="#120000" stroke-miterlimit="10" stroke-linecap="round" stroke-linejoin="round"/>
<path d="M107.464 95.7438C113.405 96.13 119.366 96.5244 125.308 96.9106C126.62 96.9975 127.951 97.0926 129.152 97.6376C131.573 98.7358 132.774 101.308 134.35 103.376C137.067 106.936 141.455 109.36 145.961 109.788" stroke="#120000" stroke-miterlimit="10" stroke-linecap="round" stroke-linejoin="round"/>
<path d="M108.185 94.1937C112.882 94.0357 117.6 94.1307 122.304 94.4625C125.873 94.7043 129.755 95.2448 132.44 97.614C134.562 99.4946 135.592 102.256 137.748 104.111C139.748 105.816 142.626 106.526 145.11 105.908" stroke="#120000" stroke-miterlimit="10" stroke-linecap="round" stroke-linejoin="round"/>
<path d="M145.521 117.686C144.435 117.941 143.323 118.104 142.193 118.158C141.669 118.192 141.122 118.176 140.624 117.999C139.59 117.629 138.981 116.592 138.114 115.889C136.702 114.765 134.779 114.654 132.983 114.458C126.908 113.77 120.97 111.297 116.189 107.444C114.486 106.071 112.854 104.486 110.794 103.728C108.106 102.736 105.179 103.302 102.342 103.157C102.357 102.616 102.38 102.058 102.402 101.703C104.031 100.813 106.094 101.107 107.965 101.437C109.761 101.735 111.549 102.05 113.271 102.62C118.093 104.2 122.064 107.679 126.67 109.854C131.686 112.208 137.516 113.052 145.521 117.686Z" stroke="#120000" stroke-miterlimit="10" stroke-linecap="round" stroke-linejoin="round"/>
<path d="M102.182 105.602C103.61 105.273 105.083 104.943 106.566 105.145C108.013 105.331 109.385 105.991 110.545 106.883C111.712 107.759 112.701 108.839 113.612 109.947" stroke="#120000" stroke-miterlimit="10" stroke-linecap="round" stroke-linejoin="round"/>
<path d="M127.833 118.898C131.852 118.871 135.894 119.298 139.857 120.158Z" fill="#5A66FF"/>
<path d="M127.833 118.898C131.852 118.871 135.894 119.298 139.857 120.158" stroke="#120000" stroke-miterlimit="10" stroke-linecap="round" stroke-linejoin="round"/>
<path d="M63.5325 26.3719C63.5399 26.7351 63.4476 27.0492 63.3146 27.0492C57.9859 27.059 52.6535 27.0492 47.3248 27.0492C38.8942 27.0492 30.4635 27.0492 22.0292 27.0492C19.5419 27.0492 8.84882 27.0492 3.76877 27.0492C2.23176 27.0492 1.01358 25.8922 1.00451 24.3552C0.964533 17.5737 1.20708 1 1.06883 1C5.5999 1 39.4518 1 42.5242 1C48.6744 1 54.8245 1 60.9747 1C62.49 1 63.6612 2.12944 63.6593 3.64474C63.652 9.53732 63.4823 23.3315 63.5325 26.3719Z" fill="white" stroke="black" stroke-miterlimit="10" stroke-linecap="round" stroke-linejoin="round"/>
<path d="M29.3611 16.6003H30.8171V8.31233H20.4011V9.61433H29.3611V16.6003ZM19.6731 19.2743H31.6151V17.9723H19.6731V19.2743ZM43.0099 7.89233V10.1323H40.9379V11.3923H43.0099V14.8923H44.3959V7.89233H43.0099ZM33.6299 10.7623V14.4723H37.7599C39.4539 14.4723 40.8819 14.2623 41.6099 13.9403V12.8063C40.8399 13.1423 39.4679 13.3383 37.8439 13.3383H35.0019V11.8683H40.1539V8.18633H33.6019V9.32033H38.7819V10.7623H33.6299ZM34.2179 19.6943H44.3539V15.5503H34.2179V19.6943ZM35.5899 16.6843H42.9819V18.5603H35.5899V16.6843Z" fill="black"/>
<path d="M211.606 57.605C211.628 58.0411 211.352 58.4182 210.956 58.4182C195.058 58.43 179.15 58.4182 163.253 58.4182C138.101 58.4182 112.95 58.4182 87.7873 58.4182C79.2046 58.4182 37.87 58.4182 27.5792 58.4182C26.2107 58.4182 25.1191 57.4818 25.0826 56.1138C24.8839 48.6875 25.6848 27.1416 25.2556 27.1416C38.7733 27.1416 139.765 27.1416 148.931 27.1416C169.178 27.1416 189.425 27.1416 209.672 27.1416C210.991 27.1416 211.977 28.0332 211.983 29.3524C212.013 35.7464 211.448 53.7765 211.606 57.605Z" fill="white" stroke="black" stroke-miterlimit="10" stroke-linecap="round" stroke-linejoin="round"/>
<path d="M49.3695 36.8242V48.7802H50.7555V36.8242H49.3695ZM44.7075 38.5322H47.7735V37.2582H40.1435V38.5322H43.3075C43.2515 42.9702 41.9915 46.3022 39.8635 46.6942V48.0662C41.6695 47.8562 43.0975 46.3722 43.9235 43.8662L47.1435 47.9682L48.2355 47.1422L44.3295 42.3122C44.5535 41.1922 44.6935 39.9182 44.7075 38.5322ZM62.7243 40.9822H64.1243V36.9642H53.8623V38.1402H62.7243V40.9822ZM53.0643 42.8582H65.0063V41.6962H53.0643V42.8582ZM53.8903 48.6402H64.1663V44.0762H53.8903V48.6402ZM55.2763 47.5062V45.2102H62.7943V47.5062H55.2763ZM77.6331 37.0342H76.2611V38.7142H68.7291V37.0342H67.3571V43.1662H77.6331V37.0342ZM68.7291 41.9342V39.9462H76.2611V41.9342H68.7291ZM78.4731 44.4402H66.5311V45.7282H71.7811V49.0602H73.2091V45.7282H78.4731V44.4402ZM89.8539 36.8242V41.6962H87.6419V42.9982H89.8539V48.7802H91.2539V36.8242H89.8539ZM82.0139 46.7922V43.2082H86.7879V41.9342H82.0139V38.5322H87.4599V37.2582H80.6279V48.0662H85.2059C86.3539 48.0662 87.5719 47.8562 88.2999 47.4922V46.2182C87.5719 46.5682 86.3399 46.7922 85.2059 46.7922H82.0139ZM108.547 36.8242H107.161V42.6762H108.547V36.8242ZM101.602 40.4922L105.354 42.4102L105.971 41.4022L102.176 39.5122C102.331 39.1202 102.429 38.7142 102.47 38.2802H105.579V37.1322H97.8365V38.2802H101.099C100.903 39.9462 99.6425 41.1502 97.6825 41.4022V42.5502C99.3905 42.3682 100.762 41.5982 101.602 40.4922ZM99.7965 47.5342V46.4982H108.547V43.3342H98.3965V44.4262H107.174V45.4622H98.4245V48.6262H108.841V47.5342H99.7965ZM121.929 36.9642H111.709V41.7522H121.929V36.9642ZM120.543 40.6042H113.095V38.1122H120.543V40.6042ZM110.855 42.9562V44.1322H116.119V46.1902H117.519V44.1322H122.797V42.9562H110.855ZM113.095 45.1542H111.695V48.6402H122.195V47.4502H113.095V45.1542ZM130.286 41.1362C133.17 41.1362 135.536 40.5482 135.536 38.9522C135.536 37.3702 133.17 36.7822 130.286 36.7822C127.402 36.7822 125.036 37.3702 125.036 38.9522C125.036 40.5482 127.402 41.1362 130.286 41.1362ZM130.286 40.0722C128.2 40.0722 126.464 39.7502 126.464 38.9522C126.464 38.1682 128.2 37.8322 130.286 37.8322C132.372 37.8322 134.108 38.1682 134.108 38.9522C134.108 39.7502 132.372 40.0722 130.286 40.0722ZM124.322 42.9562H136.264V41.8782H124.322V42.9562ZM125.148 48.6402H135.648V47.6042H126.506V46.7642H135.438V43.9082H125.12V44.9442H134.08V45.7842H125.148V48.6402ZM151.485 36.8242V48.7802H152.871V36.8242H151.485ZM147.061 37.1742L145.647 37.1182C145.633 42.1442 144.317 46.2882 141.923 46.6662V48.0662C143.813 47.9262 145.269 46.3302 146.151 43.6982L149.329 48.0382L150.449 47.2402L146.585 42.0882C146.893 40.6602 147.047 39.0082 147.061 37.1742ZM167.682 39.3582H166.002V36.8242H164.616V43.9642H166.002V40.6742H167.682V39.3582ZM159.296 41.1642L162.74 43.5162L163.482 42.4802L159.814 40.0162C159.982 39.4842 160.094 38.9242 160.108 38.3222H163.132V37.1322H155.502V38.3222H158.722C158.582 40.5062 157.35 42.0602 155.348 42.3542V43.6142C157.084 43.4322 158.47 42.5222 159.296 41.1642ZM155.894 45.8262H164.602V48.7802H166.002V44.6222H155.894V45.8262ZM176.724 37.6922H173.364V36.6142H171.964V37.6922H168.604V38.7282H176.724V37.6922ZM179.468 39.3162V36.8242H178.082V43.0682H179.468V40.5062H181.148V39.3162H179.468ZM172.664 43.0262C174.624 43.0262 176.164 42.3822 176.164 41.1782C176.164 39.9742 174.624 39.3302 172.664 39.3302C170.69 39.3302 169.15 39.9742 169.15 41.1782C169.15 42.3822 170.69 43.0262 172.664 43.0262ZM172.664 40.3102C173.994 40.3102 174.848 40.6602 174.848 41.1782C174.848 41.6962 173.994 42.0462 172.664 42.0462C171.32 42.0462 170.48 41.6962 170.48 41.1782C170.48 40.6602 171.32 40.3102 172.664 40.3102ZM170.844 46.6522H179.468V43.7122H169.458V44.7342H178.11V45.6722H169.486V48.6262H179.762V47.6042H170.844V46.6522ZM192.277 36.8242V48.7802H193.607V36.8242H192.277ZM189.295 41.6402H187.335C187.363 41.2622 187.377 40.8842 187.377 40.4782V37.2582H182.379V38.5182H186.033V40.5482C186.033 44.2442 184.605 46.6662 182.379 46.7362V48.0382C184.745 48.0102 186.551 46.1202 187.153 42.9562H189.295V48.5702H190.611V36.8942H189.295V41.6402ZM196.098 45.3782H197.162L197.526 37.2722H195.748L196.098 45.3782ZM196.63 48.7102C197.218 48.7102 197.666 48.2622 197.666 47.6742C197.666 47.1002 197.218 46.6522 196.63 46.6522C196.042 46.6522 195.594 47.1002 195.594 47.6742C195.594 48.2622 196.042 48.7102 196.63 48.7102Z" fill="black"/>
</svg>
