<svg width="91" height="90" viewBox="0 0 91 90" fill="none" xmlns="http://www.w3.org/2000/svg">
<path fill-rule="evenodd" clip-rule="evenodd" d="M88.0498 31.31C87.8998 28.37 87.9498 24.67 87.0498 21.93C86.2198 19.43 84.6498 17.22 83.3098 14.97C80.7298 10.66 77.2798 8.81998 73.7698 5.55998C72.7498 4.60998 71.1998 4.83995 70.0198 4.21995C68.6398 3.49995 67.5299 2.75996 65.9799 2.37996C62.9699 1.63996 59.8699 1.96995 57.2299 3.68995C54.7899 5.27995 52.2699 6.75996 49.9899 8.56996C48.1399 10.04 46.7299 12.31 44.9799 13.68C40.6899 17.02 40.2198 22.68 40.5398 27.73C40.6998 30.33 41.0898 32.75 42.6498 34.9C44.0198 36.79 46.0299 38.28 47.0999 40.39C48.4799 43.09 49.1399 45.39 51.6099 47.39C56.1399 51.08 62.1598 52.61 67.8998 52.3C70.3698 52.17 72.7298 52.28 74.9198 50.94C76.7698 49.81 77.4398 47.96 78.9599 46.58C80.0098 45.63 81.4198 45.62 82.6398 45.02C84.1098 44.29 84.2998 43.59 85.2998 42.36C85.6998 41.86 86.0798 41.32 86.3698 40.75C87.8698 37.84 88.2698 34.86 88.0798 31.63C88.0798 31.52 88.0798 31.42 88.0598 31.31H88.0498Z" fill="#45B757"/>
<path fill-rule="evenodd" clip-rule="evenodd" d="M54.1298 48.98L54.1198 48.97L54.1298 48.99V48.98Z" fill="#45B757"/>
<path d="M59.7399 22.4699L59.8399 22.2899C59.9899 22.0399 59.9899 21.7099 59.8399 21.4499C59.7099 21.2199 59.4799 21.0799 59.2199 21.0699C58.5899 21.0499 57.9499 21.1199 57.3299 21.1799C56.5599 21.2499 55.7898 21.3299 55.0098 21.2499C54.4898 21.2099 54.1998 21.5999 54.1798 21.9799C54.1598 22.3599 54.3998 22.7699 54.8798 22.8199C55.1798 22.8499 55.5099 22.8399 55.8499 22.8299C55.2299 23.2099 54.5598 23.4899 53.7898 23.5799C53.3898 23.6299 53.1298 23.9399 53.1598 24.3499C53.1798 24.7299 53.4699 25.1399 53.9599 25.1399C53.9999 25.1399 54.0299 25.1399 54.0699 25.1399C55.1399 25.0099 56.0299 24.5899 56.8499 24.0699C56.3999 24.6099 55.8799 25.0699 55.2399 25.2799C54.7799 25.4399 54.6298 25.8799 54.6798 26.2399C54.7398 26.6099 55.0099 26.8599 55.3499 26.8599C55.4299 26.8599 55.5199 26.8399 55.6099 26.8099C57.6499 26.1199 58.7698 24.1799 59.7498 22.4599L59.7399 22.4699Z" fill="#2F272E"/>
<path d="M63.5498 21.0399C64.4198 21.2699 65.2198 21.3799 65.9598 21.3799C66.6298 21.3799 67.2898 21.2899 67.9098 21.0999C68.3798 20.9599 68.5298 20.5199 68.4798 20.1699C68.4098 19.7099 68.0098 19.4299 67.5598 19.5599C67.4198 19.6099 67.2697 19.6299 67.1197 19.6599C67.2197 19.5899 67.3097 19.5299 67.3997 19.4699L67.7298 19.2399C67.9998 19.0499 68.0997 18.7599 68.0097 18.4699C67.8997 18.1099 67.5197 17.8899 67.1497 17.8999C67.2897 17.7499 67.4298 17.5899 67.5798 17.4399C67.8098 17.1899 67.8698 16.8599 67.7298 16.5499C67.5998 16.2499 67.3097 16.0499 67.0197 16.0499C66.8797 16.0499 66.6897 16.0899 66.4997 16.2899C65.9797 16.8399 65.4598 17.3999 64.9498 17.9599C64.4798 18.4799 63.9998 18.9899 63.5298 19.4999C63.5198 19.5099 63.5297 19.5299 63.5097 19.5399C63.4997 19.5599 63.4798 19.5799 63.4698 19.5999C63.2098 19.7299 63.0297 19.9999 62.9997 20.2599C62.9497 20.6399 63.1598 20.9499 63.5398 21.0499L63.5498 21.0399Z" fill="#2F272E"/>
<path d="M71.9899 20.08C71.8699 19.86 71.6599 19.7 71.3399 19.7C70.9599 19.7 70.7198 19.92 70.6198 20.2C70.5798 20.26 70.5199 20.2999 70.4899 20.3799C68.7399 25.7499 62.9499 28.1899 58.3199 28.1899C57.8299 28.1899 57.3399 28.16 56.8599 28.11C56.3399 28.05 56.0398 28.45 56.0298 28.84C56.0298 28.86 56.0298 28.87 56.0298 28.89C56.0298 28.96 56.0298 29.0299 56.0398 29.0999C55.9498 29.4799 56.1198 29.9099 56.5298 30.0399C56.5498 30.0499 56.5599 30.07 56.5699 30.08C58.5099 31.15 60.2998 32.39 62.2998 33.09C62.3198 33.09 62.3399 33.11 62.3499 33.12C62.9699 33.39 63.6198 33.52 64.2798 33.58C64.3098 33.58 64.3299 33.58 64.3499 33.58C64.5299 33.6 64.6998 33.64 64.8798 33.64C64.9498 33.64 65.0199 33.63 65.0899 33.62C65.2499 33.62 65.3999 33.65 65.5699 33.65C65.7199 33.65 65.8499 33.5999 65.9499 33.5399C66.8499 33.3799 67.7398 33.0399 68.5598 32.5099C72.2698 30.0999 74.0298 24.3199 72.2698 20.3799C72.1998 20.2299 72.0899 20.14 71.9699 20.08H71.9899Z" fill="#2F272E"/>
<path fill-rule="evenodd" clip-rule="evenodd" d="M48.2198 25.27C47.3798 21.43 45.7498 19.02 44.4098 15.26C43.2098 11.89 41.4598 10.75 38.9498 8.65997C37.5598 7.49997 37.1198 5.53998 35.6297 4.47998C33.6597 3.07998 30.8198 2.87999 28.5398 2.23999C25.9698 1.51999 23.2498 1.05997 20.5698 0.909972C18.0198 0.769972 14.2598 1.40997 12.2098 3.15997C10.5798 4.53997 8.80979 6.03998 7.66979 7.88998C7.10979 8.80998 7.13981 9.93999 6.68981 10.9C6.23981 11.88 4.93984 12.08 4.59984 13C4.22984 13.98 4.3198 15.08 3.8098 16.01C3.0498 17.41 1.67981 18.34 1.18981 19.9C0.699807 21.43 1.0498 23.03 1.1798 24.57C1.2998 26.02 1.61978 27.81 2.03978 29.24C2.45978 30.65 3.29976 31.86 4.01976 33.12C4.40976 33.8 4.55978 34.72 5.03978 35.33C5.50978 35.93 6.28978 36.17 6.78978 36.74C7.79978 37.89 8.53985 39.39 9.47985 40.62C11.8198 43.66 14.7998 47.08 18.3498 48.59C19.5098 49.08 20.6898 49.88 21.8298 50.47C22.6798 50.91 25.2897 51.17 27.6297 51.32C29.6797 51.72 31.5797 51.88 33.7497 51.03C35.9297 50.18 37.6698 48.13 39.0598 46.36C40.4898 44.53 42.2698 42.53 43.1798 40.37C43.7798 38.96 45.8998 35.95 46.3198 35.36C46.9098 34.51 47.2398 32.21 47.5498 31.24C47.6798 30.85 48.4699 29.12 48.6099 28.74C49.0699 27.44 48.5398 26.69 48.2298 25.27H48.2198Z" fill="#DF485D"/>
<path d="M20.6498 22.35C20.8098 22.41 20.9597 22.44 21.1197 22.44C21.9297 22.44 22.4498 21.56 22.6098 20.68C22.7598 19.85 22.7598 19.03 22.5898 18.3C22.5198 17.98 22.3598 17.51 22.0998 17.16C21.7798 16.71 21.4598 16.62 21.2398 16.62C21.1498 16.62 21.0598 16.64 20.9698 16.67C19.8398 17.06 19.7398 18.54 19.6798 19.34V19.48C19.6098 20.44 19.4998 21.9 20.6498 22.35Z" fill="#2F272E"/>
<path d="M27.0599 22.71C27.1799 22.73 27.2798 22.74 27.3798 22.74C27.7398 22.74 27.9998 22.6 28.2898 22.25C28.8798 21.55 29.4198 20.16 29.2798 19.14C29.1998 18.62 29.0299 18.1 28.8099 17.74C28.5499 17.32 28.2498 17.24 28.0398 17.24C27.3598 17.24 26.7898 18.13 26.6298 18.4C26.3698 18.84 26.2298 19.65 26.1798 20.22C26.1798 20.24 26.0099 22.52 27.0599 22.72V22.71Z" fill="#2F272E"/>
<path d="M32.3298 22.52C31.9798 26.78 28.9698 31.37 24.6998 31.37C24.5598 31.37 24.4298 31.37 24.2898 31.36C18.8598 31 16.4498 25.8 16.0098 21.05C15.9598 20.5 15.4898 20.21 15.0598 20.21C14.7998 20.21 14.5698 20.3099 14.4098 20.4799C14.2998 20.5899 14.1899 20.8 14.2199 21.11C14.5199 24.34 15.3799 26.92 16.8399 28.9799C18.5099 31.36 21.1498 32.83 24.2698 33.15C24.5098 33.18 24.7499 33.1899 24.9799 33.1899C30.3799 33.1899 33.7598 27.0099 34.1198 22.5399C34.1398 22.2999 34.0798 22.08 33.9198 21.92C33.4998 21.47 32.3898 21.64 32.3198 22.52H32.3298Z" fill="#2F272E"/>
<path fill-rule="evenodd" clip-rule="evenodd" d="M48.8298 65.2899C49.1798 62.4299 49.4798 62.08 48.8898 59.84C48.3298 57.75 47.3498 55.83 46.8098 53.74C46.2798 51.7 45.4599 49.94 43.4899 48.92C41.4999 47.89 40.2698 46.0999 38.4298 44.9999C36.7598 43.9999 35.2299 42.74 33.4699 41.95C30.9399 40.82 28.1398 40.6499 25.4198 40.1599C22.4098 39.6199 19.9199 40.51 17.7099 42.49C16.5499 43.53 15.2498 44.44 14.2498 45.61C12.6598 47.45 10.6898 49.02 10.1198 51.64C9.00977 56.75 3.51981 58.4899 3.90981 64.4099C4.11981 67.3999 4.66985 69.7899 6.69985 71.9099C7.11985 72.3499 7.47983 72.99 7.55983 73.59C8.18983 77.99 10.9398 81.2499 13.9298 84.0399C16.9598 86.8599 20.8899 88.43 25.1099 88.89C27.3499 89.14 29.6099 89.53 31.8299 89.39C35.1999 89.17 38.4098 88.01 40.9498 85.8C42.2498 84.67 43.9399 83.86 44.9899 82.45C46.2099 80.81 45.6898 78.9899 46.5198 77.2499C47.1298 75.9799 47.9898 74.99 48.4198 73.59C49.1398 71.2 48.9499 68.51 48.8599 65.31L48.8298 65.2899Z" fill="#33B2C1"/>
<path d="M22.9198 62.96C23.8698 62.8 24.6098 62.3399 24.9498 61.6899C25.2498 61.1199 25.2398 60.4399 24.9098 59.6999C24.7598 59.3699 24.4398 59.1999 24.0898 59.2599C23.8398 59.2999 23.6197 59.4599 23.4997 59.6699C23.3897 59.8699 23.3899 60.0999 23.4899 60.3199C23.6199 60.5999 23.6298 60.84 23.5298 61.03C23.4098 61.26 23.0998 61.4299 22.6998 61.4999C22.0398 61.6099 21.2898 61.45 20.8998 61.11C20.7198 60.95 20.6298 60.75 20.6398 60.53C20.6598 60.28 20.5698 60.0699 20.3898 59.9099C20.1998 59.7399 19.9298 59.6599 19.6798 59.6999C19.3398 59.7599 19.1198 60.01 19.0998 60.36C19.0598 61.11 19.3098 61.76 19.8398 62.24C20.5598 62.88 21.7598 63.1699 22.9098 62.9699L22.9198 62.96Z" fill="#2F272E"/>
<path d="M29.2697 62.52C29.4097 62.52 29.5398 62.5 29.6698 62.48C31.1398 62.23 32.1098 60.84 31.9598 59.16C31.9398 58.95 31.8398 58.77 31.6898 58.65C31.5298 58.53 31.3098 58.48 31.0898 58.52C30.7298 58.58 30.3798 58.89 30.4298 59.37C30.5198 60.37 29.8798 60.84 29.2398 60.95C28.4798 61.08 27.5798 60.72 27.3198 59.79C27.1098 59.05 26.1497 59.06 25.8697 59.51C25.7997 59.62 25.7298 59.8 25.7998 60.06C26.2398 61.64 27.5797 62.59 29.2797 62.52H29.2697Z" fill="#2F272E"/>
<path d="M36.5298 61.05C36.3498 60.87 36.0798 60.79 35.8198 60.84C35.4898 60.9 35.2498 61.1399 35.1898 61.4699C34.7998 63.6599 33.7798 65.3599 32.1598 66.5399C30.8898 67.4599 29.1698 68.0199 27.0198 68.1899C24.8798 68.3499 23.0499 67.8 21.7299 67.4C19.7799 66.82 18.5398 65.5299 17.5098 63.9099C17.3498 63.6599 17.0998 63.54 16.8198 63.59C16.5598 63.64 16.3198 63.83 16.1998 64.08C16.0898 64.32 16.1098 64.6 16.2598 64.83C18.8898 68.98 22.6798 70.08 27.3998 69.71C27.7998 69.68 28.1999 69.6299 28.5899 69.5699C30.3599 69.2699 31.9398 68.6199 33.2598 67.6699C35.5398 66.0199 36.4099 63.5099 36.7299 61.6899C36.7699 61.4499 36.7098 61.22 36.5498 61.06L36.5298 61.05Z" fill="#2F272E"/>
<path fill-rule="evenodd" clip-rule="evenodd" d="M90.0499 63.08C89.8599 60.93 89.5499 58.73 88.8499 56.7C88.2499 54.94 87.0399 53.59 86.3099 51.91C85.3899 49.78 85.7098 48.59 83.7698 47.05C83.0198 46.46 82.4599 45.51 81.6799 44.99C80.8199 44.41 79.6799 44.47 78.7099 44.1899C77.2899 43.7699 76.0699 42.9 74.6899 42.4399C73.3299 41.9899 71.9599 42.2399 70.5899 41.9399C69.5899 41.7199 69.0198 40.84 68.1298 40.4C67.1398 39.92 65.9598 39.93 64.8898 39.73C59.2798 38.69 53.8298 43.83 50.1398 47.34C48.4798 48.92 46.8298 50.2899 46.0298 52.4999C45.3498 54.3899 43.9798 56.68 43.8698 58.67C43.7098 61.61 46.2598 63.9799 45.2798 66.9699C44.5698 67.2899 44.6999 69.06 44.9199 69.85C45.2499 70.98 46.1899 71.67 46.7999 72.61C47.7199 74.02 47.8698 75.75 48.8698 77.18C49.9398 78.71 51.3399 80.05 52.8299 81.18C54.2499 82.26 55.6599 83.37 57.0599 84.46C58.4299 85.52 59.5299 87.03 61.2099 87.62C66.6799 89.55 76.6298 91.55 80.5398 85.85C81.3798 84.63 82.7299 83.58 83.5999 82.23C85.3399 79.57 86.9998 76.18 87.7598 73.09C88.1698 71.42 88.3698 69.71 88.8798 68.07C89.3598 66.5 90.1899 65.06 90.0499 63.37C90.0499 63.27 90.0298 63.18 90.0198 63.08H90.0499Z" fill="#FFD54C"/>
<path d="M57.3498 59.1599C57.4598 59.3199 57.6297 59.4299 57.7897 59.4699C57.9797 59.5799 58.1897 59.6299 58.4097 59.6299C58.7797 59.6299 59.0798 59.4999 59.3198 59.2499C59.8298 58.7099 59.8398 57.75 59.8198 57.36C59.7898 56.88 59.7497 56.34 59.4997 55.89C59.4397 55.64 59.3498 55.3999 59.2198 55.1899C59.1898 55.0999 59.1498 55.0299 59.1098 54.9799C59.0398 54.7399 58.8998 54.53 58.6798 54.36C58.5798 54.21 58.4397 54.0899 58.2497 53.9799L58.1798 53.9399C57.8598 53.7599 57.5297 53.58 57.1597 53.58C56.9497 53.58 56.7397 53.64 56.5297 53.77C55.4597 54.41 55.8497 55.67 56.0297 56.28C56.3997 57.5 56.8197 58.3899 57.3697 59.1599H57.3498Z" fill="#2F272E"/>
<path d="M62.0298 56.36C62.0298 56.36 62.0398 56.4 62.0598 56.42C62.7798 57.13 64.9998 58.15 65.1498 58.17C65.5098 58.23 65.9698 58.29 66.4498 58.29C67.0098 58.29 67.4898 58.2 67.9198 58.03C68.3298 57.86 68.5498 57.43 68.4698 56.99C68.3698 56.47 67.8497 56.18 67.3697 56.37C66.9597 56.54 66.4898 56.5799 65.8198 56.4999C65.6798 56.3599 65.1898 56.27 65.1898 56.27C65.1498 56.27 65.1098 56.27 65.0598 56.27C65.9698 56.21 66.8898 56.0199 67.7098 55.4399C68.0398 55.2099 68.1598 54.8199 68.0398 54.4399C67.8698 53.8999 67.2698 53.65 66.8098 53.98C66.1498 54.45 65.3898 54.5499 64.6798 54.5699C65.1298 54.1599 65.6198 53.83 66.1898 53.71C66.6098 53.61 66.8598 53.26 66.8098 52.83C66.7598 52.39 66.3397 51.91 65.7497 52.04C64.3497 52.36 63.3698 53.41 62.4198 54.42C62.2298 54.62 62.0398 54.82 61.8498 55.01C61.6098 55.26 61.5398 55.5999 61.6698 55.9099C61.7498 56.0899 61.8798 56.23 62.0298 56.33V56.36Z" fill="#2F272E"/>
<path d="M71.1998 56.88C71.1198 56.85 71.0398 56.85 70.9498 56.85C70.4898 56.85 70.1898 57.23 70.1398 57.61C70.0898 57.98 70.2599 58.4 70.7399 58.54C71.6599 58.8 72.0199 59.18 71.9699 59.87C71.9099 60.74 71.2598 61.64 70.6498 62.41C69.0898 64.38 67.5999 65.6 66.2299 66.03C65.5699 66.24 64.7299 66.34 63.8299 66.34C61.6999 66.34 58.6498 65.7 57.0598 63.91C56.3198 63.08 56.0098 62.09 56.1398 60.99C56.1698 60.69 56.0699 60.5 55.9599 60.39C55.5699 59.96 54.5198 60.1 54.4198 60.94C53.6498 67.09 62.6299 69.21 67.0899 67.55C70.2799 66.36 77.7199 58.67 71.2099 56.88H71.1998Z" fill="#2F272E"/>
</svg>