<?xml version="1.0" encoding="utf-8"?>
<!-- Generator: Adobe Illustrator 26.5.2, SVG Export Plug-In . SVG Version: 6.00 Build 0)  -->
<svg version="1.1" id="Layer_1" xmlns="http://www.w3.org/2000/svg" xmlns:xlink="http://www.w3.org/1999/xlink" x="0px" y="0px"
	 viewBox="0 0 20 20" style="enable-background:new 0 0 20 20;" xml:space="preserve">
<style type="text/css">
	.st0{fill:#FFFFFF;}
</style>
<g>
	<path class="st0" d="M12.53,2c0.05,0,0.1,0.02,0.14,0.06c0.04,0.04,0.06,0.09,0.06,0.15c-0.05,3.31-3.16,3.84-3.2,3.85
		c-0.01,0-0.02,0-0.03,0H5.52c-0.06,0-0.11-0.02-0.15-0.07c-0.04-0.04-0.06-0.1-0.05-0.16C5.59,2.51,8.72,2.01,8.76,2L12.53,2
		 M15.64,7.7c1.3,0,2.36,1.11,2.36,2.47c0,1.36-1.06,2.47-2.36,2.47h-1.57C13.77,14.4,12.59,18,8.09,18C2.12,18,2,11.69,2,11.69V7.9
		C2,7.79,2.09,7.7,2.2,7.7h9.81h1.97H15.64 M15.59,11.35c0.63,0,1.14-0.54,1.14-1.2c0-0.66-0.51-1.2-1.14-1.2
		c-0.63,0-1.14,0.54-1.14,1.2C14.44,10.82,14.96,11.35,15.59,11.35 M12.53,0.7C12.53,0.7,12.53,0.7,12.53,0.7l-3.78,0
		c-0.07,0-0.13,0.01-0.2,0.02C7.11,0.94,4.3,2.27,4.02,5.73C4,5.96,4.04,6.19,4.12,6.4H2.2c-0.83,0-1.5,0.68-1.5,1.51v3.79
		c0.05,2.65,1.66,7.61,7.39,7.61c3.5,0,6.05-1.98,7.02-5.36h0.54c2.02,0,3.66-1.69,3.66-3.77c0-2.08-1.64-3.77-3.66-3.77h-1.66
		h-1.97h-0.05c1.08-0.79,2.04-2.11,2.07-4.16c0.01-0.39-0.14-0.77-0.4-1.05C13.34,0.87,12.94,0.7,12.53,0.7L12.53,0.7z"/>
</g>
</svg>
