<svg width="188" height="188" viewBox="0 0 188 188" fill="none" xmlns="http://www.w3.org/2000/svg">
<path d="M94 187.128C145.362 187.128 187 145.49 187 94.1279C187 42.7654 145.362 1.12793 94 1.12793C42.6375 1.12793 1 42.7654 1 94.1279C1 145.49 42.6375 187.128 94 187.128Z" fill="#EBEBEB"/>
<path d="M118.91 34.0326C120.544 34.0326 121.869 32.7076 121.869 31.0731C121.869 29.4386 120.544 28.1135 118.91 28.1135C117.275 28.1135 115.95 29.4386 115.95 31.0731C115.95 32.7076 117.275 34.0326 118.91 34.0326Z" fill="#FFF58C" stroke="#181919" stroke-miterlimit="10" stroke-linecap="round" stroke-linejoin="round"/>
<path d="M78.8115 34.0326C80.446 34.0326 81.7711 32.7076 81.7711 31.0731C81.7711 29.4386 80.446 28.1135 78.8115 28.1135C77.177 28.1135 75.8519 29.4386 75.8519 31.0731C75.8519 32.7076 77.177 34.0326 78.8115 34.0326Z" fill="#FFF58C" stroke="#181919" stroke-miterlimit="10" stroke-linecap="round" stroke-linejoin="round"/>
<path d="M100.084 16.2956L101.933 21.9887C102.098 22.523 102.591 22.8724 103.146 22.8724H109.127C110.36 22.8724 110.874 24.455 109.887 25.1743L105.037 28.6888C104.585 29.0176 104.4 29.5931 104.564 30.1069L106.414 35.8C106.804 36.9714 105.448 37.958 104.441 37.2181L99.5904 33.7036C99.1383 33.3748 98.5422 33.3748 98.0901 33.7036L93.2397 37.2181C92.2326 37.9374 90.8967 36.9714 91.2666 35.8L93.1164 30.1069C93.2808 29.5725 93.0958 28.9971 92.6437 28.6888L87.7933 25.1743C86.7862 24.455 87.3 22.8724 88.5537 22.8724H94.5345C95.0894 22.8724 95.5827 22.523 95.7471 21.9887L97.5968 16.2956C98.0284 15.1036 99.6932 15.1036 100.084 16.2956Z" fill="#FFF58C" stroke="#181919" stroke-miterlimit="10" stroke-linecap="round" stroke-linejoin="round"/>
<path d="M118.91 34.0326C120.544 34.0326 121.869 32.7076 121.869 31.0731C121.869 29.4386 120.544 28.1135 118.91 28.1135C117.275 28.1135 115.95 29.4386 115.95 31.0731C115.95 32.7076 117.275 34.0326 118.91 34.0326Z" fill="#FFF58C" stroke="#181919" stroke-miterlimit="10" stroke-linecap="round" stroke-linejoin="round"/>
<path d="M78.8115 34.0326C80.446 34.0326 81.7711 32.7076 81.7711 31.0731C81.7711 29.4386 80.446 28.1135 78.8115 28.1135C77.177 28.1135 75.8519 29.4386 75.8519 31.0731C75.8519 32.7076 77.177 34.0326 78.8115 34.0326Z" fill="#FFF58C" stroke="#181919" stroke-miterlimit="10" stroke-linecap="round" stroke-linejoin="round"/>
<path d="M100.084 16.2956L101.933 21.9887C102.098 22.523 102.591 22.8724 103.146 22.8724H109.127C110.36 22.8724 110.874 24.455 109.887 25.1743L105.037 28.6888C104.585 29.0176 104.4 29.5931 104.564 30.1069L106.414 35.8C106.804 36.9714 105.448 37.958 104.441 37.2181L99.5904 33.7036C99.1383 33.3748 98.5422 33.3748 98.0901 33.7036L93.2397 37.2181C92.2326 37.9374 90.8967 36.9714 91.2666 35.8L93.1164 30.1069C93.2808 29.5725 93.0958 28.9971 92.6437 28.6888L87.7933 25.1743C86.7862 24.455 87.3 22.8724 88.5537 22.8724H94.5345C95.0894 22.8724 95.5827 22.523 95.7471 21.9887L97.5968 16.2956C98.0284 15.1036 99.6932 15.1036 100.084 16.2956Z" fill="#FFF58C" stroke="#181919" stroke-miterlimit="10" stroke-linecap="round" stroke-linejoin="round"/>
<mask id="mask0_645_3664" style="mask-type:luminance" maskUnits="userSpaceOnUse" x="5" y="43" width="73" height="73">
<path d="M75.503 115.462C75.2358 114.578 74.4754 113.961 73.7561 113.386C72.6873 112.523 71.6186 111.68 70.5499 110.817C69.2962 109.81 68.0425 108.803 66.6449 108.001C61.8562 105.206 56.0604 104.939 50.7989 103.192C49.0931 102.616 47.4283 101.897 46.0307 100.767C43.215 98.5264 41.7353 95.0119 40.5843 91.6002C39.4334 88.1885 38.4469 84.6124 36.2478 81.7556C34.1925 80.3169 32.1989 78.8371 29.8559 78.2616C25.9099 77.2957 21.7172 79.0837 17.7505 78.2C16.6407 77.9534 15.5925 77.5012 14.606 76.9463C10.0434 74.4594 6.48777 69.8351 5.99451 64.6559C7.86478 56.7432 11.5642 49.3854 16.7024 43.8157C16.2502 48.5222 15.7775 53.2904 16.7024 57.9352C17.6272 62.5801 20.1141 67.1222 24.2657 69.3624C28.6228 71.7259 34.398 71.4588 37.8097 75.0349C38.6318 75.8981 39.2279 76.9052 39.8445 77.9328C41.6942 81.0362 43.5645 84.1602 44.8387 87.5308C45.6197 89.6066 46.1952 91.8057 47.3461 93.6966C48.7848 96.0806 51.1278 97.9304 53.9023 98.7525C55.0738 100.438 57.3757 100.808 59.4104 101.054C62.5138 101.424 65.6789 101.876 68.474 103.315C70.591 104.404 72.3791 106.028 74.0438 107.713C75.2153 108.885 77.7638 111.372 77.9076 113.078C78.0515 114.085 76.3662 114.085 75.503 115.462Z" fill="white"/>
</mask>
<g mask="url(#mask0_645_3664)">
<path d="M6.20027 1.70361L-20.6207 53.4137" stroke="black" stroke-miterlimit="10"/>
<path d="M10.619 7.82837L-16.1814 59.5384" stroke="black" stroke-miterlimit="10"/>
<path d="M15.0584 13.9734L-11.7421 65.6629" stroke="black" stroke-miterlimit="10"/>
<path d="M19.4977 20.0979L-7.30273 71.808" stroke="black" stroke-miterlimit="10"/>
<path d="M23.937 26.2229L-2.8634 77.933" stroke="black" stroke-miterlimit="10"/>
<path d="M28.3764 32.3474L1.57593 84.0575" stroke="black" stroke-miterlimit="10"/>
<path d="M32.8157 38.4927L6.01532 90.1822" stroke="black" stroke-miterlimit="10"/>
<path d="M37.2551 44.6172L10.4547 96.3272" stroke="black" stroke-miterlimit="10"/>
<path d="M41.6944 50.7419L14.894 102.452" stroke="black" stroke-miterlimit="10"/>
<path d="M46.1337 56.8665L19.3333 108.577" stroke="black" stroke-miterlimit="10"/>
<path d="M50.5736 63.0117L23.7731 114.701" stroke="black" stroke-miterlimit="10"/>
<path d="M55.0124 69.1365L28.212 120.847" stroke="black" stroke-miterlimit="10"/>
<path d="M59.4516 75.2612L32.6306 126.971" stroke="black" stroke-miterlimit="10"/>
<path d="M63.8915 81.4062L37.0704 133.096" stroke="black" stroke-miterlimit="10"/>
<path d="M68.3303 87.5308L41.5093 139.241" stroke="black" stroke-miterlimit="10"/>
<path d="M72.7696 93.6555L45.9486 145.366" stroke="black" stroke-miterlimit="10"/>
<path d="M77.2094 99.78L50.3884 151.49" stroke="black" stroke-miterlimit="10"/>
<path d="M81.6482 105.925L54.8273 157.615" stroke="black" stroke-miterlimit="10"/>
<path d="M86.0881 112.05L59.2672 163.76" stroke="black" stroke-miterlimit="10"/>
</g>
<path d="M140.182 94.3336C142.689 92.6688 144.148 89.812 145.032 86.9552C145.937 84.0779 146.368 81.0772 147.416 78.2615C149.842 71.767 155.226 66.8549 160.775 62.6828C165.174 59.3738 170.024 56.0649 172.038 50.9473C172.696 49.262 173.004 47.4534 173.847 45.8708C170.168 37.9376 164.269 31.8951 158.494 26.0377C157.384 24.9073 156.254 23.7769 154.959 22.8521C150.129 24.7223 146.204 28.4218 143.429 32.6967C140.655 36.9716 138.908 41.822 137.243 46.6518C136.791 47.9877 136.318 49.3648 136.359 50.7829C136.4 52.3038 136.996 53.8452 136.565 55.3044C135.558 60.7714 135.948 66.485 138.353 71.3559C138.969 72.5891 139.709 73.8017 139.976 75.1376C140.182 76.1446 140.141 77.1928 140.305 78.2204C140.49 79.3097 140.922 80.3579 141.086 81.4677C141.538 84.5917 139.709 87.6129 137.551 89.9354C136.852 90.6753 136.112 91.3946 135.167 91.8056C132.824 92.8333 130.173 91.6001 127.809 90.593C123.678 88.8461 119.198 87.7157 114.697 87.9007C110.196 88.0856 105.695 89.6682 102.406 92.7305C100.474 94.5391 99.0358 96.7999 97.7821 99.1429C96.3434 101.835 95.1308 104.671 94.2676 108.022C95.0897 108.083 95.9529 107.59 96.7339 107.878C96.96 107.96 97.1449 108.104 97.371 108.165C97.6588 108.268 97.967 108.227 98.2753 108.227C99.6524 108.186 101.05 108.535 102.427 109.769C103.619 106.48 105.756 103.562 108.531 101.445C109.415 100.767 110.381 100.17 111.429 99.7594C112.95 99.184 114.615 99.0401 116.238 98.9168C121.048 98.5468 125.857 98.2797 130.687 98.0947C132.434 98.033 134.222 97.9714 135.886 97.3959C137.592 96.8616 138.702 95.3201 140.182 94.3336Z" fill="white"/>
<mask id="mask1_645_3664" style="mask-type:luminance" maskUnits="userSpaceOnUse" x="94" y="23" width="80" height="88">
<path d="M140.182 94.6212C142.689 92.9564 144.148 90.0996 145.032 87.2428C145.937 84.3655 146.368 81.3648 147.416 78.5491C149.842 72.0546 155.226 67.1425 160.775 62.9704C165.174 59.6614 170.024 56.3525 172.038 51.2349C172.696 49.5496 173.004 47.741 173.847 46.1584C170.168 38.2252 164.269 32.1827 158.494 26.3253C157.384 25.1949 156.254 24.0645 154.959 23.1396C150.129 25.0099 146.204 28.7094 143.429 32.9843C140.655 37.2592 138.908 42.1096 137.243 46.9394C136.791 48.2753 136.318 49.6524 136.359 51.0705C136.4 52.5914 136.996 54.1328 136.565 55.592C135.558 61.059 135.948 66.7726 138.353 71.6435C138.969 72.8767 139.709 74.0893 139.976 75.4252C140.182 76.4322 140.141 77.4804 140.305 78.508C140.49 79.5973 140.922 80.6455 141.086 81.7553C141.538 84.8793 139.709 87.9005 137.551 90.223C136.852 90.9628 136.112 91.6822 135.167 92.0932C132.824 93.1209 130.173 91.8877 127.809 90.8806C123.678 89.1337 119.198 88.0033 114.697 88.1883C110.196 88.3732 105.695 89.9558 102.406 93.0181C100.474 94.8267 99.0358 97.0875 97.7821 99.4305C96.3434 102.123 95.1308 104.959 94.2676 108.309C95.0897 108.371 95.9529 107.878 96.7339 108.165C96.96 108.247 97.1449 108.391 97.371 108.453C97.6588 108.556 97.967 108.515 98.2753 108.515C99.6524 108.474 101.05 108.823 102.427 110.056C103.619 106.768 105.756 103.849 108.531 101.732C109.415 101.054 110.381 100.458 111.429 100.047C112.95 99.4716 114.615 99.3277 116.238 99.2044C121.048 98.8345 125.857 98.5673 130.687 98.3823C132.434 98.3206 134.222 98.259 135.886 97.6835C137.592 97.1491 138.702 95.6077 140.182 94.6212Z" fill="white"/>
</mask>
<g mask="url(#mask1_645_3664)">
<path d="M172.716 0.470459L199.516 52.1805" stroke="black" stroke-miterlimit="10"/>
<path d="M168.236 5.54688L195.057 57.2569" stroke="black" stroke-miterlimit="10"/>
<path d="M163.776 10.6233L190.576 62.3128" stroke="black" stroke-miterlimit="10"/>
<path d="M159.295 15.6997L186.096 67.3892" stroke="black" stroke-miterlimit="10"/>
<path d="M154.815 20.7556L181.636 72.4657" stroke="black" stroke-miterlimit="10"/>
<path d="M150.355 25.8323L177.155 77.5423" stroke="black" stroke-miterlimit="10"/>
<path d="M145.874 30.9087L172.695 82.6187" stroke="black" stroke-miterlimit="10"/>
<path d="M141.394 35.9851L168.215 87.6952" stroke="black" stroke-miterlimit="10"/>
<path d="M136.934 41.0615L163.735 92.7716" stroke="black" stroke-miterlimit="10"/>
<path d="M132.454 46.1379L159.275 97.8274" stroke="black" stroke-miterlimit="10"/>
<path d="M127.994 51.2146L154.794 102.904" stroke="black" stroke-miterlimit="10"/>
<path d="M123.514 56.2703L150.314 107.98" stroke="black" stroke-miterlimit="10"/>
<path d="M119.033 61.3469L145.854 113.057" stroke="black" stroke-miterlimit="10"/>
<path d="M114.573 66.4236L141.373 118.134" stroke="black" stroke-miterlimit="10"/>
<path d="M110.093 71.4998L136.914 123.21" stroke="black" stroke-miterlimit="10"/>
<path d="M105.612 76.5762L132.433 128.286" stroke="black" stroke-miterlimit="10"/>
<path d="M101.152 81.6528L127.953 133.342" stroke="black" stroke-miterlimit="10"/>
<path d="M96.6719 86.7087L123.493 138.419" stroke="black" stroke-miterlimit="10"/>
<path d="M92.2119 91.7852L119.012 143.495" stroke="black" stroke-miterlimit="10"/>
<path d="M87.7311 96.8616L114.532 148.572" stroke="black" stroke-miterlimit="10"/>
<path d="M83.2508 101.938L110.072 153.648" stroke="black" stroke-miterlimit="10"/>
</g>
<path d="M84.7722 109.83C86.2315 109.481 87.6907 109.111 89.006 108.741C87.8757 105.473 86.7864 102.144 86.5397 98.7113C86.2931 95.2585 87.0124 91.6412 89.1499 88.9283C92.2327 85.0439 97.4736 83.8107 101.872 81.5089C105.756 79.4742 109.127 76.453 111.552 72.8152C113.237 70.2872 114.532 67.266 114.039 64.2653C113.751 62.5184 112.888 60.9153 112.004 59.3738C109.764 55.4278 107.051 51.2556 102.632 50.0841C95.5006 46.4052 87.0124 46.8163 79.0381 47.7411C75.5647 48.1522 72.1119 48.6249 68.7618 49.5908C60.1709 52.0777 52.7926 57.5447 45.6403 62.8883C45.1265 63.2788 44.5921 63.6899 44.3249 64.2859C44.0988 64.7997 44.1194 65.3957 44.1605 65.9712C44.5716 70.6366 46.7501 74.9115 48.9081 79.0837C50.1207 81.4267 51.3538 83.7902 53.2241 85.6399C55.2794 87.6746 57.9718 88.9489 60.6847 89.9559C63.747 91.0658 66.9121 91.8673 70.1183 92.3606C71.8242 92.6072 73.5917 92.7922 75.0715 93.6759C76.3868 94.4775 77.3322 95.7517 78.216 97.0054C80.7439 100.582 84.0117 110.18 84.0117 110.18L84.7722 109.83Z" fill="#FFF58C"/>
<path d="M140.347 76.2062C139.586 76.309 138.805 76.3707 138.004 76.3707C128.406 76.3707 120.637 68.6018 120.637 59.0038C120.637 49.4058 128.406 41.637 138.004 41.637C138.353 41.637 138.394 41.7192 138.764 41.7397" stroke="black" stroke-miterlimit="10" stroke-linecap="round" stroke-linejoin="round"/>
<path d="M155.206 23.9823C146.204 27.7023 139.195 35.9644 137.017 45.4597C134.283 57.4007 138.826 69.6089 141.826 81.4882C141.765 84.6327 140.716 87.7362 138.641 89.8531C136.544 91.97 133.461 93.0387 130.502 92.7099C126.7 92.2577 123.493 89.6886 119.773 88.8049C116.752 88.0856 113.567 88.5583 110.525 89.2365C108.12 89.7914 105.715 90.4902 103.619 91.8056C98.1316 95.2378 95.8708 102.205 95.7475 108.679C93.5484 108.124 91.7192 108.371 90.0956 109.09C87.6704 107.508 87.1565 104.754 86.8483 102.267C86.2933 98.1563 85.8412 93.6347 88.0814 90.1614C89.8078 87.4895 92.788 85.9481 95.6242 84.53C98.9948 82.8447 102.365 81.1594 105.736 79.4946C108.017 78.3642 110.36 77.1516 111.922 75.1375C113.608 72.9384 114.101 70.061 114.101 67.2864C114.101 63.7103 113.32 60.0725 111.45 57.0307C109.189 53.3519 105.469 50.7006 101.42 49.2002C97.3711 47.6999 92.9935 47.2683 88.6775 47.2683C72.0299 47.3094 55.4852 54.1123 43.6264 65.7861C41.4889 55.1399 41.7561 45.6652 42.0644 36.4166C42.2905 29.1205 42.5782 21.6394 44.839 15.0215C69.132 -0.166828 100.721 -3.04418 127.604 7.17041C137.695 11.5686 147.231 17.3028 155.206 23.9823Z" fill="#B180E0"/>
<path d="M182.253 66.3823C182.294 61.5114 178.82 57.4009 176.991 52.8794C176.005 50.4336 175.47 47.7412 173.806 45.7065C172.963 50.3925 170.805 55.5306 167.332 58.6341C163.858 61.7375 159.809 64.1216 156.13 66.9784C152.452 69.8352 149.019 73.288 147.437 77.6657C146.019 81.6117 146.162 86.0716 144.272 89.8122C142.504 93.3061 139.092 95.7518 135.434 97.0878C131.755 98.4237 127.809 98.7936 123.904 98.958C119.753 99.143 115.519 99.1636 111.634 100.582C107.729 102 104.174 105.165 103.126 109.255C106.558 111.002 109.785 113.16 112.724 115.626C115.724 112.358 119.67 108.166 123.822 106.583C126.062 105.72 130.049 104.836 130.049 104.836C130.049 104.836 135.187 104.158 137.777 103.377C139.915 102.719 141.661 101.733 143.306 100.191C147.704 96.1218 147.272 89.545 150.581 84.5507C152.267 81.9817 155 80.2347 157.919 79.2482C160.837 78.2617 163.92 77.9739 166.982 77.8095C168.483 77.7273 169.983 77.6862 171.421 77.3163C176.662 76.0626 182.212 71.6027 182.253 66.3823Z" fill="#FF88B6"/>
<path d="M42.6811 17.6523C33.1037 22.3177 25.6637 30.4771 19.4363 39.1297C18.3675 40.6094 17.3194 42.1509 16.8261 43.9184C16.3534 45.6037 16.4356 47.3918 16.5384 49.1593C16.7028 52.0777 16.8877 54.9756 17.1138 57.8941C17.2166 59.3328 17.3605 60.8331 17.977 62.1279C18.5936 63.4227 19.6418 64.4503 20.69 65.4163C22.8069 67.3688 25.0676 69.2391 27.6367 70.5544C30.1235 71.8287 32.8365 72.5686 35.3233 73.8223C37.8102 75.076 40.1737 76.9874 40.5848 79.6386C44.8802 83.9135 44.2225 91.3946 48.2508 95.9162C50.6144 98.588 54.2521 99.7595 57.7461 100.438C61.2605 101.116 64.8778 101.424 68.1662 102.822C72.9344 104.877 76.6133 109.316 77.7642 114.681C78.3191 113.365 79.4701 112.399 80.7032 111.701C81.9364 111.002 83.2928 110.55 84.5465 109.645C81.4431 104.63 80.621 97.9509 75.8939 94.4364C71.9479 91.4768 66.5426 91.7235 61.7744 90.4492C56.1019 88.9283 51.0871 85.0028 47.6137 79.8853C46.6066 77.7478 45.7229 75.5487 44.7569 73.1235C44.017 64.1009 41.4069 55.2428 41.448 46.1792C41.4685 42.8086 41.859 39.438 42.2495 36.0674C43.0511 29.2234 43.8526 22.3383 45.4557 15.6382C44.4486 16.4603 43.4621 17.2618 42.6811 17.6523Z" fill="#56B381"/>
<path d="M6.42625 63.8337C6.30294 70.7394 11.9138 77.2956 18.7783 78.2205C22.2928 78.6932 25.91 77.8505 29.4039 78.5082C32.4046 79.0837 35.1792 80.8307 37.0083 83.2764C40.8105 88.3734 40.4612 95.9984 45.0855 100.376C49.3809 104.445 56.0605 104.014 61.7741 105.576C67.4055 107.097 72.3997 110.837 75.462 115.79" stroke="black" stroke-miterlimit="10" stroke-linecap="round" stroke-linejoin="round"/>
<path d="M182.13 63.8337C182.253 70.7394 176.642 77.2956 169.777 78.2205C166.263 78.6932 162.646 77.8505 159.152 78.5082C156.151 79.0837 153.377 80.8307 151.547 83.2764C147.745 88.3734 148.095 95.9984 143.47 100.376C139.175 104.445 132.495 104.014 126.782 105.576C121.15 107.097 116.156 110.837 113.094 115.79" stroke="black" stroke-miterlimit="10" stroke-linecap="round" stroke-linejoin="round"/>
<path d="M95.1104 107.24C95.4392 101.157 98.7687 95.2994 103.804 91.8877C108.839 88.4759 115.498 87.5511 121.274 89.483C126.021 91.0656 130.81 94.4978 135.537 92.8947C139.812 91.4561 141.826 86.3385 141.538 81.858C141.251 77.3571 139.257 73.1643 137.962 68.8483C134.838 58.4488 135.845 46.8777 140.696 37.1564C143.614 31.2989 148.341 25.832 154.713 24.2905" stroke="black" stroke-miterlimit="10" stroke-linecap="round" stroke-linejoin="round"/>
<path d="M172.757 44.3914C174.443 57.7505 161.844 61.2855 150.561 72.5688C145.751 77.5631 147.334 84.6537 143.84 90.655C135.146 106.706 111.573 91.2099 103.126 108.063" stroke="black" stroke-miterlimit="10" stroke-linecap="round" stroke-linejoin="round"/>
<path d="M45.2084 15.3298C41.3034 31.1552 40.728 47.7822 43.5231 63.8543C44.5302 69.6501 46.0099 75.4664 49.1134 80.4607C52.2168 85.4549 57.1083 89.586 62.8835 90.6136C65.0415 91.0041 67.2612 90.9424 69.3987 91.4357C73.3037 92.34 76.6126 95.0324 78.9556 98.2591C81.2986 101.506 82.7578 105.288 83.991 109.09" stroke="black" stroke-miterlimit="10" stroke-linecap="round" stroke-linejoin="round"/>
<path d="M17.1136 42.9316C16.456 47.6587 15.7777 52.468 16.4971 57.1951C17.2164 61.9221 19.5594 66.6081 23.6493 69.0744C26.6705 70.883 30.3083 71.3146 33.5556 72.7327C38.1594 74.7469 41.7972 78.8779 43.2358 83.7078C43.8935 85.9274 44.0991 88.2499 44.839 90.449C46.1954 94.5184 49.4222 97.9095 53.4093 99.4921C56.9444 100.89 60.8699 100.89 64.5488 101.876C70.3651 103.438 75.4005 107.651 77.9695 113.077" stroke="black" stroke-miterlimit="10" stroke-linecap="round" stroke-linejoin="round"/>
<path d="M44.4278 64.7586C55.4028 53.7219 70.7555 47.1451 86.3343 46.7957C93.7949 46.6313 101.666 48.0288 107.401 52.8176C113.135 57.5857 115.909 66.4233 112.107 72.8562C106.599 82.146 91.1025 82.3104 87.0742 92.3194C84.9779 97.5603 86.9715 103.438 88.9856 108.72" stroke="black" stroke-miterlimit="10" stroke-linecap="round" stroke-linejoin="round"/>
<path d="M115.54 34.4233C117.174 34.4233 118.499 33.0982 118.499 31.4637C118.499 29.8292 117.174 28.5042 115.54 28.5042C113.905 28.5042 112.58 29.8292 112.58 31.4637C112.58 33.0982 113.905 34.4233 115.54 34.4233Z" fill="#FFF58C" stroke="#181919" stroke-miterlimit="10" stroke-linecap="round" stroke-linejoin="round"/>
<path d="M75.4213 34.4233C77.0558 34.4233 78.3809 33.0982 78.3809 31.4637C78.3809 29.8292 77.0558 28.5042 75.4213 28.5042C73.7868 28.5042 72.4617 29.8292 72.4617 31.4637C72.4617 33.0982 73.7868 34.4233 75.4213 34.4233Z" fill="#FFF58C" stroke="#181919" stroke-miterlimit="10" stroke-linecap="round" stroke-linejoin="round"/>
<path d="M96.693 16.6659L98.5427 22.3589C98.7071 22.8933 99.2004 23.2427 99.7553 23.2427H105.736C106.969 23.2427 107.483 24.8252 106.497 25.5445L101.646 29.059C101.194 29.3879 101.009 29.9633 101.173 30.4771L103.023 36.1702C103.414 37.3417 102.057 38.3282 101.05 37.5883L96.1998 34.0738C95.7476 33.745 95.1516 33.745 94.6994 34.0738L89.849 37.5883C88.8419 38.3076 87.506 37.3417 87.876 36.1702L89.7257 30.4771C89.8901 29.9428 89.7052 29.3673 89.253 29.059L84.4643 25.5651C83.4572 24.8458 83.971 23.2632 85.2247 23.2632H91.2055C91.7604 23.2632 92.2536 22.9138 92.4181 22.3795L94.2678 16.6864C94.6583 15.4944 96.3231 15.4944 96.693 16.6659Z" fill="#FFF58C" stroke="#181919" stroke-miterlimit="10" stroke-linecap="round" stroke-linejoin="round"/>
<mask id="mask2_645_3664" style="mask-type:luminance" maskUnits="userSpaceOnUse" x="1" y="1" width="187" height="187">
<path d="M94.3701 187.128C145.733 187.128 187.37 145.49 187.37 94.1279C187.37 42.7654 145.733 1.12793 94.3701 1.12793C43.0076 1.12793 1.37006 42.7654 1.37006 94.1279C1.37006 145.49 43.0076 187.128 94.3701 187.128Z" fill="white"/>
</mask>
<g mask="url(#mask2_645_3664)">
<path d="M141.189 166.205C131.878 159.772 114.08 155.415 93.6506 155.415C73.2215 155.415 55.423 159.772 46.1128 166.205H39.1866V176.482C39.1866 188.114 63.5618 197.548 93.6506 197.548C123.739 197.548 148.115 188.114 148.115 176.482V166.205H141.189Z" fill="#5A66FF" stroke="black" stroke-miterlimit="10" stroke-linecap="round" stroke-linejoin="round"/>
<path d="M93.6506 187.272C123.73 187.272 148.115 177.84 148.115 166.205C148.115 154.571 123.73 145.139 93.6506 145.139C63.5709 145.139 39.1865 154.571 39.1865 166.205C39.1865 177.84 63.5709 187.272 93.6506 187.272Z" fill="white" stroke="black" stroke-miterlimit="10" stroke-linecap="round" stroke-linejoin="round"/>
<path d="M141.189 155.929C131.878 149.496 114.08 145.139 93.6506 145.139C73.2215 145.139 55.423 149.496 46.1128 155.929H39.1866V166.205C39.1866 177.838 63.5618 187.272 93.6506 187.272C123.739 187.272 148.115 177.838 148.115 166.205V155.929H141.189Z" fill="#FFF58C" stroke="black" stroke-miterlimit="10" stroke-linecap="round" stroke-linejoin="round"/>
<path d="M93.6506 176.996C123.73 176.996 148.115 167.564 148.115 155.929C148.115 144.295 123.73 134.863 93.6506 134.863C63.5709 134.863 39.1865 144.295 39.1865 155.929C39.1865 167.564 63.5709 176.996 93.6506 176.996Z" fill="white" stroke="black" stroke-miterlimit="10" stroke-linecap="round" stroke-linejoin="round"/>
<path d="M141.189 145.653C131.878 139.22 114.08 134.863 93.6506 134.863C73.2215 134.863 55.423 139.22 46.1128 145.653H39.1866V155.929C39.1866 167.562 63.5618 176.996 93.6506 176.996C123.739 176.996 148.115 167.562 148.115 155.929V145.653H141.189Z" fill="#FFF58C" stroke="black" stroke-miterlimit="10" stroke-linecap="round" stroke-linejoin="round"/>
<path d="M93.6506 166.719C123.73 166.719 148.115 157.288 148.115 145.653C148.115 134.018 123.73 124.587 93.6506 124.587C63.5709 124.587 39.1865 134.018 39.1865 145.653C39.1865 157.288 63.5709 166.719 93.6506 166.719Z" fill="white" stroke="black" stroke-miterlimit="10" stroke-linecap="round" stroke-linejoin="round"/>
</g>
<path d="M94.3701 187.128C145.733 187.128 187.37 145.49 187.37 94.1279C187.37 42.7654 145.733 1.12793 94.3701 1.12793C43.0076 1.12793 1.37006 42.7654 1.37006 94.1279C1.37006 145.49 43.0076 187.128 94.3701 187.128Z" stroke="#181919" stroke-miterlimit="10"/>
<path fill-rule="evenodd" clip-rule="evenodd" d="M133.42 106.377C134.016 101.506 134.53 100.91 133.523 97.0877C132.577 93.5321 130.892 90.2643 129.967 86.6881C129.063 83.2148 127.686 80.2141 124.295 78.4877C120.903 76.7407 118.807 73.6784 115.683 71.8081C112.847 70.1023 110.216 67.9443 107.236 66.6083C102.92 64.6764 98.1518 64.3887 93.5069 63.546C88.3894 62.6212 84.135 64.142 80.3533 67.5126C78.3803 69.2802 76.1606 70.8422 74.4547 72.8357C71.7624 75.9597 68.3712 78.6521 67.4053 83.112C65.5144 91.8262 56.1425 94.7858 56.8207 104.877C57.1701 109.974 58.1155 114.064 61.5684 117.681C62.2877 118.442 62.9043 119.531 63.0276 120.538C64.0963 128.04 68.8028 133.589 73.8793 138.337C79.038 143.146 85.738 145.818 92.9314 146.599C96.7336 147.03 100.598 147.708 104.379 147.462C110.113 147.092 115.601 145.119 119.917 141.337C122.137 139.405 125.014 138.028 126.802 135.644C128.878 132.849 127.994 129.746 129.412 126.786C130.44 124.607 131.94 122.943 132.639 120.538C133.913 116.407 133.564 111.824 133.42 106.377Z" fill="#33B2C1" stroke="black" stroke-miterlimit="10"/>
<path d="M86.0052 95.7518C86.1696 100.849 95.336 100.191 93.7124 95.0325" stroke="black" stroke-miterlimit="10" stroke-linecap="round" stroke-linejoin="round"/>
<path d="M97.2681 94.909C97.4531 96.4299 98.5218 97.8275 99.9605 98.3824C101.399 98.9373 103.126 98.6085 104.277 97.6014C105.427 96.5738 105.962 94.909 105.592 93.4087" stroke="black" stroke-miterlimit="10" stroke-linecap="round" stroke-linejoin="round"/>
<path d="M80.4976 102.123C81.6897 104.959 84.156 107.138 86.9306 108.474C89.7051 109.81 92.8086 110.344 95.8709 110.549C97.6795 110.673 99.5087 110.673 101.317 110.344C107.668 109.193 112.929 103.541 113.608 97.1287" stroke="black" stroke-miterlimit="10" stroke-linecap="round" stroke-linejoin="round"/>
<path d="M133.397 81.9425C133.122 80.3422 134.13 78.8969 134.918 77.4977C136.421 74.8696 137.224 71.9157 138.013 68.9959C138.679 66.5091 139.327 63.71 137.881 61.3952C137.349 60.5344 136.591 59.838 136 59.012C135.408 58.186 135.022 57.1452 135.401 56.2769C135.565 55.9024 135.859 55.5847 136.108 55.2678C139.106 51.5491 138.493 46.2123 137.854 41.3914C137.746 40.5738 137.78 39.5341 138.591 39.3003C138.87 39.2194 139.16 39.2651 139.431 39.3026C141.781 39.7008 144.413 40.5672 146.347 39.3846C146.805 39.0978 147.225 38.6934 147.797 38.7003C148.281 38.7088 148.727 39.0051 149.102 39.3111C152.564 41.9794 156.107 45.3726 160.424 45.3733C161.48 45.5914 162.157 45.2586 162.116 44.6933C162.105 44.4654 161.952 44.2569 161.818 44.0565C161.287 43.297 160.755 42.5375 160.224 41.7781C159.019 40.0757 157.804 38.3483 156.261 36.863C154.446 35.1376 152.167 33.7159 151.074 31.5554C151.283 28.7471 149.29 25.9097 146.729 24.1212C144.167 22.3328 141.126 21.389 138.133 20.4867C136.526 20.0079 134.82 19.5054 133.228 19.8035C130.767 20.2689 129.205 22.425 126.929 23.3771C124.523 24.3737 121.466 23.9709 119.339 25.3934C118.216 26.1396 117.506 27.3093 116.695 28.3541C114.981 30.5044 112.668 32.1499 110.388 33.7694C108.945 34.2339 107.086 35.7531 106.022 37.4782C104.958 39.2032 104.456 41.2141 103.374 42.931C102.064 45.0151 100.008 46.5293 97.9441 47.9593C96.8917 48.6957 95.7946 49.4329 95.1475 50.5086C94.876 50.978 94.6714 51.4969 94.3813 51.9581C93.3473 53.5137 91.1832 54.0076 89.8332 55.3237C88.4683 56.6738 88.1333 58.8592 88.1107 60.735C83.3034 57.8031 77.6443 56.1616 72.078 56.0814C71.4607 56.0753 70.7765 56.121 70.4121 56.5498C69.9844 57.0725 70.2408 57.8537 70.5717 58.4646C71.5084 60.1716 72.9992 61.5733 74.5273 62.8898C78.7991 66.5407 83.532 69.6429 88.4212 72.4889C106.658 83.0935 127.056 90.0194 147.815 93.0277C148.276 93.0873 148.781 93.146 149.124 92.8697C149.823 92.2831 148.938 91.1665 148.131 90.6315C143.235 87.2956 138.048 84.3196 133.397 81.9425Z" fill="#A37D65"/>
<path d="M133.397 81.9425C133.122 80.3422 134.13 78.8969 134.918 77.4977C136.421 74.8696 137.224 71.9157 138.013 68.9959C138.679 66.5091 139.327 63.71 137.881 61.3952C137.349 60.5344 136.591 59.838 136 59.012C135.408 58.186 135.022 57.1452 135.401 56.2769C135.565 55.9024 135.859 55.5847 136.108 55.2678C139.106 51.5491 138.493 46.2123 137.854 41.3914C137.746 40.5738 137.78 39.5341 138.591 39.3003C138.87 39.2194 139.16 39.2651 139.431 39.3026C141.781 39.7008 144.413 40.5672 146.347 39.3846C146.805 39.0978 147.225 38.6934 147.797 38.7003C148.281 38.7088 148.727 39.0051 149.102 39.3111C152.564 41.9794 156.107 45.3726 160.424 45.3733C161.48 45.5914 162.157 45.2586 162.116 44.6933C162.105 44.4654 161.952 44.2569 161.818 44.0565C161.287 43.297 160.755 42.5375 160.224 41.7781C159.019 40.0757 157.804 38.3483 156.261 36.863C154.446 35.1376 152.167 33.7159 151.074 31.5554C151.283 28.7471 149.29 25.9097 146.729 24.1212C144.167 22.3328 141.126 21.389 138.133 20.4867C136.526 20.0079 134.82 19.5054 133.228 19.8035C130.767 20.2689 129.205 22.425 126.929 23.3771C124.523 24.3737 121.466 23.9709 119.339 25.3934C118.216 26.1396 117.506 27.3093 116.695 28.3541C114.981 30.5044 112.668 32.1499 110.388 33.7694C108.945 34.2339 107.086 35.7531 106.022 37.4782C104.958 39.2032 104.456 41.2141 103.374 42.931C102.064 45.0151 100.008 46.5293 97.9441 47.9593C96.8917 48.6957 95.7946 49.4329 95.1475 50.5086C94.876 50.978 94.6714 51.4969 94.3813 51.9581C93.3473 53.5137 91.1832 54.0076 89.8332 55.3237C88.4683 56.6738 88.1333 58.8592 88.1107 60.735C83.3034 57.8031 77.6443 56.1616 72.078 56.0814C71.4607 56.0753 70.7765 56.121 70.4121 56.5498C69.9844 57.0725 70.2408 57.8537 70.5717 58.4646C71.5084 60.1716 72.9992 61.5733 74.5273 62.8898C78.7991 66.5407 83.532 69.6429 88.4212 72.4889C106.658 83.0935 127.056 90.0194 147.815 93.0277C148.276 93.0873 148.781 93.146 149.124 92.8697C149.823 92.2831 148.938 91.1665 148.131 90.6315C143.235 87.2956 138.048 84.3196 133.397 81.9425Z" fill="#A37D65" stroke="#120000" stroke-miterlimit="10" stroke-linecap="round" stroke-linejoin="round"/>
<path d="M138.468 39.2266C136.553 36.7679 134.572 34.2597 131.832 32.9812C131.43 32.7855 130.988 32.6327 130.515 32.6494C130.062 32.6742 129.549 32.9366 129.303 33.3971C129.058 33.8575 129.117 34.4309 129.359 34.8407C129.6 35.2504 129.998 35.5053 130.433 35.6751" fill="#A37D65"/>
<path d="M138.468 39.2266C136.553 36.7679 134.572 34.2597 131.832 32.9812C131.43 32.7855 130.988 32.6327 130.515 32.6494C130.062 32.6742 129.549 32.9366 129.303 33.3971C129.058 33.8575 129.117 34.4309 129.359 34.8407C129.6 35.2504 129.998 35.5053 130.433 35.6751" stroke="#120000" stroke-miterlimit="10" stroke-linecap="round" stroke-linejoin="round"/>
<path d="M109.186 39.3068C111.826 42.3864 114.439 45.4749 117.079 48.5545C118.194 49.8529 119.387 51.2259 121.019 51.7972C122.072 52.1759 123.224 52.1727 124.306 52.0778C127.854 51.7624 131.227 50.3772 133.804 48.178C134.321 47.7551 134.823 47.2648 135.473 47.0422C136.124 46.8197 136.994 46.9566 137.411 47.5237C137.425 47.7938 137.429 48.0387 137.444 48.3088" fill="#A37D65"/>
<path d="M109.186 39.3068C111.826 42.3864 114.439 45.4749 117.079 48.5545C118.194 49.8529 119.387 51.2259 121.019 51.7972C122.072 52.1759 123.224 52.1727 124.306 52.0778C127.854 51.7624 131.227 50.3772 133.804 48.178C134.321 47.7551 134.823 47.2648 135.473 47.0422C136.124 46.8197 136.994 46.9566 137.411 47.5237C137.425 47.7938 137.429 48.0387 137.444 48.3088" stroke="#120000" stroke-miterlimit="10" stroke-linecap="round" stroke-linejoin="round"/>
<path d="M111.83 37.3598C114.812 41.0755 117.804 44.8163 120.786 48.5319C121.087 48.9068 121.407 49.2898 121.864 49.5099C122.236 49.6724 122.649 49.6905 123.05 49.6835C126.222 49.6704 129.312 48.6281 131.688 46.7872C133.22 45.6116 134.559 44.0676 136.526 43.67" fill="#A37D65"/>
<path d="M111.83 37.3598C114.812 41.0755 117.804 44.8163 120.786 48.5319C121.087 48.9068 121.407 49.2898 121.864 49.5099C122.236 49.6724 122.649 49.6905 123.05 49.6835C126.222 49.6704 129.312 48.6281 131.688 46.7872C133.22 45.6116 134.559 44.0676 136.526 43.67" stroke="#120000" stroke-miterlimit="10" stroke-linecap="round" stroke-linejoin="round"/>
<path d="M132.312 50.3243C133.275 50.299 134.272 50.3492 135.239 50.4675C136.358 52.2135 136.353 54.503 135.227 56.1193C134.066 57.7615 131.913 58.6861 131.128 60.533" fill="#A37D65"/>
<path d="M132.312 50.3243C133.275 50.299 134.272 50.3492 135.239 50.4675C136.358 52.2135 136.353 54.503 135.227 56.1193C134.066 57.7615 131.913 58.6861 131.128 60.533" stroke="#120000" stroke-miterlimit="10" stroke-linecap="round" stroke-linejoin="round"/>
<path d="M110.877 41.668C110.126 41.36 109.305 41.0618 108.565 41.2859C108.234 41.3846 107.955 41.5669 107.694 41.7573C106.508 42.5975 105.433 43.5877 104.522 44.7103" fill="#A37D65"/>
<path d="M110.877 41.668C110.126 41.36 109.305 41.0618 108.565 41.2859C108.234 41.3846 107.955 41.5669 107.694 41.7573C106.508 42.5975 105.433 43.5877 104.522 44.7103" stroke="#120000" stroke-miterlimit="10" stroke-linecap="round" stroke-linejoin="round"/>
<path d="M97.4636 51.7438C103.405 52.13 109.366 52.5244 115.308 52.9106C116.62 52.9975 117.951 53.0926 119.152 53.6376C121.573 54.7358 122.774 57.3083 124.35 59.3758C127.067 62.9356 131.455 65.3596 135.961 65.7878" fill="#A37D65"/>
<path d="M97.4636 51.7438C103.405 52.13 109.366 52.5244 115.308 52.9106C116.62 52.9975 117.951 53.0926 119.152 53.6376C121.573 54.7358 122.774 57.3083 124.35 59.3758C127.067 62.9356 131.455 65.3596 135.961 65.7878" stroke="#120000" stroke-miterlimit="10" stroke-linecap="round" stroke-linejoin="round"/>
<path d="M98.1853 50.1937C102.882 50.0357 107.6 50.1307 112.304 50.4625C115.873 50.7043 119.755 51.2448 122.439 53.614C124.562 55.4946 125.592 58.256 127.748 60.1106C129.748 61.8159 132.626 62.526 135.11 61.9082" fill="#A37D65"/>
<path d="M98.1853 50.1937C102.882 50.0357 107.6 50.1307 112.304 50.4625C115.873 50.7043 119.755 51.2448 122.439 53.614C124.562 55.4946 125.592 58.256 127.748 60.1106C129.748 61.8159 132.626 62.526 135.11 61.9082" stroke="#120000" stroke-miterlimit="10" stroke-linecap="round" stroke-linejoin="round"/>
<path d="M135.521 73.6856C134.435 73.9411 133.323 74.1041 132.193 74.1576C131.669 74.1921 131.122 74.1763 130.624 73.9991C129.59 73.6286 128.981 72.5917 128.114 71.8888C126.702 70.7645 124.779 70.6545 122.983 70.4577C116.908 69.7697 110.97 67.2968 106.189 63.4436C104.486 62.071 102.854 60.4859 100.794 59.7278C98.1058 58.7357 95.1793 59.3021 92.3423 59.1573C92.3572 58.6164 92.3796 58.0584 92.402 57.7032C94.0308 56.8131 96.0944 57.1066 97.9647 57.4372C99.7606 57.7353 101.549 58.0504 103.271 58.6202C108.093 60.2002 112.064 63.6789 116.67 65.8541C121.686 68.2079 127.516 69.0523 135.521 73.6856Z" fill="#A37D65" stroke="#120000" stroke-miterlimit="10" stroke-linecap="round" stroke-linejoin="round"/>
<path d="M92.1821 61.6018C93.61 61.2727 95.0825 60.9429 96.5661 61.1451C98.0125 61.331 99.3845 61.9913 100.544 62.8834C101.712 63.7585 102.701 64.8395 103.612 65.9471" fill="#A37D65"/>
<path d="M92.1821 61.6018C93.61 61.2727 95.0825 60.9429 96.5661 61.1451C98.0125 61.331 99.3845 61.9913 100.544 62.8834C101.712 63.7585 102.701 64.8395 103.612 65.9471" stroke="#120000" stroke-miterlimit="10" stroke-linecap="round" stroke-linejoin="round"/>
<path d="M117.833 74.8984C121.852 74.8705 125.894 75.2984 129.858 76.1584Z" fill="#A37D65"/>
<path d="M117.833 74.8984C121.852 74.8705 125.894 75.2984 129.858 76.1584" stroke="#120000" stroke-miterlimit="10" stroke-linecap="round" stroke-linejoin="round"/>
</svg>
