<svg width="34" height="23" viewBox="0 0 34 23" fill="none" xmlns="http://www.w3.org/2000/svg">
<path d="M17.1086 22.3277C10.3342 22.2775 4.1114 19.0066 1 13.9263C4.18737 8.8561 10.4564 5.71898 17.2308 5.76915C24.0052 5.81931 30.228 9.09022 33.3394 14.1705C30.1553 19.2039 23.883 22.3778 17.1086 22.3277Z" fill="white" stroke="black" stroke-linecap="round" stroke-linejoin="round"/>
<path d="M22.2151 12.8127C21.2143 12.8061 20.2564 12.3947 19.5529 11.6723C18.8493 10.9499 18.4596 9.97662 18.4662 8.9599C18.4662 8.6221 18.3374 8.29769 18.1029 8.05689C17.8684 7.81608 17.548 7.67896 17.2144 7.67561C15.5431 7.66224 13.9378 8.3211 12.7488 9.50839C11.5597 10.6923 10.8826 12.3077 10.8727 13.9967C10.8628 15.6856 11.5101 17.3111 12.6827 18.5151C13.8553 19.7191 15.4506 20.4014 17.1219 20.4147C18.7932 20.4281 20.3984 19.7693 21.5875 18.582C22.7766 17.3947 23.4537 15.7826 23.4636 14.0937C23.4636 13.7559 23.3348 13.4315 23.1003 13.1907C22.8658 12.9499 22.5454 12.8127 22.2118 12.8094L22.2151 12.8127Z" fill="black"/>
<path d="M17.2869 1L17.2109 5.75251" stroke="black" stroke-linecap="round" stroke-linejoin="round"/>
<path d="M8.97656 2.37451L11.3184 6.49157" stroke="black" stroke-linecap="round" stroke-linejoin="round"/>
<path d="M25.508 2.51831L23.0935 6.59523" stroke="black" stroke-linecap="round" stroke-linejoin="round"/>
</svg>
