<svg width="187" height="188" viewBox="0 0 187 188" fill="none" xmlns="http://www.w3.org/2000/svg">
<path d="M93.3129 187C144.296 187 185.626 145.362 185.626 94C185.626 42.6375 144.296 1 93.3129 1C42.3299 1 1 42.6375 1 94C1 145.362 42.3299 187 93.3129 187Z" fill="#EBEBEB"/>
<path d="M118.038 33.905C119.661 33.905 120.976 32.5799 120.976 30.9454C120.976 29.3109 119.661 27.9858 118.038 27.9858C116.416 27.9858 115.101 29.3109 115.101 30.9454C115.101 32.5799 116.416 33.905 118.038 33.905Z" fill="#FFF58C" stroke="#181919" stroke-miterlimit="10" stroke-linecap="round" stroke-linejoin="round"/>
<path d="M78.2165 33.905C79.8389 33.905 81.1542 32.5799 81.1542 30.9454C81.1542 29.3109 79.8389 27.9858 78.2165 27.9858C76.5941 27.9858 75.2788 29.3109 75.2788 30.9454C75.2788 32.5799 76.5941 33.905 78.2165 33.905Z" fill="#FFF58C" stroke="#181919" stroke-miterlimit="10" stroke-linecap="round" stroke-linejoin="round"/>
<path d="M99.3314 16.168L101.167 21.861C101.331 22.3954 101.82 22.7448 102.371 22.7448H108.308C109.532 22.7448 110.042 24.3273 109.062 25.0466L104.248 28.5611C103.799 28.8899 103.615 29.4654 103.779 29.9792L105.615 35.6723C106.002 36.8438 104.656 37.8303 103.656 37.0904L98.8418 33.5759C98.393 33.2471 97.8013 33.2471 97.3524 33.5759L92.5379 37.0904C91.5383 37.8097 90.2122 36.8438 90.5794 35.6723L92.4155 29.9792C92.5787 29.4449 92.3952 28.8694 91.9464 28.5611L87.1317 25.0466C86.1321 24.3273 86.6421 22.7448 87.8865 22.7448H93.8232C94.374 22.7448 94.8635 22.3954 95.0267 21.861L96.8629 16.168C97.2913 14.9759 98.9438 14.9759 99.3314 16.168Z" fill="#FFF58C" stroke="#181919" stroke-miterlimit="10" stroke-linecap="round" stroke-linejoin="round"/>
<path d="M118.038 33.905C119.661 33.905 120.976 32.5799 120.976 30.9454C120.976 29.3109 119.661 27.9858 118.038 27.9858C116.416 27.9858 115.101 29.3109 115.101 30.9454C115.101 32.5799 116.416 33.905 118.038 33.905Z" fill="#FFF58C" stroke="#181919" stroke-miterlimit="10" stroke-linecap="round" stroke-linejoin="round"/>
<path d="M78.2165 33.905C79.8389 33.905 81.1542 32.5799 81.1542 30.9454C81.1542 29.3109 79.8389 27.9858 78.2165 27.9858C76.5941 27.9858 75.2788 29.3109 75.2788 30.9454C75.2788 32.5799 76.5941 33.905 78.2165 33.905Z" fill="#FFF58C" stroke="#181919" stroke-miterlimit="10" stroke-linecap="round" stroke-linejoin="round"/>
<path d="M99.3314 16.168L101.167 21.861C101.331 22.3954 101.82 22.7448 102.371 22.7448H108.308C109.532 22.7448 110.042 24.3273 109.062 25.0466L104.248 28.5611C103.799 28.8899 103.615 29.4654 103.779 29.9792L105.615 35.6723C106.002 36.8438 104.656 37.8303 103.656 37.0904L98.8418 33.5759C98.393 33.2471 97.8013 33.2471 97.3524 33.5759L92.5379 37.0904C91.5383 37.8097 90.2122 36.8438 90.5794 35.6723L92.4155 29.9792C92.5787 29.4449 92.3952 28.8694 91.9464 28.5611L87.1317 25.0466C86.1321 24.3273 86.6421 22.7448 87.8865 22.7448H93.8232C94.374 22.7448 94.8635 22.3954 95.0267 21.861L96.8629 16.168C97.2913 14.9759 98.9438 14.9759 99.3314 16.168Z" fill="#FFF58C" stroke="#181919" stroke-miterlimit="10" stroke-linecap="round" stroke-linejoin="round"/>
<mask id="mask0_645_3662" style="mask-type:luminance" maskUnits="userSpaceOnUse" x="5" y="43" width="73" height="73">
<path d="M74.952 115.333C74.6868 114.45 73.932 113.833 73.218 113.258C72.1571 112.394 71.0962 111.552 70.0354 110.689C68.7909 109.682 67.5466 108.674 66.1593 107.873C61.406 105.078 55.6529 104.811 50.4304 103.064C48.7371 102.488 47.0847 101.769 45.6974 100.638C42.9025 98.3982 41.4338 94.8837 40.2913 91.472C39.1489 88.0603 38.1697 84.4842 35.9868 81.6274C33.9468 80.1887 31.9678 78.7089 29.6421 78.1335C25.7252 77.1675 21.5636 78.9556 17.6263 78.0718C16.5246 77.8252 15.4841 77.373 14.5049 76.8181C9.97596 74.3313 6.44665 69.7069 5.95703 64.5277C7.81349 56.615 11.4856 49.2572 16.5858 43.6875C16.137 48.394 15.6678 53.1622 16.5858 57.8071C17.5038 62.4519 19.9723 66.994 24.0932 69.2342C28.4182 71.5978 34.1507 71.3306 37.5372 74.9067C38.3532 75.7699 38.9449 76.777 39.5569 77.8046C41.393 80.908 43.2494 84.032 44.5143 87.4026C45.2895 89.4784 45.8607 91.6776 47.0031 93.5684C48.4311 95.9525 50.7568 97.8022 53.5109 98.6243C54.6737 100.31 56.9586 100.68 58.9783 100.926C62.0587 101.296 65.2005 101.748 67.975 103.187C70.0763 104.276 71.851 105.9 73.5035 107.585C74.6663 108.757 77.196 111.244 77.3388 112.949C77.4612 113.956 75.8088 113.956 74.952 115.333Z" fill="white"/>
</mask>
<g mask="url(#mask0_645_3662)">
<path d="M6.14111 1.57544L-20.4818 53.2855" stroke="black" stroke-miterlimit="10"/>
<path d="M10.547 7.69995L-16.0758 59.41" stroke="black" stroke-miterlimit="10"/>
<path d="M14.954 13.8452L-11.6688 65.5347" stroke="black" stroke-miterlimit="10"/>
<path d="M19.3606 19.9697L-7.26221 71.6798" stroke="black" stroke-miterlimit="10"/>
<path d="M23.7666 26.0947L-2.8562 77.8048" stroke="black" stroke-miterlimit="10"/>
<path d="M28.1736 32.2192L1.55078 83.9293" stroke="black" stroke-miterlimit="10"/>
<path d="M32.5797 38.3645L5.95691 90.054" stroke="black" stroke-miterlimit="10"/>
<path d="M36.9863 44.489L10.3634 96.1991" stroke="black" stroke-miterlimit="10"/>
<path d="M41.3729 50.6135L14.7705 102.324" stroke="black" stroke-miterlimit="10"/>
<path d="M45.779 56.7383L19.1765 108.448" stroke="black" stroke-miterlimit="10"/>
<path d="M50.1859 62.8833L23.5835 114.573" stroke="black" stroke-miterlimit="10"/>
<path d="M54.5926 69.0083L27.9901 120.718" stroke="black" stroke-miterlimit="10"/>
<path d="M58.999 75.1328L32.3966 126.843" stroke="black" stroke-miterlimit="10"/>
<path d="M63.4055 81.2781L36.8031 132.968" stroke="black" stroke-miterlimit="10"/>
<path d="M67.8121 87.4026L41.2097 139.113" stroke="black" stroke-miterlimit="10"/>
<path d="M72.2186 93.5271L45.6162 145.237" stroke="black" stroke-miterlimit="10"/>
<path d="M76.6253 99.6519L50.0228 151.362" stroke="black" stroke-miterlimit="10"/>
<path d="M81.0312 105.797L54.4288 157.486" stroke="black" stroke-miterlimit="10"/>
<path d="M85.4377 111.922L58.8148 163.632" stroke="black" stroke-miterlimit="10"/>
</g>
<path d="M139.153 94.2057C141.642 92.5409 143.09 89.6841 143.968 86.8273C144.865 83.95 145.294 80.9493 146.334 78.1336C148.741 71.639 154.086 66.727 159.594 62.5548C163.96 59.2459 168.775 55.9369 170.774 50.8194C171.427 49.1341 171.733 47.3254 172.569 45.7429C168.917 37.8096 163.063 31.7672 157.33 25.9098C156.228 24.7794 155.106 23.649 153.821 22.7241C149.027 24.5944 145.13 28.2938 142.376 32.5688C139.622 36.8437 137.888 41.6941 136.236 46.5239C135.787 47.8598 135.318 49.2368 135.358 50.6549C135.399 52.1758 135.991 53.7173 135.563 55.1765C134.563 60.6435 134.951 66.357 137.337 71.228C137.949 72.4611 138.684 73.6737 138.949 75.0096C139.153 76.0167 139.112 77.0649 139.275 78.0925C139.459 79.1818 139.887 80.23 140.051 81.3398C140.499 84.4638 138.684 87.485 136.542 89.8074C135.848 90.5473 135.114 91.2667 134.175 91.6777C131.85 92.7053 129.218 91.4722 126.872 90.4651C122.771 88.7181 118.324 87.5878 113.856 87.7727C109.388 87.9577 104.921 89.5402 101.657 92.6026C99.7389 94.4112 98.3109 96.672 97.0664 99.0149C95.6384 101.707 94.4348 104.544 93.578 107.894C94.394 107.955 95.2509 107.462 96.0261 107.75C96.2505 107.832 96.4341 107.976 96.6585 108.037C96.9441 108.14 97.2501 108.099 97.5562 108.099C98.923 108.058 100.31 108.407 101.677 109.641C102.86 106.352 104.982 103.434 107.736 101.317C108.613 100.639 109.572 100.043 110.612 99.6315C112.122 99.056 113.775 98.9122 115.386 98.7889C120.16 98.4189 124.934 98.1517 129.728 97.9668C131.462 97.9051 133.237 97.8435 134.889 97.268C136.562 96.7336 137.664 95.1922 139.153 94.2057Z" fill="white"/>
<mask id="mask1_645_3662" style="mask-type:luminance" maskUnits="userSpaceOnUse" x="93" y="23" width="80" height="87">
<path d="M139.153 94.4933C141.642 92.8285 143.09 89.9717 143.968 87.1149C144.865 84.2376 145.294 81.2369 146.334 78.4212C148.741 71.9266 154.086 67.0146 159.594 62.8424C163.96 59.5335 168.775 56.2245 170.774 51.107C171.427 49.4217 171.733 47.613 172.569 46.0305C168.917 38.0972 163.063 32.0548 157.33 26.1974C156.228 25.067 155.106 23.9366 153.821 23.0117C149.027 24.882 145.13 28.5814 142.376 32.8564C139.622 37.1313 137.888 41.9817 136.236 46.8115C135.787 48.1474 135.318 49.5244 135.358 50.9425C135.399 52.4634 135.991 54.0049 135.563 55.4641C134.563 60.9311 134.951 66.6446 137.337 71.5156C137.949 72.7487 138.684 73.9613 138.949 75.2972C139.153 76.3043 139.112 77.3525 139.275 78.3801C139.459 79.4694 139.887 80.5176 140.051 81.6274C140.499 84.7514 138.684 87.7726 136.542 90.095C135.848 90.8349 135.114 91.5543 134.175 91.9653C131.85 92.9929 129.218 91.7598 126.872 90.7527C122.771 89.0057 118.324 87.8754 113.856 88.0603C109.388 88.2453 104.921 89.8278 101.657 92.8902C99.7389 94.6988 98.3109 96.9596 97.0664 99.3025C95.6384 101.995 94.4348 104.831 93.578 108.181C94.394 108.243 95.2509 107.75 96.0261 108.037C96.2505 108.12 96.4341 108.263 96.6585 108.325C96.9441 108.428 97.2501 108.387 97.5562 108.387C98.923 108.346 100.31 108.695 101.677 109.928C102.86 106.64 104.982 103.721 107.736 101.604C108.613 100.926 109.572 100.33 110.612 99.9191C112.122 99.3436 113.775 99.1998 115.386 99.0765C120.16 98.7065 124.934 98.4393 129.728 98.2544C131.462 98.1927 133.237 98.1311 134.889 97.5556C136.562 97.0212 137.664 95.4798 139.153 94.4933Z" fill="white"/>
</mask>
<g mask="url(#mask1_645_3662)">
<path d="M171.427 0.342285L198.05 52.0523" stroke="black" stroke-miterlimit="10"/>
<path d="M167 5.4187L193.602 57.1288" stroke="black" stroke-miterlimit="10"/>
<path d="M162.552 10.4954L189.154 62.1849" stroke="black" stroke-miterlimit="10"/>
<path d="M158.105 15.5718L184.728 67.2613" stroke="black" stroke-miterlimit="10"/>
<path d="M153.678 20.6277L180.28 72.3377" stroke="black" stroke-miterlimit="10"/>
<path d="M149.231 25.7043L175.854 77.4144" stroke="black" stroke-miterlimit="10"/>
<path d="M144.783 30.7808L171.406 82.4908" stroke="black" stroke-miterlimit="10"/>
<path d="M140.357 35.8572L166.959 87.5672" stroke="black" stroke-miterlimit="10"/>
<path d="M135.909 40.9333L162.532 92.6434" stroke="black" stroke-miterlimit="10"/>
<path d="M131.482 46.0098L158.084 97.6993" stroke="black" stroke-miterlimit="10"/>
<path d="M127.035 51.0864L153.637 102.776" stroke="black" stroke-miterlimit="10"/>
<path d="M122.588 56.1423L149.21 107.852" stroke="black" stroke-miterlimit="10"/>
<path d="M118.161 61.2188L144.763 112.929" stroke="black" stroke-miterlimit="10"/>
<path d="M113.713 66.2954L140.316 118.005" stroke="black" stroke-miterlimit="10"/>
<path d="M109.266 71.3718L135.889 123.082" stroke="black" stroke-miterlimit="10"/>
<path d="M104.839 76.4482L131.441 128.158" stroke="black" stroke-miterlimit="10"/>
<path d="M100.392 81.5247L127.015 133.214" stroke="black" stroke-miterlimit="10"/>
<path d="M95.9446 86.5808L122.567 138.291" stroke="black" stroke-miterlimit="10"/>
<path d="M91.5175 91.6572L118.12 143.367" stroke="black" stroke-miterlimit="10"/>
<path d="M87.0698 96.7334L113.693 148.443" stroke="black" stroke-miterlimit="10"/>
<path d="M82.6432 101.81L109.246 153.52" stroke="black" stroke-miterlimit="10"/>
</g>
<path d="M84.1529 109.702C85.6014 109.353 87.0498 108.983 88.3555 108.613C87.2334 105.345 86.1522 102.015 85.9074 98.5831C85.6626 95.1303 86.3766 91.5131 88.4983 88.8001C91.5584 84.9157 96.7605 83.6826 101.126 81.3807C104.982 79.346 108.328 76.3248 110.735 72.687C112.408 70.159 113.693 67.1378 113.203 64.1372C112.918 62.3902 112.061 60.7871 111.184 59.2457C108.96 55.2996 106.267 51.1274 101.881 49.9559C94.8021 46.277 86.3765 46.6881 78.4611 47.613C75.0134 48.024 71.5861 48.4967 68.2608 49.4627C59.7333 51.9495 52.4095 57.4165 45.3101 62.7601C44.8 63.1506 44.2697 63.5617 44.0045 64.1577C43.7801 64.6715 43.8005 65.2675 43.8413 65.843C44.2493 70.5084 46.4117 74.7833 48.5538 78.9555C49.7575 81.2985 50.9814 83.662 52.8379 85.5117C54.878 87.5464 57.5505 88.8207 60.2433 89.8278C63.283 90.9376 66.4248 91.7391 69.6073 92.2324C71.3005 92.479 73.0549 92.664 74.5238 93.5478C75.8294 94.3493 76.7679 95.6236 77.6451 96.8773C80.1544 100.453 83.3981 110.051 83.3981 110.051L84.1529 109.702Z" fill="#5A66FF"/>
<path d="M139.296 76.0781C138.541 76.1808 137.766 76.2425 136.97 76.2425C127.443 76.2425 119.732 68.4737 119.732 58.8756C119.732 49.2776 127.443 41.5088 136.97 41.5088C137.317 41.5088 137.358 41.591 137.725 41.6115" stroke="black" stroke-miterlimit="10" stroke-linecap="round" stroke-linejoin="round"/>
<path d="M154.066 23.8544C145.131 27.5744 138.174 35.8365 136.012 45.3318C133.298 57.2728 137.807 69.4809 140.785 81.3603C140.724 84.5048 139.684 87.6082 137.623 89.7251C135.542 91.842 132.482 92.9108 129.545 92.5819C125.771 92.1298 122.588 89.5607 118.895 88.677C115.897 87.9576 112.734 88.4303 109.715 89.1086C107.328 89.6635 104.941 90.3623 102.861 91.6776C97.4136 95.1099 95.1695 102.077 95.0471 108.551C92.8642 107.996 91.0486 108.243 89.4369 108.962C87.0296 107.38 86.5197 104.626 86.1933 102.139C85.6425 98.0283 85.1936 93.5068 87.4173 90.0334C89.1309 87.3616 92.089 85.8202 94.9043 84.402C98.25 82.7167 101.596 81.0314 104.941 79.3667C107.206 78.2363 109.532 77.0237 111.082 75.0096C112.755 72.8104 113.245 69.9331 113.245 67.1585C113.245 63.5824 112.469 59.9446 110.613 56.9028C108.369 53.2239 104.676 50.5726 100.657 49.0723C96.6383 47.572 92.2931 47.1404 88.009 47.1404C71.4845 47.1815 55.0619 53.9844 43.2907 65.6582C41.169 55.012 41.4342 45.5373 41.7402 36.2887C41.9646 28.9925 42.2503 21.5114 44.4944 14.8935C68.6079 -0.294757 99.9636 -3.17211 126.648 7.04248C136.664 11.4407 146.13 17.1749 154.066 23.8544Z" fill="#B180E0"/>
<path d="M180.893 66.2542C180.934 61.3832 177.486 57.2727 175.67 52.7512C174.691 50.3054 174.161 47.6131 172.508 45.5784C171.672 50.2643 169.53 55.4025 166.082 58.5059C162.634 61.6093 158.615 63.9934 154.964 66.8502C151.312 69.707 147.905 73.1598 146.334 77.5375C144.927 81.4836 145.069 85.9434 143.193 89.684C141.438 93.1779 138.052 95.6237 134.42 96.9596C130.769 98.2955 126.852 98.6654 122.975 98.8299C118.855 99.0148 114.652 99.0354 110.796 100.454C106.92 101.872 103.391 105.037 102.35 109.127C105.757 110.874 108.96 113.032 111.878 115.498C114.856 112.23 118.773 108.037 122.894 106.455C125.118 105.592 129.075 104.708 129.075 104.708C129.075 104.708 134.175 104.03 136.746 103.249C138.868 102.591 140.602 101.604 142.234 100.063C146.599 95.9936 146.171 89.4168 149.456 84.4226C151.128 81.8535 153.842 80.1065 156.738 79.12C159.635 78.1335 162.696 77.8458 165.735 77.6813C167.224 77.5991 168.714 77.558 170.142 77.1881C175.344 75.9344 180.852 71.4745 180.893 66.2542Z" fill="#FF88B6"/>
<path d="M42.3518 17.5244C32.8451 22.1898 25.4601 30.3491 19.2787 39.0017C18.2179 40.4815 17.1774 42.023 16.6878 43.7905C16.2186 45.4758 16.3001 47.2638 16.4021 49.0314C16.5653 51.9498 16.749 54.8477 16.9734 57.7662C17.0754 59.2048 17.2182 60.7052 17.8302 62C18.4422 63.2948 19.4827 64.3224 20.5231 65.2884C22.6244 67.2409 24.8685 69.1111 27.4185 70.4265C29.887 71.7007 32.5799 72.4406 35.0484 73.6943C37.5168 74.948 39.8629 76.8594 40.2709 79.5107C44.5346 83.7856 43.8818 91.2667 47.8803 95.7883C50.2264 98.4601 53.8373 99.6316 57.3054 100.31C60.7939 100.988 64.3844 101.296 67.6485 102.694C72.3815 104.749 76.0331 109.188 77.1756 114.553C77.7264 113.237 78.8689 112.271 80.093 111.573C81.317 110.874 82.6635 110.422 83.9079 109.517C80.8274 104.503 80.0113 97.8229 75.3192 94.3085C71.4023 91.3489 66.0369 91.5956 61.304 90.3213C55.6734 88.8004 50.6956 84.8749 47.2479 79.7573C46.2483 77.6199 45.371 75.4207 44.4122 72.9956C43.6778 63.973 41.0869 55.1149 41.1277 46.0512C41.1481 42.6806 41.5357 39.31 41.9234 35.9394C42.719 29.0954 43.5146 22.2104 45.1058 15.5103C44.1266 16.3324 43.127 17.1339 42.3518 17.5244Z" fill="#56B381"/>
<path d="M6.36489 63.7056C6.24249 70.6112 11.8119 77.1674 18.6257 78.0923C22.1142 78.565 25.7047 77.7224 29.1728 78.38C32.1513 78.9555 34.9054 80.7025 36.721 83.1482C40.4952 88.2452 40.1483 95.8702 44.7385 100.248C49.0022 104.317 55.6324 103.886 61.3038 105.448C66.8936 106.969 71.8509 110.709 74.8906 115.662" stroke="black" stroke-miterlimit="10" stroke-linecap="round" stroke-linejoin="round"/>
<path d="M180.791 63.7056C180.913 70.6112 175.344 77.1674 168.53 78.0923C165.041 78.565 161.451 77.7224 157.983 78.38C155.004 78.9555 152.25 80.7025 150.435 83.1482C146.66 88.2452 147.007 95.8702 142.417 100.248C138.153 104.317 131.523 103.886 125.852 105.448C120.262 106.969 115.305 110.709 112.265 115.662" stroke="black" stroke-miterlimit="10" stroke-linecap="round" stroke-linejoin="round"/>
<path d="M94.3939 107.112C94.7203 101.029 98.0253 95.1714 103.023 91.7597C108.022 88.348 114.631 87.4232 120.364 89.3551C125.077 90.9376 129.83 94.3699 134.522 92.7668C138.765 91.3281 140.765 86.2106 140.479 81.7301C140.193 77.2291 138.215 73.0364 136.929 68.7204C133.828 58.3208 134.828 46.7498 139.643 37.0285C142.54 31.171 147.232 25.704 153.556 24.1626" stroke="black" stroke-miterlimit="10" stroke-linecap="round" stroke-linejoin="round"/>
<path d="M171.468 44.2632C173.141 57.6223 160.635 61.1573 149.435 72.4406C144.661 77.4349 146.232 84.5255 142.764 90.5268C134.135 106.578 110.735 91.0817 102.35 107.935" stroke="black" stroke-miterlimit="10" stroke-linecap="round" stroke-linejoin="round"/>
<path d="M44.8611 15.2019C40.985 31.0273 40.4137 47.6543 43.1882 63.7263C44.1879 69.5221 45.6568 75.3385 48.7373 80.3327C51.7974 85.327 56.673 89.458 62.4056 90.4857C64.5477 90.8762 66.751 90.8145 68.8727 91.3078C72.7488 92.2121 76.0332 94.9044 78.3589 98.1312C80.6846 101.378 82.133 105.16 83.3571 108.962" stroke="black" stroke-miterlimit="10" stroke-linecap="round" stroke-linejoin="round"/>
<path d="M16.9938 42.8037C16.341 47.5308 15.6678 52.3401 16.3818 57.0671C17.0958 61.7942 19.4216 66.4802 23.4813 68.9465C26.4802 70.7551 30.091 71.1867 33.3143 72.6048C37.8841 74.619 41.495 78.75 42.9231 83.5798C43.5759 85.7995 43.7799 88.1219 44.5144 90.3211C45.8608 94.3904 49.0637 97.7816 53.0214 99.3642C56.5303 100.762 60.4268 100.762 64.0785 101.748C69.8519 103.31 74.8501 107.523 77.4002 112.949" stroke="black" stroke-miterlimit="10" stroke-linecap="round" stroke-linejoin="round"/>
<path d="M44.0859 64.6306C54.9799 53.5939 70.2192 47.0171 85.6829 46.6678C93.0883 46.5033 100.902 47.9009 106.594 52.6896C112.285 57.4578 115.039 66.2954 111.265 72.7283C105.798 82.018 90.4158 82.1824 86.4172 92.1915C84.3364 97.4324 86.3152 103.31 88.3145 108.592" stroke="black" stroke-miterlimit="10" stroke-linecap="round" stroke-linejoin="round"/>
<path d="M114.672 34.2951C116.295 34.2951 117.61 32.9701 117.61 31.3355C117.61 29.701 116.295 28.376 114.672 28.376C113.05 28.376 111.735 29.701 111.735 31.3355C111.735 32.9701 113.05 34.2951 114.672 34.2951Z" fill="#FFF58C" stroke="#181919" stroke-miterlimit="10" stroke-linecap="round" stroke-linejoin="round"/>
<path d="M74.871 34.2951C76.4935 34.2951 77.8087 32.9701 77.8087 31.3355C77.8087 29.701 76.4935 28.376 74.871 28.376C73.2486 28.376 71.9333 29.701 71.9333 31.3355C71.9333 32.9701 73.2486 34.2951 74.871 34.2951Z" fill="#FFF58C" stroke="#181919" stroke-miterlimit="10" stroke-linecap="round" stroke-linejoin="round"/>
<path d="M95.9853 16.5377L97.8214 22.2307C97.9846 22.7651 98.4742 23.1145 99.025 23.1145H104.962C106.186 23.1145 106.696 24.697 105.716 25.4164L100.902 28.9308C100.453 29.2597 100.269 29.8351 100.433 30.349L102.269 36.042C102.656 37.2135 101.31 38.2 100.31 37.4601L95.4957 33.9456C95.0469 33.6168 94.4552 33.6168 94.0064 33.9456L89.1919 37.4601C88.1922 38.1795 86.8663 37.2135 87.2335 36.042L89.0695 30.349C89.2327 29.8146 89.0491 29.2391 88.6003 28.9308L83.8469 25.4369C82.8473 24.7176 83.3573 23.135 84.6017 23.135H90.5384C91.0892 23.135 91.5788 22.7856 91.742 22.2513L93.5781 16.5582C93.9453 15.3662 95.5977 15.3662 95.9853 16.5377Z" fill="#FFF58C" stroke="#181919" stroke-miterlimit="10" stroke-linecap="round" stroke-linejoin="round"/>
<mask id="mask2_645_3662" style="mask-type:luminance" maskUnits="userSpaceOnUse" x="1" y="1" width="185" height="186">
<path d="M93.6595 187C144.643 187 185.972 145.362 185.972 94C185.972 42.6375 144.643 1 93.6595 1C42.6766 1 1.34668 42.6375 1.34668 94C1.34668 145.362 42.6766 187 93.6595 187Z" fill="white"/>
</mask>
<g mask="url(#mask2_645_3662)">
<path d="M140.132 166.077C130.891 159.644 113.224 155.287 92.9453 155.287C72.6671 155.287 55.0002 159.644 45.7587 166.077H38.8837V176.354C38.8837 187.986 63.0788 197.42 92.9453 197.42C122.812 197.42 147.007 187.986 147.007 176.354V166.077H140.132Z" fill="#5A66FF" stroke="black" stroke-miterlimit="10" stroke-linecap="round" stroke-linejoin="round"/>
<path d="M92.9452 187.144C122.803 187.144 147.007 177.712 147.007 166.078C147.007 154.443 122.803 145.011 92.9452 145.011C63.0878 145.011 38.8835 154.443 38.8835 166.078C38.8835 177.712 63.0878 187.144 92.9452 187.144Z" fill="white" stroke="black" stroke-miterlimit="10" stroke-linecap="round" stroke-linejoin="round"/>
<path d="M140.132 155.801C130.891 149.368 113.224 145.011 92.9453 145.011C72.6671 145.011 55.0002 149.368 45.7587 155.801H38.8837V166.077C38.8837 177.71 63.0788 187.144 92.9453 187.144C122.812 187.144 147.007 177.71 147.007 166.077V155.801H140.132Z" fill="#FF88B6" stroke="black" stroke-miterlimit="10"/>
<path d="M92.9452 176.867C122.803 176.867 147.007 167.436 147.007 155.801C147.007 144.167 122.803 134.735 92.9452 134.735C63.0878 134.735 38.8835 144.167 38.8835 155.801C38.8835 167.436 63.0878 176.867 92.9452 176.867Z" fill="white" stroke="black" stroke-miterlimit="10" stroke-linecap="round" stroke-linejoin="round"/>
<path d="M140.132 145.525C130.891 139.092 113.224 134.735 92.9453 134.735C72.6671 134.735 55.0002 139.092 45.7587 145.525H38.8837V155.801C38.8837 167.434 63.0788 176.867 92.9453 176.867C122.812 176.867 147.007 167.434 147.007 155.801V145.525H140.132Z" fill="#FF88B6" stroke="black" stroke-miterlimit="10"/>
<path d="M92.9452 166.591C122.803 166.591 147.007 157.16 147.007 145.525C147.007 133.89 122.803 124.459 92.9452 124.459C63.0878 124.459 38.8835 133.89 38.8835 145.525C38.8835 157.16 63.0878 166.591 92.9452 166.591Z" fill="white" stroke="black" stroke-miterlimit="10" stroke-linecap="round" stroke-linejoin="round"/>
</g>
<path d="M93.6595 187C144.643 187 185.972 145.362 185.972 94C185.972 42.6375 144.643 1 93.6595 1C42.6766 1 1.34668 42.6375 1.34668 94C1.34668 145.362 42.6766 187 93.6595 187Z" stroke="#181919" stroke-miterlimit="10"/>
<path d="M129.299 114.203C129.054 109.394 129.136 103.331 127.688 98.8504C126.341 94.7605 123.791 91.1432 121.608 87.4643C117.426 80.4148 111.816 77.4142 106.104 72.05C104.451 70.5085 101.922 70.8785 100.004 69.8509C97.7598 68.6588 95.9646 67.4668 93.4553 66.8502C88.5592 65.6376 83.5202 66.1925 79.236 69.0082C75.2783 71.6184 71.1981 74.023 67.4852 77.0031C64.4659 79.4078 62.1811 83.1278 59.3454 85.368C52.3888 90.8349 51.6136 100.104 52.1236 108.366C52.3888 112.621 53.0212 116.587 55.5509 120.102C57.7746 123.205 61.0386 125.63 62.7727 129.083C65.0168 133.481 66.0777 137.263 70.0966 140.551C77.4612 146.594 87.233 149.101 96.5561 148.587C100.575 148.361 104.41 148.546 107.96 146.368C110.959 144.518 112.061 141.497 114.529 139.236C116.243 137.674 118.528 137.674 120.507 136.667C122.873 135.475 123.199 134.324 124.811 132.31C125.464 131.508 126.076 130.604 126.545 129.679C128.973 124.932 129.626 120.04 129.32 114.758C129.32 114.553 129.299 114.388 129.299 114.203Z" fill="#45B757" stroke="black" stroke-miterlimit="10"/>
<path d="M103.208 95.8086C102.596 94.6782 101.066 95.2742 100.78 96.3019C97.9444 105.098 88.5397 109.086 81.0119 109.086C79.7674 109.209 77.4011 108.284 77.2991 110.134C77.6867 113.751 88.2337 117.738 91.7222 118.005C101.555 118.087 108.104 103.66 103.208 95.8086Z" stroke="black" stroke-miterlimit="10"/>
<path d="M75.1355 98.7064C77.5836 98.5009 80.0522 98.4803 82.5206 98.6036C81.4598 101.604 79.0729 103.906 76.7472 106.085" stroke="black" stroke-miterlimit="10" stroke-linecap="round" stroke-linejoin="round"/>
<path d="M73.7079 103.125C76.8088 102.591 79.7669 101.173 82.1129 99.0559" stroke="black" stroke-miterlimit="10" stroke-linecap="round" stroke-linejoin="round"/>
<path d="M95.3936 90.3008C93.9248 92.7465 91.9254 94.8634 89.5793 96.4665C92.007 96.8365 94.4756 96.8365 96.9032 96.446" stroke="black" stroke-miterlimit="10" stroke-linecap="round" stroke-linejoin="round"/>
<path d="M90.2122 96.117C92.293 95.4799 94.3127 94.5961 96.1895 93.5068" stroke="black" stroke-miterlimit="10" stroke-linecap="round" stroke-linejoin="round"/>
<path d="M128.397 82.9425C128.122 81.3422 129.13 79.8969 129.918 78.4977C131.421 75.8696 132.224 72.9157 133.013 69.9959C133.679 67.5091 134.327 64.71 132.881 62.3952C132.349 61.5344 131.591 60.838 131 60.012C130.408 59.186 130.022 58.1452 130.401 57.2769C130.565 56.9024 130.859 56.5847 131.108 56.2678C134.106 52.5491 133.493 47.2123 132.854 42.3914C132.746 41.5738 132.78 40.5341 133.591 40.3003C133.87 40.2194 134.16 40.2651 134.431 40.3026C136.781 40.7008 139.413 41.5672 141.347 40.3846C141.805 40.0978 142.225 39.6934 142.797 39.7003C143.281 39.7088 143.727 40.0051 144.102 40.3111C147.564 42.9794 151.107 46.3726 155.424 46.3733C156.48 46.5914 157.157 46.2586 157.116 45.6933C157.105 45.4654 156.952 45.2569 156.818 45.0565C156.287 44.297 155.755 43.5375 155.224 42.7781C154.019 41.0757 152.804 39.3483 151.261 37.863C149.446 36.1376 147.167 34.7159 146.074 32.5554C146.283 29.7471 144.29 26.9097 141.729 25.1212C139.167 23.3328 136.126 22.389 133.133 21.4867C131.526 21.0079 129.82 20.5054 128.228 20.8035C125.767 21.2689 124.205 23.425 121.929 24.3771C119.523 25.3737 116.466 24.9709 114.339 26.3934C113.216 27.1396 112.506 28.3093 111.695 29.3541C109.981 31.5044 107.668 33.1499 105.388 34.7694C103.945 35.2339 102.086 36.7531 101.022 38.4782C99.9583 40.2032 99.456 42.2141 98.3737 43.931C97.0645 46.0151 95.008 47.5293 92.9441 48.9593C91.8917 49.6957 90.7946 50.4329 90.1475 51.5086C89.876 51.978 89.6714 52.4969 89.3813 52.9581C88.3473 54.5137 86.1832 55.0076 84.8332 56.3237C83.4683 57.6738 83.1333 59.8592 83.1107 61.735C78.3034 58.8031 72.6443 57.1616 67.078 57.0814C66.4607 57.0753 65.7765 57.121 65.4121 57.5498C64.9844 58.0725 65.2408 58.8537 65.5717 59.4646C66.5084 61.1716 67.9992 62.5733 69.5273 63.8898C73.7991 67.5407 78.532 70.6429 83.4212 73.4889C101.658 84.0935 122.056 91.0194 142.815 94.0277C143.276 94.0873 143.781 94.146 144.124 93.8697C144.823 93.2831 143.938 92.1665 143.131 91.6315C138.235 88.2956 133.048 85.3196 128.397 82.9425Z" fill="#5A66FF"/>
<path d="M128.397 82.9425C128.122 81.3422 129.13 79.8969 129.918 78.4977C131.421 75.8696 132.224 72.9157 133.013 69.9959C133.679 67.5091 134.327 64.71 132.881 62.3952C132.349 61.5344 131.591 60.838 131 60.012C130.408 59.186 130.022 58.1452 130.401 57.2769C130.565 56.9024 130.859 56.5847 131.108 56.2678C134.106 52.5491 133.493 47.2123 132.854 42.3914C132.746 41.5738 132.78 40.5341 133.591 40.3003C133.87 40.2194 134.16 40.2651 134.431 40.3026C136.781 40.7008 139.413 41.5672 141.347 40.3846C141.805 40.0978 142.225 39.6934 142.797 39.7003C143.281 39.7088 143.727 40.0051 144.102 40.3111C147.564 42.9794 151.107 46.3726 155.424 46.3733C156.48 46.5914 157.157 46.2586 157.116 45.6933C157.105 45.4654 156.952 45.2569 156.818 45.0565C156.287 44.297 155.755 43.5375 155.224 42.7781C154.019 41.0757 152.804 39.3483 151.261 37.863C149.446 36.1376 147.167 34.7159 146.074 32.5554C146.283 29.7471 144.29 26.9097 141.729 25.1212C139.167 23.3328 136.126 22.389 133.133 21.4867C131.526 21.0079 129.82 20.5054 128.228 20.8035C125.767 21.2689 124.205 23.425 121.929 24.3771C119.523 25.3737 116.466 24.9709 114.339 26.3934C113.216 27.1396 112.506 28.3093 111.695 29.3541C109.981 31.5044 107.668 33.1499 105.388 34.7694C103.945 35.2339 102.086 36.7531 101.022 38.4782C99.9583 40.2032 99.456 42.2141 98.3737 43.931C97.0645 46.0151 95.008 47.5293 92.9441 48.9593C91.8917 49.6957 90.7946 50.4329 90.1475 51.5086C89.876 51.978 89.6714 52.4969 89.3813 52.9581C88.3473 54.5137 86.1832 55.0076 84.8332 56.3237C83.4683 57.6738 83.1333 59.8592 83.1107 61.735C78.3034 58.8031 72.6443 57.1616 67.078 57.0814C66.4607 57.0753 65.7765 57.121 65.4121 57.5498C64.9844 58.0725 65.2408 58.8537 65.5717 59.4646C66.5084 61.1716 67.9992 62.5733 69.5273 63.8898C73.7991 67.5407 78.532 70.6429 83.4212 73.4889C101.658 84.0935 122.056 91.0194 142.815 94.0277C143.276 94.0873 143.781 94.146 144.124 93.8697C144.823 93.2831 143.938 92.1665 143.131 91.6315C138.235 88.2956 133.048 85.3196 128.397 82.9425Z" fill="#A37D65" stroke="#120000" stroke-miterlimit="10" stroke-linecap="round" stroke-linejoin="round"/>
<path d="M133.468 40.2266C131.553 37.7679 129.572 35.2597 126.832 33.9812C126.43 33.7855 125.988 33.6327 125.515 33.6494C125.062 33.6742 124.549 33.9366 124.303 34.3971C124.058 34.8575 124.117 35.4309 124.359 35.8407C124.6 36.2504 124.998 36.5053 125.433 36.6751" stroke="#120000" stroke-miterlimit="10" stroke-linecap="round" stroke-linejoin="round"/>
<path d="M104.186 40.3068C106.825 43.3864 109.439 46.4749 112.079 49.5545C113.194 50.8529 114.387 52.2259 116.019 52.7972C117.072 53.1759 118.224 53.1727 119.306 53.0778C122.854 52.7624 126.227 51.3772 128.804 49.178C129.321 48.7551 129.823 48.2648 130.473 48.0422C131.124 47.8197 131.994 47.9566 132.411 48.5237C132.425 48.7938 132.429 49.0387 132.444 49.3088" stroke="#120000" stroke-miterlimit="10" stroke-linecap="round" stroke-linejoin="round"/>
<path d="M106.83 38.3598C109.812 42.0755 112.804 45.8163 115.786 49.5319C116.087 49.9068 116.407 50.2898 116.864 50.5099C117.236 50.6724 117.649 50.6905 118.05 50.6835C121.222 50.6704 124.312 49.6281 126.688 47.7872C128.22 46.6116 129.559 45.0676 131.526 44.67" stroke="#120000" stroke-miterlimit="10" stroke-linecap="round" stroke-linejoin="round"/>
<path d="M127.312 51.3243C128.275 51.299 129.272 51.3492 130.239 51.4675C131.358 53.2135 131.353 55.503 130.227 57.1193C129.066 58.7615 126.913 59.6861 126.128 61.533" stroke="#120000" stroke-miterlimit="10" stroke-linecap="round" stroke-linejoin="round"/>
<path d="M105.877 42.668C105.126 42.36 104.304 42.0618 103.565 42.2859C103.234 42.3846 102.955 42.5669 102.694 42.7573C101.508 43.5975 100.433 44.5877 99.5221 45.7103" stroke="#120000" stroke-miterlimit="10" stroke-linecap="round" stroke-linejoin="round"/>
<path d="M92.4636 52.7438C98.4055 53.13 104.366 53.5244 110.308 53.9106C111.62 53.9975 112.951 54.0926 114.152 54.6376C116.573 55.7358 117.774 58.3083 119.35 60.3758C122.067 63.9356 126.455 66.3596 130.961 66.7878" stroke="#120000" stroke-miterlimit="10" stroke-linecap="round" stroke-linejoin="round"/>
<path d="M93.1854 51.1937C97.8816 51.0357 102.6 51.1307 107.304 51.4625C110.873 51.7043 114.755 52.2448 117.44 54.614C119.562 56.4946 120.592 59.256 122.748 61.1106C124.748 62.8159 127.626 63.526 130.11 62.9082" stroke="#120000" stroke-miterlimit="10" stroke-linecap="round" stroke-linejoin="round"/>
<path d="M130.521 74.6856C129.435 74.9411 128.323 75.1041 127.193 75.1576C126.669 75.1921 126.122 75.1763 125.624 74.9991C124.59 74.6286 123.981 73.5917 123.114 72.8888C121.702 71.7645 119.779 71.6545 117.983 71.4577C111.908 70.7697 105.97 68.2968 101.189 64.4436C99.4859 63.071 97.8538 61.4859 95.794 60.7278C93.1058 59.7357 90.1794 60.3021 87.3423 60.1573C87.3572 59.6164 87.3796 59.0584 87.402 58.7032C89.0308 57.8131 91.0944 58.1066 92.9647 58.4372C94.7606 58.7353 96.5491 59.0504 98.2706 59.6202C103.093 61.2002 107.064 64.6789 111.67 66.8541C116.686 69.2079 122.516 70.0523 130.521 74.6856Z" stroke="#120000" stroke-miterlimit="10" stroke-linecap="round" stroke-linejoin="round"/>
<path d="M87.1822 62.6018C88.6101 62.2727 90.0826 61.9429 91.5662 62.1451C93.0126 62.331 94.3845 62.9913 95.5445 63.8834C96.7119 64.7585 97.7008 65.8395 98.6117 66.9471" stroke="#120000" stroke-miterlimit="10" stroke-linecap="round" stroke-linejoin="round"/>
<path d="M112.833 75.8984C116.852 75.8705 120.894 76.2984 124.857 77.1584Z" fill="#5A66FF"/>
<path d="M112.833 75.8984C116.852 75.8705 120.894 76.2984 124.857 77.1584" stroke="#120000" stroke-miterlimit="10" stroke-linecap="round" stroke-linejoin="round"/>
</svg>
