<svg width="92" height="92" viewBox="0 0 92 92" fill="none" xmlns="http://www.w3.org/2000/svg">
<path d="M45.9157 91.5C70.7219 91.5 90.8313 71.2409 90.8313 46.25C90.8313 21.2591 70.7219 1 45.9157 1C21.1094 1 1 21.2591 1 46.25C1 71.2409 21.1094 91.5 45.9157 91.5Z" fill="#EBEBEB"/>
<path d="M57.9461 17.0101C58.7355 17.0101 59.3754 16.3654 59.3754 15.5701C59.3754 14.7748 58.7355 14.1301 57.9461 14.1301C57.1567 14.1301 56.5167 14.7748 56.5167 15.5701C56.5167 16.3654 57.1567 17.0101 57.9461 17.0101Z" fill="#FFF58C" stroke="#181919" stroke-miterlimit="10" stroke-linecap="round" stroke-linejoin="round"/>
<path d="M38.5704 17.0101C39.3598 17.0101 39.9997 16.3654 39.9997 15.5701C39.9997 14.7748 39.3598 14.1301 38.5704 14.1301C37.7809 14.1301 37.141 14.7748 37.141 15.5701C37.141 16.3654 37.7809 17.0101 38.5704 17.0101Z" fill="#FFF58C" stroke="#181919" stroke-miterlimit="10" stroke-linecap="round" stroke-linejoin="round"/>
<path d="M48.8441 8.38007L49.7374 11.1501C49.8168 11.4101 50.0551 11.5801 50.3231 11.5801H53.2115C53.8071 11.5801 54.0553 12.3501 53.5788 12.7001L51.2363 14.4101C51.0179 14.5701 50.9286 14.8501 51.008 15.1001L51.9013 17.8701C52.0899 18.4401 51.4348 18.9201 50.9484 18.5601L48.6059 16.8501C48.3875 16.6901 48.0996 16.6901 47.8812 16.8501L45.5387 18.5601C45.0523 18.9101 44.4071 18.4401 44.5857 17.8701L45.4791 15.1001C45.5585 14.8401 45.4692 14.5601 45.2508 14.4101L42.9082 12.7001C42.4219 12.3501 42.67 11.5801 43.2755 11.5801H46.164C46.432 11.5801 46.6702 11.4101 46.7496 11.1501L47.643 8.38007C47.8515 7.80007 48.6555 7.80007 48.8441 8.38007Z" fill="#FFF58C" stroke="#181919" stroke-miterlimit="10" stroke-linecap="round" stroke-linejoin="round"/>
<path d="M57.9461 17.0101C58.7355 17.0101 59.3754 16.3654 59.3754 15.5701C59.3754 14.7748 58.7355 14.1301 57.9461 14.1301C57.1567 14.1301 56.5167 14.7748 56.5167 15.5701C56.5167 16.3654 57.1567 17.0101 57.9461 17.0101Z" fill="#FFF58C" stroke="#181919" stroke-miterlimit="10" stroke-linecap="round" stroke-linejoin="round"/>
<path d="M38.5704 17.0101C39.3598 17.0101 39.9997 16.3654 39.9997 15.5701C39.9997 14.7748 39.3598 14.1301 38.5704 14.1301C37.7809 14.1301 37.141 14.7748 37.141 15.5701C37.141 16.3654 37.7809 17.0101 38.5704 17.0101Z" fill="#FFF58C" stroke="#181919" stroke-miterlimit="10" stroke-linecap="round" stroke-linejoin="round"/>
<path d="M48.8441 8.38007L49.7374 11.1501C49.8168 11.4101 50.0551 11.5801 50.3231 11.5801H53.2115C53.8071 11.5801 54.0553 12.3501 53.5788 12.7001L51.2363 14.4101C51.0179 14.5701 50.9286 14.8501 51.008 15.1001L51.9013 17.8701C52.0899 18.4401 51.4348 18.9201 50.9484 18.5601L48.6059 16.8501C48.3875 16.6901 48.0996 16.6901 47.8812 16.8501L45.5387 18.5601C45.0523 18.9101 44.4071 18.4401 44.5857 17.8701L45.4791 15.1001C45.5585 14.8401 45.4692 14.5601 45.2508 14.4101L42.9082 12.7001C42.4219 12.3501 42.67 11.5801 43.2755 11.5801H46.164C46.432 11.5801 46.6702 11.4101 46.7496 11.1501L47.643 8.38007C47.8515 7.80007 48.6555 7.80007 48.8441 8.38007Z" fill="#FFF58C" stroke="#181919" stroke-miterlimit="10" stroke-linecap="round" stroke-linejoin="round"/>
<mask id="mask0_576_11854" style="mask-type:luminance" maskUnits="userSpaceOnUse" x="3" y="21" width="36" height="36">
<path d="M36.982 56.63C36.8529 56.2 36.4857 55.9 36.1383 55.62C35.6221 55.2 35.1059 54.79 34.5898 54.37C33.9843 53.88 33.3788 53.39 32.7038 53C30.3911 51.64 27.5919 51.51 25.0508 50.66C24.2269 50.38 23.4229 50.03 22.7479 49.48C21.388 48.39 20.6734 46.68 20.1175 45.02C19.5617 43.36 19.0852 41.62 18.0231 40.23C17.0305 39.53 16.0676 38.81 14.9361 38.53C13.0303 38.06 11.0054 38.93 9.08963 38.5C8.55362 38.38 8.04736 38.16 7.57091 37.89C5.36731 36.68 3.65009 34.43 3.41187 31.91C4.31514 28.06 6.10186 24.48 8.58339 21.77C8.36502 24.06 8.13672 26.38 8.58339 28.64C9.03007 30.9 10.2311 33.11 12.2362 34.2C14.3405 35.35 17.1297 35.22 18.7775 36.96C19.1745 37.38 19.4624 37.87 19.7602 38.37C20.6536 39.88 21.5568 41.4 22.1722 43.04C22.5494 44.05 22.8273 45.12 23.3832 46.04C24.078 47.2 25.2096 48.1 26.5496 48.5C27.1154 49.32 28.2271 49.5 29.2098 49.62C30.7087 49.8 32.2373 50.02 33.5873 50.72C34.6097 51.25 35.4732 52.04 36.2772 52.86C36.843 53.43 38.0738 54.64 38.1433 55.47C38.2029 55.96 37.3989 55.96 36.982 56.63Z" fill="white"/>
</mask>
<g mask="url(#mask0_576_11854)">
<path d="M3.50148 1.27991L-9.45215 26.4399" stroke="black" stroke-miterlimit="10"/>
<path d="M5.64522 4.25989L-7.30835 29.4199" stroke="black" stroke-miterlimit="10"/>
<path d="M7.78938 7.25L-5.16418 32.4" stroke="black" stroke-miterlimit="10"/>
<path d="M9.93355 10.2299L-3.02002 35.3899" stroke="black" stroke-miterlimit="10"/>
<path d="M12.0772 13.2101L-0.876343 38.3701" stroke="black" stroke-miterlimit="10"/>
<path d="M14.2215 16.1899L1.26794 41.3499" stroke="black" stroke-miterlimit="10"/>
<path d="M16.3654 19.1801L3.41187 44.33" stroke="black" stroke-miterlimit="10"/>
<path d="M18.5094 22.1599L5.55579 47.3199" stroke="black" stroke-miterlimit="10"/>
<path d="M20.6438 25.1399L7.7002 50.2999" stroke="black" stroke-miterlimit="10"/>
<path d="M22.7877 28.12L9.84399 53.28" stroke="black" stroke-miterlimit="10"/>
<path d="M24.9318 31.1099L11.9882 56.2599" stroke="black" stroke-miterlimit="10"/>
<path d="M27.076 34.0901L14.1323 59.2501" stroke="black" stroke-miterlimit="10"/>
<path d="M29.2199 37.0699L16.2762 62.2299" stroke="black" stroke-miterlimit="10"/>
<path d="M31.3639 40.0601L18.4203 65.2101" stroke="black" stroke-miterlimit="10"/>
<path d="M33.5081 43.04L20.5645 68.2" stroke="black" stroke-miterlimit="10"/>
<path d="M35.652 46.0199L22.7084 71.1799" stroke="black" stroke-miterlimit="10"/>
<path d="M37.7962 49L24.8525 74.16" stroke="black" stroke-miterlimit="10"/>
<path d="M39.9398 51.9899L26.9962 77.1399" stroke="black" stroke-miterlimit="10"/>
<path d="M42.084 54.97L29.1304 80.13" stroke="black" stroke-miterlimit="10"/>
</g>
<path d="M68.2196 46.3501C69.4306 45.5401 70.1354 44.1501 70.5622 42.7601C70.9989 41.3601 71.2074 39.9001 71.7136 38.5301C72.8849 35.3701 75.4855 32.9801 78.1656 30.9501C80.2898 29.3401 82.6323 27.7301 83.6051 25.2401C83.9227 24.4201 84.0716 23.5401 84.4786 22.7701C82.7018 18.9101 79.853 15.9701 77.0638 13.1201C76.5278 12.5701 75.9818 12.0201 75.3565 11.5701C73.0238 12.4801 71.128 14.2801 69.7879 16.3601C68.4479 18.4401 67.6042 20.8001 66.8002 23.1501C66.5818 23.8001 66.3535 24.4701 66.3733 25.1601C66.3932 25.9001 66.6811 26.6501 66.4726 27.3601C65.9863 30.0201 66.1748 32.8001 67.3362 35.1701C67.634 35.7701 67.9913 36.3601 68.1203 37.0101C68.2196 37.5001 68.1997 38.0101 68.2791 38.5101C68.3685 39.0401 68.5769 39.5501 68.6563 40.0901C68.8747 41.6101 67.9913 43.0801 66.9491 44.2101C66.6116 44.5701 66.2542 44.9201 65.7976 45.1201C64.666 45.6201 63.3856 45.0201 62.2441 44.5301C60.249 43.6801 58.0851 43.1301 55.9112 43.2201C53.7374 43.3101 51.5636 44.0801 49.9754 45.5701C49.0423 46.4501 48.3475 47.5501 47.742 48.6901C47.0472 50.0001 46.4616 51.3801 46.0447 53.0101C46.4417 53.0401 46.8586 52.8001 47.2358 52.9401C47.345 52.9801 47.4343 53.0501 47.5435 53.0801C47.6825 53.1301 47.8314 53.1101 47.9803 53.1101C48.6453 53.0901 49.3203 53.2601 49.9853 53.8601C50.561 52.2601 51.5934 50.8401 52.9334 49.8101C53.3602 49.4801 53.8267 49.1901 54.333 48.9901C55.0675 48.7101 55.8715 48.6401 56.6557 48.5801C58.9784 48.4001 61.3011 48.2701 63.6337 48.1801C64.4774 48.1501 65.341 48.1201 66.1451 47.8401C66.959 47.5801 67.495 46.8301 68.2196 46.3501Z" fill="white"/>
<mask id="mask1_576_11854" style="mask-type:luminance" maskUnits="userSpaceOnUse" x="46" y="11" width="39" height="43">
<path d="M68.2196 46.49C69.4306 45.68 70.1354 44.29 70.5622 42.9C70.9989 41.5 71.2074 40.04 71.7136 38.67C72.8849 35.51 75.4855 33.12 78.1656 31.09C80.2898 29.48 82.6323 27.87 83.6051 25.38C83.9227 24.56 84.0716 23.68 84.4786 22.91C82.7018 19.05 79.853 16.11 77.0638 13.26C76.5278 12.71 75.9818 12.16 75.3565 11.71C73.0238 12.62 71.128 14.42 69.7879 16.5C68.4479 18.58 67.6042 20.94 66.8002 23.29C66.5818 23.94 66.3535 24.61 66.3733 25.3C66.3932 26.04 66.6811 26.79 66.4726 27.5C65.9863 30.16 66.1748 32.94 67.3362 35.31C67.634 35.91 67.9913 36.5 68.1203 37.15C68.2196 37.64 68.1997 38.15 68.2791 38.65C68.3685 39.18 68.5769 39.69 68.6563 40.23C68.8747 41.75 67.9913 43.22 66.9491 44.35C66.6116 44.71 66.2542 45.06 65.7976 45.26C64.666 45.76 63.3856 45.16 62.2441 44.67C60.249 43.82 58.0851 43.27 55.9112 43.36C53.7374 43.45 51.5636 44.22 49.9754 45.71C49.0423 46.59 48.3475 47.69 47.742 48.83C47.0472 50.14 46.4616 51.52 46.0447 53.15C46.4417 53.18 46.8586 52.94 47.2358 53.08C47.345 53.12 47.4343 53.19 47.5435 53.22C47.6825 53.27 47.8314 53.25 47.9803 53.25C48.6453 53.23 49.3203 53.4 49.9853 54C50.561 52.4 51.5934 50.98 52.9334 49.95C53.3602 49.62 53.8267 49.33 54.333 49.13C55.0675 48.85 55.8715 48.78 56.6557 48.72C58.9784 48.54 61.3011 48.41 63.6337 48.32C64.4774 48.29 65.341 48.26 66.1451 47.98C66.959 47.72 67.495 46.97 68.2196 46.49Z" fill="white"/>
</mask>
<g mask="url(#mask1_576_11854)">
<path d="M83.9227 0.679932L96.8763 25.8399" stroke="black" stroke-miterlimit="10"/>
<path d="M81.7687 3.15002L94.7123 28.31" stroke="black" stroke-miterlimit="10"/>
<path d="M79.6046 5.62012L92.5482 30.7701" stroke="black" stroke-miterlimit="10"/>
<path d="M77.4408 8.09009L90.3944 33.2401" stroke="black" stroke-miterlimit="10"/>
<path d="M75.2867 10.55L88.2304 35.71" stroke="black" stroke-miterlimit="10"/>
<path d="M73.1229 13.0201L86.0766 38.1801" stroke="black" stroke-miterlimit="10"/>
<path d="M70.9591 15.4901L83.9127 40.6501" stroke="black" stroke-miterlimit="10"/>
<path d="M68.8053 17.9601L81.7489 43.1201" stroke="black" stroke-miterlimit="10"/>
<path d="M66.6412 20.4299L79.5948 45.5899" stroke="black" stroke-miterlimit="10"/>
<path d="M64.4872 22.8999L77.4308 48.0499" stroke="black" stroke-miterlimit="10"/>
<path d="M62.3234 25.37L75.2671 50.52" stroke="black" stroke-miterlimit="10"/>
<path d="M60.1595 27.83L73.1132 52.99" stroke="black" stroke-miterlimit="10"/>
<path d="M58.0055 30.2999L70.9491 55.4599" stroke="black" stroke-miterlimit="10"/>
<path d="M55.8417 32.77L68.7853 57.93" stroke="black" stroke-miterlimit="10"/>
<path d="M53.6779 35.2401L66.6314 60.4001" stroke="black" stroke-miterlimit="10"/>
<path d="M51.5238 37.7101L64.4674 62.8701" stroke="black" stroke-miterlimit="10"/>
<path d="M49.36 40.1801L62.3136 65.3301" stroke="black" stroke-miterlimit="10"/>
<path d="M47.1962 42.6401L60.1497 67.8001" stroke="black" stroke-miterlimit="10"/>
<path d="M45.0421 45.1101L57.9857 70.2701" stroke="black" stroke-miterlimit="10"/>
<path d="M42.8781 47.58L55.8316 72.74" stroke="black" stroke-miterlimit="10"/>
<path d="M40.7242 50.0499L53.6679 75.2099" stroke="black" stroke-miterlimit="10"/>
</g>
<path d="M41.4588 53.8899C42.1636 53.7199 42.8683 53.5399 43.5036 53.3599C42.9576 51.7699 42.4315 50.1499 42.3124 48.4799C42.1933 46.7999 42.5407 45.0399 43.5731 43.7199C45.062 41.8299 47.5931 41.2299 49.7173 40.1099C51.5934 39.1199 53.2212 37.6499 54.3925 35.8799C55.2064 34.6499 55.8318 33.1799 55.5936 31.7199C55.4546 30.8699 55.0377 30.0899 54.6109 29.3399C53.529 27.4199 52.2187 25.3899 50.0846 24.8199C46.6402 23.0299 42.5407 23.2299 38.6894 23.6799C37.0119 23.8799 35.3443 24.1099 33.7263 24.5799C29.5772 25.7899 26.0137 28.4499 22.5594 31.0499C22.3113 31.2399 22.0533 31.4399 21.9242 31.7299C21.815 31.9799 21.8249 32.2699 21.8448 32.5499C22.0433 34.8199 23.0955 36.8999 24.1377 38.9299C24.7234 40.0699 25.3189 41.2199 26.2222 42.1199C27.2148 43.1099 28.5151 43.7299 29.8254 44.2199C31.3044 44.7599 32.833 45.1499 34.3815 45.3899C35.2053 45.5099 36.059 45.5999 36.7736 46.0299C37.4089 46.4199 37.8655 47.0399 38.2924 47.6499C39.5133 49.3899 41.0915 54.0599 41.0915 54.0599L41.4588 53.8899Z" fill="#5A66FF"/>
<path d="M68.2891 37.53C67.9219 37.58 67.5447 37.61 67.1576 37.61C62.5221 37.61 58.77 33.83 58.77 29.16C58.77 24.49 62.5221 20.71 67.1576 20.71C67.3263 20.71 67.3462 20.75 67.5249 20.76" stroke="black" stroke-miterlimit="10" stroke-linecap="round" stroke-linejoin="round"/>
<path d="M75.4757 12.12C71.1281 13.93 67.7433 17.95 66.6911 22.57C65.371 28.38 67.5647 34.32 69.0139 40.1C68.9841 41.63 68.4778 43.14 67.4753 44.17C66.4628 45.2 64.9739 45.72 63.5446 45.56C61.7083 45.34 60.1597 44.09 58.3631 43.66C56.904 43.31 55.3654 43.54 53.8964 43.87C52.735 44.14 51.5737 44.48 50.5612 45.12C47.9109 46.79 46.819 50.18 46.7595 53.33C45.6974 53.06 44.814 53.18 44.0298 53.53C42.8585 52.76 42.6104 51.42 42.4516 50.21C42.1836 48.21 41.9652 46.01 43.0471 44.32C43.8809 43.02 45.3202 42.27 46.69 41.58C48.3179 40.76 49.9458 39.94 51.5737 39.13C52.6755 38.58 53.8071 37.99 54.5615 37.01C55.3754 35.94 55.6136 34.54 55.6136 33.19C55.6136 31.45 55.2364 29.68 54.3331 28.2C53.2412 26.41 51.4446 25.12 49.4892 24.39C47.5337 23.66 45.4195 23.45 43.335 23.45C35.2949 23.47 27.3043 26.78 21.5769 32.46C20.5446 27.28 20.6737 22.67 20.8226 18.17C20.9317 14.62 21.0707 10.98 22.1626 7.76002C33.8953 0.370023 49.1517 -1.02998 62.135 3.94002C67.0088 6.08002 71.6145 8.87002 75.4757 12.12Z" fill="#B180E0"/>
<path d="M88.5285 32.7501C88.5484 30.3801 86.8709 28.3801 85.9874 26.1801C85.511 24.9901 85.2529 23.6801 84.4489 22.6901C84.0419 24.9701 82.9997 27.4701 81.3222 28.9801C79.6446 30.4901 77.6892 31.6501 75.9124 33.0401C74.1356 34.4301 72.478 36.1101 71.7137 38.2401C71.0288 40.1601 71.0983 42.3301 70.1851 44.1501C69.3314 45.8501 67.6837 47.0401 65.9169 47.6901C64.1401 48.3401 62.2342 48.5201 60.3483 48.6001C58.3432 48.6901 56.2984 48.7001 54.4224 49.3901C52.5365 50.0801 50.8192 51.6201 50.313 53.6101C51.9706 54.4601 53.529 55.5101 54.9485 56.7101C56.3977 55.1201 58.3035 53.0801 60.3086 52.3101C61.3905 51.8901 63.3162 51.4601 63.3162 51.4601C63.3162 51.4601 65.7977 51.1301 67.0484 50.7501C68.0807 50.4301 68.9244 49.9501 69.7185 49.2001C71.8427 47.2201 71.6343 44.0201 73.2324 41.5901C74.0464 40.3401 75.3665 39.4901 76.776 39.0101C78.1855 38.5301 79.6744 38.3901 81.1534 38.3101C81.878 38.2701 82.6026 38.2501 83.2974 38.0701C85.8286 37.4601 88.5087 35.2901 88.5285 32.7501Z" fill="#FF88B6"/>
<path d="M21.1201 9.04006C16.4946 11.3101 12.9013 15.2801 9.8937 19.4901C9.37754 20.2101 8.87129 20.9601 8.63306 21.8201C8.40476 22.6401 8.44445 23.5101 8.49408 24.3701C8.57349 25.7901 8.66285 27.2001 8.77204 28.6201C8.82167 29.3201 8.89114 30.0501 9.18892 30.6801C9.48671 31.3101 9.99294 31.8101 10.4992 32.2801C11.5216 33.2301 12.6134 34.1401 13.8542 34.7801C15.0553 35.4001 16.3655 35.7601 17.5666 36.3701C18.7676 36.9801 19.9091 37.9101 20.1076 39.2001C22.1822 41.2801 21.8646 44.9201 23.8101 47.1201C24.9516 48.4201 26.7085 48.9901 28.3959 49.3201C30.0933 49.6501 31.8403 49.8001 33.4285 50.4801C35.7313 51.4801 37.5081 53.6401 38.064 56.2501C38.332 55.6101 38.8879 55.1401 39.4834 54.8001C40.079 54.4601 40.7341 54.2401 41.3396 53.8001C39.8408 51.3601 39.4437 48.1101 37.1607 46.4001C35.2549 44.9601 32.6443 45.0801 30.3415 44.4601C27.6019 43.7201 25.1799 41.8101 23.5024 39.3201C23.016 38.2801 22.5891 37.2101 22.1226 36.0301C21.7653 31.6401 20.5047 27.3301 20.5245 22.9201C20.5345 21.2801 20.7231 19.6401 20.9117 18.0001C21.2988 14.6701 21.6859 11.3201 22.4601 8.06006C21.9837 8.46006 21.4973 8.85006 21.1201 9.04006Z" fill="#56B381"/>
<path d="M3.61034 31.51C3.55078 34.87 6.26062 38.06 9.57594 38.51C11.2733 38.74 13.0203 38.33 14.7077 38.65C16.1569 38.93 17.497 39.78 18.3804 40.97C20.2167 43.45 20.048 47.16 22.2814 49.29C24.3559 51.27 27.5819 51.06 30.3414 51.82C33.0611 52.56 35.4731 54.38 36.9521 56.79" stroke="black" stroke-miterlimit="10" stroke-linecap="round" stroke-linejoin="round"/>
<path d="M88.4788 31.51C88.5384 34.87 85.8285 38.06 82.5132 38.51C80.8158 38.74 79.0689 38.33 77.3814 38.65C75.9322 38.93 74.5922 39.78 73.7087 40.97C71.8724 43.45 72.0412 47.16 69.8078 49.29C67.7332 51.27 64.5072 51.06 61.7478 51.82C59.028 52.56 56.616 54.38 55.137 56.79" stroke="black" stroke-miterlimit="10" stroke-linecap="round" stroke-linejoin="round"/>
<path d="M46.4417 52.63C46.6005 49.67 48.2085 46.82 50.6404 45.16C53.0723 43.5 56.2884 43.05 59.0776 43.99C61.3706 44.76 63.6834 46.43 65.9664 45.65C68.031 44.95 69.0037 42.46 68.8648 40.28C68.7258 38.09 67.763 36.05 67.1376 33.95C65.6289 28.89 66.1153 23.26 68.4578 18.53C69.8673 15.68 72.1503 13.02 75.2274 12.27" stroke="black" stroke-miterlimit="10" stroke-linecap="round" stroke-linejoin="round"/>
<path d="M83.9427 22.05C84.7566 28.55 78.6719 30.27 73.2225 35.76C70.8998 38.19 71.6641 41.64 69.9766 44.56C65.7779 52.37 54.3926 44.83 50.313 53.03" stroke="black" stroke-miterlimit="10" stroke-linecap="round" stroke-linejoin="round"/>
<path d="M22.341 7.91003C20.455 15.61 20.1771 23.7 21.5271 31.52C22.0134 34.34 22.7281 37.17 24.227 39.6C25.7159 42.03 28.0882 44.04 30.8774 44.54C31.9197 44.73 32.9917 44.7 34.0241 44.94C35.91 45.38 37.5081 46.69 38.6397 48.26C39.7712 49.84 40.476 51.68 41.0716 53.53" stroke="black" stroke-miterlimit="10" stroke-linecap="round" stroke-linejoin="round"/>
<path d="M8.78193 21.34C8.46429 23.64 8.13674 25.98 8.48416 28.28C8.83157 30.58 9.96319 32.86 11.9385 34.06C13.3976 34.94 15.1545 35.15 16.7228 35.84C18.9463 36.82 20.7032 38.83 21.398 41.18C21.7157 42.26 21.815 43.39 22.1723 44.46C22.8274 46.44 24.3858 48.09 26.3115 48.86C28.0188 49.54 29.9146 49.54 31.6914 50.02C34.5005 50.78 36.9324 52.83 38.1732 55.47" stroke="black" stroke-miterlimit="10" stroke-linecap="round" stroke-linejoin="round"/>
<path d="M21.9639 31.9601C27.2644 26.5901 34.6792 23.3901 42.2032 23.2201C45.8064 23.1401 49.6081 23.8201 52.3775 26.1501C55.1469 28.4701 56.4869 32.7701 54.6505 35.9001C51.9904 40.4201 44.5061 40.5001 42.5606 45.3701C41.5481 47.9201 42.5109 50.7801 43.4837 53.3501" stroke="black" stroke-miterlimit="10" stroke-linecap="round" stroke-linejoin="round"/>
<path d="M56.3084 17.2001C57.0978 17.2001 57.7378 16.5554 57.7378 15.7601C57.7378 14.9648 57.0978 14.3201 56.3084 14.3201C55.519 14.3201 54.879 14.9648 54.879 15.7601C54.879 16.5554 55.519 17.2001 56.3084 17.2001Z" fill="#FFF58C" stroke="#181919" stroke-miterlimit="10" stroke-linecap="round" stroke-linejoin="round"/>
<path d="M36.9425 17.2001C37.732 17.2001 38.3719 16.5554 38.3719 15.7601C38.3719 14.9648 37.732 14.3201 36.9425 14.3201C36.1531 14.3201 35.5132 14.9648 35.5132 15.7601C35.5132 16.5554 36.1531 17.2001 36.9425 17.2001Z" fill="#FFF58C" stroke="#181919" stroke-miterlimit="10" stroke-linecap="round" stroke-linejoin="round"/>
<path d="M47.2159 8.56005L48.1093 11.33C48.1887 11.59 48.4269 11.76 48.6949 11.76H51.5834C52.179 11.76 52.4271 12.53 51.9507 12.88L49.6081 14.59C49.3897 14.75 49.3004 15.03 49.3798 15.28L50.2732 18.05C50.4618 18.62 49.8066 19.1 49.3202 18.74L46.9777 17.03C46.7593 16.87 46.4714 16.87 46.253 17.03L43.9105 18.74C43.4241 19.09 42.7789 18.62 42.9576 18.05L43.8509 15.28C43.9303 15.02 43.841 14.74 43.6226 14.59L41.3098 12.89C40.8235 12.54 41.0716 11.77 41.6771 11.77H44.5656C44.8336 11.77 45.0718 11.6 45.1512 11.34L46.0446 8.57005C46.2233 7.99005 47.0273 7.99005 47.2159 8.56005Z" fill="#FFF58C" stroke="#181919" stroke-miterlimit="10" stroke-linecap="round" stroke-linejoin="round"/>
<mask id="mask2_576_11854" style="mask-type:luminance" maskUnits="userSpaceOnUse" x="1" y="1" width="90" height="91">
<path d="M46.0844 91.5C70.8906 91.5 91 71.2409 91 46.25C91 21.2591 70.8906 1 46.0844 1C21.2781 1 1.1687 21.2591 1.1687 46.25C1.1687 71.2409 21.2781 91.5 46.0844 91.5Z" fill="white"/>
</mask>
<g mask="url(#mask2_576_11854)">
<path d="M68.6959 81.3199C64.1994 78.1899 55.6034 76.0699 45.7368 76.0699C35.8703 76.0699 27.2742 78.1899 22.7777 81.3199H19.4326V86.3199C19.4326 91.9799 31.205 96.5699 45.7368 96.5699C60.2686 96.5699 72.041 91.9799 72.041 86.3199V81.3199H68.6959Z" fill="#5A66FF" stroke="black" stroke-miterlimit="10" stroke-linecap="round" stroke-linejoin="round"/>
<path d="M45.7368 91.5699C60.2642 91.5699 72.041 86.9809 72.041 81.3199C72.041 75.659 60.2642 71.0699 45.7368 71.0699C31.2094 71.0699 19.4326 75.659 19.4326 81.3199C19.4326 86.9809 31.2094 91.5699 45.7368 91.5699Z" fill="white" stroke="black" stroke-miterlimit="10" stroke-linecap="round" stroke-linejoin="round"/>
<path d="M68.6959 76.3199C64.1994 73.1899 55.6034 71.0699 45.7368 71.0699C35.8703 71.0699 27.2742 73.1899 22.7777 76.3199H19.4326V81.3199C19.4326 86.9799 31.205 91.5699 45.7368 91.5699C60.2686 91.5699 72.041 86.9799 72.041 81.3199V76.3199H68.6959Z" fill="#FF88B6" stroke="black" stroke-miterlimit="10"/>
<path d="M45.7368 86.5699C60.2642 86.5699 72.041 81.9809 72.041 76.3199C72.041 70.659 60.2642 66.0699 45.7368 66.0699C31.2094 66.0699 19.4326 70.659 19.4326 76.3199C19.4326 81.9809 31.2094 86.5699 45.7368 86.5699Z" fill="white" stroke="black" stroke-miterlimit="10" stroke-linecap="round" stroke-linejoin="round"/>
<path d="M68.6959 71.3199C64.1994 68.1899 55.6034 66.0699 45.7368 66.0699C35.8703 66.0699 27.2742 68.1899 22.7777 71.3199H19.4326V76.3199C19.4326 81.9799 31.205 86.5699 45.7368 86.5699C60.2686 86.5699 72.041 81.9799 72.041 76.3199V71.3199H68.6959Z" fill="#FF88B6" stroke="black" stroke-miterlimit="10"/>
<path d="M45.7368 81.5699C60.2642 81.5699 72.041 76.9809 72.041 71.3199C72.041 65.659 60.2642 61.0699 45.7368 61.0699C31.2094 61.0699 19.4326 65.659 19.4326 71.3199C19.4326 76.9809 31.2094 81.5699 45.7368 81.5699Z" fill="white" stroke="black" stroke-miterlimit="10" stroke-linecap="round" stroke-linejoin="round"/>
</g>
<path d="M46.0844 91.5C70.8906 91.5 91 71.2409 91 46.25C91 21.2591 70.8906 1 46.0844 1C21.2781 1 1.1687 21.2591 1.1687 46.25C1.1687 71.2409 21.2781 91.5 46.0844 91.5Z" stroke="#181919" stroke-miterlimit="10"/>
<path d="M63.4252 56.08C63.3061 53.74 63.3457 50.79 62.641 48.61C61.9859 46.62 60.7451 44.86 59.683 43.07C57.6482 39.64 54.9185 38.18 52.1392 35.57C51.3352 34.82 50.1043 35 49.1712 34.5C48.0794 33.92 47.2059 33.34 45.985 33.04C43.6027 32.45 41.151 32.72 39.0665 34.09C37.1408 35.36 35.1556 36.53 33.349 37.98C31.88 39.15 30.7682 40.96 29.3885 42.05C26.0037 44.71 25.6265 49.22 25.8747 53.24C26.0037 55.31 26.3114 57.24 27.5423 58.95C28.6242 60.46 30.2124 61.64 31.0561 63.32C32.148 65.46 32.6641 67.3 34.6196 68.9C38.2029 71.84 42.9575 73.06 47.4937 72.81C49.4492 72.7 51.3153 72.79 53.0425 71.73C54.5016 70.83 55.0376 69.36 56.2387 68.26C57.0725 67.5 58.1842 67.5 59.147 67.01C60.2985 66.43 60.4573 65.87 61.2414 64.89C61.5591 64.5 61.8568 64.06 62.0851 63.61C63.2663 61.3 63.584 58.92 63.4351 56.35C63.4351 56.25 63.4252 56.17 63.4252 56.08Z" fill="#45B757" stroke="black" stroke-miterlimit="10"/>
<path d="M50.7301 47.13C50.4324 46.58 49.6879 46.87 49.5489 47.37C48.1692 51.65 43.5933 53.59 39.9305 53.59C39.325 53.65 38.1737 53.2 38.124 54.1C38.3126 55.86 43.4444 57.8 45.1417 57.93C49.9261 57.97 53.1124 50.95 50.7301 47.13Z" stroke="black" stroke-miterlimit="10"/>
<path d="M37.0713 48.5399C38.2624 48.4399 39.4635 48.4299 40.6646 48.4899C40.1484 49.9499 38.9871 51.0699 37.8555 52.1299" stroke="black" stroke-miterlimit="10" stroke-linecap="round" stroke-linejoin="round"/>
<path d="M36.3767 50.69C37.8855 50.43 39.3248 49.74 40.4663 48.71" stroke="black" stroke-miterlimit="10" stroke-linecap="round" stroke-linejoin="round"/>
<path d="M46.9281 44.4501C46.2134 45.6401 45.2406 46.6701 44.0991 47.4501C45.2803 47.6301 46.4814 47.6301 47.6626 47.4401" stroke="black" stroke-miterlimit="10" stroke-linecap="round" stroke-linejoin="round"/>
<path d="M44.407 47.28C45.4194 46.97 46.4021 46.54 47.3153 46.01" stroke="black" stroke-miterlimit="10" stroke-linecap="round" stroke-linejoin="round"/>
</svg>
