<svg width="58" height="58" viewBox="0 0 58 58" fill="none" xmlns="http://www.w3.org/2000/svg">
<g filter="url(#filter0_d_0_1)">
<circle cx="29" cy="27" r="27" fill="white"/>
<circle cx="29" cy="27" r="26.5" stroke="black"/>
</g>
<path d="M25.9372 26.9734C25.8669 27.1723 25.8975 27.3931 26.0193 27.5654C26.1411 27.7377 26.339 27.8401 26.55 27.8401H28.0553C28.2663 27.8401 28.4642 27.7377 28.586 27.5654C28.7078 27.3931 28.7384 27.1723 28.6681 26.9734L27.9155 24.8452C27.8236 24.5855 27.5781 24.4119 27.3027 24.4119C27.0272 24.4119 26.7817 24.5855 26.6898 24.8452L25.9372 26.9734Z" stroke="black" stroke-width="1.3" stroke-linejoin="round"/>
<path d="M30.0679 37.1569C37.4878 37.1565 43.7839 32.4133 43.7839 26.2534C43.7839 20.0933 37.4873 15.35 30.067 15.35C22.6466 15.35 16.35 20.0933 16.35 26.2534C16.35 30.057 18.7796 33.3433 22.3516 35.2736C22.2037 35.7829 21.9855 36.5362 21.7767 37.2662C21.6255 37.7946 21.4787 38.3125 21.3669 38.7173C21.3111 38.9195 21.2633 39.0957 21.2279 39.2319C21.1973 39.3497 21.1643 39.4803 21.1526 39.5607L21.1505 39.5768L21.7958 39.6542C21.1505 39.5768 21.1504 39.577 21.1504 39.5773L21.1503 39.5777L21.1502 39.5786L21.15 39.5805L21.1496 39.5846L21.1486 39.594C21.1479 39.6007 21.1473 39.6086 21.1466 39.6175C21.1454 39.6351 21.1443 39.6573 21.144 39.6829C21.1434 39.7325 21.1459 39.8037 21.16 39.8853C21.1845 40.0273 21.2694 40.3348 21.5845 40.5191C21.5962 40.5259 21.608 40.5324 21.6201 40.5385C21.8631 40.661 22.1411 40.6817 22.3946 40.6048C22.4946 40.5801 22.5795 40.5407 22.6211 40.5213C22.6964 40.4861 22.7803 40.4416 22.867 40.393C23.0416 40.2951 23.2597 40.1625 23.5025 40.0095C23.9898 39.7023 24.6039 39.2955 25.2237 38.8775C26.2925 38.1566 27.3927 37.3927 27.9174 37.0277C28.6303 37.1158 29.349 37.1592 30.0679 37.1569ZM30.0679 37.1569C30.0676 37.1569 30.0673 37.1569 30.067 37.1569V36.5069L30.0691 37.1569C30.0687 37.1569 30.0683 37.1569 30.0679 37.1569ZM22.9501 24.6543C22.954 24.3082 23.2285 24.0259 23.5743 24.0122C23.7672 24.0045 23.9932 24.0083 24.1917 24.0116L24.1996 24.0118C24.4081 24.0152 24.585 24.018 24.7185 24.0126C24.7628 24.0092 24.7935 24.0005 24.8124 23.9927C24.8256 23.9873 24.833 23.9825 24.8365 23.9799C24.8372 23.9758 24.8381 23.9682 24.8377 23.9561C24.8359 23.9082 24.8294 23.8799 24.8245 23.865C24.81 23.861 24.7821 23.8555 24.7362 23.8548C23.5642 23.8374 22.1107 23.8374 20.9387 23.8548L22.9501 24.6543ZM22.9501 24.6543C22.9422 25.3559 22.9445 26.0408 22.9467 26.7194C22.9493 27.5012 22.9519 28.2744 22.9389 29.0548L22.9389 29.0549M22.9501 24.6543L22.9389 29.0549M22.9389 29.0549C22.9386 29.0711 22.9377 29.0835 22.9366 29.0928C22.9306 29.0964 22.9229 29.1006 22.9133 29.1055C22.8956 29.1145 22.8749 29.124 22.8499 29.1345C22.8199 29.1266 22.7951 29.1188 22.7743 29.111C22.7615 29.1063 22.7516 29.102 22.7441 29.0985C22.7427 29.0881 22.7414 29.0734 22.741 29.054L22.741 29.0537M22.9389 29.0549L22.741 29.0537M39.3646 24.4466L37.6433 26.1559M39.3646 24.4466C39.4827 24.3253 39.543 24.159 39.5292 23.9902L37.6433 26.1559M39.3646 24.4466L38.945 24.038L38.9447 24.0377L38.8989 23.9931C38.887 24.0054 38.8799 24.0233 38.8814 24.0429L38.7786 23.8711L38.828 23.9207L38.8254 23.9233M39.3646 24.4466L38.9579 24.037L38.9576 24.0367L38.9066 23.9854L38.8755 24.0162M37.6433 26.1559L39.4991 28.603C39.6197 28.7618 39.6731 28.96 39.6454 29.1563C39.5914 29.5677 39.2139 29.8547 38.8017 29.7996L37.6433 26.1559ZM38.8755 24.0162C38.864 23.9843 38.837 23.9576 38.8016 23.947M38.8755 24.0162L37.1853 25.6947C36.9542 25.9242 36.9286 26.2892 37.1254 26.5487L38.9811 28.9957L38.9814 28.9961C39.0001 29.0207 39.0046 29.0456 39.0018 29.0657L39.0018 29.0657L39.001 29.0717C38.9942 29.1232 38.9469 29.1632 38.8878 29.1553L38.8854 29.155C38.8565 29.1513 38.8319 29.1365 38.8155 29.1146L38.8132 29.1116L37.0454 26.7821C36.932 26.6327 36.7597 26.5396 36.5726 26.5266C36.3855 26.5136 36.202 26.582 36.0691 26.7143L35.8077 26.9744C35.6852 27.0964 35.6162 27.2622 35.6162 27.4351V29.0719C35.6162 29.1239 35.5722 29.1721 35.5124 29.1721C35.4525 29.1721 35.4085 29.1239 35.4085 29.0719V23.9452C35.4085 23.8932 35.4525 23.8449 35.5124 23.8449C35.5722 23.8449 35.6162 23.8932 35.6162 23.9452V25.5532C35.6162 25.8158 35.7743 26.0526 36.0168 26.1534C36.2593 26.2542 36.5386 26.1992 36.7248 26.0139L38.8016 23.947M38.8755 24.0162L38.7731 23.8701L38.7712 23.9422C38.7819 23.9425 38.792 23.9442 38.8016 23.947M38.8016 23.947L38.8254 23.9233M38.8254 23.9233L38.7786 23.8757L38.7775 23.9424C38.7956 23.9427 38.8129 23.9356 38.8254 23.9233ZM22.741 29.0537C22.7267 28.3495 22.7288 27.6183 22.7321 26.8761C22.7324 26.8236 22.7326 26.771 22.7328 26.7184C22.736 26.0299 22.7392 25.3332 22.7297 24.6527C22.7249 24.3072 22.4508 24.0259 22.1056 24.0122M22.741 29.0537L22.1056 24.0122M22.1056 24.0122C21.9135 24.0045 21.6878 24.0083 21.4889 24.0116M22.1056 24.0122L21.4889 24.0116M21.4889 24.0116L21.4803 24.0117M21.4889 24.0116L21.4803 24.0117M21.4803 24.0117C21.2713 24.0152 21.093 24.018 20.9574 24.0126M21.4803 24.0117L20.9574 24.0126M20.9574 24.0126C20.9122 24.0091 20.8804 24.0002 20.8603 23.9921C20.8478 23.987 20.8402 23.9824 20.836 23.9795C20.8356 23.9758 20.8353 23.97 20.8357 23.9619C20.838 23.9097 20.8458 23.8799 20.8511 23.8652C20.8649 23.8612 20.8925 23.8556 20.9385 23.8548L20.9574 24.0126ZM27.7007 24.1632L29.4961 28.8683C29.5405 29.0083 29.556 29.103 29.5606 29.162C29.5256 29.1695 29.4894 29.1734 29.4526 29.1734C29.4305 29.1734 29.4119 29.172 29.3967 29.1701L29.0535 28.2844C28.9566 28.0341 28.7158 27.8692 28.4474 27.8692H26.1532C25.8848 27.8692 25.644 28.0341 25.5471 28.2844L25.2039 29.17C25.1892 29.1719 25.1706 29.1734 25.148 29.1734C25.1113 29.1734 25.075 29.1694 25.0395 29.1617C25.0439 29.1036 25.059 29.0095 25.1032 28.8695L26.9047 24.1625L26.9048 24.1625L26.9085 24.1522C26.969 23.986 27.1206 23.8649 27.3011 23.8422C27.4826 23.8659 27.6356 23.9876 27.6984 24.1572L27.6984 24.1573L27.7007 24.1632ZM31.3109 29.0697C31.2777 29.0704 31.2536 29.0454 31.251 29.0186V23.9597C31.2573 23.9014 31.309 23.8522 31.3757 23.8544C31.4378 23.8573 31.4842 23.9046 31.4901 23.9594V28.3479C31.4901 28.7069 31.7811 28.9979 32.1401 28.9979H33.7421C33.7548 28.9979 33.7676 28.9975 33.7803 28.9968C33.8083 28.9951 33.8247 29.0153 33.8257 29.033C33.8267 29.0495 33.8166 29.0659 33.799 29.0721C33.7803 29.0704 33.7613 29.0696 33.7421 29.0696H31.3234V29.0695L31.3109 29.0697ZM29.4361 29.2722L29.4338 29.2662C29.4346 29.2682 29.4353 29.2702 29.4361 29.2722ZM25.1642 29.2732C25.165 29.271 25.1658 29.2688 25.1666 29.2666L25.1642 29.2732ZM20.8565 23.8532C20.8565 23.8532 20.8564 23.8535 20.856 23.854L20.8565 23.8532Z" stroke="black" stroke-width="1.3" stroke-linejoin="round"/>
<defs>
<filter id="filter0_d_0_1" x="0" y="0" width="58" height="58" filterUnits="userSpaceOnUse" color-interpolation-filters="sRGB">
<feFlood flood-opacity="0" result="BackgroundImageFix"/>
<feColorMatrix in="SourceAlpha" type="matrix" values="0 0 0 0 0 0 0 0 0 0 0 0 0 0 0 0 0 0 127 0" result="hardAlpha"/>
<feOffset dy="2"/>
<feGaussianBlur stdDeviation="1"/>
<feComposite in2="hardAlpha" operator="out"/>
<feColorMatrix type="matrix" values="0 0 0 0 0 0 0 0 0 0 0 0 0 0 0 0 0 0 0.15 0"/>
<feBlend mode="normal" in2="BackgroundImageFix" result="effect1_dropShadow_0_1"/>
<feBlend mode="normal" in="SourceGraphic" in2="effect1_dropShadow_0_1" result="shape"/>
</filter>
</defs>
</svg>
