<svg width="212" height="185" viewBox="0 0 212 185" fill="none" xmlns="http://www.w3.org/2000/svg">
<path d="M107.27 183.633C157.674 183.633 198.534 142.772 198.534 92.3683C198.534 41.9641 157.674 1.10339 107.27 1.10339C56.8653 1.10339 16.0046 41.9641 16.0046 92.3683C16.0046 142.772 56.8653 183.633 107.27 183.633Z" fill="#F5F5F5"/>
<path d="M195.127 116.168C188.269 113.364 179.899 114.594 174.151 119.274C168.403 123.953 165.498 131.879 166.85 139.181C173.445 137.87 180.04 136.559 186.656 135.248C187.079 135.167 187.503 135.066 187.846 134.804C188.229 134.501 188.41 133.997 188.592 133.513C190.629 127.624 192.706 121.714 195.127 116.168Z" fill="#FFF58C"/>
<mask id="mask0_525_54146" style="mask-type:luminance" maskUnits="userSpaceOnUse" x="20" y="42" width="72" height="72">
<path d="M88.8961 113.203C88.6339 112.336 87.8877 111.73 87.1818 111.166C86.133 110.319 85.0842 109.492 84.0354 108.645C82.8051 107.656 81.5748 106.668 80.2033 105.881C75.5039 103.138 69.8162 102.876 64.653 101.162C62.9789 100.597 61.3452 99.8913 59.9737 98.782C57.2106 96.5835 55.7584 93.1347 54.6289 89.7866C53.4995 86.4385 52.5314 82.9291 50.3733 80.1256C48.3564 78.7138 46.4 77.2616 44.1007 76.6968C40.2282 75.7489 36.1138 77.5036 32.2211 76.6363C31.132 76.3943 30.1034 75.9506 29.1353 75.4061C24.6578 72.9656 21.1685 68.4276 20.6844 63.345C22.5198 55.5799 26.1503 48.3594 31.1925 42.8936C30.7488 47.5123 30.2849 52.1915 31.1925 56.7497C32.1001 61.2877 34.5406 65.7653 38.6147 67.9637C42.8906 70.2831 48.558 70.0209 51.9061 73.5304C52.7129 74.3775 53.2978 75.3657 53.9029 76.3741C55.7181 79.4197 57.5534 82.4854 58.8039 85.7931C59.5703 87.8302 60.1351 89.9883 61.2645 91.8438C62.6764 94.1834 64.9756 95.9986 67.6985 96.8054C68.8481 98.4592 71.1071 98.8223 73.1038 99.0643C76.1493 99.4274 79.2553 99.8711 81.9983 101.283C84.0757 102.352 85.8304 103.945 87.4641 105.599C88.6138 106.749 91.1147 109.189 91.2559 110.863C91.3971 111.852 89.7432 111.831 88.8961 113.203Z" fill="white"/>
</mask>
<g mask="url(#mask0_525_54146)">
<path d="M20.8863 1.56723L-5.43433 52.2924" stroke="black" stroke-miterlimit="10"/>
<path d="M25.2227 7.57755L-1.07776 58.3228" stroke="black" stroke-miterlimit="10"/>
<path d="M29.579 13.588L3.27856 64.3333" stroke="black" stroke-miterlimit="10"/>
<path d="M33.9357 19.5984L7.63525 70.3437" stroke="black" stroke-miterlimit="10"/>
<path d="M38.2922 25.629L11.9918 76.3541" stroke="black" stroke-miterlimit="10"/>
<path d="M42.6488 31.6393L16.3484 82.3846" stroke="black" stroke-miterlimit="10"/>
<path d="M47.0052 37.6497L20.7047 88.395" stroke="black" stroke-miterlimit="10"/>
<path d="M51.3617 43.6802L25.0613 94.4053" stroke="black" stroke-miterlimit="10"/>
<path d="M55.7183 49.6905L29.4178 100.436" stroke="black" stroke-miterlimit="10"/>
<path d="M60.0746 55.7008L33.7742 106.446" stroke="black" stroke-miterlimit="10"/>
<path d="M64.4312 61.7113L38.1307 112.457" stroke="black" stroke-miterlimit="10"/>
<path d="M68.7878 67.7418L42.4672 118.467" stroke="black" stroke-miterlimit="10"/>
<path d="M73.1443 73.7523L46.8237 124.498" stroke="black" stroke-miterlimit="10"/>
<path d="M77.5007 79.7626L51.1801 130.508" stroke="black" stroke-miterlimit="10"/>
<path d="M81.8572 85.7729L55.5366 136.518" stroke="black" stroke-miterlimit="10"/>
<path d="M86.2138 91.8035L59.8932 142.529" stroke="black" stroke-miterlimit="10"/>
<path d="M90.5705 97.8139L64.2499 148.559" stroke="black" stroke-miterlimit="10"/>
<path d="M94.9268 103.824L68.6062 154.57" stroke="black" stroke-miterlimit="10"/>
<path d="M99.2834 109.855L72.9628 160.58" stroke="black" stroke-miterlimit="10"/>
</g>
<path d="M40.7739 97.6726C36.5787 98.0558 32.7063 100.94 31.1936 104.873C29.7011 108.806 30.6692 113.566 33.634 116.571C36.5989 119.576 41.3991 120.565 45.2917 118.991C46.5826 118.467 47.7725 117.68 48.8213 116.793C51.1004 114.857 52.956 112.194 53.1375 109.189C53.3392 105.962 51.5643 102.816 49.0028 100.819C46.4817 98.8021 43.2547 97.8542 40.7739 97.6726Z" fill="#FF88B6"/>
<path d="M152.369 92.469C154.829 90.8354 156.261 88.0319 157.128 85.2284C158.016 82.4047 158.439 79.46 159.468 76.6968C161.848 70.3234 167.132 65.5031 172.578 61.4087C176.894 58.1615 181.654 54.9143 183.631 49.8922C184.276 48.2384 184.578 46.4635 185.405 44.9105C181.795 37.1252 176.007 31.1955 170.339 25.4473C169.25 24.338 168.141 23.2287 166.87 22.3211C162.13 24.1565 158.278 27.787 155.555 31.9821C152.832 36.1773 151.118 40.9372 149.484 45.6769C149.041 46.9879 148.577 48.3392 148.617 49.7309C148.657 51.2234 149.242 52.7361 148.819 54.1681C147.831 59.533 148.214 65.14 150.574 69.9201C151.179 71.1302 151.905 72.3202 152.167 73.6312C152.369 74.6195 152.328 75.6481 152.49 76.6565C152.671 77.7255 153.095 78.7541 153.256 79.8432C153.7 82.9089 151.905 85.8738 149.787 88.1529C149.101 88.879 148.375 89.5848 147.447 89.9882C145.148 90.9967 142.546 89.7865 140.227 88.7983C136.173 87.0839 131.776 85.9746 127.359 86.1561C122.942 86.3376 118.525 87.8907 115.298 90.8959C113.402 92.6707 111.99 94.8893 110.76 97.1886C109.348 99.8307 108.158 102.614 107.311 105.902C108.118 105.962 108.965 105.478 109.731 105.76C109.953 105.841 110.135 105.982 110.356 106.043C110.639 106.144 110.941 106.103 111.244 106.103C112.595 106.063 113.967 106.406 115.318 107.616C116.488 104.389 118.585 101.525 121.308 99.4475C122.175 98.782 123.123 98.197 124.152 97.7937C125.645 97.2289 127.278 97.0878 128.872 96.9668C133.591 96.6037 138.311 96.3415 143.05 96.16C144.765 96.0995 146.52 96.0389 148.153 95.4742C149.827 94.9498 150.916 93.4372 152.369 92.469Z" fill="white"/>
<mask id="mask1_525_54146" style="mask-type:luminance" maskUnits="userSpaceOnUse" x="107" y="22" width="79" height="86">
<path d="M152.369 92.7514C154.829 91.1178 156.261 88.3143 157.128 85.5108C158.016 82.6871 158.439 79.7424 159.468 76.9793C161.848 70.6058 167.132 65.7854 172.578 61.6911C176.894 58.4439 181.654 55.1967 183.631 50.1746C184.276 48.5207 184.578 46.7458 185.405 45.1928C181.795 37.4076 176.007 31.4779 170.339 25.7297C169.25 24.6204 168.141 23.5112 166.87 22.6035C162.13 24.4389 158.278 28.0693 155.555 32.2645C152.832 36.4596 151.118 41.2195 149.484 45.9593C149.041 47.2703 148.577 48.6216 148.617 50.0133C148.657 51.5058 149.242 53.0184 148.819 54.4504C147.831 59.8154 148.214 65.4224 150.574 70.2024C151.179 71.4126 151.905 72.6026 152.167 73.9136C152.369 74.9019 152.328 75.9305 152.49 76.9389C152.671 78.0079 153.095 79.0365 153.256 80.1256C153.7 83.1913 151.905 86.1561 149.787 88.4352C149.101 89.1613 148.375 89.8673 147.447 90.2706C145.148 91.2791 142.546 90.069 140.227 89.0807C136.173 87.3663 131.776 86.257 127.359 86.4385C122.942 86.6201 118.525 88.1731 115.298 91.1783C113.402 92.9531 111.99 95.1717 110.76 97.471C109.348 100.113 108.158 102.896 107.311 106.184C108.118 106.245 108.965 105.76 109.731 106.043C109.953 106.124 110.135 106.265 110.356 106.325C110.639 106.426 110.941 106.386 111.244 106.386C112.595 106.345 113.967 106.688 115.318 107.898C116.488 104.671 118.585 101.807 121.308 99.7299C122.175 99.0643 123.123 98.4794 124.152 98.076C125.645 97.5113 127.278 97.3702 128.872 97.2491C133.591 96.8861 138.311 96.6239 143.05 96.4424C144.765 96.3819 146.52 96.3214 148.153 95.7566C149.827 95.2121 150.916 93.7196 152.369 92.7514Z" fill="white"/>
</mask>
<g mask="url(#mask1_525_54146)">
<path d="M184.296 0.357147L210.597 51.0823" stroke="black" stroke-miterlimit="10"/>
<path d="M179.899 5.33887L206.22 56.064" stroke="black" stroke-miterlimit="10"/>
<path d="M175.523 10.3004L201.823 61.0457" stroke="black" stroke-miterlimit="10"/>
<path d="M171.126 15.2822L197.426 66.0275" stroke="black" stroke-miterlimit="10"/>
<path d="M166.729 20.264L193.049 71.0093" stroke="black" stroke-miterlimit="10"/>
<path d="M162.352 25.2457L188.653 75.991" stroke="black" stroke-miterlimit="10"/>
<path d="M157.955 30.2274L184.276 80.9727" stroke="black" stroke-miterlimit="10"/>
<path d="M153.559 35.2092L179.879 85.9343" stroke="black" stroke-miterlimit="10"/>
<path d="M149.182 40.1708L175.482 90.9161" stroke="black" stroke-miterlimit="10"/>
<path d="M144.785 45.1525L171.106 95.8978" stroke="black" stroke-miterlimit="10"/>
<path d="M140.408 50.1342L166.709 100.879" stroke="black" stroke-miterlimit="10"/>
<path d="M136.011 55.116L162.312 105.861" stroke="black" stroke-miterlimit="10"/>
<path d="M131.615 60.0978L157.935 110.843" stroke="black" stroke-miterlimit="10"/>
<path d="M127.238 65.0795L153.538 115.805" stroke="black" stroke-miterlimit="10"/>
<path d="M122.841 70.0612L149.142 120.786" stroke="black" stroke-miterlimit="10"/>
<path d="M118.444 75.0229L144.765 125.768" stroke="black" stroke-miterlimit="10"/>
<path d="M114.068 80.0047L140.368 130.75" stroke="black" stroke-miterlimit="10"/>
<path d="M109.671 84.9864L135.991 135.732" stroke="black" stroke-miterlimit="10"/>
<path d="M105.294 89.968L131.594 140.713" stroke="black" stroke-miterlimit="10"/>
<path d="M100.897 94.9499L127.198 145.695" stroke="black" stroke-miterlimit="10"/>
<path d="M96.5004 99.9316L122.821 150.657" stroke="black" stroke-miterlimit="10"/>
</g>
<path d="M97.9929 107.677C99.4249 107.334 100.857 106.971 102.148 106.608C101.038 103.401 99.9694 100.133 99.7274 96.7651C99.4854 93.3767 100.191 89.8269 102.289 87.1646C105.314 83.3526 110.457 82.1425 114.774 79.8836C118.585 77.8869 121.893 74.922 124.273 71.3521C125.927 68.8713 127.198 65.9064 126.714 62.9617C126.431 61.2474 125.584 59.6742 124.717 58.1615C122.518 54.289 119.856 50.1948 115.52 49.0451C108.521 45.4349 100.191 45.8383 92.3657 46.7459C88.9571 47.1493 85.5687 47.6131 82.2812 48.5611C73.8505 51.0015 66.6098 56.3665 59.591 61.6104C59.0868 61.9937 58.5624 62.397 58.3002 62.9819C58.0783 63.4862 58.0985 64.0711 58.1388 64.6358C58.5422 69.2142 60.6802 73.4093 62.7979 77.5037C63.9879 79.8029 65.198 82.1223 67.0334 83.9375C69.0503 85.9343 71.6924 87.1848 74.3548 88.173C77.3599 89.2622 80.466 90.0488 83.6123 90.5328C85.2864 90.7749 87.0209 90.9564 88.4731 91.8236C89.7639 92.6102 90.6917 93.8607 91.5589 95.0911C94.0397 98.6005 97.2466 108.019 97.2466 108.019L97.9929 107.677Z" fill="#5A66FF"/>
<path d="M152.53 74.6799C151.784 74.7808 151.017 74.8413 150.231 74.8413C140.812 74.8413 133.188 67.2174 133.188 57.7985C133.188 48.3795 140.812 40.7557 150.231 40.7557C150.574 40.7557 150.614 40.8363 150.977 40.8565" stroke="black" stroke-miterlimit="10" stroke-linecap="round" stroke-linejoin="round"/>
<path d="M167.112 23.4103C158.278 27.0609 151.4 35.1688 149.262 44.4869C146.58 56.2051 151.037 68.1855 153.982 79.8432C153.921 82.9291 153.037 86.4226 151 88.5C148.963 90.5774 146.904 91.8227 144 91.5C140.269 91.0563 135.991 87.8907 132.341 87.0234C129.376 86.3175 126.249 86.7814 123.264 87.447C120.905 87.9915 118.545 88.6773 116.488 89.9681C111.103 93.3363 108.884 100.174 108.763 106.527C106.605 105.982 104.81 106.224 103.216 106.93C100.836 105.377 100.332 102.675 100.03 100.234C99.4852 96.2003 99.0415 91.7631 101.24 88.3545C102.934 85.7326 105.859 84.2199 108.642 82.8282C111.95 81.1744 115.192 79.1337 118.5 77.5C120.739 76.3907 121.967 74.9766 123.5 73C125.154 70.8419 126.774 68.6293 126.774 65.9065C126.774 62.3971 126.007 58.8271 124.172 55.8421C121.953 52.2318 118.303 49.63 114.33 48.1577C110.356 46.6853 106.06 46.2618 101.825 46.2618C85.4878 46.3021 69.2518 52.9781 57.6142 64.4341C55.5167 53.9865 55.7789 44.6886 56.0814 35.6125C56.3033 28.4525 56.5856 21.111 58.8042 14.6166C82.644 -0.288363 113.644 -3.11198 140.025 6.91203C149.928 11.2484 159.286 16.8755 167.112 23.4103Z" fill="#B180E0"/>
<path d="M85.1242 150.657C82.2602 149.326 79.013 149.124 75.907 148.539C71.6715 147.732 67.6377 146.199 63.5635 144.828C57.2305 142.71 50.7965 140.976 44.3425 139.241C41.0751 138.354 37.7875 137.486 34.5201 136.599C31.999 135.933 29.2157 135.268 26.8962 136.478C22.3179 126.293 19.0101 115.845 17.1546 105.135C14.7948 91.4808 14.936 76.838 21.027 64.4139C22.5397 68.8511 25.2626 73.1874 29.5384 75.1237C35.5891 77.8465 43.4752 75.2649 48.7796 79.2584C51.9462 81.6383 53.237 85.6923 54.4673 89.4437C55.6976 93.1951 57.3111 97.2088 60.76 99.1652C62.5349 100.174 65.1569 101.767 67.4763 101.888C68.7672 102.533 70.2798 102.533 71.732 102.634C78.7508 103.179 85.3865 107.495 88.1899 113.566C85.689 116.208 84.3578 119.717 83.1073 123.146C82.1997 125.627 81.272 128.148 81.1509 130.79C81.0501 133.17 81.5947 135.53 82.1594 137.849C83.188 142.105 84.1965 146.401 85.1242 150.657Z" fill="#EBEBEB"/>
<path d="M193.654 65.0392C193.694 60.2591 190.285 56.2253 188.49 51.7882C187.522 49.388 186.998 46.7458 185.364 44.7491C184.537 49.3477 182.42 54.3899 179.011 57.4355C175.602 60.481 171.629 62.8206 168.019 65.6241C164.409 68.4276 161.04 71.816 159.487 76.112C158.096 79.9845 158.237 84.3611 156.381 88.0319C154.647 91.4606 151.299 93.8607 147.709 95.1717C144.098 96.4827 140.226 96.8457 136.394 97.0071C132.32 97.1886 128.165 97.2088 124.353 98.6005C120.521 99.9921 117.032 103.098 116.003 107.112C119.371 108.826 122.538 110.944 125.422 113.364C128.367 110.157 132.239 106.043 136.313 104.49C138.512 103.643 142.424 102.775 142.424 102.775C142.424 102.775 147.467 102.11 150.008 101.343C152.106 100.698 153.82 99.7299 155.433 98.2173C159.75 94.2238 159.326 87.7697 162.573 82.8686C164.227 80.3475 166.91 78.6331 169.774 77.665C172.638 76.6969 175.663 76.4145 178.668 76.2531C180.14 76.1725 181.613 76.1321 183.025 75.7691C188.168 74.5186 193.613 70.1621 193.654 65.0392Z" fill="#FF88B6"/>
<path d="M56.687 17.1983C47.2882 21.7766 39.987 29.7838 33.8758 38.2749C32.827 39.7271 31.7984 41.2398 31.3144 42.9743C30.8505 44.6282 30.9312 46.3829 31.032 48.1174C31.1934 50.9814 31.3749 53.8253 31.5967 56.6893C31.6976 58.1011 31.8388 59.5734 32.4438 60.8441C33.0489 62.1147 34.0775 63.1232 35.1061 64.0711C37.1835 65.9872 39.4021 67.8226 41.9233 69.1134C44.3637 70.3639 47.026 71.09 49.4665 72.3203C51.907 73.5506 54.2264 75.4263 54.6298 78.0281C58.8451 82.2232 58.1997 89.5648 62.1528 94.002C64.4722 96.624 68.0422 97.7736 71.4709 98.4392C74.8996 99.1048 78.4696 99.4073 81.6966 100.779C86.3758 102.796 89.9861 107.152 91.1156 112.416C91.6601 111.125 92.7896 110.178 93.9997 109.492C95.2099 108.806 96.541 108.362 97.7713 107.475C94.7258 102.554 93.9191 95.9987 89.2802 92.5498C85.4077 89.6455 80.1033 89.8875 75.424 88.637C69.8574 87.1445 64.9361 83.2922 61.5276 78.2701C60.5393 76.1725 59.672 74.0145 58.7241 71.6345C57.998 62.7803 55.4365 54.0874 55.4769 45.1929C55.497 41.8852 55.8802 38.5775 56.2635 35.2698C57.05 28.5535 57.8366 21.7968 59.4098 15.2217C58.4215 16.0487 57.4534 16.8352 56.687 17.1983Z" fill="#56B381"/>
<path d="M107.27 183.633C157.674 183.633 198.534 142.772 198.534 92.3683C198.534 41.9641 157.674 1.10339 107.27 1.10339C56.8653 1.10339 16.0046 41.9641 16.0046 92.3683C16.0046 142.772 56.8653 183.633 107.27 183.633Z" stroke="#181919" stroke-miterlimit="10"/>
<path d="M21.1079 62.5382C20.9869 69.315 26.493 75.7489 33.2295 76.6565C36.6784 77.1204 40.2281 76.2935 43.6569 76.9389C46.6016 77.5037 49.3244 79.218 51.1194 81.6181C54.8507 86.62 54.5078 94.1027 59.0459 98.3988C63.2612 102.392 69.8161 101.969 75.4231 103.502C80.9494 104.994 85.8505 108.665 88.8557 113.526" stroke="black" stroke-miterlimit="10" stroke-linecap="round" stroke-linejoin="round"/>
<path d="M193.534 62.5382C193.655 69.315 188.149 75.7489 181.412 76.6565C177.963 77.1204 174.414 76.2935 170.985 76.9389C168.04 77.5037 165.317 79.218 163.522 81.6181C159.791 86.62 160.134 94.1027 155.596 98.3988C151.381 102.392 144.826 101.969 139.219 103.502C133.692 104.994 128.791 108.665 125.786 113.526" stroke="black" stroke-miterlimit="10" stroke-linecap="round" stroke-linejoin="round"/>
<path d="M108.138 105.135C108.461 99.1652 111.728 93.417 116.67 90.0689C121.611 86.7209 128.146 85.8133 133.813 87.7092C138.472 89.2622 143.172 92.6304 147.811 91.0573C152.006 89.6454 153.982 84.6233 153.7 80.2264C153.418 75.8094 151.461 71.695 150.191 67.4595C147.125 57.2539 148.113 45.8987 152.873 36.3588C155.737 30.6106 160.376 25.2457 166.628 23.733" stroke="black" stroke-miterlimit="10" stroke-linecap="round" stroke-linejoin="round"/>
<path d="M184.336 43.4584C185.989 56.5682 173.626 60.0373 162.553 71.1101C157.833 76.0112 159.387 82.9695 155.958 88.8588C147.426 104.611 124.292 89.4034 116.003 105.942" stroke="black" stroke-miterlimit="10" stroke-linecap="round" stroke-linejoin="round"/>
<path d="M59.1678 14.9393C55.3357 30.4695 54.771 46.7863 57.5139 62.5585C58.5022 68.2461 59.9544 73.9539 62.9999 78.855C66.0253 83.7561 70.8457 87.8101 76.5132 88.8185C78.6309 89.2017 80.8092 89.1412 82.9068 89.6253C86.7389 90.5127 89.9861 93.1549 92.2854 96.3214C94.5846 99.5081 96.0166 103.219 97.2268 106.95" stroke="black" stroke-miterlimit="10" stroke-linecap="round" stroke-linejoin="round"/>
<path d="M31.596 42.0262C30.9505 46.6651 30.285 51.3847 30.9909 56.0235C31.6968 60.6624 33.9961 65.2609 38.0097 67.6812C40.9745 69.4561 44.5445 69.8797 47.7312 71.2713C52.2491 73.2479 55.819 77.3019 57.2308 82.0416C57.8762 84.2199 58.0779 86.499 58.804 88.6571C60.1351 92.6505 63.3017 95.9784 67.2145 97.5314C70.6835 98.9029 74.5358 98.9029 78.1461 99.871C83.8539 101.404 88.7953 105.539 91.3165 110.863" stroke="black" stroke-miterlimit="10" stroke-linecap="round" stroke-linejoin="round"/>
<path d="M58.401 63.4458C69.1713 52.6151 84.2375 46.1408 99.5257 45.8181C106.847 45.6567 114.572 47.0282 120.199 51.7276C125.826 56.4069 128.549 65.0795 124.818 71.3924C119.412 80.5088 104.205 80.6701 100.252 90.4925C98.1945 95.6356 100.151 101.404 102.127 106.587" stroke="black" stroke-miterlimit="10" stroke-linecap="round" stroke-linejoin="round"/>
<path d="M41.9224 119.899C48.1268 119.899 53.1565 114.869 53.1565 108.665C53.1565 102.46 48.1268 97.4306 41.9224 97.4306C35.7179 97.4306 30.6882 102.46 30.6882 108.665C30.6882 114.869 35.7179 119.899 41.9224 119.899Z" fill="#FF88B6" stroke="black" stroke-miterlimit="10"/>
<path d="M81.3137 130.891C81.3137 117.176 92.9311 106.083 107.291 106.083C121.652 106.083 133.269 117.196 133.269 130.891C133.269 144.586 121.894 174.658 107.291 174.658C92.6891 174.658 81.3137 144.606 81.3137 130.891Z" fill="white" stroke="black" stroke-miterlimit="10" stroke-linecap="round" stroke-linejoin="round"/>
<path d="M211 137.749V170.906C174.817 160.499 142.587 184.198 106 184.198C68.1225 183.895 37.2034 160.499 1 170.906V137.749C37.2438 127.402 68.7276 152.694 106 152.694C140.953 152.976 174.756 127.382 211 137.749Z" fill="white" stroke="#181919" stroke-miterlimit="10"/>
<path d="M19.3944 154.327C18.7288 154.287 18.3859 154.267 17.7002 154.247C17.4783 155.255 17.3775 155.739 17.1556 156.748C16.5304 156.728 16.2077 156.728 15.5824 156.728C15.8043 155.719 15.9051 155.215 16.127 154.206C15.5824 154.206 15.3202 154.186 14.7756 154.186C14.7756 153.642 14.7756 153.38 14.7756 152.835C15.4412 152.835 15.7639 152.835 16.4094 152.855C16.5909 152.048 16.6716 151.645 16.8531 150.818C16.2278 150.798 15.9051 150.798 15.2597 150.798C15.2597 150.274 15.2597 149.991 15.2597 149.467C16.006 149.467 16.3892 149.487 17.1354 149.507C17.3573 148.499 17.4783 147.994 17.7002 146.986C18.3254 147.006 18.6481 147.026 19.2734 147.067C19.0515 148.075 18.9305 148.579 18.7086 149.568C19.3742 149.608 19.7171 149.628 20.3827 149.668C20.6045 148.68 20.7255 148.176 20.9474 147.168C21.5726 147.208 21.8752 147.248 22.4802 147.309C22.2382 148.317 22.1172 148.821 21.8953 149.81C22.4197 149.85 22.6819 149.89 23.2063 149.951C23.2063 150.475 23.2063 150.758 23.2063 151.282C22.5609 151.221 22.2584 151.181 21.613 151.121C21.4314 151.927 21.3508 152.331 21.1894 153.117C21.8146 153.178 22.1373 153.198 22.7626 153.259C22.7626 153.803 22.7626 154.065 22.7827 154.61C22.0365 154.529 21.6735 154.509 20.9272 154.449C20.7255 155.437 20.6045 155.921 20.4028 156.909C19.7776 156.869 19.475 156.849 18.8498 156.828C19.0716 155.82 19.1725 155.316 19.3944 154.327ZM17.9825 152.916C18.6683 152.936 19.0111 152.956 19.6767 152.996C19.8582 152.19 19.9389 151.786 20.1204 150.979C19.4549 150.939 19.112 150.919 18.4263 150.879C18.2447 151.685 18.1641 152.089 17.9825 152.916Z" fill="#181919"/>
<path d="M31.294 147.914C31.2537 148.519 31.2336 148.821 31.1932 149.426C30.3259 149.265 29.8822 149.184 29.015 149.043C28.9544 150.092 28.9544 150.596 28.9544 151.605C28.9544 154.791 30.0839 156.002 31.3545 156.768C31.3747 157.353 31.3747 157.635 31.3949 158.22C30.0637 157.635 28.8536 156.586 28.2284 155.437C27.6636 156.405 26.4737 157.111 25.1425 157.353C25.1425 156.748 25.1223 156.445 25.1223 155.84C26.3728 155.417 27.3409 154.529 27.3409 151.363C27.3409 150.354 27.3409 149.83 27.3812 148.801C26.514 148.68 26.0904 148.62 25.203 148.499C25.2232 147.894 25.2433 147.611 25.2635 147.006C27.6838 147.309 28.8939 147.49 31.294 147.914ZM34.2589 159.41C33.6135 159.289 33.2706 159.229 32.6252 159.128C32.484 154.953 32.2621 152.633 32.6454 147.954C33.3109 148.075 33.6337 148.136 34.2791 148.277C33.8555 152.956 34.0975 155.296 34.2589 159.41Z" fill="#181919"/>
<path d="M36.901 152.069C36.901 151.02 37.3649 150.173 37.97 149.729C38.5145 149.326 39.2003 149.225 40.0676 149.406C40.9348 149.608 41.5601 150.011 41.9836 150.616C42.1046 150.778 42.1853 150.939 42.266 151.141C43.1332 151.342 43.5568 151.443 44.4241 151.645C44.4846 151.181 44.5047 150.959 44.5652 150.516C45.2107 150.677 45.5535 150.737 46.1989 150.899C45.8561 153.642 45.735 154.953 45.9166 157.575C45.251 157.413 44.9283 157.353 44.2829 157.191C44.2425 156.586 44.2224 156.264 44.2224 155.659C43.3954 155.457 42.9719 155.356 42.145 155.175C42.0239 155.336 41.9029 155.477 41.7416 155.598C41.2575 155.981 40.6323 156.062 39.7852 155.88C38.9381 155.679 38.2322 155.275 37.7481 154.691C37.2036 154.045 36.901 153.137 36.901 152.069ZM44.4039 159.168C41.7012 158.543 40.3701 158.22 37.6876 157.635C37.6473 157.05 37.6473 156.768 37.6069 156.183C40.9147 156.909 42.5887 157.312 45.9368 158.099C46.0578 159.854 46.0981 160.6 46.1788 162.133C45.5334 161.972 45.1905 161.891 44.5451 161.75C44.4846 160.721 44.4846 160.338 44.4039 159.168ZM38.4742 152.432C38.4742 153.037 38.5952 153.541 38.8574 153.884C39.0591 154.146 39.3616 154.348 39.7448 154.448C40.1281 154.549 40.4306 154.469 40.6323 154.287C40.8945 154.065 41.0155 153.622 41.0155 152.996C41.0155 152.391 40.9752 151.867 40.7533 151.504C40.5919 151.221 40.2894 151.02 39.9062 150.919C39.523 150.818 39.2003 150.899 38.9784 151.1C38.6557 151.342 38.4742 151.827 38.4742 152.432ZM42.5685 152.754C42.5685 152.976 42.5887 153.158 42.5887 153.38C42.5887 153.561 42.5685 153.702 42.5685 153.864C43.2341 154.025 43.5568 154.106 44.2224 154.247C44.2224 153.803 44.182 153.601 44.2425 153.158C43.5568 152.996 43.2341 152.916 42.5685 152.754Z" fill="#181919"/>
<path d="M48.5587 157.191C52.5522 158.119 54.5893 158.583 58.8248 159.35C58.8248 159.934 58.8248 160.237 58.8248 160.822C57.1306 160.499 56.3036 160.338 54.6296 159.975C54.6498 160.761 54.67 161.185 54.6901 161.911C54.0245 161.77 53.7018 161.689 53.0362 161.548C53.0161 160.822 52.9959 160.398 52.9556 159.612C51.221 159.229 50.3538 159.027 48.6394 158.644C48.5991 158.079 48.5587 157.776 48.5587 157.191ZM49.2646 156.365C49.2646 154.61 49.3453 153.702 49.5672 151.847C52.9757 152.653 54.6901 153.057 58.139 153.763C58.0987 155.558 58.0785 156.445 58.0785 158.2C54.4481 157.554 52.7135 157.151 49.2646 156.365ZM51.1404 161.931C53.9842 162.617 55.4162 162.94 58.3206 163.585C58.3206 164.17 58.3205 164.452 58.3407 165.037C54.791 164.15 53.0564 163.706 49.5672 162.839C49.5067 161.629 49.4865 161.084 49.4058 159.733C50.0714 159.894 50.3941 159.955 51.0597 160.116C51.1 160.903 51.1 161.245 51.1404 161.931ZM56.3843 154.852C54.2262 154.408 53.1573 154.166 51.0395 153.702C50.979 154.368 50.9185 154.711 50.9185 155.356C53.0564 155.84 54.1254 156.062 56.3238 156.486C56.344 155.84 56.3641 155.517 56.3843 154.852Z" fill="#181919"/>
<path d="M61.5274 159.813C61.5274 158.986 61.8702 158.361 62.4148 158.018C62.8989 157.716 63.5846 157.615 64.3914 157.796C65.1981 157.978 65.8839 158.381 66.3881 158.906C66.9528 159.511 67.2755 160.277 67.2755 161.124C67.2755 161.951 66.9528 162.597 66.3881 162.919C66.0856 163.101 65.6822 163.182 65.2586 163.182C65.2586 163.686 65.2586 163.948 65.2385 164.472C65.783 164.614 66.0654 164.674 66.61 164.815C67.5377 165.057 68.2033 165.057 68.5865 164.795C68.6672 160.882 68.6067 159.37 68.5664 156.042C69.2521 156.223 69.595 156.324 70.2807 156.506C70.3009 158.2 70.3211 159.047 70.3009 160.862C70.9866 161.044 71.3295 161.145 72.0354 161.326C72.0354 161.911 72.0354 162.214 72.0354 162.798C71.3497 162.617 71.0068 162.516 70.3009 162.335C70.3009 164.533 70.2807 165.683 70.2202 168.123C69.5345 167.942 69.1916 167.841 68.526 167.639C68.5462 167.115 68.5462 166.852 68.5462 166.328C68.163 166.631 67.3159 166.61 66.2469 166.328C64.1695 165.763 63.1207 165.501 61.0635 164.997C61.0635 164.392 61.0635 164.089 61.0836 163.484C62.0719 163.706 62.556 163.807 63.5644 164.049C63.5644 163.525 63.5644 163.262 63.5846 162.758C63.1409 162.556 62.7577 162.274 62.4551 161.971C61.8501 161.427 61.5274 160.66 61.5274 159.813ZM65.2385 156.163C66.1662 156.385 66.6503 156.506 67.5781 156.748C67.5781 157.292 67.5781 157.575 67.5982 158.119C65.0368 157.474 63.7661 157.171 61.2248 156.667C61.2248 156.102 61.2248 155.82 61.2248 155.235C62.1526 155.437 62.6165 155.538 63.5443 155.759C63.5443 155.255 63.5443 154.993 63.5443 154.489C64.23 154.65 64.5527 154.731 65.2385 154.912C65.2183 155.417 65.2385 155.659 65.2385 156.163ZM63.2215 160.176C63.2215 160.56 63.3627 160.903 63.5846 161.165C63.7863 161.407 64.0686 161.568 64.4115 161.649C64.7544 161.729 65.0368 161.689 65.2385 161.548C65.4603 161.387 65.6015 161.084 65.6015 160.721C65.6015 160.338 65.4603 159.995 65.2385 159.733C65.0368 159.491 64.7544 159.329 64.4115 159.249C64.0686 159.168 63.7863 159.208 63.5846 159.37C63.3627 159.511 63.2215 159.813 63.2215 160.176Z" fill="#181919"/>
<path d="M73.8103 160.721C73.8103 160.277 74.012 160.015 74.3751 159.914C74.8995 159.773 75.7466 159.854 76.8559 160.156C77.9652 160.459 78.8123 160.842 79.3568 161.286C79.74 161.609 79.9417 161.972 79.9417 162.415C79.9417 162.839 79.74 163.121 79.3568 163.242C78.9938 163.363 78.4492 163.363 77.7433 163.222C77.7433 163.404 77.7433 163.484 77.7433 163.666C78.3282 163.827 78.6308 163.908 79.2157 164.069C80.1636 164.331 80.7283 164.372 81.1116 164.19C81.1116 162.254 81.1115 161.326 81.0914 159.531C81.7771 159.713 82.12 159.813 82.8259 159.975C82.8461 160.983 82.8461 161.487 82.8461 162.496C83.4915 162.677 83.8344 162.758 84.4798 162.919C84.4798 163.484 84.4798 163.807 84.4798 164.412C83.8344 164.251 83.4915 164.15 82.8461 163.988C82.8461 164.977 82.8461 165.461 82.8461 166.469C82.1603 166.288 81.8175 166.187 81.1317 166.005C81.1317 165.743 81.1317 165.622 81.1317 165.38C80.7283 165.602 80.0426 165.582 78.7719 165.219C76.634 164.634 75.565 164.331 73.4271 163.746C73.4271 163.242 73.4271 162.98 73.4271 162.476C74.4759 162.758 75.0003 162.919 76.0491 163.202C76.0491 163.02 76.0491 162.94 76.0491 162.758C75.3432 162.516 74.7986 162.214 74.3953 161.871C74.012 161.528 73.8103 161.145 73.8103 160.721ZM77.7231 159.007C78.7114 159.269 79.1955 159.41 80.1838 159.672C80.1838 160.136 80.1838 160.358 80.2039 160.822C77.5214 160.096 76.1903 159.713 73.528 158.987C73.528 158.523 73.528 158.301 73.5078 157.837C74.4961 158.119 75.0003 158.24 75.9886 158.523C75.9886 158.24 75.9886 158.099 75.9886 157.797C76.6743 157.978 77.0172 158.079 77.703 158.26C77.703 158.583 77.7231 158.724 77.7231 159.007ZM75.9079 168.506C78.7114 169.273 80.1031 169.656 82.9268 170.362C82.9066 170.906 82.9066 171.169 82.9066 171.713C79.3972 170.846 77.6425 170.362 74.1532 169.394C74.1935 168.103 74.2339 167.316 74.2339 166.147C76.9769 166.913 78.3484 167.296 81.0914 168.022C81.0914 167.841 81.0914 167.74 81.0914 167.558C78.3484 166.812 76.9567 166.429 74.2339 165.662C74.2339 165.178 74.2339 164.936 74.2339 164.432C77.6626 165.38 79.377 165.884 82.8259 166.772C82.8259 167.921 82.8259 168.506 82.7856 169.777C80.0224 169.071 78.6509 168.688 75.9079 167.942C75.9281 168.184 75.9079 168.284 75.9079 168.506ZM75.4239 161.165C75.4239 161.245 75.4844 161.326 75.5651 161.387C75.7869 161.568 76.2911 161.709 76.876 161.871C77.4609 162.032 77.9652 162.153 78.187 162.113C78.2677 162.093 78.308 162.032 78.308 161.951C78.308 161.871 78.2677 161.79 78.187 161.729C77.9652 161.548 77.4609 161.387 76.876 161.225C76.2911 161.064 75.7869 160.943 75.5651 161.003C75.4844 161.024 75.4239 161.064 75.4239 161.165Z" fill="#181919"/>
<path d="M88.433 162.819C88.433 163.323 88.433 163.545 88.433 164.069C91.3575 164.755 92.8097 165.057 95.7342 165.501C95.7342 166.066 95.7342 166.348 95.7342 166.913C94.2417 166.671 93.4954 166.55 92.0231 166.247C92.0231 166.59 92.0231 166.772 92.0231 167.135C93.7778 167.478 94.6451 167.639 96.3998 167.901C96.3998 168.486 96.3998 168.768 96.3998 169.353C92.245 168.748 90.1474 168.264 85.9926 167.236C85.9926 166.651 85.9926 166.348 85.9926 165.763C87.7271 166.187 88.5944 166.389 90.3087 166.772C90.3087 166.409 90.3087 166.247 90.3087 165.884C88.8767 165.582 88.1506 165.4 86.7186 165.057C86.7186 163.404 86.7186 162.617 86.6985 161.044C90.2886 161.891 92.0836 162.274 95.6737 162.819C95.6737 163.383 95.6737 163.666 95.6737 164.21C92.7694 163.787 91.3172 163.484 88.433 162.819ZM86.4766 170.322C86.4968 169.495 86.8598 169.051 87.4851 168.829C88.2918 168.567 89.6028 168.708 91.176 169.031C92.7693 169.353 94.0602 169.737 94.8669 170.322C95.5123 170.785 95.8552 171.37 95.8552 172.157C95.8552 172.943 95.4922 173.428 94.8468 173.69C94.0198 174.033 92.729 174.012 91.1357 173.71C89.5423 173.407 88.2515 172.964 87.4246 172.298C86.8195 171.794 86.4565 171.148 86.4766 170.322ZM88.2111 170.725C88.2111 170.967 88.312 171.169 88.5339 171.35C88.9977 171.713 89.865 171.975 91.1558 172.217C92.4467 172.459 93.3139 172.54 93.798 172.359C94.0198 172.278 94.1408 172.117 94.1408 171.895C94.1408 171.673 94.04 171.471 93.798 171.29C93.3341 170.967 92.4668 170.725 91.176 170.463C89.8852 170.2 89.0179 170.079 88.554 170.221C88.3322 170.321 88.2111 170.483 88.2111 170.725Z" fill="#181919"/>
<path d="M102.894 166.106C102.894 165.703 102.894 165.501 102.894 165.098C101.301 165.017 100.514 164.957 98.9209 164.775C98.9209 164.19 98.9209 163.908 98.9209 163.323C101.2 163.565 102.329 163.646 104.588 163.686C104.588 164.593 104.588 165.057 104.588 165.965C104.588 170.281 103.015 173.246 98.8402 173.871C98.8402 173.226 98.8402 172.883 98.8402 172.238C101.724 171.713 102.894 169.454 102.894 166.106ZM107.997 167.942C108.683 167.921 109.046 167.901 109.731 167.861C109.731 168.446 109.731 168.728 109.731 169.313C109.046 169.353 108.683 169.374 107.997 169.394C107.997 171.552 107.997 172.641 107.997 174.799C107.311 174.819 106.968 174.839 106.283 174.839C106.283 170.301 106.283 168.022 106.283 163.484C106.968 163.484 107.311 163.464 107.997 163.444C107.997 165.239 107.997 166.146 107.997 167.942Z" fill="#181919"/>
<path d="M119.574 170.2C118.888 170.322 118.525 170.382 117.839 170.503C117.618 171.572 117.517 172.096 117.295 173.145C116.649 173.246 116.327 173.286 115.701 173.367C115.923 172.318 116.024 171.794 116.246 170.745C115.701 170.826 115.419 170.866 114.875 170.927C114.875 170.382 114.875 170.12 114.875 169.575C115.54 169.495 115.863 169.434 116.528 169.333C116.71 168.486 116.791 168.063 116.992 167.236C116.347 167.336 116.024 167.377 115.379 167.478C115.379 166.953 115.379 166.691 115.379 166.167C116.145 166.066 116.528 166.005 117.295 165.904C117.537 164.876 117.638 164.311 117.86 163.242C118.505 163.141 118.828 163.081 119.473 162.96C119.251 164.049 119.15 164.614 118.908 165.642C119.594 165.521 119.957 165.461 120.643 165.34C120.885 164.311 120.986 163.746 121.208 162.637C121.853 162.516 122.156 162.456 122.801 162.314C122.579 163.424 122.478 164.009 122.256 165.037C122.801 164.936 123.083 164.876 123.628 164.755C123.628 165.259 123.628 165.521 123.608 166.025C122.942 166.167 122.599 166.227 121.934 166.368C121.752 167.195 121.651 167.619 121.47 168.486C122.135 168.365 122.458 168.284 123.124 168.143C123.124 168.688 123.124 168.97 123.124 169.515C122.357 169.676 121.954 169.757 121.187 169.898C120.966 170.967 120.865 171.511 120.643 172.58C119.997 172.701 119.675 172.762 119.05 172.863C119.251 171.794 119.352 171.269 119.574 170.2ZM118.122 169.071C118.828 168.95 119.171 168.889 119.876 168.768C120.058 167.901 120.139 167.478 120.34 166.651C119.634 166.772 119.292 166.852 118.586 166.953C118.384 167.8 118.303 168.224 118.122 169.071Z" fill="#181919"/>
<path d="M127.863 164.977C127.319 165.844 126.29 166.853 125.201 167.518C125.201 166.873 125.201 166.55 125.201 165.965C126.27 165.199 127.016 164.251 126.976 162.214C126.956 161.568 126.956 161.246 126.956 160.58C127.642 160.419 127.964 160.338 128.65 160.156C128.67 160.782 128.67 161.104 128.67 161.73C128.71 163.787 129.396 164.17 130.425 164.432C130.425 165.017 130.405 165.299 130.425 165.945C129.396 165.884 128.428 165.521 127.863 164.977ZM126.27 169.959C126.27 169.172 126.613 168.567 127.178 168.042C128.045 167.236 129.437 166.691 130.889 166.308C132.341 165.925 133.733 165.763 134.62 166.126C135.185 166.368 135.528 166.812 135.548 167.599C135.548 168.385 135.205 169.031 134.66 169.575C133.793 170.422 132.401 170.987 130.949 171.35C129.477 171.713 128.085 171.854 127.218 171.451C126.633 171.209 126.29 170.745 126.27 169.959ZM128.005 169.555C128.005 169.817 128.126 169.979 128.388 170.08C128.892 170.261 129.82 170.16 130.929 169.878C132.018 169.595 132.946 169.232 133.45 168.809C133.692 168.587 133.833 168.365 133.813 168.083C133.813 167.821 133.672 167.679 133.43 167.579C132.926 167.397 131.998 167.538 130.909 167.821C129.82 168.103 128.872 168.446 128.388 168.869C128.126 169.071 128.005 169.293 128.005 169.555ZM133.571 158.805C134.237 158.624 134.559 158.543 135.225 158.361C135.286 161.165 135.205 162.193 135.245 164.876C134.58 165.057 134.257 165.138 133.591 165.32C133.591 164.19 133.591 163.706 133.612 162.698C133.208 162.799 133.006 162.859 132.583 162.96C132.563 163.908 132.543 164.331 132.563 165.38C131.897 165.562 131.574 165.642 130.929 165.804C130.909 163.242 130.969 162.234 130.929 159.571C131.595 159.41 131.917 159.309 132.563 159.148C132.583 160.096 132.583 160.58 132.603 161.528C133.006 161.427 133.208 161.367 133.632 161.266C133.612 160.277 133.591 159.773 133.571 158.805Z" fill="#181919"/>
<path d="M142.002 158.22C140.469 158.644 139.702 158.866 138.149 159.289C138.129 158.664 138.129 158.341 138.109 157.696C140.348 157.07 141.457 156.768 143.676 156.163C143.676 156.586 143.696 156.788 143.696 157.212C143.756 161.024 141.659 162.859 137.867 164.311C137.867 163.706 137.847 163.383 137.867 162.839C140.57 161.851 142.042 160.439 142.002 158.22ZM147.226 162.274C147.226 164.069 147.246 164.977 147.246 166.792C146.58 166.973 146.237 167.074 145.572 167.276C145.572 166.066 145.552 165.441 145.552 164.23C142.809 164.997 141.417 165.38 138.634 166.167C138.634 165.562 138.634 165.259 138.613 164.654C142.103 163.666 143.817 163.182 147.226 162.274ZM147.246 157.797C147.871 157.615 148.173 157.534 148.799 157.353C148.799 157.958 148.799 158.22 148.799 158.785C148.173 158.946 147.871 159.027 147.246 159.208C147.246 160.197 147.226 160.681 147.226 161.709C146.56 161.891 146.217 161.972 145.531 162.153C145.511 159.45 145.552 158.321 145.531 155.517C146.217 155.336 146.54 155.255 147.226 155.074C147.246 156.163 147.246 156.707 147.246 157.797Z" fill="#181919"/>
<path d="M150.675 158.22C150.675 157.655 150.977 157.151 151.421 156.748C151.965 156.264 152.813 155.921 153.72 155.679C154.628 155.437 155.475 155.316 156.06 155.517C156.564 155.679 156.887 156.042 156.907 156.647C156.927 157.252 156.624 157.776 156.14 158.18C155.757 158.482 155.253 158.744 154.688 158.946C154.688 159.188 154.668 159.309 154.668 159.531C155.273 159.39 155.576 159.309 156.201 159.168C157.189 158.926 157.774 158.664 158.218 158.301C158.42 155.981 158.097 154.691 158.097 152.452C158.803 152.27 159.166 152.19 159.872 152.008C159.872 153.279 159.852 153.843 159.912 155.255C160.598 155.094 160.92 155.013 161.606 154.852C161.647 155.477 161.647 155.78 161.687 156.385C161.001 156.546 160.658 156.627 159.973 156.788C160.033 158.099 159.912 158.684 159.791 159.934C159.085 160.096 158.722 160.197 158.016 160.358C158.036 160.035 158.056 159.894 158.077 159.571C157.633 159.995 156.927 160.318 155.616 160.64C153.438 161.165 152.349 161.427 150.271 161.972C150.271 161.427 150.271 161.145 150.271 160.6C151.3 160.338 151.804 160.217 152.893 159.975C152.893 159.733 152.913 159.612 152.893 159.39C152.308 159.471 151.784 159.471 151.421 159.329C150.957 159.128 150.675 158.785 150.675 158.22ZM154.628 153.884C155.636 153.642 156.14 153.521 157.149 153.258C157.149 153.743 157.149 154.005 157.149 154.489C154.406 155.175 152.994 155.538 150.412 156.223C150.412 155.699 150.412 155.437 150.412 154.912C151.381 154.67 151.865 154.549 152.873 154.307C152.873 153.944 152.873 153.743 152.873 153.38C153.579 153.218 153.922 153.137 154.628 152.976C154.628 153.339 154.628 153.521 154.628 153.884ZM159.751 160.318C159.609 161.608 159.751 162.193 159.771 163.424C159.065 163.605 158.702 163.686 158.016 163.867C157.996 163.141 157.996 162.778 157.996 162.072C155.152 162.778 153.72 163.141 151.018 163.847C151.018 163.303 151.018 163.02 151.018 162.476C154.366 161.629 156.161 161.185 159.751 160.318ZM152.268 157.817C152.268 157.958 152.369 158.059 152.51 158.099C152.752 158.16 153.196 158.119 153.76 157.998C154.325 157.857 154.769 157.676 155.011 157.494C155.172 157.373 155.233 157.232 155.233 157.091C155.233 156.949 155.152 156.828 154.991 156.788C154.749 156.707 154.305 156.768 153.74 156.909C153.196 157.05 152.752 157.232 152.51 157.434C152.349 157.514 152.268 157.655 152.268 157.817Z" fill="#181919"/>
<path d="M169.654 149.789C169.654 150.374 169.674 150.657 169.674 151.242C168.766 151.443 168.302 151.544 167.395 151.746C167.395 151.766 167.395 151.786 167.395 151.826C167.415 153.743 168.464 154.469 170.037 154.469C170.077 155.114 170.097 155.417 170.037 156.022C168.625 156.122 167.395 155.78 166.669 154.993C166.003 156.102 164.692 157.131 163.24 157.615C163.321 157.03 163.3 156.707 163.26 156.082C164.813 155.396 165.62 154.146 165.6 152.23C165.6 152.21 165.6 152.189 165.6 152.149C164.692 152.351 164.248 152.472 163.341 152.674C163.341 152.109 163.341 151.847 163.321 151.282C165.842 150.677 167.112 150.374 169.654 149.789ZM163.684 160.176C163.663 159.491 164.107 158.865 164.692 158.361C165.64 157.575 167.072 157.03 168.625 156.707C170.158 156.385 171.55 156.324 172.356 156.748C172.86 157.01 173.082 157.514 173.103 158.2C173.123 158.886 172.8 159.471 172.255 159.955C171.388 160.701 169.976 161.185 168.443 161.508C166.911 161.83 165.499 161.931 164.611 161.548C164.026 161.326 163.704 160.882 163.684 160.176ZM165.479 159.773C165.479 160.035 165.62 160.197 165.882 160.297C166.366 160.479 167.294 160.358 168.383 160.136C169.512 159.894 170.4 159.632 170.904 159.249C171.146 159.047 171.287 158.825 171.267 158.563C171.267 158.321 171.126 158.139 170.904 158.039C170.44 157.837 169.553 157.938 168.423 158.16C167.314 158.402 166.406 158.684 165.862 159.087C165.6 159.309 165.458 159.531 165.479 159.773ZM172.982 151.443C173.647 151.322 173.99 151.242 174.656 151.121C174.676 151.746 174.696 152.068 174.736 152.694C174.071 152.815 173.728 152.875 173.062 153.016C173.123 154.106 173.203 154.65 173.062 155.679C172.336 155.82 171.973 155.901 171.267 156.042C171.59 153.48 171.186 151.988 171.126 149.346C171.852 149.184 172.215 149.104 172.921 148.942C172.961 149.931 172.961 150.435 172.982 151.443Z" fill="#181919"/>
<path d="M178.73 149.608C178.77 151.06 178.81 151.726 178.871 153.117C181.977 152.593 183.53 152.371 186.596 152.008C186.616 152.613 186.596 152.916 186.576 153.501C185.022 153.682 184.256 153.783 182.703 154.005C182.622 155.154 182.542 155.759 182.542 156.889C184.337 156.647 185.224 156.526 186.999 156.324C186.999 156.909 186.999 157.191 187.019 157.776C182.723 158.24 180.565 158.563 176.229 159.309C176.209 158.744 176.209 158.462 176.209 157.897C178.024 157.575 178.931 157.434 180.747 157.151C180.726 156.022 180.827 155.437 180.928 154.287C179.375 154.529 178.589 154.65 177.036 154.933C177.298 152.432 176.955 151.02 176.915 148.317C180.726 147.591 182.643 147.268 186.434 146.825C186.454 147.49 186.454 147.833 186.475 148.499C183.369 148.862 181.816 149.084 178.73 149.608Z" fill="#181919"/>
<path d="M189.46 153.279C193.675 152.875 195.772 152.734 199.867 152.734C199.867 153.319 199.867 153.622 199.867 154.227C198.152 154.227 197.285 154.247 195.551 154.327C195.551 155.719 195.551 156.405 195.551 157.797C194.845 157.817 194.502 157.837 193.796 157.877C193.796 156.486 193.776 155.8 193.796 154.408C192.061 154.509 191.174 154.59 189.419 154.751C189.419 154.166 189.439 153.884 189.46 153.279ZM197.547 147.752C194.542 147.752 193.009 147.833 189.944 148.095C189.923 147.43 189.923 147.087 189.903 146.421C193.695 146.119 195.571 146.078 199.282 146.28C199.282 147.329 199.282 147.853 199.282 148.882C199.282 150.011 199.201 151.1 199.02 151.948C198.334 151.948 197.991 151.968 197.305 151.988C197.487 151.141 197.567 150.052 197.547 149.124C197.567 148.579 197.547 148.297 197.547 147.752Z" fill="#181919"/>
<path d="M107.211 136.922C101.341 136.881 95.9361 134.078 93.2537 129.721C96.0168 125.385 101.442 122.702 107.332 122.743C113.221 122.783 118.606 125.587 121.289 129.943C118.525 134.259 113.1 136.982 107.211 136.922Z" stroke="black" stroke-miterlimit="10" stroke-linecap="round" stroke-linejoin="round"/>
<path d="M111.648 128.794C110.781 128.794 109.954 128.43 109.349 127.825C108.743 127.2 108.401 126.373 108.401 125.506C108.401 125.224 108.3 124.941 108.078 124.74C107.876 124.538 107.594 124.417 107.311 124.417C105.859 124.397 104.468 124.961 103.439 125.99C102.41 126.998 101.826 128.39 101.805 129.842C101.785 131.294 102.35 132.686 103.379 133.715C104.407 134.743 105.779 135.328 107.231 135.348C108.683 135.369 110.075 134.804 111.103 133.775C112.132 132.767 112.717 131.375 112.737 129.923C112.737 129.641 112.636 129.358 112.414 129.157C112.213 128.894 111.93 128.794 111.648 128.794Z" fill="black"/>
<path d="M107.372 118.669L107.311 122.743" stroke="black" stroke-miterlimit="10" stroke-linecap="round" stroke-linejoin="round"/>
<path d="M100.172 119.838L102.209 123.368" stroke="black" stroke-miterlimit="10" stroke-linecap="round" stroke-linejoin="round"/>
<path d="M114.492 119.98L112.414 123.469" stroke="black" stroke-miterlimit="10" stroke-linecap="round" stroke-linejoin="round"/>
<path d="M167.052 139.201C166.79 137.869 166.628 136.498 166.628 135.086C166.628 123.812 175.765 114.675 187.039 114.675C189.863 114.675 192.546 115.24 194.986 116.289" stroke="black" stroke-miterlimit="10" stroke-linecap="round" stroke-linejoin="round"/>
<path d="M128.185 33.6763C129.789 33.6763 131.09 32.376 131.09 30.772C131.09 29.168 129.789 27.8676 128.185 27.8676C126.581 27.8676 125.281 29.168 125.281 30.772C125.281 32.376 126.581 33.6763 128.185 33.6763Z" fill="#FFF58C" stroke="#181919" stroke-miterlimit="10" stroke-linecap="round" stroke-linejoin="round"/>
<path d="M88.8152 33.6763C90.4193 33.6763 91.7196 32.376 91.7196 30.772C91.7196 29.1679 90.4193 27.8676 88.8152 27.8676C87.2112 27.8676 85.9109 29.1679 85.9109 30.772C85.9109 32.376 87.2112 33.6763 88.8152 33.6763Z" fill="#FFF58C" stroke="#181919" stroke-miterlimit="10" stroke-linecap="round" stroke-linejoin="round"/>
<path d="M109.69 16.2502L111.505 21.8371C111.667 22.3615 112.151 22.7043 112.695 22.7043H118.565C119.775 22.7043 120.279 24.2573 119.311 24.9633L114.551 28.4122C114.107 28.7349 113.926 29.2996 114.087 29.8038L115.902 35.3907C116.285 36.5403 114.954 37.5084 113.966 36.7824L109.206 33.3334C108.762 33.0107 108.178 33.0107 107.734 33.3334L102.974 36.7824C101.986 37.4883 100.675 36.5403 101.038 35.3907L102.853 29.8038C103.014 29.2794 102.833 28.7147 102.389 28.4122L97.6291 24.9633C96.6408 24.2573 97.1451 22.7043 98.3754 22.7043H104.245C104.789 22.7043 105.273 22.3615 105.435 21.8371L107.25 16.2502C107.693 15.1006 109.327 15.1006 109.69 16.2502Z" fill="#FFF58C" stroke="#181919" stroke-miterlimit="10" stroke-linecap="round" stroke-linejoin="round"/>
</svg>
