<svg width="212" height="188" viewBox="0 0 212 188" fill="none" xmlns="http://www.w3.org/2000/svg">
<path d="M107.27 186.172C157.674 186.172 198.534 145.311 198.534 94.9072C198.534 44.503 157.674 3.64227 107.27 3.64227C56.8653 3.64227 16.0046 44.503 16.0046 94.9072C16.0046 145.311 56.8653 186.172 107.27 186.172Z" fill="#5A66FF"/>
<mask id="mask0_393_19569" style="mask-type:luminance" maskUnits="userSpaceOnUse" x="16" y="1" width="183" height="183">
<path d="M107.27 183.53C157.674 183.53 198.534 142.669 198.534 92.2649C198.534 41.8607 157.674 1 107.27 1C56.8653 1 16.0046 41.8607 16.0046 92.2649C16.0046 142.669 56.8653 183.53 107.27 183.53Z" fill="white"/>
</mask>
<g mask="url(#mask0_393_19569)">
<path d="M4.02442 48.8006L-8.66199 71.047L-5.09203 79.7802C-5.09203 79.7802 -1.13887 84.3183 2.87477 85.7099C6.8884 87.1016 16.7712 86.4763 22.2572 87.1823C27.7432 87.8882 32.5233 94.907 33.6325 97.9324C34.7418 100.958 37.5857 108.824 40.2077 110.578C42.8296 112.333 47.4281 114.491 55.3949 115.6C60.4775 116.306 64.6526 125.806 67.0728 129.356C70.8445 134.943 82.2197 136.516 82.2197 136.516L86.3544 132.24C86.3544 132.24 80.2029 118.061 69.0494 113.987C57.8959 109.913 48.4971 115.479 43.1926 104.286C37.868 93.0918 40.4295 90.6715 33.7939 84.4998C27.1583 78.3281 17.336 79.4777 14.3711 76.8557C11.4063 74.2338 4.68995 67.9007 4.99249 61.2651C5.29502 54.6093 5.57735 48.6594 5.57735 48.6594L4.02442 48.8006Z" fill="#359B61"/>
</g>
<mask id="mask1_393_19569" style="mask-type:luminance" maskUnits="userSpaceOnUse" x="16" y="1" width="183" height="183">
<path d="M107.27 183.53C157.674 183.53 198.534 142.669 198.534 92.2649C198.534 41.8607 157.674 1 107.27 1C56.8653 1 16.0046 41.8607 16.0046 92.2649C16.0046 142.669 56.8653 183.53 107.27 183.53Z" fill="white"/>
</mask>
<g mask="url(#mask1_393_19569)">
<path d="M112.392 125.04C112.392 125.04 117.152 111.728 132.057 110.639C146.982 109.53 161.806 110.437 165.054 104.649C168.301 98.8601 170.459 85.0847 174.634 80.9702C178.809 76.8557 199.301 65.2383 202.83 57.8161C206.36 50.3939 205.271 49.325 205.271 49.325L182.823 26.897C182.823 26.897 168.846 27.3205 159.689 46.2593C150.552 65.198 161.585 86.8797 162.654 87.5049C163.723 88.1302 164.731 93.9187 163.521 96.5003C162.311 99.082 158.257 104.326 152.609 104.003C146.982 103.681 137.947 99.2836 135.143 99.082C132.34 98.8601 121.872 100.312 117.293 101.482C108.459 103.721 102.671 125.604 102.671 125.604L112.392 125.04Z" fill="#E56CA3"/>
</g>
<mask id="mask2_393_19569" style="mask-type:luminance" maskUnits="userSpaceOnUse" x="16" y="1" width="183" height="183">
<path d="M107.27 183.53C157.674 183.53 198.534 142.669 198.534 92.2649C198.534 41.8607 157.674 1 107.27 1C56.8653 1 16.0046 41.8607 16.0046 92.2649C16.0046 142.669 56.8653 183.53 107.27 183.53Z" fill="white"/>
</mask>
<g mask="url(#mask2_393_19569)">
<mask id="mask3_393_19569" style="mask-type:luminance" maskUnits="userSpaceOnUse" x="103" y="25" width="103" height="103">
<path d="M162.472 105.455C165.659 103.6 167.515 100.413 168.644 97.2063C169.773 93.9995 170.338 90.6514 171.69 87.505C174.775 80.2442 181.613 74.7582 188.672 70.0992C194.259 66.4082 200.43 62.6971 202.992 56.9893C203.819 55.1136 204.222 53.0967 205.291 51.3218C200.612 42.4474 193.129 35.711 185.788 29.156C184.376 27.8854 182.944 26.6147 181.29 25.6063C175.159 27.7038 170.157 31.8385 166.627 36.6186C163.098 41.3986 160.859 46.8039 158.761 52.2092C158.176 53.7017 157.591 55.2547 157.632 56.8279C157.672 58.5221 158.438 60.2567 157.894 61.8904C156.603 68.0016 157.107 74.375 160.153 79.8408C160.919 81.2325 161.867 82.5636 162.23 84.0763C162.492 85.2058 162.432 86.3756 162.654 87.5252C162.876 88.7555 163.44 89.9253 163.642 91.1556C164.227 94.6449 161.908 98.0333 159.165 100.615C158.277 101.442 157.329 102.249 156.139 102.712C153.154 103.862 149.786 102.491 146.781 101.361C141.517 99.4048 135.829 98.1543 130.121 98.356C124.413 98.5577 118.665 100.312 114.51 103.761C112.07 105.778 110.234 108.319 108.641 110.921C106.806 113.926 105.273 117.093 104.164 120.844C105.212 120.905 102.369 126.633 103.357 126.956C103.639 127.036 105.293 126.653 105.575 126.734C105.192 126.754 105.938 126.835 105.575 126.734C107.33 126.693 110.335 126.532 112.09 127.924C113.583 124.253 118.766 115.863 122.296 113.483C123.425 112.716 124.655 112.051 125.986 111.607C127.923 110.962 130.02 110.8 132.098 110.659C138.209 110.256 144.34 109.953 150.451 109.751C152.69 109.671 154.949 109.61 157.067 108.965C159.165 108.279 160.576 106.565 162.472 105.455Z" fill="white"/>
</mask>
<g mask="url(#mask3_393_19569)">
<path d="M198.131 5.92126L232.217 63.6854" stroke="black" stroke-miterlimit="10"/>
<path d="M192.443 11.5887L226.529 69.3529" stroke="black" stroke-miterlimit="10"/>
<path d="M186.756 17.2562L220.841 75.0405" stroke="black" stroke-miterlimit="10"/>
<path d="M181.089 22.9237L215.154 80.708" stroke="black" stroke-miterlimit="10"/>
<path d="M175.401 28.5912L209.466 86.3756" stroke="black" stroke-miterlimit="10"/>
<path d="M169.713 34.2587L203.778 92.043" stroke="black" stroke-miterlimit="10"/>
<path d="M164.026 39.9263L198.111 97.7106" stroke="black" stroke-miterlimit="10"/>
<path d="M158.338 45.5937L192.423 103.378" stroke="black" stroke-miterlimit="10"/>
<path d="M152.65 51.2614L186.736 109.046" stroke="black" stroke-miterlimit="10"/>
<path d="M146.962 56.9489L181.048 114.713" stroke="black" stroke-miterlimit="10"/>
<path d="M141.274 62.6165L175.36 120.381" stroke="black" stroke-miterlimit="10"/>
<path d="M135.587 68.2839L169.673 126.048" stroke="black" stroke-miterlimit="10"/>
<path d="M129.899 73.9515L163.985 131.716" stroke="black" stroke-miterlimit="10"/>
<path d="M124.232 79.6189L158.297 137.403" stroke="black" stroke-miterlimit="10"/>
<path d="M118.544 85.2865L152.609 143.071" stroke="black" stroke-miterlimit="10"/>
<path d="M112.857 90.954L146.922 148.738" stroke="black" stroke-miterlimit="10"/>
<path d="M107.169 96.6215L141.234 154.406" stroke="black" stroke-miterlimit="10"/>
<path d="M101.481 102.289L135.567 160.073" stroke="black" stroke-miterlimit="10"/>
<path d="M95.7936 107.956L129.879 165.741" stroke="black" stroke-miterlimit="10"/>
<path d="M90.1058 113.624L124.192 171.408" stroke="black" stroke-miterlimit="10"/>
</g>
</g>
<mask id="mask4_393_19569" style="mask-type:luminance" maskUnits="userSpaceOnUse" x="16" y="1" width="183" height="183">
<path d="M107.27 183.53C157.674 183.53 198.534 142.669 198.534 92.2649C198.534 41.8607 157.674 1 107.27 1C56.8653 1 16.0046 41.8607 16.0046 92.2649C16.0046 142.669 56.8653 183.53 107.27 183.53Z" fill="white"/>
</mask>
<g mask="url(#mask4_393_19569)">
<mask id="mask5_393_19569" style="mask-type:luminance" maskUnits="userSpaceOnUse" x="-9" y="48" width="96" height="90">
<path d="M83.3689 137.847C83.0261 136.859 76.4107 135.79 75.5031 135.144C74.1518 134.196 71.3079 132.724 69.9566 131.776C68.3632 130.667 64.5916 127.319 63.8251 125.483C58.5812 113.241 56.8064 116.932 50.1304 114.975C47.9723 114.35 44.6041 113.563 42.8292 112.313C39.2391 109.812 37.3634 105.899 35.9113 102.067C34.4591 98.235 33.1885 94.2616 30.4051 91.0749C27.7832 89.4614 25.262 87.8076 22.2972 87.1622C17.2952 86.0932 11.9504 88.0899 6.92836 87.0815C5.51652 86.7991 4.18539 86.2949 2.91474 85.6898C-2.89394 82.9065 -7.39173 77.7432 -8.01697 71.9547C-5.63702 63.1005 -0.937636 54.8917 5.59713 48.6796C5.01223 53.9236 4.42733 59.2684 5.59713 64.4518C6.76694 69.6353 9.95368 74.7179 15.2178 77.239C20.7441 79.8811 28.1058 79.5786 32.4421 83.5721C33.4707 84.52 34.2574 85.6696 35.0238 86.7991C37.3836 90.2682 39.7433 93.7574 41.377 97.529C42.3854 99.8485 43.1116 102.289 44.5637 104.427C46.3991 107.089 49.364 109.146 52.8935 110.074C54.3861 111.95 57.3106 112.353 59.8923 112.636C63.8454 113.059 67.8791 113.563 71.4087 115.177C74.0912 116.387 76.3703 118.202 78.5082 120.078C80.0008 121.389 86.2128 130.344 86.3943 132.26C86.4548 133.39 84.4581 136.294 83.3689 137.847Z" fill="white"/>
</mask>
<g mask="url(#mask5_393_19569)">
<path d="M20.3607 35.8722L-13.7249 93.6565" stroke="black" stroke-miterlimit="10"/>
<path d="M25.9881 42.7297L-8.07739 100.494" stroke="black" stroke-miterlimit="10"/>
<path d="M31.6355 49.5671L-2.4502 107.351" stroke="black" stroke-miterlimit="10"/>
<path d="M37.283 56.4245L3.19727 114.209" stroke="black" stroke-miterlimit="10"/>
<path d="M42.9096 63.282L8.84424 121.046" stroke="black" stroke-miterlimit="10"/>
<path d="M48.5571 70.1193L14.4916 127.904" stroke="black" stroke-miterlimit="10"/>
<path d="M54.2046 76.9767L20.1189 134.761" stroke="black" stroke-miterlimit="10"/>
<path d="M59.852 83.8342L25.7662 141.598" stroke="black" stroke-miterlimit="10"/>
<path d="M65.4791 90.6716L31.4137 148.456" stroke="black" stroke-miterlimit="10"/>
<path d="M71.126 97.529L37.0404 155.313" stroke="black" stroke-miterlimit="10"/>
<path d="M76.7736 104.386L42.6879 162.151" stroke="black" stroke-miterlimit="10"/>
<path d="M82.421 111.224L48.3353 169.008" stroke="black" stroke-miterlimit="10"/>
<path d="M88.0483 118.081L53.9828 175.866" stroke="black" stroke-miterlimit="10"/>
<path d="M93.6956 124.919L59.61 182.703" stroke="black" stroke-miterlimit="10"/>
<path d="M99.3432 131.776L65.2574 189.56" stroke="black" stroke-miterlimit="10"/>
</g>
</g>
<mask id="mask6_393_19569" style="mask-type:luminance" maskUnits="userSpaceOnUse" x="16" y="1" width="183" height="183">
<path d="M107.27 183.53C157.674 183.53 198.534 142.669 198.534 92.2649C198.534 41.8607 157.674 1 107.27 1C56.8653 1 16.0046 41.8607 16.0046 92.2649C16.0046 142.669 56.8653 183.53 107.27 183.53Z" fill="white"/>
</mask>
<g mask="url(#mask6_393_19569)">
<path d="M92.0418 122.458C93.8974 122.055 95.7529 121.651 97.4269 121.248C95.9949 117.597 94.6033 113.886 94.3007 110.034C93.9982 106.181 94.8856 102.128 97.6084 99.1022C101.521 94.7658 108.197 93.3943 113.784 90.8127C118.725 88.5336 123.001 85.1654 126.107 81.0912C128.265 78.2676 129.899 74.8792 129.274 71.5311C128.911 69.5747 127.802 67.7797 126.692 66.0653C123.848 61.6483 120.379 56.9892 114.792 55.6984C105.716 51.5839 94.9259 52.0478 84.7809 53.0764C80.384 53.5201 75.9671 54.0647 71.7114 55.1539C60.7798 57.917 51.4213 64.0282 42.3049 70.0184C41.6393 70.442 40.9737 70.9059 40.6308 71.5714C40.3485 72.1563 40.3687 72.8219 40.4292 73.4472C40.9536 78.6508 43.7167 83.451 46.4597 88.0899C47.9926 90.6917 49.5658 93.354 51.9256 95.4314C54.5274 97.7105 57.9561 99.1425 61.4051 100.252C65.2775 101.502 69.3113 102.39 73.3855 102.934C75.5436 103.217 77.8025 103.418 79.6782 104.407C81.3522 105.294 82.5422 106.726 83.6716 108.118C86.8785 112.111 91.0334 122.841 91.0334 122.841L92.0418 122.458Z" fill="#5A66FF"/>
</g>
<mask id="mask7_393_19569" style="mask-type:luminance" maskUnits="userSpaceOnUse" x="16" y="1" width="183" height="183">
<path d="M107.27 183.53C157.674 183.53 198.534 142.669 198.534 92.2649C198.534 41.8607 157.674 1 107.27 1C56.8653 1 16.0046 41.8607 16.0046 92.2649C16.0046 142.669 56.8653 183.53 107.27 183.53Z" fill="white"/>
</mask>
<g mask="url(#mask7_393_19569)">
<path d="M162.674 84.883C161.706 85.004 160.718 85.0646 159.709 85.0646C147.507 85.0646 137.624 76.3717 137.624 65.6619C137.624 54.9522 147.507 46.2593 159.709 46.2593C160.173 46.2593 160.213 46.3602 160.657 46.3803" stroke="black" stroke-miterlimit="10" stroke-linecap="round" stroke-linejoin="round"/>
</g>
<mask id="mask8_393_19569" style="mask-type:luminance" maskUnits="userSpaceOnUse" x="16" y="1" width="183" height="183">
<path d="M107.27 183.53C157.674 183.53 198.534 142.669 198.534 92.2649C198.534 41.8607 157.674 1 107.27 1C56.8653 1 16.0046 41.8607 16.0046 92.2649C16.0046 142.669 56.8653 183.53 107.27 183.53Z" fill="white"/>
</mask>
<g mask="url(#mask8_393_19569)">
<path d="M181.572 26.5139C170.116 30.6687 161.222 39.9062 158.459 50.5151C154.989 63.867 160.758 77.5013 164.57 90.7725C164.509 94.2819 163.178 97.751 160.516 100.111C157.853 102.471 153.92 103.681 150.169 103.297C145.349 102.793 141.254 99.909 136.535 98.9409C132.683 98.1342 128.629 98.6586 124.776 99.425C121.711 100.03 118.645 100.837 116.003 102.309C109.044 106.161 106.14 113.927 105.999 121.167C103.216 120.562 100.876 120.824 98.7985 121.611C95.7126 119.856 95.0673 116.75 94.6639 113.987C93.9781 109.388 93.373 104.346 96.2168 100.454C98.3951 97.4686 102.187 95.7341 105.817 94.1609C110.093 92.2852 114.389 90.4094 118.665 88.5337C121.549 87.2631 123.909 85.5084 125.886 83.2494C128.023 80.7888 129.294 78.0055 129.294 74.8994C129.294 70.906 128.306 66.852 125.926 63.4434C123.062 59.3289 118.322 56.3843 113.159 54.7102C108.016 53.0362 102.449 52.532 96.9632 52.5521C75.7857 52.5925 54.7695 60.1962 39.6831 73.2658C36.9602 61.366 37.3031 50.7974 37.6864 40.4306C37.9889 32.2823 38.3318 23.9121 41.2159 16.5302C72.1149 -0.431917 112.231 -3.65894 146.438 7.75673C159.306 12.6578 171.427 19.0514 181.572 26.5139Z" fill="#B180E0"/>
</g>
<mask id="mask9_393_19569" style="mask-type:luminance" maskUnits="userSpaceOnUse" x="16" y="1" width="183" height="183">
<path d="M107.27 183.53C157.674 183.53 198.534 142.669 198.534 92.2649C198.534 41.8607 157.674 1 107.27 1C56.8653 1 16.0046 41.8607 16.0046 92.2649C16.0046 142.669 56.8653 183.53 107.27 183.53Z" fill="white"/>
</mask>
<g mask="url(#mask9_393_19569)">
<path d="M215.94 73.8909C215.981 69.6555 213.379 66.025 211.301 62.5559C209.042 58.744 207.853 54.4883 205.331 50.8176C204.686 56.2632 201.257 61.0231 197.163 64.6737C193.069 68.3041 188.268 71.0471 183.791 74.2137C179.596 77.1987 175.501 80.7081 173.081 85.347C170.641 90.0262 170.318 95.5121 167.676 100.091C165.417 103.983 161.101 106.726 156.422 108.219C151.762 109.731 146.72 110.115 141.759 110.316C136.494 110.518 131.109 110.558 126.148 112.131C121.186 113.705 113.683 120.461 112.372 125.019C112.372 132.724 118.766 139.36 122.497 142.143C126.309 138.492 126.894 133.45 140.912 130.243C143.876 129.557 146.639 127.077 146.639 127.077C146.639 127.077 151.944 122.74 155.232 121.853C157.954 121.127 164.348 113.422 166.425 111.728C172.012 107.17 171.468 99.8283 175.663 94.2415C177.821 91.3775 181.29 89.4211 184.981 88.332C188.672 87.2227 192.605 86.9 196.518 86.7185C198.413 86.6378 200.33 86.5773 202.165 86.1739C208.841 84.7015 215.88 79.74 215.94 73.8909Z" fill="#FF88B6"/>
</g>
<mask id="mask10_393_19569" style="mask-type:luminance" maskUnits="userSpaceOnUse" x="16" y="1" width="183" height="183">
<path d="M107.27 183.53C157.674 183.53 198.534 142.669 198.534 92.2649C198.534 41.8607 157.674 1 107.27 1C56.8653 1 16.0046 41.8607 16.0046 92.2649C16.0046 142.669 56.8653 183.53 107.27 183.53Z" fill="white"/>
</mask>
<g mask="url(#mask10_393_19569)">
<path d="M38.5334 19.4345C26.3513 24.6583 16.8921 33.7747 8.96568 43.4356C7.61436 45.0895 6.26298 46.824 5.63774 48.7804C5.03267 50.6763 5.13353 52.673 5.27472 54.6294C5.47641 57.8767 5.71841 61.1239 6.00077 64.3711C6.14196 65.9846 6.30326 67.6385 7.08986 69.1108C7.87645 70.563 9.18748 71.6924 10.5388 72.7816C13.2415 74.98 16.1055 77.0372 19.3729 78.5096C22.5192 79.9214 25.9882 80.7685 29.1548 82.1602C32.3213 83.5518 35.3265 85.6898 35.8509 88.6748C41.3167 93.4548 40.4697 101.825 45.5926 106.867C48.618 109.852 53.2165 111.163 57.6738 111.91C62.1312 112.656 66.7499 112.999 70.9047 114.572C76.9756 116.871 84.8819 126.209 86.3543 132.2C87.0602 130.747 89.3594 130.969 90.9326 130.183C92.5057 129.416 93.7764 129.336 95.3496 128.307C91.4166 122.7 86.7374 109.126 80.727 105.173C75.7049 101.865 68.8476 102.148 62.7968 100.716C55.5763 99.0215 49.223 94.6448 44.806 88.9168C43.5152 86.5369 42.4059 84.0762 41.1958 81.3534C40.2478 71.2689 36.9199 61.3659 37.0006 51.2411C37.0207 47.4694 37.525 43.6978 38.009 39.9464C39.0175 32.2822 40.026 24.6179 42.0832 17.1151C40.7924 18.1235 39.5217 19.0109 38.5334 19.4345Z" fill="#56B381"/>
</g>
<mask id="mask11_393_19569" style="mask-type:luminance" maskUnits="userSpaceOnUse" x="16" y="1" width="183" height="183">
<path d="M107.27 183.53C157.674 183.53 198.534 142.669 198.534 92.2649C198.534 41.8607 157.674 1 107.27 1C56.8653 1 16.0046 41.8607 16.0046 92.2649C16.0046 142.669 56.8653 183.53 107.27 183.53Z" fill="white"/>
</mask>
<g mask="url(#mask11_393_19569)">
<path d="M-7.55286 71.047C-7.71421 78.7717 -0.574437 86.0931 8.13859 87.1217C12.6161 87.6461 17.2147 86.6982 21.6317 87.4444C25.4638 88.0898 28.9732 90.0261 31.3128 92.7691C36.1534 98.4769 35.6895 106.988 41.5789 111.889C47.0245 116.427 57.472 113.725 61.0621 120.259C68.2221 133.329 75.5032 136.233 83.3893 136.959" stroke="black" stroke-miterlimit="10" stroke-linecap="round" stroke-linejoin="round"/>
</g>
<mask id="mask12_393_19569" style="mask-type:luminance" maskUnits="userSpaceOnUse" x="16" y="1" width="183" height="183">
<path d="M107.27 183.53C157.674 183.53 198.534 142.669 198.534 92.2649C198.534 41.8607 157.674 1 107.27 1C56.8653 1 16.0046 41.8607 16.0046 92.2649C16.0046 142.669 56.8653 183.53 107.27 183.53Z" fill="white"/>
</mask>
<g mask="url(#mask12_393_19569)">
<path d="M215.799 71.047C215.96 78.7717 208.82 86.0931 200.107 87.1217C195.63 87.6461 191.031 86.6982 186.614 87.4444C182.782 88.0898 179.273 90.0261 176.933 92.7691C174.412 95.7541 173.666 100.09 172.173 103.64C168.866 111.486 162.371 117.416 155.251 121.853C146.619 127.218 137.906 132.522 128.245 135.769C124.131 137.161 119.915 138.23 115.801 139.622C113.26 140.489 110.113 141.518 108.5 143.837" stroke="black" stroke-miterlimit="10" stroke-linecap="round" stroke-linejoin="round"/>
</g>
<mask id="mask13_393_19569" style="mask-type:luminance" maskUnits="userSpaceOnUse" x="16" y="1" width="183" height="183">
<path d="M107.27 183.53C157.674 183.53 198.534 142.669 198.534 92.2649C198.534 41.8607 157.674 1 107.27 1C56.8653 1 16.0046 41.8607 16.0046 92.2649C16.0046 142.669 56.8653 183.53 107.27 183.53Z" fill="white"/>
</mask>
<g mask="url(#mask13_393_19569)">
<path d="M105.555 130.788C105.979 123.991 100.997 111.768 114.51 103.398C120.843 99.4652 131.089 97.5693 138.431 99.7274C144.461 101.502 150.552 105.334 156.563 103.539C161.988 101.926 164.55 96.218 164.187 91.1959C163.824 86.1738 161.282 81.4946 159.649 76.6742C155.675 65.0568 156.946 52.1284 163.118 41.2775C166.849 34.7427 172.839 28.6315 180.927 26.897" stroke="black" stroke-miterlimit="10" stroke-linecap="round" stroke-linejoin="round"/>
</g>
<mask id="mask14_393_19569" style="mask-type:luminance" maskUnits="userSpaceOnUse" x="16" y="1" width="183" height="183">
<path d="M107.27 183.53C157.674 183.53 198.534 142.669 198.534 92.2649C198.534 41.8607 157.674 1 107.27 1C56.8653 1 16.0046 41.8607 16.0046 92.2649C16.0046 142.669 56.8653 183.53 107.27 183.53Z" fill="white"/>
</mask>
<g mask="url(#mask14_393_19569)">
<path d="M203.859 49.3251C205.997 64.2502 190.003 68.2033 175.642 80.8089C169.531 86.3957 171.528 94.3222 167.091 101.018C156.038 118.949 117.314 97.408 110.093 132.3" stroke="black" stroke-miterlimit="10" stroke-linecap="round" stroke-linejoin="round"/>
</g>
<mask id="mask15_393_19569" style="mask-type:luminance" maskUnits="userSpaceOnUse" x="16" y="1" width="183" height="183">
<path d="M107.27 183.53C157.674 183.53 198.534 142.669 198.534 92.2649C198.534 41.8607 157.674 1 107.27 1C56.8653 1 16.0046 41.8607 16.0046 92.2649C16.0046 142.669 56.8653 183.53 107.27 183.53Z" fill="white"/>
</mask>
<g mask="url(#mask15_393_19569)">
<path d="M41.7402 16.8528C36.7786 34.5411 36.0324 53.1168 39.6023 71.0672C40.8931 77.5415 42.7688 84.0359 46.7017 89.6227C50.6347 95.2096 56.8467 99.8283 64.2084 100.958C66.9514 101.381 69.7752 101.321 72.498 101.885C77.4596 102.894 81.6547 105.899 84.6397 109.53C87.6045 113.16 92.8889 126.008 94.4419 130.263" stroke="black" stroke-miterlimit="10" stroke-linecap="round" stroke-linejoin="round"/>
</g>
<mask id="mask16_393_19569" style="mask-type:luminance" maskUnits="userSpaceOnUse" x="16" y="1" width="183" height="183">
<path d="M107.27 183.53C157.674 183.53 198.534 142.669 198.534 92.2649C198.534 41.8607 157.674 1 107.27 1C56.8653 1 16.0046 41.8607 16.0046 92.2649C16.0046 142.669 56.8653 183.53 107.27 183.53Z" fill="white"/>
</mask>
<g mask="url(#mask16_393_19569)">
<path d="M6.04106 47.6913C5.19396 52.9756 4.34683 58.3406 5.25444 63.6249C6.16204 68.9092 9.14706 74.1531 14.3305 76.8961C18.1626 78.9332 22.8015 79.3971 26.916 80.9904C32.765 83.2494 37.3837 87.8681 39.199 93.2532C40.0259 95.734 40.3083 98.3358 41.2361 100.776C42.9706 105.314 47.0648 109.126 52.1273 110.881C56.625 112.454 61.5059 112.898 66.286 113.543C78.6294 115.197 83.1271 128.388 86.4146 134.459" stroke="black" stroke-miterlimit="10" stroke-linecap="round" stroke-linejoin="round"/>
</g>
<mask id="mask17_393_19569" style="mask-type:luminance" maskUnits="userSpaceOnUse" x="16" y="1" width="183" height="183">
<path d="M107.27 183.53C157.674 183.53 198.534 142.669 198.534 92.2649C198.534 41.8607 157.674 1 107.27 1C56.8653 1 16.0046 41.8607 16.0046 92.2649C16.0046 142.669 56.8653 183.53 107.27 183.53Z" fill="white"/>
</mask>
<g mask="url(#mask17_393_19569)">
<path d="M40.7521 72.0757C54.709 59.7322 74.2327 52.3907 94.0186 52.0075C103.498 51.8259 113.522 53.3991 120.803 58.7238C128.104 64.0686 131.614 73.9312 126.773 81.1114C119.774 91.4783 100.069 91.68 94.9665 102.874C92.284 108.723 97.9716 123.063 100.513 128.952" stroke="black" stroke-miterlimit="10" stroke-linecap="round" stroke-linejoin="round"/>
</g>
<path d="M19.3727 116.871C19.3727 116.871 86.8986 133.067 130.141 121.107C179.656 107.392 194.299 119.876 194.299 119.876C194.299 119.876 178.748 171.428 135.022 176.632C84.2364 182.683 33.491 148.657 33.491 148.657L24.1931 128.468L19.3727 116.871Z" fill="#EBEBEB"/>
<path d="M128.185 36.2152C129.789 36.2152 131.09 34.9149 131.09 33.3108C131.09 31.7068 129.789 30.4065 128.185 30.4065C126.581 30.4065 125.281 31.7068 125.281 33.3108C125.281 34.9149 126.581 36.2152 128.185 36.2152Z" fill="#FFF58C" stroke="#181919" stroke-miterlimit="10" stroke-linecap="round" stroke-linejoin="round"/>
<path d="M88.8152 36.2152C90.4193 36.2152 91.7196 34.9149 91.7196 33.3108C91.7196 31.7068 90.4193 30.4065 88.8152 30.4065C87.2112 30.4065 85.9109 31.7068 85.9109 33.3108C85.9109 34.9149 87.2112 36.2152 88.8152 36.2152Z" fill="#FFF58C" stroke="#181919" stroke-miterlimit="10" stroke-linecap="round" stroke-linejoin="round"/>
<path d="M109.69 18.8093L111.505 24.3961C111.667 24.9205 112.151 25.2634 112.695 25.2634H118.565C119.775 25.2634 120.279 26.8164 119.311 27.5223L114.551 30.9712C114.107 31.2939 113.926 31.8587 114.087 32.3629L115.902 37.9497C116.285 39.0993 114.954 40.0674 113.966 39.3414L109.206 35.8925C108.762 35.5698 108.178 35.5698 107.734 35.8925L102.974 39.3414C101.986 40.0473 100.675 39.0993 101.038 37.9497L102.853 32.3629C103.014 31.8385 102.833 31.2738 102.389 30.9712L97.6291 27.5223C96.6408 26.8164 97.1451 25.2634 98.3754 25.2634H104.245C104.789 25.2634 105.273 24.9205 105.435 24.3961L107.25 18.8093C107.694 17.6395 109.327 17.6395 109.69 18.8093Z" fill="#FFF58C" stroke="#181919" stroke-miterlimit="10" stroke-linecap="round" stroke-linejoin="round"/>
<path d="M107.27 183.53C157.674 183.53 198.534 142.669 198.534 92.2649C198.534 41.8607 157.674 1 107.27 1C56.8653 1 16.0046 41.8607 16.0046 92.2649C16.0046 142.669 56.8653 183.53 107.27 183.53Z" stroke="#1D1D1B" stroke-miterlimit="10"/>
<path d="M211 140.287V173.445C174.817 163.038 142.587 186.737 106 186.737C68.1225 186.434 37.2034 163.038 1 173.445V140.287C37.2438 129.941 68.7276 155.233 106 155.233C140.953 155.515 174.756 129.941 211 140.287Z" fill="white" stroke="#181919" stroke-miterlimit="10"/>
<path d="M20.302 157.129C19.5961 157.088 19.2532 157.068 18.5473 157.028C18.3255 157.996 18.2044 158.5 17.9825 159.468C17.3371 159.448 17.0144 159.448 16.3488 159.428C16.5707 158.44 16.6918 157.955 16.9136 156.967C16.3489 156.947 16.0665 156.947 15.522 156.947C15.522 156.423 15.522 156.16 15.522 155.636C16.2077 155.636 16.5505 155.636 17.2161 155.656C17.3976 154.87 17.4984 154.466 17.68 153.68C17.0144 153.659 16.6918 153.659 16.0262 153.639C16.0262 153.115 16.0262 152.853 16.0262 152.328C16.8128 152.328 17.1959 152.348 17.9623 152.369C18.1842 151.38 18.3053 150.896 18.5473 149.908C19.1927 149.928 19.5154 149.948 20.1608 149.989C19.9188 150.977 19.7977 151.461 19.5758 152.429C20.2616 152.469 20.6247 152.49 21.3105 152.55C21.5323 151.582 21.6533 151.078 21.9155 150.11C22.5609 150.17 22.8634 150.19 23.5088 150.251C23.2668 151.219 23.1256 151.723 22.9038 152.691C23.4484 152.752 23.7105 152.772 24.2551 152.833C24.2551 153.357 24.2551 153.619 24.2551 154.144C23.5895 154.063 23.2668 154.043 22.6012 153.982C22.4197 154.769 22.3391 155.152 22.1575 155.939C22.803 155.999 23.1458 156.019 23.7912 156.1C23.7912 156.624 23.7912 156.887 23.8114 157.411C23.045 157.33 22.6618 157.29 21.8953 157.229C21.6735 158.197 21.5726 158.661 21.3507 159.629C20.7053 159.589 20.3826 159.569 19.7372 159.529C19.9793 158.581 20.0802 158.097 20.302 157.129ZM18.8498 155.717C19.5557 155.757 19.8986 155.777 20.6045 155.818C20.786 155.031 20.8667 154.648 21.0483 153.861C20.3625 153.801 19.9995 153.78 19.2936 153.76C19.1322 154.547 19.0313 154.93 18.8498 155.717Z" fill="#181919"/>
<path d="M35.8322 151.441C35.3884 156.04 35.6507 158.319 35.8121 162.312C35.1263 162.191 34.8036 162.11 34.1178 161.989C34.0775 160.739 34.0573 160.174 33.9968 158.823C33.6338 159.065 32.9682 159.085 31.6975 158.863C31.1731 158.762 30.911 158.722 30.3866 158.641C30.427 159.811 30.4269 160.295 30.4673 161.404C29.7815 161.304 29.4387 161.243 28.7529 161.162C28.7328 160.053 28.7125 159.549 28.6924 158.379C27.6839 158.218 27.1595 158.137 26.151 158.016C26.1309 157.451 26.1309 157.149 26.1309 156.584C28.531 156.907 29.721 157.108 32.1009 157.552C33.0287 157.734 33.5733 157.714 33.9364 157.512C33.8154 154.991 33.896 153.74 34.138 151.118C34.8238 151.239 35.1464 151.3 35.8322 151.441ZM26.615 150.856C27.5226 150.977 27.9865 151.038 28.8941 151.179C28.9143 150.654 28.9344 150.392 28.9748 149.868C29.6605 149.969 30.0033 150.029 30.6891 150.15C30.6487 150.675 30.6286 150.937 30.6084 151.481C31.4959 151.643 31.9395 151.723 32.8068 151.885C32.7665 152.49 32.7261 152.772 32.6858 153.377C31.8185 153.216 31.3951 153.135 30.5278 152.974C30.5883 154.244 31.5362 154.91 32.8674 155.455C32.8674 156.04 32.8674 156.322 32.8876 156.907C31.5766 156.483 30.3664 155.717 29.7008 154.85C29.0554 155.515 27.8856 155.919 26.4536 155.979C26.4335 155.394 26.4334 155.112 26.4334 154.527C27.7848 154.406 28.5915 153.942 28.8134 152.691C27.9259 152.55 27.4823 152.49 26.5948 152.349C26.5747 151.723 26.5949 151.441 26.615 150.856Z" fill="#181919"/>
<path d="M43.456 153.337C43.3753 153.942 43.3349 154.244 43.2744 154.829C42.6895 154.688 42.387 154.628 41.8021 154.486C41.6408 155.858 41.6811 156.483 41.6811 157.774C41.6811 160.356 42.3871 161.283 43.4762 162.01C43.4964 162.534 43.5165 162.796 43.5568 163.321C42.4072 162.776 41.5803 162.05 41.0559 161.263C40.592 161.808 39.8256 162.171 38.7163 162.231C38.6962 161.687 38.6759 161.425 38.6558 160.9C39.7046 160.658 40.0676 159.972 40.0676 157.391C40.0676 156.1 40.0273 155.475 40.1886 154.103C39.6037 153.962 39.3012 153.902 38.6961 153.76C38.7566 153.155 38.7969 152.873 38.8574 152.268C40.6928 152.691 41.6005 152.913 43.456 153.337ZM46.5419 164.672C46.4411 162.796 46.3805 161.788 46.2393 159.65C45.8763 159.569 45.7149 159.529 45.3519 159.448C45.4931 161.525 45.5536 162.514 45.6545 164.349C44.9889 164.188 44.6662 164.107 44.0208 163.966C43.7989 160.154 43.456 157.895 44.0409 153.337C44.7064 153.498 45.0291 153.559 45.6745 153.72C45.4527 155.475 45.3519 156.342 45.3519 158.016C45.6948 158.097 45.8763 158.137 46.2393 158.218C46.2393 156.524 46.3603 155.636 46.562 153.861C47.2276 154.023 47.5503 154.103 48.2159 154.244C47.6713 158.863 47.994 161.162 48.1957 165.075C47.5301 164.914 47.2075 164.833 46.5419 164.672Z" fill="#181919"/>
<path d="M59.2284 164.591C58.5225 164.45 58.1594 164.389 57.4535 164.248C57.2316 165.196 57.1308 165.64 56.9291 166.527C56.2837 166.386 55.9812 166.305 55.3358 166.144C55.5375 165.277 55.6383 164.853 55.84 163.905C55.2954 163.784 55.0131 163.724 54.4483 163.623C54.4282 163.099 54.4281 162.836 54.408 162.312C55.0735 162.453 55.4165 162.514 56.1022 162.655C56.2636 161.888 56.3644 161.525 56.5459 160.759C55.8803 160.638 55.5374 160.557 54.8718 160.436C54.8718 159.912 54.8718 159.65 54.8718 159.145C55.6584 159.307 56.0417 159.388 56.8485 159.529C57.0905 158.581 57.2317 158.097 57.4939 157.149C58.1393 157.29 58.462 157.35 59.1276 157.471C58.9057 158.419 58.7846 158.883 58.5426 159.851C59.2687 159.972 59.6115 160.033 60.2973 160.174C60.5191 159.226 60.6402 158.762 60.8621 157.834C61.5075 157.976 61.8302 158.036 62.4756 158.198C62.2537 159.105 62.1328 159.549 61.9109 160.497C62.4756 160.618 62.7378 160.678 63.3026 160.799C63.3026 161.324 63.3026 161.586 63.3026 162.11C62.6168 161.949 62.2941 161.888 61.6083 161.747C61.4268 162.514 61.326 162.897 61.1445 163.663C61.81 163.805 62.1528 163.885 62.8184 164.026C62.8184 164.551 62.8184 164.833 62.8184 165.358C62.0318 165.176 61.6487 165.095 60.8621 164.934C60.6402 165.882 60.5191 166.386 60.2973 167.334C59.6519 167.173 59.3494 167.112 58.704 166.951C58.8855 166.003 59.0065 165.519 59.2284 164.591ZM57.7359 162.978C58.462 163.119 58.8249 163.179 59.5308 163.32C59.7124 162.554 59.8133 162.171 59.9948 161.404C59.2889 161.263 58.946 161.203 58.1997 161.082C58.0182 161.848 57.9174 162.231 57.7359 162.978Z" fill="#181919"/>
<path d="M71.5112 164.894C71.5112 166.87 71.3297 168.383 70.5835 169.19C70.0792 169.734 69.2725 169.875 68.3447 169.633C67.417 169.371 66.6303 168.806 66.1664 168C65.4605 166.83 65.2992 165.257 65.3194 163.3C65.3194 161.344 65.4807 159.932 66.2068 159.266C66.6909 158.823 67.4774 158.702 68.4052 158.944C69.3329 159.186 70.1195 159.73 70.6237 160.416C71.3296 161.445 71.5112 162.937 71.5112 164.894ZM67.0539 163.724C67.0539 165.378 67.1345 166.628 67.4975 167.334C67.6791 167.677 68.0018 167.919 68.3648 168.02C68.7278 168.121 69.0305 168.04 69.2322 167.798C69.6356 167.294 69.7162 166.084 69.7364 164.43C69.7364 162.776 69.6556 161.546 69.2522 160.92C69.0505 160.618 68.748 160.396 68.385 160.295C68.0219 160.194 67.6992 160.255 67.5177 160.456C67.1345 160.86 67.0539 162.07 67.0539 163.724ZM74.7787 164.934C75.5047 165.136 75.8475 165.237 76.5736 165.438C76.5736 166.023 76.5736 166.305 76.5736 166.89C75.8475 166.689 75.5047 166.588 74.7787 166.386C74.7787 168.544 74.7584 169.674 74.6979 172.074C73.992 171.872 73.6289 171.771 72.923 171.59C73.044 166.568 73.0441 164.369 72.9836 160.214C73.6895 160.416 74.0526 160.517 74.7585 160.698C74.7786 162.332 74.7787 163.159 74.7787 164.934Z" fill="#181919"/>
<path d="M82.5237 165.237C82.5237 164.833 82.5237 164.672 82.5237 164.289C80.8698 163.865 80.0429 163.643 78.4092 163.2C78.4092 162.655 78.4092 162.393 78.389 161.848C80.7488 162.494 81.9186 162.796 84.2784 163.381C84.2784 164.228 84.2985 164.652 84.2985 165.519C84.3389 169.553 82.6246 172.356 78.2882 172.336C78.3084 171.63 78.3083 171.267 78.3285 170.561C80.3655 170.501 81.5555 169.633 82.1203 168.06C81.6564 168.06 80.9505 167.939 80.0025 167.677C79.3369 167.496 79.0142 167.415 78.3688 167.233C78.3688 166.648 78.3688 166.366 78.3688 165.781C79.0546 165.963 79.3974 166.064 80.0832 166.245C81.2126 166.548 82.0195 166.709 82.4632 166.669C82.5036 166.245 82.5237 165.761 82.5237 165.237ZM87.8079 168.322C88.534 168.484 88.8971 168.564 89.603 168.706C89.603 169.27 89.603 169.573 89.603 170.138C88.8769 169.996 88.5139 169.916 87.8079 169.754C87.8079 171.892 87.7877 172.982 87.7676 175.24C87.0415 175.099 86.6987 175.019 85.9726 174.857C86.0533 170.037 86.0532 167.838 86.0129 163.583C86.7188 163.744 87.0818 163.825 87.8079 163.986C87.8079 165.7 87.8079 166.548 87.8079 168.322Z" fill="#181919"/>
<path d="M97.6298 170.864C97.6298 172.82 97.4684 174.292 96.7222 175.119C96.2179 175.684 95.4314 175.926 94.4834 175.785C93.5557 175.664 92.7691 175.2 92.2447 174.474C91.5186 173.425 91.3774 171.872 91.3774 169.916C91.3774 167.98 91.5388 166.527 92.2649 165.801C92.7691 165.297 93.5758 165.095 94.5036 165.237C95.4516 165.378 96.2381 165.801 96.7424 166.467C97.4684 167.435 97.6298 168.928 97.6298 170.864ZM93.1523 170.238C93.1523 171.892 93.233 173.123 93.6364 173.748C93.8381 174.05 94.1406 174.252 94.5036 174.313C94.8667 174.373 95.1894 174.252 95.3911 174.01C95.7944 173.506 95.8549 172.296 95.8549 170.642C95.8549 169.008 95.7743 167.778 95.3911 167.193C95.1894 166.911 94.8667 166.709 94.5036 166.669C94.1406 166.608 93.8179 166.709 93.6364 166.931C93.233 167.415 93.1523 168.605 93.1523 170.238ZM101.139 176.995C100.433 176.975 100.07 176.955 99.3442 176.894C99.3442 172.417 99.3442 170.198 99.3442 165.781C100.05 165.842 100.413 165.862 101.119 165.882C101.139 170.319 101.139 172.538 101.139 176.995Z" fill="#181919"/>
<path d="M108.682 167.556C108.682 166.89 108.682 166.548 108.682 165.882C109.388 165.821 109.731 165.801 110.437 165.721C110.437 168.101 110.437 169.23 110.437 171.59C108.057 171.832 106.847 171.912 104.487 171.933C104.487 169.593 104.487 168.423 104.487 166.063C105.193 166.063 105.536 166.043 106.222 166.023C106.222 166.689 106.222 167.011 106.222 167.677C107.19 167.657 107.694 167.637 108.682 167.556ZM105.032 174.938C105.032 174.131 105.476 173.566 106.161 173.183C107.049 172.679 108.34 172.437 109.731 172.316C111.123 172.195 112.434 172.195 113.321 172.538C114.027 172.8 114.471 173.304 114.471 174.131C114.471 174.938 114.027 175.563 113.321 176.027C112.434 176.612 111.123 176.935 109.731 177.056C108.34 177.177 107.049 177.076 106.161 176.652C105.476 176.289 105.032 175.745 105.032 174.938ZM108.682 168.968C107.694 169.048 107.21 169.069 106.222 169.109C106.222 169.674 106.222 169.956 106.222 170.521C107.21 170.481 107.694 170.46 108.682 170.38C108.682 169.795 108.682 169.512 108.682 168.968ZM106.807 174.877C106.807 175.099 106.928 175.281 107.19 175.422C107.674 175.664 108.582 175.724 109.731 175.624C110.901 175.523 111.809 175.301 112.293 174.958C112.535 174.777 112.676 174.575 112.676 174.353C112.676 174.111 112.555 173.95 112.293 173.829C111.809 173.607 110.901 173.587 109.731 173.708C108.582 173.808 107.674 173.99 107.19 174.292C106.928 174.454 106.807 174.635 106.807 174.877ZM112.394 171.852C112.394 169.25 112.394 168 112.394 165.358C113.12 165.257 113.463 165.216 114.189 165.116C114.209 167.758 114.189 168.988 114.189 171.61C113.483 171.711 113.12 171.751 112.394 171.852Z" fill="#181919"/>
<path d="M125.927 170.682C125.201 170.864 124.858 170.944 124.132 171.106C123.911 172.175 123.789 172.719 123.568 173.788C122.902 173.929 122.579 174.01 121.914 174.151C122.136 173.082 122.257 172.558 122.479 171.489C121.914 171.61 121.631 171.67 121.067 171.791C121.067 171.247 121.067 170.985 121.067 170.44C121.752 170.299 122.095 170.218 122.781 170.057C122.963 169.19 123.063 168.766 123.265 167.98C122.6 168.141 122.257 168.201 121.591 168.343C121.591 167.838 121.591 167.596 121.611 167.092C122.398 166.931 122.801 166.83 123.588 166.669C123.83 165.68 123.931 165.075 124.153 163.966C124.818 163.805 125.141 163.724 125.806 163.563C125.585 164.692 125.484 165.277 125.242 166.285C125.968 166.124 126.311 166.023 127.037 165.842C127.279 164.853 127.38 164.248 127.601 163.119C128.267 162.957 128.59 162.857 129.255 162.695C129.033 163.825 128.953 164.45 128.691 165.438C129.255 165.297 129.538 165.216 130.102 165.075C130.102 165.559 130.082 165.801 130.082 166.285C129.397 166.467 129.054 166.548 128.368 166.729C128.166 167.536 128.065 167.959 127.884 168.827C128.57 168.645 128.912 168.564 129.578 168.383C129.578 168.927 129.578 169.21 129.598 169.754C128.791 169.956 128.408 170.057 127.601 170.279C127.38 171.348 127.279 171.892 127.057 172.981C126.391 173.143 126.069 173.223 125.403 173.385C125.585 172.296 125.685 171.751 125.927 170.682ZM124.415 169.674C125.141 169.512 125.504 169.412 126.23 169.23C126.411 168.363 126.512 167.939 126.714 167.132C125.988 167.314 125.625 167.395 124.899 167.576C124.697 168.383 124.596 168.806 124.415 169.674Z" fill="#181919"/>
<path d="M138.452 159.488C138.472 160.093 138.472 160.396 138.472 161.021C137.585 161.263 137.141 161.384 136.254 161.646C136.254 161.929 136.254 162.07 136.274 162.352C136.314 164.41 137.161 164.652 138.674 164.531C138.674 165.075 138.674 165.418 138.674 166.023C137.262 166.205 136.032 165.902 135.366 165.277C134.64 166.285 133.41 167.435 131.998 168C131.998 167.395 131.978 167.052 131.998 166.507C133.551 165.801 134.54 164.954 134.499 162.877C134.499 162.594 134.499 162.453 134.479 162.171C133.592 162.413 133.128 162.534 132.24 162.776C132.22 162.171 132.22 161.848 132.2 161.243C134.721 160.517 135.971 160.174 138.452 159.488ZM132.966 172.275C132.946 170.642 132.946 169.815 132.926 168.181C133.632 167.979 133.995 167.899 134.701 167.697C134.701 168.726 134.721 169.25 134.721 170.279C137.686 169.452 139.158 169.028 142.083 168.201C142.083 168.786 142.083 169.089 142.103 169.694C138.493 170.722 136.657 171.267 132.966 172.275ZM140.106 166.769C140.086 165.156 140.086 164.369 140.106 162.897C139.198 163.139 138.755 163.28 137.847 163.522C137.847 162.998 137.888 162.796 137.867 162.171C138.775 161.909 139.219 161.788 140.126 161.525C140.106 160.456 140.106 159.932 140.086 158.863C140.792 158.661 141.135 158.581 141.841 158.379C141.901 161.707 141.841 163.058 141.861 166.245C141.175 166.487 140.812 166.588 140.106 166.769Z" fill="#181919"/>
<path d="M150.231 162.07C148.033 162.594 147.045 162.816 144.967 163.361C144.947 161.082 144.987 160.073 144.967 157.734C147.307 157.129 148.436 156.887 150.856 156.302C150.856 156.866 150.856 157.129 150.856 157.693C149.162 158.117 148.335 158.339 146.702 158.762C146.702 159.892 146.702 160.436 146.702 161.505C148.255 161.102 149.061 160.9 150.715 160.497C151.744 160.235 152.329 159.993 152.732 159.589C152.692 157.976 152.692 157.229 152.692 155.717C153.418 155.535 153.781 155.455 154.527 155.273C154.527 156.181 154.527 156.645 154.527 157.552C155.213 157.391 155.556 157.29 156.242 157.129C156.242 157.673 156.282 158.016 156.302 158.621C155.616 158.782 155.273 158.863 154.588 159.045C154.628 160.033 154.689 160.537 154.608 161.485C153.862 161.667 153.499 161.747 152.752 161.929C152.773 161.546 152.793 161.364 152.793 160.981C152.349 161.404 151.603 161.747 150.231 162.07ZM145.592 164.188C149.061 163.28 150.877 162.857 154.547 161.989C154.386 163.784 154.426 164.652 154.447 166.386C150.816 167.314 149.082 167.798 145.613 168.766C145.613 166.931 145.613 166.023 145.592 164.188ZM147.347 165.176C147.347 165.842 147.347 166.185 147.347 166.85C149.404 166.285 150.473 166.023 152.631 165.479C152.631 164.833 152.591 164.51 152.631 163.865C150.473 164.389 149.404 164.652 147.347 165.176Z" fill="#181919"/>
<path d="M158.279 159.69C158.117 156.846 158.359 155.555 159.065 154.708C159.408 154.285 159.932 153.962 160.638 153.801C161.344 153.619 161.869 153.7 162.232 153.962C162.837 154.406 163.099 155.354 163.301 157.492C163.724 157.391 163.926 157.35 164.35 157.27C164.249 155.495 164.229 154.648 164.208 152.994C164.934 152.833 165.277 152.732 166.003 152.57C166.064 156.947 165.802 159.367 165.923 163.502C165.197 163.643 164.834 163.724 164.128 163.885C164.087 161.888 164.148 160.86 164.43 158.782C164.007 158.863 163.805 158.924 163.402 159.004C163.059 161.404 162.776 162.594 162.131 163.361C161.768 163.784 161.264 164.067 160.558 164.228C159.872 164.389 159.328 164.329 158.985 164.067C158.218 163.583 158.44 162.554 158.279 159.69ZM160.074 159.266C160.215 161.667 159.791 162.473 160.054 162.776C160.154 162.897 160.316 162.917 160.477 162.877C160.659 162.836 160.8 162.736 160.901 162.594C161.163 162.171 161.707 161.344 161.566 158.944C161.425 156.544 161.344 155.576 161.062 155.293C160.961 155.172 160.82 155.152 160.638 155.192C160.477 155.233 160.336 155.333 160.215 155.495C159.973 155.898 159.933 156.887 160.074 159.266ZM166.649 163.482C166.548 159.266 166.81 156.826 166.729 152.328C167.456 152.167 167.819 152.086 168.545 151.925C168.625 156.503 168.363 158.883 168.464 163.119C167.738 163.26 167.375 163.341 166.649 163.482Z" fill="#181919"/>
<path d="M177.58 160.88C175.281 161.203 174.131 161.404 171.832 161.808C171.751 157.915 171.993 155.777 171.893 151.441C174.353 150.957 175.583 150.715 178.044 150.352C178.064 150.997 178.064 151.32 178.084 151.945C176.37 152.187 175.503 152.328 173.768 152.631C173.829 155.777 173.607 157.29 173.647 160.093C175.341 159.811 176.189 159.67 177.883 159.428C178.891 159.287 179.658 159.045 180.041 158.702C180 155.394 180.162 153.639 180.061 149.827C180.807 149.727 181.17 149.686 181.917 149.585C182.038 154.607 181.896 156.685 181.937 161.041C181.19 161.122 180.827 161.162 180.061 161.263C180.061 160.759 180.061 160.517 180.041 160.013C179.698 160.416 178.77 160.699 177.58 160.88Z" fill="#181919"/>
<path d="M190.993 153.72C190.993 154.305 190.993 154.587 190.993 155.152C189.561 155.213 188.835 155.273 187.382 155.374C187.362 156.564 187.322 157.169 187.322 158.359C188.572 158.258 189.198 158.218 190.428 158.157C191.235 158.117 191.92 158.077 192.465 157.915C192.465 158.46 192.465 158.742 192.465 159.287C191.92 159.468 191.174 159.549 190.327 159.589C188.411 159.69 187.443 159.751 185.486 159.932C185.466 155.918 185.567 154.043 185.466 149.444C187.907 149.243 189.117 149.202 191.517 149.202C191.517 149.827 191.537 150.13 191.537 150.755C189.863 150.796 189.016 150.836 187.342 150.937C187.362 152.228 187.362 152.792 187.382 153.942C188.835 153.841 189.561 153.781 190.993 153.72ZM195.309 160.235C194.603 160.235 194.24 160.235 193.514 160.255C193.514 158.117 193.514 157.048 193.514 154.93C192.707 154.95 192.284 154.95 191.477 154.991C191.477 154.406 191.477 154.123 191.477 153.539C192.304 153.498 192.707 153.498 193.514 153.478C193.514 151.743 193.514 150.856 193.494 149.061C194.22 149.081 194.583 149.101 195.289 149.162C195.309 153.559 195.309 155.777 195.309 160.235Z" fill="#181919"/>
<path d="M19.3727 116.871C56.6451 126.714 94.3612 127.641 132.239 120.401C147.345 117.517 162.633 113.261 177.901 115.318C184.779 116.246 187.865 117.194 194.46 119.372" stroke="black" stroke-miterlimit="10"/>
<path d="M93.6555 119.453C97.891 119.07 102.126 118.828 106.362 118.707C108.722 118.646 111.082 118.626 113.441 118.828C114.49 118.928 115.599 119.09 116.406 119.755C116.89 120.159 117.233 120.683 117.596 121.187C118.383 122.236 119.331 123.124 120.319 123.971C120.944 124.495 121.59 124.979 122.255 125.443C123.022 125.967 123.808 126.472 124.454 127.137C125.099 127.803 125.583 128.69 125.563 129.618C124.857 129.88 124.07 129.658 123.324 129.457C119.694 128.529 115.922 128.428 112.171 128.347C106.503 128.226 100.836 128.146 95.1682 128.206C93.9177 128.226 92.6471 128.247 91.3966 128.448C90.3276 128.63 89.2586 128.952 88.1695 128.932C87.4434 128.912 86.6972 128.751 85.9711 128.791C84.4181 128.872 82.9054 129.9 81.3927 129.517C82.3205 127.984 83.7727 126.855 85.2047 125.766C88.0888 123.608 90.9529 121.429 93.6555 119.453Z" fill="#EBEBEB"/>
<path d="M99.6655 134.64C105.152 134.358 110.617 134.096 116.103 133.813C116.85 133.773 117.596 133.733 118.342 133.773C118.685 133.793 119.008 133.813 119.351 133.793C119.673 133.773 119.976 133.712 120.298 133.652C122.537 133.248 124.776 132.845 127.015 132.422C126.289 133.611 126.511 135.144 126.208 136.516C126.067 137.222 125.764 137.887 125.482 138.533C123.243 143.716 120.924 148.859 118.524 153.962C118.281 154.466 118.04 154.991 117.616 155.374C116.91 156.019 115.861 156.12 114.893 156.16C112.533 156.261 110.174 156.201 107.814 156.14C106.12 156.1 104.405 156.06 102.711 156.019C99.0806 155.939 95.43 155.858 91.7995 155.777C91.134 155.757 90.4483 155.737 89.8836 155.394C89.2382 154.991 88.9155 154.244 88.6129 153.559C87.5036 150.896 86.3741 148.214 85.2648 145.552C84.4984 143.696 83.7118 141.84 83.1673 139.904C82.9252 139.037 82.7437 138.17 82.3806 137.343C81.7957 135.991 80.7873 134.801 80.4847 133.369C80.4041 133.027 80.4041 132.603 80.6865 132.381C80.9487 132.179 81.3117 132.26 81.6344 132.361C83.5706 132.906 85.5271 133.45 87.4633 134.015C88.1087 134.196 88.7541 134.378 89.3996 134.438C89.8836 134.479 90.3676 134.459 90.8517 134.459C94.0384 134.317 97.1847 134.761 99.6655 134.64Z" fill="#C79FFF"/>
<path d="M127.519 133.067L119.31 154.043C118.967 155.273 117.838 156.12 116.567 156.12H91.6584C90.3878 156.12 89.2582 155.273 88.9153 154.043L80.7469 133.067C80.4645 132.038 80.7671 130.929 81.5537 130.203L93.7156 118.989H114.55L126.712 130.203C127.499 130.929 127.821 132.038 127.519 133.067Z" stroke="#181919" stroke-miterlimit="10"/>
<path d="M103.74 134.438C116.683 134.438 127.176 133.03 127.176 131.292C127.176 129.554 116.683 128.146 103.74 128.146C90.7963 128.146 80.3035 129.554 80.3035 131.292C80.3035 133.03 90.7963 134.438 103.74 134.438Z" fill="#B180E0" stroke="black" stroke-miterlimit="10"/>
<path d="M102.691 128.226C91.2554 95.6534 106.019 60.4181 136.091 47.0057C135.385 76.5937 108.681 104.225 102.691 128.226Z" fill="white" stroke="#181919" stroke-miterlimit="10"/>
<path d="M135.607 48.1755C112.957 77.0979 95.5916 110.841 104.063 150.009" stroke="#181919" stroke-miterlimit="10" stroke-linecap="round" stroke-linejoin="round"/>
<path d="M102.47 85.1857C103.075 87.0211 103.781 88.8363 104.608 90.6111L102.47 85.1857Z" fill="white"/>
<path d="M103.417 84.863L104.587 90.6111L101.501 85.4882C100.715 83.9957 103.155 83.2091 103.417 84.863Z" fill="#181919"/>
<path d="M113.966 64.7342L114.914 72.1766L112.029 65.2586C111.465 63.8468 113.744 63.2417 113.966 64.7342Z" fill="#181919"/>
<path d="M128.568 77.5013L120.017 82.2007L127.439 75.8475C128.548 74.9197 129.839 76.7753 128.568 77.5013Z" fill="#181919"/>
<path d="M118.242 97.1056L108.48 104.467L116.89 95.6131C117.899 94.5845 119.371 96.2384 118.242 97.1056Z" fill="#181919"/>
<path d="M93.7157 118.969V113.886C93.7157 113.463 94.0586 113.1 94.5023 113.1H113.764C114.187 113.1 114.55 113.443 114.55 113.886V118.969H93.7157Z" fill="#EBEBEB" stroke="#181919" stroke-miterlimit="10"/>
</svg>
