<svg width="212" height="185" viewBox="0 0 212 185" fill="none" xmlns="http://www.w3.org/2000/svg">
<path d="M107.271 183.53C157.676 183.53 198.536 142.669 198.536 92.2649C198.536 41.8607 157.676 1 107.271 1C56.8672 1 16.0066 41.8607 16.0066 92.2649C16.0066 142.669 56.8672 183.53 107.271 183.53Z" fill="#FF88B6" stroke="#181919" stroke-miterlimit="10" stroke-linecap="round" stroke-linejoin="round"/>
<path d="M107.271 183.53C157.676 183.53 198.536 142.669 198.536 92.2649C198.536 41.8607 157.676 1 107.271 1C56.8672 1 16.0066 41.8607 16.0066 92.2649C16.0066 142.669 56.8672 183.53 107.271 183.53Z" stroke="#181919" stroke-miterlimit="10"/>
<path d="M60.4391 142.042L31.0125 73.2856C30.3873 71.8335 31.073 70.1393 32.5252 69.514L76.3929 50.7366C77.845 50.1114 79.5392 50.7971 80.1645 52.2493L109.591 121.006L60.4391 142.042Z" fill="#EBEBEB" stroke="black" stroke-miterlimit="10"/>
<path d="M78.0869 60.4985L77.0583 58.0782C76.8364 57.574 77.0785 56.9891 77.5827 56.7874L85.2067 53.52C85.7109 53.2982 86.2957 53.5402 86.4974 54.0444L87.526 56.4647C87.7479 56.9689 87.5058 57.5538 87.0016 57.7555L79.3778 61.0229C78.8937 61.2448 78.3088 61.0027 78.0869 60.4985Z" fill="#B180E0" stroke="black" stroke-miterlimit="10"/>
<path d="M107.291 80.5063L97.65 103.519V78.5903C101.059 78.5903 104.326 79.276 107.291 80.5063Z" fill="#EBEBEB" stroke="black" stroke-miterlimit="10"/>
<path d="M122.599 103.539C122.599 107.573 121.651 111.385 119.936 114.753C118.746 117.133 117.173 119.312 115.297 121.187L97.6697 103.58V103.539L120.884 94.4835C121.994 97.287 122.599 100.353 122.599 103.539Z" fill="#FF88B6" stroke="black" stroke-miterlimit="10"/>
<path d="M115.298 121.187C112.777 123.708 109.731 125.685 106.343 126.935C103.64 127.944 100.716 128.488 97.65 128.488C94.2414 128.488 90.974 127.803 88.0091 126.552C84.9838 125.302 82.2812 123.466 80.0021 121.187L97.65 103.56V103.539H97.6702V103.58L115.298 121.187Z" fill="#B180E0" stroke="black" stroke-miterlimit="10"/>
<path d="M97.6702 103.56H97.65" stroke="black" stroke-miterlimit="10"/>
<path d="M120.885 94.4835L97.6702 103.539H97.65V103.519L107.291 80.5063C110.296 81.777 113.019 83.6326 115.298 85.8915C117.718 88.3118 119.634 91.2363 120.885 94.4835Z" fill="#56B381" stroke="black" stroke-miterlimit="10"/>
<path d="M97.6702 103.56H97.65" stroke="black" stroke-miterlimit="10"/>
<path d="M97.6497 78.5903V103.56L80.0017 121.187C77.6016 118.767 75.6653 115.863 74.3947 112.615C73.3056 109.792 72.7006 106.746 72.7006 103.539C72.7006 99.5056 73.6687 95.6936 75.3629 92.3254C76.573 89.9253 78.1462 87.7672 80.0017 85.8915C82.5229 83.3905 85.5684 81.4139 88.977 80.1433C91.6796 79.1348 94.6041 78.5903 97.6497 78.5903Z" fill="#5A66FF" stroke="black" stroke-miterlimit="10"/>
<path d="M58.3397 131.131C58.6422 126.754 58.5615 119.19 60.9212 115.5C62.5348 112.978 66.7097 109.529 69.5939 110.377C72.7806 111.304 74.9186 111.788 76.3304 114.814C77.8633 118.121 84.8215 122.458 86.7376 120.038C88.6537 117.617 91.6186 117.113 91.6186 117.113C91.6186 117.113 93.7565 116.669 96.7012 115.459C98.355 114.794 102.671 116.044 102.671 116.044C102.671 116.044 103.538 116.629 105.999 116.629C109.246 116.629 105.999 117.577 109.408 117.416C111.788 117.295 109.266 118.525 112.413 117.738C114.248 117.274 115.64 115.721 116.366 113.987C117.092 112.252 117.253 110.336 117.274 108.682C117.637 101.865 118.988 95.1288 120.723 88.5335C121.711 84.7821 122.881 80.9701 125.099 77.7834C127.318 74.5967 130.767 72.0352 134.659 71.8134C140.428 71.4705 145.369 76.2506 147.648 81.5752C149.907 86.8797 150.25 92.7892 151.561 98.3962C152.509 102.41 154.425 106.786 158.217 107.674C159.951 108.017 161.867 107.412 163.077 106.141C164.772 104.366 165.175 101.502 167.192 100.111C168.765 99.0214 171.085 99.2433 172.436 100.574C173.565 101.704 173.949 103.378 174.715 104.79C175.481 106.202 177.155 107.452 178.608 106.787C179.293 106.464 179.737 105.798 180.12 105.153C181.189 103.317 181.976 101.321 182.44 99.2433C183.549 94.3825 182.924 89.3403 182.278 84.3989C181.633 79.4574 181.008 74.4152 182.117 69.5545C183.226 64.7139 186.433 60.0145 192.504 57.8362C196.437 70.7243 198.837 84.177 198.353 97.6298C197.869 111.083 194.4 124.576 186.03 136.798C164.429 142.546 142.767 148.294 120.602 151.179C98.4357 154.063 75.6245 153.942 54.0638 148.093C57.7548 142.909 57.9766 136.415 58.3397 131.131Z" fill="#56B381"/>
<path d="M57.3531 141.84C57.7162 134.337 57.1716 121.994 60.9432 115.5C62.2945 113.18 63.908 110.175 67.7603 110.175C72.9841 110.175 76.2112 114.773 77.0986 115.661C79.7407 118.303 81.6769 121.651 84.7224 120.3C93.4153 116.427 95.4121 113.563 111.89 118.081C116.025 119.211 117.094 111.829 117.376 107.553C117.759 101.906 118.526 96.2785 119.675 90.7522C120.543 86.6175 121.652 82.4425 123.971 78.9331C126.311 75.4237 130.063 72.6202 134.278 72.3983C140.47 72.0756 145.694 77.3196 148.073 83.0274C150.453 88.7353 150.837 95.0683 152.47 101.038C153.075 103.277 153.943 105.576 155.697 107.089C157.452 108.602 160.316 109.066 162.051 107.533C163.644 106.121 163.765 103.66 164.975 101.906C167.012 98.9811 172.216 99.3442 173.809 102.531C174.918 104.729 175.604 108.42 177.964 107.755C178.811 107.513 179.335 106.726 179.759 105.96C182.623 100.574 182.784 94.1809 182.583 88.0899C182.381 81.9988 181.373 73.7295 183.127 67.8805C184.882 62.0315 186.173 59.0263 192.324 59.0464" stroke="black" stroke-miterlimit="10"/>
<path d="M39.2601 138.311C42.2653 132.623 48.2555 126.794 55.355 127.924C59.9535 128.65 63.2008 132.078 66.7505 134.7C70.3003 137.322 75.7056 139.279 79.457 136.859C81.1311 135.769 82.0386 134.055 83.2084 132.563C89.0978 125.12 103.418 124.455 110.215 131.272C113.704 134.781 116.83 140.348 122.074 139.46C125.644 138.855 127.399 135.467 129.981 133.248C133.712 130.041 139.964 129.295 144.543 131.534C149.464 133.934 153.316 139.44 158.842 138.452C163.199 137.685 165.155 133.248 168.806 131.05C172.315 128.932 177.237 129.154 180.928 131.01C184.618 132.865 187.14 140.186 188.531 143.676C173.848 147.104 161.162 149.525 146.499 152.953C137.544 155.051 126.552 154.123 117.314 154.769C100.393 155.938 83.5716 152.187 67.154 148.476C57.251 146.257 47.2067 143.938 39.2601 138.311Z" fill="#B180E0" stroke="black" stroke-miterlimit="10"/>
<mask id="mask0_393_19568" style="mask-type:luminance" maskUnits="userSpaceOnUse" x="39" y="126" width="150" height="29">
<path d="M39.2601 138.311C42.2653 132.623 48.2555 126.794 55.355 127.924C59.9535 128.65 63.2008 132.078 66.7505 134.7C70.3003 137.322 75.7056 139.279 79.457 136.859C81.1311 135.769 82.0386 134.055 83.2084 132.563C89.0978 125.12 103.418 124.455 110.215 131.272C113.704 134.781 116.83 140.348 122.074 139.46C125.644 138.855 127.399 135.467 129.981 133.248C133.712 130.041 139.964 129.295 144.543 131.534C149.464 133.934 153.316 139.44 158.842 138.452C163.199 137.685 165.155 133.248 168.806 131.05C172.315 128.932 177.237 129.154 180.928 131.01C184.618 132.865 187.14 140.186 188.531 143.676C173.848 147.104 161.162 149.525 146.499 152.953C137.544 155.051 126.552 154.123 117.314 154.769C100.393 155.938 83.5716 152.187 67.154 148.476C57.251 146.257 47.2067 143.938 39.2601 138.311Z" fill="white"/>
</mask>
<g mask="url(#mask0_393_19568)">
<path d="M188.552 98.7996C210.758 130.707 233.589 162.191 257.046 193.191L188.552 98.7996Z" fill="#56B381"/>
<path d="M188.552 98.7996C210.758 130.707 233.589 162.191 257.046 193.191" stroke="black" stroke-miterlimit="10"/>
<path d="M181.149 98.7996C203.355 130.707 226.187 162.191 249.643 193.191L181.149 98.7996Z" fill="#56B381"/>
<path d="M181.149 98.7996C203.355 130.707 226.187 162.191 249.643 193.191" stroke="black" stroke-miterlimit="10"/>
<path d="M173.747 98.7996C195.954 130.707 218.785 162.191 242.242 193.191L173.747 98.7996Z" fill="#56B381"/>
<path d="M173.747 98.7996C195.954 130.707 218.785 162.191 242.242 193.191" stroke="black" stroke-miterlimit="10"/>
<path d="M166.345 98.7996C188.552 130.707 211.383 162.191 234.84 193.191L166.345 98.7996Z" fill="#56B381"/>
<path d="M166.345 98.7996C188.552 130.707 211.383 162.191 234.84 193.191" stroke="black" stroke-miterlimit="10"/>
<path d="M158.943 98.7996C181.149 130.707 203.981 162.191 227.437 193.191L158.943 98.7996Z" fill="#56B381"/>
<path d="M158.943 98.7996C181.149 130.707 203.981 162.191 227.437 193.191" stroke="black" stroke-miterlimit="10"/>
<path d="M151.541 98.7996C173.747 130.707 196.579 162.191 220.035 193.191L151.541 98.7996Z" fill="#56B381"/>
<path d="M151.541 98.7996C173.747 130.707 196.579 162.191 220.035 193.191" stroke="black" stroke-miterlimit="10"/>
<path d="M144.119 98.7996C166.325 130.707 189.157 162.191 212.613 193.191L144.119 98.7996Z" fill="#56B381"/>
<path d="M144.119 98.7996C166.325 130.707 189.157 162.191 212.613 193.191" stroke="black" stroke-miterlimit="10"/>
<path d="M136.717 98.7996C158.923 130.707 181.754 162.191 205.211 193.191L136.717 98.7996Z" fill="#56B381"/>
<path d="M136.717 98.7996C158.923 130.707 181.754 162.191 205.211 193.191" stroke="black" stroke-miterlimit="10"/>
<path d="M129.315 98.7996C151.521 130.707 174.352 162.191 197.809 193.191L129.315 98.7996Z" fill="#56B381"/>
<path d="M129.315 98.7996C151.521 130.707 174.352 162.191 197.809 193.191" stroke="black" stroke-miterlimit="10"/>
<path d="M121.913 98.7996C144.119 130.707 166.951 162.191 190.407 193.191L121.913 98.7996Z" fill="#56B381"/>
<path d="M121.913 98.7996C144.119 130.707 166.951 162.191 190.407 193.191" stroke="black" stroke-miterlimit="10"/>
<path d="M114.511 98.7996C136.717 130.707 159.549 162.191 183.005 193.191L114.511 98.7996Z" fill="#56B381"/>
<path d="M114.511 98.7996C136.717 130.707 159.549 162.191 183.005 193.191" stroke="black" stroke-miterlimit="10"/>
<path d="M107.109 98.7996C129.315 130.707 152.146 162.191 175.603 193.191L107.109 98.7996Z" fill="#56B381"/>
<path d="M107.109 98.7996C129.315 130.707 152.146 162.191 175.603 193.191" stroke="black" stroke-miterlimit="10"/>
<path d="M99.6868 98.7996C121.893 130.707 144.724 162.191 168.181 193.191L99.6868 98.7996Z" fill="#56B381"/>
<path d="M99.6868 98.7996C121.893 130.707 144.724 162.191 168.181 193.191" stroke="black" stroke-miterlimit="10"/>
<path d="M92.2849 98.7996C114.491 130.707 137.322 162.191 160.779 193.191L92.2849 98.7996Z" fill="#56B381"/>
<path d="M92.2849 98.7996C114.491 130.707 137.322 162.191 160.779 193.191" stroke="black" stroke-miterlimit="10"/>
<path d="M84.8824 98.7996C107.089 130.707 129.92 162.191 153.377 193.191L84.8824 98.7996Z" fill="#56B381"/>
<path d="M84.8824 98.7996C107.089 130.707 129.92 162.191 153.377 193.191" stroke="black" stroke-miterlimit="10"/>
<path d="M77.4806 98.7996C99.6867 130.707 122.518 162.191 145.975 193.191L77.4806 98.7996Z" fill="#56B381"/>
<path d="M77.4806 98.7996C99.6867 130.707 122.518 162.191 145.975 193.191" stroke="black" stroke-miterlimit="10"/>
<path d="M70.0787 98.7996C92.2849 130.707 115.116 162.191 138.573 193.191L70.0787 98.7996Z" fill="#56B381"/>
<path d="M70.0787 98.7996C92.2849 130.707 115.116 162.191 138.573 193.191" stroke="black" stroke-miterlimit="10"/>
<path d="M62.6764 98.7996C84.8825 130.707 107.714 162.191 131.171 193.191L62.6764 98.7996Z" fill="#56B381"/>
<path d="M62.6764 98.7996C84.8825 130.707 107.714 162.191 131.17 193.191" stroke="black" stroke-miterlimit="10"/>
<path d="M55.2543 98.7996C77.4604 130.707 100.292 162.191 123.748 193.191L55.2543 98.7996Z" fill="#56B381"/>
<path d="M55.2543 98.7996C77.4604 130.707 100.292 162.191 123.748 193.191" stroke="black" stroke-miterlimit="10"/>
<path d="M47.8524 98.7996C70.0585 130.707 92.8899 162.191 116.346 193.191L47.8524 98.7996Z" fill="#56B381"/>
<path d="M47.8524 98.7996C70.0585 130.707 92.8899 162.191 116.346 193.191" stroke="black" stroke-miterlimit="10"/>
<path d="M40.4501 98.7996C62.6562 130.707 85.4875 162.191 108.944 193.191L40.4501 98.7996Z" fill="#56B381"/>
<path d="M40.4501 98.7996C62.6562 130.707 85.4875 162.191 108.944 193.191" stroke="black" stroke-miterlimit="10"/>
<path d="M33.0481 98.7996C55.2542 130.707 78.0856 162.191 101.542 193.191L33.0481 98.7996Z" fill="#56B381"/>
<path d="M33.0481 98.7996C55.2542 130.707 78.0856 162.191 101.542 193.191" stroke="black" stroke-miterlimit="10"/>
<path d="M25.6462 98.7996C47.8524 130.707 70.6838 162.191 94.1404 193.191L25.6462 98.7996Z" fill="#56B381"/>
<path d="M25.6462 98.7996C47.8524 130.707 70.6838 162.191 94.1403 193.191" stroke="black" stroke-miterlimit="10"/>
<path d="M18.2444 98.7996C40.4505 130.707 63.2818 162.191 86.7384 193.191L18.2444 98.7996Z" fill="#56B381"/>
<path d="M18.2444 98.7996C40.4505 130.707 63.2818 162.191 86.7384 193.191" stroke="black" stroke-miterlimit="10"/>
<path d="M10.8218 98.7996C33.0279 130.707 55.8592 162.191 79.3158 193.191L10.8218 98.7996Z" fill="#56B381"/>
<path d="M10.8218 98.7996C33.0279 130.707 55.8592 162.191 79.3158 193.191" stroke="black" stroke-miterlimit="10"/>
<path d="M3.41992 98.7996C25.626 130.707 48.4574 162.191 71.914 193.191L3.41992 98.7996Z" fill="#56B381"/>
<path d="M3.41992 98.7996C25.626 130.707 48.4574 162.191 71.914 193.191" stroke="black" stroke-miterlimit="10"/>
<path d="M-3.98193 98.7996C18.2242 130.707 41.0556 162.191 64.5122 193.191L-3.98193 98.7996Z" fill="#56B381"/>
<path d="M-3.98193 98.7996C18.2242 130.707 41.0556 162.191 64.5122 193.191" stroke="black" stroke-miterlimit="10"/>
<path d="M-11.3843 98.7996C10.8218 130.707 33.6532 162.191 57.1098 193.191L-11.3843 98.7996Z" fill="#56B381"/>
<path d="M-11.3843 98.7996C10.8218 130.707 33.6532 162.191 57.1098 193.191" stroke="black" stroke-miterlimit="10"/>
<path d="M-18.7863 98.7996C3.41986 130.707 26.2511 162.191 49.7077 193.191L-18.7863 98.7996Z" fill="#56B381"/>
<path d="M-18.7863 98.7996C3.41986 130.707 26.2511 162.191 49.7077 193.191" stroke="black" stroke-miterlimit="10"/>
<path d="M-26.1886 98.7996C-3.98248 130.707 18.8489 162.191 42.3055 193.191L-26.1886 98.7996Z" fill="#56B381"/>
<path d="M-26.1886 98.7996C-3.98248 130.707 18.8489 162.191 42.3055 193.191" stroke="black" stroke-miterlimit="10"/>
</g>
<path d="M158.862 83.8745L161.504 76.3918C162.13 74.6371 164.046 73.7093 165.8 74.3345L173.666 77.1179C175.421 77.7431 176.349 79.6591 175.724 81.4139L173.081 88.8966C172.456 90.6513 170.54 91.579 168.785 90.9538L160.92 88.1705C159.165 87.5452 158.237 85.6292 158.862 83.8745Z" fill="#EBEBEB" stroke="black" stroke-miterlimit="10"/>
<path d="M136.899 62.9189L131.292 57.3119C129.981 56.0009 129.981 53.863 131.292 52.552L137.201 46.6425C138.512 45.3315 140.65 45.3315 141.961 46.6425L147.568 52.2495C148.879 53.5605 148.879 55.6984 147.568 57.0094L141.659 62.9189C140.348 64.2299 138.21 64.2299 136.899 62.9189Z" fill="#EBEBEB" stroke="black" stroke-miterlimit="10"/>
<path d="M139.42 51.5031V58.0379" stroke="#1D1D1B" stroke-miterlimit="10" stroke-linecap="round" stroke-linejoin="round"/>
<path d="M136.152 54.7705H142.707" stroke="#1D1D1B" stroke-miterlimit="10" stroke-linecap="round" stroke-linejoin="round"/>
<path d="M164.308 81.8173L170.177 83.9148" stroke="#1D1D1B" stroke-miterlimit="10" stroke-linecap="round" stroke-linejoin="round"/>
<path d="M128.186 33.5729C129.79 33.5729 131.091 32.2726 131.091 30.6686C131.091 29.0645 129.79 27.7642 128.186 27.7642C126.582 27.7642 125.282 29.0645 125.282 30.6686C125.282 32.2726 126.582 33.5729 128.186 33.5729Z" fill="#FFF58C" stroke="#181919" stroke-miterlimit="10" stroke-linecap="round" stroke-linejoin="round"/>
<path d="M88.8367 33.5729C90.4407 33.5729 91.7411 32.2726 91.7411 30.6686C91.7411 29.0645 90.4407 27.7642 88.8367 27.7642C87.2327 27.7642 85.9324 29.0645 85.9324 30.6686C85.9324 32.2726 87.2327 33.5729 88.8367 33.5729Z" fill="#FFF58C" stroke="#181919" stroke-miterlimit="10" stroke-linecap="round" stroke-linejoin="round"/>
<path d="M109.712 16.167L111.527 21.7539C111.688 22.2783 112.172 22.6211 112.717 22.6211H118.586C119.796 22.6211 120.301 24.1741 119.332 24.88L114.573 28.329C114.129 28.6517 113.947 29.2164 114.109 29.7206L115.924 35.3074C116.307 36.4571 114.976 37.4252 113.988 36.6991L109.228 33.2502C108.784 32.9275 108.199 32.9275 107.755 33.2502L102.996 36.6991C102.007 37.405 100.696 36.4571 101.059 35.3074L102.875 29.7206C103.036 29.1962 102.854 28.6315 102.411 28.329L97.6507 24.88C96.6624 24.1741 97.1667 22.6211 98.397 22.6211H104.266C104.811 22.6211 105.295 22.2783 105.456 21.7539L107.271 16.167C107.695 14.9972 109.329 14.9972 109.712 16.167Z" fill="#FFF58C" stroke="#181919" stroke-miterlimit="10" stroke-linecap="round" stroke-linejoin="round"/>
<path d="M107.271 183.53C157.676 183.53 198.536 142.669 198.536 92.2649C198.536 41.8607 157.676 1 107.271 1C56.8672 1 16.0066 41.8607 16.0066 92.2649C16.0066 142.669 56.8672 183.53 107.271 183.53Z" stroke="#181919" stroke-miterlimit="10" stroke-linecap="round" stroke-linejoin="round"/>
<path d="M211 137.645V170.803C174.817 160.396 142.587 184.094 106 184.094C68.1225 183.792 37.2034 160.396 1 170.803V137.645C37.2438 127.298 68.7276 152.59 106 152.59C140.973 152.873 174.756 127.298 211 137.645Z" fill="white" stroke="#181919" stroke-miterlimit="10"/>
<path d="M20.3218 154.486C19.6159 154.446 19.273 154.426 18.5671 154.385C18.3452 155.354 18.2243 155.858 18.0024 156.826C17.357 156.806 17.0343 156.806 16.3687 156.786C16.5906 155.797 16.7116 155.313 16.9334 154.325C16.3687 154.305 16.0863 154.305 15.5417 154.305C15.5417 153.78 15.5417 153.518 15.5417 152.994C16.2275 152.994 16.5704 152.994 17.236 153.014C17.4175 152.227 17.5183 151.824 17.6999 151.037C17.0343 151.017 16.7116 151.017 16.046 150.997C16.046 150.473 16.046 150.21 16.046 149.686C16.8326 149.686 17.2158 149.706 17.9822 149.726C18.2041 148.738 18.3251 148.254 18.5671 147.266C19.2125 147.286 19.5352 147.306 20.1806 147.346C19.9386 148.335 19.8176 148.819 19.5957 149.787C20.2815 149.827 20.6445 149.847 21.3303 149.908C21.5521 148.94 21.6732 148.436 21.9354 147.467C22.5808 147.528 22.8833 147.548 23.5287 147.609C23.2867 148.577 23.1455 149.081 22.9237 150.049C23.4683 150.11 23.7304 150.13 24.275 150.19C24.275 150.715 24.275 150.977 24.275 151.501C23.6094 151.421 23.2867 151.4 22.6211 151.34C22.4396 152.127 22.359 152.51 22.1774 153.296C22.8229 153.357 23.1657 153.377 23.8111 153.458C23.8111 153.982 23.8111 154.244 23.8313 154.769C23.0649 154.688 22.6817 154.648 21.9152 154.587C21.6934 155.555 21.5925 156.019 21.3706 156.987C20.7252 156.947 20.4025 156.927 19.7571 156.886C19.979 155.938 20.0999 155.454 20.3218 154.486ZM18.8495 153.074C19.5554 153.115 19.8983 153.135 20.6042 153.175C20.7857 152.389 20.8665 152.006 21.048 151.219C20.3622 151.158 19.9992 151.138 19.2933 151.118C19.1319 151.905 19.031 152.288 18.8495 153.074Z" fill="#181919"/>
<path d="M29.297 155.656C28.7525 156.644 27.4213 157.249 26.0499 157.451C26.0499 156.866 26.0297 156.564 26.0297 155.979C27.3407 155.596 28.3894 154.748 28.3894 151.642C28.3894 150.049 28.4298 149.242 28.5306 147.609C29.2164 147.709 29.5593 147.77 30.245 147.871C30.1442 149.505 30.0837 150.311 30.0837 151.905C30.0837 155.011 31.2938 156.221 32.6048 156.987C32.625 157.552 32.625 157.834 32.6452 158.379C31.2535 157.834 29.9223 156.806 29.297 155.656ZM35.6906 159.65C35.0048 159.529 34.6822 159.448 33.9965 159.327C33.8351 155.273 33.6132 153.014 33.9965 148.436C34.6822 148.577 35.0048 148.637 35.6906 148.778C35.267 153.357 35.5292 155.656 35.6906 159.65Z" fill="#181919"/>
<path d="M38.8571 149.585C41.116 150.089 42.2455 150.352 44.4843 150.876C44.1616 153.438 44.0607 154.648 44.2221 157.068C41.9632 156.544 40.8538 156.261 38.615 155.777C38.4537 153.337 38.5545 152.127 38.8571 149.585ZM39.5025 160.456C39.4218 159.065 39.4017 158.419 39.3008 156.866C39.9664 157.028 40.3093 157.088 40.9749 157.249C41.0354 158.238 41.0555 158.702 41.116 159.569C43.9195 160.214 45.3313 160.537 48.1751 161.223C48.1953 161.727 48.2155 161.989 48.2357 162.493C44.7465 161.626 42.9917 161.203 39.5025 160.456ZM40.3295 151.421C40.1681 152.792 40.2085 153.438 40.2085 154.748C41.1362 154.97 41.6001 155.071 42.5278 155.293C42.5278 153.982 42.4875 153.357 42.669 151.965C41.7211 151.743 41.2573 151.642 40.3295 151.421ZM46.1784 159.024C45.9767 155.938 45.9566 154.426 46.36 151.179C47.0457 151.34 47.3684 151.421 48.0541 151.582C47.6709 154.829 47.6912 156.342 47.8727 159.428C47.2071 159.266 46.8642 159.186 46.1784 159.024Z" fill="#181919"/>
<path d="M57.0497 158.924C57.0497 160.86 56.9287 162.312 56.2228 162.998C55.7589 163.462 54.9925 163.583 54.0849 163.361C53.1975 163.139 52.431 162.655 51.9066 161.989C51.1805 161.021 50.8578 159.549 50.8578 157.613C50.8578 155.697 51.0998 154.224 51.8864 153.458C52.431 152.954 53.2175 152.772 54.105 152.974C55.0126 153.175 55.7387 153.68 56.2026 154.406C56.9085 155.475 57.0497 156.987 57.0497 158.924ZM52.5923 158.016C52.5923 159.65 52.7941 160.9 53.1975 161.485C53.3992 161.767 53.7017 161.969 54.0647 162.05C54.4278 162.13 54.7303 162.07 54.9118 161.848C55.2748 161.425 55.2748 160.194 55.2748 158.561C55.2748 156.927 55.1941 155.697 54.8512 155.071C54.6697 154.769 54.3672 154.547 54.0042 154.466C53.6411 154.386 53.3386 154.466 53.1167 154.708C52.7133 155.192 52.5923 156.382 52.5923 158.016ZM60.5389 165.519C59.8532 165.337 59.4901 165.257 58.8044 165.075C58.8044 160.638 58.8044 158.419 58.8044 153.962C59.5103 154.103 59.8532 154.184 60.5591 154.325C60.5793 158.722 60.5792 160.94 60.5389 165.519Z" fill="#181919"/>
<path d="M72.0961 165.075C71.3902 164.873 71.0272 164.773 70.3213 164.591C70.0994 165.539 69.9582 166.104 69.696 167.152C69.0506 166.971 68.7279 166.89 68.0623 166.709C68.3245 165.66 68.4455 165.095 68.6876 164.167C68.1228 164.026 67.8405 163.946 67.2959 163.804C67.2959 163.26 67.2959 162.998 67.2959 162.453C67.9816 162.635 68.3043 162.715 68.99 162.897C69.1716 162.13 69.2725 161.747 69.454 161.001C68.7884 160.819 68.4657 160.739 67.8001 160.577C67.8001 160.053 67.8001 159.791 67.8001 159.266C68.5867 159.468 68.9699 159.569 69.7565 159.771C69.9985 158.823 70.0994 158.419 70.3213 157.552C70.9868 157.734 71.3096 157.814 71.9751 157.996C71.7533 158.863 71.6524 159.266 71.4103 160.214C72.1163 160.416 72.4793 160.497 73.1852 160.698C73.4273 159.771 73.5282 159.347 73.75 158.5C74.3954 158.681 74.7383 158.762 75.3837 158.944C75.1618 159.811 75.0609 160.214 74.8189 161.142C75.3836 161.303 75.666 161.384 76.2308 161.525C76.2308 162.05 76.2308 162.312 76.2308 162.836C75.545 162.655 75.2021 162.554 74.5163 162.352C74.3348 163.098 74.234 163.482 74.0323 164.248C74.718 164.43 75.0408 164.53 75.7265 164.712C75.7265 165.257 75.7265 165.519 75.7265 166.063C74.94 165.841 74.5366 165.741 73.7298 165.519C73.4878 166.467 73.3668 167.031 73.1046 168.1C72.4592 167.919 72.1163 167.818 71.4709 167.657C71.7331 166.608 71.8743 166.023 72.0961 165.075ZM70.6237 163.341C71.3296 163.542 71.6927 163.623 72.4188 163.825C72.6003 163.058 72.7011 162.675 72.8826 161.929C72.1767 161.727 71.8138 161.626 71.0877 161.445C70.9062 162.191 70.8254 162.574 70.6237 163.341Z" fill="#181919"/>
<path d="M78.2476 159.105C80.6275 159.75 81.8174 160.073 84.2175 160.658C84.2377 162.998 84.2377 164.208 84.2377 166.709C81.8578 166.104 80.6679 165.781 78.2879 165.136C78.2678 162.635 78.2677 161.424 78.2476 159.105ZM80.6477 169.432C83.5924 170.198 85.0647 170.561 87.9892 171.166C87.9892 171.791 87.9691 172.094 87.9691 172.699C84.2983 171.973 82.4628 171.509 78.8122 170.561C78.8526 168.806 78.893 167.879 78.893 166.285C79.5989 166.487 79.9618 166.568 80.6879 166.769C80.6879 167.778 80.6678 168.322 80.6477 169.432ZM80.0023 160.92C80.0224 162.171 80.0023 162.856 80.0023 164.188C80.9905 164.45 81.4745 164.591 82.4628 164.833C82.4628 163.502 82.4628 162.816 82.4628 161.566C81.4745 161.303 80.9905 161.182 80.0023 160.92ZM87.8077 164.167C88.4732 164.309 88.796 164.389 89.4615 164.531C89.4615 165.115 89.4615 165.398 89.4615 165.983C88.796 165.842 88.4732 165.781 87.8077 165.62C87.8077 167.011 87.8077 167.697 87.8077 169.109C87.1017 168.948 86.7387 168.867 86.0126 168.706C86.0126 165.539 86.0327 163.966 85.9924 160.981C86.7185 161.142 87.0614 161.223 87.7875 161.384C87.8076 162.493 87.8278 163.018 87.8077 164.167Z" fill="#181919"/>
<path d="M91.1152 171.227C95.391 172.013 97.5087 172.316 101.764 172.457C101.764 173.042 101.764 173.324 101.764 173.909C97.5087 173.768 95.3708 173.486 91.095 172.739C91.1151 172.134 91.1152 171.832 91.1152 171.227ZM93.5354 164.067C93.5354 165.438 93.5354 166.164 93.5354 167.556C96.6414 168.06 98.1945 168.262 101.301 168.403C101.301 168.988 101.301 169.27 101.301 169.855C97.4886 169.674 95.5725 169.411 91.7404 168.706C91.7404 166.124 91.7404 164.833 91.7404 162.332C95.5322 163.018 97.4079 163.26 101.179 163.441C101.179 164.026 101.179 164.309 101.179 164.894C98.1138 164.752 96.5809 164.551 93.5354 164.067Z" fill="#181919"/>
<path d="M104.084 168.524C108.38 168.504 110.538 168.262 114.874 167.596C114.874 168.161 114.874 168.464 114.874 169.048C110.538 169.714 108.38 169.956 104.084 169.976C104.084 169.391 104.084 169.109 104.084 168.524ZM106.625 165.882C109.65 165.741 111.163 165.6 114.209 165.176C114.209 165.741 114.209 166.023 114.209 166.588C110.457 167.132 108.581 167.314 104.85 167.374C104.85 165.761 104.85 164.974 104.85 163.361C105.556 163.341 105.919 163.341 106.625 163.3C106.625 164.329 106.625 164.853 106.625 165.882ZM106.625 172.941C109.691 172.8 111.244 172.639 114.33 172.195C114.33 172.78 114.33 173.082 114.33 173.667C110.518 174.192 108.622 174.373 104.83 174.454C104.83 172.981 104.83 172.255 104.83 170.783C105.536 170.763 105.899 170.763 106.605 170.722C106.625 171.61 106.625 172.054 106.625 172.941Z" fill="#181919"/>
<path d="M125.927 168.04C125.201 168.221 124.858 168.302 124.132 168.464C123.91 169.532 123.789 170.077 123.567 171.146C122.902 171.287 122.579 171.368 121.914 171.509C122.135 170.44 122.256 169.916 122.478 168.847C121.914 168.968 121.631 169.028 121.066 169.149C121.066 168.605 121.066 168.343 121.066 167.798C121.752 167.657 122.095 167.576 122.781 167.415C122.962 166.547 123.063 166.124 123.265 165.337C122.599 165.499 122.256 165.559 121.591 165.7C121.591 165.196 121.591 164.954 121.611 164.45C122.398 164.289 122.801 164.188 123.588 164.026C123.83 163.038 123.93 162.433 124.152 161.324C124.818 161.162 125.141 161.082 125.806 160.92C125.584 162.05 125.483 162.635 125.241 163.643C125.967 163.482 126.31 163.381 127.036 163.199C127.279 162.211 127.379 161.606 127.601 160.477C128.267 160.315 128.589 160.214 129.255 160.053C129.033 161.183 128.952 161.808 128.69 162.796C129.255 162.655 129.537 162.574 130.102 162.433C130.102 162.917 130.082 163.159 130.082 163.643C129.396 163.825 129.053 163.905 128.368 164.087C128.166 164.894 128.065 165.317 127.884 166.184C128.569 166.003 128.912 165.922 129.578 165.741C129.578 166.285 129.578 166.568 129.598 167.112C128.791 167.314 128.408 167.415 127.601 167.637C127.379 168.706 127.278 169.25 127.057 170.339C126.391 170.501 126.068 170.581 125.403 170.743C125.584 169.654 125.705 169.109 125.927 168.04ZM124.414 167.032C125.141 166.87 125.504 166.769 126.23 166.588C126.411 165.721 126.512 165.297 126.714 164.49C125.988 164.672 125.625 164.752 124.899 164.934C124.697 165.741 124.596 166.164 124.414 167.032Z" fill="#181919"/>
<path d="M138.452 156.846C138.472 157.451 138.472 157.754 138.472 158.379C137.585 158.621 137.141 158.742 136.253 159.004C136.253 159.045 136.253 159.045 136.253 159.085C136.294 161.142 137.161 161.485 138.674 161.344C138.674 161.888 138.654 162.171 138.674 162.776C137.262 162.957 136.052 162.715 135.386 162.09C134.66 163.099 133.41 164.188 131.998 164.732C131.998 164.127 131.998 163.845 131.998 163.3C133.551 162.594 134.519 161.667 134.479 159.569C134.479 159.529 134.479 159.529 134.479 159.488C133.591 159.73 133.127 159.851 132.24 160.093C132.22 159.488 132.22 159.166 132.2 158.56C134.721 157.875 135.971 157.532 138.452 156.846ZM132.825 167.334C132.825 166.507 133.248 165.801 133.914 165.216C134.842 164.409 136.213 163.865 137.484 163.502C138.754 163.139 140.146 162.937 141.054 163.24C141.719 163.441 142.163 163.905 142.163 164.732C142.163 165.559 141.739 166.265 141.074 166.85C140.166 167.637 138.815 168.201 137.524 168.564C136.253 168.927 134.882 169.149 133.934 168.867C133.268 168.645 132.825 168.161 132.825 167.334ZM134.6 166.85C134.6 167.132 134.761 167.294 135.043 167.374C135.608 167.516 136.596 167.354 137.504 167.092C138.432 166.83 139.42 166.447 139.965 166.003C140.227 165.761 140.408 165.519 140.388 165.236C140.388 164.954 140.227 164.813 139.944 164.712C139.38 164.551 138.412 164.732 137.484 164.994C136.576 165.257 135.588 165.62 135.023 166.084C134.741 166.326 134.6 166.568 134.6 166.85ZM140.106 162.635C140.106 161.525 140.106 161.061 140.126 160.053C139.218 160.315 138.775 160.436 137.867 160.678C137.867 160.154 137.887 159.912 137.887 159.287C138.795 159.024 139.239 158.903 140.146 158.641C140.126 157.673 140.126 157.189 140.106 156.221C140.812 156.019 141.155 155.939 141.86 155.737C141.901 158.439 141.86 159.508 141.86 162.11C141.155 162.352 140.812 162.433 140.106 162.635Z" fill="#181919"/>
<path d="M149.908 154.628C149.908 155.172 149.908 155.454 149.908 155.999C149.243 156.181 148.9 156.261 148.275 156.423C148.275 156.443 148.275 156.443 148.275 156.463C148.275 158.238 148.779 158.621 150.09 158.621C150.09 159.206 150.09 159.508 150.07 160.093C148.9 160.214 147.992 159.952 147.448 159.468C146.883 160.235 145.935 161.061 144.826 161.525C144.826 160.92 144.826 160.618 144.826 160.053C146.076 159.448 146.6 158.762 146.58 156.927C146.58 156.907 146.58 156.907 146.58 156.886C145.955 157.068 145.632 157.149 144.987 157.33C144.987 156.745 144.987 156.463 144.967 155.878C145.612 155.717 145.915 155.636 146.56 155.454C146.56 154.95 146.56 154.708 146.56 154.204C147.246 154.043 147.589 153.962 148.275 153.801C148.275 154.285 148.275 154.527 148.275 155.011C148.9 154.87 149.243 154.789 149.908 154.628ZM153.075 161.525C150.07 162.272 148.638 162.635 145.733 163.401C145.733 162.816 145.733 162.534 145.733 161.949C149.343 161.001 151.199 160.557 154.991 159.67C154.85 161.303 154.89 162.09 154.93 163.683C154.204 163.865 153.841 163.966 153.115 164.147C153.095 163.099 153.095 162.574 153.075 161.525ZM153.276 159.609C153.357 158.52 153.337 157.976 153.297 156.846C152.913 156.947 152.732 156.987 152.349 157.088C152.389 158.177 152.389 158.722 152.328 159.791C151.643 159.952 151.3 160.033 150.594 160.214C150.675 157.592 150.574 156.241 150.574 153.68C151.259 153.518 151.602 153.438 152.288 153.256C152.288 154.204 152.288 154.668 152.288 155.616C152.671 155.515 152.853 155.475 153.236 155.374C153.236 154.406 153.236 153.922 153.236 152.974C153.942 152.812 154.285 152.711 154.991 152.55C154.991 155.091 155.273 156.564 155.031 159.226C154.325 159.367 153.982 159.448 153.276 159.609Z" fill="#181919"/>
<path d="M163.321 150.674C163.321 151.239 163.341 151.521 163.341 152.086C162.695 152.227 162.373 152.308 161.727 152.449C161.747 153.72 161.808 154.446 161.889 155.817C162.05 158.581 162.131 159.105 163.321 159.367C163.341 159.932 163.341 160.235 163.361 160.799C162.11 160.759 161.223 160.376 160.638 159.771C160.094 160.618 159.246 161.404 158.016 162.009C157.996 161.424 157.996 161.142 157.976 160.557C159.125 159.771 160.215 158.964 160.053 156.201C159.973 154.809 159.912 154.103 159.912 152.832C159.246 152.994 158.924 153.074 158.278 153.216C158.278 152.671 158.278 152.389 158.278 151.844C160.275 151.421 161.304 151.158 163.321 150.674ZM162.675 154.87C163.341 154.728 163.663 154.648 164.329 154.506C164.228 152.772 164.208 151.965 164.188 150.331C164.914 150.17 165.257 150.069 165.983 149.908C166.043 154.285 165.781 156.705 165.902 160.84C165.176 160.981 164.813 161.061 164.107 161.223C164.047 159.186 164.127 158.137 164.41 156.019C163.744 156.16 163.421 156.241 162.756 156.382C162.837 155.817 162.716 155.475 162.675 154.87ZM166.648 160.84C166.548 156.624 166.81 154.184 166.729 149.686C167.455 149.525 167.818 149.444 168.544 149.283C168.625 153.861 168.363 156.241 168.464 160.477C167.738 160.618 167.375 160.698 166.648 160.84Z" fill="#181919"/>
<path d="M171.63 152.026C171.57 150.795 171.953 149.787 172.639 149.081C173.183 148.516 173.929 148.133 174.857 147.952C175.805 147.79 176.551 147.891 177.116 148.294C177.802 148.778 178.205 149.747 178.246 150.977C178.286 152.207 177.983 153.155 177.257 153.801C176.672 154.325 175.906 154.668 174.958 154.829C174.03 154.991 173.284 154.89 172.8 154.547C172.195 154.123 171.711 153.276 171.63 152.026ZM174.171 158.137C177.257 157.633 178.81 157.411 181.876 157.048C181.876 157.613 181.876 157.895 181.896 158.46C178.084 158.883 176.168 159.186 172.316 159.831C172.276 158.318 172.215 157.592 172.397 156.019C173.143 155.878 173.526 155.817 174.272 155.696C174.171 156.685 174.151 157.169 174.171 158.137ZM173.466 151.703C173.506 152.429 173.708 152.913 174.03 153.175C174.292 153.377 174.615 153.438 175.039 153.377C175.462 153.317 175.785 153.135 176.027 152.853C176.33 152.51 176.491 151.965 176.451 151.239C176.43 150.513 176.229 150.009 175.906 149.726C175.664 149.505 175.321 149.444 174.898 149.505C174.474 149.585 174.151 149.767 173.909 150.049C173.607 150.432 173.425 150.977 173.466 151.703ZM181.735 150.231C182.421 150.15 182.763 150.11 183.449 150.049C183.469 150.634 183.469 150.937 183.49 151.521C182.804 151.602 182.461 151.642 181.775 151.723C181.815 153.135 181.755 153.821 181.674 155.192C180.928 155.293 180.565 155.333 179.799 155.434C180 152.328 179.859 150.755 179.778 147.246C180.525 147.145 180.888 147.084 181.634 147.004C181.694 148.294 181.695 149.041 181.735 150.231Z" fill="#181919"/>
<path d="M188.572 154.728C187.927 155.858 186.495 156.826 185.002 157.35C185.002 156.745 185.002 156.443 185.002 155.838C186.434 155.132 187.745 154.043 187.705 150.896C187.685 149.283 187.665 148.375 187.644 146.6C188.37 146.56 188.754 146.54 189.48 146.52C189.5 148.274 189.52 149.162 189.54 150.775C189.56 153.922 190.73 154.849 192.122 155.374C192.122 155.979 192.122 156.281 192.122 156.886C190.65 156.564 189.197 155.757 188.572 154.728ZM195.329 157.592C194.623 157.592 194.26 157.592 193.534 157.613C193.534 155.293 193.534 154.143 193.534 151.824C192.485 151.844 191.96 151.864 190.892 151.905C190.892 151.32 190.892 151.037 190.892 150.452C191.96 150.412 192.485 150.392 193.534 150.372C193.534 148.819 193.534 147.992 193.514 146.378C194.24 146.399 194.603 146.419 195.309 146.479C195.329 150.916 195.329 153.135 195.329 157.592Z" fill="#181919"/>
</svg>
