<svg width="212" height="185" viewBox="0 0 212 185" fill="none" xmlns="http://www.w3.org/2000/svg">
<path d="M14.1689 92.3633C14.1689 54.5665 37.1616 22.1347 69.9162 8.27856C80.8276 3.65985 92.8484 1.09839 105.434 1.09839C155.836 1.09839 196.699 41.9609 196.699 92.3633C196.699 142.766 155.836 183.628 105.434 183.628C55.0314 183.628 14.1689 142.766 14.1689 92.3633Z" fill="#5A66FF"/>
<path d="M135.648 148.534C143.433 142.927 147.628 133.407 148.879 123.887C150.129 114.368 148.738 104.747 147.326 95.2676C146.923 92.4843 146.559 89.4387 148.052 87.0588C150.311 83.4889 155.898 83.4485 159.246 86.0302C162.594 88.6118 164.107 92.8876 164.954 97.0223C165.478 99.5233 166.91 102.831 169.371 102.165C170.944 101.742 171.569 99.8661 171.771 98.2526C172.053 96.034 172.013 93.7751 171.67 91.5565C171.327 89.3581 170.682 87.2 170.803 84.9814C170.924 82.7628 172.033 80.403 174.11 79.6366C177.378 78.4466 180.665 81.8955 181.311 85.3041C181.613 86.8369 181.613 88.4303 182.218 89.8623C182.823 91.2943 184.336 92.5246 185.849 92.1414C187.866 91.617 188.188 88.9345 188.108 86.8369C187.906 82.0367 187.704 77.2566 187.503 72.4564C187.402 69.9555 187.825 66.7284 190.266 66.1838C192.747 65.6393 194.501 68.5235 195.207 70.9437C198.333 81.5728 197.486 93.0087 194.925 103.779C193.997 107.732 192.827 111.645 190.972 115.255C189.035 119.027 186.393 122.395 183.691 125.682C179.475 130.826 175.038 135.848 169.693 139.801C160.174 146.88 147.85 150.087 135.648 148.534Z" fill="#B180E0" stroke="#1D1D1B" stroke-miterlimit="10"/>
<path d="M191.296 61.3433L104.166 80.4635L73.6499 6.80618C73.6499 6.80618 91.3785 0.0293734 105.436 1.1185C119.494 2.18746 124.758 3.17575 124.758 3.17575C173.325 11.1425 191.215 61.1416 191.215 61.1416L104.388 80.1811L73.6499 6.80618" fill="#FF88B6"/>
<path d="M103.6 80.6652L65.2789 123.222L85.2059 138.974H129.598L146.863 130.624L145.814 126.489L103.6 80.6652Z" fill="#EBEBEB" stroke="black" stroke-miterlimit="10" stroke-linecap="round" stroke-linejoin="round"/>
<path d="M107.189 17.0722L109.004 22.6591C109.165 23.1835 109.649 23.5263 110.194 23.5263H116.063C117.273 23.5263 117.778 25.0794 116.809 25.7853L112.05 29.2342C111.606 29.5569 111.424 30.1216 111.586 30.6258L113.401 36.2127C113.784 37.3623 112.453 38.3304 111.465 37.6043L106.705 34.1554C106.261 33.8327 105.676 33.8327 105.232 34.1554L100.473 37.6043C99.4842 38.3102 98.1732 37.3623 98.5363 36.2127L100.351 30.6258C100.513 30.1014 100.331 29.5367 99.8876 29.2342L95.1277 25.7853C94.1394 25.0794 94.6437 23.5263 95.874 23.5263H101.743C102.288 23.5263 102.772 23.1835 102.933 22.6591L104.748 17.0722C105.172 15.9226 106.806 15.9226 107.189 17.0722Z" fill="#FFF58C" stroke="#181919" stroke-miterlimit="10" stroke-linecap="round" stroke-linejoin="round"/>
<path d="M46.1976 42.9894C60.4975 36.6967 75.7049 32.4208 91.1948 30.3232" stroke="#181919" stroke-miterlimit="10" stroke-linecap="round" stroke-linejoin="round"/>
<path d="M40.5907 51.1781C42.1948 51.1781 43.4951 49.8777 43.4951 48.2737C43.4951 46.6697 42.1948 45.3694 40.5907 45.3694C38.9867 45.3694 37.6864 46.6697 37.6864 48.2737C37.6864 49.8777 38.9867 51.1781 40.5907 51.1781Z" fill="#FFF58C" stroke="#181919" stroke-miterlimit="10" stroke-linecap="round" stroke-linejoin="round"/>
<path d="M165.477 43.8567C151.178 37.564 135.97 33.2881 120.48 31.1906" stroke="#181919" stroke-miterlimit="10" stroke-linecap="round" stroke-linejoin="round"/>
<path d="M171.085 52.0252C172.689 52.0252 173.989 50.7249 173.989 49.1208C173.989 47.5168 172.689 46.2165 171.085 46.2165C169.48 46.2165 168.18 47.5168 168.18 49.1208C168.18 50.7249 169.48 52.0252 171.085 52.0252Z" fill="#FFF58C" stroke="#181919" stroke-miterlimit="10" stroke-linecap="round" stroke-linejoin="round"/>
<path d="M56.7663 80.1408C50.8971 80.1005 45.4918 77.297 42.8093 72.9405C45.5725 68.6041 50.9979 65.9217 56.8873 65.962C62.7565 66.0023 68.1618 68.8058 70.8443 73.1623C68.0811 77.4583 62.6355 80.1812 56.7663 80.1408Z" fill="white" stroke="black" stroke-miterlimit="10" stroke-linecap="round" stroke-linejoin="round"/>
<path d="M61.1834 71.9925C60.3161 71.9925 59.4892 71.6294 58.8841 71.0244C58.279 70.3991 57.9361 69.5722 57.9361 68.7049C57.9361 68.4226 57.8353 68.1402 57.6134 67.9385C57.4117 67.7368 57.1294 67.6158 56.847 67.6158C55.3948 67.5956 54.0032 68.1604 52.9745 69.189C51.9459 70.1975 51.361 71.5891 51.3409 73.0413C51.3207 74.4934 51.8854 75.8851 52.914 76.9137C53.9427 77.9424 55.3142 78.5273 56.7663 78.5474C58.2185 78.5676 59.6102 78.0029 60.6388 76.9742C61.6674 75.9456 62.2523 74.5741 62.2725 73.122C62.2725 72.8396 62.1716 72.5572 61.9498 72.3555C61.7682 72.1135 61.4859 71.9925 61.1834 71.9925Z" fill="black"/>
<path d="M56.9276 61.8879L56.8469 65.9419" stroke="black" stroke-miterlimit="10" stroke-linecap="round" stroke-linejoin="round"/>
<path d="M49.7073 63.0577L51.7443 66.5873" stroke="black" stroke-miterlimit="10" stroke-linecap="round" stroke-linejoin="round"/>
<path d="M64.0474 63.1787L61.9498 66.668" stroke="black" stroke-miterlimit="10" stroke-linecap="round" stroke-linejoin="round"/>
<path d="M191.294 61.3433L104.164 80.4434L73.6479 6.80621" stroke="#181919" stroke-miterlimit="10"/>
<path d="M146.862 127.72L104.164 80.4434L60.6799 127.215" stroke="#181919" stroke-miterlimit="10"/>
<path d="M104.387 59.7903C92.8501 59.7903 83.5118 69.1286 83.5118 80.6653C83.5118 92.202 92.8501 101.54 104.387 101.54C115.923 101.54 125.262 92.202 125.262 80.6653C125.262 69.1488 115.903 59.7903 104.387 59.7903ZM104.387 95.8728C95.9965 95.8728 89.1995 89.0758 89.1995 80.6855C89.1995 72.2951 95.9965 65.4982 104.387 65.4982C112.777 65.4982 119.574 72.2951 119.574 80.6855C119.574 89.0556 112.777 95.8728 104.387 95.8728Z" fill="#FFF58C" stroke="#181919" stroke-miterlimit="10" stroke-linecap="round" stroke-linejoin="round"/>
<path d="M103.598 118.039C79.5566 118.039 60.033 123.161 59.7305 129.495H147.446C147.163 123.141 127.64 118.039 103.598 118.039Z" fill="#EBEBEB" stroke="black" stroke-miterlimit="10" stroke-linecap="round" stroke-linejoin="round"/>
<path d="M59.731 129.495C59.731 129.535 59.7108 129.595 59.7108 129.636C59.7108 136.049 79.3555 141.233 103.578 141.233C127.801 141.233 147.446 136.049 147.446 129.636C147.446 129.595 147.426 129.535 147.426 129.495H59.731Z" fill="#EBEBEB" stroke="black" stroke-miterlimit="10" stroke-linecap="round" stroke-linejoin="round"/>
<path d="M137.605 122.939L117.073 100.612C116.246 99.7048 116.307 98.2929 117.215 97.466L120.623 94.3398C121.531 93.5129 122.943 93.5734 123.77 94.481L144.302 116.808C145.129 117.716 145.068 119.128 144.16 119.954L140.752 123.081C139.864 123.908 138.432 123.847 137.605 122.939Z" fill="#56B381" stroke="#1D1E1B" stroke-miterlimit="10"/>
<path d="M115.337 102.307L113.663 100.491C112.997 99.7652 113.038 98.6358 113.764 97.9702L121.085 91.2539C121.811 90.5883 122.941 90.6287 123.606 91.3548L125.28 93.17C125.946 93.8961 125.906 95.0255 125.18 95.6911L117.858 102.407C117.132 103.073 116.003 103.033 115.337 102.307Z" fill="#EBEBEB" stroke="black" stroke-miterlimit="10" stroke-linecap="round" stroke-linejoin="round"/>
<path d="M14.8159 101.419C14.2512 97.2846 13.6865 92.9886 14.8966 88.9951C16.1068 85.0016 19.6767 81.3914 23.8517 81.5326C26.9779 81.6334 29.7814 83.8117 31.3344 86.5345C32.8874 89.2573 33.3916 92.444 33.6135 95.5702C33.7547 97.5468 33.8152 99.604 34.6825 101.399C35.5497 103.174 37.5464 104.606 39.4625 104.142C42.2458 103.456 42.8106 99.8057 44.3838 97.4258C46.683 93.9567 52.1892 93.2306 55.2952 95.9938C57.7155 98.1317 58.4416 101.56 59.3895 104.646C60.3375 107.732 62.0115 111.08 65.1377 111.947C70.7043 113.46 76.0491 105.998 81.4544 107.994C83.9554 108.922 85.3471 111.625 85.8513 114.247C86.3555 116.869 86.2143 119.592 86.7992 122.173C87.0614 123.303 87.485 124.452 88.3926 125.178C90.5708 126.913 93.8181 125.118 95.4921 122.899C97.1661 120.681 98.4569 117.877 101.039 116.849C104.851 115.316 108.965 118.724 110.579 122.496C112.192 126.267 112.454 130.563 114.471 134.133C118.686 141.596 129.215 143.149 137.343 140.426C148.416 136.715 156.987 126.429 158.661 114.852C159.105 111.685 159.085 108.458 159.771 105.352C160.457 102.226 161.989 99.0998 164.732 97.4863C167.475 95.8526 171.57 96.3165 173.203 99.0796C174.414 101.137 174.01 103.698 174.353 106.058C174.696 108.418 176.632 111.04 178.911 110.374C179.778 110.112 180.464 109.426 181.009 108.7C182.905 106.199 183.812 102.952 183.49 99.8259C183.308 98.1115 182.784 96.3165 183.409 94.7029C184.034 93.0894 186.555 92.202 187.443 93.6945C187.806 94.2996 187.745 95.066 188.048 95.6912C188.935 97.5468 192.082 96.6593 192.868 94.7635C193.675 92.8676 193.07 90.6893 192.868 88.6522C192.666 86.595 193.191 84.094 195.127 83.3679C195.833 82.9646 196.438 84.0739 196.499 84.9008C198.011 101.097 195.591 117.837 188.209 132.318C186.354 135.949 184.195 139.458 181.372 142.383C177.762 146.114 173.224 148.776 168.564 151.075C148.395 160.999 125.443 164.528 102.995 163.197C80.5468 161.866 58.6029 155.835 37.728 147.505C34.1782 146.094 30.568 144.541 27.9057 141.818C24.2349 138.066 24.5172 132.016 21.7743 127.538C16.5505 118.845 15.5622 106.946 14.8159 101.419Z" fill="#56B381" stroke="black" stroke-miterlimit="10"/>
<path d="M14.1689 92.3633C14.1689 54.5665 37.1616 22.1347 69.9162 8.27856C80.8276 3.65985 92.8484 1.09839 105.434 1.09839C155.836 1.09839 196.699 41.9609 196.699 92.3633C196.699 142.766 155.836 183.628 105.434 183.628C55.0314 183.628 14.1689 142.766 14.1689 92.3633Z" stroke="#181919" stroke-miterlimit="10"/>
<path d="M211 137.844V171.002C174.817 160.595 142.587 184.294 106 184.294C68.1226 183.991 37.2034 160.595 1 171.002V137.844C37.2438 127.498 68.7276 152.79 106 152.79C140.973 153.072 174.756 127.498 211 137.844Z" fill="white" stroke="#181919" stroke-miterlimit="10"/>
<path d="M17.0748 154.302C16.3891 154.262 16.0462 154.242 15.3605 154.222C15.1386 155.27 15.0378 155.815 14.8159 156.864C14.1907 156.844 13.868 156.844 13.2226 156.844C13.4444 155.775 13.5654 155.25 13.7873 154.181C13.2427 154.181 12.9603 154.161 12.4158 154.161C12.4158 153.596 12.4158 153.314 12.4158 152.729C13.0813 152.729 13.4041 152.729 14.0696 152.749C14.2512 151.882 14.3318 151.459 14.5134 150.611C13.868 150.591 13.5452 150.591 12.8998 150.591C12.8998 150.027 12.8998 149.744 12.8998 149.179C13.6663 149.179 14.0495 149.2 14.7957 149.22C15.0176 148.151 15.1386 147.626 15.3605 146.557C16.0059 146.578 16.3084 146.598 16.9538 146.638C16.7118 147.707 16.6109 148.231 16.3689 149.3C17.0547 149.341 17.3975 149.361 18.0631 149.401C18.285 148.352 18.406 147.808 18.648 146.759C19.2732 146.799 19.5959 146.84 20.201 146.9C19.959 147.969 19.8178 148.494 19.5959 149.542C20.1203 149.583 20.3826 149.623 20.9069 149.684C20.9069 150.248 20.9069 150.531 20.9069 151.095C20.2615 151.035 19.9388 150.995 19.2934 150.934C19.1119 151.781 19.0312 152.205 18.8497 153.052C19.4951 153.112 19.8178 153.133 20.443 153.193C20.443 153.758 20.4431 154.04 20.4632 154.625C19.717 154.544 19.3338 154.524 18.5673 154.464C18.3656 155.512 18.2446 156.017 18.0429 157.065C17.4177 157.025 17.095 157.005 16.4697 156.985C16.7521 155.896 16.8731 155.371 17.0748 154.302ZM15.663 152.81C16.3487 152.83 16.6916 152.85 17.3774 152.911C17.5589 152.064 17.6396 151.64 17.8211 150.793C17.1353 150.753 16.7925 150.732 16.1067 150.692C15.9252 151.539 15.8243 151.963 15.663 152.81Z" fill="#181919"/>
<path d="M25.8684 155.412C25.3238 156.501 24.033 157.186 22.6817 157.449C22.6817 156.803 22.6615 156.501 22.6615 155.855C23.9523 155.412 24.9809 154.464 24.9809 151.095C24.9809 149.381 25.0414 148.494 25.1221 146.739C25.7877 146.84 26.1306 146.88 26.7962 146.981C26.6953 148.736 26.6348 149.623 26.6348 151.337C26.6348 154.706 27.8248 155.976 29.0954 156.783C29.1156 157.388 29.1156 157.691 29.1358 158.316C27.8046 157.731 26.4734 156.662 25.8684 155.412ZM32.1409 159.587C31.4754 159.466 31.1527 159.405 30.4871 159.304C30.3459 154.887 30.124 152.427 30.5274 147.485C31.193 147.606 31.5157 147.667 32.1813 147.808C31.7376 152.749 31.9796 155.23 32.1409 159.587Z" fill="#181919"/>
<path d="M35.2472 148.574C37.4456 149.038 38.5549 149.3 40.7533 149.805C40.4104 152.568 40.2693 153.899 40.4306 156.521C38.2322 156.017 37.1431 155.755 34.9648 155.27C34.8236 152.648 34.9648 151.317 35.2472 148.574ZM35.8724 160.353C35.7917 158.84 35.7716 158.114 35.6707 156.44C36.3363 156.581 36.659 156.662 37.3044 156.803C37.3649 157.872 37.4053 158.376 37.4456 159.324C40.1886 159.93 41.5601 160.252 44.3232 160.918C44.3636 161.462 44.3636 161.725 44.4039 162.269C40.9953 161.442 39.281 161.039 35.8724 160.353ZM36.6792 150.511C36.5178 152.003 36.5178 152.689 36.5178 154.121C37.4254 154.323 37.8692 154.423 38.7768 154.645C38.7768 153.233 38.7566 152.527 38.9381 151.035C38.0507 150.813 37.5868 150.712 36.6792 150.511ZM42.3668 158.578C42.145 155.25 42.1651 153.596 42.6089 150.087C43.2744 150.248 43.5972 150.329 44.2627 150.47C43.819 153.98 43.819 155.633 44.0207 158.961C43.3551 158.8 43.0324 158.719 42.3668 158.578Z" fill="#181919"/>
<path d="M55.0128 161.523C54.3271 161.382 53.9842 161.301 53.2985 161.16C53.117 162.168 53.0161 162.612 52.8346 163.56C52.2094 163.419 51.9068 163.338 51.2816 163.177C51.4631 162.269 51.5438 161.825 51.7253 160.817C51.1807 160.696 50.9185 160.635 50.3941 160.514C50.374 159.95 50.3538 159.667 50.3135 159.103C50.9589 159.244 51.2816 159.324 51.9472 159.466C52.0883 158.639 52.169 158.235 52.3505 157.408C51.7051 157.267 51.3824 157.207 50.737 157.065C50.737 156.501 50.737 156.218 50.737 155.674C51.4833 155.835 51.8665 155.916 52.6329 156.077C52.8548 155.049 53.0565 154.504 53.359 153.455C53.9842 153.596 54.3069 153.657 54.9322 153.798C54.6498 154.847 54.4885 155.371 54.2464 156.4C54.9523 156.541 55.2952 156.602 56.0011 156.743C56.223 155.714 56.3843 155.19 56.6264 154.161C57.2516 154.282 57.5743 154.343 58.1995 154.484C57.9777 155.512 57.8567 156.037 57.6348 157.065C58.1995 157.166 58.4618 157.207 59.0063 157.307C59.0063 157.872 59.0063 158.155 59.0063 158.719C58.3407 158.598 58.018 158.538 57.3323 158.417C57.1508 159.244 57.0499 159.667 56.8684 160.494C57.534 160.615 57.8768 160.676 58.5223 160.797C58.5223 161.361 58.5223 161.664 58.5223 162.229C57.7558 162.088 57.3726 162.007 56.586 161.866C56.3844 162.894 56.2633 163.378 56.0616 164.367C55.4364 164.225 55.1338 164.145 54.5086 164.004C54.7103 163.015 54.8111 162.531 55.0128 161.523ZM53.5203 159.808C54.2061 159.95 54.5691 160.03 55.2549 160.171C55.4162 159.345 55.5171 158.941 55.6986 158.114C54.9927 157.973 54.6296 157.913 53.9439 157.771C53.7624 158.578 53.6817 158.982 53.5203 159.808Z" fill="#181919"/>
<path d="M60.9423 157.61C60.9423 156.359 61.265 155.533 61.8701 155.109C62.3743 154.766 63.0601 154.685 63.9475 154.907C64.8148 155.129 65.5207 155.553 66.0451 156.138C66.2064 156.319 66.3275 156.501 66.4485 156.702C67.3561 156.944 67.82 157.065 68.7276 157.307C68.7276 156.884 68.7276 156.662 68.7074 156.218C69.3932 156.4 69.7562 156.501 70.442 156.682C70.4823 159.849 70.4823 161.563 70.4621 164.992C69.7764 164.81 69.4133 164.709 68.7276 164.528C68.7276 163.358 68.7276 162.773 68.7276 161.624C67.8401 161.382 67.3964 161.281 66.5292 161.059C66.388 161.281 66.2468 161.442 66.0451 161.583C65.5207 161.946 64.8148 162.027 63.9475 161.825C63.0601 161.624 62.3743 161.2 61.8701 160.595C61.2852 159.889 60.9423 158.86 60.9423 157.61ZM61.7088 166.626C61.7289 164.81 61.7491 163.903 61.7491 162.168C62.4348 162.329 62.7777 162.41 63.4635 162.572C63.4635 163.661 63.4635 164.225 63.4433 165.395C66.3073 166.121 67.7393 166.525 70.6436 167.331C70.6235 168.037 70.6235 168.38 70.6033 169.086C67.0132 168.078 65.2383 167.573 61.7088 166.626ZM62.6365 157.973C62.6365 158.739 62.7777 159.304 63.0802 159.687C63.3021 159.97 63.6047 160.171 63.9879 160.272C64.3711 160.373 64.6736 160.313 64.8955 160.111C65.1778 159.869 65.3392 159.365 65.3392 158.598C65.3392 157.832 65.1778 157.307 64.8955 156.924C64.6736 156.642 64.3711 156.44 63.9879 156.359C63.6047 156.259 63.3021 156.319 63.0802 156.501C62.7777 156.743 62.6365 157.207 62.6365 157.973ZM66.9729 158.276C67.0132 158.497 67.0334 158.76 67.0334 159.042C67.0334 159.244 67.0132 159.445 67.0132 159.627C67.7191 159.808 68.062 159.889 68.7679 160.091C68.7679 159.546 68.7679 159.264 68.7679 158.76C68.0418 158.538 67.6788 158.457 66.9729 158.276Z" fill="#181919"/>
<path d="M73.4069 164.306C77.5617 165.456 79.6391 166.061 83.7939 167.13C83.7939 167.775 83.7939 168.078 83.7939 168.723C82.0594 168.279 81.172 168.058 79.4374 167.574C79.4374 169.066 79.3971 169.974 79.3568 171.628C78.6509 171.446 78.308 171.365 77.6021 171.164C77.6424 169.51 77.6827 168.582 77.6827 167.09C75.9684 166.626 75.1011 166.384 73.3867 165.9C73.3867 165.274 73.3867 164.952 73.4069 164.306ZM81.4543 161.281C78.429 160.494 76.9163 160.051 73.9111 159.224C73.9111 158.639 73.8909 158.356 73.8909 157.771C77.602 158.8 79.4576 159.324 83.1889 160.252C83.2091 161.281 83.209 161.805 83.209 162.834C83.2292 163.963 83.1284 165.153 82.9469 166.021C82.2611 165.839 81.8981 165.758 81.2123 165.557C81.3938 164.689 81.4745 163.56 81.4745 162.572C81.4745 162.027 81.4543 161.805 81.4543 161.281Z" fill="#181919"/>
<path d="M92.7693 162.41C92.7693 163.015 92.7693 163.318 92.7693 163.943C91.8214 163.782 91.3575 163.681 90.4095 163.499C90.4095 164.548 90.4095 165.073 90.4095 166.162C90.4095 169.55 91.5188 170.901 92.85 171.789C92.85 172.475 92.85 172.817 92.8298 173.503C91.418 172.838 90.1675 171.486 89.5221 170.195C88.8767 171.204 87.5859 172.051 86.1539 172.192C86.174 171.486 86.174 171.123 86.1942 170.397C87.5254 170.034 88.6548 169.167 88.6548 165.778C88.6548 164.689 88.6548 164.165 88.6548 163.116C87.727 162.914 87.2632 162.814 86.3354 162.592C86.3354 161.987 86.3354 161.704 86.3152 161.099C88.917 161.684 90.2078 161.967 92.7693 162.41ZM95.9157 174.774C95.2098 174.693 94.8669 174.633 94.161 174.532C94.2013 169.55 94.2013 167.15 94.1811 162.451C94.8871 162.572 95.2299 162.612 95.9358 162.713C95.9358 167.432 95.9358 169.832 95.9157 174.774Z" fill="#181919"/>
<path d="M102.854 169.812C102.854 170.538 102.854 170.901 102.854 171.627C102.148 171.607 101.805 171.587 101.119 171.527C101.119 170.801 101.119 170.438 101.119 169.711C100.191 169.651 99.7274 169.611 98.7996 169.51C98.7996 168.925 98.7996 168.622 98.7996 168.037C101.18 168.3 102.37 168.38 104.729 168.4C105.375 168.4 105.879 168.38 106.424 168.239C106.424 168.804 106.424 169.086 106.424 169.631C105.899 169.812 105.314 169.873 104.649 169.873C103.923 169.853 103.56 169.832 102.854 169.812ZM99.1828 165.315C99.1828 164.649 99.445 164.125 99.8888 163.802C100.494 163.358 101.442 163.197 102.45 163.237C103.459 163.278 104.407 163.52 105.012 164.024C105.435 164.387 105.718 164.931 105.718 165.597C105.718 166.283 105.435 166.807 105.012 167.19C104.407 167.715 103.459 167.916 102.45 167.876C101.442 167.836 100.494 167.513 99.8888 166.948C99.4652 166.565 99.1828 166.02 99.1828 165.315ZM99.8484 175.318C99.8484 173.886 99.8484 173.16 99.8484 171.749C100.554 171.809 100.897 171.829 101.603 171.89C101.603 172.676 101.603 173.08 101.603 173.866C104.507 174.028 105.96 174.028 108.864 173.866C108.864 174.491 108.864 174.794 108.864 175.419C105.254 175.621 103.459 175.601 99.8484 175.318ZM100.837 165.476C100.837 165.718 100.938 165.92 101.119 166.081C101.381 166.323 101.865 166.464 102.45 166.505C103.035 166.525 103.499 166.424 103.781 166.222C103.963 166.081 104.044 165.879 104.044 165.637C104.044 165.395 103.963 165.194 103.781 165.052C103.499 164.831 103.035 164.71 102.45 164.669C101.865 164.649 101.381 164.71 101.119 164.911C100.938 165.032 100.837 165.214 100.837 165.476ZM106.908 172.454C106.908 172.152 106.908 171.991 106.908 171.688C105.939 171.708 105.455 171.728 104.487 171.708C104.487 171.143 104.487 170.861 104.487 170.317C105.455 170.337 105.939 170.317 106.908 170.296C106.908 167.533 106.908 166.142 106.908 163.378C107.613 163.358 107.956 163.338 108.642 163.298C108.642 166.948 108.642 168.763 108.642 172.394C107.956 172.414 107.613 172.434 106.908 172.454Z" fill="#181919"/>
<path d="M120.078 170.397C119.372 170.518 119.029 170.579 118.323 170.7C118.102 171.829 117.981 172.374 117.779 173.503C117.133 173.604 116.811 173.644 116.165 173.745C116.387 172.636 116.508 172.071 116.73 170.962C116.185 171.043 115.903 171.083 115.338 171.164C115.338 170.579 115.338 170.296 115.338 169.732C116.004 169.631 116.347 169.59 117.012 169.49C117.194 168.582 117.295 168.138 117.476 167.271C116.811 167.372 116.488 167.432 115.843 167.513C115.843 166.948 115.843 166.686 115.843 166.121C116.609 166.021 117.012 165.96 117.779 165.839C118.021 164.75 118.122 164.145 118.344 163.015C118.989 162.894 119.312 162.854 119.977 162.733C119.755 163.883 119.655 164.508 119.413 165.597C120.118 165.476 120.461 165.415 121.167 165.274C121.409 164.185 121.51 163.56 121.732 162.39C122.377 162.269 122.7 162.188 123.345 162.047C123.124 163.217 123.023 163.862 122.781 164.952C123.325 164.831 123.608 164.79 124.172 164.669C124.172 165.214 124.172 165.476 124.152 166.021C123.467 166.162 123.144 166.242 122.458 166.384C122.256 167.251 122.176 167.695 121.994 168.622C122.66 168.481 123.003 168.421 123.668 168.279C123.668 168.864 123.668 169.147 123.668 169.732C122.882 169.893 122.498 169.974 121.712 170.135C121.49 171.264 121.389 171.829 121.167 172.959C120.522 173.08 120.199 173.14 119.554 173.241C119.755 172.091 119.856 171.527 120.078 170.397ZM118.626 169.207C119.332 169.086 119.695 169.026 120.401 168.885C120.582 167.977 120.683 167.533 120.865 166.666C120.159 166.807 119.796 166.868 119.09 166.989C118.888 167.856 118.807 168.3 118.626 169.207Z" fill="#181919"/>
<path d="M132.623 159.103C132.643 159.768 132.643 160.111 132.664 160.797C131.716 161.039 131.252 161.16 130.304 161.402C130.324 162.572 130.324 163.096 130.304 164.104C130.243 167.271 131.433 168.3 132.764 168.602C132.764 169.288 132.785 169.631 132.785 170.317C131.373 170.256 130.082 169.51 129.436 168.521C128.811 169.853 127.541 171.204 126.129 171.95C126.129 171.264 126.129 170.922 126.109 170.256C127.44 169.308 128.509 167.735 128.549 164.548C128.569 163.54 128.569 162.995 128.549 161.846C127.621 162.067 127.157 162.188 126.23 162.39C126.23 161.724 126.209 161.402 126.209 160.736C128.771 160.111 130.062 159.788 132.623 159.103ZM135.83 170.317C135.124 170.498 134.781 170.599 134.096 170.78C134.035 165.778 134.136 163.701 134.015 158.477C134.721 158.296 135.064 158.195 135.749 157.993C135.87 163.257 135.79 165.315 135.83 170.317Z" fill="#181919"/>
<path d="M138.916 160.716C138.936 159.687 139.219 158.477 139.783 157.691C140.288 156.985 140.993 156.521 141.901 156.259C142.809 156.017 143.515 156.097 144.039 156.501C144.18 156.602 144.301 156.723 144.402 156.884C145.31 156.642 145.774 156.501 146.661 156.259C146.661 155.775 146.661 155.533 146.641 155.049C147.327 154.867 147.669 154.786 148.355 154.605C148.375 157.509 148.355 158.78 148.355 161.624C147.669 161.805 147.327 161.886 146.641 162.067C146.641 161.402 146.641 161.059 146.641 160.434C145.774 160.676 145.33 160.797 144.442 161.039C144.321 161.281 144.18 161.483 143.999 161.684C143.474 162.309 142.789 162.814 141.881 163.056C140.973 163.298 140.247 163.177 139.743 162.854C139.219 162.511 138.896 161.765 138.916 160.716ZM146.681 164.246C143.857 165.012 142.446 165.436 139.582 166.222C139.582 165.577 139.582 165.254 139.561 164.629C143.111 163.641 144.886 163.136 148.375 162.209C148.375 164.104 148.395 165.073 148.395 166.968C147.71 167.17 147.367 167.251 146.701 167.453C146.701 166.182 146.701 165.536 146.681 164.246ZM140.61 160.232C140.59 160.837 140.711 161.281 140.993 161.482C141.195 161.644 141.518 161.684 141.941 161.583C142.365 161.462 142.667 161.24 142.889 160.958C143.172 160.595 143.313 160.091 143.313 159.466C143.313 158.861 143.172 158.316 142.889 158.054C142.667 157.852 142.345 157.792 141.941 157.913C141.518 158.034 141.215 158.276 140.993 158.578C140.731 159.002 140.63 159.627 140.61 160.232ZM144.947 158.356C144.967 158.578 144.987 158.78 144.987 159.002C144.987 159.183 144.967 159.345 144.947 159.506C145.653 159.304 145.995 159.203 146.681 159.022C146.681 158.578 146.701 158.376 146.681 157.872C145.995 158.054 145.653 158.155 144.947 158.356Z" fill="#181919"/>
<path d="M157.754 158.054C157.834 160.232 157.37 161.785 156.665 162.914C156.181 163.681 155.394 164.225 154.486 164.467C153.579 164.709 152.792 164.568 152.328 164.044C151.642 163.277 151.481 161.664 151.481 159.566C151.481 157.489 151.622 155.835 152.328 154.706C152.812 153.939 153.619 153.395 154.527 153.173C155.454 152.951 156.261 153.112 156.745 153.617C157.471 154.343 157.673 155.896 157.754 158.054ZM153.196 159.143C153.216 160.938 153.236 162.229 153.619 162.713C153.801 162.955 154.123 163.035 154.466 162.935C154.829 162.854 155.132 162.612 155.333 162.269C155.717 161.603 155.999 160.292 155.938 158.477C155.898 156.662 155.777 155.351 155.394 154.887C155.192 154.665 154.87 154.585 154.506 154.685C154.143 154.786 153.841 155.008 153.639 155.351C153.256 156.017 153.175 157.368 153.196 159.143ZM161.082 163.398C160.356 163.58 160.013 163.661 159.287 163.842C159.206 159.223 159.387 156.541 159.367 151.963C160.093 151.781 160.436 151.7 161.162 151.519C161.203 156.097 160.981 158.8 161.082 163.398Z" fill="#181919"/>
<path d="M164.268 158.276C168.605 157.287 170.783 156.823 175.16 155.997C175.079 156.622 175.059 156.924 174.978 157.55C174.07 157.711 173.627 157.812 172.719 157.993C172.558 159.224 172.739 159.788 172.78 160.978C172.054 161.119 171.691 161.2 170.964 161.341C170.944 160.151 170.743 159.607 170.904 158.376C169.795 158.598 169.25 158.719 168.141 158.961C167.979 160.192 168.161 160.756 168.201 161.926C167.495 162.088 167.132 162.168 166.426 162.309C166.406 161.119 166.205 160.575 166.366 159.345C165.458 159.546 164.994 159.647 164.087 159.849C164.147 159.203 164.188 158.901 164.268 158.276ZM169.694 153.092C168.887 154.585 167.092 156.037 164.611 156.884C164.692 156.259 164.551 155.896 164.51 155.23C167.193 154.101 168.726 152.406 168.685 150.147C168.685 149.986 168.685 149.905 168.685 149.744C169.411 149.563 169.774 149.482 170.501 149.321C170.501 149.482 170.501 149.563 170.501 149.724C170.541 152.003 172.215 153.032 174.978 153.032C175.018 153.697 175.139 154.06 175.059 154.665C172.699 154.847 170.682 154.201 169.694 153.092Z" fill="#181919"/>
<path d="M182.017 148.675C181.997 148.03 181.997 147.707 181.977 147.062C182.683 146.941 183.046 146.88 183.752 146.779C183.812 149.32 183.853 150.531 183.933 152.87C181.513 153.213 180.303 153.415 177.883 153.859C177.762 151.479 177.721 150.268 177.661 147.848C178.367 147.707 178.73 147.646 179.456 147.505C179.476 148.131 179.476 148.453 179.496 149.078C180.505 148.917 181.009 148.836 182.017 148.675ZM180.121 158.255C183.106 157.771 184.619 157.57 187.584 157.227C187.584 157.791 187.584 158.074 187.604 158.659C183.913 159.062 182.037 159.345 178.306 159.97C178.286 158.618 178.165 157.973 178.306 156.581C181.231 156.077 182.703 155.855 185.628 155.472C185.648 155.21 185.648 155.089 185.668 154.827C182.764 155.21 181.291 155.432 178.387 155.956C178.447 155.391 178.468 155.109 178.528 154.524C182.158 153.879 183.974 153.596 187.564 153.173C187.483 154.585 187.423 155.291 187.443 156.662C184.538 157.005 183.066 157.207 180.121 157.691C180.101 157.892 180.101 158.013 180.121 158.255ZM182.058 150.289C181.049 150.43 180.545 150.51 179.536 150.672C179.557 151.216 179.577 151.499 179.597 152.043C180.605 151.882 181.11 151.801 182.118 151.64C182.098 151.095 182.078 150.833 182.058 150.289ZM187.483 148.715C188.149 148.635 188.492 148.594 189.157 148.534C189.177 149.24 189.177 149.583 189.197 150.208C188.532 150.268 188.189 150.309 187.523 150.389C187.544 151.257 187.564 151.68 187.584 152.548C186.858 152.628 186.515 152.689 185.789 152.769C185.708 150.309 185.688 149.018 185.628 146.335C186.354 146.235 186.717 146.194 187.443 146.093C187.443 147.162 187.443 147.687 187.483 148.715Z" fill="#181919"/>
<path d="M195.289 152.467C195.289 152.104 195.289 151.943 195.289 151.58C193.514 151.68 192.606 151.761 190.811 151.943C190.811 151.337 190.791 151.035 190.791 150.43C195.127 150.026 197.265 149.905 201.46 149.905C201.46 150.511 201.46 150.793 201.46 151.398C199.706 151.398 198.818 151.418 197.043 151.499C197.043 151.862 197.043 152.043 197.043 152.386C198.536 152.326 199.262 152.306 200.734 152.285C200.734 153.677 200.734 154.363 200.734 155.755C197.81 155.775 196.317 155.835 193.312 156.077C193.312 156.319 193.312 156.46 193.312 156.702C196.438 156.481 197.971 156.4 200.996 156.4C200.996 156.985 200.996 157.267 200.996 157.852C197.265 157.872 195.369 157.973 191.517 158.296C191.517 156.904 191.477 156.218 191.517 154.827C194.542 154.544 196.035 154.464 198.979 154.383C198.979 154.141 198.979 154.02 198.979 153.778C196.035 153.859 194.542 153.939 191.537 154.222C191.557 153.657 191.557 153.354 191.577 152.79C193.07 152.628 193.816 152.568 195.289 152.467ZM198.959 147.284C195.974 147.284 194.462 147.344 191.416 147.586C191.396 146.92 191.396 146.578 191.376 145.892C195.147 145.609 197.023 145.569 200.694 145.771C200.694 146.537 200.694 146.92 200.694 147.667C200.694 148.312 200.653 148.958 200.492 149.482C199.806 149.482 199.464 149.502 198.778 149.502C198.899 148.978 198.939 148.332 198.939 147.707C198.959 147.566 198.959 147.465 198.959 147.284Z" fill="#181919"/>
</svg>
