<svg width="212" height="185" viewBox="0 0 212 185" fill="none" xmlns="http://www.w3.org/2000/svg">
<path d="M103.762 183.53C154.166 183.53 195.027 142.669 195.027 92.2649C195.027 41.8607 154.166 1 103.762 1C53.3575 1 12.4968 41.8607 12.4968 92.2649C12.4968 142.669 53.3575 183.53 103.762 183.53Z" fill="#B180E0"/>
<path d="M118.284 61.7895L91.1361 62.9996C91.1361 62.9996 20.1008 124.979 20.1411 127.399C20.2016 130.364 21.916 132.986 23.6102 135.406C26.4944 139.501 29.4996 143.595 33.372 146.762C39.1202 151.461 46.381 153.861 53.4805 155.959C67.377 160.093 81.5559 163.502 96.0171 164.51C110.458 165.499 125.262 163.986 138.675 158.52C145.088 155.918 151.179 152.429 157.916 150.755C162.877 149.525 168.061 149.323 172.922 147.77C177.802 146.217 182.542 142.849 183.732 137.887C184.216 135.85 184.095 133.652 185.124 131.837C185.85 130.505 187.141 129.537 187.826 128.206C188.21 127.48 188.674 125.746 188.674 125.746L118.284 61.7895Z" fill="#5A66FF"/>
<path d="M20.1411 127.016L91.5597 62.5559L119.171 63.7055L188.27 125.403" stroke="black" stroke-miterlimit="10"/>
<path d="M131.857 91.6799C106.222 83.2291 85.5088 90.1068 65.3599 101.986C24.0537 126.351 69.7769 163.502 109.752 156.019C112.979 155.414 119.11 152.328 122.136 151.945C131.817 150.735 134.923 146.862 138.13 134.358C138.634 132.401 141.014 121.893 142.749 118.485C148.9 106.323 140.308 94.4633 131.857 91.6799Z" fill="#FFF58C"/>
<mask id="mask0_525_54311" style="mask-type:luminance" maskUnits="userSpaceOnUse" x="49" y="87" width="96" height="70">
<path d="M131.857 91.6799C106.222 83.2291 85.5088 90.1068 65.3599 101.986C24.0537 126.351 69.7769 163.502 109.752 156.019C112.979 155.414 119.11 152.328 122.136 151.945C131.817 150.735 134.923 146.862 138.13 134.358C138.634 132.401 141.014 121.893 142.749 118.485C148.9 106.323 140.308 94.4633 131.857 91.6799Z" fill="white"/>
</mask>
<g mask="url(#mask0_525_54311)">
<path d="M18.5879 84.2174L74.5973 160.739" stroke="black" stroke-miterlimit="10"/>
<path d="M23.3274 83.6729L79.3368 160.194" stroke="black" stroke-miterlimit="10"/>
<path d="M28.0469 83.1283L84.0563 159.65" stroke="black" stroke-miterlimit="10"/>
<path d="M32.7869 82.5837L88.7963 159.105" stroke="black" stroke-miterlimit="10"/>
<path d="M37.5063 82.0392L93.5157 158.561" stroke="black" stroke-miterlimit="10"/>
<path d="M42.2461 81.4945L98.2555 157.996" stroke="black" stroke-miterlimit="10"/>
<path d="M46.9656 80.9501L102.975 157.451" stroke="black" stroke-miterlimit="10"/>
<path d="M51.7054 80.3853L107.715 156.907" stroke="black" stroke-miterlimit="10"/>
<path d="M56.4249 79.8408L112.455 156.362" stroke="black" stroke-miterlimit="10"/>
<path d="M61.1647 79.2963L117.174 155.818" stroke="black" stroke-miterlimit="10"/>
<path d="M65.9043 78.7516L121.914 155.273" stroke="black" stroke-miterlimit="10"/>
<path d="M70.624 78.207L126.633 154.728" stroke="black" stroke-miterlimit="10"/>
<path d="M75.3638 77.6625L131.373 154.164" stroke="black" stroke-miterlimit="10"/>
<path d="M80.0833 77.1179L136.093 153.619" stroke="black" stroke-miterlimit="10"/>
<path d="M84.8229 76.5532L140.832 153.075" stroke="black" stroke-miterlimit="10"/>
<path d="M89.5426 76.0087L145.552 152.53" stroke="black" stroke-miterlimit="10"/>
<path d="M94.2822 75.464L150.292 151.985" stroke="black" stroke-miterlimit="10"/>
<path d="M99.0017 74.9194L155.011 151.441" stroke="black" stroke-miterlimit="10"/>
<path d="M103.741 74.375L159.751 150.896" stroke="black" stroke-miterlimit="10"/>
<path d="M108.461 73.8303L164.471 150.331" stroke="black" stroke-miterlimit="10"/>
<path d="M113.201 73.2859L169.21 149.787" stroke="black" stroke-miterlimit="10"/>
<path d="M117.92 72.7211L173.93 149.242" stroke="black" stroke-miterlimit="10"/>
</g>
<path d="M131.857 91.6799C106.222 83.2291 85.5088 90.1068 65.3599 101.986C24.0537 126.351 69.7769 163.502 109.752 156.019C112.979 155.414 119.11 152.328 122.136 151.945C131.817 150.735 134.923 146.862 138.13 134.358C138.634 132.401 141.014 121.893 142.749 118.485C148.9 106.323 140.308 94.4633 131.857 91.6799Z" stroke="black" stroke-miterlimit="10"/>
<path d="M84.44 109.509C82.1811 104.245 77.8851 99.8887 72.6412 97.5895C67.3367 95.2499 60.7818 94.6851 57.2118 90.1269C53.3596 85.2057 54.8117 77.8642 51.8671 72.358C50.4552 69.7159 48.0148 67.6183 45.1709 66.63C41.8834 65.4804 38.253 65.7628 34.9049 64.7946C28.3903 62.8988 23.9329 52.7335 25.4456 45.9366C29.3584 39.3211 34.1183 33.2099 40.2699 27.9458C38.4546 30.3459 37.8294 33.4318 37.305 36.3966C36.6193 40.4103 36.0142 44.5046 36.6596 48.5384C37.2848 52.552 39.3017 56.5455 42.791 58.6632C44.4852 59.6919 46.4416 60.2364 48.2366 61.0634C54.247 63.8063 58.5027 70.0386 58.8657 76.6339C58.9464 77.9448 58.8657 79.276 59.0472 80.587C59.7935 86.194 64.8357 90.3286 70.0999 92.3859C75.0211 94.3019 80.7895 95.2095 83.9963 99.7274C83.6333 103.055 83.5123 106.424 84.44 109.509Z" fill="#FFFCFC" stroke="black" stroke-miterlimit="10" stroke-linecap="round" stroke-linejoin="round"/>
<path d="M104.145 73.3262C108.244 73.3262 111.567 70.0031 111.567 65.904C111.567 61.8048 108.244 58.4818 104.145 58.4818C100.046 58.4818 96.7228 61.8048 96.7228 65.904C96.7228 70.0031 100.046 73.3262 104.145 73.3262Z" fill="#FFF58C" stroke="black" stroke-miterlimit="10"/>
<path d="M104.145 48.5586C94.5649 48.5586 86.7998 56.3237 86.7998 65.904H121.491C121.491 56.3237 113.725 48.5586 104.145 48.5586Z" fill="black"/>
<path d="M99.0826 48.2157V46.3602C99.0826 43.4558 101.442 41.0961 104.347 41.0961C107.251 41.0961 109.611 43.4558 109.611 46.3602V48.2157C109.611 51.1201 107.251 53.4799 104.347 53.4799C101.442 53.4799 99.0826 51.1201 99.0826 48.2157Z" fill="black"/>
<path d="M116.045 44.9684H107.372V47.4492H116.045V44.9684Z" fill="black"/>
<path d="M157.149 99.8888L114.956 48.7402C113.544 47.0258 113.786 44.4845 115.5 43.0727C117.215 41.6608 119.756 41.9029 121.168 43.6172L163.361 94.7659C164.773 96.4803 164.531 99.0216 162.817 100.433C161.102 101.865 158.561 101.623 157.149 99.8888Z" fill="#EBEBEB" stroke="#1D1D1B" stroke-miterlimit="10"/>
<path d="M122.943 160.638L156.746 95.5726C157.775 93.5961 160.195 92.8296 162.172 93.8583C164.148 94.8869 164.915 97.3072 163.886 99.2837L130.083 164.369C129.054 166.346 126.634 167.112 124.657 166.084C122.681 165.055 121.914 162.615 122.943 160.638Z" fill="#EBEBEB" stroke="#1D1D1B" stroke-miterlimit="10"/>
<path d="M128.207 167.193H125.101V173.022H128.207V167.193Z" fill="black"/>
<path d="M74.8798 175.805V171.549C74.8798 170.823 75.4647 170.238 76.1908 170.238H132.483C133.209 170.238 133.794 170.823 133.794 171.549V175.805H74.8798Z" fill="black"/>
<path d="M118.788 50.6763C120.96 50.6763 122.721 48.9154 122.721 46.7433C122.721 44.5712 120.96 42.8104 118.788 42.8104C116.616 42.8104 114.855 44.5712 114.855 46.7433C114.855 48.9154 116.616 50.6763 118.788 50.6763Z" stroke="black" stroke-miterlimit="10"/>
<path d="M126.634 166.83C128.806 166.83 130.566 165.069 130.566 162.897C130.566 160.725 128.806 158.964 126.634 158.964C124.461 158.964 122.701 160.725 122.701 162.897C122.701 165.069 124.461 166.83 126.634 166.83Z" stroke="black" stroke-miterlimit="10"/>
<path d="M38.4343 30.3055C37.1031 34.8032 35.7518 39.3614 35.772 44.0407C35.7921 48.7199 37.3653 53.6209 40.9756 56.606C43.6379 58.8044 47.1271 59.7523 50.0516 61.6079C54.2266 64.25 57.1511 68.7679 57.8369 73.669C58.1596 75.9077 58.0184 78.207 58.4016 80.4458C59.1277 84.5804 61.7698 88.352 65.4003 90.4698C68.6273 92.3455 72.4393 92.9102 75.868 94.4027C81.2733 96.7625 85.5491 101.583 87.2635 107.23" stroke="black" stroke-miterlimit="10" stroke-linecap="round" stroke-linejoin="round"/>
<path d="M122.519 30.6485C123.945 30.6485 125.101 29.4927 125.101 28.0669C125.101 26.6411 123.945 25.4852 122.519 25.4852C121.093 25.4852 119.937 26.6411 119.937 28.0669C119.937 29.4927 121.093 30.6485 122.519 30.6485Z" fill="#FFF58C" stroke="#181919" stroke-miterlimit="10" stroke-linecap="round" stroke-linejoin="round"/>
<path d="M87.3845 30.6485C88.8103 30.6485 89.9661 29.4927 89.9661 28.0669C89.9661 26.6411 88.8103 25.4852 87.3845 25.4852C85.9587 25.4852 84.8029 26.6411 84.8029 28.0669C84.8029 29.4927 85.9587 30.6485 87.3845 30.6485Z" fill="#FFF58C" stroke="#181919" stroke-miterlimit="10" stroke-linecap="round" stroke-linejoin="round"/>
<path d="M106.021 15.1183L107.634 20.1001C107.775 20.564 108.219 20.8665 108.703 20.8665H113.947C115.036 20.8665 115.48 22.2582 114.613 22.8834L110.377 25.9693C109.994 26.2516 109.812 26.7559 109.974 27.2198L111.587 32.2015C111.93 33.2301 110.74 34.0974 109.873 33.452L105.637 30.3661C105.254 30.0838 104.71 30.0838 104.326 30.3661L100.091 33.452C99.2237 34.0974 98.0337 33.2301 98.3766 32.2015L99.9901 27.2198C100.131 26.7559 99.9699 26.2516 99.5867 25.9693L95.3512 22.8834C94.484 22.238 94.9277 20.8665 96.0168 20.8665H101.261C101.745 20.8665 102.168 20.564 102.33 20.1001L103.943 15.1183C104.226 14.0897 105.678 14.0897 106.021 15.1183Z" fill="#FFF58C" stroke="#181919" stroke-miterlimit="10" stroke-linecap="round" stroke-linejoin="round"/>
<path d="M149.969 93.3137C152.43 91.68 153.862 88.8765 154.729 86.073C155.616 83.2493 156.04 80.3046 157.068 77.5415C159.448 71.1681 164.733 66.3477 170.178 62.2534C174.495 59.0061 179.254 55.7589 181.231 50.7368C181.876 49.083 182.179 47.3081 183.006 45.7551C179.396 37.9698 173.607 32.0402 167.94 26.292C166.85 25.1827 165.741 24.0734 164.471 23.1658C159.731 25.0012 155.878 28.6316 153.156 32.8267C150.433 37.0219 148.718 41.7818 147.085 46.5215C146.641 47.8325 146.177 49.1838 146.218 50.5755C146.258 52.068 146.843 53.5807 146.419 55.0127C145.431 60.3776 145.814 65.9846 148.174 70.7647C148.779 71.9748 149.505 73.1648 149.767 74.4758C149.969 75.4641 149.929 76.4927 150.09 77.5011C150.272 78.5701 150.695 79.5987 150.856 80.6879C151.3 83.7536 150.897 87.2226 148.779 89.5017C148.093 90.2278 146.278 90.5505 145.37 90.9539C143.071 91.9624 140.147 91.6396 137.847 90.6514C133.793 88.937 129.397 86.8192 124.98 87.0008C120.563 87.1823 116.145 88.7353 112.918 91.7405C111.023 93.5154 109.611 95.734 108.38 98.0332C106.969 100.675 105.779 103.459 104.932 106.746C105.738 106.807 106.585 106.323 107.352 106.605C107.574 106.686 107.755 106.827 107.977 106.887C108.259 106.988 108.562 106.948 108.864 106.948C110.216 106.908 111.587 107.25 112.939 108.461C114.108 105.234 116.206 102.37 118.929 100.292C119.796 99.6266 120.744 99.0417 121.773 98.6383C123.265 98.0736 124.899 97.9324 126.492 97.8114C131.212 97.4483 135.931 97.1861 140.671 97.0046C142.385 96.9441 144.14 96.8836 145.774 96.3189C147.408 95.7945 148.517 94.2818 149.969 93.3137Z" fill="white"/>
<mask id="mask1_525_54311" style="mask-type:luminance" maskUnits="userSpaceOnUse" x="104" y="23" width="80" height="86">
<path d="M149.969 93.596C152.43 91.9623 153.862 89.1588 154.729 86.3553C155.616 83.5317 156.04 80.587 157.068 77.8238C159.448 71.4504 164.733 66.63 170.178 62.5357C174.494 59.2885 179.254 56.0413 181.231 51.0192C181.876 49.3653 182.179 47.5905 183.006 46.0374C179.396 38.2522 173.607 32.3225 167.939 26.5743C166.85 25.465 165.741 24.3557 164.47 23.4481C159.731 25.2835 155.878 28.9139 153.156 33.1091C150.433 37.3042 148.718 42.0641 147.085 46.8039C146.641 48.1148 146.177 49.4662 146.217 50.8578C146.258 52.3503 146.843 53.863 146.419 55.295C145.431 60.66 145.814 66.267 148.174 71.047C148.779 72.2572 149.505 73.4472 149.767 74.7581C149.969 75.7464 149.929 76.775 150.09 77.7835C150.271 78.8525 150.695 79.8811 150.856 80.9702C151.3 84.0359 149.505 87.0008 147.387 89.2799C146.702 90.0059 145.975 90.7118 145.048 91.1152C142.748 92.1237 140.147 90.9135 137.827 89.9253C133.773 88.2109 129.376 87.1016 124.959 87.2831C120.542 87.4646 116.125 89.0177 112.898 92.0228C111.002 93.7977 109.59 96.0163 108.36 98.3156C106.948 100.958 105.758 103.741 104.911 107.029C105.718 107.089 106.565 106.605 107.332 106.887C107.553 106.968 107.735 107.109 107.957 107.17C108.239 107.271 108.542 107.23 108.844 107.23C110.196 107.19 111.567 107.533 112.918 108.743C114.088 105.516 116.186 102.652 118.909 100.575C119.776 99.9089 120.724 99.324 121.752 98.9207C123.245 98.3559 124.879 98.2147 126.472 98.0937C131.192 97.7307 135.911 97.4685 140.651 97.287C142.365 97.2265 144.12 97.1659 145.754 96.6012C147.407 96.0768 148.517 94.5641 149.969 93.596Z" fill="white"/>
</mask>
<g mask="url(#mask1_525_54311)">
<path d="M181.897 1.20178L208.197 51.9471" stroke="black" stroke-miterlimit="10"/>
<path d="M177.5 6.18347L203.82 56.9288" stroke="black" stroke-miterlimit="10"/>
<path d="M173.103 11.1652L199.423 61.8903" stroke="black" stroke-miterlimit="10"/>
<path d="M168.726 16.147L195.026 66.8721" stroke="black" stroke-miterlimit="10"/>
<path d="M164.329 21.1086L190.65 71.8539" stroke="black" stroke-miterlimit="10"/>
<path d="M159.953 26.0903L186.253 76.8356" stroke="black" stroke-miterlimit="10"/>
<path d="M155.556 31.072L181.856 81.8172" stroke="black" stroke-miterlimit="10"/>
<path d="M151.159 36.0538L177.48 86.7991" stroke="black" stroke-miterlimit="10"/>
<path d="M146.782 41.0356L173.083 91.7809" stroke="black" stroke-miterlimit="10"/>
<path d="M142.385 46.0173L168.686 96.7424" stroke="black" stroke-miterlimit="10"/>
<path d="M137.989 50.999L164.309 101.724" stroke="black" stroke-miterlimit="10"/>
<path d="M133.612 55.9606L159.912 106.706" stroke="black" stroke-miterlimit="10"/>
<path d="M129.215 60.9424L155.536 111.688" stroke="black" stroke-miterlimit="10"/>
<path d="M124.818 65.9241L151.139 116.669" stroke="black" stroke-miterlimit="10"/>
<path d="M120.442 70.9058L146.742 121.651" stroke="black" stroke-miterlimit="10"/>
<path d="M116.045 75.8877L142.365 126.613" stroke="black" stroke-miterlimit="10"/>
<path d="M111.668 80.8695L137.968 131.595" stroke="black" stroke-miterlimit="10"/>
<path d="M107.271 85.8309L133.572 136.576" stroke="black" stroke-miterlimit="10"/>
<path d="M102.874 90.8126L129.195 141.558" stroke="black" stroke-miterlimit="10"/>
<path d="M98.4977 95.7944L124.798 146.54" stroke="black" stroke-miterlimit="10"/>
<path d="M94.1007 100.776L120.421 151.522" stroke="black" stroke-miterlimit="10"/>
</g>
<path d="M191.255 65.8837C191.295 61.1037 187.887 57.0699 186.092 52.6327C185.124 50.2326 184.599 47.5904 182.965 45.5937C182.139 50.1922 180.021 55.2345 176.612 58.28C173.204 61.3255 169.23 63.6651 165.62 66.4686C162.01 69.2721 158.642 72.6605 157.089 76.9565C155.697 80.829 155.838 85.2057 153.983 88.8764C152.248 92.3052 148.9 94.7053 145.31 96.0163C141.7 97.3273 137.303 95.27 133.471 95.4515C129.397 95.6331 124.354 94.8061 120.522 96.1776C116.69 97.5491 113.604 100.413 112.576 104.447C115.944 106.161 120.119 111.809 123.003 114.229C125.948 111.022 129.82 106.908 133.894 105.355C136.093 104.507 140.005 103.64 140.005 103.64C140.005 103.64 145.048 102.975 147.589 102.208C149.687 101.563 151.401 100.595 153.014 99.082C157.331 95.0885 156.907 88.6344 160.154 83.7333C161.808 81.2122 164.491 79.4978 167.355 78.5297C170.219 77.5616 173.244 77.2793 176.249 77.1179C177.722 77.0372 179.194 76.9969 180.606 76.6338C185.769 75.3834 191.215 71.0067 191.255 65.8837Z" fill="#FF88B6"/>
<path d="M191.255 66.2065C191.376 72.9833 185.749 76.5936 179.033 77.5012C175.584 77.9651 172.034 77.1382 168.605 77.7836C165.661 78.3483 162.938 80.0627 161.143 82.4628C157.411 87.4647 157.754 94.9474 153.216 99.2434C149.001 103.237 142.446 102.813 136.839 104.346C131.313 105.839 126.412 109.509 123.406 114.37" stroke="black" stroke-miterlimit="10" stroke-linecap="round" stroke-linejoin="round"/>
<path d="M105.738 105.98C106.061 100.01 109.328 94.2617 114.27 90.9136C119.211 87.5655 125.746 86.6579 131.413 88.5538C136.073 90.1068 140.772 93.4751 145.411 91.9019C149.606 90.49 151.582 85.468 151.3 81.0711C151.018 76.6541 149.061 72.5396 147.791 68.3041C144.725 58.0986 145.713 46.7434 150.473 37.2035C153.337 31.4553 157.976 26.0903 164.228 24.5776" stroke="black" stroke-miterlimit="10" stroke-linecap="round" stroke-linejoin="round"/>
<path d="M182.703 46.4609C180.908 58.2397 171.227 60.8818 160.134 71.9546C155.415 76.8557 156.968 83.814 153.539 89.7034C145.007 105.455 117.013 83.2291 113.584 106.787" stroke="black" stroke-miterlimit="10" stroke-linecap="round" stroke-linejoin="round"/>
<path d="M103.762 183.53C154.166 183.53 195.027 142.669 195.027 92.2649C195.027 41.8607 154.166 1 103.762 1C53.3575 1 12.4968 41.8607 12.4968 92.2649C12.4968 142.669 53.3575 183.53 103.762 183.53Z" stroke="black" stroke-miterlimit="10"/>
<path d="M119.494 151.38C123.205 147.911 126.956 144.301 129.195 139.743C132.382 133.228 132.119 125.524 134.782 118.767C136.073 115.5 138.231 112.333 141.518 111.123C144.806 109.913 149.203 111.486 150.009 114.895C150.554 117.275 149.303 119.695 149.283 122.135C149.263 124.213 150.251 126.371 152.046 127.42C153.842 128.468 156.443 128.125 157.674 126.451C158.884 124.798 158.581 122.539 158.864 120.522C159.146 118.505 160.82 116.206 162.756 116.851C164.511 117.436 164.733 119.775 164.773 121.631C164.834 123.487 165.62 125.867 167.476 125.826C168.827 125.786 169.715 124.354 169.957 123.023C170.199 121.692 170.138 120.28 170.743 119.07C171.933 116.75 175.443 116.407 177.54 117.96C179.638 119.513 180.465 122.317 180.404 124.919C180.263 130.808 176.29 136.072 171.368 139.299C166.447 142.526 160.638 144.079 154.951 145.592C145.108 148.194 135.246 150.795 125.403 153.397C123.205 153.982 120.3 154.265 119.494 151.38Z" fill="#FFF58C" stroke="black" stroke-miterlimit="10" stroke-linecap="round" stroke-linejoin="round"/>
<path d="M39.725 91.0951C36.7399 91.6195 34.0373 93.5759 32.6053 96.2382C31.1733 98.9005 31.0321 102.228 32.2624 105.012C33.5129 107.856 36.0542 110.094 36.6593 113.12C37.0223 114.854 36.6794 116.649 36.6794 118.444C36.6794 120.219 37.103 122.176 38.5148 123.224C40.4107 124.636 43.1537 123.829 45.1706 122.599C47.1875 121.369 49.1439 119.735 51.5037 119.554C52.6331 119.473 53.7424 119.735 54.8517 119.796C59.1276 120.078 63.4236 117.295 64.9362 113.281C66.4489 109.267 65.0371 104.346 61.6487 101.724C60.6604 100.958 59.4906 100.353 58.7645 99.3442C57.272 97.3072 57.9779 94.3625 56.8485 92.1036C56.1829 90.7321 54.9122 89.764 53.5408 89.0782C49.2447 86.9806 43.6176 87.8076 39.725 91.0951Z" fill="#FFF58C" stroke="black" stroke-miterlimit="10" stroke-linecap="round" stroke-linejoin="round"/>
<mask id="mask2_525_54311" style="mask-type:luminance" maskUnits="userSpaceOnUse" x="24" y="31" width="64" height="79">
<path d="M84.5407 109.207C84.4197 108.319 83.7743 107.593 83.1491 106.928C82.2414 105.939 81.3137 104.951 80.4061 103.963C79.3371 102.813 78.2681 101.643 77.0378 100.655C72.8023 97.2466 67.2155 96.1373 62.3548 93.6767C60.7816 92.8699 59.2891 91.922 58.0789 90.6311C55.6587 88.0495 54.7511 84.4392 54.1258 80.95C53.5006 77.4608 53.077 73.8505 51.3425 70.7646C49.5474 69.0704 47.8331 67.3359 45.6548 66.4485C41.9841 64.9358 37.6275 66.0653 33.9164 64.6131C32.8878 64.2097 31.9197 63.6046 31.0323 62.9391C26.9581 59.8532 24.195 54.8513 24.4773 49.7485C27.4623 42.3263 32.1012 35.731 37.9099 31.0922C36.7804 35.5899 35.6308 40.1682 35.8527 44.7869C36.0745 49.4258 37.8292 54.1857 41.5403 56.9892C45.4128 59.9137 51.0803 60.4986 53.8636 64.4719C54.5292 65.4198 54.9729 66.509 55.4166 67.5779C56.768 70.8655 58.1193 74.153 58.8655 77.6221C59.3294 79.76 59.5714 81.9585 60.3984 83.9754C61.4472 86.4965 63.4439 88.6344 66.0255 89.8244C66.9332 91.6194 69.0912 92.3253 71.0275 92.8497C73.9923 93.6767 76.9975 94.5641 79.4783 96.3591C81.3742 97.7306 82.8667 99.5459 84.2584 101.422C85.2265 102.733 87.3442 105.516 87.2232 107.19C87.203 108.239 85.5895 107.977 84.5407 109.207Z" fill="white"/>
</mask>
<g mask="url(#mask2_525_54311)">
<path d="M33.8358 -11.3032L0.294678 34.9848" stroke="black" stroke-miterlimit="10"/>
<path d="M37.2644 -4.70789L3.70312 41.5801" stroke="black" stroke-miterlimit="10"/>
<path d="M40.6729 1.88733L7.13184 48.1753" stroke="black" stroke-miterlimit="10"/>
<path d="M44.0814 8.4826L10.5403 54.7705" stroke="black" stroke-miterlimit="10"/>
<path d="M47.5105 15.0778L13.9492 61.3658" stroke="black" stroke-miterlimit="10"/>
<path d="M50.9189 21.6933L17.3577 67.9611" stroke="black" stroke-miterlimit="10"/>
<path d="M54.3275 28.2886L20.7864 74.5564" stroke="black" stroke-miterlimit="10"/>
<path d="M57.7359 34.884L24.1948 81.1517" stroke="black" stroke-miterlimit="10"/>
<path d="M61.1648 41.4791L27.6035 87.7469" stroke="black" stroke-miterlimit="10"/>
<path d="M64.5733 48.0745L31.0322 94.3422" stroke="black" stroke-miterlimit="10"/>
<path d="M67.982 54.6697L34.4409 100.937" stroke="black" stroke-miterlimit="10"/>
<path d="M71.4106 61.265L37.8494 107.533" stroke="black" stroke-miterlimit="10"/>
<path d="M74.8193 67.8602L41.2581 114.128" stroke="black" stroke-miterlimit="10"/>
<path d="M78.2278 74.4556L44.6866 120.723" stroke="black" stroke-miterlimit="10"/>
<path d="M81.6362 81.0508L48.0951 127.319" stroke="black" stroke-miterlimit="10"/>
<path d="M85.0651 87.6461L51.5038 133.914" stroke="black" stroke-miterlimit="10"/>
<path d="M88.4735 94.2415L54.9122 140.509" stroke="black" stroke-miterlimit="10"/>
<path d="M91.8823 100.837L58.3412 147.104" stroke="black" stroke-miterlimit="10"/>
<path d="M95.2907 107.432L61.7496 153.7" stroke="black" stroke-miterlimit="10"/>
</g>
<path d="M66.933 9.49118C49.9305 15.1385 28.027 33.3108 38.6157 52.6327C42.5083 59.9944 54.3879 60.8617 55.8602 69.3327C59.41 74.1128 57.6754 81.2728 60.9227 86.2545C68.5466 95.2499 86.7188 93.112 86.8399 108.763C88.4332 106.182 91.6199 106.141 94.1612 104.871C91.2367 91.9624 88.5946 85.9117 74.8796 82.9266C49.4465 68.4856 62.8185 30.2249 69.9382 7.95831C68.8289 8.60372 67.7398 9.24915 66.933 9.49118Z" fill="#56B381" stroke="black" stroke-miterlimit="10"/>
<path d="M134.62 135.588C134.62 136.677 133.249 137.383 132.099 136.859C124.395 133.369 115.157 133.369 107.453 136.859L104.952 137.988V103.6L107.977 102.228C115.359 98.8803 124.233 98.8803 131.615 102.228L133.37 103.035C134.136 103.378 134.64 104.064 134.64 104.83L134.62 135.588Z" fill="white" stroke="black" stroke-miterlimit="10" stroke-linecap="round"/>
<path d="M104.952 138.008L102.451 136.879C94.7462 133.39 85.5088 133.39 77.8042 136.879C76.6747 137.403 75.2831 136.697 75.2831 135.608V104.85C75.2831 104.104 75.7671 103.418 76.5537 103.055L79.3774 101.764C86.0937 98.719 94.1411 98.719 100.857 101.764L104.952 103.62V138.008Z" fill="white" stroke="black" stroke-miterlimit="10" stroke-linecap="round"/>
<path d="M211 137.363V170.521C174.817 160.113 142.587 183.812 106 183.812C68.1225 183.51 37.2034 160.113 1 170.521V137.363C37.2438 127.016 68.7276 152.308 106 152.308C140.973 152.59 174.776 127.016 211 137.363Z" fill="white" stroke="#181919" stroke-miterlimit="10"/>
<path d="M19.0712 153.942C18.446 153.901 18.1233 153.901 17.4981 153.861C17.2964 154.89 17.1955 155.414 16.9938 156.463C16.4089 156.443 16.1266 156.443 15.5417 156.443C15.7434 155.394 15.8442 154.87 16.0459 153.841C15.5417 153.841 15.2996 153.821 14.7954 153.821C14.7954 153.256 14.7954 152.974 14.7954 152.429C15.4005 152.429 15.703 152.429 16.3081 152.449C16.4694 151.602 16.5501 151.179 16.7316 150.352C16.1467 150.332 15.8442 150.332 15.2593 150.332C15.2593 149.787 15.2593 149.505 15.2593 148.94C15.9652 148.94 16.3081 148.96 17.014 148.98C17.2157 147.931 17.3165 147.407 17.5384 146.378C18.1233 146.399 18.4258 146.419 18.9906 146.439C18.7687 147.488 18.6679 148.012 18.4662 149.041C19.0914 149.081 19.4141 149.081 20.0192 149.142C20.2209 148.113 20.3419 147.589 20.5637 146.54C21.1285 146.58 21.431 146.6 21.9958 146.661C21.7739 147.71 21.6529 148.214 21.4512 149.263C21.9352 149.303 22.1773 149.323 22.6613 149.384C22.6613 149.928 22.6613 150.211 22.6613 150.755C22.0764 150.695 21.7739 150.674 21.1688 150.614C21.0075 151.441 20.9268 151.864 20.7654 152.691C21.3503 152.732 21.6529 152.772 22.2378 152.812C22.2378 153.377 22.2378 153.639 22.2579 154.204C21.5722 154.143 21.2293 154.103 20.5234 154.063C20.3217 155.091 20.241 155.596 20.0394 156.624C19.4545 156.584 19.1721 156.584 18.5872 156.544C18.7889 155.495 18.8897 154.991 19.0712 153.942ZM17.7603 152.49C18.3855 152.51 18.7082 152.53 19.3334 152.57C19.4948 151.743 19.5755 151.32 19.7368 150.473C19.1116 150.432 18.7889 150.412 18.1636 150.392C18.0225 151.239 17.9418 151.643 17.7603 152.49Z" fill="#181919"/>
<path d="M24.396 149.464C24.396 148.254 24.759 147.326 25.3036 146.822C25.7675 146.399 26.4129 146.237 27.1995 146.338C27.9861 146.439 28.5912 146.782 29.0147 147.347C29.1357 147.508 29.2366 147.689 29.3374 147.891C30.1442 148.032 30.5476 148.093 31.3543 148.234C31.3947 147.77 31.4148 147.548 31.435 147.084C32.0401 147.185 32.3628 147.246 32.9678 147.367C32.6855 150.755 32.6653 152.389 32.8065 155.656C32.2014 155.535 31.8989 155.475 31.2938 155.374C31.2535 154.264 31.2131 153.7 31.2131 152.59C30.4467 152.449 30.0635 152.389 29.2971 152.248C29.1761 152.469 29.0349 152.651 28.8937 152.812C28.45 153.216 27.8449 153.357 27.0785 153.256C26.3121 153.135 25.6868 152.812 25.2229 152.268C24.6784 151.642 24.396 150.674 24.396 149.464ZM25.2028 157.875C25.1826 156.261 25.1624 155.475 25.1422 153.821C25.7473 153.901 26.0499 153.942 26.6751 154.022C26.6953 155.071 26.7154 155.596 26.7356 156.604C29.2971 156.947 30.5677 157.149 33.0889 157.613C33.109 158.177 33.109 158.46 33.1292 159.004C29.9627 158.46 28.3895 158.218 25.2028 157.875ZM25.8885 149.646C25.8885 150.392 26.0297 150.937 26.2717 151.279C26.4532 151.542 26.7154 151.703 27.0583 151.743C27.4012 151.804 27.6634 151.703 27.8449 151.501C28.1071 151.239 28.2281 150.735 28.2281 149.989C28.2281 149.242 28.1474 148.698 27.9054 148.335C27.7239 148.073 27.4617 147.891 27.1188 147.851C26.7759 147.81 26.4936 147.891 26.2919 148.093C26.0499 148.395 25.8885 148.9 25.8885 149.646ZM29.7005 149.484C29.7206 149.726 29.7206 149.989 29.7206 150.231C29.7206 150.432 29.7005 150.634 29.7005 150.795C30.3055 150.896 30.6081 150.957 31.2333 151.078C31.2333 150.553 31.2131 150.291 31.2535 149.747C30.6282 149.646 30.3055 149.605 29.7005 149.484Z" fill="#181919"/>
<path d="M35.2671 154.728C38.837 155.475 40.6119 155.898 44.2423 156.765C44.2827 157.37 44.3028 157.673 44.3432 158.278C42.8305 157.915 42.0842 157.754 40.5715 157.411C40.6522 158.843 40.6926 159.367 40.7531 160.638C40.148 160.497 39.8455 160.436 39.2404 160.315C39.1799 159.044 39.1597 158.5 39.0589 157.068C37.5664 156.725 36.8201 156.564 35.3478 156.261C35.3074 155.656 35.3074 155.354 35.2671 154.728ZM42.3263 151.118C39.7043 150.513 38.4135 150.21 35.8117 149.666C35.8722 149.041 35.9125 148.718 35.973 148.093C39.2001 148.758 40.8136 149.141 44.0406 149.888C43.8994 150.997 43.8389 151.562 43.6977 152.671C43.5364 153.881 43.5566 154.93 43.4557 155.757C42.8507 155.616 42.5481 155.555 41.9632 155.414C42.0641 154.587 42.1851 153.498 42.1851 152.53C42.1649 151.985 42.2657 151.683 42.3263 151.118Z" fill="#181919"/>
<path d="M52.2896 151.905C52.229 152.53 52.2089 152.853 52.1484 153.478C51.3214 153.296 50.8979 153.195 50.071 153.014C49.9499 154.103 49.9298 154.648 49.9298 155.676C49.9298 158.944 51.0794 160.255 52.2694 161.082C52.2895 161.666 52.3097 161.949 52.3299 162.534C51.0794 161.868 49.9298 160.779 49.3045 159.569C48.8003 160.537 47.7313 161.061 46.5414 161.122C46.501 160.557 46.501 160.275 46.4607 159.71C47.57 159.448 48.3768 158.581 48.3768 155.313C48.3768 154.264 48.3969 153.74 48.5179 152.631C47.7112 152.449 47.3078 152.348 46.4809 152.147C46.5615 151.501 46.6019 151.199 46.6826 150.553C48.9415 151.118 50.0508 151.38 52.2896 151.905ZM54.6695 157.007C55.3149 157.149 55.6376 157.209 56.283 157.33C56.283 157.935 56.283 158.238 56.283 158.843C55.6376 158.722 55.3149 158.641 54.6695 158.52C54.7502 160.739 54.7905 161.808 54.851 163.885C54.2258 163.724 53.9232 163.643 53.3182 163.502C53.1568 159.206 52.935 156.786 53.3585 151.945C53.9636 152.086 54.2661 152.147 54.8914 152.288C54.7502 154.184 54.6695 155.152 54.6695 157.007Z" fill="#181919"/>
<path d="M65.2988 162.877C64.6735 162.715 64.3508 162.655 63.7256 162.514C63.5239 163.522 63.4029 164.087 63.181 165.156C62.5961 165.015 62.3138 164.934 61.749 164.793C61.9507 163.744 62.0717 163.199 62.2734 162.191C61.7692 162.09 61.5272 162.03 61.0229 161.929C61.0229 161.364 61.0229 161.082 61.0229 160.517C61.628 160.638 61.9306 160.698 62.5356 160.84C62.697 160.013 62.7777 159.609 62.9592 158.802C62.3743 158.681 62.0717 158.621 61.4868 158.5C61.4868 157.935 61.4868 157.673 61.4868 157.108C62.1726 157.249 62.5356 157.33 63.2214 157.471C63.4231 156.463 63.5239 155.999 63.7256 155.031C64.3105 155.172 64.613 155.233 65.1979 155.374C64.9962 156.322 64.8954 156.786 64.6937 157.794C65.319 157.935 65.6417 158.016 66.2871 158.177C66.4888 157.169 66.5896 156.725 66.7913 155.777C67.3762 155.918 67.6586 155.999 68.2435 156.16C68.0418 157.108 67.9611 157.532 67.7392 158.54C68.2435 158.661 68.4855 158.722 68.9897 158.863C68.9897 159.428 68.9897 159.71 68.9897 160.255C68.3846 160.093 68.0619 160.013 67.4569 159.871C67.2955 160.678 67.1947 161.082 67.0333 161.909C67.6384 162.05 67.9409 162.13 68.546 162.292C68.546 162.856 68.546 163.139 68.546 163.724C67.8401 163.542 67.477 163.441 66.7711 163.28C66.5694 164.288 66.4484 164.873 66.2266 165.962C65.6417 165.801 65.3593 165.72 64.7744 165.579C64.9761 164.47 65.0971 163.885 65.2988 162.877ZM63.9878 161.162C64.6332 161.303 64.9357 161.384 65.5811 161.545C65.7425 160.719 65.8232 160.315 66.0047 159.508C65.3593 159.347 65.0568 159.287 64.4113 159.125C64.25 159.932 64.1693 160.335 63.9878 161.162Z" fill="#181919"/>
<path d="M70.8049 159.246C70.8049 158.016 71.1075 157.27 71.652 156.907C72.1159 156.584 72.7613 156.544 73.5681 156.765C74.3748 156.987 75.0202 157.391 75.5043 157.976C75.6455 158.137 75.7665 158.318 75.8673 158.52C76.7144 158.762 77.138 158.863 77.9851 159.105C77.9851 158.681 77.9851 158.48 77.9649 158.056C78.6103 158.238 78.933 158.318 79.5583 158.5C79.5986 161.606 79.5986 163.28 79.5785 166.648C78.933 166.467 78.6103 166.386 77.9851 166.205C77.9851 165.055 77.9851 164.49 77.9851 163.361C77.1783 163.139 76.775 163.018 75.948 162.796C75.827 162.998 75.6858 163.179 75.5043 163.3C75.0202 163.643 74.3748 163.724 73.5681 163.502C72.7613 163.28 72.0957 162.836 71.6319 162.231C71.1075 161.505 70.8049 160.477 70.8049 159.246ZM71.4503 168.342C71.4907 166.467 71.531 165.478 71.531 163.784C72.1764 163.966 72.479 164.046 73.1244 164.228C73.1244 165.297 73.1042 165.882 73.084 167.072C75.7463 167.798 77.0775 168.181 79.76 168.907C79.7398 169.593 79.7398 169.936 79.7196 170.622C76.3918 169.734 74.7379 169.27 71.4503 168.342ZM72.3579 159.67C72.3579 160.416 72.4991 160.981 72.7613 161.364C72.963 161.646 73.2454 161.848 73.6084 161.949C73.9715 162.05 74.2538 161.989 74.4555 161.808C74.7177 161.586 74.8589 161.082 74.8589 160.335C74.8589 159.589 74.7177 159.085 74.4353 158.722C74.2337 158.439 73.9513 158.258 73.5883 158.157C73.2252 158.056 72.9429 158.097 72.7613 158.258C72.479 158.5 72.3579 158.923 72.3579 159.67ZM76.3514 160.053C76.3918 160.275 76.3917 160.537 76.3917 160.799C76.3917 161.001 76.3716 161.203 76.3716 161.384C77.017 161.566 77.3397 161.646 77.9851 161.828C77.9851 161.303 77.9851 161.021 77.9851 160.517C77.3397 160.315 77.017 160.234 76.3514 160.053Z" fill="#181919"/>
<path d="M82.2809 165.882C86.0928 166.89 88.0089 167.394 91.841 168.141C91.841 168.766 91.841 169.069 91.841 169.694C90.2477 169.371 89.4409 169.21 87.8475 168.826C87.8475 170.279 87.8274 171.126 87.787 172.679C87.1416 172.538 86.8189 172.477 86.1735 172.336C86.1937 170.763 86.234 169.916 86.234 168.463C84.6407 168.08 83.8541 167.879 82.2809 167.455C82.2809 166.83 82.2809 166.507 82.2809 165.882ZM89.7031 162.574C86.9198 161.969 85.5281 161.626 82.765 160.9C82.765 160.315 82.7649 160.033 82.7448 159.448C86.1533 160.335 87.8677 160.759 91.2964 161.424C91.2964 162.453 91.2964 162.977 91.3166 164.006C91.3166 165.136 91.2359 166.285 91.0746 167.132C90.4292 166.991 90.1266 166.931 89.4812 166.789C89.6426 165.942 89.7233 164.833 89.7233 163.865C89.7031 163.32 89.7031 163.078 89.7031 162.574Z" fill="#181919"/>
<path d="M100.09 162.796C100.09 163.401 100.09 163.704 100.09 164.309C99.2231 164.228 98.7995 164.188 97.9323 164.067C97.9323 165.115 97.9323 165.64 97.9323 166.689C97.9323 169.996 98.9609 171.206 100.171 171.953C100.171 172.598 100.171 172.941 100.171 173.586C98.8802 173.062 97.7104 171.892 97.1255 170.722C96.5406 171.751 95.3506 172.618 94.0598 172.84C94.0598 172.175 94.0598 171.832 94.08 171.166C95.3103 170.743 96.3188 169.815 96.3188 166.487C96.3188 165.438 96.3188 164.894 96.3188 163.865C95.4717 163.744 95.0481 163.663 94.201 163.522C94.201 162.917 94.201 162.635 94.201 162.03C96.5608 162.413 97.7306 162.574 100.09 162.796ZM102.975 174.555C102.329 174.534 102.006 174.514 101.361 174.474C101.361 169.734 101.361 167.395 101.361 162.695C102.006 162.735 102.329 162.756 102.954 162.796C102.975 167.475 102.975 169.835 102.975 174.555Z" fill="#181919"/>
<path d="M109.308 169.069C109.308 169.774 109.308 170.137 109.308 170.843C108.662 170.884 108.339 170.904 107.714 170.924C107.714 170.218 107.714 169.855 107.714 169.149C106.867 169.169 106.444 169.19 105.596 169.19C105.596 168.605 105.596 168.322 105.596 167.737C107.775 167.737 108.864 167.697 111.042 167.516C111.627 167.475 112.111 167.415 112.595 167.233C112.595 167.778 112.595 168.04 112.595 168.605C112.111 168.826 111.566 168.927 110.961 168.968C110.296 169.008 109.953 169.048 109.308 169.069ZM105.959 165.055C105.959 164.389 106.202 163.865 106.605 163.502C107.17 162.998 108.037 162.756 108.944 162.695C109.872 162.655 110.74 162.796 111.304 163.24C111.708 163.562 111.97 164.067 111.97 164.752C111.97 165.438 111.708 165.983 111.304 166.366C110.74 166.931 109.872 167.213 108.944 167.253C108.017 167.294 107.149 167.112 106.605 166.608C106.202 166.245 105.959 165.72 105.959 165.055ZM106.565 174.736C106.565 173.344 106.565 172.659 106.565 171.267C107.21 171.267 107.533 171.247 108.158 171.227C108.158 171.993 108.158 172.396 108.158 173.163C110.82 173.062 112.172 172.941 114.854 172.598C114.854 173.223 114.854 173.526 114.854 174.131C111.526 174.555 109.872 174.676 106.565 174.736ZM107.472 165.015C107.472 165.257 107.573 165.458 107.734 165.579C107.976 165.781 108.42 165.882 108.965 165.862C109.509 165.841 109.933 165.7 110.195 165.458C110.356 165.297 110.437 165.115 110.437 164.853C110.437 164.611 110.356 164.43 110.195 164.288C109.933 164.087 109.509 164.006 108.965 164.046C108.42 164.067 107.976 164.188 107.734 164.409C107.553 164.591 107.472 164.773 107.472 165.015ZM113.059 171.348C113.059 171.045 113.059 170.884 113.059 170.581C112.172 170.682 111.708 170.722 110.82 170.783C110.82 170.238 110.82 169.956 110.82 169.411C111.708 169.331 112.172 169.29 113.059 169.21C113.059 166.487 113.059 165.156 113.059 162.413C113.704 162.332 114.027 162.292 114.673 162.211C114.693 165.841 114.673 167.556 114.673 171.146C114.027 171.227 113.704 171.267 113.059 171.348Z" fill="#181919"/>
<path d="M125.16 168.705C124.515 168.847 124.192 168.927 123.547 169.048C123.345 170.158 123.244 170.722 123.043 171.832C122.458 171.953 122.155 172.013 121.55 172.114C121.752 171.005 121.853 170.46 122.054 169.351C121.55 169.452 121.288 169.492 120.784 169.593C120.784 169.028 120.784 168.746 120.784 168.161C121.409 168.04 121.712 167.979 122.317 167.858C122.478 166.951 122.559 166.527 122.74 165.68C122.135 165.801 121.833 165.862 121.228 165.983C121.228 165.458 121.228 165.176 121.248 164.651C121.954 164.51 122.317 164.45 123.023 164.309C123.244 163.26 123.325 162.634 123.527 161.485C124.132 161.364 124.414 161.283 125.019 161.162C124.818 162.332 124.737 162.957 124.515 164.006C125.16 163.865 125.483 163.804 126.129 163.643C126.35 162.594 126.431 161.949 126.633 160.779C127.218 160.638 127.52 160.577 128.105 160.416C127.903 161.586 127.823 162.251 127.601 163.3C128.105 163.179 128.367 163.119 128.872 162.998C128.872 163.522 128.851 163.784 128.851 164.309C128.226 164.47 127.924 164.53 127.298 164.692C127.117 165.539 127.036 165.962 126.875 166.87C127.48 166.729 127.782 166.648 128.408 166.507C128.408 167.092 128.408 167.374 128.428 167.939C127.702 168.12 127.359 168.201 126.633 168.362C126.431 169.492 126.33 170.057 126.129 171.166C125.544 171.307 125.241 171.368 124.636 171.489C124.878 170.379 124.979 169.835 125.16 168.705ZM123.809 167.576C124.455 167.435 124.777 167.354 125.443 167.213C125.604 166.305 125.685 165.862 125.866 165.035C125.221 165.176 124.898 165.256 124.253 165.398C124.071 166.225 123.991 166.668 123.809 167.576Z" fill="#181919"/>
<path d="M136.637 157.532C136.657 158.197 136.657 158.52 136.677 159.186C135.81 159.428 135.386 159.549 134.539 159.771C134.559 160.92 134.559 161.424 134.539 162.413C134.478 165.499 135.568 166.507 136.778 166.83C136.778 167.495 136.778 167.838 136.798 168.504C135.507 168.423 134.337 167.717 133.732 166.729C133.147 168.02 131.998 169.371 130.707 170.117C130.707 169.452 130.707 169.109 130.687 168.443C131.897 167.495 132.865 165.922 132.925 162.836C132.946 161.848 132.946 161.344 132.925 160.194C132.078 160.416 131.655 160.537 130.808 160.739C130.788 160.093 130.787 159.771 130.767 159.105C133.127 158.5 134.297 158.177 136.637 157.532ZM139.581 168.544C138.936 168.726 138.633 168.806 137.988 168.988C137.927 164.087 138.028 162.07 137.907 156.947C138.553 156.765 138.855 156.685 139.501 156.503C139.601 161.626 139.521 163.663 139.581 168.544Z" fill="#181919"/>
<path d="M142.385 159.186C142.405 158.157 142.647 157.007 143.171 156.261C143.635 155.596 144.281 155.152 145.108 154.93C145.934 154.708 146.58 154.809 147.064 155.212C147.185 155.313 147.306 155.434 147.387 155.575C148.214 155.354 148.637 155.253 149.444 155.031C149.444 154.567 149.444 154.325 149.444 153.861C150.069 153.7 150.392 153.639 151.017 153.478C151.017 156.241 151.017 157.572 151.017 160.315C150.392 160.477 150.089 160.557 149.464 160.698C149.464 160.053 149.464 159.73 149.464 159.105C148.657 159.307 148.274 159.408 147.467 159.629C147.346 159.851 147.225 160.053 147.064 160.255C146.58 160.86 145.955 161.324 145.128 161.546C144.301 161.767 143.635 161.646 143.171 161.303C142.667 160.961 142.365 160.214 142.385 159.186ZM149.464 162.816C146.903 163.502 145.592 163.865 142.99 164.591C142.99 163.966 142.99 163.663 142.97 163.038C146.217 162.151 147.83 161.687 151.017 160.9C151.017 162.735 151.017 163.663 151.017 165.499C150.392 165.68 150.089 165.761 149.464 165.922C149.464 164.692 149.464 164.067 149.464 162.816ZM143.918 158.742C143.918 159.347 144.018 159.771 144.26 159.992C144.442 160.154 144.745 160.214 145.128 160.114C145.511 160.013 145.793 159.791 145.995 159.529C146.257 159.166 146.378 158.661 146.378 158.056C146.378 157.451 146.257 156.927 145.995 156.685C145.793 156.503 145.511 156.423 145.128 156.523C144.745 156.624 144.462 156.866 144.281 157.149C144.018 157.552 143.938 158.137 143.918 158.742ZM147.871 156.987C147.891 157.189 147.911 157.391 147.911 157.613C147.911 157.794 147.891 157.955 147.891 158.117C148.516 157.935 148.839 157.855 149.464 157.693C149.464 157.25 149.464 157.028 149.464 156.564C148.839 156.725 148.516 156.826 147.871 156.987Z" fill="#181919"/>
<path d="M159.79 156.987C159.891 159.145 159.347 160.638 158.701 161.707C158.258 162.433 157.532 162.957 156.684 163.159C155.837 163.381 155.111 163.22 154.668 162.715C154.002 161.969 154.002 160.456 153.962 158.359C153.921 156.281 154.062 154.668 154.728 153.599C155.192 152.873 155.918 152.348 156.765 152.147C157.632 151.945 158.358 152.106 158.822 152.59C159.508 153.337 159.69 154.849 159.79 156.987ZM155.595 157.976C155.636 159.771 155.515 161.001 155.878 161.465C156.059 161.687 156.342 161.767 156.664 161.687C156.987 161.606 157.29 161.384 157.471 161.061C157.814 160.416 158.217 159.166 158.137 157.35C158.056 155.555 157.955 154.264 157.592 153.801C157.411 153.579 157.108 153.498 156.785 153.579C156.442 153.659 156.16 153.881 155.979 154.204C155.615 154.87 155.555 156.201 155.595 157.976ZM162.816 162.272C162.15 162.433 161.828 162.514 161.162 162.675C161.061 158.177 161.283 155.535 161.263 151.037C161.928 150.876 162.251 150.795 162.917 150.634C162.957 155.132 162.715 157.794 162.816 162.272Z" fill="#181919"/>
<path d="M165.761 157.33C169.754 156.443 171.751 156.039 175.764 155.313C175.704 155.918 175.664 156.221 175.603 156.846C174.776 156.987 174.353 157.068 173.526 157.229C173.385 158.439 173.546 158.984 173.566 160.154C172.9 160.275 172.578 160.335 171.912 160.477C171.892 159.307 171.71 158.782 171.852 157.552C170.823 157.754 170.319 157.855 169.31 158.076C169.149 159.287 169.331 159.831 169.371 160.981C168.705 161.122 168.383 161.182 167.737 161.324C167.717 160.154 167.515 159.629 167.677 158.419C166.83 158.601 166.406 158.682 165.579 158.883C165.66 158.238 165.7 157.935 165.761 157.33ZM170.763 152.348C170.016 153.78 168.383 155.172 166.104 155.959C166.184 155.354 166.043 154.991 166.003 154.345C168.463 153.296 169.875 151.663 169.835 149.424C169.835 149.263 169.835 149.182 169.835 149.021C170.5 148.859 170.843 148.799 171.509 148.637C171.509 148.799 171.509 148.879 171.509 149.041C171.549 151.32 173.102 152.348 175.623 152.409C175.664 153.054 175.785 153.417 175.704 154.022C173.526 154.143 171.67 153.458 170.763 152.348Z" fill="#181919"/>
<path d="M182.077 148.274C182.057 147.649 182.057 147.326 182.037 146.701C182.682 146.6 183.025 146.54 183.671 146.459C183.731 148.96 183.751 150.15 183.832 152.449C181.613 152.752 180.504 152.933 178.286 153.317C178.185 150.997 178.144 149.807 178.084 147.407C178.749 147.286 179.072 147.226 179.718 147.104C179.738 147.73 179.738 148.032 179.758 148.657C180.686 148.476 181.15 148.395 182.077 148.274ZM180.323 157.613C183.066 157.189 184.437 157.007 187.16 156.725C187.16 157.29 187.16 157.572 187.18 158.117C183.792 158.48 182.098 158.702 178.669 159.246C178.649 157.915 178.528 157.29 178.669 155.918C181.351 155.475 182.703 155.273 185.385 154.95C185.405 154.688 185.405 154.567 185.425 154.305C182.763 154.648 181.432 154.849 178.749 155.293C178.81 154.728 178.83 154.446 178.891 153.901C182.219 153.337 183.872 153.095 187.16 152.711C187.099 154.083 187.039 154.789 187.039 156.14C184.377 156.443 183.025 156.624 180.343 157.028C180.323 157.25 180.323 157.371 180.323 157.613ZM182.098 149.847C181.17 149.968 180.706 150.049 179.778 150.19C179.798 150.715 179.818 150.997 179.839 151.522C180.766 151.38 181.23 151.3 182.138 151.179C182.138 150.634 182.118 150.372 182.098 149.847ZM187.059 148.395C187.684 148.335 187.987 148.294 188.592 148.234C188.612 148.94 188.612 149.263 188.632 149.888C188.027 149.948 187.704 149.989 187.099 150.049C187.12 150.896 187.12 151.32 187.14 152.147C186.474 152.227 186.151 152.268 185.486 152.348C185.425 149.948 185.385 148.678 185.325 146.056C185.99 145.975 186.333 145.935 186.978 145.854C187.039 146.862 187.039 147.367 187.059 148.395Z" fill="#181919"/>
<path d="M194.219 152.147C194.219 151.804 194.219 151.622 194.219 151.279C192.586 151.38 191.759 151.441 190.105 151.582C190.105 150.997 190.085 150.695 190.085 150.11C194.058 149.767 196.014 149.666 199.867 149.666C199.867 150.251 199.867 150.533 199.867 151.118C198.253 151.118 197.446 151.138 195.813 151.199C195.813 151.542 195.813 151.723 195.813 152.066C197.164 152.006 197.85 151.985 199.201 151.985C199.201 153.337 199.201 154.022 199.201 155.374C196.519 155.394 195.147 155.454 192.384 155.636C192.384 155.878 192.384 155.999 192.384 156.241C195.248 156.039 196.66 155.979 199.443 155.979C199.443 156.544 199.443 156.826 199.443 157.411C196.034 157.431 194.28 157.512 190.75 157.794C190.75 156.443 190.71 155.757 190.75 154.385C193.513 154.143 194.885 154.063 197.587 154.002C197.587 153.76 197.587 153.659 197.587 153.417C194.885 153.478 193.513 153.559 190.75 153.801C190.77 153.236 190.77 152.953 190.791 152.389C192.182 152.268 192.868 152.227 194.219 152.147ZM197.587 147.084C194.844 147.084 193.473 147.125 190.669 147.346C190.649 146.681 190.649 146.358 190.629 145.693C194.078 145.451 195.792 145.43 199.181 145.612C199.181 146.358 199.181 146.721 199.181 147.468C199.181 148.113 199.14 148.738 198.999 149.242C198.374 149.242 198.051 149.263 197.426 149.263C197.547 148.738 197.567 148.133 197.567 147.508C197.587 147.346 197.587 147.266 197.587 147.084Z" fill="#181919"/>
</svg>
