<svg width="212" height="192" viewBox="0 0 212 192" fill="none" xmlns="http://www.w3.org/2000/svg">
<path d="M106 190.246C156.404 190.246 197.265 149.386 197.265 98.9813C197.265 48.5771 156.404 7.71643 106 7.71643C55.5959 7.71643 14.7352 48.5771 14.7352 98.9813C14.7352 149.386 55.5959 190.246 106 190.246Z" fill="#FF88B6"/>
<path d="M48.7195 45.2106C59.1267 35.6303 75.6653 26.4736 91.2963 25.2433" stroke="#181919" stroke-miterlimit="10" stroke-linecap="round" stroke-linejoin="round"/>
<path d="M42.6286 52.8949C44.2326 52.8949 45.5329 51.5946 45.5329 49.9906C45.5329 48.3866 44.2326 47.0862 42.6286 47.0862C41.0246 47.0862 39.7242 48.3866 39.7242 49.9906C39.7242 51.5946 41.0246 52.8949 42.6286 52.8949Z" fill="#FFF58C" stroke="#181919" stroke-miterlimit="10" stroke-linecap="round" stroke-linejoin="round"/>
<path d="M166.245 45.2106C155.838 35.6303 139.299 26.4736 123.668 25.2433" stroke="#181919" stroke-miterlimit="10" stroke-linecap="round" stroke-linejoin="round"/>
<path d="M172.336 52.895C173.94 52.895 175.24 51.5947 175.24 49.9906C175.24 48.3866 173.94 47.0863 172.336 47.0863C170.732 47.0863 169.431 48.3866 169.431 49.9906C169.431 51.5947 170.732 52.895 172.336 52.895Z" fill="#FFF58C" stroke="#181919" stroke-miterlimit="10" stroke-linecap="round" stroke-linejoin="round"/>
<path d="M108.682 15.2797L110.497 20.8665C110.658 21.3909 111.143 21.7338 111.687 21.7338H117.556C118.766 21.7338 119.271 23.2868 118.303 23.9927L113.543 27.4416C113.099 27.7643 112.917 28.3291 113.079 28.8333L114.894 34.4201C115.277 35.5697 113.946 36.5379 112.958 35.8118L108.198 32.3629C107.754 32.0402 107.169 32.0402 106.726 32.3629L101.966 35.8118C100.977 36.5177 99.6663 35.5697 100.029 34.4201L101.845 28.8333C102.006 28.3089 101.824 27.7442 101.381 27.4416L96.6208 23.9927C95.6325 23.2868 96.1368 21.7338 97.3671 21.7338H103.236C103.781 21.7338 104.265 21.3909 104.426 20.8665L106.241 15.2797C106.665 14.1099 108.299 14.1099 108.682 15.2797Z" fill="#FFF58C" stroke="#181919" stroke-miterlimit="10" stroke-linecap="round" stroke-linejoin="round"/>
<path d="M75.2215 92.4667C62.1721 94.1408 49.1631 89.28 37.4852 83.2092C30.8698 79.7602 24.1737 75.5449 20.7046 69.2723C15.4606 81.5553 13.9883 95.2097 14.7951 108.541C15.5211 120.582 18.2843 132.986 25.5048 142.849C37.9088 142.546 49.8488 146.984 61.6881 150.654C70.7843 153.478 80.0217 155.878 89.4003 158.177C91.8206 157.371 93.6156 155.334 95.209 153.337C107.431 138.19 116.487 120.502 121.086 102.007C105.636 98.8402 90.2071 95.6938 75.2215 92.4667Z" fill="#55B381"/>
<path d="M20.2412 69.0101C34.7629 85.9722 58.159 94.9071 80.2844 91.9221C84.9838 91.2968 89.7034 90.1068 93.6363 87.4647C97.5693 84.8226 100.574 80.5064 100.695 75.7667C100.817 71.0269 97.4281 66.1864 92.7489 65.5006C88.0697 64.8149 83.1283 69.3933 84.1972 74.012C81.7568 68.8285 84.0762 62.1727 88.7353 58.8852C93.4145 55.5976 99.8484 55.4161 105.113 57.6347C110.377 59.8533 114.572 64.1695 117.516 69.0706C125.241 81.8174 124.939 98.6383 118.041 111.849C111.143 125.06 98.2349 134.66 83.9552 138.936C69.6755 143.212 54.1655 142.466 39.8455 138.351C30.8501 135.77 21.6127 131.332 17.0948 123.386" stroke="#181919" stroke-miterlimit="10"/>
<path d="M187.18 140.953C188.673 137.161 190.145 133.39 191.637 129.598C192.646 127.056 193.654 124.435 193.795 121.712C191.617 119.836 188.753 118.807 185.849 118.787C182.965 118.767 180.06 119.735 177.761 121.51C172.598 113.705 162.513 109.772 153.639 111.99C144.765 114.209 137.705 122.438 136.878 131.554C132.582 129.517 127.782 130.001 124.374 132.502C120.4 126.714 118.746 119.735 119.452 112.958C115.318 115.157 110.739 116.004 106.322 115.802C101.905 115.621 97.5892 114.451 93.3335 113.241C93.4142 118.243 92.4057 124.253 90.9737 127.883C84.4188 123.547 81.7968 126.189 80.9901 128.206C79.0942 125.887 76.5125 124.172 73.6485 123.547C70.7644 122.902 67.5978 123.426 65.2582 125.221C62.3337 127.46 61.0832 131.272 60.6193 134.922C60.2966 132.321 58.7839 129.699 56.404 128.347C54.0241 126.996 50.8172 127.077 48.7196 128.831C53.1165 125.745 55.4561 120.078 54.7905 114.733C54.1451 109.388 50.6357 104.568 45.9363 101.986C41.2167 99.4047 35.4282 99.0417 30.3053 100.696C28.4699 101.301 26.695 102.148 25.2025 103.358C22.8427 105.234 21.2292 107.876 19.7165 110.478C18.4862 112.575 17.2559 114.774 17.1551 117.194C17.0946 118.585 17.4374 119.957 17.7803 121.308C19.6157 128.367 22.0965 135.245 24.8596 143.333C65.2179 163.825 113.059 169.169 156.926 158.056C167.979 155.233 182.561 152.772 187.18 140.953Z" fill="#FDF28F"/>
<path d="M93.1522 112.898C93.7573 123.386 91.0748 134.035 85.5485 142.97" stroke="#181919" stroke-miterlimit="10" stroke-linecap="round" stroke-linejoin="round"/>
<path d="M119.049 112.737C118.827 123.749 122.901 134.781 130.222 143.01" stroke="#181919" stroke-miterlimit="10" stroke-linecap="round" stroke-linejoin="round"/>
<path d="M123.829 133.551C127.076 128.993 131.857 128.852 136.818 131.453C137.484 122.196 144.603 113.765 153.619 111.547C162.634 109.328 173.042 113.241 177.943 121.107C182.803 117.537 189.298 117.678 193.634 121.853" stroke="#181919" stroke-miterlimit="10" stroke-linecap="round" stroke-linejoin="round"/>
<path d="M135.567 72.5396C136.858 72.7413 139.399 69.0706 140.327 68.1428C145.551 62.919 146.781 61.0836 150.391 54.6699C154.405 47.5099 156.785 39.0389 154.123 22.2582C159.447 24.2348 173.202 36.6186 176.248 39.8255C178.225 41.923 179.697 45.2509 181.411 47.5502C184.477 51.6647 184.981 50.6764 187.26 56.1422C180.907 62.4955 174.634 70.4017 167.696 75.8877C163.239 79.4173 160.96 83.8141 155.413 85.0243C151.622 85.8512 140.206 92.0633 136.414 92.8902C136.071 92.9709 135.749 81.9788 135.406 81.8981C134.901 81.7972 136.777 78.8929 136.414 78.5299C134.579 76.7146 134.014 77.1785 131.795 75.8675C131.856 73.6691 134.7 74.4557 135.567 72.5396Z" fill="white"/>
<path d="M153.962 21.8751C153.962 21.8751 164.47 45.1704 138.008 70.4825C133.188 75.1012 126.371 78.5501 120.199 76.029C103.66 69.1715 110.659 42.4274 124.656 53.5405C120.502 40.9147 104.81 47.6511 103.096 58.1592C97.0853 76.4525 115.58 96.4804 129.658 93.3743C143.635 94.0399 157.028 84.5403 165.176 78.0459C175.119 70.0993 187.261 56.2028 187.261 56.2028" stroke="#181919" stroke-miterlimit="10"/>
<path d="M85.8713 125.604C83.9149 124.858 81.4946 125.685 80.4055 127.46C77.5012 123.789 72.116 122.297 67.7394 123.951C63.3627 125.604 60.297 130.284 60.539 134.963C60.7205 132.139 59.0868 129.275 56.5455 127.984C54.0244 126.694 50.7369 127.057 48.5586 128.852C54.6497 125.524 56.1422 116.811 53.1975 110.518C49.8293 103.338 41.4994 98.8199 33.6335 99.9494C25.7676 101.079 18.8093 108.521 17.1353 117.174" stroke="#181919" stroke-miterlimit="10" stroke-linecap="round" stroke-linejoin="round"/>
<path d="M106 190.246C156.404 190.246 197.265 149.386 197.265 98.9813C197.265 48.5771 156.404 7.71643 106 7.71643C55.5959 7.71643 14.7352 48.5771 14.7352 98.9813C14.7352 149.386 55.5959 190.246 106 190.246Z" stroke="black" stroke-miterlimit="10"/>
<path d="M75.5242 117.214V75.8674L92.6679 60.2162V101.563L75.5242 117.214Z" fill="#B180E0" stroke="#181919" stroke-miterlimit="10" stroke-linecap="round" stroke-linejoin="round"/>
<path d="M135.386 117.214V75.8673L118.242 60.2162V101.563L135.386 117.214Z" fill="#B180E0" stroke="#181919" stroke-miterlimit="10" stroke-linecap="round" stroke-linejoin="round"/>
<path d="M129.759 52.8949C129.759 21.1085 105.455 1 105.455 1C105.455 1 81.1514 21.1085 81.1514 52.8949C81.1514 72.0152 85.0843 90.9942 91.1552 103.096H119.755C125.826 90.9942 129.759 72.0152 129.759 52.8949Z" fill="#5A66FF" stroke="#181919" stroke-miterlimit="10" stroke-linecap="round" stroke-linejoin="round"/>
<path d="M105.455 58.2801C114.088 58.2801 121.086 51.2819 121.086 42.6491C121.086 34.0164 114.088 27.0181 105.455 27.0181C96.8223 27.0181 89.8241 34.0164 89.8241 42.6491C89.8241 51.2819 96.8223 58.2801 105.455 58.2801Z" fill="#EBEBEB" stroke="#181919" stroke-miterlimit="10" stroke-linecap="round" stroke-linejoin="round"/>
<path d="M109.227 74.7381C109.227 73.1851 107.774 71.9144 105.979 71.9144C104.184 71.9144 102.732 73.1851 102.732 74.7381C102.732 74.7986 102.752 74.8389 102.752 74.8995L106 122.841L109.247 74.7986C109.227 74.7583 109.227 74.7381 109.227 74.7381Z" fill="#56B381" stroke="#181919" stroke-miterlimit="10" stroke-linecap="round" stroke-linejoin="round"/>
<path d="M106.463 34.1983L107.996 38.938C108.137 39.3817 108.541 39.6641 109.005 39.6641H113.986C115.015 39.6641 115.439 40.9751 114.612 41.5802L110.578 44.5047C110.215 44.7669 110.053 45.2509 110.195 45.6946L111.727 50.4344C112.05 51.4227 110.921 52.2294 110.094 51.6244L106.06 48.6998C105.697 48.4376 105.193 48.4376 104.809 48.6998L100.776 51.6244C99.9487 52.2294 98.8193 51.4227 99.142 50.4344L100.675 45.6946C100.816 45.2509 100.655 44.7669 100.292 44.5047L96.2578 41.5802C95.4308 40.9751 95.8544 39.6641 96.883 39.6641H101.865C102.329 39.6641 102.732 39.3616 102.873 38.938L104.406 34.1983C104.769 33.21 106.161 33.21 106.463 34.1983Z" fill="#FFF58C" stroke="#181919" stroke-miterlimit="10" stroke-linecap="round" stroke-linejoin="round"/>
<mask id="mask0_457_7746" style="mask-type:luminance" maskUnits="userSpaceOnUse" x="17" y="99" width="177" height="65">
<path d="M187.18 140.953C188.673 137.161 190.145 133.39 191.637 129.598C192.646 127.056 193.654 124.435 193.795 121.712C191.617 119.836 188.753 118.807 185.849 118.787C182.965 118.767 180.06 119.735 177.761 121.51C172.598 113.705 162.513 109.772 153.639 111.99C144.765 114.209 137.705 122.438 136.878 131.554C132.582 129.517 127.782 130.001 124.374 132.502C120.4 126.714 118.746 119.735 119.452 112.958C115.318 115.157 110.739 116.004 106.322 115.802C101.905 115.621 97.5892 114.451 93.3335 113.241C93.4142 118.243 92.4057 124.253 90.9737 127.883C84.4188 123.547 81.7968 126.189 80.9901 128.206C79.0942 125.887 76.5125 124.172 73.6485 123.547C70.7644 122.902 67.5978 123.426 65.2582 125.221C62.3337 127.46 61.0832 131.272 60.6193 134.922C60.2966 132.321 58.7839 129.699 56.404 128.347C54.0241 126.996 50.8172 127.077 48.7196 128.831C53.1165 125.745 55.4561 120.078 54.7905 114.733C54.1451 109.388 50.6357 104.568 45.9363 101.986C41.2167 99.4047 35.4282 99.0417 30.3053 100.696C28.4699 101.301 26.695 102.148 25.2025 103.358C22.8427 105.234 21.2292 107.876 19.7165 110.478C18.4862 112.575 17.2559 114.774 17.1551 117.194C17.0946 118.585 17.4374 119.957 17.7803 121.308C19.6157 128.367 22.0965 135.245 24.8596 143.333C65.2179 163.825 113.059 169.169 156.926 158.056C167.979 155.233 182.561 152.772 187.18 140.953Z" fill="white"/>
</mask>
<g mask="url(#mask0_457_7746)">
<path d="M188.995 76.9163V167.596" stroke="#181919" stroke-miterlimit="10" stroke-linecap="round" stroke-linejoin="round"/>
<path d="M183.651 76.9163V167.596" stroke="#181919" stroke-miterlimit="10" stroke-linecap="round" stroke-linejoin="round"/>
<path d="M178.306 76.9365V167.596" stroke="#181919" stroke-miterlimit="10" stroke-linecap="round" stroke-linejoin="round"/>
<path d="M172.961 76.9365V167.617" stroke="#181919" stroke-miterlimit="10" stroke-linecap="round" stroke-linejoin="round"/>
<path d="M167.616 76.9365V167.617" stroke="#181919" stroke-miterlimit="10" stroke-linecap="round" stroke-linejoin="round"/>
<path d="M162.271 76.9567V167.616" stroke="#181919" stroke-miterlimit="10" stroke-linecap="round" stroke-linejoin="round"/>
<path d="M156.947 76.9567V167.637" stroke="#181919" stroke-miterlimit="10" stroke-linecap="round" stroke-linejoin="round"/>
<path d="M151.602 76.9567V167.637" stroke="#181919" stroke-miterlimit="10" stroke-linecap="round" stroke-linejoin="round"/>
<path d="M146.257 76.9768V167.637" stroke="#181919" stroke-miterlimit="10" stroke-linecap="round" stroke-linejoin="round"/>
<path d="M140.913 76.9768V167.637" stroke="#181919" stroke-miterlimit="10" stroke-linecap="round" stroke-linejoin="round"/>
<path d="M135.568 76.9768V167.657" stroke="#181919" stroke-miterlimit="10" stroke-linecap="round" stroke-linejoin="round"/>
<path d="M130.223 76.9768V167.657" stroke="#181919" stroke-miterlimit="10" stroke-linecap="round" stroke-linejoin="round"/>
<path d="M124.898 76.9971V167.657" stroke="#181919" stroke-miterlimit="10" stroke-linecap="round" stroke-linejoin="round"/>
<path d="M119.553 76.9971V167.677" stroke="#181919" stroke-miterlimit="10" stroke-linecap="round" stroke-linejoin="round"/>
<path d="M114.209 76.9971V167.677" stroke="#181919" stroke-miterlimit="10" stroke-linecap="round" stroke-linejoin="round"/>
<path d="M108.864 77.0172V167.677" stroke="#181919" stroke-miterlimit="10" stroke-linecap="round" stroke-linejoin="round"/>
<path d="M103.519 77.0172V167.697" stroke="#181919" stroke-miterlimit="10" stroke-linecap="round" stroke-linejoin="round"/>
<path d="M98.1741 77.0172V167.697" stroke="#181919" stroke-miterlimit="10" stroke-linecap="round" stroke-linejoin="round"/>
<path d="M92.8496 77.0371V167.697" stroke="#181919" stroke-miterlimit="10" stroke-linecap="round" stroke-linejoin="round"/>
<path d="M87.505 77.0371V167.717" stroke="#181919" stroke-miterlimit="10" stroke-linecap="round" stroke-linejoin="round"/>
<path d="M82.1599 77.0371V167.717" stroke="#181919" stroke-miterlimit="10" stroke-linecap="round" stroke-linejoin="round"/>
<path d="M76.8153 77.0574V167.717" stroke="#181919" stroke-miterlimit="10" stroke-linecap="round" stroke-linejoin="round"/>
<path d="M71.4702 77.0574V167.717" stroke="#181919" stroke-miterlimit="10" stroke-linecap="round" stroke-linejoin="round"/>
<path d="M66.1256 77.0574V167.737" stroke="#181919" stroke-miterlimit="10" stroke-linecap="round" stroke-linejoin="round"/>
<path d="M60.8013 77.0574V167.737" stroke="#181919" stroke-miterlimit="10" stroke-linecap="round" stroke-linejoin="round"/>
<path d="M55.4562 77.0775V167.737" stroke="#181919" stroke-miterlimit="10" stroke-linecap="round" stroke-linejoin="round"/>
<path d="M50.1116 77.0775V167.757" stroke="#181919" stroke-miterlimit="10" stroke-linecap="round" stroke-linejoin="round"/>
<path d="M44.7665 77.0775V167.757" stroke="#181919" stroke-miterlimit="10" stroke-linecap="round" stroke-linejoin="round"/>
<path d="M39.4219 77.0978V167.758" stroke="#181919" stroke-miterlimit="10" stroke-linecap="round" stroke-linejoin="round"/>
<path d="M34.0773 77.0978V167.778" stroke="#181919" stroke-miterlimit="10" stroke-linecap="round" stroke-linejoin="round"/>
<path d="M28.7523 77.0978V167.778" stroke="#181919" stroke-miterlimit="10" stroke-linecap="round" stroke-linejoin="round"/>
<path d="M23.4077 77.1179V167.778" stroke="#181919" stroke-miterlimit="10" stroke-linecap="round" stroke-linejoin="round"/>
<path d="M18.0626 77.1179V167.798" stroke="#181919" stroke-miterlimit="10" stroke-linecap="round" stroke-linejoin="round"/>
</g>
<path d="M211 144.362V177.519C174.817 167.112 142.587 190.811 106 190.811C68.1225 190.508 37.2034 167.112 1 177.519V144.362C37.2438 134.015 68.7276 159.307 106 159.307C140.973 159.589 174.756 134.015 211 144.362Z" fill="white" stroke="#181919" stroke-miterlimit="10"/>
<path d="M20.4829 161.223C19.7366 161.182 19.3736 161.142 18.6072 161.122C18.3651 162.09 18.2441 162.574 18.0021 163.562C17.3163 163.542 16.9533 163.542 16.2676 163.522C16.5096 162.534 16.6306 162.05 16.8726 161.061C16.2676 161.041 15.9852 161.041 15.3801 161.041C15.3801 160.517 15.3801 160.255 15.3801 159.73C16.1062 159.73 16.4693 159.73 17.1953 159.75C17.397 158.964 17.4979 158.561 17.6794 157.774C16.9735 157.754 16.6306 157.754 15.9247 157.734C15.9247 157.209 15.9247 156.947 15.9247 156.423C16.7516 156.423 17.1752 156.443 18.0021 156.463C18.2441 155.475 18.3651 154.991 18.6273 154.002C19.3131 154.022 19.6761 154.043 20.3619 154.103C20.0997 155.091 19.9787 155.575 19.7366 156.544C20.4829 156.584 20.8459 156.624 21.5922 156.685C21.8342 155.717 21.9754 155.233 22.2376 154.244C22.9233 154.305 23.2662 154.345 23.9318 154.406C23.6696 155.374 23.5284 155.878 23.2864 156.826C23.8713 156.886 24.1537 156.927 24.7184 156.987C24.7184 157.512 24.7184 157.774 24.7184 158.298C24.0125 158.218 23.6696 158.177 22.9637 158.097C22.762 158.883 22.6813 159.266 22.4998 160.053C23.2057 160.114 23.5486 160.154 24.2343 160.235C24.2343 160.759 24.2545 161.021 24.2545 161.546C23.4276 161.445 23.0242 161.404 22.1973 161.344C21.9754 162.312 21.8544 162.776 21.6124 163.724C20.9266 163.683 20.5837 163.643 19.898 163.623C20.1198 162.655 20.2409 162.191 20.4829 161.223ZM18.9299 159.811C19.6761 159.851 20.0593 159.872 20.8056 159.932C20.9871 159.145 21.088 158.762 21.2897 157.976C20.5434 157.915 20.1804 157.895 19.4341 157.855C19.2122 158.621 19.1114 159.024 18.9299 159.811Z" fill="#181919"/>
<path d="M33.633 155.313C33.5725 155.898 33.5523 156.201 33.512 156.786C32.5439 156.604 32.0598 156.503 31.1119 156.322C31.0312 157.35 31.0514 157.834 31.0514 158.823C31.0514 161.929 32.3019 163.159 33.6935 163.946C33.7137 164.51 33.7339 164.772 33.754 165.337C32.2817 164.712 30.9505 163.663 30.2446 162.514C29.6194 163.441 28.3084 164.067 26.8562 164.248C26.8361 163.663 26.8361 163.381 26.8361 162.796C28.2076 162.433 29.2765 161.606 29.2765 158.5C29.2765 157.512 29.2765 157.007 29.337 155.999C28.3891 155.838 27.905 155.777 26.9571 155.636C26.9772 155.051 26.9974 154.769 27.0176 154.184C29.6395 154.567 30.9707 154.789 33.633 155.313ZM36.9004 166.628C36.1743 166.487 35.8113 166.406 35.0852 166.285C34.9238 162.271 34.6616 159.992 35.1054 155.414C35.8314 155.555 36.1945 155.636 36.9206 155.777C36.4164 160.376 36.7189 162.655 36.9004 166.628Z" fill="#181919"/>
<path d="M39.8051 159.629C39.8051 158.621 40.3093 157.794 40.995 157.371C41.6001 157.007 42.3665 156.927 43.3145 157.149C44.2624 157.371 44.9683 157.794 45.4524 158.419C45.5734 158.581 45.6742 158.742 45.7751 158.944C46.723 159.166 47.2071 159.287 48.1752 159.508C48.2357 159.065 48.2559 158.843 48.2962 158.399C49.0223 158.56 49.3853 158.661 50.1114 158.823C49.8291 161.505 49.7282 162.776 49.8694 165.337C49.1231 165.176 48.7601 165.095 48.034 164.914C47.9937 164.309 47.9735 164.026 47.9735 163.421C47.0457 163.199 46.5617 163.099 45.6339 162.877C45.4927 163.038 45.3515 163.179 45.1902 163.28C44.6456 163.623 43.9599 163.704 43.0119 163.482C42.064 163.26 41.2976 162.836 40.753 162.251C40.1681 161.566 39.8051 160.658 39.8051 159.629ZM48.155 166.83C45.1498 166.124 43.6573 165.761 40.6925 165.075C40.6521 164.51 40.632 164.228 40.6118 163.663C44.2826 164.51 46.1381 164.974 49.8896 165.821C49.9904 167.536 50.0106 168.282 50.0913 169.815C49.3652 169.633 49.0021 169.532 48.276 169.371C48.2357 168.342 48.2155 167.959 48.155 166.83ZM41.5598 160.033C41.5598 160.638 41.6808 161.122 41.9833 161.465C42.2052 161.727 42.5279 161.949 42.9716 162.05C43.3951 162.151 43.738 162.09 43.9599 161.929C44.2422 161.707 44.3834 161.283 44.3834 160.698C44.3834 160.114 44.3229 159.589 44.0809 159.226C43.8792 158.944 43.5767 158.722 43.1329 158.621C42.6892 158.52 42.3464 158.581 42.1043 158.762C41.7816 158.984 41.5598 159.448 41.5598 160.033ZM46.1381 160.497C46.1381 160.698 46.1583 160.9 46.1583 161.102C46.1583 161.263 46.1381 161.425 46.1381 161.566C46.8844 161.747 47.2474 161.828 47.9937 161.989C47.9937 161.566 47.9533 161.364 48.0139 160.92C47.2474 160.759 46.8642 160.678 46.1381 160.497Z" fill="#181919"/>
<path d="M52.8746 164.994C57.4127 165.963 59.7523 166.265 64.2903 167.334C64.2903 167.919 64.2903 168.201 64.2903 168.786C62.4549 168.343 61.5272 168.141 59.6918 167.778C59.6918 168.544 59.6918 168.927 59.6918 169.714C58.9455 169.553 58.5825 169.492 57.8362 169.331C57.8362 168.564 57.8362 168.181 57.8161 167.415C55.8395 167.032 54.8512 166.83 52.9352 166.406C52.915 165.862 52.8746 165.559 52.8746 164.994ZM53.6814 164.188C53.6814 162.473 53.7419 161.586 53.8629 159.811C57.6547 160.658 59.5909 160.961 63.4836 161.909C63.5037 163.583 63.5037 164.41 63.5037 166.164C59.5909 165.277 57.5942 165.015 53.6814 164.188ZM55.6781 169.734C58.8648 170.46 60.4784 170.783 63.7054 171.59C63.6852 172.215 63.6852 172.538 63.6852 173.163C59.7321 172.094 57.7757 171.63 53.8831 170.642C53.8427 169.411 53.8226 168.827 53.7822 167.495C54.5285 167.657 54.8915 167.737 55.658 167.899C55.658 168.665 55.658 169.008 55.6781 169.734ZM61.628 162.816C59.2481 162.292 58.0379 162.11 55.6378 161.626C55.5975 162.272 55.5773 162.594 55.5773 163.22C57.9976 163.704 59.2279 163.865 61.628 164.369C61.628 163.724 61.628 163.421 61.628 162.816Z" fill="#181919"/>
<path d="M67.3356 168.02C67.3356 167.193 67.7188 166.608 68.3239 166.326C68.8685 166.084 69.6349 166.043 70.5223 166.265C71.4098 166.507 72.1762 166.951 72.7409 167.495C73.3662 168.121 73.7292 168.907 73.7292 169.714C73.7292 170.541 73.3662 171.126 72.7409 171.428C72.398 171.57 71.9543 171.65 71.4703 171.61C71.4703 172.094 71.4703 172.376 71.4501 172.921C72.0552 173.082 72.3577 173.163 72.9829 173.344C74.0116 173.627 74.7578 173.667 75.1814 173.425C75.2822 169.532 75.2217 168.1 75.1612 164.873C75.9276 165.075 76.3108 165.196 77.0571 165.398C77.0773 167.052 77.0974 167.879 77.0773 169.653C77.8437 169.875 78.2269 169.976 78.9933 170.178C78.9933 170.763 78.9933 171.045 78.9933 171.63C78.2269 171.428 77.8437 171.307 77.0773 171.106C77.0773 173.264 77.0571 174.393 76.9966 176.773C76.2302 176.571 75.8469 176.471 75.0805 176.249C75.1007 175.724 75.1007 175.462 75.1209 174.958C74.6973 175.26 73.7494 175.2 72.5594 174.877C70.24 174.232 69.0701 173.909 66.7709 173.264C66.791 172.618 66.7911 172.316 66.8112 171.67C67.9205 171.953 68.4651 172.114 69.5744 172.417C69.5946 171.872 69.5945 171.61 69.5945 171.126C69.0903 170.884 68.6668 170.601 68.3441 170.259C67.6785 169.633 67.3155 168.827 67.3356 168.02ZM71.4501 164.773C72.4989 165.055 73.0031 165.196 74.0519 165.499C74.0519 166.023 74.0721 166.285 74.0721 166.83C71.2282 166.043 69.7962 165.64 66.9726 164.934C66.9726 164.389 66.9726 164.127 66.9524 163.603C67.981 163.865 68.5054 164.006 69.5542 164.288C69.5542 163.804 69.5542 163.562 69.534 163.078C70.3005 163.28 70.6635 163.381 71.4299 163.603C71.4299 164.046 71.4299 164.289 71.4501 164.773ZM69.2113 168.504C69.2113 168.867 69.3727 169.23 69.6147 169.512C69.8366 169.754 70.1593 169.956 70.5223 170.057C70.9055 170.158 71.2081 170.138 71.4299 170.017C71.672 169.875 71.8333 169.593 71.8333 169.23C71.8333 168.867 71.6921 168.504 71.4299 168.221C71.2081 167.979 70.8854 167.778 70.5223 167.677C70.1593 167.576 69.8366 167.596 69.6147 167.717C69.3727 167.879 69.2113 168.141 69.2113 168.504Z" fill="#181919"/>
<path d="M85.0643 168.242C85.0845 170.137 86.1534 171.166 87.7468 171.912C87.7468 172.497 87.7468 172.78 87.7468 173.365C86.2341 172.82 84.8828 171.872 84.1365 170.843C83.4104 171.549 82.0591 171.872 80.5061 171.711C80.5061 171.126 80.5061 170.823 80.5061 170.238C82.16 170.258 83.1684 169.573 83.1482 167.758C83.1482 167.475 83.1482 167.334 83.1482 167.072C83.9147 167.253 84.2979 167.354 85.0643 167.536C85.0643 167.838 85.0643 167.959 85.0643 168.242ZM83.5718 177.096C86.7383 177.862 88.3115 178.205 91.4781 178.75C91.4781 179.314 91.478 179.597 91.4579 180.161C87.5249 179.516 85.5484 179.072 81.6154 178.104C81.6557 176.632 81.6759 175.825 81.6759 174.474C84.7618 175.281 86.3148 175.664 89.4208 176.309C89.4208 176.027 89.4208 175.906 89.4208 175.623C86.3148 174.978 84.7819 174.595 81.6759 173.788C81.6759 173.244 81.6759 172.981 81.6759 172.437C85.5282 173.445 87.4644 173.929 91.3167 174.655C91.3167 175.987 91.3167 176.652 91.2965 178.044C88.1905 177.479 86.6375 177.136 83.5516 176.37C83.5718 176.672 83.5718 176.813 83.5718 177.096ZM89.441 173.808C89.441 171.63 89.441 170.561 89.4208 168.463C90.1872 168.625 90.5704 168.685 91.3369 168.826C91.3369 170.944 91.357 172.013 91.3369 174.191C90.5906 174.05 90.2074 173.97 89.441 173.808Z" fill="#181919"/>
<path d="M97.2059 169.351C97.9723 169.432 98.3555 169.472 99.1219 169.532C99.1219 169.916 99.1219 170.117 99.1219 170.5C100.171 170.581 100.695 170.621 101.744 170.642C101.744 171.186 101.744 171.448 101.744 171.993C98.8396 171.892 97.3874 171.731 94.4629 171.287C94.4629 170.763 94.4629 170.48 94.4629 169.956C95.552 170.117 96.1168 170.178 97.2059 170.299C97.2059 169.936 97.2059 169.734 97.2059 169.351ZM94.8461 173.828C94.8461 173.163 95.2092 172.679 95.7941 172.376C96.379 172.094 97.2059 172.013 98.1337 172.114C99.0614 172.215 99.8884 172.457 100.473 172.84C101.058 173.243 101.421 173.788 101.421 174.454C101.421 175.139 101.058 175.664 100.473 175.986C99.8884 176.309 99.0614 176.43 98.1337 176.349C97.2059 176.269 96.379 175.966 95.7941 175.543C95.189 175.099 94.8461 174.494 94.8461 173.828ZM95.6327 176.632C99.485 177.136 101.401 177.277 105.253 177.176C105.253 178.81 105.253 179.617 105.253 181.251C101.401 181.351 99.485 181.23 95.6125 180.787C95.6327 179.092 95.6327 178.266 95.6327 176.632ZM96.6613 174.07C96.6613 174.292 96.7823 174.494 96.984 174.655C97.2462 174.877 97.6496 175.018 98.1337 175.059C98.5976 175.099 99.0211 175.038 99.2833 174.877C99.485 174.756 99.606 174.575 99.606 174.353C99.606 174.131 99.485 173.929 99.2833 173.788C99.0211 173.586 98.6177 173.465 98.1337 173.405C97.6496 173.344 97.2462 173.405 96.984 173.566C96.7823 173.667 96.6613 173.849 96.6613 174.07ZM97.5488 178.286C97.5488 178.79 97.5488 179.032 97.5488 179.536C99.8884 179.758 101.038 179.839 103.357 179.839C103.357 179.355 103.357 179.092 103.357 178.608C101.038 178.588 99.8682 178.508 97.5488 178.286ZM103.357 176.733C103.357 175.926 103.357 175.523 103.357 174.716C102.672 174.716 102.329 174.696 101.643 174.675C101.643 174.111 101.643 173.828 101.643 173.264C102.329 173.284 102.672 173.304 103.357 173.304C103.357 171.993 103.357 171.348 103.357 170.037C104.124 170.037 104.507 170.037 105.253 170.016C105.253 172.699 105.253 174.03 105.253 176.713C104.487 176.733 104.104 176.733 103.357 176.733Z" fill="#181919"/>
<path d="M117.738 176.491C116.971 176.632 116.588 176.693 115.822 176.834C115.58 177.882 115.459 178.387 115.217 179.436C114.511 179.536 114.148 179.597 113.442 179.698C113.684 178.669 113.805 178.145 114.047 177.116C113.442 177.197 113.139 177.237 112.534 177.318C112.534 176.793 112.534 176.511 112.534 175.987C113.26 175.886 113.644 175.845 114.37 175.724C114.571 174.877 114.672 174.474 114.874 173.667C114.148 173.788 113.805 173.829 113.079 173.929C113.079 173.425 113.079 173.163 113.079 172.639C113.926 172.538 114.349 172.457 115.197 172.336C115.459 171.328 115.58 170.783 115.822 169.714C116.528 169.593 116.891 169.533 117.597 169.412C117.355 170.48 117.234 171.045 116.971 172.054C117.738 171.912 118.121 171.852 118.888 171.711C119.15 170.702 119.271 170.138 119.513 169.048C120.219 168.907 120.562 168.827 121.267 168.685C121.025 169.795 120.925 170.359 120.662 171.368C121.267 171.247 121.57 171.186 122.175 171.045C122.175 171.549 122.175 171.791 122.155 172.296C121.409 172.457 121.046 172.538 120.299 172.699C120.098 173.506 119.997 173.929 119.795 174.776C120.521 174.635 120.884 174.555 121.61 174.393C121.61 174.938 121.61 175.2 121.61 175.745C120.743 175.926 120.32 176.027 119.472 176.188C119.23 177.237 119.109 177.782 118.867 178.83C118.161 178.972 117.798 179.032 117.092 179.153C117.375 178.064 117.496 177.54 117.738 176.491ZM116.145 175.422C116.911 175.281 117.314 175.22 118.081 175.079C118.282 174.232 118.383 173.808 118.585 173.002C117.819 173.143 117.435 173.223 116.649 173.365C116.447 174.171 116.346 174.595 116.145 175.422Z" fill="#181919"/>
<path d="M124.555 171.065C124.555 170.521 124.898 170.057 125.442 169.674C126.088 169.21 126.995 168.827 127.984 168.564C128.972 168.322 129.92 168.242 130.525 168.383C131.049 168.504 131.372 168.806 131.372 169.331C131.372 169.855 131.029 170.339 130.485 170.743C130.061 171.045 129.517 171.307 128.911 171.529C128.911 171.771 128.911 171.892 128.911 172.134C129.557 171.973 129.88 171.872 130.545 171.711C131.594 171.428 132.219 171.126 132.643 170.743C132.623 168.363 132.683 167.475 132.643 164.994C133.409 164.793 133.792 164.692 134.539 164.47C134.559 165.882 134.599 166.709 134.579 167.919C135.305 167.717 135.668 167.616 136.374 167.415C136.374 167.939 136.354 168.222 136.354 168.746C135.628 168.948 135.285 169.048 134.559 169.25C134.539 170.38 134.559 171.065 134.559 172.336C133.792 172.538 133.429 172.659 132.663 172.86C132.663 172.538 132.663 172.376 132.663 172.054C132.219 172.497 131.473 172.881 130.041 173.244C127.661 173.869 126.471 174.171 124.091 174.736C124.091 174.192 124.091 173.909 124.091 173.365C125.261 173.082 125.846 172.941 127.016 172.639C127.016 172.397 127.016 172.276 127.016 172.033C126.39 172.134 125.826 172.154 125.422 172.054C124.878 171.912 124.555 171.59 124.555 171.065ZM128.932 166.608C130.021 166.326 130.565 166.184 131.654 165.882C131.675 166.426 131.675 166.709 131.675 167.253C128.71 168.04 127.237 168.443 124.252 169.129C124.252 168.585 124.232 168.322 124.232 167.778C125.342 167.516 125.886 167.374 126.995 167.092C126.995 166.689 126.975 166.507 126.975 166.104C127.742 165.902 128.125 165.801 128.891 165.6C128.911 166.023 128.932 166.205 128.932 166.608ZM134.579 172.699C134.599 174.01 134.599 174.676 134.619 175.987C133.853 176.188 133.49 176.309 132.723 176.511C132.723 175.745 132.703 175.361 132.703 174.615C129.617 175.462 128.064 175.866 124.938 176.612C124.938 176.067 124.938 175.785 124.918 175.24C128.79 174.292 130.727 173.768 134.579 172.699ZM126.37 170.622C126.37 170.763 126.471 170.843 126.632 170.884C126.895 170.924 127.379 170.884 127.964 170.722C128.548 170.561 129.032 170.38 129.315 170.198C129.476 170.077 129.577 169.956 129.577 169.815C129.577 169.674 129.496 169.593 129.335 169.573C129.073 169.512 128.589 169.593 128.004 169.734C127.399 169.896 126.935 170.057 126.653 170.259C126.471 170.339 126.37 170.48 126.37 170.622Z" fill="#181919"/>
<path d="M144.866 161.808C144.866 162.393 144.865 162.695 144.886 163.28C143.938 163.542 143.474 163.663 142.526 163.926C142.526 163.966 142.526 163.966 142.526 164.006C142.546 166.023 143.494 166.386 145.108 166.265C145.108 166.83 145.108 167.112 145.108 167.717C143.615 167.899 142.324 167.677 141.618 167.032C140.852 168.06 139.541 169.17 138.028 169.734C138.028 169.129 138.028 168.847 138.028 168.302C139.682 167.556 140.67 166.568 140.63 164.51C140.63 164.47 140.63 164.47 140.63 164.43C139.682 164.692 139.218 164.833 138.27 165.095C138.25 164.49 138.25 164.188 138.25 163.563C140.912 162.836 142.223 162.473 144.866 161.808ZM138.815 172.336C138.815 171.59 139.158 170.944 139.722 170.4C140.63 169.533 142.082 168.907 143.696 168.484C145.289 168.06 146.741 167.919 147.629 168.282C148.193 168.524 148.536 168.968 148.536 169.674C148.536 170.38 148.193 171.005 147.629 171.529C146.741 172.376 145.309 173.002 143.716 173.445C142.122 173.889 140.65 174.091 139.743 173.748C139.178 173.526 138.835 173.082 138.815 172.336ZM140.711 171.812C140.711 172.094 140.852 172.255 141.134 172.336C141.638 172.497 142.586 172.336 143.736 172.013C144.886 171.691 145.813 171.348 146.318 170.904C146.58 170.682 146.701 170.44 146.701 170.158C146.701 169.896 146.56 169.734 146.297 169.633C145.793 169.472 144.865 169.613 143.696 169.936C142.546 170.238 141.598 170.602 141.094 171.045C140.832 171.287 140.69 171.549 140.711 171.812ZM148.254 163.22C148.94 163.038 149.303 162.937 150.029 162.756C150.029 163.32 150.029 163.623 150.049 164.228C149.323 164.41 148.94 164.51 148.254 164.692C148.254 165.68 148.254 166.184 148.254 167.193C147.508 167.374 147.145 167.475 146.398 167.657C146.398 165.095 146.419 163.905 146.398 161.304C147.145 161.122 147.508 161.021 148.254 160.86C148.254 161.788 148.254 162.272 148.254 163.22Z" fill="#181919"/>
<path d="M161.263 165.58C160.476 165.761 160.073 165.842 159.286 166.023C158.923 167.052 158.863 167.536 158.621 168.544C157.894 168.706 157.531 168.807 156.805 168.968C157.047 167.959 157.088 167.475 157.451 166.447C156.825 166.588 156.523 166.669 155.898 166.81C155.958 166.285 155.978 166.023 156.039 165.499C156.805 165.317 157.168 165.237 157.935 165.055C158.237 164.208 158.358 163.784 158.52 162.897C157.773 163.079 157.41 163.159 156.664 163.321C156.644 162.776 156.624 162.494 156.604 161.949C157.471 161.747 157.915 161.626 158.782 161.425C158.984 160.315 159.125 159.852 159.387 158.823C160.113 158.641 160.496 158.561 161.222 158.379C160.98 159.408 160.819 159.872 160.637 160.981C161.424 160.799 161.827 160.719 162.634 160.537C162.836 159.428 162.977 158.944 163.219 157.895C163.945 157.734 164.308 157.633 165.054 157.472C164.812 158.52 164.671 159.025 164.47 160.134C165.095 159.993 165.417 159.932 166.043 159.811C166.083 160.356 166.083 160.638 166.123 161.203C165.357 161.364 164.974 161.445 164.207 161.606C164.046 162.494 163.925 162.937 163.602 163.764C164.369 163.603 164.732 163.522 165.498 163.361C165.438 163.885 165.397 164.147 165.337 164.672C164.449 164.853 164.006 164.954 163.098 165.156C162.715 166.185 162.674 166.669 162.432 167.657C161.706 167.818 161.343 167.899 160.597 168.06C160.839 167.092 160.9 166.628 161.263 165.58ZM159.79 164.652C160.597 164.47 161 164.39 161.787 164.208C162.09 163.381 162.231 162.937 162.392 162.05C161.585 162.231 161.182 162.312 160.375 162.494C160.214 163.381 160.093 163.825 159.79 164.652Z" fill="#181919"/>
<path d="M172.739 156.564C172.779 158.661 173.949 159.387 175.663 159.549C175.684 160.154 175.704 160.456 175.643 161.041C174.07 161.061 172.678 160.658 171.872 159.912C171.186 160.981 169.754 161.949 168.06 162.534C168.14 161.969 168.14 161.666 168.1 161.041C169.835 160.214 170.762 158.903 170.722 156.947C170.702 156.402 170.702 156.12 170.702 155.575C171.509 155.414 171.892 155.333 172.699 155.172C172.719 155.737 172.719 156.019 172.739 156.564ZM169.25 162.816C173.283 162.029 175.321 161.687 179.334 161.122C179.213 162.917 179.233 163.784 179.253 165.539C175.22 166.063 173.162 166.406 169.108 167.173C169.068 165.458 169.028 164.591 169.25 162.816ZM171.085 163.845C171.004 164.51 171.065 164.813 171.085 165.438C173.546 164.994 174.776 164.793 177.216 164.43C177.216 163.784 177.156 163.482 177.216 162.816C174.776 163.199 173.546 163.401 171.085 163.845ZM177.378 160.9C177.579 158.419 177.317 157.048 177.257 154.285C178.043 154.164 178.447 154.103 179.253 153.982C179.314 156.765 179.536 158.137 179.375 160.597C178.568 160.739 178.164 160.779 177.378 160.9Z" fill="#181919"/>
<path d="M183.287 159.287C183.267 158.46 183.63 157.734 184.275 157.209C184.82 156.766 185.627 156.443 186.534 156.362C187.442 156.281 188.249 156.483 188.814 156.846C189.459 157.25 189.822 157.915 189.822 158.742C189.822 159.549 189.459 160.255 188.793 160.759C188.43 161.021 187.987 161.223 187.482 161.364C187.462 161.848 187.462 162.09 187.482 162.574C188.108 162.534 188.43 162.514 189.056 162.473C190.104 162.413 190.871 162.231 191.294 161.909C191.294 158.48 191.314 156.806 191.274 153.095C192.061 153.095 192.444 153.095 193.21 153.135C193.231 154.97 193.231 155.898 193.231 157.653C193.997 157.633 194.38 157.633 195.147 157.633C195.147 158.198 195.147 158.48 195.147 159.065C194.38 159.065 193.997 159.065 193.231 159.085C193.231 161.203 193.231 162.252 193.231 164.349C192.464 164.369 192.081 164.369 191.294 164.41C191.294 163.946 191.294 163.724 191.294 163.26C190.871 163.643 189.923 163.865 188.672 163.926C186.272 164.067 185.062 164.188 182.622 164.45C182.622 163.885 182.622 163.603 182.601 163.038C183.771 162.917 184.336 162.857 185.506 162.736C185.506 162.252 185.506 162.009 185.526 161.525C185.002 161.465 184.578 161.344 184.235 161.142C183.61 160.739 183.307 160.114 183.287 159.287ZM187.482 154.244C188.551 154.184 189.096 154.164 190.165 154.123C190.165 154.749 190.185 155.051 190.185 155.676C187.281 155.797 185.808 155.918 182.843 156.241C182.823 155.596 182.823 155.273 182.803 154.628C183.892 154.507 184.437 154.466 185.506 154.365C185.486 153.781 185.486 153.498 185.486 152.913C186.272 152.853 186.676 152.833 187.442 152.792C187.482 153.377 187.482 153.66 187.482 154.244ZM185.244 159.085C185.244 159.448 185.385 159.751 185.627 159.932C185.849 160.093 186.171 160.174 186.555 160.134C186.938 160.093 187.261 159.972 187.503 159.771C187.765 159.549 187.926 159.226 187.926 158.863C187.926 158.5 187.765 158.198 187.503 157.996C187.281 157.834 186.938 157.734 186.555 157.774C186.171 157.814 185.849 157.935 185.627 158.157C185.385 158.379 185.223 158.722 185.244 159.085Z" fill="#181919"/>
<path d="M58.9252 66.8114C59.6513 65.2181 60.1757 63.5441 60.5186 61.8499C60.68 60.9826 60.801 60.075 60.5186 59.248C60.2362 58.4211 59.4698 57.695 58.5824 57.7354C57.5134 57.7959 56.8478 58.8648 56.2831 59.7926C55.7184 60.7204 54.8713 61.7087 53.8225 61.507C53.3788 61.4263 52.9956 61.1238 52.5518 61.0028C51.8661 60.8011 51.1198 61.0834 50.5349 61.5272C49.466 62.3541 48.9012 63.7659 49.0828 65.0971C49.2643 66.4282 50.2122 67.6182 51.4627 68.1224C51.9871 68.3241 52.5518 68.425 53.0561 68.7073C54.6696 69.6149 55.0125 72.1562 56.8075 72.6605C57.3319 72.8016 57.8966 72.7411 58.421 72.6403C59.3085 72.4789 60.2161 72.2167 60.8413 71.5713C61.4666 70.9259 61.7287 69.8368 61.1842 69.1309C60.801 68.6468 60.1556 68.4451 59.6513 68.0619C59.1673 67.6787 58.8446 66.8719 58.9252 66.8114Z" fill="#9F80B9" stroke="#1D1D1B" stroke-miterlimit="10"/>
<path d="M173.324 87.7873C172.054 90.1673 169.896 91.922 167.516 92.5069C166.184 92.8296 164.793 92.8094 163.482 93.2733C161.868 93.8582 160.436 95.2297 159.67 96.9441C159.024 98.3963 158.843 100.211 159.609 101.502C160.86 103.58 163.663 103.156 165.842 102.39C167.879 101.684 169.875 100.857 171.852 99.9089C173.486 99.1223 175.119 98.2551 176.511 96.9441C177.64 95.8751 178.568 94.5238 179.214 93.0313C179.839 91.5791 180.202 89.9051 179.859 88.3924C179.476 86.6982 178.165 85.3872 176.632 85.1654C175.14 84.9233 174.272 86.0326 173.324 87.7873Z" fill="#9F80B9" stroke="#1D1D1B" stroke-miterlimit="10"/>
</svg>
