<svg width="212" height="185" viewBox="0 0 212 185" fill="none" xmlns="http://www.w3.org/2000/svg">
<path d="M17.7805 109.842C20.5638 125.998 29.0752 141.104 41.4186 151.875C44.0809 154.194 46.9247 156.332 50.0308 157.966C54.4075 160.285 59.248 158.752 64.0886 159.68C73.4268 161.475 82.987 164.743 92.4866 165.166C103.701 165.65 114.935 166.134 125.967 164.803C144.866 162.544 162.957 155.082 179.032 148.567C182.662 147.639 186.696 146.389 188.39 143.061C189.479 140.903 189.278 138.361 189.52 135.961C189.721 133.944 190.226 131.968 190.75 129.991C192.868 121.903 194.965 113.816 197.204 105.728C194.421 102.965 190.488 101.755 186.736 100.645C146.318 88.7254 115.741 93.1021 77.7027 94.0097C73.9714 94.0904 58.8245 99.4553 55.1739 98.7091C52.9351 98.2654 50.7165 97.62 48.4173 97.499C45.5331 97.3376 42.6691 98.0032 39.8656 98.7091C32.1005 100.686 24.4363 103.025 16.8931 105.768C17.2158 107.341 17.6192 108.854 17.7805 109.842Z" fill="#FF88B6"/>
<mask id="mask0_418_25178" style="mask-type:luminance" maskUnits="userSpaceOnUse" x="16" y="92" width="182" height="74">
<path d="M17.7805 109.842C20.5638 125.998 29.0752 141.104 41.4186 151.875C44.0809 154.194 46.9247 156.332 50.0308 157.966C54.4075 160.285 59.248 158.752 64.0886 159.68C73.4268 161.475 82.987 164.743 92.4866 165.166C103.701 165.65 114.935 166.134 125.967 164.803C144.866 162.544 162.957 155.082 179.032 148.567C182.662 147.639 186.696 146.389 188.39 143.061C189.479 140.903 189.278 138.361 189.52 135.961C189.721 133.944 190.226 131.968 190.75 129.991C192.868 121.903 194.965 113.816 197.204 105.728C194.421 102.965 190.488 101.755 186.736 100.645C146.318 88.7254 115.741 93.1021 77.7027 94.0097C73.9714 94.0904 58.8245 99.4553 55.1739 98.7091C52.9351 98.2654 50.7165 97.62 48.4173 97.499C45.5331 97.3376 42.6691 98.0032 39.8656 98.7091C32.1005 100.686 24.4363 103.025 16.8931 105.768C17.2158 107.341 17.6192 108.854 17.7805 109.842Z" fill="white"/>
</mask>
<g mask="url(#mask0_418_25178)">
<path d="M237.522 85.2161L174.232 150.523" stroke="#181919" stroke-miterlimit="10" stroke-linecap="round" stroke-linejoin="round"/>
<path d="M230.947 85.4379L167.656 150.725" stroke="#181919" stroke-miterlimit="10" stroke-linecap="round" stroke-linejoin="round"/>
<path d="M224.352 85.6395L161.061 150.947" stroke="#181919" stroke-miterlimit="10" stroke-linecap="round" stroke-linejoin="round"/>
<path d="M217.756 85.8414L154.466 151.149" stroke="#181919" stroke-miterlimit="10" stroke-linecap="round" stroke-linejoin="round"/>
<path d="M211.181 86.0632L147.891 151.35" stroke="#181919" stroke-miterlimit="10" stroke-linecap="round" stroke-linejoin="round"/>
<path d="M204.586 86.2649L141.295 151.572" stroke="#181919" stroke-miterlimit="10" stroke-linecap="round" stroke-linejoin="round"/>
<path d="M197.991 86.4666L134.7 151.774" stroke="#181919" stroke-miterlimit="10" stroke-linecap="round" stroke-linejoin="round"/>
<path d="M191.396 86.6884L128.105 151.976" stroke="#181919" stroke-miterlimit="10" stroke-linecap="round" stroke-linejoin="round"/>
<path d="M184.82 86.89L121.53 152.197" stroke="#181919" stroke-miterlimit="10" stroke-linecap="round" stroke-linejoin="round"/>
<path d="M178.225 87.0919L114.935 152.399" stroke="#181919" stroke-miterlimit="10" stroke-linecap="round" stroke-linejoin="round"/>
<path d="M171.63 87.3137L108.339 152.601" stroke="#181919" stroke-miterlimit="10" stroke-linecap="round" stroke-linejoin="round"/>
<path d="M165.055 87.5154L101.764 152.823" stroke="#181919" stroke-miterlimit="10" stroke-linecap="round" stroke-linejoin="round"/>
<path d="M158.459 87.717L95.1691 153.024" stroke="#181919" stroke-miterlimit="10" stroke-linecap="round" stroke-linejoin="round"/>
<path d="M151.864 87.9388L88.5737 153.226" stroke="#181919" stroke-miterlimit="10" stroke-linecap="round" stroke-linejoin="round"/>
<path d="M145.289 88.1405L81.9987 153.448" stroke="#181919" stroke-miterlimit="10" stroke-linecap="round" stroke-linejoin="round"/>
<path d="M138.694 88.3423L75.4033 153.65" stroke="#181919" stroke-miterlimit="10" stroke-linecap="round" stroke-linejoin="round"/>
<path d="M132.098 88.5642L68.808 153.851" stroke="#181919" stroke-miterlimit="10" stroke-linecap="round" stroke-linejoin="round"/>
<path d="M125.503 88.7659L62.2128 154.073" stroke="#181919" stroke-miterlimit="10" stroke-linecap="round" stroke-linejoin="round"/>
<path d="M118.928 88.9674L55.6376 154.275" stroke="#181919" stroke-miterlimit="10" stroke-linecap="round" stroke-linejoin="round"/>
<path d="M112.333 89.1893L49.0422 154.476" stroke="#181919" stroke-miterlimit="10" stroke-linecap="round" stroke-linejoin="round"/>
<path d="M105.737 89.3909L42.447 154.698" stroke="#181919" stroke-miterlimit="10" stroke-linecap="round" stroke-linejoin="round"/>
<path d="M99.1623 89.5928L35.8718 154.9" stroke="#181919" stroke-miterlimit="10" stroke-linecap="round" stroke-linejoin="round"/>
<path d="M92.5675 89.8147L29.2771 155.102" stroke="#181919" stroke-miterlimit="10" stroke-linecap="round" stroke-linejoin="round"/>
<path d="M85.9721 90.0162L22.6816 155.324" stroke="#181919" stroke-miterlimit="10" stroke-linecap="round" stroke-linejoin="round"/>
<path d="M79.397 90.2179L16.0864 155.525" stroke="#181919" stroke-miterlimit="10" stroke-linecap="round" stroke-linejoin="round"/>
<path d="M72.8017 90.4397L9.51123 155.727" stroke="#181919" stroke-miterlimit="10" stroke-linecap="round" stroke-linejoin="round"/>
<path d="M66.2064 90.6414L2.91602 155.949" stroke="#181919" stroke-miterlimit="10" stroke-linecap="round" stroke-linejoin="round"/>
<path d="M59.611 90.8433L-3.67944 156.151" stroke="#181919" stroke-miterlimit="10" stroke-linecap="round" stroke-linejoin="round"/>
<path d="M53.036 91.0651L-10.2544 156.352" stroke="#181919" stroke-miterlimit="10" stroke-linecap="round" stroke-linejoin="round"/>
<path d="M46.4406 91.2667L-16.8499 156.574" stroke="#181919" stroke-miterlimit="10" stroke-linecap="round" stroke-linejoin="round"/>
<path d="M39.8454 91.4684L-23.4451 156.776" stroke="#181919" stroke-miterlimit="10" stroke-linecap="round" stroke-linejoin="round"/>
<path d="M33.2702 91.6902L-30.0203 156.977" stroke="#181919" stroke-miterlimit="10" stroke-linecap="round" stroke-linejoin="round"/>
</g>
<path d="M197.688 104.76C177.217 98.0031 158.399 88.1807 137.443 92.5574C128.428 94.4331 115.58 90.5607 105.435 91.2868C81.3131 93.0415 57.0296 94.8365 33.6133 100.827C28.2484 102.198 22.8431 103.832 18.2244 106.877C13.7065 84.6108 18.6075 60.3878 31.435 41.3281C44.2625 22.2684 64.8552 7.60546 87.747 3.26912C100.131 0.263933 113.22 0.243763 125.624 3.20861C128.246 3.83385 130.828 4.60028 133.43 5.34653C136.133 6.13312 138.855 6.93988 141.497 7.90799C148.274 10.409 154.587 14.0797 160.557 18.1539C165.378 21.4414 170.037 25.0315 173.949 29.3477C177.842 33.6235 180.928 38.5448 184.014 43.4458C186.232 46.9754 188.451 50.505 190.085 54.3371C191.033 56.5557 191.779 58.8751 192.505 61.1744C196.115 72.4489 199.786 84.1066 198.535 95.8652C198.112 99.7779 198.092 101.351 197.688 105.042C197.588 103.852 197.608 104.497 197.688 104.76Z" fill="#5A66FF"/>
<path d="M197.406 104.881C182.965 98.7088 167.273 96.0667 151.663 94.4128C118.263 90.8833 84.3988 91.7505 51.2207 96.9945C39.6841 98.8097 28.0869 101.21 17.5183 106.212" stroke="#181919" stroke-miterlimit="10" stroke-linecap="round" stroke-linejoin="round"/>
<path d="M87.001 127.167V74.8085C87.001 72.7513 88.675 71.0773 90.7323 71.0773H124.455C126.512 71.0773 128.186 72.7513 128.186 74.8085V127.188C128.186 129.245 126.512 130.919 124.455 130.919H90.7323C88.6548 130.899 87.001 129.245 87.001 127.167Z" fill="#EBEBEB" stroke="#181919" stroke-miterlimit="10" stroke-linecap="round" stroke-linejoin="round"/>
<path d="M123.83 73.8606H91.3376C90.4703 73.8606 89.7644 74.5665 89.7644 75.4338V126.542C89.7644 127.409 90.4703 128.115 91.3376 128.115H123.83C124.697 128.115 125.403 127.409 125.403 126.542V75.4338C125.403 74.5665 124.697 73.8606 123.83 73.8606Z" fill="#FF88B6" stroke="#181919" stroke-miterlimit="10" stroke-linecap="round" stroke-linejoin="round"/>
<path d="M99.062 104.901V96.1879H116.085V104.901C116.085 109.6 112.273 113.412 107.573 113.412C102.874 113.412 99.062 109.6 99.062 104.901Z" fill="#EBEBEB" stroke="#181919" stroke-miterlimit="10" stroke-linecap="round" stroke-linejoin="round"/>
<path d="M102.309 96.4501V111.234" stroke="#181919" stroke-miterlimit="10" stroke-linecap="round" stroke-linejoin="round"/>
<path d="M106.484 96.9745V113.069" stroke="#181919" stroke-miterlimit="10" stroke-linecap="round" stroke-linejoin="round"/>
<path d="M109.752 96.8331V112.928" stroke="#181919" stroke-miterlimit="10" stroke-linecap="round" stroke-linejoin="round"/>
<path d="M113.16 96.7123V110.528" stroke="#181919" stroke-miterlimit="10" stroke-linecap="round" stroke-linejoin="round"/>
<path d="M104.246 91.6902V95.845" stroke="#181919" stroke-miterlimit="10" stroke-linecap="round" stroke-linejoin="round"/>
<path d="M111.406 91.6902V95.845" stroke="#181919" stroke-miterlimit="10" stroke-linecap="round" stroke-linejoin="round"/>
<path d="M104.246 91.6497C105.103 91.6497 105.799 90.9544 105.799 90.0967C105.799 89.239 105.103 88.5437 104.246 88.5437C103.388 88.5437 102.693 89.239 102.693 90.0967C102.693 90.9544 103.388 91.6497 104.246 91.6497Z" fill="#EBEBEB" stroke="#181919" stroke-miterlimit="10" stroke-linecap="round" stroke-linejoin="round"/>
<path d="M111.426 91.6497C112.284 91.6497 112.979 90.9544 112.979 90.0967C112.979 89.239 112.284 88.5437 111.426 88.5437C110.568 88.5437 109.873 89.239 109.873 90.0967C109.873 90.9544 110.568 91.6497 111.426 91.6497Z" fill="#EBEBEB" stroke="#181919" stroke-miterlimit="10" stroke-linecap="round" stroke-linejoin="round"/>
<path d="M89.7239 67.0637L107.594 52.058L125.443 67.0637" fill="#EBEBEB"/>
<path d="M89.7239 67.0637L107.594 52.058L125.443 67.0637" stroke="black" stroke-miterlimit="10" stroke-linecap="round" stroke-linejoin="round"/>
<path d="M107.775 56.6565H107.372C105.698 56.6565 104.346 55.3052 104.346 53.6311V51.1302C104.346 50.6259 104.75 50.2024 105.274 50.2024H109.873C110.377 50.2024 110.8 50.6058 110.8 51.1302V53.6311C110.8 55.3052 109.449 56.6565 107.775 56.6565Z" fill="#EBEBEB" stroke="black" stroke-miterlimit="10"/>
<path d="M44.2827 56.5558L62.1525 41.55L80.0021 56.5558" fill="#EBEBEB"/>
<path d="M44.2827 56.5558L62.1525 41.55L80.0021 56.5558" stroke="black" stroke-miterlimit="10" stroke-linecap="round" stroke-linejoin="round"/>
<path d="M62.3542 46.1485H61.9508C60.2767 46.1485 58.9254 44.7972 58.9254 43.1232V40.6222C58.9254 40.118 59.3288 39.6945 59.8532 39.6945H64.4517C64.9559 39.6945 65.3795 40.0978 65.3795 40.6222V43.1232C65.3795 44.7972 64.008 46.1485 62.3542 46.1485Z" fill="#EBEBEB" stroke="black" stroke-miterlimit="10"/>
<path d="M41.7416 116.599L41.3786 64.8049C41.3584 62.5863 43.1534 60.7711 45.372 60.7711L78.5097 60.5291C80.7283 60.5089 82.5435 62.304 82.5637 64.5226L82.9267 116.317C82.9469 118.535 81.1519 120.35 78.9333 120.35L45.7955 120.592C43.577 120.613 41.7618 118.818 41.7416 116.599Z" fill="#EBEBEB" stroke="#181919" stroke-miterlimit="10" stroke-linecap="round" stroke-linejoin="round"/>
<path d="M79.7805 65.0067C79.7805 64.0789 79.0141 63.3326 78.0863 63.3326L45.8361 63.5545C44.9083 63.5545 44.162 64.3209 44.162 65.2487L44.5251 116.115C44.5251 117.043 45.2915 117.789 46.2193 117.789L78.4695 117.567C79.3973 117.567 80.1436 116.801 80.1436 115.873L79.7805 65.0067Z" fill="#B180E0" stroke="#181919" stroke-miterlimit="10" stroke-linecap="round" stroke-linejoin="round"/>
<path d="M62.3343 102.925C56.6264 102.965 51.9674 98.3663 51.927 92.6787C51.8867 87.2532 56.2634 82.816 61.6888 82.7757H62.1729C67.7396 82.7353 72.2776 87.2129 72.318 92.7795C72.3986 98.3462 67.9211 102.884 62.3343 102.925Z" fill="#EBEBEB" stroke="#181919" stroke-miterlimit="10" stroke-linecap="round" stroke-linejoin="round"/>
<path d="M54.2263 98.7092L69.7968 99.0521" stroke="#181919" stroke-miterlimit="10" stroke-linecap="round" stroke-linejoin="round"/>
<path d="M52.8751 94.2115L71.9349 94.0905" stroke="#181919" stroke-miterlimit="10" stroke-linecap="round" stroke-linejoin="round"/>
<path d="M52.6935 90.3389L71.7532 90.1978" stroke="#181919" stroke-miterlimit="10" stroke-linecap="round" stroke-linejoin="round"/>
<path d="M55.1136 86.3052L68.8689 86.2043" stroke="#181919" stroke-miterlimit="10" stroke-linecap="round" stroke-linejoin="round"/>
<path d="M61.709 85.1758C62.1325 83.0782 63.3225 81.142 64.9562 79.7906C65.7629 79.1452 66.6504 78.6007 67.5984 78.1771" stroke="#181919" stroke-miterlimit="10" stroke-linecap="round" stroke-linejoin="round"/>
<path d="M135.165 56.5558L153.014 41.55L170.884 56.5558" fill="#EBEBEB"/>
<path d="M135.165 56.5558L153.014 41.55L170.884 56.5558" stroke="black" stroke-miterlimit="10" stroke-linecap="round" stroke-linejoin="round"/>
<path d="M153.216 46.1485H152.813C151.139 46.1485 149.787 44.7972 149.787 43.1232V40.6222C149.787 40.118 150.191 39.6945 150.715 39.6945H155.314C155.818 39.6945 156.242 40.0978 156.242 40.6222V43.1232C156.242 44.7972 154.89 46.1485 153.216 46.1485Z" fill="#EBEBEB" stroke="black" stroke-miterlimit="10"/>
<path d="M132.422 116.458V64.6637C132.422 62.4451 134.217 60.65 136.456 60.65H169.593C171.812 60.65 173.607 62.4451 173.607 64.6637V116.458C173.607 118.676 171.812 120.471 169.573 120.471H136.435C134.237 120.471 132.422 118.676 132.422 116.458Z" fill="#EBEBEB" stroke="#181919" stroke-miterlimit="10" stroke-linecap="round" stroke-linejoin="round"/>
<path d="M169.15 63.4333H136.899C135.971 63.4333 135.205 64.1998 135.205 65.1275V115.994C135.205 116.922 135.951 117.688 136.899 117.688H169.15C170.077 117.688 170.844 116.922 170.844 115.994V65.1275C170.844 64.1998 170.077 63.4333 169.15 63.4333Z" fill="#56B381" stroke="#181919" stroke-miterlimit="10" stroke-linecap="round" stroke-linejoin="round"/>
<path d="M144.503 96.2284V81.9487H161.526V96.2284C161.526 97.8621 160.195 99.1731 158.581 99.1731H147.468C145.834 99.1731 144.503 97.8621 144.503 96.2284Z" fill="#EBEBEB" stroke="#181919" stroke-miterlimit="10" stroke-linecap="round" stroke-linejoin="round"/>
<path d="M151.925 82.7151V98.81" stroke="#181919" stroke-miterlimit="10" stroke-linecap="round" stroke-linejoin="round"/>
<path d="M155.193 82.594V98.6889" stroke="#181919" stroke-miterlimit="10" stroke-linecap="round" stroke-linejoin="round"/>
<path d="M128.186 33.5833C129.79 33.5833 131.09 32.283 131.09 30.679C131.09 29.075 129.79 27.7747 128.186 27.7747C126.582 27.7747 125.281 29.075 125.281 30.679C125.281 32.283 126.582 33.5833 128.186 33.5833Z" fill="#FFF58C" stroke="#181919" stroke-miterlimit="10" stroke-linecap="round" stroke-linejoin="round"/>
<path d="M88.836 33.5833C90.44 33.5833 91.7403 32.283 91.7403 30.679C91.7403 29.075 90.44 27.7747 88.836 27.7747C87.232 27.7747 85.9316 29.075 85.9316 30.679C85.9316 32.283 87.232 33.5833 88.836 33.5833Z" fill="#FFF58C" stroke="#181919" stroke-miterlimit="10" stroke-linecap="round" stroke-linejoin="round"/>
<path d="M109.711 16.1774L111.526 21.7642C111.688 22.2886 112.172 22.6315 112.716 22.6315H118.585C119.796 22.6315 120.3 24.1845 119.332 24.8904L114.572 28.3393C114.128 28.662 113.947 29.2268 114.108 29.731L115.923 35.3178C116.306 36.4675 114.975 37.4356 113.987 36.7095L109.227 33.2606C108.783 32.9379 108.198 32.9379 107.755 33.2606L102.995 36.7095C102.006 37.4154 100.696 36.4675 101.059 35.3178L102.874 29.731C103.035 29.2066 102.854 28.6419 102.41 28.3393L97.65 24.8904C96.6617 24.1845 97.1659 22.6315 98.3962 22.6315H104.265C104.81 22.6315 105.294 22.2886 105.455 21.7642L107.271 16.1774C107.694 15.0076 109.328 15.0076 109.711 16.1774Z" fill="#FFF58C" stroke="#181919" stroke-miterlimit="10" stroke-linecap="round" stroke-linejoin="round"/>
<mask id="mask1_418_25178" style="mask-type:luminance" maskUnits="userSpaceOnUse" x="16" y="1" width="183" height="183">
<path d="M107.27 183.56C157.675 183.56 198.535 142.7 198.535 92.2954C198.535 41.8912 157.675 1.03052 107.27 1.03052C56.8663 1.03052 16.0056 41.8912 16.0056 92.2954C16.0056 142.7 56.8663 183.56 107.27 183.56Z" fill="white"/>
</mask>
<g mask="url(#mask1_418_25178)">
<path d="M143.998 141.367C150.957 137.373 154.708 130.596 155.817 123.84C156.927 117.083 155.696 110.226 154.446 103.489C154.083 101.513 153.76 99.3343 155.091 97.6603C157.108 95.119 162.11 95.0988 165.095 96.9141C168.08 98.7494 169.431 101.795 170.198 104.719C170.662 106.494 171.953 108.854 174.151 108.37C175.563 108.068 176.107 106.736 176.289 105.587C176.531 104.014 176.511 102.4 176.208 100.827C175.906 99.2738 175.341 97.7208 175.442 96.1476C175.543 94.5745 176.531 92.9004 178.387 92.3559C181.311 91.5088 184.236 93.9492 184.82 96.3897C185.083 97.4788 185.083 98.6284 185.627 99.6369C186.172 100.645 187.523 101.533 188.874 101.25C190.669 100.867 190.972 98.9713 190.891 97.4788C190.71 94.0702 190.528 90.6617 190.347 87.2531C190.246 85.4782 190.649 83.1789 192.828 82.7957C195.046 82.4125 196.619 84.4496 197.245 86.1841C200.028 93.7475 199.282 101.876 197.003 109.54C196.176 112.343 195.127 115.127 193.473 117.708C191.738 120.391 189.379 122.791 186.978 125.131C183.207 128.781 179.254 132.371 174.474 135.175C165.922 140.197 154.91 142.456 143.998 141.367Z" fill="#B180E0" stroke="#1D1D1B" stroke-miterlimit="10"/>
</g>
<mask id="mask2_418_25178" style="mask-type:luminance" maskUnits="userSpaceOnUse" x="16" y="1" width="183" height="183">
<path d="M107.27 183.56C157.675 183.56 198.535 142.7 198.535 92.2954C198.535 41.8912 157.675 1.03052 107.27 1.03052C56.8663 1.03052 16.0056 41.8912 16.0056 92.2954C16.0056 142.7 56.8663 183.56 107.27 183.56Z" fill="white"/>
</mask>
<g mask="url(#mask2_418_25178)">
<path d="M16.6917 105.264C16.0866 101.392 15.5017 97.358 16.7926 93.6267C18.0834 89.8954 21.8348 86.507 26.2317 86.628C29.5394 86.7289 32.4841 88.7659 34.1178 91.3274C35.7514 93.8687 36.296 96.8739 36.5179 99.7984C36.6591 101.654 36.7196 103.59 37.6473 105.244C38.5751 106.918 40.6525 108.249 42.6896 107.806C45.6343 107.16 46.2191 103.752 47.8932 101.513C50.3135 98.2655 56.1221 97.5798 59.4097 100.161C61.9711 102.178 62.7174 105.365 63.7259 108.269C64.7142 111.174 66.5092 114.3 69.7968 115.107C75.666 116.519 81.3132 109.54 87.0211 111.416C89.6632 112.283 91.1356 114.824 91.66 117.265C92.1844 119.725 92.0432 122.267 92.6483 124.687C92.9105 125.736 93.3744 126.825 94.3223 127.49C96.6216 129.104 100.05 127.43 101.825 125.353C103.6 123.275 104.951 120.653 107.674 119.685C111.688 118.253 116.024 121.46 117.759 124.969C119.473 128.499 119.755 132.513 121.873 135.861C126.331 142.859 137.424 144.311 145.995 141.75C157.673 138.281 166.729 128.64 168.484 117.809C168.968 114.844 168.948 111.819 169.654 108.915C170.38 105.99 171.993 103.066 174.898 101.533C177.802 100 182.118 100.444 183.832 103.025C185.123 104.941 184.68 107.362 185.043 109.56C185.406 111.759 187.443 114.239 189.863 113.614C190.791 113.372 191.497 112.727 192.082 112.041C194.078 109.701 195.026 106.656 194.704 103.731C194.522 102.118 193.957 100.444 194.623 98.9311C195.288 97.4185 197.951 96.5915 198.899 97.9832C199.282 98.5479 199.221 99.274 199.544 99.8589C200.492 101.593 203.8 100.767 204.647 98.9916C205.494 97.2168 204.869 95.1797 204.647 93.2636C204.425 91.3476 204.99 88.9878 207.027 88.3021C207.773 87.9188 208.398 88.9676 208.479 89.7341C210.072 104.901 207.511 120.572 199.726 134.146C197.769 137.555 195.49 140.822 192.505 143.565C188.713 147.054 183.893 149.555 178.992 151.693C157.714 160.991 133.491 164.279 109.812 163.028C86.1337 161.778 62.9595 156.131 40.9349 148.325C37.2036 146.994 33.3916 145.542 30.568 143C26.6955 139.471 26.9779 133.824 24.0937 129.628C18.5271 121.581 17.4984 110.427 16.6917 105.264Z" fill="#56B381" stroke="black" stroke-miterlimit="10"/>
</g>
<path d="M107.27 183.56C157.675 183.56 198.535 142.7 198.535 92.2954C198.535 41.8912 157.675 1.03052 107.27 1.03052C56.8663 1.03052 16.0056 41.8912 16.0056 92.2954C16.0056 142.7 56.8663 183.56 107.27 183.56Z" stroke="#181919" stroke-miterlimit="10"/>
<path d="M211 137.676V170.834C174.817 160.426 142.587 184.125 106 184.125C68.1225 183.822 37.2034 160.426 1 170.834V137.676C37.2437 127.329 68.7276 152.621 106 152.621C140.973 152.903 174.756 127.309 211 137.676Z" fill="white" stroke="#181919" stroke-miterlimit="10"/>
<path d="M17.5989 154.214C16.9334 154.174 16.5905 154.154 15.9048 154.134C15.6829 155.142 15.582 155.646 15.3602 156.635C14.7349 156.614 14.4122 156.614 13.787 156.614C14.0088 155.606 14.1097 155.102 14.3316 154.093C13.787 154.093 13.5248 154.073 12.9802 154.073C12.9802 153.529 12.9802 153.266 12.9802 152.722C13.6458 152.722 13.9685 152.722 14.6139 152.742C14.7954 151.935 14.8761 151.512 15.0576 150.705C14.4122 150.685 14.1097 150.685 13.4643 150.685C13.4643 150.14 13.4643 149.878 13.4643 149.333C14.2307 149.333 14.5938 149.354 15.34 149.374C15.5619 148.365 15.6829 147.861 15.9048 146.853C16.53 146.873 16.8527 146.893 17.4779 146.933C17.2561 147.942 17.1351 148.446 16.9132 149.454C17.5788 149.495 17.9216 149.515 18.5872 149.555C18.8091 148.547 18.9301 148.043 19.1519 147.034C19.7772 147.075 20.0797 147.115 20.6848 147.175C20.4428 148.184 20.3217 148.688 20.0999 149.676C20.6243 149.717 20.8865 149.757 21.4109 149.797C21.4109 150.342 21.4109 150.604 21.4109 151.129C20.7655 151.068 20.463 151.028 19.8176 150.967C19.636 151.774 19.5553 152.177 19.394 152.984C20.0192 153.045 20.3419 153.065 20.9671 153.125C20.9671 153.67 20.9672 153.932 20.9873 154.477C20.2411 154.396 19.8781 154.376 19.1116 154.315C18.9099 155.303 18.7889 155.788 18.5872 156.776C17.962 156.735 17.6595 156.715 17.0342 156.695C17.2762 155.707 17.3973 155.203 17.5989 154.214ZM16.1871 152.782C16.8728 152.803 17.2157 152.823 17.8813 152.863C18.0628 152.056 18.1435 151.653 18.325 150.846C17.6594 150.806 17.3166 150.786 16.6308 150.745C16.4493 151.572 16.3686 151.976 16.1871 152.782Z" fill="#181919"/>
<path d="M23.3267 152.077C23.3267 149.293 23.5888 148.002 24.2544 147.357C24.5771 147.014 25.0612 146.873 25.6865 146.974C26.3117 147.054 26.7554 147.337 27.0579 147.76C27.3605 148.204 27.5622 148.829 27.6227 149.737C28.0462 149.818 28.2479 149.838 28.6714 149.918C28.7319 148.95 28.7723 148.486 28.8328 147.518C29.4581 147.619 29.7807 147.68 30.4261 147.801C30.0631 152.399 30.285 154.699 30.4261 158.833C29.8009 158.732 29.4782 158.672 28.8328 158.571C28.7925 157.401 28.7925 156.857 28.7521 155.626C28.3488 155.546 28.1269 155.525 27.7235 155.445C27.6226 156.453 27.4008 156.998 27.0579 157.341C26.7554 157.643 26.2915 157.764 25.6663 157.663C25.0612 157.583 24.5771 157.341 24.2544 156.957C23.609 156.171 23.3267 154.86 23.3267 152.077ZM24.8998 152.278C24.8998 154.598 25.0209 155.606 25.2427 156.01C25.3436 156.171 25.4847 156.252 25.6259 156.272C25.7873 156.292 25.9083 156.252 25.989 156.131C26.2108 155.808 26.1907 154.82 26.1907 152.5C26.1907 150.181 26.1705 149.172 25.9486 148.749C25.8679 148.587 25.7469 148.507 25.5856 148.486C25.4444 148.466 25.3032 148.507 25.2024 148.648C24.9805 148.971 24.8998 149.979 24.8998 152.278ZM27.7235 151.189C27.7437 151.653 27.7639 152.157 27.7639 152.722C27.7639 153.186 27.7639 153.589 27.7639 153.972C28.1269 154.033 28.3286 154.073 28.6916 154.134C28.6513 153.024 28.6513 152.46 28.6513 151.35C28.2882 151.29 28.1067 151.27 27.7235 151.189ZM31.0716 159.055C30.9304 154.88 30.6883 152.54 31.0716 147.841C31.717 147.962 32.0195 148.023 32.6649 148.144C32.2414 152.843 32.5036 155.203 32.6649 159.337C32.0397 159.216 31.717 159.156 31.0716 159.055Z" fill="#181919"/>
<path d="M39.059 155.989C39.0388 155.727 39.0389 155.586 39.0187 155.323C37.385 154.94 36.5783 154.759 34.9446 154.416C34.9446 153.851 34.9446 153.569 34.9446 153.004C38.8372 153.851 40.7734 154.335 44.7467 155.263C44.7467 155.828 44.7467 156.11 44.7467 156.675C43.0928 156.292 42.2659 156.09 40.6121 155.707C40.6322 155.969 40.6322 156.11 40.6524 156.372C42.0239 156.695 42.7097 156.856 44.0811 157.179C44.1618 158.47 44.2223 159.176 44.2828 160.325C41.5398 159.68 40.1885 159.357 37.4455 158.752C37.4455 158.934 37.4657 159.035 37.4657 159.216C40.2894 159.841 41.7012 160.164 44.545 160.85C44.5652 161.334 44.5853 161.576 44.6055 162.06C41.1163 161.213 39.3818 160.809 35.8925 160.104C35.832 158.934 35.8118 158.43 35.7513 157.139C38.4741 157.724 39.8255 158.046 42.5685 158.692C42.5483 158.49 42.5483 158.369 42.5281 158.167C39.7851 157.522 38.4338 157.199 35.7311 156.614C35.6908 156.07 35.6908 155.787 35.6504 155.243C37.0219 155.505 37.7077 155.666 39.059 155.989ZM39.8456 152.177C38.8775 152.883 37.3043 153.044 35.2269 152.742C35.2269 152.177 35.1866 151.915 35.2471 151.33C37.4657 151.572 39.1196 151.189 39.2809 149.777C39.2809 149.717 39.2809 149.696 39.3011 149.656C39.9465 149.797 40.2894 149.878 40.9348 150.039C40.9348 150.1 40.9348 150.12 40.9146 150.16C40.7331 151.572 42.2256 152.702 44.424 153.468C44.3433 154.073 44.4039 154.315 44.4039 154.88C42.3265 154.234 40.5919 153.286 39.8456 152.177Z" fill="#181919"/>
<path d="M51.0595 155.162C51.0595 154.759 51.12 154.537 51.1401 154.113C49.5871 153.771 48.8207 153.589 47.308 153.246C47.3887 152.621 47.4089 152.318 47.4896 151.713C49.6476 152.217 50.7367 152.48 52.9352 152.964C52.8747 153.912 52.8343 154.376 52.7536 155.324C52.4309 159.761 51.3217 162.12 47.4089 162.08C47.3887 161.515 47.3685 161.233 47.3282 160.648C50.0308 160.547 51.0595 158.49 51.0595 155.162ZM56.142 158.006C56.8479 158.147 57.1908 158.208 57.9169 158.329C57.9169 158.914 57.9169 159.216 57.9169 159.801C57.211 159.68 56.848 159.599 56.1622 159.478C56.2026 161.636 56.2026 162.705 56.2429 164.803C55.5773 164.642 55.2344 164.561 54.5688 164.379C54.468 160.063 54.3268 157.744 54.5688 153.105C55.2344 153.246 55.5773 153.327 56.2429 153.468C56.1622 155.283 56.142 156.191 56.142 158.006Z" fill="#181919"/>
<path d="M67.5981 164.138C66.9124 163.956 66.5695 163.875 65.8838 163.694C65.6619 164.662 65.5207 165.227 65.2988 166.296C64.6736 166.134 64.3509 166.054 63.7257 165.872C63.9677 164.823 64.0887 164.279 64.3106 163.29C63.766 163.149 63.5038 163.089 62.9592 162.968C62.9592 162.423 62.9592 162.141 62.9592 161.596C63.6046 161.758 63.9475 161.818 64.5929 161.979C64.7744 161.193 64.8753 160.79 65.0568 160.023C64.4114 159.862 64.1089 159.781 63.4635 159.64C63.4635 159.095 63.4635 158.833 63.4635 158.289C64.2097 158.47 64.5929 158.551 65.3392 158.732C65.561 157.764 65.6619 157.32 65.8838 156.413C66.509 156.574 66.8317 156.655 67.4771 156.816C67.2552 157.724 67.1544 158.147 66.9325 159.115C67.6183 159.297 67.9612 159.378 68.6469 159.559C68.8688 158.591 68.9696 158.168 69.1915 157.26C69.8167 157.421 70.1394 157.522 70.7646 157.684C70.5428 158.571 70.442 158.994 70.2201 159.963C70.7647 160.104 71.0269 160.184 71.5714 160.326C71.5714 160.87 71.5714 161.132 71.5714 161.677C70.9059 161.495 70.5831 161.415 69.9176 161.233C69.736 162.02 69.6352 162.403 69.4537 163.19C70.0991 163.371 70.4419 163.452 71.0873 163.633C71.0873 164.178 71.0873 164.46 71.0873 165.025C70.3209 164.823 69.9377 164.702 69.1713 164.501C68.9495 165.469 68.8082 166.054 68.5662 167.123C67.941 166.941 67.6183 166.86 66.993 166.699C67.2552 165.691 67.3763 165.106 67.5981 164.138ZM66.1863 162.383C66.872 162.564 67.2149 162.645 67.9007 162.827C68.0822 162.04 68.183 161.637 68.3645 160.87C67.6788 160.689 67.3359 160.608 66.63 160.426C66.4485 161.213 66.3678 161.596 66.1863 162.383Z" fill="#181919"/>
<path d="M74.0519 161.475C74.0519 160.971 74.3141 160.689 74.7982 160.547C75.5242 160.366 76.7949 160.547 78.5092 161.011C80.2236 161.475 81.5144 162 82.2405 162.585C82.7246 162.968 82.9868 163.411 82.9868 163.916C82.9868 164.4 82.7246 164.702 82.2405 164.843C81.6355 165.025 80.6472 164.944 79.3362 164.662C79.3362 164.843 79.3362 164.944 79.3362 165.146C81.0909 165.63 81.9582 165.852 83.7129 166.296C83.7129 166.86 83.7129 167.143 83.7129 167.707C79.5379 166.659 77.4605 166.054 73.3057 164.904C73.3057 164.339 73.3057 164.057 73.3057 163.492C75.02 163.976 75.8873 164.218 77.6219 164.682C77.6219 164.48 77.6219 164.4 77.6219 164.198C76.3512 163.774 75.3831 163.331 74.778 162.827C74.3141 162.403 74.0519 161.959 74.0519 161.475ZM77.6017 159.236C77.6017 158.934 77.6017 158.793 77.6017 158.51C78.3076 158.692 78.6505 158.793 79.3564 158.974C79.3564 159.277 79.3564 159.418 79.3564 159.7C80.9497 160.124 81.7363 160.326 83.3297 160.729C83.3297 161.233 83.3297 161.475 83.3499 161.979C79.4976 160.991 77.5613 160.447 73.7292 159.378C73.7292 158.894 73.7292 158.652 73.7091 158.167C75.2621 158.591 76.0285 158.793 77.6017 159.236ZM73.8099 167.647C73.8301 166.981 74.1124 166.578 74.6368 166.396C75.4638 166.134 76.8554 166.356 78.5294 166.82C80.2035 167.284 81.6153 167.788 82.422 168.494C82.9464 168.938 83.2086 169.482 83.1885 170.128C83.1683 170.793 82.8859 171.197 82.3615 171.398C81.5346 171.741 80.1228 171.56 78.4286 171.136C76.7546 170.692 75.3427 170.148 74.5561 169.361C74.0519 168.897 73.7897 168.312 73.8099 167.647ZM75.5243 168.111C75.5243 168.272 75.6049 168.393 75.7663 168.534C76.21 168.918 77.2588 169.26 78.4689 169.583C79.6791 169.906 80.7279 170.108 81.1918 169.966C81.3531 169.906 81.454 169.845 81.454 169.684C81.454 169.543 81.3733 169.422 81.212 169.281C80.7682 168.918 79.7194 168.555 78.5092 168.232C77.2991 167.909 76.2504 167.707 75.7865 167.828C75.6251 167.889 75.5444 167.97 75.5243 168.111ZM75.7865 161.959C75.7865 162.06 75.847 162.181 76.0083 162.282C76.3713 162.564 77.1781 162.827 78.5496 163.21C79.9211 163.593 80.7077 163.754 81.0909 163.674C81.2321 163.653 81.3128 163.573 81.3128 163.472C81.3128 163.351 81.2522 163.25 81.0909 163.129C80.7278 162.847 79.9211 162.585 78.5496 162.221C77.1781 161.858 76.3915 161.677 76.0083 161.737C75.847 161.778 75.7865 161.838 75.7865 161.959Z" fill="#181919"/>
<path d="M93.979 164.864C93.979 164.037 93.979 163.613 93.979 162.786C94.6647 162.887 95.0075 162.948 95.7135 163.048C95.7135 165.812 95.7135 167.203 95.7135 170.007C94.2411 169.805 93.4949 169.684 92.0226 169.402C92.0226 170.309 92.0226 170.753 92.0226 171.701C93.7369 172.003 94.584 172.145 96.2984 172.366C96.2984 172.972 96.2984 173.274 96.2984 173.879C92.1637 173.375 90.0863 172.972 85.9517 172.064C85.9718 171.418 85.9718 171.096 85.9718 170.45C87.7064 170.854 88.5736 171.035 90.3082 171.378C90.3283 170.43 90.3284 169.986 90.3284 169.079C88.8359 168.776 88.0896 168.615 86.5971 168.252C86.5971 165.428 86.5971 164.016 86.5769 161.334C87.2626 161.495 87.6257 161.576 88.3115 161.717C88.3115 162.524 88.3115 162.948 88.3317 163.754C90.5704 164.258 91.72 164.501 93.979 164.864ZM93.979 166.356C91.6999 165.973 90.5704 165.751 88.2913 165.247C88.2913 166.013 88.2913 166.376 88.2913 167.143C90.5704 167.647 91.6999 167.869 93.979 168.252C93.979 167.486 93.979 167.122 93.979 166.356Z" fill="#181919"/>
<path d="M98.5978 172.629C102.712 173.032 104.749 173.052 108.884 172.79C108.884 173.375 108.884 173.677 108.884 174.262C104.77 174.525 102.732 174.484 98.5978 174.121C98.5978 173.536 98.5978 173.234 98.5978 172.629ZM106.585 165.852C106.585 164.985 106.585 164.541 106.585 163.674C107.27 163.653 107.613 163.633 108.319 163.593C108.319 166.437 108.319 167.849 108.319 170.713C104.669 170.914 102.853 170.894 99.2028 170.551C99.2028 167.707 99.2028 166.275 99.2028 163.452C99.8886 163.512 100.231 163.532 100.937 163.593C100.937 164.46 100.937 164.904 100.937 165.771C103.176 165.892 104.306 165.912 106.585 165.852ZM106.585 167.344C104.326 167.405 103.196 167.405 100.917 167.244C100.917 168.03 100.917 168.413 100.917 169.2C103.176 169.341 104.306 169.361 106.585 169.301C106.585 168.514 106.585 168.111 106.585 167.344Z" fill="#181919"/>
<path d="M115.237 168.252C116.024 168.131 116.528 167.929 116.891 167.607C116.911 165.61 116.911 164.581 116.891 162.463C117.537 162.363 117.88 162.302 118.525 162.181C118.545 163.391 118.545 164.057 118.545 165.206C118.908 165.146 119.09 165.106 119.453 165.045C119.453 163.895 119.433 163.21 119.433 161.959C120.098 161.838 120.421 161.757 121.086 161.636C121.127 165.106 121.086 166.598 121.107 169.986C120.441 170.128 120.118 170.188 119.453 170.309C119.453 168.756 119.433 167.97 119.453 166.497C119.09 166.558 118.908 166.598 118.545 166.659C118.525 168.05 118.545 168.796 118.545 170.249C117.9 170.37 117.557 170.41 116.911 170.531C116.911 169.906 116.911 169.583 116.911 168.938C116.528 169.341 115.943 169.603 114.774 169.765C113.442 169.946 112.777 170.027 111.446 170.168C111.446 168.494 111.446 167.667 111.446 166.033C112.555 165.932 113.12 165.872 114.249 165.731C114.249 165.227 114.249 164.944 114.249 164.4C113.12 164.541 112.575 164.601 111.446 164.722C111.446 164.158 111.446 163.875 111.446 163.31C113.241 163.129 114.128 163.008 115.923 162.726C115.943 164.42 115.943 165.267 115.923 166.86C114.794 167.022 114.229 167.102 113.1 167.243C113.1 167.768 113.1 168.03 113.1 168.575C113.967 168.433 114.39 168.393 115.237 168.252ZM112.252 174.545C112.252 173.052 112.252 172.306 112.252 170.813C112.938 170.733 113.301 170.692 113.987 170.612C113.987 171.499 113.987 171.963 113.987 172.85C116.912 172.487 118.384 172.225 121.308 171.66C121.308 172.266 121.308 172.568 121.308 173.173C117.698 173.879 115.883 174.182 112.252 174.545Z" fill="#181919"/>
<path d="M129.477 165.59C127.359 166.134 126.31 166.396 124.192 166.88C124.172 164.521 124.233 163.553 124.192 161.112C126.512 160.588 127.661 160.305 129.981 159.7C130.001 160.326 130.001 160.648 130.001 161.273C128.367 161.697 127.561 161.879 125.927 162.262C125.947 163.472 125.927 163.996 125.927 165.065C127.54 164.682 128.367 164.48 129.981 164.077C130.949 163.835 131.514 163.573 131.917 163.19C131.937 161.677 131.917 160.789 131.877 159.035C132.562 158.853 132.905 158.752 133.611 158.571C133.672 161.394 133.591 162.423 133.631 165.126C132.946 165.307 132.603 165.408 131.897 165.59C131.897 165.126 131.877 164.884 131.897 164.46C131.473 164.904 130.767 165.267 129.477 165.59ZM124.737 170.107C124.737 169.26 125.16 168.575 125.806 168.01C126.713 167.243 128.045 166.739 129.295 166.417C130.546 166.094 131.897 165.933 132.784 166.235C133.43 166.457 133.873 166.941 133.894 167.808C133.894 168.655 133.47 169.402 132.825 169.966C131.937 170.753 130.586 171.277 129.335 171.58C128.085 171.882 126.734 172.044 125.826 171.701C125.181 171.459 124.757 170.934 124.737 170.107ZM126.471 169.704C126.471 170.007 126.633 170.168 126.915 170.269C127.46 170.45 128.428 170.309 129.315 170.087C130.223 169.865 131.191 169.502 131.736 169.059C131.998 168.817 132.159 168.575 132.159 168.272C132.159 167.99 131.998 167.828 131.715 167.728C131.171 167.546 130.203 167.707 129.295 167.929C128.388 168.151 127.44 168.474 126.895 168.938C126.633 169.18 126.471 169.422 126.471 169.704Z" fill="#181919"/>
<path d="M144.785 163.694C144.099 163.875 143.777 163.976 143.091 164.158C142.889 165.267 142.768 165.811 142.566 166.921C141.941 167.102 141.618 167.183 140.993 167.364C141.195 166.255 141.316 165.69 141.518 164.581C140.973 164.722 140.711 164.803 140.166 164.964C140.166 164.4 140.166 164.117 140.146 163.553C140.792 163.371 141.134 163.27 141.78 163.109C141.961 162.221 142.042 161.778 142.244 160.951C141.598 161.132 141.296 161.213 140.65 161.394C140.65 160.89 140.67 160.648 140.67 160.144C141.417 159.922 141.8 159.821 142.546 159.62C142.788 158.591 142.869 157.986 143.091 156.816C143.716 156.635 144.039 156.554 144.664 156.393C144.462 157.542 144.361 158.147 144.119 159.176C144.805 158.994 145.128 158.893 145.814 158.712C146.056 157.683 146.136 157.078 146.358 155.949C146.983 155.787 147.286 155.707 147.911 155.545C147.689 156.655 147.609 157.24 147.367 158.288C147.891 158.147 148.153 158.067 148.698 157.925C148.698 158.45 148.698 158.712 148.698 159.236C148.052 159.398 147.73 159.499 147.084 159.66C146.903 160.507 146.802 160.931 146.64 161.818C147.286 161.657 147.609 161.556 148.254 161.394C148.254 161.939 148.254 162.221 148.254 162.766C147.508 162.968 147.125 163.068 146.378 163.27C146.177 164.359 146.056 164.924 145.854 166.013C145.229 166.195 144.926 166.275 144.301 166.457C144.482 165.348 144.583 164.783 144.785 163.694ZM143.373 162.685C144.059 162.504 144.402 162.403 145.087 162.221C145.269 161.334 145.35 160.89 145.531 160.063C144.845 160.245 144.503 160.346 143.817 160.527C143.635 161.354 143.534 161.778 143.373 162.685Z" fill="#181919"/>
<path d="M152.853 157.28C155.858 156.514 157.371 156.151 160.396 155.425C160.416 155.989 160.436 156.272 160.477 156.816C158.924 157.179 158.137 157.361 156.604 157.724C156.604 157.966 156.645 158.107 156.624 158.349C158.46 157.926 159.367 157.704 161.203 157.28C161.142 157.825 161.102 158.107 161.041 158.652C156.725 159.66 154.446 160.205 150.412 161.213C150.412 160.648 150.412 160.386 150.412 159.821C152.086 159.418 153.034 159.196 154.85 158.773C154.87 158.531 154.85 158.41 154.829 158.168C153.337 158.531 152.51 158.732 151.118 159.055C151.118 157.058 151.118 156.05 151.118 154.053C154.587 153.226 156.564 152.742 160.275 151.834C160.275 152.339 160.275 152.601 160.275 153.105C157.29 153.831 155.797 154.214 152.873 154.961C152.873 155.162 152.873 155.263 152.873 155.465C155.757 154.719 157.209 154.356 160.154 153.63C160.154 154.134 160.174 154.396 160.194 154.961C157.25 155.667 155.777 156.03 152.873 156.796C152.853 156.998 152.853 157.078 152.853 157.28ZM150.917 163.674C150.917 162.927 151.36 162.322 152.107 161.818C152.954 161.253 154.204 160.81 155.636 160.467C157.068 160.124 158.319 159.942 159.146 160.084C159.892 160.205 160.336 160.588 160.356 161.294C160.376 162 159.912 162.585 159.146 163.089C158.278 163.654 157.028 164.077 155.616 164.46C154.204 164.823 152.954 165.045 152.107 164.904C151.34 164.783 150.917 164.42 150.917 163.674ZM152.611 163.23C152.611 163.411 152.732 163.512 152.974 163.533C153.458 163.613 154.386 163.411 155.576 163.109C156.766 162.806 157.714 162.524 158.218 162.201C158.44 162.06 158.581 161.899 158.581 161.737C158.581 161.576 158.44 161.475 158.218 161.435C157.714 161.374 156.766 161.556 155.576 161.838C154.386 162.141 153.458 162.423 152.974 162.746C152.732 162.887 152.611 163.048 152.611 163.23Z" fill="#181919"/>
<path d="M165.68 150.039C166.406 149.858 166.769 149.777 167.475 149.616C167.475 150.019 167.475 150.221 167.495 150.604C168.483 150.382 168.987 150.261 169.976 150.039C169.976 150.604 169.996 150.886 169.996 151.451C167.233 152.016 165.861 152.338 163.098 152.984C163.098 152.439 163.098 152.177 163.078 151.653C164.107 151.411 164.631 151.29 165.66 151.027C165.68 150.644 165.68 150.443 165.68 150.039ZM163.582 155.344C163.542 154.678 163.804 154.073 164.288 153.589C164.812 153.065 165.619 152.681 166.567 152.48C167.535 152.278 168.342 152.298 168.907 152.58C169.431 152.843 169.774 153.327 169.814 153.992C169.855 154.678 169.613 155.283 169.048 155.727C168.443 156.231 167.616 156.594 166.648 156.796C165.7 156.998 164.913 156.977 164.409 156.715C163.986 156.493 163.623 156.029 163.582 155.344ZM171.408 156.231C172.134 156.09 172.497 156.009 173.223 155.868C173.001 157.683 173.041 158.571 173.082 160.305C169.451 160.991 167.636 161.354 164.066 162.181C164.026 160.426 163.986 159.559 164.228 157.744C164.954 157.582 165.317 157.502 166.023 157.34C165.982 157.724 165.942 157.905 165.902 158.288C168.06 157.824 169.129 157.582 171.307 157.159C171.347 156.796 171.367 156.614 171.408 156.231ZM165.337 154.96C165.357 155.162 165.458 155.303 165.619 155.404C165.861 155.545 166.285 155.545 166.749 155.445C167.233 155.344 167.636 155.162 167.858 154.9C167.999 154.739 168.1 154.537 168.08 154.355C168.06 154.154 167.959 154.012 167.798 153.912C167.556 153.77 167.132 153.75 166.648 153.851C166.184 153.952 165.781 154.154 165.539 154.396C165.397 154.557 165.317 154.759 165.337 154.96ZM165.801 159.7C165.801 160.003 165.821 160.144 165.821 160.446C167.979 159.983 169.048 159.741 171.226 159.317C171.226 159.014 171.206 158.873 171.206 158.571C169.028 158.994 167.939 159.216 165.801 159.7ZM173.203 151.431C173.868 151.31 174.211 151.249 174.877 151.128C174.917 151.754 174.917 152.076 174.958 152.702C174.292 152.823 173.949 152.883 173.284 153.004C173.344 153.992 173.384 154.497 173.284 155.424C172.557 155.566 172.194 155.626 171.468 155.787C171.791 153.226 171.388 151.733 171.327 149.071C172.053 148.91 172.416 148.829 173.142 148.688C173.162 149.777 173.122 150.322 173.203 151.431Z" fill="#181919"/>
<path d="M183.368 147.054C183.389 147.72 183.389 148.043 183.409 148.708C182.441 148.829 181.957 148.91 180.989 149.051C181.009 150.18 181.029 150.705 181.069 151.774C181.19 155.102 182.057 155.888 183.429 156.272C183.429 156.877 183.449 157.179 183.449 157.804C181.997 157.603 180.585 156.897 180.02 155.929C179.274 157.098 178.003 158.208 176.551 158.833C176.531 158.228 176.531 157.925 176.531 157.34C177.903 156.534 179.436 155.384 179.274 152.056C179.234 150.987 179.193 150.463 179.173 149.333C178.225 149.495 177.741 149.575 176.773 149.737C176.753 149.091 176.753 148.789 176.733 148.143C179.415 147.659 180.726 147.417 183.368 147.054ZM186.616 158.167C185.89 158.248 185.527 158.288 184.8 158.369C184.76 153.912 184.901 151.774 184.8 146.611C185.527 146.51 185.869 146.469 186.596 146.389C186.717 151.592 186.575 153.71 186.616 158.167Z" fill="#181919"/>
<path d="M193.735 152.359C193.735 153.044 193.715 153.387 193.715 154.073C193.009 154.113 192.646 154.134 191.94 154.194C191.96 153.508 191.96 153.166 191.981 152.48C191.053 152.56 190.569 152.581 189.641 152.681C189.661 152.117 189.641 151.834 189.641 151.27C192.041 151.048 193.251 150.967 195.611 150.866C196.256 150.846 196.761 150.806 197.305 150.665C197.305 151.189 197.305 151.471 197.305 151.996C196.781 152.177 196.196 152.238 195.53 152.278C194.804 152.298 194.441 152.318 193.735 152.359ZM190.004 148.527C189.984 147.801 190.246 147.195 190.69 146.772C191.295 146.187 192.263 145.884 193.271 145.864C194.3 145.824 195.248 146.066 195.873 146.57C196.317 146.933 196.599 147.478 196.599 148.164C196.599 148.869 196.317 149.354 195.893 149.717C195.288 150.241 194.34 150.483 193.332 150.564C192.324 150.624 191.376 150.483 190.73 150.039C190.307 149.717 190.024 149.253 190.004 148.527ZM190.67 157.925C190.67 156.594 190.629 155.949 190.67 154.597C191.376 154.537 191.739 154.517 192.445 154.456C192.424 155.203 192.445 155.586 192.445 156.312C195.409 156.11 196.862 156.05 199.746 156.05C199.746 156.635 199.746 156.937 199.746 157.522C196.176 157.542 194.34 157.623 190.67 157.925ZM191.678 148.385C191.678 148.648 191.799 148.869 191.981 148.991C192.263 149.192 192.747 149.273 193.332 149.233C193.917 149.192 194.401 149.071 194.683 148.829C194.865 148.688 194.945 148.466 194.945 148.204C194.945 147.942 194.845 147.74 194.663 147.599C194.381 147.377 193.897 147.276 193.312 147.316C192.727 147.337 192.223 147.478 191.96 147.74C191.779 147.901 191.678 148.123 191.678 148.385ZM197.809 154.678C197.809 154.376 197.809 154.234 197.809 153.952C196.841 153.972 196.357 153.992 195.369 154.033C195.369 153.508 195.369 153.226 195.369 152.702C196.337 152.661 196.821 152.641 197.789 152.621C197.789 149.999 197.789 148.668 197.769 145.925C198.475 145.945 198.818 145.965 199.524 146.005C199.524 149.475 199.524 151.209 199.524 154.658C198.838 154.658 198.495 154.658 197.809 154.678Z" fill="#181919"/>
<path d="M141.821 117.285C140.832 115.066 139.582 112.948 138.11 111.012C137.363 110.044 136.516 109.076 135.387 108.592C134.257 108.108 132.785 108.249 132.018 109.217C131.091 110.387 131.575 112.081 132.039 113.513C132.503 114.945 132.724 116.76 131.534 117.688C131.03 118.071 130.365 118.192 129.82 118.535C128.973 119.08 128.57 120.108 128.509 121.117C128.368 122.993 129.316 124.888 130.869 125.937C132.422 126.986 134.56 127.107 136.234 126.26C136.94 125.897 137.565 125.393 138.311 125.13C140.752 124.283 143.737 126.3 145.915 124.909C146.56 124.505 147.004 123.86 147.387 123.214C148.033 122.145 148.597 120.955 148.537 119.705C148.476 118.455 147.549 117.184 146.318 117.083C145.451 117.023 144.644 117.507 143.797 117.688C142.95 117.87 141.801 117.446 141.821 117.285Z" fill="#B180E0" stroke="#1D1D1B" stroke-miterlimit="10"/>
</svg>
