<svg width="212" height="186" viewBox="0 0 212 186" fill="none" xmlns="http://www.w3.org/2000/svg">
<path d="M104.648 183.53C155.052 183.53 195.913 142.669 195.913 92.2649C195.913 41.8607 155.052 1 104.648 1C54.2437 1 13.3831 41.8607 13.3831 92.2649C13.3831 142.669 54.2437 183.53 104.648 183.53Z" fill="#FF88B6" stroke="#181919" stroke-miterlimit="10"/>
<path d="M83.1085 112.817C82.5438 113.261 81.7169 112.837 81.253 112.293C80.7891 111.748 80.4059 111.042 79.7403 110.82C78.5705 110.457 77.5217 111.728 76.2914 111.788C73.7702 111.93 73.4072 107.351 70.9062 106.948C69.3331 106.686 68.0019 108.34 66.4086 108.42C64.8354 108.501 63.6051 107.049 62.9596 105.617C62.3142 104.185 61.9512 102.551 60.8419 101.442C59.1074 99.6668 56.3039 99.7677 53.8433 99.9896C59.2486 99.2231 64.674 98.4365 69.8373 96.6617C75.0006 94.8868 79.9218 92.0631 83.411 88.5537C82.927 97.1256 82.8262 105.738 83.1085 112.817Z" fill="#FFF58C" stroke="#181919" stroke-miterlimit="10"/>
<path d="M15.6433 107.21C18.4266 123.366 26.938 138.472 39.2814 149.242C41.9437 151.562 44.7876 153.7 47.8936 155.334C52.2703 157.653 57.1108 156.12 61.9514 157.048C71.2897 158.843 80.8498 162.11 90.3494 162.534C101.563 163.018 112.798 163.502 123.83 162.171C142.728 159.912 160.82 152.449 176.895 145.935C180.525 145.007 184.559 143.757 186.253 140.429C187.342 138.271 187.141 135.729 187.383 133.329C187.584 131.312 188.089 129.336 188.613 127.359C190.731 119.271 192.828 111.184 195.067 103.096C192.284 100.333 188.351 99.1224 184.599 98.0131C144.181 86.0932 113.604 90.4699 75.5655 91.3775C71.8342 91.4582 56.2234 94.0197 52.5728 93.2734C50.334 92.8297 48.5793 94.9878 46.2801 94.8668C43.3959 94.7054 40.5319 95.371 37.7284 96.0769C29.9633 98.0535 22.2991 100.393 14.7559 103.136C15.0786 104.709 15.4819 106.222 15.6433 107.21Z" fill="#5A66FF"/>
<mask id="mask0_525_53909" style="mask-type:luminance" maskUnits="userSpaceOnUse" x="14" y="89" width="182" height="75">
<path d="M15.6433 107.21C18.4266 123.366 26.938 138.472 39.2814 149.242C41.9437 151.562 44.7876 153.7 47.8936 155.334C52.2703 157.653 57.1108 156.12 61.9514 157.048C71.2897 158.843 80.8498 162.11 90.3494 162.534C101.563 163.018 112.798 163.502 123.83 162.171C142.728 159.912 160.82 152.449 176.895 145.935C180.525 145.007 184.559 143.757 186.253 140.429C187.342 138.271 187.141 135.729 187.383 133.329C187.584 131.312 188.089 129.336 188.613 127.359C190.731 119.271 192.828 111.184 195.067 103.096C192.284 100.333 188.351 99.1224 184.599 98.0131C144.181 86.0932 113.604 90.4699 75.5655 91.3775C71.8342 91.4582 56.6873 96.8231 53.0367 96.0769C50.7979 95.6332 48.5793 94.9878 46.2801 94.8668C43.3959 94.7054 40.5319 95.371 37.7284 96.0769C29.9633 98.0535 22.2991 100.393 14.7559 103.136C15.0786 104.709 15.4819 106.222 15.6433 107.21Z" fill="white"/>
</mask>
<g mask="url(#mask0_525_53909)">
<path d="M235.385 82.5837L172.095 147.891" stroke="#181919" stroke-miterlimit="10" stroke-linecap="round" stroke-linejoin="round"/>
<path d="M228.81 82.8055L165.519 148.093" stroke="#181919" stroke-miterlimit="10" stroke-linecap="round" stroke-linejoin="round"/>
<path d="M222.215 83.0073L158.924 148.315" stroke="#181919" stroke-miterlimit="10" stroke-linecap="round" stroke-linejoin="round"/>
<path d="M215.619 83.209L152.329 148.516" stroke="#181919" stroke-miterlimit="10" stroke-linecap="round" stroke-linejoin="round"/>
<path d="M209.044 83.4308L145.754 148.718" stroke="#181919" stroke-miterlimit="10" stroke-linecap="round" stroke-linejoin="round"/>
<path d="M202.449 83.6326L139.158 148.94" stroke="#181919" stroke-miterlimit="10" stroke-linecap="round" stroke-linejoin="round"/>
<path d="M195.854 83.8342L132.563 149.142" stroke="#181919" stroke-miterlimit="10" stroke-linecap="round" stroke-linejoin="round"/>
<path d="M189.258 84.056L125.968 149.343" stroke="#181919" stroke-miterlimit="10" stroke-linecap="round" stroke-linejoin="round"/>
<path d="M182.683 84.2578L119.393 149.565" stroke="#181919" stroke-miterlimit="10" stroke-linecap="round" stroke-linejoin="round"/>
<path d="M176.088 84.4595L112.798 149.767" stroke="#181919" stroke-miterlimit="10" stroke-linecap="round" stroke-linejoin="round"/>
<path d="M169.493 84.6813L106.202 149.968" stroke="#181919" stroke-miterlimit="10" stroke-linecap="round" stroke-linejoin="round"/>
<path d="M162.918 84.8831L99.6272 150.19" stroke="#181919" stroke-miterlimit="10" stroke-linecap="round" stroke-linejoin="round"/>
<path d="M156.322 85.0847L93.0319 150.392" stroke="#181919" stroke-miterlimit="10" stroke-linecap="round" stroke-linejoin="round"/>
<path d="M149.727 85.3065L86.4368 150.594" stroke="#181919" stroke-miterlimit="10" stroke-linecap="round" stroke-linejoin="round"/>
<path d="M143.152 85.5083L79.8616 150.816" stroke="#181919" stroke-miterlimit="10" stroke-linecap="round" stroke-linejoin="round"/>
<path d="M136.557 85.7098L73.2664 151.017" stroke="#181919" stroke-miterlimit="10" stroke-linecap="round" stroke-linejoin="round"/>
<path d="M129.961 85.9318L66.671 151.219" stroke="#181919" stroke-miterlimit="10" stroke-linecap="round" stroke-linejoin="round"/>
<path d="M123.366 86.1335L60.0757 151.441" stroke="#181919" stroke-miterlimit="10" stroke-linecap="round" stroke-linejoin="round"/>
<path d="M116.791 86.3351L53.5006 151.642" stroke="#181919" stroke-miterlimit="10" stroke-linecap="round" stroke-linejoin="round"/>
<path d="M110.196 86.5571L46.9053 151.844" stroke="#181919" stroke-miterlimit="10" stroke-linecap="round" stroke-linejoin="round"/>
<path d="M103.6 86.7587L40.3099 152.066" stroke="#181919" stroke-miterlimit="10" stroke-linecap="round" stroke-linejoin="round"/>
<path d="M97.0255 86.9603L33.7351 152.268" stroke="#181919" stroke-miterlimit="10" stroke-linecap="round" stroke-linejoin="round"/>
<path d="M90.41 87.1824L27.1398 152.47" stroke="#181919" stroke-miterlimit="10" stroke-linecap="round" stroke-linejoin="round"/>
<path d="M83.8349 87.3839L20.5444 152.691" stroke="#181919" stroke-miterlimit="10" stroke-linecap="round" stroke-linejoin="round"/>
<path d="M77.2597 87.5856L13.9491 152.893" stroke="#181919" stroke-miterlimit="10" stroke-linecap="round" stroke-linejoin="round"/>
<path d="M70.6645 87.8075L7.37402 153.095" stroke="#181919" stroke-miterlimit="10" stroke-linecap="round" stroke-linejoin="round"/>
<path d="M64.0691 88.0092L0.778687 153.316" stroke="#181919" stroke-miterlimit="10" stroke-linecap="round" stroke-linejoin="round"/>
<path d="M57.474 88.2108L-5.81641 153.518" stroke="#181919" stroke-miterlimit="10" stroke-linecap="round" stroke-linejoin="round"/>
<path d="M50.899 88.4327L-12.3915 153.72" stroke="#181919" stroke-miterlimit="10" stroke-linecap="round" stroke-linejoin="round"/>
<path d="M44.3036 88.6344L-18.9868 153.942" stroke="#181919" stroke-miterlimit="10" stroke-linecap="round" stroke-linejoin="round"/>
<path d="M37.7083 88.8361L-25.5822 154.143" stroke="#181919" stroke-miterlimit="10" stroke-linecap="round" stroke-linejoin="round"/>
<path d="M31.1332 89.058L-32.1572 154.345" stroke="#181919" stroke-miterlimit="10" stroke-linecap="round" stroke-linejoin="round"/>
</g>
<path d="M196.861 102.148C182.42 95.9761 166.729 93.3339 151.118 91.68C117.718 88.1505 83.8543 89.0177 50.6762 94.2617C39.1395 96.0769 27.5423 98.477 16.9738 103.479" stroke="#181919" stroke-miterlimit="10" stroke-linecap="round" stroke-linejoin="round"/>
<path d="M136.213 154.486C143.999 148.879 148.194 139.36 149.444 129.84C150.674 120.34 149.303 110.699 147.891 101.22C147.488 98.4366 147.125 95.3911 148.617 93.0111C150.876 89.4412 156.463 89.4009 159.811 91.9825C163.159 94.5641 164.672 98.84 165.519 102.975C166.043 105.476 167.475 108.783 169.936 108.118C171.509 107.694 172.134 105.818 172.336 104.205C172.618 101.986 172.578 99.7274 172.235 97.5088C171.892 95.3104 171.247 93.1523 171.368 90.9337C171.489 88.7151 172.598 86.3553 174.676 85.5889C177.943 84.3989 181.231 87.8479 181.876 91.2564C182.178 92.7893 182.178 94.3826 182.784 95.8146C183.389 97.2466 184.901 98.4769 186.414 98.0937C188.431 97.5693 188.754 94.8868 188.673 92.7893C188.471 87.989 188.27 83.209 188.068 78.4087C187.967 75.9078 188.391 72.6807 190.831 72.1362C193.312 71.5916 195.067 74.4758 195.772 76.8961C198.899 87.5251 198.052 98.961 195.49 109.731C194.562 113.684 193.392 117.597 191.537 121.207C189.601 124.979 186.959 128.347 184.256 131.635C180.041 136.778 175.603 141.8 170.259 145.753C160.739 152.853 148.436 156.039 136.213 154.486Z" fill="#B180E0" stroke="#1D1D1B" stroke-miterlimit="10"/>
<path d="M85.5701 160.477V72.7615C85.5701 60.418 95.5739 50.4142 107.917 50.4142C120.261 50.4142 130.265 60.418 130.265 72.7615V160.477C130.265 161.949 129.075 163.159 127.582 163.159H88.2526C86.7802 163.159 85.5701 161.949 85.5701 160.477Z" fill="white" stroke="#1D1D1B" stroke-miterlimit="10"/>
<path d="M108.017 66.3275L107.957 69.8773" stroke="black" stroke-miterlimit="10" stroke-linecap="round" stroke-linejoin="round"/>
<path d="M101.745 67.3562L103.52 70.4219" stroke="black" stroke-miterlimit="10" stroke-linecap="round" stroke-linejoin="round"/>
<path d="M114.209 67.457L112.374 70.5026" stroke="black" stroke-miterlimit="10" stroke-linecap="round" stroke-linejoin="round"/>
<path d="M15.3812 107.371C14.8165 103.237 14.2518 98.9407 15.4619 94.9473C16.6721 90.9538 20.242 87.3435 24.417 87.4847C27.5432 87.5856 30.3467 89.7638 31.8997 92.4866C33.4527 95.2095 33.9569 98.3962 34.1788 101.522C34.32 103.499 34.3805 105.556 35.2477 107.351C36.115 109.146 38.1117 110.558 40.0278 110.094C42.8111 109.408 43.3759 105.758 44.9491 103.378C47.2483 99.9088 52.7545 99.1828 55.8605 101.946C58.2808 104.084 59.0069 107.513 59.9548 110.598C60.9028 113.704 62.5768 117.032 65.703 117.9C71.2696 119.412 76.6144 111.95 82.0197 113.946C84.5207 114.874 85.9124 117.577 86.4166 120.199C86.9208 122.821 86.7796 125.544 87.3645 128.125C87.6267 129.255 88.0503 130.404 88.9579 131.131C91.1361 132.865 94.3833 131.07 96.0574 128.851C97.7314 126.633 99.0222 123.829 101.604 122.801C105.416 121.268 109.53 124.676 111.144 128.448C112.778 132.22 113.02 136.516 115.036 140.086C119.252 147.548 129.78 149.101 137.908 146.378C148.981 142.667 157.553 132.381 159.227 120.804C159.671 117.637 159.65 114.41 160.336 111.304C161.022 108.178 162.555 105.052 165.298 103.438C168.041 101.825 172.135 102.269 173.769 105.032C174.979 107.089 174.575 109.65 174.918 112.01C175.261 114.37 177.197 116.992 179.477 116.326C180.344 116.064 181.03 115.379 181.574 114.652C183.47 112.151 184.378 108.904 184.055 105.778C183.873 104.064 183.349 102.269 183.974 100.655C184.599 99.0416 187.121 98.1541 188.008 99.6467C188.371 100.252 188.311 101.018 188.613 101.643C189.501 103.499 192.647 102.612 193.434 100.716C194.22 98.8197 193.635 96.6415 193.434 94.6044C193.232 92.5673 193.756 90.0462 195.692 89.3201C196.398 88.9167 197.003 90.026 197.064 90.853C198.577 107.049 196.156 123.789 188.774 138.27C186.919 141.901 184.761 145.41 181.937 148.335C178.327 152.066 173.789 154.728 169.13 157.028C148.961 166.951 126.008 170.48 103.56 169.149C81.1121 167.818 59.1682 161.787 38.2933 153.458C34.7435 152.046 31.1333 150.493 28.471 147.77C24.8002 144.019 25.0825 137.968 22.3395 133.49C17.1158 124.797 16.1477 112.898 15.3812 107.371Z" fill="#56B381" stroke="black" stroke-miterlimit="10"/>
<path d="M211 138.654V171.812C174.817 161.404 142.587 185.103 106 185.103C68.1225 184.8 37.2034 161.404 1 171.812V138.654C37.2438 128.307 68.7276 153.599 106 153.599C140.973 153.881 174.756 128.307 211 138.654Z" fill="white" stroke="#181919" stroke-miterlimit="10"/>
<path d="M56.6671 161.324C55.9814 161.142 55.6385 161.041 54.9528 160.9C54.7309 161.868 54.6301 162.433 54.4284 163.462C53.8031 163.321 53.4804 163.26 52.8552 163.139C53.0771 162.11 53.1779 161.566 53.3998 160.578C52.8754 160.477 52.593 160.436 52.0686 160.376C52.0686 159.811 52.0686 159.549 52.0686 158.984C52.714 159.065 53.0367 159.125 53.6821 159.246C53.8637 158.46 53.9645 158.056 54.146 157.25C53.5006 157.108 53.1779 157.048 52.5527 156.947C52.5527 156.403 52.5527 156.12 52.5527 155.555C53.3191 155.676 53.6821 155.757 54.4486 155.939C54.6906 154.95 54.7713 154.527 54.9528 153.639C55.578 153.841 55.9007 153.942 56.526 154.144C56.3646 154.971 56.2839 155.354 56.0419 156.342C56.7277 156.544 57.0705 156.645 57.7764 156.866C58.0185 155.898 58.079 155.535 58.2403 154.729C58.8656 154.95 59.1883 155.071 59.8337 155.313C59.6723 156.1 59.632 156.443 59.39 157.411C59.9345 157.613 60.2169 157.714 60.7615 157.915C60.7615 158.46 60.7615 158.742 60.7413 159.287C60.0757 159.045 59.7328 158.924 59.0673 158.682C58.8656 159.448 58.7647 159.831 58.5832 160.557C59.2488 160.779 59.5715 160.88 60.2371 161.122C60.2371 161.647 60.2169 161.909 60.2169 162.413C59.4303 162.151 59.0471 162.01 58.2807 161.768C58.0386 162.675 57.958 163.28 57.7563 164.329C57.1109 164.127 56.7882 164.047 56.1629 163.865C56.3646 162.857 56.4453 162.272 56.6671 161.324ZM55.2553 159.63C55.9411 159.791 56.2839 159.892 56.9899 160.094C57.1915 159.347 57.2722 158.964 57.4739 158.177C56.768 157.956 56.4251 157.855 55.7394 157.673C55.5579 158.46 55.457 158.843 55.2553 159.63Z" fill="black"/>
<path d="M62.2339 160.577C62.2541 157.774 62.3953 156.725 63.0003 156.362C63.3029 156.16 63.8071 156.181 64.4525 156.423C65.1181 156.665 65.6223 157.028 66.0055 157.492C66.3888 157.976 66.651 158.581 66.8325 159.428C67.2964 159.609 67.5182 159.69 67.9821 159.872C67.9418 159.004 67.9216 158.561 67.8812 157.693C68.567 157.935 68.9099 158.056 69.5956 158.278C69.757 162.574 69.5956 164.672 69.7973 169.311C69.1116 169.069 68.7687 168.948 68.0829 168.685C68.0224 167.374 67.9418 166.648 67.9619 165.458C67.5182 165.277 67.2964 165.196 66.8526 165.015C66.6913 165.942 66.5098 166.588 66.1467 166.89C65.824 167.153 65.3198 167.173 64.6542 166.931C63.9886 166.689 63.4844 166.305 63.1415 165.761C62.4356 164.732 62.2137 163.401 62.2339 160.577ZM63.9281 161.243C63.9281 163.583 63.9281 164.45 64.1903 164.954C64.2912 165.156 64.4525 165.277 64.5937 165.337C64.7551 165.398 64.8962 165.398 64.9769 165.257C65.2189 164.934 65.3198 164.107 65.3198 161.788C65.3198 159.468 65.2391 158.52 64.9567 158.077C64.8559 157.915 64.7147 157.794 64.5534 157.734C64.392 157.673 64.271 157.673 64.1702 157.774C63.9685 157.996 63.9483 158.903 63.9281 161.243ZM66.9938 160.9C67.014 161.364 67.0342 161.888 67.0342 162.453C67.0342 162.917 67.014 163.3 66.9938 163.663C67.3972 163.825 67.5989 163.905 68.0023 164.047C68.0224 162.978 68.0224 162.413 68.0023 161.304C67.5989 161.142 67.3972 161.062 66.9938 160.9ZM70.5032 169.694C70.3015 165.015 70.4427 162.857 70.3015 158.44C71.0074 158.661 71.3503 158.762 72.0361 158.984C72.1369 163.502 72.0361 165.66 72.2176 170.299C71.552 170.057 71.2091 169.936 70.5032 169.694Z" fill="black"/>
<path d="M78.8734 167.052C78.8734 166.769 78.8734 166.628 78.8734 166.366C77.0985 166.063 76.1909 165.842 74.416 165.317C74.416 164.752 74.3959 164.47 74.3959 163.885C78.6717 165.115 80.7693 165.216 85.0048 165.68C85.0048 166.285 85.0048 166.588 85.0048 167.213C83.2299 167.011 82.3626 166.91 80.6079 166.628C80.6079 166.91 80.6079 167.052 80.6079 167.334C82.0601 167.556 82.8064 167.657 84.2585 167.838C84.2585 169.25 84.2383 169.936 84.2383 171.348C81.334 170.964 79.9222 170.743 76.9775 169.956C76.9775 170.178 76.9775 170.279 76.9775 170.501C80.023 171.327 81.4752 171.549 84.5006 171.953C84.5006 172.538 84.5006 172.84 84.4804 173.445C80.7693 172.941 78.9944 172.538 75.243 171.388C75.2026 170.057 75.1623 169.391 75.1623 168.08C78.1473 168.968 79.5995 169.21 82.5038 169.633C82.5038 169.411 82.5038 169.29 82.5038 169.069C79.5995 168.645 78.1473 168.423 75.1623 167.556C75.1623 167.011 75.1623 166.729 75.1623 166.184C76.6548 166.608 77.401 166.789 78.8734 167.052ZM79.7407 163.038C78.833 163.804 76.9977 164.147 74.7387 163.663C74.7387 163.099 74.7186 162.816 74.7186 162.231C77.1388 162.635 78.8734 162.11 78.8734 160.698C78.8734 160.638 78.8734 160.618 78.8734 160.577C79.5995 160.678 79.9222 160.719 80.6079 160.819C80.6079 160.88 80.6079 160.9 80.6079 160.94C80.6079 162.332 82.3021 163.28 84.6821 163.784C84.6821 164.369 84.6821 164.692 84.6821 165.297C82.4231 164.914 80.6483 164.046 79.7407 163.038Z" fill="black"/>
<path d="M91.1563 164.591C91.1563 164.147 91.1563 163.966 91.1563 163.562C89.5428 163.441 88.7159 163.381 87.1023 163.22C87.1023 162.614 87.1023 162.312 87.1023 161.727C89.4016 161.949 90.5714 162.03 92.8909 162.171C92.8909 163.099 92.8909 163.583 92.8909 164.51C92.8909 168.927 91.2168 172.255 86.9813 172.941C86.9813 172.235 87.0015 171.892 87.0015 171.186C89.9059 170.581 91.1362 168.181 91.1563 164.591ZM96.3398 166.83C97.0457 166.85 97.4087 166.87 98.1146 166.89C98.1146 167.495 98.1146 167.818 98.1146 168.423C97.4087 168.403 97.0457 168.383 96.3398 168.363C96.3398 170.642 96.3196 171.791 96.3196 174.091C95.6137 174.07 95.2506 174.071 94.5447 174.05C94.5851 169.19 94.6052 166.709 94.5851 162.05C95.291 162.09 95.6338 162.11 96.3398 162.13C96.3599 163.986 96.3599 164.914 96.3398 166.83Z" fill="black"/>
<path d="M107.13 170.682C106.424 170.702 106.081 170.702 105.375 170.702C105.153 171.751 105.032 172.275 104.811 173.324C104.165 173.324 103.842 173.324 103.197 173.324C103.419 172.275 103.54 171.751 103.762 170.702C103.217 170.702 102.935 170.702 102.37 170.702C102.37 170.137 102.37 169.855 102.37 169.311C103.036 169.311 103.379 169.311 104.044 169.331C104.226 168.484 104.327 168.06 104.508 167.213C103.842 167.213 103.52 167.213 102.874 167.193C102.874 166.628 102.874 166.366 102.874 165.801C103.641 165.821 104.044 165.821 104.811 165.821C105.032 164.773 105.153 164.248 105.395 163.199C106.041 163.199 106.364 163.199 107.029 163.199C106.807 164.248 106.686 164.773 106.444 165.821C107.15 165.821 107.493 165.821 108.199 165.801C108.421 164.752 108.542 164.208 108.784 163.159C109.429 163.139 109.752 163.139 110.397 163.099C110.176 164.167 110.055 164.692 109.812 165.741C110.357 165.72 110.639 165.7 111.204 165.68C111.204 166.225 111.204 166.507 111.204 167.052C110.518 167.092 110.196 167.092 109.51 167.112C109.328 167.959 109.228 168.383 109.046 169.23C109.712 169.21 110.055 169.19 110.72 169.169C110.72 169.714 110.72 169.996 110.72 170.561C109.934 170.601 109.55 170.622 108.764 170.642C108.542 171.691 108.421 172.215 108.199 173.264C107.554 173.284 107.231 173.284 106.585 173.284C106.787 172.255 106.908 171.731 107.13 170.682ZM105.678 169.29C106.384 169.29 106.747 169.29 107.453 169.27C107.634 168.423 107.735 168 107.917 167.152C107.211 167.173 106.848 167.173 106.142 167.173C105.94 168.02 105.859 168.443 105.678 169.29Z" fill="black"/>
<path d="M118.909 162.615C118.909 163.22 118.909 163.522 118.909 164.127C118.021 164.208 117.598 164.248 116.71 164.329C116.872 165.882 117.739 166.548 119.131 166.689C119.131 167.294 119.131 167.596 119.131 168.201C117.739 168.141 116.509 167.657 115.843 166.79C115.137 167.758 113.907 168.625 112.495 168.887C112.495 168.282 112.495 167.98 112.495 167.354C113.866 166.991 114.754 166.104 114.895 164.45C114.028 164.51 113.584 164.551 112.717 164.591C112.717 163.986 112.717 163.684 112.717 163.078C113.604 163.018 114.048 162.998 114.935 162.937C114.935 162.413 114.935 162.151 114.935 161.626C115.641 161.566 115.984 161.546 116.69 161.485C116.69 162.009 116.69 162.272 116.69 162.796C117.557 162.736 118.001 162.695 118.909 162.615ZM113.201 171.57C113.201 170.702 113.584 170.097 114.23 169.674C115.056 169.129 116.367 168.847 117.779 168.706C119.211 168.564 120.502 168.585 121.329 168.968C121.974 169.27 122.358 169.775 122.358 170.642C122.358 171.509 121.974 172.134 121.329 172.598C120.502 173.203 119.211 173.506 117.779 173.667C116.347 173.808 115.056 173.748 114.23 173.324C113.584 172.981 113.201 172.437 113.201 171.57ZM114.956 171.428C114.956 171.67 115.077 171.872 115.298 172.013C115.762 172.255 116.63 172.296 117.779 172.175C118.929 172.054 119.796 171.852 120.26 171.509C120.482 171.328 120.603 171.106 120.603 170.864C120.603 170.602 120.482 170.4 120.26 170.279C119.796 170.057 118.949 170.057 117.779 170.158C116.63 170.279 115.762 170.46 115.298 170.783C115.077 170.944 114.956 171.166 114.956 171.428ZM122.116 163.926C122.761 163.845 123.084 163.805 123.749 163.744C123.749 164.369 123.749 164.652 123.749 165.257C123.104 165.337 122.781 165.378 122.116 165.438C122.116 166.507 122.116 167.052 122.116 168.101C121.41 168.181 121.067 168.222 120.361 168.302C120.381 165.68 120.381 164.268 120.361 161.505C121.067 161.425 121.41 161.384 122.116 161.304C122.095 162.352 122.116 162.877 122.116 163.926Z" fill="black"/>
<path d="M131.192 160.275C131.192 160.88 131.192 161.183 131.192 161.767C130.304 161.888 129.881 161.949 128.993 162.07C128.993 162.151 128.993 162.191 128.993 162.272C128.993 164.309 129.901 164.994 131.413 165.095C131.413 165.7 131.413 166.003 131.413 166.628C130.022 166.608 128.812 166.164 128.166 165.358C127.46 166.346 126.23 167.253 124.838 167.596C124.838 167.011 124.838 166.709 124.838 166.104C126.371 165.62 127.259 164.571 127.259 162.514C127.259 162.433 127.259 162.393 127.259 162.312C126.371 162.433 125.948 162.494 125.06 162.594C125.06 161.989 125.06 161.687 125.06 161.082C127.501 160.799 128.731 160.618 131.192 160.275ZM134.298 167.052C134.237 168.927 134.177 169.835 134.056 171.67C133.451 171.771 133.309 171.791 132.603 171.872C132.603 170.642 132.603 170.037 132.603 168.806C129.78 169.089 128.348 169.27 125.504 169.613C125.504 169.028 125.504 168.746 125.504 168.161C129.074 167.737 130.849 167.657 134.298 167.052ZM134.318 162.292C134.943 162.171 135.266 162.09 135.911 161.929C135.911 162.534 135.931 162.857 135.952 163.482C135.306 163.643 134.983 163.704 134.338 163.825C134.358 164.894 134.358 165.418 134.318 166.487C133.632 166.608 133.309 166.669 132.603 166.749C132.603 164.026 132.603 162.655 132.603 159.912C133.289 159.811 133.632 159.751 134.318 159.63C134.318 160.698 134.318 161.243 134.318 162.292Z" fill="black"/>
<path d="M143.777 157.29C143.757 157.855 143.757 158.117 143.737 158.682C142.789 159.004 142.305 159.166 141.357 159.468C141.337 160.456 141.357 161.021 141.417 162.11C141.619 165.559 142.345 166.426 143.636 166.648C143.555 167.334 143.515 167.697 143.414 168.383C142.002 168.383 140.893 167.737 140.349 166.749C139.602 168.121 138.13 169.472 136.758 170.198C136.839 169.532 136.879 169.21 136.96 168.544C138.332 167.616 139.824 166.084 139.643 162.655C139.582 161.566 139.562 161.021 139.582 160.013C138.654 160.295 138.19 160.436 137.263 160.678C137.283 160.093 137.283 159.791 137.283 159.186C139.864 158.54 141.175 158.117 143.777 157.29ZM146.561 168.262C145.814 168.484 145.431 168.605 144.705 168.827C145.27 163.724 145.088 160.88 145.229 156.644C145.935 156.423 146.298 156.302 147.004 156.06C146.843 160.235 147.024 163.099 146.561 168.262Z" fill="black"/>
<path d="M153.6 160.295C153.559 161.041 153.539 161.425 153.499 162.171C152.793 162.373 152.43 162.473 151.724 162.695C151.764 161.929 151.805 161.566 151.845 160.799C150.917 161.082 150.433 161.243 149.485 161.546C149.525 160.92 149.505 160.618 149.465 159.993C151.885 159.206 153.075 158.843 155.435 158.278C156.06 158.137 156.585 158.016 157.089 157.774C157.109 158.339 157.129 158.641 157.109 159.186C156.585 159.468 156 159.65 155.354 159.811C154.669 160.013 154.306 160.093 153.6 160.295ZM149.747 157.068C149.768 156.483 150.05 155.939 150.514 155.475C151.139 154.85 152.107 154.365 153.116 154.063C154.124 153.781 155.072 153.72 155.677 154.023C156.101 154.244 156.383 154.668 156.363 155.293C156.363 155.918 156.101 156.524 155.677 156.987C155.092 157.653 154.164 158.117 153.156 158.399C152.147 158.682 151.179 158.742 150.514 158.379C150.05 158.157 149.727 157.673 149.747 157.068ZM150.231 167.253C150.292 165.721 150.312 164.934 150.413 163.442C151.139 163.22 151.482 163.099 152.208 162.877C152.168 163.704 152.168 164.127 152.127 164.995C155.173 164.067 156.665 163.623 159.469 163.038C159.469 163.643 159.469 163.946 159.469 164.571C156.06 165.418 154.104 166.043 150.231 167.253ZM151.442 156.544C151.442 156.766 151.522 156.866 151.704 156.967C151.986 157.129 152.49 157.108 153.075 156.947C153.66 156.786 154.144 156.544 154.406 156.241C154.568 156.06 154.689 155.878 154.689 155.656C154.689 155.434 154.608 155.293 154.427 155.213C154.144 155.092 153.68 155.112 153.075 155.273C152.47 155.434 151.986 155.676 151.704 155.939C151.542 156.14 151.442 156.342 151.442 156.544ZM157.573 161.929C157.573 161.626 157.573 161.465 157.593 161.162C156.625 161.364 156.141 161.485 155.173 161.747C155.193 161.183 155.213 160.9 155.233 160.315C156.201 160.073 156.685 159.952 157.633 159.771C157.674 157.008 157.573 155.596 157.593 153.014C158.279 152.873 158.622 152.812 159.307 152.691C159.307 156.221 159.307 158.036 159.307 161.586C158.602 161.707 158.259 161.788 157.573 161.929Z" fill="black"/>
<path d="M106.263 14.0292L108.078 19.616C108.24 20.1404 108.724 20.4833 109.268 20.4833H115.137C116.348 20.4833 116.852 22.0363 115.884 22.7422L111.124 26.1911C110.68 26.5138 110.499 27.0786 110.66 27.5828L112.475 33.1696C112.858 34.3193 111.527 35.2874 110.539 34.5613L105.779 31.1124C105.335 30.7897 104.75 30.7897 104.307 31.1124L99.5468 34.5613C98.5585 35.2672 97.2475 34.3193 97.6106 33.1696L99.4258 27.5828C99.5871 27.0584 99.4056 26.4937 98.9619 26.1911L94.202 22.7422C93.2137 22.0363 93.7179 20.4833 94.9483 20.4833H100.817C101.362 20.4833 101.846 20.1404 102.007 19.616L103.823 14.0292C104.246 12.8594 105.88 12.8594 106.263 14.0292Z" fill="#FFF58C" stroke="#181919" stroke-miterlimit="10" stroke-linecap="round" stroke-linejoin="round"/>
<path d="M45.2517 39.9263C59.5516 33.6335 74.759 29.3577 90.2489 27.2601" stroke="#181919" stroke-miterlimit="10" stroke-linecap="round" stroke-linejoin="round"/>
<path d="M39.665 48.115C41.269 48.115 42.5693 46.8146 42.5693 45.2106C42.5693 43.6066 41.269 42.3063 39.665 42.3063C38.0609 42.3063 36.7606 43.6066 36.7606 45.2106C36.7606 46.8146 38.0609 48.115 39.665 48.115Z" fill="#FFF58C" stroke="#181919" stroke-miterlimit="10" stroke-linecap="round" stroke-linejoin="round"/>
<path d="M164.551 40.7935C150.251 34.5007 135.044 30.2249 119.554 28.1273" stroke="#181919" stroke-miterlimit="10" stroke-linecap="round" stroke-linejoin="round"/>
<path d="M170.138 48.9821C171.742 48.9821 173.042 47.6818 173.042 46.0778C173.042 44.4738 171.742 43.1735 170.138 43.1735C168.534 43.1735 167.234 44.4738 167.234 46.0778C167.234 47.6818 168.534 48.9821 170.138 48.9821Z" fill="#FFF58C" stroke="#181919" stroke-miterlimit="10" stroke-linecap="round" stroke-linejoin="round"/>
<path d="M147.246 63.5039C147.689 64.8351 148.052 66.1864 148.073 67.5377C148.093 68.889 147.79 70.2404 146.983 71.2287C146.177 72.2169 144.846 72.7817 143.514 72.5195C142.93 72.3985 142.345 72.1161 141.941 71.632C141.619 71.2287 141.437 70.7446 141.356 70.2404C141.175 69.0302 141.538 67.8403 142.143 66.8721C143.272 65.0771 145.188 63.8468 147.246 63.5039Z" fill="#FF88B6" stroke="black" stroke-miterlimit="10"/>
<path d="M145.915 63.9273C145.289 65.1778 144.584 66.388 143.656 67.3762C142.728 68.3443 141.538 69.0906 140.267 69.2116C138.997 69.3528 137.645 68.8082 136.899 67.6788C136.576 67.1745 136.355 66.5695 136.415 65.9442C136.455 65.44 136.697 64.9559 136.98 64.5526C137.706 63.5643 138.795 62.9794 139.925 62.7172C141.982 62.213 144.221 62.697 145.915 63.9273Z" fill="#FF88B6" stroke="black" stroke-miterlimit="10"/>
<path d="M144.684 63.2618C143.353 63.7055 142.002 64.0686 140.651 64.0887C139.299 64.1089 137.948 63.8064 136.96 62.9996C135.971 62.1929 135.407 60.8617 135.669 59.5305C135.79 58.9456 136.072 58.3607 136.556 57.9574C136.96 57.6346 137.444 57.4531 137.948 57.3724C139.158 57.1909 140.348 57.554 141.316 58.159C143.111 59.2885 144.341 61.2046 144.684 63.2618Z" fill="#FF88B6" stroke="black" stroke-miterlimit="10"/>
<path d="M144.261 61.9307C143.01 61.3055 141.8 60.5996 140.812 59.6718C139.824 58.744 139.098 57.554 138.977 56.2834C138.835 55.0127 139.38 53.6614 140.509 52.9152C141.014 52.5925 141.619 52.3706 142.244 52.4311C142.748 52.4714 143.232 52.7135 143.636 52.9958C144.624 53.7219 145.209 54.811 145.471 55.9405C145.975 58.0179 145.491 60.2365 144.261 61.9307Z" fill="#FF88B6" stroke="black" stroke-miterlimit="10"/>
<path d="M144.926 60.7003C144.483 59.3692 144.12 58.0179 144.099 56.6665C144.079 55.3152 144.382 53.9639 145.189 52.9756C145.995 51.9873 147.327 51.4226 148.658 51.6848C149.243 51.8058 149.827 52.0882 150.231 52.5722C150.554 52.9756 150.735 53.4597 150.816 53.9639C150.997 55.174 150.634 56.364 150.029 57.3321C148.9 59.1272 146.984 60.3575 144.926 60.7003Z" fill="#FF88B6" stroke="black" stroke-miterlimit="10"/>
<path d="M146.257 60.2971C146.883 59.0466 147.589 57.8364 148.516 56.8482C149.444 55.88 150.634 55.1338 151.905 55.0128C153.175 54.8918 154.527 55.4162 155.273 56.5456C155.596 57.0498 155.818 57.6549 155.757 58.2802C155.717 58.7844 155.475 59.2684 155.192 59.6718C154.466 60.6601 153.377 61.245 152.248 61.5072C150.17 61.9913 147.952 61.5072 146.257 60.2971Z" fill="#FF88B6" stroke="black" stroke-miterlimit="10"/>
<path d="M147.488 60.9424C148.819 60.4987 150.17 60.1356 151.521 60.1154C152.873 60.0953 154.224 60.3978 155.212 61.2046C156.201 62.0113 156.765 63.3425 156.503 64.6736C156.382 65.2586 156.1 65.8435 155.616 66.2468C155.212 66.5695 154.728 66.7511 154.224 66.8317C153.014 67.0133 151.824 66.6502 150.856 66.0451C149.041 64.9157 147.831 62.9996 147.488 60.9424Z" fill="#FF88B6" stroke="black" stroke-miterlimit="10"/>
<path d="M147.891 62.2734C149.142 62.8987 150.352 63.6046 151.34 64.5324C152.328 65.4602 153.054 66.6501 153.175 67.9208C153.317 69.1914 152.772 70.5427 151.643 71.289C151.138 71.6117 150.533 71.8336 149.908 71.7731C149.404 71.7327 148.92 71.4907 148.516 71.2083C147.528 70.4822 146.943 69.3931 146.681 68.2636C146.197 66.2064 146.681 63.9878 147.891 62.2734Z" fill="#FF88B6" stroke="black" stroke-miterlimit="10"/>
<path d="M67.3166 69.0706C67.7603 70.4017 68.1234 71.753 68.1436 73.1044C68.1637 74.4557 67.8612 75.807 67.0544 76.7953C66.2477 77.7836 64.9165 78.3483 63.5854 78.0861C63.0005 77.9651 62.4156 77.6827 62.0122 77.1987C61.6895 76.7953 61.5079 76.3112 61.4273 75.807C61.2457 74.5969 61.6088 73.4069 62.2139 72.4388C63.3231 70.6236 65.2392 69.4134 67.3166 69.0706Z" fill="#FF88B6" stroke="black" stroke-miterlimit="10"/>
<path d="M65.9652 69.4738C65.34 70.7243 64.6341 71.9344 63.7063 72.9227C62.7786 73.8908 61.5886 74.6371 60.3179 74.7581C59.0473 74.8993 57.6959 74.3547 56.9497 73.2253C56.627 72.721 56.4051 72.116 56.4656 71.4907C56.506 70.9865 56.748 70.5024 57.0304 70.0991C57.7565 69.1108 58.8456 68.5259 59.975 68.2637C62.0525 67.7595 64.271 68.2637 65.9652 69.4738Z" fill="#FF88B6" stroke="black" stroke-miterlimit="10"/>
<path d="M64.7349 68.8285C63.4037 69.2722 62.0524 69.6352 60.7011 69.6554C59.3498 69.6756 57.9984 69.373 57.0102 68.5663C56.0219 67.7595 55.4571 66.4283 55.7193 65.0972C55.8403 64.5123 56.1227 63.9274 56.6068 63.524C57.0102 63.2013 57.4942 63.0198 57.9984 62.9391C59.2086 62.7576 60.3986 63.1206 61.3667 63.7257C63.1819 64.835 64.392 66.751 64.7349 68.8285Z" fill="#FF88B6" stroke="black" stroke-miterlimit="10"/>
<path d="M64.3316 67.4972C63.0811 66.872 61.871 66.1661 60.8827 65.2383C59.9146 64.3105 59.1683 63.1206 59.0473 61.8499C58.9263 60.5793 59.4507 59.2279 60.5802 58.4817C61.0844 58.159 61.6895 57.9371 62.3147 57.9976C62.8189 58.038 63.303 58.28 63.7064 58.5624C64.6946 59.2884 65.2796 60.3776 65.5418 61.507C66.046 63.5643 65.5417 65.7829 64.3316 67.4972Z" fill="#FF88B6" stroke="black" stroke-miterlimit="10"/>
<path d="M64.977 66.267C64.5333 64.9358 64.1703 63.5845 64.1501 62.2332C64.1299 60.8819 64.4325 59.5305 65.2392 58.5423C66.046 57.554 67.3771 56.9892 68.7083 57.2514C69.2932 57.3725 69.8781 57.6548 70.2815 58.1389C70.6042 58.5423 70.7857 59.0263 70.8664 59.5305C71.0479 60.7407 70.6849 61.9307 70.0798 62.8988C68.9705 64.6938 67.0544 65.9241 64.977 66.267Z" fill="#FF88B6" stroke="black" stroke-miterlimit="10"/>
<path d="M66.3081 65.8434C66.9333 64.5929 67.6393 63.3828 68.5671 62.3945C69.4948 61.4062 70.6848 60.6802 71.9554 60.5591C73.2261 60.418 74.5774 60.9625 75.3237 62.092C75.6464 62.5962 75.8682 63.2013 75.8077 63.8265C75.7674 64.3308 75.5254 64.8148 75.243 65.2182C74.5169 66.2065 73.4278 66.7914 72.2983 67.0536C70.2411 67.5578 68.0225 67.0536 66.3081 65.8434Z" fill="#FF88B6" stroke="black" stroke-miterlimit="10"/>
<path d="M67.5383 66.509C68.8695 66.0653 70.2208 65.7023 71.5721 65.6821C72.9235 65.6619 74.2748 65.9645 75.2631 66.7712C76.2514 67.578 76.8161 68.9091 76.5539 70.2403C76.4329 70.8252 76.1505 71.4101 75.6664 71.8135C75.2631 72.1362 74.779 72.3177 74.2748 72.3984C73.0646 72.5799 71.8747 72.2169 70.9066 71.6118C69.1115 70.4823 67.8812 68.5663 67.5383 66.509Z" fill="#FF88B6" stroke="black" stroke-miterlimit="10"/>
<path d="M67.962 67.8402C69.2125 68.4655 70.4226 69.1714 71.4109 70.0991C72.379 71.0269 73.1253 72.2169 73.2463 73.4875C73.3875 74.7582 72.8429 76.1095 71.7134 76.8558C71.2092 77.1785 70.6041 77.4003 69.9789 77.3398C69.4747 77.2995 68.9906 77.0575 68.5872 76.7751C67.5989 76.049 67.014 74.9599 66.7518 73.8304C66.2476 71.753 66.7518 69.5344 67.962 67.8402Z" fill="#FF88B6" stroke="black" stroke-miterlimit="10"/>
<path d="M133.934 101.664C134.64 103.338 135.225 105.072 135.407 106.827C135.588 108.582 135.286 110.377 134.338 111.728C133.39 113.099 131.716 113.967 129.961 113.745C129.194 113.644 128.408 113.321 127.843 112.736C127.379 112.252 127.097 111.627 126.956 110.982C126.593 109.429 126.956 107.855 127.641 106.524C128.912 104.064 131.292 102.309 133.934 101.664Z" fill="#FFF58C" stroke="black" stroke-miterlimit="10"/>
<path d="M133.954 99.9897C133.269 101.664 132.462 103.318 131.332 104.669C130.203 106.02 128.731 107.089 127.097 107.392C125.463 107.674 123.668 107.109 122.579 105.718C122.095 105.113 121.772 104.326 121.793 103.519C121.813 102.854 122.055 102.208 122.398 101.664C123.245 100.312 124.616 99.4451 126.048 99.0014C128.69 98.1543 131.615 98.5779 133.954 99.9897Z" fill="#FFF58C" stroke="black" stroke-miterlimit="10"/>
<path d="M135.124 98.8198C133.45 99.5257 131.716 100.111 129.961 100.292C128.206 100.474 126.411 100.171 125.06 99.2232C123.688 98.2753 122.821 96.6012 123.043 94.8465C123.144 94.0801 123.467 93.2935 124.051 92.7288C124.535 92.2649 125.161 91.9825 125.806 91.8413C127.359 91.4783 128.932 91.8413 130.263 92.5271C132.704 93.7977 134.479 96.1575 135.124 98.8198Z" fill="#FFF58C" stroke="black" stroke-miterlimit="10"/>
<path d="M136.798 98.8198C135.124 98.1341 133.471 97.3273 132.119 96.1978C130.768 95.0684 129.699 93.596 129.396 91.9623C129.094 90.3286 129.679 88.5336 131.07 87.4445C131.675 86.9604 132.462 86.6377 133.269 86.6579C133.934 86.678 134.58 86.9201 135.124 87.263C136.476 88.1101 137.343 89.4815 137.787 90.9135C138.634 93.5557 138.21 96.4802 136.798 98.8198Z" fill="#FFF58C" stroke="black" stroke-miterlimit="10"/>
<path d="M137.968 99.9897C137.262 98.3157 136.677 96.5812 136.496 94.8264C136.335 93.0717 136.617 91.2767 137.565 89.9254C138.513 88.574 140.187 87.6866 141.942 87.9085C142.708 88.0093 143.495 88.332 144.059 88.9169C144.523 89.401 144.806 90.0262 144.947 90.6716C145.31 92.2246 144.947 93.7978 144.261 95.129C142.99 97.5896 140.61 99.3443 137.968 99.9897Z" fill="#FFF58C" stroke="black" stroke-miterlimit="10"/>
<path d="M137.968 101.664C138.654 99.9896 139.461 98.3357 140.59 96.9844C141.72 95.6331 143.192 94.5641 144.826 94.2616C146.459 93.9792 148.254 94.544 149.344 95.9356C149.828 96.5407 150.15 97.3273 150.13 98.1341C150.11 98.7996 149.868 99.445 149.525 99.9896C148.678 101.341 147.307 102.208 145.875 102.652C143.232 103.519 140.288 103.075 137.968 101.664Z" fill="#FFF58C" stroke="black" stroke-miterlimit="10"/>
<path d="M136.778 102.833C138.452 102.128 140.187 101.543 141.941 101.361C143.696 101.2 145.491 101.482 146.842 102.43C148.214 103.378 149.081 105.052 148.859 106.807C148.758 107.573 148.436 108.36 147.851 108.925C147.367 109.388 146.742 109.671 146.096 109.812C144.543 110.175 142.97 109.812 141.639 109.126C139.198 107.876 137.423 105.496 136.778 102.833Z" fill="#FFF58C" stroke="black" stroke-miterlimit="10"/>
<path d="M135.124 102.833C136.798 103.519 138.452 104.326 139.804 105.455C141.155 106.585 142.224 108.057 142.526 109.691C142.809 111.325 142.244 113.12 140.852 114.209C140.247 114.693 139.461 115.016 138.654 114.995C137.988 114.975 137.343 114.733 136.798 114.39C135.447 113.543 134.58 112.172 134.136 110.74C133.269 108.098 133.692 105.173 135.124 102.833Z" fill="#FFF58C" stroke="black" stroke-miterlimit="10"/>
<path d="M62.0728 127.5C65.925 120.219 79.7207 88.2917 79.7207 88.2917C80.7291 86.6983 80.709 84.6007 79.4988 83.0074C79.4786 82.9872 79.4585 82.967 79.4585 82.9469L85.247 82.2611C86.3361 82.3418 87.4454 82.0393 88.3933 81.3132C90.4102 79.7602 90.7733 76.876 89.2203 74.8591C88.4538 73.8506 87.3446 73.2456 86.1748 73.1246C86.0134 73.1044 85.8117 73.0842 85.6503 73.1044L51.6453 70.906C44.9694 70.0387 38.8582 74.7582 37.9909 81.4342L32.989 120.381H33.0092L13.5259 135.427L29.3989 155.999L51.7462 138.734C51.726 138.755 58.2003 134.781 62.0728 127.5ZM71.6934 83.8747L56.9297 102.733L60.8828 85.1453L71.6934 83.8747Z" fill="#EBEBEB" stroke="#1D1D1B" stroke-miterlimit="10" stroke-linecap="round" stroke-linejoin="round"/>
<path d="M51.5243 138.916C51.5243 138.916 58.0389 134.943 61.871 127.662C65.7031 120.401 79.5189 88.4732 79.5189 88.453C80.5274 86.8597 80.5072 84.7621 79.2971 83.1687C77.744 81.1518 74.8599 80.7888 72.843 82.3418C72.2581 82.8057 71.7942 83.3906 71.4917 84.0158L56.7279 102.874" fill="#EBEBEB"/>
<path d="M51.5243 138.916C51.5243 138.916 58.0389 134.943 61.871 127.662C65.7031 120.401 79.5189 88.4732 79.5189 88.453C80.5274 86.8597 80.5072 84.7621 79.2971 83.1687C77.744 81.1518 74.8599 80.7888 72.843 82.3418C72.2581 82.8057 71.7942 83.3906 71.4917 84.0158L56.7279 102.874" stroke="#1D1D1B" stroke-miterlimit="10" stroke-linecap="round" stroke-linejoin="round"/>
<path d="M117.497 75.1212C117.497 75.1212 115.137 77.0978 112.495 77.7029C109.853 78.3079 107.554 75.0607 103.379 75.3027C100.596 75.4641 99.1837 77.5617 98.5383 78.9332L6.52711 88.2714C5.37748 88.3924 4.53039 89.4412 4.65141 90.5909V90.6514C4.77242 91.801 5.8212 92.6481 6.97083 92.5271L98.7601 83.1888C100.515 85.831 104.791 88.4933 109.994 85.3267C117.598 80.6879 117.497 75.1212 117.497 75.1212Z" fill="#FFF58C" stroke="#1D1D1B" stroke-miterlimit="10" stroke-linecap="round" stroke-linejoin="round"/>
<path d="M29.4565 155.941C30.9906 154.756 28.6749 149.186 24.2844 143.499C19.8938 137.813 15.0909 134.163 13.5569 135.347C12.0228 136.532 14.3384 142.102 18.729 147.788C23.1196 153.475 27.9224 157.125 29.4565 155.941Z" fill="#EBEBEB" stroke="#1D1D1B" stroke-miterlimit="10" stroke-linecap="round" stroke-linejoin="round"/>
</svg>
