<svg width="211" height="209" viewBox="0 0 211 209" fill="none" xmlns="http://www.w3.org/2000/svg">
<path d="M196.466 118.622C204.493 69.164 170.906 22.5632 121.448 14.5365C71.9899 6.50972 25.3892 40.0966 17.3624 89.5548C9.3357 139.013 42.9225 185.614 92.3807 193.64C141.839 201.667 188.44 168.08 196.466 118.622Z" fill="#B180E0"/>
<path d="M21.5308 132.493C21.5308 132.493 153.955 139.189 192.449 74.9517C192.449 74.9517 205.1 124.934 175.789 161.664L126.568 185.342L76.746 175.137L29.0492 151.218C29.0492 151.198 22.6535 136.984 21.5308 132.493Z" fill="#EBEBEB"/>
<path d="M20.6282 131.911C37.0284 133.275 63.6536 131.25 80.0337 129.706" stroke="#020303" stroke-miterlimit="10"/>
<path d="M184.591 57.6493C184.791 57.9902 184.13 86.3797 137.195 101.136C135.47 101.677 133.646 101.818 131.862 102.098C145.495 93.6776 161.634 75.3928 157.464 59.4939C156.101 54.3412 153.655 49.4894 152.753 44.2365C151.851 38.9836 152.953 32.8686 157.484 29.4001C162.376 31.7058 166.206 35.6956 170.175 39.3646C174.887 43.7152 180.982 51.2737 184.591 57.6493Z" fill="#5A66FF" stroke="#020303" stroke-miterlimit="10" stroke-linecap="round" stroke-linejoin="round"/>
<path d="M92.5442 104.103C66.5205 99.5521 37.7901 105.767 18.0417 120.824C18.0417 124 19.5 132 24.5 142.5C38.0532 123.373 65.3777 108.394 92.5442 104.103Z" fill="#FFF58C" stroke="#020303" stroke-miterlimit="10" stroke-linecap="round" stroke-linejoin="round"/>
<path d="M87.4518 98.9104C65.5782 93.1162 40.597 94.8605 20.3875 103.582C19.0241 104.163 17.6207 104.825 16.8388 105.888C16.117 106.87 16.0369 108.073 16.0369 109.196C16.0369 112.845 16.5381 116.514 17.5806 120.062C33.1588 110.459 52.1052 103.081 71.9538 103.582C74.8609 103.662 77.8282 103.903 80.6351 103.301C83.442 102.74 86.1085 101.056 87.4518 98.9104Z" fill="#FF88B6" stroke="#020303" stroke-miterlimit="10"/>
<path d="M112.614 163.769C124.002 161.384 136.933 153.685 139.84 142.417C141.545 135.821 140.001 128.483 142.908 122.328C144.432 119.08 148.421 116.233 151.449 118.158C153.755 119.621 153.955 122.909 153.514 125.616C153.073 128.323 152.271 131.21 153.414 133.696C154.937 136.984 160.05 137.806 162.536 135.139C164.14 133.415 164.481 130.869 164.661 128.503C164.842 126.137 164.982 123.631 166.325 121.686C167.669 119.742 170.736 118.779 172.44 120.423C174.205 122.148 173.322 125.075 172.521 127.4C171.719 129.726 171.498 132.994 173.764 133.997C175.588 134.798 177.593 133.395 178.916 131.911C185.733 124.293 186.655 112.845 184.189 102.92C183.106 98.5296 181.422 94.0787 182.224 89.6479C183.026 85.197 187.638 81.0468 191.808 82.771C195.036 84.0943 196.239 88.0039 196.78 91.4523C199.587 108.755 196.359 126.799 188.74 142.578C186.675 146.848 184.269 150.998 181.061 154.487C173.944 162.186 163.599 165.915 153.594 169.082C142.046 172.751 129.134 176.019 118.147 170.867C116.343 170.025 114.559 168.882 113.576 167.138C112.634 165.373 111.511 164.01 112.614 163.769Z" fill="#5A66FF" stroke="#020303" stroke-miterlimit="10"/>
<path d="M171.999 124.934C176.705 124.934 180.52 121.119 180.52 116.413C180.52 111.707 176.705 107.892 171.999 107.892C167.293 107.892 163.478 111.707 163.478 116.413C163.478 121.119 167.293 124.934 171.999 124.934Z" fill="#FFF58C" stroke="#1D1D1B" stroke-miterlimit="10"/>
<path d="M42.4829 105.787C49.182 105.787 54.6126 100.357 54.6126 93.6576C54.6126 86.9585 49.182 81.5278 42.4829 81.5278C35.7838 81.5278 30.3531 86.9585 30.3531 93.6576C30.3531 100.357 35.7838 105.787 42.4829 105.787Z" fill="#FF88B6" stroke="#1D1D1B" stroke-miterlimit="10"/>
<path d="M56.0148 138.347C59.547 138.347 62.4104 135.484 62.4104 131.951C62.4104 128.419 59.547 125.556 56.0148 125.556C52.4826 125.556 49.6191 128.419 49.6191 131.951C49.6191 135.484 52.4826 138.347 56.0148 138.347Z" fill="#56B381" stroke="#1D1D1B" stroke-miterlimit="10"/>
<path d="M196.224 118.619C204.25 69.1611 170.663 22.5603 121.205 14.5335C71.7471 6.50679 25.1464 40.0937 17.1196 89.5518C9.0929 139.01 42.6797 185.611 92.1379 193.637C141.596 201.664 188.197 168.077 196.224 118.619Z" stroke="#181919" stroke-miterlimit="10"/>
<path d="M209.751 149.214V182.175C173.783 171.829 141.745 195.387 105.376 195.387C67.7235 195.086 36.9882 171.829 1 182.175V149.214C37.0283 138.929 68.3249 164.07 105.376 164.07C140.141 164.351 173.723 138.929 209.751 149.214Z" fill="white" stroke="#181919" stroke-miterlimit="10"/>
<path d="M108.384 29.2597L110.189 34.8133C110.349 35.3345 110.83 35.6754 111.372 35.6754H117.206C118.409 35.6754 118.91 37.2192 117.948 37.9209L113.216 41.3493C112.775 41.6701 112.595 42.2315 112.755 42.7327L114.559 48.2863C114.94 49.4291 113.617 50.3914 112.635 49.6697L107.903 46.2413C107.462 45.9205 106.881 45.9205 106.439 46.2413L101.708 49.6697C100.725 50.3714 99.4222 49.4291 99.7831 48.2863L101.588 42.7327C101.748 42.2114 101.568 41.65 101.126 41.3493L96.3948 37.9209C95.4124 37.2192 95.9136 35.6754 97.1366 35.6754H102.971C103.512 35.6754 103.993 35.3345 104.154 34.8133L105.958 29.2597C106.399 28.1169 108.023 28.1169 108.384 29.2597Z" fill="#FFF58C" stroke="#181919" stroke-miterlimit="10" stroke-linecap="round" stroke-linejoin="round"/>
<path d="M47.7551 55.023C61.97 48.7676 77.087 44.5172 92.4847 42.4321" stroke="#181919" stroke-miterlimit="10" stroke-linecap="round" stroke-linejoin="round"/>
<path d="M42.2017 63.1628C43.7961 63.1628 45.0887 61.8702 45.0887 60.2757C45.0887 58.6813 43.7961 57.3887 42.2017 57.3887C40.6072 57.3887 39.3146 58.6813 39.3146 60.2757C39.3146 61.8702 40.6072 63.1628 42.2017 63.1628Z" fill="#FFF58C" stroke="#181919" stroke-miterlimit="10" stroke-linecap="round" stroke-linejoin="round"/>
<path d="M166.345 55.8648C152.131 49.6094 137.014 45.359 121.616 43.2739" stroke="#181919" stroke-miterlimit="10" stroke-linecap="round" stroke-linejoin="round"/>
<path d="M171.898 64.0047C173.493 64.0047 174.785 62.7122 174.785 61.1177C174.785 59.5232 173.493 58.2306 171.898 58.2306C170.304 58.2306 169.011 59.5232 169.011 61.1177C169.011 62.7122 170.304 64.0047 171.898 64.0047Z" fill="#FFF58C" stroke="#181919" stroke-miterlimit="10" stroke-linecap="round" stroke-linejoin="round"/>
<path d="M209.751 149.214V182.175C173.783 171.829 141.745 195.387 105.376 195.387C67.7235 195.086 36.9882 171.829 1 182.175V149.214C37.0283 138.929 68.3249 164.07 105.376 164.07C140.141 164.351 173.723 138.929 209.751 149.214Z" fill="white" stroke="#181919" stroke-miterlimit="10"/>
<path d="M20.207 166.035C19.5052 165.995 19.1644 165.975 18.4627 165.935C18.2421 166.917 18.1219 167.398 17.9013 168.381C17.2597 168.361 16.939 168.361 16.2773 168.341C16.4979 167.358 16.6182 166.857 16.8387 165.875C16.2773 165.855 15.9966 165.855 15.4553 165.855C15.4553 165.333 15.4553 165.053 15.4553 164.531C16.137 164.531 16.4778 164.531 17.1394 164.551C17.3199 163.749 17.4202 163.348 17.6006 162.566C16.939 162.546 16.6182 162.546 15.9566 162.526C15.9566 162.005 15.9566 161.744 15.9566 161.223C16.7385 161.223 17.1194 161.243 17.8812 161.263C18.1018 160.281 18.2221 159.78 18.4627 158.797C19.1043 158.817 19.425 158.837 20.0666 158.877C19.826 159.86 19.7058 160.361 19.4852 161.343C20.1669 161.384 20.5277 161.404 21.2094 161.464C21.4299 160.481 21.5503 160 21.7909 159.018C22.4324 159.078 22.7331 159.098 23.3747 159.158C23.1341 160.141 22.9938 160.642 22.7732 161.604C23.3146 161.664 23.5752 161.684 24.1166 161.744C24.1166 162.266 24.1166 162.526 24.1166 163.048C23.4549 162.967 23.1341 162.947 22.4725 162.887C22.2921 163.669 22.2119 164.07 22.0314 164.852C22.673 164.912 23.0138 164.932 23.6554 165.012C23.6554 165.534 23.6554 165.814 23.6755 166.336C22.9136 166.256 22.5326 166.215 21.7708 166.155C21.5502 167.118 21.45 167.599 21.2295 168.561C20.5879 168.521 20.2671 168.501 19.6255 168.461C19.8661 167.478 19.9864 166.997 20.207 166.035ZM18.7634 164.632C19.4651 164.672 19.806 164.692 20.5077 164.732C20.6881 163.95 20.7683 163.549 20.9488 162.767C20.2671 162.707 19.9062 162.687 19.2045 162.667C19.0241 163.449 18.9439 163.83 18.7634 164.632Z" fill="#181919"/>
<path d="M30.111 162.005C30.111 161.604 30.1511 161.404 30.1712 160.983C28.6274 160.722 27.8455 160.602 26.2817 160.381C26.3017 159.8 26.3217 159.499 26.3418 158.918C28.5873 159.218 29.7101 159.399 31.9355 159.8C31.8754 160.722 31.8353 161.183 31.7551 162.105C31.4142 166.456 30.3717 168.702 26.2616 169.183C26.2616 168.581 26.2416 168.281 26.2416 167.659C29.0886 167.258 30.111 165.273 30.111 162.005ZM35.4842 171.188C34.8025 171.067 34.4817 171.007 33.8001 170.887C33.6397 166.817 33.3991 164.551 33.8001 159.94C34.4817 160.08 34.8025 160.141 35.4842 160.281C35.0431 164.892 35.3238 167.178 35.4842 171.188Z" fill="#181919"/>
<path d="M42.2612 163.349C42.3214 162.787 42.3614 162.507 42.4416 161.945C43.1033 162.106 43.4241 162.166 44.0857 162.326C43.805 164.532 43.7649 165.574 43.7649 167.659C41.5194 167.138 40.4167 166.877 38.2113 166.376C38.2113 164.291 38.2514 163.228 38.492 161.043C39.1536 161.183 39.4744 161.263 40.136 161.404C40.0759 161.965 40.0358 162.246 39.9756 162.807C40.8778 163.028 41.3389 163.128 42.2612 163.349ZM40.6974 171.208C43.4241 171.829 44.7874 172.15 47.5341 172.812C47.5542 173.293 47.5742 173.514 47.5943 173.995C44.1859 173.153 42.4818 172.752 39.0935 172.03C39.0333 170.867 39.0132 170.406 38.933 169.103C41.5996 169.704 42.9229 170.025 45.6094 170.646C45.5894 170.406 45.5893 170.286 45.5693 170.045C42.8827 169.403 41.5595 169.083 38.893 168.501C38.8529 167.98 38.8529 167.699 38.8128 167.178C42.1209 167.92 43.785 168.341 47.1733 169.123C47.2535 170.426 47.2935 171.108 47.3537 172.25C44.6671 171.609 43.3238 171.288 40.6573 170.687C40.6974 170.887 40.6974 170.987 40.6974 171.208ZM42.1208 164.752C41.1986 164.531 40.7375 164.431 39.8152 164.211C39.8152 164.692 39.8152 164.932 39.8152 165.414C40.7375 165.634 41.1986 165.734 42.1208 165.955C42.1208 165.474 42.1208 165.233 42.1208 164.752ZM47.1933 165.193C47.8148 165.333 48.1356 165.414 48.7772 165.554C48.717 166.155 48.717 166.436 48.717 167.018C48.0754 166.877 47.7747 166.797 47.1331 166.657C47.1331 167.439 47.093 167.82 47.1331 168.581C46.4515 168.421 46.1106 168.341 45.449 168.18C45.3087 165.995 45.4891 164.872 45.7698 162.567C46.4515 162.727 46.7722 162.807 47.4539 162.968C47.3537 163.87 47.3136 164.311 47.1933 165.193Z" fill="#181919"/>
<path d="M52.8471 163.89C53.5288 164.05 53.8696 164.13 54.5513 164.271C54.5312 164.732 54.5112 164.952 54.4711 165.413C55.4134 165.614 55.8946 165.714 56.8569 165.915C56.8369 166.476 56.8369 166.737 56.8168 167.298C54.1102 166.777 52.787 166.496 50.1605 165.895C50.2207 165.333 50.2407 165.033 50.3009 164.471C51.2833 164.692 51.7645 164.812 52.7469 165.033C52.787 164.592 52.807 164.351 52.8471 163.89ZM50.4412 168.802C50.4412 168.14 50.7018 167.659 51.163 167.358C51.6843 167.017 52.4862 166.917 53.4485 167.118C54.4109 167.318 55.2329 167.739 55.7743 168.321C56.2354 168.802 56.5161 169.403 56.5161 170.085C56.5161 170.747 56.2354 171.228 55.7943 171.528C55.273 171.889 54.4711 171.97 53.5288 171.769C52.5865 171.569 51.7845 171.128 51.2432 170.546C50.742 170.045 50.4412 169.443 50.4412 168.802ZM53.0075 173.954C55.8144 174.616 57.2379 174.917 60.0849 175.578C60.0849 176.18 60.0849 176.481 60.0849 177.062C56.5763 176.14 54.832 175.719 51.3635 174.857C51.3033 173.614 51.2833 173.072 51.2231 171.709C51.9048 171.869 52.2456 171.95 52.9473 172.09C52.9674 172.892 52.9875 173.233 53.0075 173.954ZM52.1053 169.163C52.1053 169.423 52.1855 169.644 52.3859 169.844C52.6466 170.125 53.0275 170.346 53.4485 170.426C53.8896 170.526 54.2706 170.466 54.5112 170.285C54.6916 170.145 54.7718 169.965 54.7718 169.704C54.7718 169.443 54.6716 169.223 54.4911 169.002C54.2505 168.722 53.8696 168.521 53.4085 168.421C52.9674 168.321 52.5865 168.381 52.3459 168.561C52.1855 168.722 52.1053 168.902 52.1053 169.163ZM59.9044 168.762C60.5459 168.882 60.8668 168.962 61.5284 169.082C61.5284 169.664 61.5284 169.965 61.5284 170.546C60.8868 170.406 60.566 170.346 59.9044 170.205C59.9044 171.669 59.9044 172.411 59.9044 173.874C59.2026 173.734 58.8618 173.674 58.1601 173.533C58.1601 170.265 58.1401 168.641 58.1601 165.373C58.8418 165.514 59.2027 165.594 59.8844 165.734C59.8844 166.957 59.9044 167.539 59.9044 168.762Z" fill="#181919"/>
<path d="M71.6328 176.561C70.9311 176.36 70.5702 176.28 69.8685 176.08C69.6479 177.022 69.5076 177.624 69.2469 178.666C68.6054 178.486 68.2846 178.405 67.623 178.225C67.8836 177.182 68.0039 176.601 68.2445 175.659C67.6831 175.518 67.4024 175.438 66.8611 175.298C66.8611 174.757 66.8611 174.496 66.8611 173.955C67.5428 174.135 67.8636 174.215 68.5453 174.396C68.7257 173.634 68.8259 173.233 69.0064 172.491C68.3447 172.311 68.0239 172.23 67.3623 172.07C67.3623 171.549 67.3623 171.268 67.3623 170.747C68.1442 170.947 68.5252 171.047 69.3071 171.248C69.5477 170.306 69.6479 169.885 69.8685 169.022C70.5301 169.203 70.8509 169.283 71.5125 169.464C71.292 170.326 71.1917 170.747 70.9511 171.689C71.6528 171.889 72.0137 171.97 72.7155 172.17C72.956 171.228 73.0563 170.827 73.2768 169.945C73.9184 170.125 74.2592 170.205 74.9008 170.386C74.6803 171.248 74.58 171.669 74.3394 172.611C74.9008 172.772 75.1815 172.852 75.7429 172.992C75.7429 173.513 75.7429 173.794 75.7429 174.315C75.0612 174.135 74.7204 174.035 74.0387 173.834C73.8583 174.596 73.758 174.977 73.5575 175.739C74.2192 175.919 74.56 176.02 75.2417 176.2C75.2417 176.741 75.2417 177.002 75.2417 177.543C74.4597 177.323 74.0587 177.223 73.2568 177.002C73.0162 177.944 72.8758 178.546 72.6352 179.608C71.9937 179.428 71.6528 179.328 71.0113 179.167C71.2719 178.105 71.4122 177.503 71.6328 176.561ZM70.1692 174.817C70.871 175.017 71.2318 175.097 71.9536 175.298C72.134 174.536 72.2343 174.155 72.4147 173.393C71.713 173.193 71.3521 173.092 70.6303 172.912C70.4699 173.654 70.3697 174.035 70.1692 174.817Z" fill="#181919"/>
<path d="M83.983 177.222C83.983 179.187 83.8026 180.711 83.0608 181.513C82.5596 182.054 81.7576 182.235 80.8153 181.994C79.873 181.754 79.0911 181.192 78.63 180.37C77.9282 179.187 77.7678 177.563 77.7879 175.578C77.7879 173.614 77.9483 172.21 78.67 171.569C79.1512 171.128 79.9331 171.027 80.8754 171.268C81.8178 171.508 82.5996 172.03 83.1009 172.731C83.8026 173.754 83.983 175.258 83.983 177.222ZM79.5321 176.06C79.5321 177.724 79.6123 178.987 79.9732 179.709C80.1537 180.049 80.4744 180.31 80.8554 180.39C81.2163 180.49 81.5371 180.41 81.7375 180.15C82.1385 179.648 82.2388 178.425 82.2388 176.761C82.2388 175.117 82.1586 173.854 81.7576 173.233C81.5571 172.932 81.2563 172.711 80.8955 172.611C80.5346 172.511 80.2138 172.571 80.0133 172.772C79.6123 173.193 79.5321 174.396 79.5321 176.06ZM87.2511 177.122C87.9728 177.283 88.3337 177.363 89.0354 177.503C89.0354 178.085 89.0354 178.365 89.0354 178.947C88.3136 178.806 87.9528 178.726 87.2511 178.566C87.2511 180.711 87.231 181.814 87.211 184.099C86.4892 183.959 86.1483 183.879 85.4266 183.718C85.5068 178.887 85.5068 176.661 85.4667 172.391C86.1684 172.551 86.5293 172.631 87.2511 172.792C87.2511 174.496 87.2511 175.338 87.2511 177.122Z" fill="#181919"/>
<path d="M96.9952 179.668C96.9952 181.633 96.8349 183.117 96.093 183.939C95.5918 184.5 94.8099 184.741 93.8676 184.621C92.9453 184.5 92.1634 184.039 91.6622 183.317C90.9404 182.275 90.8 180.711 90.8 178.746C90.8 176.801 90.9604 175.358 91.6822 174.616C92.1834 174.115 92.9854 173.914 93.8876 174.035C94.8299 174.175 95.6119 174.596 96.1131 175.258C96.8349 176.22 96.9952 177.724 96.9952 179.668ZM92.5443 179.047C92.5443 180.711 92.6246 181.954 93.0255 182.576C93.226 182.876 93.5267 183.077 93.8876 183.137C94.2485 183.197 94.5693 183.077 94.7698 182.836C95.1708 182.335 95.2309 181.112 95.2309 179.448C95.2309 177.804 95.1507 176.561 94.7698 175.979C94.5693 175.679 94.2485 175.498 93.8876 175.438C93.5267 175.378 93.206 175.478 93.0255 175.719C92.6446 176.18 92.5443 177.403 92.5443 179.047ZM100.504 185.824C99.8021 185.783 99.4412 185.763 98.7195 185.723C98.7195 181.232 98.7195 179.007 98.7195 174.556C99.4212 174.616 99.7821 174.636 100.484 174.676C100.504 179.127 100.504 181.353 100.504 185.824Z" fill="#181919"/>
<path d="M109.285 184.861C107.12 185.062 106.037 185.122 103.872 185.142C103.872 181.052 103.872 179.007 103.872 174.917C106.198 174.897 107.381 174.817 109.726 174.576C109.726 175.157 109.726 175.458 109.726 176.04C108.082 176.2 107.26 176.26 105.636 176.32C105.636 179.247 105.636 180.711 105.636 183.638C107.24 183.578 108.022 183.518 109.626 183.357C110.589 183.257 111.31 183.037 111.671 182.676C111.671 179.247 111.671 177.603 111.671 174.135C112.373 174.035 112.734 173.995 113.456 173.894C113.476 178.465 113.456 180.611 113.476 185.122C112.754 185.222 112.413 185.262 111.691 185.342C111.691 184.821 111.691 184.56 111.691 184.039C111.27 184.48 110.388 184.761 109.285 184.861Z" fill="#181919"/>
<path d="M122.939 177.804C122.919 179.588 122.738 181.012 122.077 182.014C121.595 182.736 120.793 183.257 119.851 183.438C118.929 183.618 118.127 183.438 117.606 182.916C116.864 182.135 116.683 180.571 116.703 178.666C116.723 176.781 116.864 175.258 117.586 174.195C118.087 173.473 118.869 172.952 119.791 172.752C120.733 172.551 121.535 172.732 122.036 173.273C122.638 173.914 122.879 175.057 122.919 176.421C123.62 176.26 123.961 176.18 124.663 176C124.683 174.376 124.663 173.453 124.643 171.629C125.365 171.448 125.705 171.368 126.427 171.188C126.507 176 126.447 177.944 126.487 182.556C125.766 182.736 125.425 182.816 124.703 182.977C124.683 180.731 124.683 179.628 124.663 177.383C123.981 177.563 123.62 177.644 122.939 177.804ZM118.468 178.325C118.448 179.929 118.568 181.232 118.969 181.714C119.169 181.954 119.47 182.034 119.851 181.954C120.212 181.874 120.533 181.653 120.733 181.353C121.114 180.711 121.174 179.328 121.174 177.744C121.194 176.18 121.134 174.997 120.733 174.516C120.533 174.275 120.212 174.195 119.831 174.275C119.47 174.355 119.149 174.576 118.969 174.877C118.568 175.538 118.468 176.741 118.468 178.325Z" fill="#181919"/>
<path d="M129.394 175.498C133.685 174.355 135.81 173.734 140.021 172.571C140.021 173.052 140.021 173.333 140.021 173.854C135.81 175.017 133.665 175.639 129.394 176.781C129.374 176.26 129.374 175.979 129.394 175.498ZM131.941 173.273C134.928 172.451 136.432 172.03 139.379 171.208C139.379 171.669 139.359 171.909 139.359 172.371C135.71 173.373 133.845 173.914 130.156 174.917C130.176 173.854 130.196 173.373 130.176 172.15C133.144 171.368 134.627 170.947 137.554 170.125C137.554 169.965 137.554 169.864 137.554 169.704C134.627 170.526 133.144 170.947 130.176 171.729C130.156 171.188 130.156 170.927 130.156 170.406C133.825 169.423 135.67 168.882 139.299 167.9C139.319 169.123 139.359 169.824 139.339 170.887C136.412 171.709 134.948 172.13 131.981 172.932C131.941 173.052 131.941 173.112 131.941 173.273ZM131.941 180.009C135.008 179.167 136.532 178.726 139.559 177.884C139.559 178.385 139.559 178.626 139.579 179.127C135.85 180.19 133.966 180.731 130.176 181.734C130.156 180.551 130.156 179.969 130.156 178.786C133.124 178.004 134.607 177.583 137.534 176.761C137.534 176.561 137.534 176.481 137.534 176.28C134.607 177.102 133.124 177.523 130.156 178.305C130.156 177.824 130.156 177.563 130.136 177.082C133.805 176.1 135.65 175.578 139.279 174.576C139.279 175.739 139.299 176.32 139.299 177.483C136.372 178.305 134.908 178.726 131.941 179.528C131.941 179.729 131.941 179.829 131.941 180.009Z" fill="#181919"/>
<path d="M150.727 172.691C150.005 172.872 149.664 172.952 148.942 173.132C148.702 174.175 148.601 174.696 148.381 175.739C147.739 175.919 147.419 175.999 146.797 176.16C147.018 175.097 147.118 174.576 147.338 173.533C146.797 173.674 146.516 173.734 145.975 173.874C145.975 173.333 145.975 173.072 145.975 172.531C146.637 172.371 146.957 172.29 147.619 172.11C147.799 171.268 147.9 170.847 148.08 169.985C147.398 170.145 147.098 170.225 146.456 170.386C146.456 169.864 146.456 169.604 146.456 169.083C147.218 168.882 147.579 168.782 148.381 168.581C148.621 167.519 148.722 166.997 148.962 165.955C149.624 165.795 149.965 165.714 150.626 165.534C150.386 166.556 150.266 167.058 150.045 168.14C150.767 167.96 151.128 167.86 151.869 167.679C152.07 166.596 152.21 166.095 152.451 165.093C153.112 164.932 153.453 164.852 154.115 164.672C153.874 165.674 153.754 166.155 153.554 167.258C154.135 167.118 154.416 167.038 154.997 166.897C155.017 167.439 155.037 167.719 155.057 168.261C154.356 168.421 153.995 168.521 153.273 168.682C153.112 169.564 152.992 169.985 152.732 170.827C153.433 170.666 153.774 170.586 154.476 170.406C154.436 170.927 154.396 171.188 154.356 171.729C153.554 171.93 153.133 172.03 152.331 172.21C152.03 173.253 151.97 173.754 151.749 174.776C151.088 174.937 150.767 175.037 150.105 175.198C150.386 174.255 150.446 173.734 150.727 172.691ZM149.283 171.749C150.005 171.569 150.386 171.488 151.108 171.308C151.348 170.466 151.448 170.045 151.629 169.163C150.887 169.343 150.526 169.423 149.784 169.604C149.604 170.486 149.504 170.907 149.283 171.749Z" fill="#181919"/>
<path d="M165.463 163.549C165.443 162.707 165.443 162.306 165.423 161.464C166.164 161.304 166.525 161.223 167.267 161.043C167.307 163.85 167.628 165.394 167.287 168.08C165.703 168.401 164.901 168.561 163.318 168.902C163.197 169.764 163.137 170.205 163.157 171.047C164.982 170.667 165.904 170.466 167.748 170.105C167.768 170.647 167.768 170.927 167.788 171.489C163.338 172.331 161.112 172.832 156.761 173.874C156.741 173.313 156.741 173.052 156.741 172.491C158.566 172.05 159.488 171.849 161.333 171.448C161.313 170.606 161.373 170.185 161.493 169.303C159.889 169.664 159.087 169.845 157.503 170.205C157.824 167.499 157.523 165.955 157.503 163.349C158.245 163.168 158.606 163.088 159.348 162.908C159.348 163.709 159.368 164.09 159.368 164.892C161.794 164.331 163.017 164.05 165.463 163.549ZM165.543 165.073C163.097 165.574 161.874 165.835 159.448 166.396C159.488 167.178 159.628 167.619 159.548 168.341C161.994 167.8 163.197 167.519 165.643 167.018C165.743 166.296 165.583 165.855 165.543 165.073Z" fill="#181919"/>
<path d="M176.911 167.338C176.71 168.04 176.53 168.601 176.169 169.062C175.668 169.724 174.846 170.165 173.843 170.326C172.881 170.486 172.039 170.306 171.498 169.824C170.716 169.103 170.956 167.779 170.856 165.714C170.756 163.669 170.856 162.065 171.598 160.983C172.119 160.241 172.941 159.7 173.883 159.539C174.866 159.359 175.688 159.599 176.229 160.201C176.55 160.562 176.771 161.043 176.931 161.644C177.753 161.524 178.174 161.464 178.996 161.364C178.976 160.301 178.956 159.78 178.936 158.717C179.678 158.617 180.039 158.577 180.78 158.477C180.901 163.529 180.76 165.594 180.8 169.965C180.059 170.045 179.698 170.085 178.936 170.185C178.916 168.942 178.856 168.341 178.936 167.058C178.134 167.178 177.713 167.218 176.911 167.338ZM172.68 165.394C172.761 167.118 172.48 168.24 172.901 168.702C173.102 168.922 173.442 169.002 173.823 168.942C174.204 168.882 174.545 168.682 174.746 168.401C175.147 167.819 175.548 166.637 175.467 164.932C175.387 163.228 175.267 161.945 174.846 161.404C174.645 161.143 174.284 161.043 173.904 161.103C173.523 161.163 173.202 161.384 173.001 161.704C172.62 162.366 172.6 163.669 172.68 165.394ZM177.292 164.652C177.312 165.113 177.232 165.494 177.192 165.875C177.913 165.774 178.274 165.714 179.016 165.614C179.096 164.531 179.056 163.97 179.036 162.827C178.294 162.927 177.933 162.968 177.192 163.088C177.252 163.569 177.272 164.09 177.292 164.652Z" fill="#181919"/>
<path d="M188.419 165.995C188.399 167.338 188.419 168 188.419 169.323C187.697 169.363 187.337 169.383 186.595 169.443C186.595 168.12 186.575 167.459 186.595 166.135C185.552 166.215 185.011 166.256 183.968 166.356C183.988 165.774 183.988 165.474 184.008 164.892C186.434 164.652 187.637 164.571 190.023 164.451C190.685 164.431 191.206 164.391 191.767 164.271C191.767 164.812 191.767 165.093 191.767 165.634C191.226 165.814 190.625 165.875 189.943 165.915C189.321 165.955 189.021 165.975 188.419 165.995ZM184.429 158.336C187.096 158.116 188.419 158.076 191.046 158.096C191.046 158.717 191.046 159.038 191.066 159.639C190.123 159.659 189.662 159.659 188.72 159.7C188.78 161.364 189.762 161.925 191.286 162.326C191.286 162.907 191.286 163.208 191.286 163.79C189.903 163.509 188.6 162.968 187.878 162.186C187.196 163.068 185.933 163.87 184.389 164.391C184.409 163.81 184.389 163.509 184.389 162.907C185.953 162.266 186.915 161.464 186.915 159.78C185.953 159.84 185.452 159.88 184.49 159.96C184.449 159.319 184.429 158.978 184.429 158.336ZM194.173 169.163C193.472 169.163 193.111 169.163 192.389 169.183C192.389 168.722 192.389 168.481 192.389 168C191.386 168.02 190.885 168.04 189.883 168.08C189.883 167.499 189.883 167.218 189.883 166.637C190.885 166.596 191.386 166.576 192.389 166.556C192.389 163.148 192.389 161.464 192.369 157.915C193.091 157.935 193.452 157.955 194.153 158.015C194.173 162.466 194.173 164.692 194.173 169.163Z" fill="#181919"/>
<path d="M137.434 116.413C156.962 109.577 176.49 98.75 192.268 74.5106" stroke="#020303" stroke-miterlimit="10"/>
<path d="M76.9458 116.393C76.9458 132.914 90.3386 146.346 106.899 146.346C123.42 146.346 136.853 132.954 136.853 116.393C136.853 104.664 130.116 94.4995 120.272 89.5874V71.1823C120.272 63.7842 114.297 57.8096 106.899 57.8096C99.5011 57.8096 93.5265 63.7842 93.5265 71.1823V89.6275C83.6823 94.5396 76.9458 104.684 76.9458 116.393Z" fill="white" stroke="#181919" stroke-miterlimit="10" stroke-linecap="round" stroke-linejoin="round"/>
<path d="M120.252 83.4324H93.5064" stroke="#181919" stroke-miterlimit="10" stroke-linecap="round" stroke-linejoin="round"/>
<path d="M120.252 73.2473H93.5064" stroke="#181919" stroke-miterlimit="10" stroke-linecap="round" stroke-linejoin="round"/>
<path d="M106.9 131.029C114.972 131.029 121.516 124.485 121.516 116.413C121.516 108.341 114.972 101.797 106.9 101.797C98.8279 101.797 92.2842 108.341 92.2842 116.413C92.2842 124.485 98.8279 131.029 106.9 131.029Z" fill="#FF88B6" stroke="#181919" stroke-miterlimit="10" stroke-linecap="round" stroke-linejoin="round"/>
<path d="M106.94 123.23C110.705 123.23 113.757 120.178 113.757 116.413C113.757 112.649 110.705 109.597 106.94 109.597C103.176 109.597 100.124 112.649 100.124 116.413C100.124 120.178 103.176 123.23 106.94 123.23Z" fill="#5A66FF" stroke="#181919" stroke-miterlimit="10" stroke-linecap="round" stroke-linejoin="round"/>
</svg>
