<svg width="265" height="109" viewBox="0 0 265 109" fill="none" xmlns="http://www.w3.org/2000/svg">
<path fill-rule="evenodd" clip-rule="evenodd" d="M215.15 30.4186C215 27.4786 215.05 23.7786 214.15 21.0386C213.32 18.5386 211.75 16.3286 210.41 14.0786C207.83 9.76859 204.38 7.92862 200.87 4.66862C199.85 3.71862 198.3 3.94859 197.12 3.32859C195.74 2.60859 194.63 1.8686 193.08 1.4886C190.07 0.748598 186.97 1.0786 184.33 2.7986C181.89 4.3886 179.38 5.8686 177.09 7.6786C175.24 9.1486 173.83 11.4186 172.08 12.7886C167.79 16.1286 167.32 21.7986 167.64 26.8386C167.8 29.4386 168.19 31.8586 169.75 34.0086C171.12 35.8986 173.13 37.3886 174.2 39.4986C175.58 42.1886 176.24 44.4986 178.71 46.4986C183.24 50.1886 189.26 51.7186 195 51.4086C197.47 51.2786 199.83 51.3886 202.02 50.0486C203.87 48.9186 204.54 47.0686 206.06 45.6886C207.11 44.7286 208.52 44.7286 209.74 44.1286C211.21 43.3986 211.4 42.6986 212.4 41.4686C212.8 40.9686 213.18 40.4286 213.47 39.8586C214.97 36.9486 215.37 33.9686 215.18 30.7386C215.18 30.6286 215.18 30.5186 215.16 30.4186H215.15Z" fill="#45B757"/>
<path fill-rule="evenodd" clip-rule="evenodd" d="M135.56 24.6086C135.37 22.4586 135.06 20.2686 134.36 18.2286C133.76 16.4686 132.55 15.1186 131.82 13.4386C130.9 11.3086 131.22 10.1186 129.28 8.57862C128.53 7.98862 127.97 7.03862 127.19 6.51862C126.33 5.93862 125.19 5.99864 124.22 5.71864C122.8 5.29864 121.58 4.42864 120.2 3.96864C118.84 3.51864 117.47 3.76864 116.1 3.46864C115.1 3.24864 114.53 2.36863 113.64 1.92863C112.65 1.44863 111.47 1.45865 110.4 1.25865C104.79 0.218646 99.3397 5.35863 95.6497 8.86863C93.9897 10.4486 92.3397 11.8186 91.5397 14.0286C90.8597 15.9186 89.4897 18.2086 89.3797 20.1986C89.2197 23.1286 91.7697 25.5086 90.7897 28.4886C90.0797 28.8086 90.2097 30.5786 90.4297 31.3686C90.7597 32.4986 91.6997 33.1886 92.3097 34.1286C93.2297 35.5386 93.3797 37.2686 94.3797 38.6986C95.4497 40.2286 96.8497 41.5686 98.3397 42.6986C99.7597 43.7786 101.17 44.8886 102.57 45.9786C103.94 47.0386 105.04 48.5486 106.72 49.1386C112.19 51.0686 122.14 53.0686 126.05 47.3686C126.89 46.1486 128.24 45.0886 129.11 43.7486C130.85 41.0886 132.51 37.6986 133.27 34.6086C133.68 32.9386 133.88 31.2286 134.39 29.5786C134.87 28.0086 135.7 26.5686 135.56 24.8786C135.56 24.7786 135.54 24.6886 135.53 24.5886L135.56 24.6086Z" fill="#FFD54C"/>
<path fill-rule="evenodd" clip-rule="evenodd" d="M175.32 24.3786C174.48 20.5386 172.85 18.1286 171.51 14.3686C170.31 10.9986 168.56 9.85861 166.05 7.76861C164.66 6.60861 164.22 4.64862 162.73 3.58862C160.76 2.18862 157.92 1.98863 155.64 1.34863C153.07 0.628631 150.35 0.168614 147.67 0.0186142C145.12 -0.121386 141.36 0.518614 139.31 2.26861C137.68 3.64861 135.91 5.14863 134.77 6.99863C134.21 7.91863 134.24 9.04863 133.79 10.0086C133.34 10.9886 132.04 11.1886 131.7 12.1086C131.33 13.0886 131.42 14.1886 130.91 15.1186C130.15 16.5186 128.78 17.4486 128.29 19.0186C127.8 20.5386 128.15 22.1486 128.28 23.6886C128.4 25.1386 128.72 26.9286 129.14 28.3586C129.56 29.7686 130.4 30.9686 131.12 32.2386C131.51 32.9186 131.66 33.8386 132.14 34.4486C132.61 35.0486 133.39 35.2886 133.89 35.8586C134.9 37.0086 135.64 38.5086 136.58 39.7386C138.92 42.7786 141.9 46.1986 145.45 47.7086C146.61 48.1986 147.79 48.9986 148.93 49.5886C149.78 50.0286 152.39 50.2886 154.73 50.4386C156.78 50.8386 158.68 50.9986 160.85 50.1486C163.03 49.2986 164.77 47.2486 166.16 45.4786C167.59 43.6486 169.37 41.6486 170.28 39.4886C170.88 38.0786 173 35.0686 173.42 34.4786C174.01 33.6286 174.34 31.3286 174.65 30.3586C174.78 29.9686 175.57 28.2386 175.71 27.8486C176.17 26.5486 175.64 25.7986 175.33 24.3786H175.32Z" fill="#DF485D"/>
<path fill-rule="evenodd" clip-rule="evenodd" d="M94.3397 26.8086C94.6897 23.9486 94.9897 23.6086 94.3997 21.3586C93.8397 19.2686 92.8597 17.3486 92.3197 15.2586C91.7897 13.2186 90.9697 11.4586 88.9997 10.4386C87.0097 9.40863 85.7797 7.61862 83.9397 6.51862C82.2697 5.51862 80.7397 4.25863 78.9797 3.46863C76.4497 2.33863 73.6497 2.16862 70.9297 1.67862C67.9197 1.13862 65.4297 2.02864 63.2197 4.00864C62.0597 5.04864 60.7597 5.95863 59.7597 7.12863C58.1697 8.96863 56.1997 10.5386 55.6297 13.1586C54.5197 18.2686 49.0297 20.0086 49.4197 25.9286C49.6297 28.9186 50.1797 31.3186 52.2097 33.4386C52.6297 33.8786 52.9897 34.5186 53.0697 35.1086C53.6997 39.5086 56.4497 42.7686 59.4397 45.5586C62.4697 48.3786 66.3997 49.9486 70.6197 50.3986C72.8597 50.6486 75.1197 51.0386 77.3397 50.8986C80.7097 50.6786 83.9197 49.5186 86.4597 47.3086C87.7597 46.1786 89.4497 45.3586 90.4997 43.9586C91.7197 42.3186 91.1997 40.4986 92.0297 38.7586C92.6397 37.4886 93.4997 36.4986 93.9297 35.0986C94.6497 32.7086 94.4597 30.0186 94.3697 26.8186L94.3397 26.8086Z" fill="#33B2C1"/>
<path d="M68.4297 24.4886C69.3797 24.3286 70.1197 23.8686 70.4597 23.2186C70.7597 22.6486 70.7497 21.9586 70.4197 21.2286C70.2697 20.8986 69.9497 20.7286 69.5997 20.7886C69.3497 20.8286 69.1297 20.9886 69.0097 21.1986C68.8997 21.3986 68.8997 21.6286 68.9997 21.8486C69.1297 22.1286 69.1397 22.3686 69.0397 22.5586C68.9197 22.7786 68.6097 22.9586 68.2097 23.0186C67.5497 23.1286 66.7997 22.9686 66.4097 22.6286C66.2297 22.4586 66.1397 22.2686 66.1497 22.0486C66.1697 21.7986 66.0797 21.5786 65.8997 21.4186C65.7097 21.2486 65.4397 21.1686 65.1897 21.2086C64.8497 21.2686 64.6297 21.5286 64.6097 21.8786C64.5697 22.6286 64.8197 23.2786 65.3497 23.7586C66.0697 24.3986 67.2697 24.6886 68.4197 24.4886H68.4297Z" fill="#2F272E"/>
<path d="M74.7797 24.0486C74.9197 24.0486 75.0497 24.0286 75.1797 24.0086C76.6497 23.7586 77.6197 22.3586 77.4697 20.6886C77.4497 20.4786 77.3497 20.2986 77.1997 20.1786C77.0397 20.0586 76.8197 20.0086 76.5997 20.0486C76.2397 20.1086 75.8897 20.4186 75.9397 20.8886C76.0297 21.8886 75.3897 22.3586 74.7497 22.4686C73.9897 22.5986 73.0897 22.2386 72.8297 21.3086C72.6197 20.5686 71.6597 20.5886 71.3797 21.0286C71.3097 21.1386 71.2397 21.3186 71.3097 21.5786C71.7497 23.1586 73.0897 24.1086 74.7897 24.0386L74.7797 24.0486Z" fill="#2F272E"/>
<path d="M82.0397 22.5786C81.8597 22.3986 81.5897 22.3186 81.3297 22.3586C80.9997 22.4186 80.7597 22.6586 80.6997 22.9886C80.3097 25.1786 79.2897 26.8786 77.6697 28.0586C76.3997 28.9786 74.6797 29.5386 72.5297 29.7086C70.3897 29.8786 68.5597 29.3186 67.2397 28.9186C65.2897 28.3386 64.0497 27.0486 63.0197 25.4286C62.8597 25.1786 62.6097 25.0586 62.3297 25.1086C62.0697 25.1486 61.8297 25.3486 61.7097 25.5986C61.5997 25.8386 61.6197 26.1186 61.7697 26.3486C64.3997 30.4986 68.1897 31.5986 72.9097 31.2286C73.3097 31.1986 73.7097 31.1486 74.0997 31.0886C75.8697 30.7886 77.4497 30.1386 78.7697 29.1886C81.0497 27.5386 81.9197 25.0286 82.2397 23.2086C82.2797 22.9686 82.2197 22.7386 82.0597 22.5786H82.0397Z" fill="#2F272E"/>
<path d="M186.84 21.5786L186.94 21.3987C187.09 21.1487 187.09 20.8187 186.94 20.5587C186.81 20.3287 186.58 20.1887 186.32 20.1787C185.69 20.1587 185.05 20.2287 184.43 20.2887C183.66 20.3587 182.89 20.4386 182.11 20.3586C181.59 20.3186 181.3 20.7087 181.28 21.0887C181.26 21.4687 181.5 21.8787 181.98 21.9287C182.28 21.9587 182.61 21.9487 182.95 21.9487C182.33 22.3287 181.66 22.6087 180.89 22.6987C180.49 22.7487 180.23 23.0587 180.26 23.4687C180.28 23.8487 180.57 24.2587 181.06 24.2587C181.1 24.2587 181.13 24.2587 181.17 24.2587C182.24 24.1287 183.13 23.7087 183.95 23.1887C183.5 23.7287 182.98 24.1787 182.34 24.3987C181.88 24.5587 181.73 24.9986 181.78 25.3586C181.84 25.7286 182.11 25.9787 182.45 25.9787C182.53 25.9787 182.62 25.9587 182.71 25.9287C184.75 25.2387 185.87 23.2986 186.85 21.5786H186.84Z" fill="#2F272E"/>
<path d="M190.65 20.1486C191.53 20.3786 192.32 20.4886 193.06 20.4886C193.73 20.4886 194.39 20.3986 195.01 20.2086C195.48 20.0686 195.63 19.6286 195.58 19.2786C195.51 18.8186 195.11 18.5386 194.66 18.6686C194.52 18.7186 194.37 18.7386 194.22 18.7686C194.32 18.6986 194.41 18.6386 194.5 18.5786L194.83 18.3486C195.1 18.1586 195.21 17.8686 195.11 17.5786C195 17.2186 194.62 16.9986 194.25 17.0086C194.39 16.8586 194.53 16.6986 194.68 16.5486C194.91 16.2986 194.97 15.9686 194.83 15.6586C194.7 15.3586 194.41 15.1586 194.12 15.1586C193.98 15.1586 193.79 15.1986 193.6 15.3986C193.08 15.9486 192.56 16.5086 192.05 17.0686C191.58 17.5786 191.1 18.0986 190.63 18.6086C190.62 18.6086 190.63 18.6386 190.61 18.6486C190.6 18.6686 190.58 18.6886 190.57 18.7086C190.31 18.8386 190.13 19.1086 190.1 19.3686C190.05 19.7486 190.26 20.0586 190.64 20.1586L190.65 20.1486Z" fill="#2F272E"/>
<path d="M199.09 19.1886C198.97 18.9686 198.76 18.8086 198.44 18.8086C198.06 18.8086 197.82 19.0286 197.72 19.3086C197.68 19.3686 197.62 19.4086 197.59 19.4886C195.84 24.8586 190.05 27.2986 185.42 27.2986C184.93 27.2986 184.44 27.2686 183.96 27.2186C183.44 27.1586 183.14 27.5586 183.13 27.9486C183.13 27.9686 183.13 27.9786 183.13 27.9986C183.13 28.0686 183.13 28.1386 183.14 28.2086C183.05 28.5886 183.22 29.0186 183.63 29.1486C183.65 29.1586 183.66 29.1786 183.67 29.1886C185.61 30.2586 187.4 31.4986 189.4 32.1986C189.42 32.1986 189.44 32.2186 189.45 32.2286C190.07 32.4986 190.72 32.6286 191.38 32.6886C191.41 32.6886 191.43 32.6886 191.45 32.6886C191.63 32.7086 191.8 32.7486 191.98 32.7486C192.05 32.7486 192.12 32.7286 192.19 32.7286C192.35 32.7286 192.5 32.7586 192.67 32.7586C192.82 32.7586 192.95 32.7086 193.05 32.6486C193.95 32.4886 194.84 32.1486 195.66 31.6186C199.37 29.2186 201.13 23.4286 199.37 19.4886C199.3 19.3386 199.19 19.2486 199.07 19.1886H199.09Z" fill="#2F272E"/>
<path d="M102.86 20.6887C102.97 20.8487 103.14 20.9587 103.3 20.9987C103.49 21.0987 103.7 21.1587 103.92 21.1587C104.29 21.1587 104.59 21.0287 104.83 20.7887C105.34 20.2487 105.35 19.2887 105.33 18.8987C105.3 18.4187 105.26 17.8786 105.01 17.4286C104.95 17.1786 104.86 16.9387 104.73 16.7287C104.7 16.6387 104.66 16.5686 104.62 16.5186C104.55 16.2786 104.41 16.0687 104.19 15.8987C104.09 15.7487 103.95 15.6286 103.76 15.5186L103.69 15.4787C103.37 15.2987 103.04 15.1187 102.67 15.1187C102.46 15.1187 102.25 15.1787 102.04 15.3087C100.97 15.9487 101.36 17.2087 101.54 17.8187C101.91 19.0387 102.33 19.9287 102.88 20.6987L102.86 20.6887Z" fill="#2F272E"/>
<path d="M107.54 17.8786C107.54 17.8786 107.55 17.9186 107.57 17.9386C108.29 18.6586 110.51 19.6686 110.66 19.6986C111.02 19.7486 111.48 19.8186 111.96 19.8186C112.52 19.8186 113 19.7286 113.43 19.5586C113.84 19.3886 114.06 18.9686 113.98 18.5186C113.88 17.9986 113.36 17.6986 112.88 17.8986C112.47 18.0686 112 18.1086 111.33 18.0286C111.19 17.8886 110.7 17.7986 110.7 17.7986C110.66 17.7986 110.62 17.7986 110.57 17.7986C111.48 17.7386 112.4 17.5586 113.22 16.9686C113.55 16.7386 113.67 16.3486 113.55 15.9686C113.38 15.4286 112.78 15.1786 112.32 15.5086C111.66 15.9786 110.9 16.0786 110.19 16.0986C110.64 15.6886 111.13 15.3586 111.7 15.2386C112.12 15.1386 112.37 14.7886 112.32 14.3586C112.27 13.9186 111.85 13.4386 111.26 13.5686C109.86 13.8886 108.88 14.9386 107.93 15.9486C107.74 16.1486 107.55 16.3486 107.36 16.5386C107.12 16.7886 107.05 17.1286 107.18 17.4386C107.26 17.6186 107.39 17.7586 107.54 17.8586V17.8786Z" fill="#2F272E"/>
<path d="M116.71 18.4087C116.63 18.3787 116.55 18.3687 116.46 18.3687C116 18.3687 115.7 18.7487 115.65 19.1287C115.6 19.4987 115.77 19.9187 116.25 20.0587C117.17 20.3087 117.53 20.6986 117.48 21.3886C117.42 22.2586 116.77 23.1586 116.16 23.9286C114.6 25.8987 113.11 27.1186 111.74 27.5486C111.08 27.7486 110.24 27.8586 109.34 27.8586C107.21 27.8586 104.16 27.2186 102.57 25.4286C101.83 24.5986 101.52 23.6087 101.65 22.5087C101.68 22.2087 101.58 22.0187 101.47 21.9087C101.08 21.4787 100.03 21.6186 99.9297 22.4586C99.1597 28.5986 108.14 30.7287 112.6 29.0687C115.79 27.8787 123.23 20.1987 116.72 18.3987L116.71 18.4087Z" fill="#2F272E"/>
<path d="M147.75 21.4586C147.91 21.5186 148.06 21.5486 148.22 21.5486C149.03 21.5486 149.55 20.6686 149.71 19.7886C149.86 18.9586 149.86 18.1386 149.69 17.4086C149.62 17.0986 149.46 16.6186 149.2 16.2686C148.88 15.8186 148.56 15.7286 148.34 15.7286C148.25 15.7286 148.16 15.7486 148.07 15.7786C146.94 16.1686 146.84 17.6486 146.78 18.4486V18.5886C146.71 19.5486 146.6 21.0086 147.75 21.4586Z" fill="#2F272E"/>
<path d="M154.16 21.8186C154.28 21.8386 154.38 21.8486 154.48 21.8486C154.84 21.8486 155.1 21.7086 155.39 21.3586C155.98 20.6586 156.52 19.2686 156.38 18.2486C156.3 17.7286 156.13 17.2086 155.91 16.8486C155.65 16.4286 155.35 16.3486 155.14 16.3486C154.46 16.3486 153.89 17.2386 153.73 17.5086C153.47 17.9486 153.33 18.7586 153.28 19.3186C153.28 19.3386 153.11 21.6186 154.16 21.8186Z" fill="#2F272E"/>
<path d="M159.43 21.6286C159.08 25.8886 156.07 30.4786 151.8 30.4786C151.66 30.4786 151.53 30.4786 151.39 30.4686C145.96 30.1086 143.55 24.9086 143.11 20.1586C143.06 19.6086 142.59 19.3186 142.16 19.3186C141.9 19.3186 141.67 19.4186 141.51 19.5886C141.4 19.6986 141.29 19.9086 141.32 20.2186C141.62 23.4486 142.48 26.0286 143.94 28.0886C145.61 30.4686 148.25 31.9386 151.37 32.2586C151.61 32.2886 151.85 32.2986 152.08 32.2986C157.48 32.2986 160.86 26.1186 161.22 21.6486C161.24 21.4086 161.18 21.1886 161.02 21.0286C160.6 20.5786 159.49 20.7486 159.42 21.6286H159.43Z" fill="#2F272E"/>
<path d="M10.5297 81.8886C10.7997 81.8886 11.0897 81.8886 11.4097 81.8886C15.3097 81.8886 21.9597 81.3086 23.9397 81.0786C25.8597 80.8586 27.1597 79.7586 27.3297 78.2186C27.6797 75.0886 27.7197 70.2186 27.5397 67.5086L27.5197 67.2386C27.4297 66.1586 27.3797 65.5186 26.6797 64.8186C26.2597 64.4086 25.6297 64.1986 24.7397 64.1986C24.5797 64.1986 24.4197 64.1986 24.2697 64.2186C21.7397 64.3286 17.7697 64.6786 14.5797 64.9586C13.1797 65.0786 8.46972 64.4786 7.33972 64.4786C6.20972 64.4786 5.08972 64.9586 5.08972 66.3086V67.6386C5.08972 70.9886 5.35972 76.0986 5.77972 78.4886C6.03972 80.6986 8.38973 81.6886 10.5197 81.8786L10.5297 81.8886ZM11.3197 68.7186C13.8597 68.7986 19.9797 68.7386 23.0897 68.5586C23.2997 70.3186 23.2197 74.4686 23.1197 76.2686C22.9897 76.7986 22.8597 76.8586 22.4097 76.9986C20.7897 77.2986 16.2397 77.6586 12.9997 77.6586C12.1197 77.6586 11.3797 77.6286 10.7697 77.5786C10.2597 77.5786 9.99972 77.3386 9.88972 75.9786C9.74972 74.6286 9.54973 70.6586 9.51973 68.4386C10.0297 68.5586 10.5397 68.6986 11.3197 68.7186Z" fill="#2F272E"/>
<path d="M37.9397 75.9786C38.1097 75.9786 38.3097 75.9786 38.5497 75.9586H38.7397C42.8197 75.6786 54.7797 75.0886 58.4797 74.9386C59.8297 74.8886 60.3497 74.5986 60.5997 73.7786C60.8497 73.1586 60.8197 72.2386 60.5297 71.6686C60.0497 70.8086 59.5297 70.6886 58.2797 70.8086C56.4597 70.9786 53.4197 71.1786 50.4597 71.3286C50.4397 70.5886 50.4297 69.9786 50.4097 69.4386C50.3797 68.3486 50.3597 67.5586 50.3597 66.6386C50.3597 66.3986 50.3697 66.1286 50.3897 65.8686C50.3897 65.6086 50.4097 65.3686 50.4097 65.1586C50.4097 63.9286 49.6097 63.2286 48.2097 63.2286C47.2197 63.2286 46.0597 63.7386 46.0597 65.1586C46.0597 65.4286 46.0897 65.6686 46.1097 65.8886C46.1297 66.1186 46.1597 66.3586 46.1597 66.6486L46.3097 71.5086C42.6997 71.6686 39.4597 71.7686 38.0097 71.7686H37.5797C37.0897 71.7686 36.6097 71.8186 36.1697 72.5186C35.6997 73.2786 35.6197 74.7886 36.5497 75.5386C37.0297 75.8686 37.3797 75.9886 37.9197 75.9886L37.9397 75.9786Z" fill="#2F272E"/>
<path d="M72.5597 84.5986C72.3697 84.5986 72.2097 84.6286 72.0597 84.6486C71.8997 84.6786 71.7297 84.7086 71.4697 84.7086C71.1697 84.7386 70.8697 84.7786 70.5597 84.8186C69.4797 84.9486 68.2597 85.0986 66.5297 85.2286C66.4197 78.8886 66.3797 73.0686 66.3797 71.4686C66.3797 71.2286 66.3897 70.9586 66.4097 70.6886C66.4197 70.4386 66.4397 70.1886 66.4397 69.9786C66.4397 69.2786 66.1497 68.0986 64.2397 68.0986C63.2497 68.0986 62.0897 68.5886 62.0897 69.9786C62.0897 70.2486 62.1197 70.4886 62.1397 70.7086C62.1697 70.9386 62.1897 71.1786 62.1897 71.4686C62.2397 74.7886 62.4097 87.5286 62.4497 96.3986V96.6086C61.2097 96.7586 59.9597 96.9086 59.8397 96.9186C59.7297 96.9386 59.5997 96.9486 59.4497 96.9686C57.5897 97.1386 54.4397 97.3886 51.1097 97.5886V94.9686C51.1097 94.7586 51.1397 94.5586 51.1597 94.3486C51.1797 94.2086 51.1897 94.0786 51.1997 93.9486C55.2397 93.1586 57.9897 90.2486 58.2097 86.4986C58.3397 84.8286 58.0397 83.0486 57.1097 81.6286C56.5997 80.8486 55.9497 80.1086 55.1697 79.5786C54.3797 79.0486 53.4797 78.2786 52.6097 77.9286C51.6997 77.5686 50.8697 77.3686 49.9197 77.1186C49.2697 76.9486 48.5697 76.9786 47.8997 77.0086C47.4197 77.0286 46.9397 77.0786 46.4797 77.2286C45.7497 77.4586 45.0697 77.8586 44.3897 78.1786C42.6897 78.9886 41.4697 80.2286 40.6397 81.9286C40.0897 83.0686 39.9397 84.3686 39.9597 85.6186C39.9597 90.3986 43.4297 93.2186 46.9297 93.9386C46.9497 94.0786 46.9597 94.2286 46.9797 94.3886C47.0297 94.7786 47.0697 95.1786 47.0697 95.3386V97.8186C42.9297 98.0886 39.3897 98.2286 38.0197 98.2286C37.8797 98.2286 37.7597 98.2186 37.6397 98.2086C37.4797 98.1886 37.2997 98.1786 37.0697 98.1786C35.8397 98.1786 35.1397 99.0186 35.1397 100.489C35.1397 101.799 35.8397 102.579 37.0197 102.579C37.2797 102.579 37.4397 102.559 37.6897 102.539C37.9097 102.519 38.1997 102.499 38.6797 102.469C42.8197 102.249 54.7197 101.569 58.6897 101.299C59.0397 101.269 60.6997 101.149 62.3997 101.009C62.3997 101.029 62.3997 101.039 62.3997 101.059C62.3997 102.169 63.1997 102.829 64.5497 102.829C66.4197 102.829 66.6897 101.749 66.6897 101.109C66.6897 100.889 66.6897 100.679 66.6697 100.449C66.6497 100.179 66.6397 99.8886 66.6397 99.5186C66.6397 97.2586 66.5897 93.6186 66.5397 89.7686V89.3386L70.7097 89.0386C71.4497 88.9886 72.1197 88.9886 72.4497 88.9886C73.7897 88.9886 74.4397 88.2386 74.4397 86.6786C74.4397 85.4286 73.6897 84.5886 72.5597 84.5886V84.5986ZM48.9797 90.0686C46.0897 89.8586 44.2997 88.2186 44.2097 85.6886C44.2097 81.7286 47.5297 81.1586 48.9997 81.0986C49.4897 81.0786 50.1497 81.1686 50.6097 81.3386C51.4197 81.6386 52.2597 82.3486 52.8797 82.9886C53.4497 83.5786 53.8097 84.2786 53.9397 85.0886C54.0097 85.5286 54.0397 86.0286 53.9797 86.4686C53.7997 88.5286 51.7397 90.0786 49.2097 90.0786C49.1297 90.0786 49.0497 90.0786 48.9797 90.0786V90.0686Z" fill="#2F272E"/>
<path d="M106.65 95.6886H106.55C104.69 95.8986 99.5797 96.2586 94.0697 96.5786V92.3886C94.0897 92.0986 94.1197 91.8286 94.1497 91.5786C94.1797 91.3186 94.2797 89.1286 94.3497 87.7286C97.3497 87.5386 100.04 87.3286 100.97 87.2386C101.49 87.1886 101.96 87.1886 102.28 87.1886C103.12 87.1886 104.11 86.5986 104.11 84.9386C104.11 83.4786 103.11 82.6886 102.18 82.6886C101.83 82.6886 101.56 82.7386 101.22 82.8086C101.07 82.8386 100.91 82.8686 100.7 82.9086C98.9197 83.2286 89.3597 83.6486 85.7797 83.6986C84.8897 83.6986 84.8397 83.6986 84.7397 82.4286V82.3586C84.5797 80.7786 84.3297 78.1486 84.3197 74.7586C88.4297 74.5486 97.4897 74.1286 101.02 74.0286H101.97C103.15 74.0286 103.85 73.1486 103.85 71.6686C103.85 70.3486 103.03 69.4686 101.81 69.4686C101.57 69.4686 101.43 69.4886 101.25 69.5186C101.13 69.5386 100.99 69.5586 100.78 69.5786C96.5997 69.9486 85.3697 70.3786 82.1197 70.3786C81.3697 70.3786 80.7797 70.3786 80.2297 71.1586C79.9997 71.4586 79.8997 71.9586 79.8697 72.1986V72.6286C79.9797 77.6786 80.0897 81.7586 80.3997 84.4386C80.6897 86.8086 81.4497 88.0986 84.7197 88.1486C84.8397 88.1486 84.9697 88.1486 85.1197 88.1486C86.2997 88.1486 88.0097 88.0886 89.8797 87.9886C89.8297 89.1186 89.8397 90.3886 89.8597 90.6586C89.9097 90.9086 90.0697 92.3286 90.0697 92.7386V96.7586C83.6097 97.1186 78.9797 97.3286 77.6697 97.3286H77.2197C76.7597 97.3286 76.2797 97.3786 75.8297 98.0286C75.3697 98.8286 75.2897 100.459 76.2197 101.209C76.6997 101.539 77.0497 101.649 77.5897 101.649C77.7697 101.649 77.9597 101.649 78.1997 101.629H78.3897C82.3497 101.349 102.78 100.139 106.78 99.9786C108.19 99.9186 108.59 99.5586 108.9 98.8186C109.12 98.2086 109.15 97.1786 108.84 96.6186C108.37 95.6186 107.78 95.6286 106.68 95.6786L106.65 95.6886Z" fill="#2F272E"/>
<path d="M141.82 99.1686C141.82 95.2086 141.73 87.4386 141.65 81.1986C141.6 76.8986 141.55 73.1886 141.55 71.8786C141.55 71.6386 141.56 71.3686 141.58 71.1086C141.59 70.8586 141.61 70.6086 141.61 70.3986C141.61 69.1686 140.81 68.4686 139.41 68.4686C138.42 68.4686 137.26 68.9786 137.26 70.3986C137.26 70.6686 137.29 70.9086 137.31 71.1286C137.34 71.3586 137.36 71.5986 137.36 71.8886C137.39 73.7286 137.62 90.0986 137.62 99.1686C137.62 99.5186 137.6 99.8186 137.59 100.079C137.58 100.309 137.57 100.509 137.57 100.699C137.57 102.049 138.68 102.529 139.72 102.529C141.06 102.529 141.87 101.889 141.87 100.809C141.87 100.589 141.86 100.389 141.84 100.159C141.83 99.8786 141.81 99.5686 141.81 99.1686H141.82Z" fill="#2F272E"/>
<path d="M186.47 99.3286C186.47 95.3686 186.38 87.4886 186.3 81.1586C186.25 76.7886 186.2 73.0286 186.2 71.7286C186.2 71.4886 186.21 71.2186 186.23 70.9586C186.24 70.7086 186.26 70.4486 186.26 70.2486C186.26 69.0186 185.46 68.3186 184.06 68.3186C183.07 68.3186 181.92 68.8286 181.92 70.2486C181.92 70.5186 181.95 70.7586 181.97 70.9786C182 71.2086 182.02 71.4486 182.02 71.7386C182.02 71.8886 182.21 84.4986 182.27 94.1786V94.3386C180.91 94.4986 179.52 94.6786 179.41 94.6886C179.3 94.6986 179.18 94.7186 179.03 94.7386C174.76 95.1686 161.15 96.0086 157.82 96.0086C157.68 96.0086 157.54 95.9986 157.4 95.9886C157.24 95.9786 157.07 95.9586 156.87 95.9586C155.63 95.9586 154.88 96.8186 154.88 98.2686C154.88 99.8086 155.88 100.359 156.81 100.359C157.03 100.359 157.2 100.349 157.45 100.319C157.68 100.299 157.98 100.269 158.47 100.249C164.3 99.9386 174.63 99.3786 178.27 99.0786C178.69 99.0486 180.63 98.9386 182.29 98.8586V99.3186C182.29 99.6686 182.27 99.9586 182.26 100.229C182.25 100.459 182.24 100.659 182.24 100.859C182.24 102.209 183.35 102.689 184.38 102.689C185.73 102.689 186.53 102.049 186.53 100.969C186.53 100.759 186.53 100.549 186.51 100.319C186.49 100.039 186.48 99.7286 186.48 99.3286H186.47Z" fill="#2F272E"/>
<path d="M211.12 89.8086C212.47 90.0586 213.45 89.3086 213.72 87.8386C213.93 86.7086 213.38 86.2586 212.98 85.9286C212.91 85.8686 212.83 85.8086 212.75 85.7286C210.8 84.1486 207.8 81.6386 204.53 78.5986L207.66 73.3086C208.19 72.3786 208.3 70.6886 207.54 69.5786C206.84 68.5686 205.86 68.0186 204.51 67.9286C202.03 67.8886 197.6 67.2886 195.35 66.8686L194.31 66.6786C194.18 66.6486 194.04 66.6386 193.9 66.6386C193.36 66.6386 192.42 66.8486 192.15 68.2986C192.02 69.0186 192.11 69.6086 192.41 70.0586C192.68 70.4486 193.11 70.7086 193.65 70.8086C194.08 70.8886 194.42 70.9186 194.81 70.9486L203.79 71.9086C201.72 75.8286 196.51 84.2586 195.35 85.9686C195.12 86.3286 194.95 86.5786 194.81 86.7886C194.56 87.1486 194.4 87.3786 194.25 87.7586C193.9 88.8086 194.53 89.7486 195.89 90.2186C196.18 90.3086 196.45 90.3586 196.71 90.3586C197.5 90.3586 198.12 89.8986 198.36 89.1286C198.43 88.9486 198.55 88.7286 198.64 88.5486C198.7 88.4386 198.76 88.3286 198.78 88.2786L199.15 87.6586C199.83 86.5286 201.07 84.4586 202.33 82.2886C204.93 84.4586 207.19 86.4686 209.43 88.5786C209.55 88.7086 209.66 88.8286 209.76 88.9386C210.14 89.3486 210.43 89.6686 211.12 89.7986V89.8086Z" fill="#2F272E"/>
<path d="M24.3797 102.509C24.2397 102.519 23.0697 102.759 21.8397 103.019C21.8197 103.019 21.7997 103.019 21.7697 103.019C21.4197 103.049 21.0697 103.099 20.7197 103.159C20.3897 103.219 20.0497 103.269 19.7097 103.299C19.3697 103.329 19.0597 103.369 18.7697 103.399C18.4897 103.429 18.2497 103.469 18.0597 103.499C17.7197 103.559 17.3897 103.589 17.0497 103.589C16.6797 103.589 16.3697 103.609 16.1197 103.649C15.7097 103.679 15.2997 103.719 14.8997 103.769C14.5197 103.819 14.1597 103.809 13.8597 103.759C13.5097 103.699 13.4197 103.639 13.4197 103.639C13.4097 103.619 13.3497 103.509 13.2697 103.119C13.1797 102.739 13.1297 102.299 13.1297 101.829C13.1297 101.589 13.1297 101.369 13.1697 101.129V99.2386C13.1597 98.9286 13.1897 98.6186 13.2397 98.3286V98.2886V98.2386C13.1397 97.5486 12.7297 97.3386 12.4197 97.2786C12.0697 97.2186 11.6497 97.1586 11.1397 97.0886H10.9897C10.5297 97.0286 10.0597 97.0486 9.59975 97.1286C9.01975 97.2286 8.62974 97.5586 8.47974 98.0886V98.1286V98.1586C8.47974 98.4086 8.47974 98.6986 8.50974 99.0086C8.52974 99.3186 8.53975 99.5786 8.53975 99.7886V101.589C8.57975 101.929 8.58975 102.319 8.56975 102.729C8.56975 103.189 8.57975 103.689 8.64975 104.219C8.69975 104.649 8.75974 105.009 8.80974 105.339C8.82974 105.469 8.84974 105.609 8.86974 105.719C8.95974 106.199 9.15974 106.629 9.46974 107.009C9.81974 107.429 10.3397 107.689 11.0197 107.769C11.3397 107.809 11.6597 107.839 11.9497 107.869C12.2097 107.899 12.4597 107.909 12.7097 107.929C12.9197 107.929 13.2097 107.939 13.5797 107.969C13.9697 107.999 14.2497 108.009 14.4197 108.009C14.8797 108.039 15.2597 108.019 15.5697 107.979C15.8497 107.939 16.0297 107.909 16.0897 107.909H16.1697C16.4297 107.939 16.6997 107.949 16.9697 107.929C16.9897 107.929 17.0097 107.929 17.0297 107.929C17.2997 107.909 17.5397 107.889 17.7697 107.859L19.0797 107.759C19.5297 107.719 20.0197 107.649 20.5597 107.559C20.9097 107.489 21.2297 107.419 21.5397 107.339C21.8497 107.259 22.6497 107.189 22.9197 107.059C22.9197 107.059 24.8497 106.549 24.9797 106.529C26.3297 106.409 26.8197 105.789 26.6897 104.229C26.5797 102.969 25.5297 102.409 24.3997 102.509H24.3797Z" fill="#2F272E"/>
<path d="M225.5 85.7986C225.5 85.0186 225.5 84.1686 225.49 83.2886H225.45C225.42 80.6586 225.37 77.9286 225.33 75.5086C225.28 72.4086 225.23 69.7386 225.23 68.4386C225.23 68.1886 225.24 67.8986 225.26 67.6186C225.27 67.3686 225.29 67.1286 225.29 66.9586C225.29 66.0786 224.91 65.0286 223.09 65.0286C222.1 65.0286 220.95 65.5286 220.95 66.9586C220.95 67.2286 220.98 67.4686 221 67.6886C221.03 67.9186 221.06 68.1586 221.06 68.4386C221.06 69.4986 221.09 71.0986 221.13 72.9486L221.16 74.2186L213.17 74.7386H211.42C210.84 74.7386 209.49 74.9686 209.49 77.0986C209.49 78.6886 210.77 79.4086 211.85 79.1186C212.01 79.0786 212.17 79.0286 212.39 79.0286C213.26 78.9986 215 78.8386 217.01 78.6686C218.37 78.5486 219.85 78.4186 221.23 78.3086C221.25 79.9586 221.28 81.7286 221.3 83.5486H221.32C221.32 84.2986 221.32 85.0586 221.32 85.8086C221.32 86.1586 221.3 86.4486 221.29 86.7186C221.28 86.9486 221.26 87.1486 221.26 87.3486C221.26 88.6986 222.37 89.1786 223.41 89.1786C224.75 89.1786 225.56 88.5386 225.56 87.4586C225.56 87.2386 225.56 87.0386 225.54 86.8086C225.52 86.5286 225.51 86.2186 225.51 85.8086L225.5 85.7986Z" fill="#2F272E"/>
<path d="M132.04 88.1887L121.63 83.2786L121.54 73.5486C121.48 72.8486 121.19 72.3286 120.67 71.9886C120.14 71.6486 119.59 71.4986 119 71.5286C118.38 71.5586 117.84 71.7787 117.37 72.1687C116.9 72.5687 116.67 73.1086 116.7 73.8086L116.85 79.4487C116.85 80.2787 116.73 83.4286 114.41 86.7186L110.43 92.3487C110.1 92.9587 110.06 93.5286 110.33 94.0486C110.59 94.5786 110.98 94.9586 111.49 95.2086C112 95.4886 112.55 95.6086 113.14 95.5586C113.73 95.5086 114.18 95.2286 114.5 94.7186L119.4 87.4686L130.08 92.4187C130.8 92.7587 131.43 92.7986 131.98 92.5186C132.52 92.2386 132.9 91.8387 133.11 91.3187C133.36 90.8087 133.4 90.2386 133.24 89.6186C133.08 88.9986 132.68 88.5186 132.03 88.1786L132.04 88.1887Z" fill="#2F272E"/>
<path d="M31.1597 85.1486C30.3897 85.1986 29.0397 85.2687 27.1597 85.3487C19.4497 85.6787 4.90972 86.1587 2.22972 86.0987H1.99973C1.84973 86.0887 1.70973 86.0786 1.57973 86.0886C1.04973 86.1086 0.699723 86.3186 0.369723 86.8086C-0.110277 87.5486 -0.230274 89.1786 0.669726 89.9386C1.28973 90.4786 1.70973 90.4586 2.48973 90.4286L16.6697 89.8886L16.4897 94.8686C16.4897 94.8686 16.3797 96.4387 16.3197 96.7587C16.2697 97.3987 16.3997 97.8686 16.6997 98.2086C17.0497 98.5886 17.6297 98.7886 18.4697 98.8086C18.5397 98.8086 18.5997 98.8086 18.6697 98.8086C19.8297 98.7586 20.6297 98.0486 20.7097 96.9686C20.7097 96.5986 20.7197 96.3786 20.6797 95.9086C20.6797 95.6986 20.6797 95.4287 20.6797 95.1687C20.6997 93.5587 20.7297 91.6386 20.7997 89.7486C22.2997 89.6986 23.7597 89.6487 25.0897 89.5987C27.9397 89.4987 30.1897 89.4186 31.2597 89.4086C32.6197 89.3886 33.1297 89.1186 33.4097 88.2986C33.6497 87.7386 33.6997 86.7186 33.3897 86.0786C32.8697 85.0986 32.2797 85.0787 31.1697 85.1687L31.1597 85.1486Z" fill="#2F272E"/>
<path d="M168.17 88.8687C171.77 88.3387 174.92 85.9486 175.2 81.4886C175.33 79.8186 175.03 78.0387 174.1 76.6187C173.59 75.8387 172.94 75.0987 172.16 74.5687C171.38 74.0387 170.47 73.2687 169.6 72.9187C168.69 72.5587 168.4 71.9987 166.3 71.9987C164.15 71.9987 162.06 72.8387 161.38 73.1687C159.68 73.9787 158.46 75.2187 157.63 76.9187C157.07 78.0587 156.92 79.3586 156.95 80.6086C157.07 86.6386 163.08 89.5986 168.18 88.8586L168.17 88.8687ZM165.98 76.0786C166.47 76.0586 167.13 76.1487 167.59 76.3187C168.4 76.6187 169.24 77.3287 169.86 77.9687C170.43 78.5587 170.79 79.2587 170.92 80.0687C170.99 80.5087 171.01 81.0087 170.96 81.4487C170.77 83.5087 168.72 85.0587 166.19 85.0587C166.11 85.0587 166.03 85.0587 165.96 85.0587C163.07 84.8487 161.29 83.2086 161.19 80.6786C161.19 76.7186 164.51 76.1487 165.98 76.0887V76.0786Z" fill="#2F272E"/>
<path d="M222.72 94.5786C222.56 94.4386 222.4 94.2986 222.23 94.1386C221.77 93.7086 221.29 93.2686 220.78 93.0086C220.61 92.9186 220.48 92.8186 220.34 92.7286C219.9 92.4186 219.46 92.1086 218.15 91.9586C217.88 91.9286 217.6 91.9186 217.31 91.9186C215.7 91.9186 214.29 92.3786 214.02 92.4686C212.56 92.9786 211.44 93.8786 210.59 95.2186C210.1 95.9986 209.8 96.9686 209.69 98.1886C209.26 102.099 211.88 104.759 214.66 105.659C215.18 105.859 217.68 106.069 217.99 106.069C218.04 106.069 218.11 106.069 218.18 106.049C221.55 105.759 224.06 103.599 224.59 100.559C224.87 99.0586 224.71 97.5986 224.12 96.4486C223.73 95.6786 223.26 95.0486 222.71 94.5786H222.72ZM220.81 100.079C220.5 101.579 218.89 102.589 216.91 102.369C216.85 102.369 216.79 102.359 216.74 102.349C214.57 101.949 213.36 100.569 213.49 98.6586C213.77 96.1186 215.61 95.5886 217.1 95.5886C217.25 95.5886 217.38 95.5886 217.5 95.5986C217.89 95.6286 218.38 95.7586 218.69 95.9086C219.35 96.2386 219.97 96.9586 220.29 97.3686C220.67 97.8586 220.88 98.4086 220.9 99.0186C220.92 99.3986 220.88 99.7686 220.81 100.069V100.079Z" fill="#2F272E"/>
<path d="M236.01 67.7586C236.09 68.7386 236.13 70.1686 236.18 71.9786C236.25 74.3886 236.33 77.3886 236.54 80.6986C236.7 83.3286 239.11 84.3386 241.13 84.4086C241.34 84.4086 241.54 84.4086 241.73 84.4086L253.44 84.2286C255.76 84.0986 256.37 83.6586 256.69 81.9086C257.63 76.5686 257.66 72.0986 257.69 68.1586V67.6786C257.7 67.3886 257.72 67.2186 257.74 67.0586C257.76 66.9086 257.77 66.7786 257.78 66.5886C257.81 65.7886 257.19 64.9086 255.77 64.8586C254.78 64.8286 253.7 65.3086 253.66 66.4586C253.66 66.7786 253.66 66.9686 253.68 67.2086C253.69 67.3486 253.7 67.5086 253.72 67.7186C253.74 68.3786 253.67 69.9586 253.62 70.9986C253.62 71.2586 253.6 71.4786 253.59 71.6386C251.01 71.9786 243.6 71.8786 240.13 71.7786C240.07 70.6686 240.06 69.5286 240.04 68.6786C240.04 68.2786 240.04 67.9486 240.02 67.7186L240.05 66.8286C240.08 65.8786 239.29 65.2886 237.94 65.2486C236.96 65.2186 235.96 65.6986 235.93 66.8486C235.92 67.0986 235.93 67.2586 235.96 67.4486C235.97 67.5386 235.98 67.6386 235.99 67.7686L236.01 67.7586ZM241.65 75.7886C245.02 75.7786 251.18 75.7386 253.55 75.6886C253.53 75.8486 253.52 76.0486 253.5 76.2686C253.41 77.2386 253.28 78.7186 253.15 79.5586V79.6686C253.08 80.1086 253.06 80.1686 252.93 80.2086C252.15 80.4586 244.02 80.5086 241.06 80.4186C240.75 80.4186 240.56 80.3686 240.5 79.8486C240.41 78.9386 240.35 77.2186 240.31 76.1786V75.8086H241.66L241.65 75.7886Z" fill="#2F272E"/>
<path d="M264.37 89.6686C263.99 88.9086 263.49 88.7486 262.87 88.7486C262.65 88.7486 262.4 88.7686 262.12 88.7986C257.68 89.1886 236.39 90.3886 233.21 90.3886C233.11 90.3886 233.02 90.3886 232.93 90.3886C232.29 90.3686 231.81 90.4086 231.37 91.1386C230.9 91.9186 230.84 93.5486 231.74 94.2086C232.39 94.7086 232.74 94.7486 233.74 94.6886L241.09 94.2386H241.18L245.71 93.9786L247.17 93.8986L247.14 98.3786H247.12V100.139C247.12 100.579 247.09 101.009 247.08 101.349C247.08 101.579 247.06 101.759 247.06 101.879C247.03 102.519 247.16 102.989 247.48 103.319C247.83 103.689 248.4 103.869 249.21 103.869C250.49 103.869 251.4 103.119 251.46 101.989C251.46 101.619 251.46 101.389 251.41 100.919C251.39 100.459 251.38 99.5386 251.37 98.3786H251.36C251.36 96.8186 251.36 95.1586 251.36 93.6486L262.31 93.0486C263.68 92.9386 264.11 92.6986 264.42 91.8986C264.64 91.3386 264.67 90.3186 264.36 89.6886L264.37 89.6686Z" fill="#2F272E"/>
</svg>
