<svg width="485" height="778" viewBox="0 0 485 778" fill="none" xmlns="http://www.w3.org/2000/svg">
<rect x="128.122" y="247" width="228" height="7" fill="#FFF58C"/>
<path fill-rule="evenodd" clip-rule="evenodd" d="M221.814 539L184.507 523.505L146.737 501.453L104.481 468.134L66.2759 423.094L44.1221 368.9V322.174L62.0195 277.776L65.6093 231.986C65.6093 231.986 46.3528 170.166 47.2503 160.504C48.1477 150.843 64.2503 105.83 64.2503 105.83L138.558 7.71992L230.122 4C177.481 72.6446 120.148 153.921 98.6605 238.944C77.1734 323.967 90.9426 423.816 152.814 483.469C170.712 500.704 191.763 513.924 212.814 526.689L221.814 539Z" fill="#56B381" stroke="black" stroke-miterlimit="10"/>
<path fill-rule="evenodd" clip-rule="evenodd" d="M156.69 506.819C142.107 511.686 125.635 507.993 112.57 499.845C99.5276 491.698 89.4796 479.51 80.9074 466.714C70.4471 451.071 61.571 432.973 63.3506 414.224C63.9148 408.402 65.6292 402.449 69.6007 398.147C73.5721 393.845 80.1695 391.651 85.5082 394.063C94.2106 397.995 94.4493 409.944 95.1655 419.482C95.8165 428.085 97.9433 436.58 101.459 444.445C104.215 450.636 111.116 457.328 116.672 453.461C121.338 450.224 119.602 442.946 116.911 437.949C114.22 432.952 111.03 426.76 114.155 422.002C115.782 418.439 121.598 419.438 123.747 422.697C125.895 425.956 125.7 430.171 126.134 434.06C126.568 437.949 128.261 442.337 132.015 443.38C137.115 444.792 141.542 438.47 140.696 433.256C139.85 428.042 135.835 423.979 132.384 419.981C117.388 402.622 109.554 379.246 111.073 356.325C111.637 347.873 114.393 338.206 122.228 334.968C130.561 331.514 140.349 337.793 144.081 346.027C147.814 354.261 147.185 363.712 146.707 372.728C146.013 386.154 145.861 399.885 149.876 412.703C153.5 424.261 160.293 434.516 166.087 445.162C171.882 455.807 176.786 467.517 176.048 479.619C175.332 491.742 167.194 503.3 156.69 506.819Z" fill="#FFF58C" stroke="black" stroke-miterlimit="10"/>
<path fill-rule="evenodd" clip-rule="evenodd" d="M212.122 532.624C164.675 512.027 120.117 479.584 86.9892 438.87C73.6503 422.462 61.7047 404.507 54.4547 384.39C47.2047 364.3 44.9343 341.836 50.8684 321.292C54.2741 309.5 60.2082 298.694 64.6201 287.275C75.3016 259.582 76.5658 228.099 68.1548 199.578C65.1877 189.547 61.0596 179.809 59.2278 169.484C53.0872 134.613 73.9857 101.076 96.4064 74.2897C115.705 51.2382 139.493 27.92 162.327 8.60378L103.502 1C70.1156 28.0801 41.7866 61.7501 20.4753 99.6889C12.5803 113.723 5.58837 128.557 2.5955 144.511C-0.397364 160.439 0.918465 177.701 8.86505 191.708C17.663 207.236 33.5562 217.401 42.3542 232.928C50.8426 247.949 51.565 267.372 44.186 283.033C37.7617 296.667 26.0482 306.832 18.1017 319.585C1.84728 345.678 3.29212 380.602 15.8312 408.802C28.3703 437.003 50.5072 459.467 74.1405 478.57C113.125 510.106 161.682 535.585 211.038 539" fill="#EBEBEB"/>
<path d="M212.122 532.624C164.675 512.027 120.117 479.584 86.9892 438.87C73.6503 422.462 61.7047 404.507 54.4547 384.39C47.2047 364.3 44.9343 341.836 50.8684 321.292C54.2741 309.5 60.2082 298.694 64.6201 287.275C75.3016 259.582 76.5658 228.099 68.1548 199.578C65.1877 189.547 61.0596 179.809 59.2278 169.484C53.0873 134.613 73.9857 101.076 96.4064 74.2897C115.705 51.2382 139.493 27.92 162.327 8.60378L103.502 1C70.1156 28.0801 41.7866 61.7501 20.4753 99.6889C12.5803 113.723 5.58837 128.557 2.5955 144.511C-0.397365 160.439 0.918465 177.701 8.86505 191.708C17.663 207.236 33.5562 217.401 42.3542 232.928C50.8426 247.949 51.565 267.372 44.186 283.033C37.7617 296.667 26.0482 306.832 18.1017 319.585C1.84728 345.678 3.29212 380.601 15.8312 408.802C28.3703 437.003 50.5072 459.467 74.1405 478.57C113.125 510.106 161.682 535.585 211.038 539" stroke="black" stroke-miterlimit="10"/>
<mask id="mask0_0_1" style="mask-type:luminance" maskUnits="userSpaceOnUse" x="1" y="0" width="211" height="539">
<path d="M211.732 532.612C164.345 511.977 119.844 479.474 86.7579 438.684C73.436 422.246 61.5055 404.257 54.2648 384.103C47.024 363.975 44.7565 341.469 50.683 320.887C54.0844 309.073 60.011 298.248 64.4173 286.807C75.0851 259.062 76.3477 227.521 67.9474 198.948C64.9841 188.897 60.8613 179.141 59.0318 168.797C52.8991 133.861 73.771 100.262 96.1631 73.4259C115.437 50.3316 139.195 26.9701 162 7.61791L103.249 0C69.9058 27.1304 41.6128 60.863 20.3286 98.8724C12.4437 112.932 5.46062 127.794 2.47156 143.778C-0.517502 159.735 0.796654 177.029 8.73312 191.062C17.5199 206.619 33.3929 216.803 42.1797 232.359C50.6573 247.408 51.3788 266.867 44.0092 282.557C37.593 296.216 25.8945 306.4 17.958 319.177C1.72429 345.318 3.16729 380.307 15.6904 408.56C28.2136 436.813 50.3223 459.319 73.9256 478.458C112.861 510.052 161.356 535.579 210.649 539" fill="white"/>
</mask>
<g mask="url(#mask0_0_1)">
<path d="M58.1777 -32.9843V162.221V602.189H73.1488V600.719" stroke="#4D4D4D" stroke-miterlimit="10"/>
<path d="M64.1489 -32.9843V162.221V602.189H79.12V600.719" stroke="#494949" stroke-miterlimit="10"/>
<path d="M70.1201 -32.9843V162.221V602.189H85.0912V600.719" stroke="#464646" stroke-miterlimit="10"/>
<path d="M76.0913 -32.9843V162.221V602.189H91.0624V600.719" stroke="#424242" stroke-miterlimit="10"/>
<path d="M82.0625 -32.9843V162.221V602.189H97.0336V600.719" stroke="#3E3E3E" stroke-miterlimit="10"/>
<path d="M88.0337 -32.9843V162.221V602.189H103.005V600.719" stroke="#3B3B3B" stroke-miterlimit="10"/>
<path d="M94.0049 -32.9843V162.221V602.189H108.976V600.719" stroke="#373737" stroke-miterlimit="10"/>
<path d="M99.9761 -32.9843V162.221V602.189H114.947V600.718" stroke="#333333" stroke-miterlimit="10"/>
<path d="M105.947 -32.9843V162.221V602.189H120.918V600.719" stroke="#303030" stroke-miterlimit="10"/>
<path d="M111.918 -32.9843V162.221V602.189H126.889V600.719" stroke="#2C2C2C" stroke-miterlimit="10"/>
<path d="M117.889 -32.9843V162.221V602.189H132.86V600.719" stroke="#282828" stroke-miterlimit="10"/>
<path d="M123.86 -32.9843V162.221V602.189H138.831V600.719" stroke="#252525" stroke-miterlimit="10"/>
<path d="M129.831 -32.9843V162.221V602.189H144.776V600.719" stroke="#212121" stroke-miterlimit="10"/>
<path d="M135.776 -32.9843V162.221V602.189H150.722V600.719" stroke="#1D1D1D" stroke-miterlimit="10"/>
<path d="M141.722 -32.9843V162.221V602.189H156.693V600.719" stroke="#1A1A1A" stroke-miterlimit="10"/>
<path d="M147.693 -32.9843V162.221V602.189H162.664V600.719" stroke="#161616" stroke-miterlimit="10"/>
<path d="M153.664 -32.9843V162.221V602.189H168.635V600.719" stroke="#121212" stroke-miterlimit="10"/>
<path d="M159.635 -32.9843V162.221V602.189H174.606V600.719" stroke="#0F0F0F" stroke-miterlimit="10"/>
<path d="M165.606 -32.9843V162.221V602.189H180.578V600.719" stroke="#0B0B0B" stroke-miterlimit="10"/>
<path d="M171.577 -32.9843V162.221V602.189H186.548V600.719" stroke="#070707" stroke-miterlimit="10"/>
<path d="M177.548 -32.9843V162.221V602.189H192.519V600.719" stroke="#040404" stroke-miterlimit="10"/>
<path d="M183.52 -32.9843V162.221V602.189H198.491V600.719" stroke="black" stroke-miterlimit="10"/>
</g>
<path d="M291.116 517.595C311.001 520.884 328.497 500.855 331.594 480.44C334.713 460.026 327.9 439.612 322.923 419.606C317.947 399.599 315.005 377.212 324.914 359.224C333.629 343.414 350.395 334.432 363.158 321.821C379.814 305.398 389.723 282.012 390.099 258.332C390.32 243.906 387.157 229.661 386.56 215.257C384.724 171.911 408.015 128.405 444.689 106.743L447.188 309.39L445.861 324.86L418.168 348.223L382.07 379.866L370.855 402.344L361.189 465.515L354.532 492.825L339.468 519.976L313.346 535.968L289.148 539.03L285.122 524.83L291.116 517.595Z" fill="#5A66FF"/>
<path d="M291.116 517.595C311.001 520.884 328.497 500.855 331.594 480.44C334.713 460.026 327.9 439.612 322.923 419.606C317.947 399.599 315.005 377.212 324.914 359.224C333.629 343.414 350.395 334.432 363.158 321.821C379.814 305.398 389.723 282.012 390.099 258.332C390.32 243.906 387.157 229.661 386.56 215.257C384.724 171.911 408.015 128.405 444.689 106.743L447.188 309.39L445.861 324.86L418.168 348.223L382.07 379.866L370.855 402.344L361.189 465.515L354.532 492.825L339.468 519.976L313.346 535.968L289.148 539.03L285.122 524.83L291.116 517.595Z" fill="#5A66FF" stroke="black" stroke-miterlimit="10"/>
<path d="M289.657 532.656C309.232 536.444 333.652 521.428 342.765 503.236C351.878 485.067 353.05 463.927 354.178 443.535C355.306 423.121 356.788 401.958 366.388 384.061C388.352 343.119 446.326 330.213 461.455 286.14L462.229 286.549C454.996 315.537 450.551 345.251 448.958 375.147C434.868 381.861 408.016 395.97 396.624 407.266C370.944 432.716 378.376 476.947 362.782 509.882C350.219 536.421 321.287 540.164 294.368 554C294.678 546.673 289.325 540.005 289.657 532.656Z" fill="#FF88B6"/>
<mask id="mask1_0_1" style="mask-type:luminance" maskUnits="userSpaceOnUse" x="289" y="286" width="174" height="268">
<path d="M289.657 532.656C309.232 536.444 333.652 521.428 342.765 503.236C351.878 485.067 353.05 463.927 354.178 443.535C355.306 423.121 356.788 401.958 366.388 384.061C388.352 343.119 446.326 330.213 461.455 286.14L462.229 286.549C454.996 315.537 450.551 345.251 448.958 375.147C434.868 381.861 408.016 395.97 396.624 407.266C370.944 432.716 378.376 476.947 362.782 509.882C350.219 536.421 321.287 540.164 294.368 554C294.678 546.673 289.325 540.005 289.657 532.656Z" fill="white"/>
</mask>
<g mask="url(#mask1_0_1)">
<path fill-rule="evenodd" clip-rule="evenodd" d="M309.431 98.9175V264.569V637.926H322.282V636.678" fill="#FF88B6"/>
<path d="M309.431 98.9175V264.569V637.926H322.282V636.678" stroke="black" stroke-miterlimit="10"/>
<path fill-rule="evenodd" clip-rule="evenodd" d="M316.282 98.9175V264.569V637.926H329.133V636.678" fill="#FF88B6"/>
<path d="M316.282 98.9175V264.569V637.926H329.133V636.678" stroke="black" stroke-miterlimit="10"/>
<path fill-rule="evenodd" clip-rule="evenodd" d="M323.133 98.9175V264.569V637.926H335.984V636.678" fill="#FF88B6"/>
<path d="M323.133 98.9175V264.569V637.926H335.984V636.678" stroke="black" stroke-miterlimit="10"/>
<path fill-rule="evenodd" clip-rule="evenodd" d="M329.984 98.9175V264.569V637.926H342.836V636.678" fill="#FF88B6"/>
<path d="M329.984 98.9175V264.569V637.926H342.836V636.678" stroke="black" stroke-miterlimit="10"/>
<path fill-rule="evenodd" clip-rule="evenodd" d="M336.835 98.9175V264.569V637.926H349.687V636.678" fill="#FF88B6"/>
<path d="M336.835 98.9175V264.569V637.926H349.687V636.678" stroke="black" stroke-miterlimit="10"/>
<path fill-rule="evenodd" clip-rule="evenodd" d="M343.687 98.9175V264.569V637.926H356.538V636.678" fill="#FF88B6"/>
<path d="M343.687 98.9175V264.569V637.926H356.538V636.678" stroke="black" stroke-miterlimit="10"/>
<path fill-rule="evenodd" clip-rule="evenodd" d="M350.538 98.9175V264.569V637.926H363.367V636.678" fill="#FF88B6"/>
<path d="M350.538 98.9175V264.569V637.926H363.367V636.678" stroke="black" stroke-miterlimit="10"/>
<path fill-rule="evenodd" clip-rule="evenodd" d="M357.367 98.9175V264.569V637.926H370.218V636.678" fill="#FF88B6"/>
<path d="M357.367 98.9175V264.569V637.926H370.218V636.678" stroke="black" stroke-miterlimit="10"/>
<path fill-rule="evenodd" clip-rule="evenodd" d="M364.218 98.9175V264.569V637.926H377.069V636.678" fill="#FF88B6"/>
<path d="M364.218 98.9175V264.569V637.926H377.069V636.678" stroke="black" stroke-miterlimit="10"/>
<path fill-rule="evenodd" clip-rule="evenodd" d="M371.069 98.9175V264.569V637.926H383.92V636.678" fill="#FF88B6"/>
<path d="M371.069 98.9175V264.569V637.926H383.92V636.678" stroke="black" stroke-miterlimit="10"/>
<path fill-rule="evenodd" clip-rule="evenodd" d="M377.92 98.9175V264.569V637.926H390.771V636.678" fill="#FF88B6"/>
<path d="M377.92 98.9175V264.569V637.926H390.771V636.678" stroke="black" stroke-miterlimit="10"/>
<path fill-rule="evenodd" clip-rule="evenodd" d="M384.771 98.9175V264.569V637.926H397.622V636.678" fill="#FF88B6"/>
<path d="M384.771 98.9175V264.569V637.926H397.622V636.678" stroke="black" stroke-miterlimit="10"/>
<path fill-rule="evenodd" clip-rule="evenodd" d="M391.622 98.9175V264.569V637.926H404.473V636.678" fill="#FF88B6"/>
<path d="M391.622 98.9175V264.569V637.926H404.473V636.678" stroke="black" stroke-miterlimit="10"/>
<path fill-rule="evenodd" clip-rule="evenodd" d="M398.473 98.9175V264.569V637.926H411.324V636.678" fill="#FF88B6"/>
<path d="M398.473 98.9175V264.569V637.926H411.324V636.678" stroke="black" stroke-miterlimit="10"/>
<path fill-rule="evenodd" clip-rule="evenodd" d="M405.324 98.9175V264.569V637.926H418.175V636.678" fill="#FF88B6"/>
<path d="M405.324 98.9175V264.569V637.926H418.175V636.678" stroke="black" stroke-miterlimit="10"/>
<path fill-rule="evenodd" clip-rule="evenodd" d="M412.175 98.9175V264.569V637.926H425.026V636.678" fill="#FF88B6"/>
<path d="M412.175 98.9175V264.569V637.926H425.026V636.678" stroke="black" stroke-miterlimit="10"/>
<path fill-rule="evenodd" clip-rule="evenodd" d="M419.026 98.9175V264.569V637.926H431.878V636.678" fill="#FF88B6"/>
<path d="M419.026 98.9175V264.569V637.926H431.878V636.678" stroke="black" stroke-miterlimit="10"/>
<path fill-rule="evenodd" clip-rule="evenodd" d="M425.877 98.9175V264.569V637.926H438.729V636.678" fill="#FF88B6"/>
<path d="M425.877 98.9175V264.569V637.926H438.729V636.678" stroke="black" stroke-miterlimit="10"/>
<path fill-rule="evenodd" clip-rule="evenodd" d="M432.729 98.9175V264.569V637.926H445.58V636.678" fill="#FF88B6"/>
<path d="M432.729 98.9175V264.569V637.926H445.58V636.678" stroke="black" stroke-miterlimit="10"/>
<path fill-rule="evenodd" clip-rule="evenodd" d="M439.58 98.9175V264.569V637.926H452.431V636.678" fill="#FF88B6"/>
<path d="M439.58 98.9175V264.569V637.926H452.431V636.678" stroke="black" stroke-miterlimit="10"/>
<path fill-rule="evenodd" clip-rule="evenodd" d="M446.431 98.9175V264.569V637.926H459.282V636.678" fill="#FF88B6"/>
<path d="M446.431 98.9175V264.569V637.926H459.282V636.678" stroke="black" stroke-miterlimit="10"/>
<path fill-rule="evenodd" clip-rule="evenodd" d="M453.282 98.9175V264.569V637.926H466.133V636.678" fill="#FF88B6"/>
<path d="M453.282 98.9175V264.569V637.926H466.133V636.678" stroke="black" stroke-miterlimit="10"/>
</g>
<path d="M289.657 532.656C309.232 536.444 333.652 521.428 342.765 503.236C351.878 485.067 353.05 463.927 354.178 443.535C355.306 423.121 356.788 401.958 366.388 384.061C388.352 343.119 446.326 330.213 461.455 286.14L462.229 286.549C454.996 315.537 450.551 345.251 448.958 375.147C434.868 381.861 408.016 395.97 396.624 407.266C370.944 432.716 378.376 476.947 362.782 509.882C350.219 536.421 321.287 540.164 294.368 554C294.678 546.673 289.325 540.005 289.657 532.656Z" stroke="black" stroke-miterlimit="10"/>
<path fill-rule="evenodd" clip-rule="evenodd" d="M361.332 406.686C355.833 397.432 346.104 390.757 335.456 388.942C326.375 387.386 315.494 390.286 311.844 398.654C310.013 402.836 310.143 407.992 307.045 411.351C304.085 414.563 298.775 415.378 296.735 419.242C295.285 421.97 296.072 425.468 297.907 427.978C299.743 430.489 302.464 432.196 305.179 433.739C308.722 435.757 312.55 437.631 316.62 437.564C319.357 437.523 321.994 436.594 324.71 436.251C328.092 435.828 331.595 436.315 334.742 437.674C338.985 439.505 342.588 442.854 347.095 443.873C355.495 445.784 363.758 438.38 365.582 430.039C367.42 421.703 364.976 412.805 361.332 406.686Z" fill="#56B381" stroke="black" stroke-miterlimit="10"/>
<path fill-rule="evenodd" clip-rule="evenodd" d="M31.1088 460.761C47.0664 456.09 65.3482 462.039 77.9997 470.774C90.6513 479.509 99.7021 490.849 111.666 500.124C118.278 505.254 125.758 509.711 133.876 513.399C161.536 525.935 195.383 528.656 227.347 525.689C259.311 522.723 289.95 514.431 320.261 506.139C332.602 502.763 345.188 499.272 355.401 493.029C380.59 477.64 385.565 449.634 407.169 431.394C423.487 417.612 449.15 410.614 472.26 415.613C476.139 482.688 480.034 549.796 478.97 616.937C478.234 663.658 475.124 710.625 483.537 756.905C484.11 760.035 484.699 763.378 483.013 766.278C479.658 772.08 469.576 773.079 461.245 773.26C335.695 775.947 210.047 778.651 84.4974 775.751C65.5446 775.308 45.7244 774.554 29.3739 767.278C23.7437 764.771 18.5718 761.411 15.6258 756.987C12.9744 752.988 12.3197 748.416 11.8941 743.942C7.19687 693.992 25.6095 644.124 22.1725 594.108C20.6177 571.542 14.6274 549.222 13.4163 526.64C12.2051 504.041 16.2477 480.377 31.1088 460.761Z" fill="#F5F5F5" stroke="black" stroke-miterlimit="10"/>
<path fill-rule="evenodd" clip-rule="evenodd" d="M286.677 483.876C287.302 478.767 287.841 478.141 286.785 474.131C285.793 470.401 284.025 466.974 283.055 463.222C282.106 459.579 280.662 456.431 277.104 454.62C273.547 452.787 271.348 449.575 268.071 447.613C265.096 445.824 262.336 443.56 259.21 442.158C254.683 440.132 249.681 439.83 244.808 438.946C239.44 437.976 234.977 439.571 231.01 443.107C228.94 444.961 226.612 446.6 224.822 448.691C221.998 451.968 218.441 454.792 217.428 459.471C215.444 468.612 205.613 471.717 206.324 482.302C206.691 487.649 207.683 491.94 211.305 495.734C212.059 496.532 212.706 497.674 212.835 498.731C213.956 506.6 218.894 512.421 224.219 517.401C229.63 522.446 236.659 525.249 244.205 526.068C248.193 526.521 252.246 527.233 256.213 526.974C262.228 526.586 267.985 524.516 272.512 520.549C274.841 518.523 277.859 517.078 279.735 514.577C281.912 511.645 280.985 508.39 282.473 505.285C283.551 503 285.125 501.253 285.858 498.731C287.194 494.397 286.828 489.59 286.677 483.876Z" fill="#5A66FF" stroke="black" stroke-miterlimit="10"/>
<path d="M236.939 472.73C237.111 478.077 246.727 477.387 245.024 471.975" stroke="black" stroke-miterlimit="10" stroke-linecap="round" stroke-linejoin="round"/>
<path d="M248.753 471.846C248.947 473.441 250.069 474.908 251.578 475.49C253.087 476.072 254.898 475.727 256.105 474.67C257.313 473.592 257.873 471.846 257.485 470.272" stroke="black" stroke-miterlimit="10" stroke-linecap="round" stroke-linejoin="round"/>
<path d="M231.161 479.413C232.412 482.389 234.999 484.674 237.909 486.075C240.82 487.477 244.075 488.037 247.288 488.253C249.185 488.382 251.104 488.382 253.001 488.037C259.663 486.83 265.182 480.901 265.894 474.174" stroke="black" stroke-miterlimit="10" stroke-linecap="round" stroke-linejoin="round"/>
<path d="M265.806 446.3C264.88 445.211 264.995 443.664 264.965 442.249C264.924 439.584 264.208 436.985 263.496 434.418C262.884 432.235 262.119 429.823 259.985 428.718C259.196 428.304 258.308 428.117 257.49 427.756C256.671 427.395 255.911 426.78 255.809 425.952C255.765 425.594 255.845 425.222 255.892 424.87C256.495 420.707 253.636 416.938 250.989 413.571C250.54 413 250.099 412.197 250.609 411.656C250.784 411.469 251.024 411.374 251.246 411.28C253.206 410.528 255.59 410.003 256.524 408.239C256.742 407.817 256.879 407.322 257.316 407.07C257.686 406.86 258.157 406.884 258.579 406.947C262.399 407.416 266.607 408.398 269.879 406.461C270.777 406.153 271.14 405.597 270.856 405.187C270.745 405.019 270.536 404.929 270.345 404.838C269.601 404.501 268.857 404.164 268.114 403.827C266.437 403.077 264.741 402.313 262.905 401.88C260.756 401.387 258.391 401.332 256.594 400.185C255.492 397.964 252.708 396.707 249.965 396.502C247.221 396.296 244.493 396.945 241.82 397.604C240.388 397.962 238.869 398.347 237.797 399.287C236.14 400.745 235.924 403.079 234.627 404.822C233.25 406.657 230.754 407.723 229.78 409.755C229.264 410.825 229.25 412.03 229.105 413.185C228.77 415.584 227.756 417.869 226.755 420.119C225.87 421.119 225.143 423.104 225.111 424.889C225.079 426.673 225.6 428.422 225.55 430.209C225.494 432.376 224.615 434.446 223.692 436.456C223.225 437.486 222.725 438.537 222.717 439.643C222.722 440.12 222.799 440.605 222.787 441.085C222.701 442.728 221.283 444.073 220.85 445.676C220.422 447.311 221.148 449.118 221.973 450.55C217.014 450.485 211.99 451.78 207.735 454.217C207.265 454.489 206.767 454.831 206.683 455.319C206.594 455.907 207.138 456.384 207.663 456.699C209.139 457.572 210.898 457.965 212.646 458.277C217.522 459.127 222.5 459.354 227.482 459.317C246.06 459.17 264.625 455.266 281.706 448.231C282.082 448.07 282.492 447.887 282.627 447.524C282.894 446.766 281.722 446.317 280.871 446.273C275.663 445.943 270.398 446.015 265.806 446.3Z" fill="#B180E0"/>
<path d="M265.806 446.3C264.88 445.211 264.995 443.664 264.965 442.249C264.924 439.584 264.208 436.985 263.496 434.418C262.884 432.235 262.119 429.823 259.985 428.718C259.196 428.304 258.308 428.117 257.49 427.756C256.671 427.395 255.911 426.78 255.809 425.952C255.765 425.594 255.845 425.222 255.892 424.87C256.495 420.707 253.636 416.938 250.989 413.571C250.54 413 250.099 412.197 250.609 411.656C250.784 411.469 251.024 411.374 251.246 411.28C253.206 410.528 255.59 410.003 256.524 408.239C256.742 407.817 256.879 407.322 257.316 407.07C257.686 406.86 258.157 406.884 258.579 406.947C262.399 407.416 266.607 408.398 269.879 406.461C270.777 406.153 271.14 405.597 270.856 405.187C270.745 405.019 270.536 404.929 270.345 404.838C269.601 404.501 268.857 404.164 268.114 403.827C266.437 403.077 264.741 402.313 262.905 401.88C260.756 401.387 258.391 401.332 256.594 400.185C255.492 397.964 252.708 396.707 249.965 396.502C247.221 396.296 244.493 396.945 241.82 397.604C240.388 397.962 238.869 398.347 237.797 399.287C236.14 400.745 235.924 403.079 234.627 404.822C233.25 406.657 230.754 407.723 229.78 409.755C229.264 410.825 229.25 412.03 229.105 413.185C228.77 415.584 227.756 417.869 226.755 420.119C225.87 421.119 225.143 423.104 225.111 424.889C225.079 426.673 225.6 428.422 225.55 430.209C225.494 432.376 224.615 434.446 223.692 436.456C223.225 437.486 222.725 438.537 222.717 439.643C222.722 440.12 222.799 440.605 222.787 441.085C222.701 442.728 221.283 444.073 220.85 445.676C220.422 447.311 221.148 449.118 221.973 450.55C217.014 450.485 211.99 451.78 207.735 454.217C207.265 454.489 206.767 454.831 206.683 455.319C206.594 455.907 207.138 456.384 207.663 456.699C209.139 457.572 210.898 457.965 212.646 458.277C217.522 459.127 222.5 459.354 227.482 459.317C246.06 459.17 264.625 455.266 281.706 448.231C282.082 448.07 282.492 447.887 282.627 447.524C282.894 446.766 281.722 446.317 280.871 446.273C275.663 445.943 270.398 446.015 265.806 446.3Z" stroke="#120000" stroke-miterlimit="10" stroke-linecap="round" stroke-linejoin="round"/>
<path d="M250.482 411.655C247.928 410.651 245.301 409.639 242.651 409.9C242.259 409.932 241.855 410.015 241.505 410.239C241.172 410.462 240.901 410.891 240.922 411.35C240.942 411.809 241.244 412.217 241.611 412.419C241.978 412.621 242.394 412.636 242.8 412.569" stroke="#120000" stroke-miterlimit="10" stroke-linecap="round" stroke-linejoin="round"/>
<path d="M228.329 424.855C231.711 426.004 235.077 427.172 238.459 428.321C239.887 428.805 241.407 429.31 242.901 429.01C243.868 428.825 244.74 428.306 245.517 427.748C248.064 425.917 249.998 423.354 250.965 420.531C251.167 419.979 251.327 419.382 251.72 418.922C252.114 418.461 252.834 418.174 253.404 418.417C253.537 418.615 253.649 418.799 253.782 418.997" stroke="#120000" stroke-miterlimit="10" stroke-linecap="round" stroke-linejoin="round"/>
<path d="M229.459 422.193C233.385 423.671 237.331 425.163 241.258 426.641C241.654 426.79 242.069 426.936 242.514 426.898C242.869 426.854 243.19 426.683 243.491 426.497C245.888 425.064 247.762 422.888 248.737 420.427C249.371 418.848 249.692 417.077 251.005 415.893" stroke="#120000" stroke-miterlimit="10" stroke-linecap="round" stroke-linejoin="round"/>
<path d="M250.798 422.827C251.516 422.376 252.294 421.967 253.079 421.622C254.711 422.443 255.735 424.18 255.606 425.911C255.464 427.676 254.247 429.343 254.481 431.094" stroke="#120000" stroke-miterlimit="10" stroke-linecap="round" stroke-linejoin="round"/>
<path d="M230.67 425.885C229.963 425.989 229.206 426.132 228.746 426.633C228.539 426.857 228.41 427.12 228.298 427.381C227.776 428.55 227.406 429.783 227.219 431.042" stroke="#120000" stroke-miterlimit="10" stroke-linecap="round" stroke-linejoin="round"/>
<path d="M225.026 439.539C229.702 437.166 234.396 434.79 239.072 432.417C240.106 431.894 241.157 431.369 242.312 431.243C244.638 430.989 246.703 432.4 248.825 433.259C252.481 434.737 256.894 434.606 260.501 432.908" stroke="#120000" stroke-miterlimit="10" stroke-linecap="round" stroke-linejoin="round"/>
<path d="M224.877 438.041C228.365 435.814 231.984 433.769 235.697 431.91C238.51 430.491 241.694 429.159 244.792 429.75C247.244 430.222 249.263 431.853 251.73 432.291C254.011 432.686 256.51 431.932 258.115 430.35" stroke="#120000" stroke-miterlimit="10" stroke-linecap="round" stroke-linejoin="round"/>
<path d="M263.711 439.09C263.003 439.771 262.233 440.393 261.401 440.941C261.019 441.203 260.598 441.436 260.141 441.525C259.191 441.708 258.264 441.196 257.292 441.052C255.717 440.834 254.211 441.613 252.762 442.27C247.849 444.475 242.239 445.265 236.887 444.49C234.981 444.214 233.033 443.746 231.132 444.095C228.65 444.55 226.686 446.292 224.471 447.455C224.24 447.039 224.007 446.606 223.864 446.327C224.699 444.921 226.395 444.218 227.96 443.629C229.455 443.049 230.952 442.485 232.512 442.145C236.875 441.178 241.445 442.033 245.912 441.614C250.769 441.147 255.566 439.171 263.711 439.09Z" stroke="#120000" stroke-miterlimit="10" stroke-linecap="round" stroke-linejoin="round"/>
<path d="M225.447 449.379C226.382 448.489 227.349 447.579 228.564 447.066C229.744 446.558 231.08 446.443 232.359 446.599C233.637 446.738 234.871 447.113 236.058 447.544" stroke="#120000" stroke-miterlimit="10" stroke-linecap="round" stroke-linejoin="round"/>
<path d="M250.851 447.946C253.885 446.121 257.14 444.632 260.529 443.505" stroke="#120000" stroke-miterlimit="10" stroke-linecap="round" stroke-linejoin="round"/>
<path d="M156.047 176.58H131.957V187.866H156.047V176.58ZM152.78 185.16H135.224V179.286H152.78V185.16ZM129.944 190.704V193.476H142.352V198.327H145.652V193.476H158.093V190.704H129.944ZM135.224 195.885H131.924V204.102H156.674V201.297H135.224V195.885ZM180.167 179.517H172.28V175.953H168.947V179.517H161.06V182.388H180.167V179.517ZM190.661 187.404H186.767V176.25H183.5V204.432H186.767V190.539H190.661V187.404ZM172.247 195.687C176.306 195.258 178.814 193.146 178.814 189.945C178.814 186.348 175.646 184.104 170.663 184.104C165.68 184.104 162.512 186.348 162.512 189.945C162.512 193.113 164.987 195.225 168.98 195.654V199.845H161.192V202.749H171.95C175.91 202.749 179.375 202.353 181.157 201.561V198.591C179.21 199.482 175.976 199.812 172.247 199.845V195.687ZM165.614 189.945C165.614 188.163 167.33 186.777 170.663 186.777C173.996 186.777 175.712 188.163 175.712 189.945C175.712 191.727 173.996 193.08 170.663 193.08C167.33 193.08 165.614 191.727 165.614 189.945ZM208.148 200.043V193.212H219.071V190.176H197.621V180.309H218.741V177.273H194.288V193.212H204.815V200.043H192.44V203.079H220.589V200.043H208.148ZM246.722 176.25V204.432H249.989V176.25H246.722ZM236.294 177.075L232.961 176.943C232.928 188.79 229.826 198.558 224.183 199.449V202.749C228.638 202.419 232.07 198.657 234.149 192.453L241.64 202.683L244.28 200.802L235.172 188.658C235.898 185.292 236.261 181.398 236.294 177.075ZM286.824 204.432H290.091V176.25H286.824V204.432ZM273.36 194.598C278.409 194.598 282.072 190.968 282.072 185.721C282.072 180.474 278.409 176.844 273.36 176.844C268.278 176.844 264.648 180.474 264.648 185.721C264.648 190.968 268.278 194.598 273.36 194.598ZM273.36 191.628C269.994 191.628 267.849 189.087 267.849 185.721C267.849 182.355 269.994 179.781 273.36 179.781C276.693 179.781 278.871 182.355 278.871 185.721C278.871 189.087 276.693 191.628 273.36 191.628ZM263.691 202.749H275.01C279.069 202.749 282.567 202.254 284.448 201.396V198.36C282.534 199.251 279.069 199.68 275.208 199.68H263.691V202.749ZM312.726 181.563V184.401H318.204V192.09H321.471V176.25H318.204V181.563H312.726ZM304.872 185.688L313.155 191.001L314.772 188.559L306.093 183.081C306.423 182.025 306.654 180.936 306.72 179.781H313.848V176.976H295.863V179.781H303.453C303.057 184.368 300.153 187.701 295.5 188.328V191.265C299.658 190.869 302.925 188.757 304.872 185.688ZM309.525 193.014C302.694 193.014 297.348 194.598 297.348 198.723C297.348 202.848 302.694 204.432 309.525 204.432C316.356 204.432 321.702 202.848 321.702 198.723C321.702 194.598 316.356 193.014 309.525 193.014ZM309.525 201.759C304.674 201.759 300.813 200.802 300.813 198.723C300.813 196.644 304.674 195.687 309.525 195.687C314.376 195.687 318.237 196.644 318.237 198.723C318.237 200.802 314.376 201.759 309.525 201.759ZM352.356 176.745H349.122V180.705H331.368V176.745H328.134V191.199H352.356V176.745ZM331.368 188.295V183.609H349.122V188.295H331.368ZM354.336 194.202H326.187V197.238H338.562V205.092H341.928V197.238H354.336V194.202ZM159.413 233.668H155.453V222.25H152.186V250.432H155.453V236.803H159.413V233.668ZM131.264 248.749H146.939V223.273H131.264V248.749ZM134.531 226.309H143.672V245.713H134.531V226.309ZM184.457 222.25V227.992H178.814V222.745H175.613V226.639H165.548V222.745H162.347V236.341H178.814V231.061H184.457V237.166H187.724V222.25H184.457ZM165.548 233.668V229.246H175.613V233.668H165.548ZM184.49 241.522H166.967V238.717H163.733V250.069H187.724V238.717H184.49V241.522ZM166.967 247.429V244.129H184.49V247.429H166.967ZM208.148 246.01V239.245H218.708V223.273H194.288V239.245H204.815V246.01H192.44V249.079H220.589V246.01H208.148ZM197.555 226.342H215.441V236.209H197.555V226.342ZM253.157 233.668H249.197V222.25H245.93V250.432H249.197V236.803H253.157V233.668ZM235.304 226.276H242.399V223.273H224.678V226.276H232.004C231.905 236.737 229.001 244.591 224.018 245.515V248.749C228.275 248.254 231.575 244.756 233.489 238.915L240.914 248.518L243.488 246.571L234.446 235.219C234.974 232.579 235.271 229.576 235.304 226.276ZM287.682 222.25V250.432H290.784V222.25H287.682ZM280.884 233.998H276.99V237.001H280.884V249.937H283.986V222.415H280.884V233.998ZM267.684 245.845V237.232H275.505V234.328H267.684V226.177H276.891V223.273H264.549V248.749H269.961C273.426 248.749 276.429 248.32 278.277 247.495V244.558C276.198 245.449 273.525 245.845 270.126 245.845H267.684ZM308.634 231.721L320.679 240.07L322.461 237.463L310.053 229.114C310.977 227.233 311.637 225.154 312.033 222.976L308.667 222.382C307.215 230.269 301.605 236.869 295.5 236.869V239.971C300.681 239.971 305.466 236.704 308.634 231.721ZM294.939 246.01V249.079H323.088V246.01H294.939ZM352.917 238.354H331.335V233.701H352.125V230.83H331.335V226.21H352.488V223.273H328.068V241.291H352.917V238.354ZM326.187 246.076V249.079H354.336V246.076H326.187Z" fill="#161616"/>
<path d="M209.85 157.372C209.866 157.707 209.669 157.996 209.384 157.996C197.989 158.005 186.585 157.996 175.19 157.996C157.16 157.996 139.131 157.996 121.094 157.996C115.117 157.996 86.9821 157.996 78.619 157.996C77.2327 157.996 76.1549 157.031 76.1336 155.645C76.0389 149.483 76.567 134 76.2693 134C85.9591 134 158.353 134 164.923 134C179.213 134 193.502 134 207.792 134C209.132 134 210.124 134.918 210.122 136.258C210.114 141.581 209.742 154.54 209.85 157.372Z" fill="white" stroke="black" stroke-miterlimit="10" stroke-linecap="round" stroke-linejoin="round"/>
<path d="M94.3664 145.213V144.173H92.8584L93.3784 141.339H92.2214L91.7014 144.173H89.7384L90.2584 141.339H89.1014L88.5814 144.173H86.9044V145.213H88.3864L87.9054 147.878H86.2024V148.918H87.7104L87.1904 151.752H88.3474L88.8674 148.918H90.8304L90.3104 151.752H91.4674L91.9874 148.918H93.6644V147.878H92.1824L92.6634 145.213H94.3664ZM91.0254 147.878H89.0624L89.5434 145.213H91.5064L91.0254 147.878ZM96.0169 141.339V151.752H97.3819V144.069L100.736 149.997H101.724L105.078 144.069V151.752H106.443V141.339H105.247L101.23 148.411L97.2129 141.339H96.0169ZM108.661 141.339V151.752H113.302C115.642 151.752 117.007 150.608 117.007 148.814C117.007 147.527 116.084 146.604 114.901 146.37C115.837 146.149 116.513 145.2 116.513 144.225C116.513 142.444 115.213 141.339 112.912 141.339H108.661ZM112.873 145.928H110.026V142.522H112.873C114.316 142.522 115.135 143.12 115.135 144.225C115.135 145.33 114.316 145.928 112.873 145.928ZM113.263 150.569H110.026V147.059H113.263C114.719 147.059 115.629 147.67 115.629 148.814C115.629 149.958 114.719 150.569 113.263 150.569ZM126.666 142.561V141.339H117.826V142.561H121.57V151.752H122.935V142.561H126.666ZM129.641 141.339H128.276V151.752H129.641V141.339ZM140.643 146.487H141.93V140.923H140.643V141.924H138.836V142.99H140.643V144.16H138.836V145.226H140.643V146.487ZM138.264 141.118H137.016V142.496H133.194V141.118H131.933V146.084H138.264V141.118ZM133.194 145.044V143.523H137.016V145.044H133.194ZM133.753 150.881V149.958H141.93V147.098H132.453V148.099H140.656V149.009H132.479V151.882H142.203V150.881H133.753ZM159.236 145.421H157.676V140.923H156.389V152.025H157.676V146.656H159.236V145.421ZM152.424 141.248L151.111 141.196C151.098 145.863 149.941 149.711 147.718 150.062V151.362C149.447 151.232 150.786 149.789 151.579 147.371L154.439 151.336L155.479 150.595L151.982 145.863C152.268 144.524 152.411 142.977 152.424 141.248ZM169.297 140.923V143.146H167.009C166.697 141.885 165.462 141.053 163.668 141.053C161.562 141.053 160.236 142.184 160.236 143.796C160.236 145.408 161.562 146.539 163.668 146.539C165.514 146.539 166.762 145.655 167.035 144.342H169.297V146.617H170.584V140.923H169.297ZM163.668 145.473C162.394 145.473 161.523 144.836 161.523 143.796C161.523 142.756 162.394 142.119 163.668 142.119C164.942 142.119 165.8 142.756 165.8 143.796C165.8 144.836 164.942 145.473 163.668 145.473ZM169.31 148.398H162.524V147.228H161.263V151.882H170.584V147.228H169.31V148.398ZM162.524 150.829V149.425H169.31V150.829H162.524ZM181.519 145.031L186.576 146.955L187.018 145.837L182.182 144.056C182.325 143.744 182.442 143.419 182.507 143.081H186.719V141.911H182.455V140.65H181.129V141.911H176.917V143.081H181.116C180.661 144.602 178.971 145.681 176.631 145.85V147.033C178.75 146.916 180.479 146.188 181.519 145.031ZM187.369 148.099H176.28V149.295H181.155V152.285H182.468V149.295H187.369V148.099ZM192.633 145.59L195.792 147.774L196.455 146.799L193.114 144.537C193.257 144.121 193.335 143.666 193.374 143.185H196.26V142.08H193.361V140.728H192.061V142.08H189.123V143.185H192.074C191.905 145.109 190.774 146.422 189.006 146.695V147.839C190.592 147.67 191.866 146.838 192.633 145.59ZM195.818 143.965V145.148H197.95V149.204H199.237V140.923H197.95V143.965H195.818ZM191.099 150.738V148.749H189.786V151.882H199.471V150.738H191.099Z" fill="black"/>
<path d="M414.661 299.372C414.681 299.707 414.435 299.996 414.081 299.996C399.879 300.005 385.667 299.996 371.465 299.996C348.995 299.996 326.526 299.996 304.047 299.996C296.419 299.996 259.832 299.996 250.403 299.996C249.079 299.996 248.045 299.098 248.017 297.774C247.887 291.702 248.557 276 248.183 276C260.26 276 350.482 276 358.67 276C376.713 276 394.757 276 412.8 276C414.069 276 415 276.839 415 278.108C414.999 283.334 414.525 296.513 414.661 299.372Z" fill="white" stroke="black" stroke-miterlimit="10" stroke-linecap="round" stroke-linejoin="round"/>
<path d="M262.978 287.54V286.5H261.47L261.99 283.666H260.833L260.313 286.5H258.35L258.87 283.666H257.713L257.193 286.5H255.516V287.54H256.998L256.517 290.205H254.814V291.245H256.322L255.802 294.079H256.959L257.479 291.245H259.442L258.922 294.079H260.079L260.599 291.245H262.276V290.205H260.794L261.275 287.54H262.978ZM259.637 290.205H257.674L258.155 287.54H260.118L259.637 290.205ZM273.39 283.25V287.761H270.946V283.653H264.81V293.689H270.946V288.97H273.39V294.352H274.677V283.25H273.39ZM269.659 292.493H266.097V284.849H269.659V292.493ZM287.013 283.38H277.523V286.981H287.013V283.38ZM285.739 285.993H278.81V284.368H285.739V285.993ZM287.819 288.827V287.826H276.73V288.827H281.631V289.828H277.471V290.79H285.791V291.57H277.497V294.222H287.247V293.26H278.758V292.48H287.052V289.828H282.905V288.827H287.819ZM298.244 290.972H299.583V283.64H289.911V284.849H298.244V290.972ZM294.695 292.61V287.657H293.369V292.61H289.235V293.819H300.324V292.61H294.695ZM315.744 283.25H314.457V289.139H315.744V283.25ZM309.322 286.617L312.702 288.762L313.365 287.813L309.842 285.642C310.128 284.966 310.271 284.225 310.271 283.432L308.984 283.354C308.971 285.551 307.658 287.345 305.552 287.722V288.892C307.177 288.671 308.49 287.839 309.322 286.617ZM313.898 293.182V290.829H315.848V289.776H306.293V290.829H308.243V293.182H306.163V294.248H315.978V293.182H313.898ZM309.53 290.829H312.611V293.182H309.53V290.829ZM323.426 288.034C326.117 288.034 328.353 287.254 328.353 285.603C328.353 283.965 326.117 283.185 323.426 283.185C320.735 283.185 318.499 283.965 318.499 285.603C318.499 287.254 320.735 288.034 323.426 288.034ZM323.426 286.994C321.489 286.994 319.864 286.513 319.864 285.603C319.864 284.706 321.489 284.225 323.426 284.225C325.363 284.225 326.988 284.706 326.988 285.603C326.988 286.513 325.363 286.994 323.426 286.994ZM317.888 290.114H328.977V289.022H317.888V290.114ZM318.655 294.222H328.405V293.117H319.968V291.063H318.655V294.222ZM340.225 292.623V289.932H344.528V288.736H336.078V284.849H344.398V283.653H334.765V289.932H338.912V292.623H334.037V293.819H345.126V292.623H340.225ZM355.616 283.25V294.352H356.903V283.25H355.616ZM351.508 283.575L350.195 283.523C350.182 288.19 348.96 292.038 346.737 292.389V293.689C348.492 293.559 349.844 292.077 350.663 289.633L353.614 293.663L354.654 292.922L351.066 288.138C351.352 286.812 351.495 285.278 351.508 283.575ZM370.672 287.54V286.5H369.164L369.684 283.666H368.527L368.007 286.5H366.044L366.564 283.666H365.407L364.887 286.5H363.21V287.54H364.692L364.211 290.205H362.508V291.245H364.016L363.496 294.079H364.653L365.173 291.245H367.136L366.616 294.079H367.773L368.293 291.245H369.97V290.205H368.488L368.969 287.54H370.672ZM367.331 290.205H365.368L365.849 287.54H367.812L367.331 290.205ZM381.033 294.352H382.32V283.25H381.033V294.352ZM375.729 290.478C377.718 290.478 379.161 289.048 379.161 286.981C379.161 284.914 377.718 283.484 375.729 283.484C373.727 283.484 372.297 284.914 372.297 286.981C372.297 289.048 373.727 290.478 375.729 290.478ZM375.729 289.308C374.403 289.308 373.558 288.307 373.558 286.981C373.558 285.655 374.403 284.641 375.729 284.641C377.042 284.641 377.9 285.655 377.9 286.981C377.9 288.307 377.042 289.308 375.729 289.308ZM371.92 293.689H376.379C377.978 293.689 379.356 293.494 380.097 293.156V291.96C379.343 292.311 377.978 292.48 376.457 292.48H371.92V293.689ZM391.431 285.343V286.461H393.589V289.49H394.876V283.25H393.589V285.343H391.431ZM388.337 286.968L391.6 289.061L392.237 288.099L388.818 285.941C388.948 285.525 389.039 285.096 389.065 284.641H391.873V283.536H384.788V284.641H387.778C387.622 286.448 386.478 287.761 384.645 288.008V289.165C386.283 289.009 387.57 288.177 388.337 286.968ZM390.17 289.854C387.479 289.854 385.373 290.478 385.373 292.103C385.373 293.728 387.479 294.352 390.17 294.352C392.861 294.352 394.967 293.728 394.967 292.103C394.967 290.478 392.861 289.854 390.17 289.854ZM390.17 293.299C388.259 293.299 386.738 292.922 386.738 292.103C386.738 291.284 388.259 290.907 390.17 290.907C392.081 290.907 393.602 291.284 393.602 292.103C393.602 292.922 392.081 293.299 390.17 293.299ZM407.238 283.445H405.964V285.005H398.97V283.445H397.696V289.139H407.238V283.445ZM398.97 287.995V286.149H405.964V287.995H398.97ZM408.018 290.322H396.929V291.518H401.804V294.612H403.13V291.518H408.018V290.322Z" fill="black"/>
</svg>
