<svg width="28" height="27" viewBox="0 0 28 27" fill="none" xmlns="http://www.w3.org/2000/svg">
<g filter="url(#filter0_d_632_3672)">
<path d="M15.2539 16.9673C15.2555 16.9632 15.2571 16.9593 15.2586 16.9555L16.5425 14.0071H20.3687C21.9377 14.0071 23.2379 12.7628 23.2379 11.1935V4.16358C23.2379 2.59425 21.9377 1.35 20.3687 1.35H8.21923C6.65029 1.35 5.35 2.59425 5.35 4.16358V11.1935C5.35 12.7628 6.65029 14.0071 8.21923 14.0071H12.0841L13.368 16.9555C13.3695 16.9593 13.3711 16.9632 13.3728 16.9673C13.3807 16.9869 13.3914 17.0115 13.4051 17.0396C13.4316 17.0941 13.4734 17.1701 13.5345 17.2499C13.6488 17.3993 13.9033 17.65 14.3133 17.65C14.7233 17.65 14.9778 17.3993 15.0921 17.2499C15.1532 17.1701 15.195 17.0941 15.2216 17.0396C15.2352 17.0115 15.2459 16.9869 15.2539 16.9673Z" stroke="white" stroke-width="1.3" stroke-miterlimit="10" stroke-linejoin="round"/>
<path d="M9.92518 6.57846C9.92518 6.57846 9.25027 6.5716 9.0171 6.96V5.43384C9.0171 5.43384 8.08559 5.44526 8.02466 5.43612V9.4263H9.0171V9.1944C9.0171 9.1944 9.31471 9.53482 9.84199 9.53482C9.84199 9.53482 11.2047 9.49827 11.2117 8.21314C11.2117 8.21314 11.3957 6.71097 9.92635 6.57732L9.92518 6.57846ZM9.61936 8.64837C9.30417 8.64837 9.04874 8.39934 9.04874 8.09091C9.04874 7.78248 9.30417 7.53459 9.61936 7.53459C9.93455 7.53459 10.1912 7.78362 10.1912 8.09091C10.1912 8.3982 9.93572 8.64837 9.61936 8.64837Z" fill="white"/>
<path d="M15.2612 6.61499C14.3614 6.61499 13.6326 7.26955 13.6326 8.07604C13.6326 8.88252 14.3614 9.53708 15.2612 9.53708C16.1611 9.53708 16.8899 8.88252 16.8899 8.07604C16.8899 7.26955 16.1611 6.61499 15.2612 6.61499ZM15.2612 8.67576C14.9215 8.67576 14.6461 8.40731 14.6461 8.07604C14.6461 7.74476 14.9215 7.47631 15.2612 7.47631C15.601 7.47631 15.8764 7.74476 15.8764 8.07604C15.8764 8.40731 15.601 8.67576 15.2612 8.67576Z" fill="white"/>
<path d="M11.5186 5.30481V6.25866C11.5186 6.25866 11.9872 6.36147 11.9872 6.7293V9.43435H12.9586V6.70189C12.9586 6.70189 13.0699 5.3665 11.5186 5.30481Z" fill="white"/>
<path d="M8.02572 5.43762V5.43384C8.02572 5.43384 8.02004 5.43573 8.02572 5.43762Z" fill="#2FB44A"/>
<path d="M19.5976 6.94645C19.2766 6.52379 18.7517 6.57862 18.7517 6.57862C17.4241 6.67458 17.396 7.86603 17.396 7.86603V8.3024C17.396 9.45274 18.6052 9.53727 18.6052 9.53727C19.4582 9.53727 19.5766 9.16715 19.5766 9.16715C19.5836 10.0799 18.9755 10.0262 18.9755 10.0262H18.7095V10.9252H19.1501C20.5971 10.9252 20.5831 9.53727 20.5831 9.53727V6.65287H19.5976V6.94531V6.94645ZM19.0387 8.66224C18.7071 8.66224 18.4376 8.3995 18.4376 8.07622C18.4376 7.75294 18.7071 7.4902 19.0387 7.4902C19.3703 7.4902 19.6398 7.75294 19.6398 8.07622C19.6398 8.3995 19.3703 8.66224 19.0387 8.66224Z" fill="white"/>
</g>
<defs>
<filter id="filter0_d_632_3672" x="0.699951" y="0.699951" width="27.188" height="25.6001" filterUnits="userSpaceOnUse" color-interpolation-filters="sRGB">
<feFlood flood-opacity="0" result="BackgroundImageFix"/>
<feColorMatrix in="SourceAlpha" type="matrix" values="0 0 0 0 0 0 0 0 0 0 0 0 0 0 0 0 0 0 127 0" result="hardAlpha"/>
<feOffset dy="4"/>
<feGaussianBlur stdDeviation="2"/>
<feComposite in2="hardAlpha" operator="out"/>
<feColorMatrix type="matrix" values="0 0 0 0 0 0 0 0 0 0 0 0 0 0 0 0 0 0 0.25 0"/>
<feBlend mode="normal" in2="BackgroundImageFix" result="effect1_dropShadow_632_3672"/>
<feBlend mode="normal" in="SourceGraphic" in2="effect1_dropShadow_632_3672" result="shape"/>
</filter>
</defs>
</svg>
