<svg width="186" height="57" viewBox="0 0 186 57" fill="none" xmlns="http://www.w3.org/2000/svg">
<mask id="mask0_369_1441" style="mask-type:luminance" maskUnits="userSpaceOnUse" x="130" y="16" width="56" height="40">
<path d="M178.645 17.92L185.058 39.6634C185.058 39.6634 187.534 51.6785 173.868 48.5394C160.203 45.4004 150.285 43.2761 141.666 47.4029C133.047 51.5296 131.545 55.4264 131.545 55.4264C131.545 55.4264 126.647 43.3302 134.292 27.7972C141.937 12.2643 178.645 17.92 178.645 17.92Z" fill="white"/>
</mask>
<g mask="url(#mask0_369_1441)">
<path d="M173.76 -0.183655L190.606 56.9825" stroke="#010202" stroke-miterlimit="12" stroke-linecap="round" stroke-linejoin="round"/>
<path d="M169.647 1.02057L186.479 58.2002" stroke="#010202" stroke-miterlimit="12" stroke-linecap="round" stroke-linejoin="round"/>
<path d="M165.52 2.23822L182.365 59.4043" stroke="#010202" stroke-miterlimit="12" stroke-linecap="round" stroke-linejoin="round"/>
<path d="M161.407 3.45599L178.252 60.6221" stroke="#010202" stroke-miterlimit="12" stroke-linecap="round" stroke-linejoin="round"/>
<path d="M157.28 4.66028L174.125 61.8399" stroke="#010202" stroke-miterlimit="12" stroke-linecap="round" stroke-linejoin="round"/>
<path d="M153.167 5.87793L170.012 63.0441" stroke="#010202" stroke-miterlimit="12" stroke-linecap="round" stroke-linejoin="round"/>
<path d="M149.054 7.0957L165.885 64.2618" stroke="#010202" stroke-miterlimit="12" stroke-linecap="round" stroke-linejoin="round"/>
<path d="M144.927 8.31342L161.772 65.4795" stroke="#010202" stroke-miterlimit="12" stroke-linecap="round" stroke-linejoin="round"/>
<path d="M140.813 9.51764L157.659 66.6838" stroke="#010202" stroke-miterlimit="12" stroke-linecap="round" stroke-linejoin="round"/>
<path d="M136.687 10.7354L153.532 67.9015" stroke="#010202" stroke-miterlimit="12" stroke-linecap="round" stroke-linejoin="round"/>
<path d="M132.574 11.9532L149.419 69.1193" stroke="#010202" stroke-miterlimit="12" stroke-linecap="round" stroke-linejoin="round"/>
<path d="M128.46 13.1573L145.306 70.3235" stroke="#010202" stroke-miterlimit="12" stroke-linecap="round" stroke-linejoin="round"/>
<path d="M124.333 14.3751L141.179 71.5412" stroke="#010202" stroke-miterlimit="12" stroke-linecap="round" stroke-linejoin="round"/>
<path d="M120.22 15.5928L137.066 72.7589" stroke="#010202" stroke-miterlimit="12" stroke-linecap="round" stroke-linejoin="round"/>
</g>
<path d="M178.645 17.92L185.058 39.6634C185.058 39.6634 187.534 51.6785 173.868 48.5394C160.203 45.4004 150.285 43.2761 141.666 47.4029C133.047 51.5296 131.545 55.4264 131.545 55.4264C131.545 55.4264 126.647 43.3302 134.292 27.7972C141.937 12.2643 178.645 17.92 178.645 17.92Z" stroke="#010202" stroke-miterlimit="10"/>
<mask id="mask1_369_1441" style="mask-type:luminance" maskUnits="userSpaceOnUse" x="1" y="16" width="56" height="40">
<path d="M7.58861 17.9201L1.17518 39.6635C1.17518 39.6635 -1.30089 51.6785 12.3649 48.5395C26.0306 45.4004 35.9484 43.2761 44.5673 47.4029C53.1862 51.5297 54.6881 55.4265 54.6881 55.4265C54.6881 55.4265 59.5861 43.3302 51.9414 27.7973C44.2967 12.2779 7.58861 17.9201 7.58861 17.9201Z" fill="white"/>
</mask>
<g mask="url(#mask1_369_1441)">
<path d="M12.4732 -0.183655L-4.37219 56.9825" stroke="#010202" stroke-miterlimit="12" stroke-linecap="round" stroke-linejoin="round"/>
<path d="M16.6002 1.02057L-0.245239 58.2002" stroke="#010202" stroke-miterlimit="12" stroke-linecap="round" stroke-linejoin="round"/>
<path d="M20.7135 2.23822L3.86807 59.4043" stroke="#010202" stroke-miterlimit="12" stroke-linecap="round" stroke-linejoin="round"/>
<path d="M24.8265 3.45599L7.98105 60.6221" stroke="#010202" stroke-miterlimit="12" stroke-linecap="round" stroke-linejoin="round"/>
<path d="M28.9533 4.66028L12.1079 61.8399" stroke="#010202" stroke-miterlimit="12" stroke-linecap="round" stroke-linejoin="round"/>
<path d="M33.0666 5.87793L16.2212 63.0441" stroke="#010202" stroke-miterlimit="12" stroke-linecap="round" stroke-linejoin="round"/>
<path d="M37.1935 7.0957L20.3481 64.2618" stroke="#010202" stroke-miterlimit="12" stroke-linecap="round" stroke-linejoin="round"/>
<path d="M41.3068 8.31342L24.4614 65.4795" stroke="#010202" stroke-miterlimit="12" stroke-linecap="round" stroke-linejoin="round"/>
<path d="M45.4201 9.51764L28.5747 66.6838" stroke="#010202" stroke-miterlimit="12" stroke-linecap="round" stroke-linejoin="round"/>
<path d="M49.5466 10.7354L32.7012 67.9015" stroke="#010202" stroke-miterlimit="12" stroke-linecap="round" stroke-linejoin="round"/>
<path d="M53.6599 11.9532L36.8145 69.1193" stroke="#010202" stroke-miterlimit="12" stroke-linecap="round" stroke-linejoin="round"/>
<path d="M57.7868 13.1573L40.9413 70.3235" stroke="#010202" stroke-miterlimit="12" stroke-linecap="round" stroke-linejoin="round"/>
<path d="M61.9001 14.3751L45.0547 71.5412" stroke="#010202" stroke-miterlimit="12" stroke-linecap="round" stroke-linejoin="round"/>
<path d="M66.0134 15.5928L49.168 72.7589" stroke="#010202" stroke-miterlimit="12" stroke-linecap="round" stroke-linejoin="round"/>
</g>
<path d="M7.58861 17.9201L1.17518 39.6635C1.17518 39.6635 -1.30089 51.6785 12.3649 48.5395C26.0306 45.4004 35.9484 43.2761 44.5673 47.4029C53.1862 51.5297 54.6881 55.4265 54.6881 55.4265C54.6881 55.4265 59.5861 43.3302 51.9414 27.7973C44.2967 12.2779 7.58861 17.9201 7.58861 17.9201Z" stroke="#010202" stroke-miterlimit="10"/>
<path d="M184.627 35.9762C184.649 36.4768 184.378 36.9098 183.988 36.9098C168.358 36.9233 152.717 36.9098 137.087 36.9098C112.358 36.9098 87.6294 36.9098 62.8897 36.9098C54.4831 36.9098 14.1175 36.9098 3.80925 36.9098C2.40154 36.9098 1.28156 35.9163 1.24475 34.5091C1.02799 26.2229 1.83498 1 1.40894 1C14.6994 1 113.994 1 123.006 1C142.868 1 162.73 1 182.593 1C183.957 1 184.99 1.94084 184.998 3.30529C185.04 10.4306 184.471 31.533 184.627 35.9762Z" fill="white" stroke="black" stroke-miterlimit="10" stroke-linecap="round" stroke-linejoin="round"/>
</svg>
