<svg width="188" height="188" viewBox="0 0 188 188" fill="none" xmlns="http://www.w3.org/2000/svg">
<path d="M94 187C145.363 187 187 145.362 187 94C187 42.6375 145.363 1 94 1C42.6375 1 1 42.6375 1 94C1 145.362 42.6375 187 94 187Z" fill="#EBEBEB"/>
<path d="M118.909 33.9047C120.544 33.9047 121.869 32.5797 121.869 30.9452C121.869 29.3106 120.544 27.9856 118.909 27.9856C117.275 27.9856 115.95 29.3106 115.95 30.9452C115.95 32.5797 117.275 33.9047 118.909 33.9047Z" fill="#FFF58C" stroke="#181919" stroke-miterlimit="10" stroke-linecap="round" stroke-linejoin="round"/>
<path d="M78.7907 33.9047C80.4253 33.9047 81.7503 32.5797 81.7503 30.9452C81.7503 29.3106 80.4253 27.9856 78.7907 27.9856C77.1562 27.9856 75.8312 29.3106 75.8312 30.9452C75.8312 32.5797 77.1562 33.9047 78.7907 33.9047Z" fill="#FFF58C" stroke="#181919" stroke-miterlimit="10" stroke-linecap="round" stroke-linejoin="round"/>
<path d="M100.063 16.1677L101.912 21.8608C102.077 22.3951 102.57 22.7445 103.125 22.7445H109.106C110.339 22.7445 110.853 24.3271 109.866 25.0464L105.016 28.5609C104.564 28.8897 104.379 29.4652 104.543 29.979L106.393 35.672C106.783 36.8435 105.427 37.83 104.42 37.0901L99.5694 33.5757C99.1172 33.2468 98.5212 33.2468 98.069 33.5757L93.2187 37.0901C92.2116 37.8095 90.8757 36.8435 91.2456 35.672L93.0953 29.979C93.2598 29.4446 93.0748 28.8692 92.6226 28.5609L87.7722 25.0464C86.7652 24.3271 87.279 22.7445 88.5327 22.7445H94.5135C95.0684 22.7445 95.5616 22.3951 95.7261 21.8608L97.5758 16.1677C98.0279 14.9757 99.6927 14.9757 100.063 16.1677Z" fill="#FFF58C" stroke="#181919" stroke-miterlimit="10" stroke-linecap="round" stroke-linejoin="round"/>
<path d="M118.909 33.9047C120.544 33.9047 121.869 32.5797 121.869 30.9452C121.869 29.3106 120.544 27.9856 118.909 27.9856C117.275 27.9856 115.95 29.3106 115.95 30.9452C115.95 32.5797 117.275 33.9047 118.909 33.9047Z" fill="#FFF58C" stroke="#181919" stroke-miterlimit="10" stroke-linecap="round" stroke-linejoin="round"/>
<path d="M78.7907 33.9047C80.4253 33.9047 81.7503 32.5797 81.7503 30.9452C81.7503 29.3106 80.4253 27.9856 78.7907 27.9856C77.1562 27.9856 75.8312 29.3106 75.8312 30.9452C75.8312 32.5797 77.1562 33.9047 78.7907 33.9047Z" fill="#FFF58C" stroke="#181919" stroke-miterlimit="10" stroke-linecap="round" stroke-linejoin="round"/>
<path d="M100.063 16.1677L101.912 21.8608C102.077 22.3951 102.57 22.7445 103.125 22.7445H109.106C110.339 22.7445 110.853 24.3271 109.866 25.0464L105.016 28.5609C104.564 28.8897 104.379 29.4652 104.543 29.979L106.393 35.672C106.783 36.8435 105.427 37.83 104.42 37.0901L99.5694 33.5757C99.1172 33.2468 98.5212 33.2468 98.069 33.5757L93.2187 37.0901C92.2116 37.8095 90.8757 36.8435 91.2456 35.672L93.0953 29.979C93.2598 29.4446 93.0748 28.8692 92.6226 28.5609L87.7722 25.0464C86.7652 24.3271 87.279 22.7445 88.5327 22.7445H94.5135C95.0684 22.7445 95.5616 22.3951 95.7261 21.8608L97.5758 16.1677C98.0279 14.9757 99.6927 14.9757 100.063 16.1677Z" fill="#FFF58C" stroke="#181919" stroke-miterlimit="10" stroke-linecap="round" stroke-linejoin="round"/>
<mask id="mask0_645_3661" style="mask-type:luminance" maskUnits="userSpaceOnUse" x="6" y="43" width="72" height="73">
<path d="M75.5021 115.333C75.2349 114.45 74.4745 113.833 73.7551 113.258C72.6864 112.394 71.6177 111.552 70.549 110.689C69.2953 109.682 68.0416 108.674 66.644 107.873C61.8553 105.078 56.0595 104.811 50.798 103.064C49.0922 102.488 47.4274 101.769 46.0298 100.638C43.2142 98.3982 41.7344 94.8837 40.5834 91.472C39.4325 88.0603 38.446 84.4842 36.2469 81.6274C34.1916 80.1887 32.198 78.7089 29.855 78.1335C25.909 77.1675 21.7163 78.9556 17.7496 78.0718C16.6809 77.8252 15.6327 77.373 14.6256 76.8181C10.063 74.3313 6.50742 69.7069 6.01416 64.5277C7.88444 56.615 11.5839 49.2572 16.722 43.6875C16.2698 48.394 15.7971 53.1622 16.722 57.8071C17.6469 62.4314 20.1337 66.994 24.2853 69.2342C28.6424 71.5978 34.4177 71.3306 37.8294 74.9067C38.6515 75.7699 39.2475 76.777 39.8641 77.8046C41.7138 80.9081 43.5841 84.032 44.8584 87.4026C45.6394 89.4784 46.2148 91.6776 47.3658 93.5684C48.8044 95.9525 51.1474 97.8022 53.922 98.6243C55.0935 100.31 57.3954 100.68 59.4301 100.926C62.5335 101.296 65.6986 101.748 68.4937 103.187C70.6106 104.276 72.3987 105.9 74.0634 107.585C75.2349 108.757 77.7834 111.244 77.9273 112.949C78.0301 113.956 76.3653 113.956 75.5021 115.333Z" fill="white"/>
</mask>
<g mask="url(#mask0_645_3661)">
<path d="M6.17861 1.57544L-20.6218 53.2855" stroke="black" stroke-miterlimit="10"/>
<path d="M10.6176 7.69995L-16.1829 59.41" stroke="black" stroke-miterlimit="10"/>
<path d="M15.0575 13.8452L-11.7429 65.5347" stroke="black" stroke-miterlimit="10"/>
<path d="M19.4965 19.9697L-7.30396 71.6798" stroke="black" stroke-miterlimit="10"/>
<path d="M23.9357 26.0945L-2.86475 77.8045" stroke="black" stroke-miterlimit="10"/>
<path d="M28.3756 32.219L1.5752 83.9291" stroke="black" stroke-miterlimit="10"/>
<path d="M32.8146 38.3643L6.01416 90.0538" stroke="black" stroke-miterlimit="10"/>
<path d="M37.2541 44.489L10.4536 96.1991" stroke="black" stroke-miterlimit="10"/>
<path d="M41.693 50.6135L14.8926 102.324" stroke="black" stroke-miterlimit="10"/>
<path d="M46.1325 56.738L19.3115 108.448" stroke="black" stroke-miterlimit="10"/>
<path d="M50.572 62.8833L23.751 114.573" stroke="black" stroke-miterlimit="10"/>
<path d="M55.0112 69.0081L28.1902 120.718" stroke="black" stroke-miterlimit="10"/>
<path d="M59.4504 75.1328L32.6294 126.843" stroke="black" stroke-miterlimit="10"/>
<path d="M63.8903 81.2778L37.0693 132.967" stroke="black" stroke-miterlimit="10"/>
<path d="M68.3293 87.4026L41.5083 139.113" stroke="black" stroke-miterlimit="10"/>
<path d="M72.7686 93.5271L45.9476 145.237" stroke="black" stroke-miterlimit="10"/>
<path d="M77.2079 99.6516L50.387 151.362" stroke="black" stroke-miterlimit="10"/>
<path d="M81.6475 105.797L54.8265 157.486" stroke="black" stroke-miterlimit="10"/>
<path d="M86.0663 111.922L59.2659 163.632" stroke="black" stroke-miterlimit="10"/>
</g>
<path d="M140.181 94.2057C142.688 92.5409 144.148 89.6841 145.031 86.8273C145.936 83.95 146.367 80.9493 147.415 78.1336C149.841 71.639 155.225 66.727 160.775 62.5548C165.173 59.2459 170.023 55.9369 172.037 50.8194C172.695 49.1341 173.003 47.3254 173.846 45.7429C170.167 37.8096 164.268 31.7672 158.493 25.9098C157.383 24.7794 156.253 23.649 154.958 22.7241C150.128 24.5944 146.203 28.2938 143.428 32.5688C140.654 36.8437 138.907 41.6941 137.242 46.5239C136.79 47.8598 136.317 49.2368 136.358 50.6549C136.399 52.1758 136.995 53.7173 136.564 55.1765C135.557 60.6435 135.947 66.357 138.352 71.228C138.968 72.4611 139.708 73.6737 139.975 75.0096C140.181 76.0167 140.14 77.0649 140.304 78.0925C140.489 79.1818 140.921 80.23 141.085 81.3398C141.537 84.4638 139.708 87.485 137.55 89.8074C136.851 90.5473 136.112 91.2667 135.166 91.6777C132.823 92.7053 130.172 91.4722 127.808 90.4651C123.677 88.7181 119.197 87.5878 114.696 87.7727C110.195 87.9577 105.694 89.5402 102.406 92.6026C100.474 94.4112 99.0349 96.672 97.7812 99.0149C96.3425 101.707 95.1299 104.544 94.2667 107.894C95.0888 107.955 95.952 107.462 96.733 107.75C96.9591 107.832 97.1441 107.976 97.3702 108.037C97.6579 108.14 97.9662 108.099 98.2745 108.099C99.6515 108.058 101.049 108.407 102.426 109.641C103.618 106.352 105.756 103.434 108.53 101.317C109.414 100.639 110.38 100.043 111.428 99.6315C112.949 99.056 114.614 98.9122 116.237 98.7889C121.047 98.4189 125.856 98.1517 130.686 97.9668C132.433 97.9051 134.221 97.8435 135.886 97.268C137.591 96.7336 138.701 95.1922 140.181 94.2057Z" fill="white"/>
<mask id="mask1_645_3661" style="mask-type:luminance" maskUnits="userSpaceOnUse" x="94" y="23" width="80" height="87">
<path d="M140.181 94.4933C142.688 92.8285 144.148 89.9717 145.031 87.1149C145.936 84.2376 146.367 81.2369 147.415 78.4212C149.841 71.9266 155.225 67.0146 160.775 62.8424C165.173 59.5335 170.023 56.2245 172.037 51.107C172.695 49.4217 173.003 47.613 173.846 46.0305C170.167 38.0972 164.268 32.0548 158.493 26.1974C157.383 25.067 156.253 23.9366 154.958 23.0117C150.128 24.882 146.203 28.5814 143.428 32.8564C140.654 37.1313 138.907 41.9817 137.242 46.8115C136.79 48.1474 136.317 49.5244 136.358 50.9425C136.399 52.4634 136.995 54.0049 136.564 55.4641C135.557 60.9311 135.947 66.6446 138.352 71.5156C138.968 72.7487 139.708 73.9613 139.975 75.2972C140.181 76.3043 140.14 77.3525 140.304 78.3801C140.489 79.4694 140.921 80.5176 141.085 81.6274C141.537 84.7514 139.708 87.7726 137.55 90.095C136.851 90.8349 136.112 91.5543 135.166 91.9653C132.823 92.9929 130.172 91.7598 127.808 90.7527C123.677 89.0057 119.197 87.8754 114.696 88.0603C110.195 88.2453 105.694 89.8278 102.406 92.8902C100.474 94.6988 99.0349 96.9596 97.7812 99.3025C96.3425 101.995 95.1299 104.831 94.2667 108.181C95.0888 108.243 95.952 107.75 96.733 108.037C96.9591 108.12 97.1441 108.263 97.3702 108.325C97.6579 108.428 97.9662 108.387 98.2745 108.387C99.6515 108.346 101.049 108.695 102.426 109.928C103.618 106.64 105.756 103.721 108.53 101.604C109.414 100.926 110.38 100.33 111.428 99.9191C112.949 99.3436 114.614 99.1998 116.237 99.0765C121.047 98.7065 125.856 98.4393 130.686 98.2544C132.433 98.1927 134.221 98.1311 135.886 97.5556C137.591 97.0212 138.701 95.4798 140.181 94.4933Z" fill="white"/>
</mask>
<g mask="url(#mask1_645_3661)">
<path d="M172.716 0.342041L199.516 52.0521" stroke="black" stroke-miterlimit="10"/>
<path d="M168.236 5.4187L195.057 57.1288" stroke="black" stroke-miterlimit="10"/>
<path d="M163.755 10.4951L190.576 62.1846" stroke="black" stroke-miterlimit="10"/>
<path d="M159.295 15.5715L186.095 67.261" stroke="black" stroke-miterlimit="10"/>
<path d="M154.815 20.6274L181.636 72.3375" stroke="black" stroke-miterlimit="10"/>
<path d="M150.354 25.7041L177.155 77.4142" stroke="black" stroke-miterlimit="10"/>
<path d="M145.874 30.7805L172.674 82.4906" stroke="black" stroke-miterlimit="10"/>
<path d="M141.394 35.8569L168.215 87.567" stroke="black" stroke-miterlimit="10"/>
<path d="M136.934 40.9333L163.734 92.6434" stroke="black" stroke-miterlimit="10"/>
<path d="M132.453 46.0095L159.274 97.699" stroke="black" stroke-miterlimit="10"/>
<path d="M127.973 51.0864L154.794 102.776" stroke="black" stroke-miterlimit="10"/>
<path d="M123.513 56.1421L150.314 107.852" stroke="black" stroke-miterlimit="10"/>
<path d="M119.032 61.2185L145.853 112.929" stroke="black" stroke-miterlimit="10"/>
<path d="M114.573 66.2952L141.373 118.005" stroke="black" stroke-miterlimit="10"/>
<path d="M110.092 71.3716L136.892 123.082" stroke="black" stroke-miterlimit="10"/>
<path d="M105.611 76.448L132.432 128.158" stroke="black" stroke-miterlimit="10"/>
<path d="M101.152 81.5244L127.952 133.214" stroke="black" stroke-miterlimit="10"/>
<path d="M96.6713 86.5803L123.472 138.29" stroke="black" stroke-miterlimit="10"/>
<path d="M92.1912 91.657L119.012 143.367" stroke="black" stroke-miterlimit="10"/>
<path d="M87.7307 96.7334L114.531 148.443" stroke="black" stroke-miterlimit="10"/>
<path d="M83.2506 101.81L110.072 153.52" stroke="black" stroke-miterlimit="10"/>
</g>
<path d="M84.7711 109.702C86.2303 109.353 87.6895 108.983 89.0049 108.613C87.8745 105.345 86.7852 102.015 86.5386 98.5831C86.2919 95.1303 87.0113 91.5131 89.1487 88.8001C92.2316 84.9157 97.4725 83.6826 101.871 81.3807C105.755 79.346 109.126 76.3248 111.551 72.687C113.236 70.159 114.531 67.1378 114.038 64.1372C113.75 62.3902 112.887 60.7871 112.003 59.2457C109.763 55.2996 107.05 51.1274 102.631 49.9559C95.4995 46.277 87.0113 46.6881 79.0369 47.613C75.5635 48.024 72.1107 48.4967 68.7607 49.4627C60.1697 51.9495 52.7914 57.4165 45.6391 62.7601C45.1253 63.1506 44.5909 63.5617 44.3238 64.1577C44.0977 64.6715 44.1182 65.2675 44.1593 65.843C44.5704 70.5084 46.749 74.7833 48.907 78.9555C50.1196 81.2985 51.3527 83.662 53.223 85.5117C55.2782 87.5464 57.9706 88.8207 60.6835 89.8278C63.7459 90.9376 66.9109 91.7391 70.1171 92.2324C71.823 92.479 73.5905 92.664 75.0703 93.5478C76.3857 94.3493 77.3311 95.6236 78.2148 96.8773C80.7428 100.453 84.0106 110.051 84.0106 110.051L84.7711 109.702Z" fill="#5A66FF"/>
<path d="M140.345 76.0781C139.585 76.1808 138.804 76.2425 138.002 76.2425C128.404 76.2425 120.635 68.4737 120.635 58.8756C120.635 49.2776 128.404 41.5088 138.002 41.5088C138.352 41.5088 138.393 41.591 138.763 41.6115" stroke="black" stroke-miterlimit="10" stroke-linecap="round" stroke-linejoin="round"/>
<path d="M155.205 23.8544C146.203 27.5744 139.195 35.8365 137.016 45.3318C134.283 57.2728 138.825 69.4809 141.825 81.3603C141.764 84.5048 140.715 87.6082 138.64 89.7251C136.543 91.842 133.46 92.9108 130.501 92.5819C126.699 92.1298 123.493 89.5607 119.773 88.677C116.751 87.9576 113.566 88.4303 110.524 89.1086C108.119 89.6635 105.715 90.3623 103.618 91.6776C98.1307 95.1099 95.87 102.077 95.7466 108.551C93.5475 107.996 91.7184 108.243 90.0947 108.962C87.6695 107.38 87.1557 104.626 86.8474 102.139C86.2925 98.0283 85.8403 93.5068 88.0806 90.0334C89.807 87.3616 92.7871 85.8202 95.6233 84.402C98.9939 82.7167 102.365 81.0314 105.735 79.3667C108.016 78.2363 110.359 77.0237 111.921 75.0096C113.607 72.8104 114.1 69.9331 114.1 67.1585C114.1 63.5824 113.319 59.9446 111.449 56.9028C109.188 53.2239 105.468 50.5726 101.419 49.0723C97.3703 47.572 92.9926 47.1404 88.6766 47.1404C72.0291 47.1815 55.4843 53.9844 43.6255 65.6582C41.4881 55.012 41.7553 45.5373 42.0635 36.2887C42.2896 28.9925 42.5774 21.5114 44.8381 14.8935C69.1312 -0.294757 100.72 -3.17211 127.603 7.04248C137.694 11.4407 147.231 17.1749 155.205 23.8544Z" fill="#B180E0"/>
<path d="M182.252 66.2542C182.293 61.3832 178.819 57.2727 176.99 52.7512C176.004 50.3054 175.469 47.6131 173.805 45.5784C172.962 50.2643 170.804 55.4025 167.331 58.5059C163.857 61.6093 159.808 63.9934 156.13 66.8502C152.451 69.707 149.018 73.1598 147.436 77.5375C146.018 81.4836 146.162 85.9434 144.271 89.684C142.503 93.1779 139.091 95.6237 135.433 96.9596C131.754 98.2955 127.808 98.6654 123.903 98.8299C119.752 99.0148 115.518 99.0354 111.633 100.454C107.728 101.872 104.173 105.037 103.125 109.127C106.557 110.874 109.784 113.032 112.723 115.498C115.723 112.23 119.669 108.037 123.821 106.455C126.061 105.592 130.048 104.708 130.048 104.708C130.048 104.708 135.187 104.03 137.776 103.249C139.914 102.591 141.661 101.604 143.305 100.063C147.703 95.9936 147.271 89.4168 150.58 84.4226C152.266 81.8535 154.999 80.1065 157.918 79.12C160.836 78.1335 163.919 77.8458 166.981 77.6813C168.482 77.5991 169.982 77.558 171.421 77.1881C176.661 75.9344 182.211 71.4745 182.252 66.2542Z" fill="#FF88B6"/>
<path d="M42.6803 17.5244C33.1028 22.1898 25.6628 30.3491 19.4354 39.0017C18.3667 40.4815 17.3185 42.023 16.8252 43.7905C16.3525 45.4758 16.4347 47.2638 16.5375 49.0314C16.7019 51.9498 16.8869 54.8477 17.113 57.7662C17.2157 59.2048 17.3596 60.7052 17.9762 62C18.5928 63.2948 19.6409 64.3224 20.6891 65.2884C22.806 67.2409 25.0668 69.1111 27.6359 70.4265C30.1227 71.7008 32.8356 72.4406 35.3225 73.6943C37.8093 74.948 40.1729 76.8594 40.5839 79.5107C44.8794 83.7856 44.2217 91.2667 48.25 95.7883C50.6135 98.4601 54.2513 99.6316 57.7452 100.31C61.2597 100.988 64.877 101.296 68.1654 102.694C72.9335 104.749 76.6124 109.188 77.7634 114.553C78.3183 113.237 79.4692 112.271 80.7024 111.573C81.9355 110.874 83.292 110.422 84.5457 109.517C81.4423 104.503 80.6202 97.823 75.8931 94.3085C71.947 91.3489 66.5417 91.5956 61.7735 90.3213C56.101 88.8004 51.0862 84.8749 47.6129 79.7573C46.6058 77.6199 45.722 75.4208 44.7561 72.9956C44.0162 63.973 41.406 55.1149 41.4471 46.0512C41.4677 42.6806 41.8582 39.31 42.2487 35.9394C43.0502 29.0954 43.8518 22.2104 45.4549 15.5103C44.4478 16.3324 43.4407 17.1339 42.6803 17.5244Z" fill="#56B381"/>
<path d="M6.42533 63.7056C6.30202 70.6112 11.9129 77.1674 18.7774 78.0923C22.2919 78.565 25.9091 77.7224 29.403 78.38C32.4037 78.9555 35.1783 80.7025 37.0074 83.1482C40.8096 88.2452 40.4603 95.8702 45.0846 100.248C49.38 104.317 56.0596 103.886 61.7732 105.448C67.4046 106.969 72.3988 110.709 75.4611 115.662" stroke="black" stroke-miterlimit="10" stroke-linecap="round" stroke-linejoin="round"/>
<path d="M182.129 63.7056C182.252 70.6112 176.641 77.1674 169.777 78.0923C166.262 78.565 162.645 77.7224 159.151 78.38C156.15 78.9555 153.376 80.7025 151.547 83.1482C147.744 88.2452 148.094 95.8702 143.469 100.248C139.174 104.317 132.494 103.886 126.781 105.448C121.149 106.969 116.155 110.709 113.093 115.662" stroke="black" stroke-miterlimit="10" stroke-linecap="round" stroke-linejoin="round"/>
<path d="M95.1091 107.112C95.438 101.029 98.7675 95.1714 103.803 91.7597C108.838 88.348 115.497 87.4231 121.272 89.3551C126.02 90.9376 130.809 94.3699 135.536 92.7668C139.811 91.3281 141.825 86.2106 141.537 81.7301C141.249 77.2291 139.256 73.0364 137.961 68.7204C134.837 58.3208 135.844 46.7498 140.695 37.0285C143.613 31.171 148.34 25.704 154.711 24.1626" stroke="black" stroke-miterlimit="10" stroke-linecap="round" stroke-linejoin="round"/>
<path d="M172.756 44.2629C174.442 57.6221 161.843 61.1571 150.56 72.4404C145.75 77.4346 147.333 84.5253 143.839 90.5266C135.145 106.578 111.572 91.0815 103.125 107.935" stroke="black" stroke-miterlimit="10" stroke-linecap="round" stroke-linejoin="round"/>
<path d="M45.2079 15.2019C41.303 31.0273 40.7275 47.6543 43.5226 63.7263C44.5297 69.5221 46.0095 75.3385 49.1129 80.3327C52.2163 85.327 57.1078 89.458 62.8831 90.4857C65.0411 90.8762 67.2608 90.8145 69.3982 91.3078C73.3032 92.2121 76.6121 94.9044 78.9551 98.1312C81.2981 101.358 82.7573 105.16 83.9905 108.962" stroke="black" stroke-miterlimit="10" stroke-linecap="round" stroke-linejoin="round"/>
<path d="M17.1125 42.8037C16.4548 47.5308 15.7766 52.3401 16.4959 57.0671C17.2152 61.7942 19.5582 66.4802 23.6482 68.9465C26.6694 70.7551 30.3072 71.1867 33.5545 72.6048C38.1582 74.619 41.796 78.75 43.2347 83.5798C43.8924 85.7995 44.0979 88.1219 44.8378 90.3211C46.1943 94.3904 49.421 97.7816 53.4082 99.3642C56.9432 100.762 60.8687 100.762 64.5476 101.748C70.364 103.31 75.3993 107.523 77.9684 112.949" stroke="black" stroke-miterlimit="10" stroke-linecap="round" stroke-linejoin="round"/>
<path d="M44.4269 64.6306C55.4019 53.5939 70.7546 47.0171 86.3334 46.6678C93.794 46.5033 101.666 47.9009 107.4 52.6896C113.134 57.4578 115.908 66.2954 112.106 72.7283C106.598 82.018 91.1016 82.1824 87.0733 92.1915C84.9769 97.4324 86.9705 103.31 88.9847 108.592" stroke="black" stroke-miterlimit="10" stroke-linecap="round" stroke-linejoin="round"/>
<path d="M115.539 34.2951C117.173 34.2951 118.498 32.9701 118.498 31.3355C118.498 29.701 117.173 28.376 115.539 28.376C113.904 28.376 112.579 29.701 112.579 31.3355C112.579 32.9701 113.904 34.2951 115.539 34.2951Z" fill="#FFF58C" stroke="#181919" stroke-miterlimit="10" stroke-linecap="round" stroke-linejoin="round"/>
<path d="M75.4203 34.2951C77.0548 34.2951 78.3798 32.9701 78.3798 31.3355C78.3798 29.701 77.0548 28.376 75.4203 28.376C73.7857 28.376 72.4607 29.701 72.4607 31.3355C72.4607 32.9701 73.7857 34.2951 75.4203 34.2951Z" fill="#FFF58C" stroke="#181919" stroke-miterlimit="10" stroke-linecap="round" stroke-linejoin="round"/>
<path d="M96.6921 16.5377L98.5419 22.2307C98.7063 22.7651 99.1995 23.1145 99.7544 23.1145H105.735C106.968 23.1145 107.482 24.697 106.496 25.4164L101.645 28.9308C101.193 29.2597 101.008 29.8351 101.173 30.349L103.022 36.042C103.413 37.2135 102.056 38.2 101.049 37.4601L96.1989 33.9456C95.7467 33.6168 95.1507 33.6168 94.6985 33.9456L89.8481 37.4601C88.8411 38.1795 87.5052 37.2135 87.8751 36.042L89.7248 30.349C89.8893 29.8146 89.7043 29.2391 89.2521 28.9308L84.4634 25.4369C83.4563 24.7176 83.9701 23.135 85.2238 23.135H91.2046C91.7595 23.135 92.2528 22.7856 92.4172 22.2513L94.2669 16.5582C94.6574 15.3662 96.3222 15.3662 96.6921 16.5377Z" fill="#FFF58C" stroke="#181919" stroke-miterlimit="10" stroke-linecap="round" stroke-linejoin="round"/>
<mask id="mask2_645_3661" style="mask-type:luminance" maskUnits="userSpaceOnUse" x="1" y="1" width="187" height="186">
<path d="M94.3694 187C145.732 187 187.369 145.362 187.369 94C187.369 42.6375 145.732 1 94.3694 1C43.0069 1 1.36938 42.6375 1.36938 94C1.36938 145.362 43.0069 187 94.3694 187Z" fill="white"/>
</mask>
<g mask="url(#mask2_645_3661)">
<path d="M141.188 166.078C131.878 159.645 114.079 155.288 93.6499 155.288C73.2207 155.288 55.4223 159.645 46.112 166.078H39.1858V176.354C39.1858 187.987 63.561 197.42 93.6499 197.42C123.739 197.42 148.114 187.987 148.114 176.354V166.078H141.188Z" fill="#5A66FF" stroke="black" stroke-miterlimit="10" stroke-linecap="round" stroke-linejoin="round"/>
<path d="M93.6499 187.144C123.73 187.144 148.114 177.712 148.114 166.078C148.114 154.443 123.73 145.011 93.6499 145.011C63.5702 145.011 39.1858 154.443 39.1858 166.078C39.1858 177.712 63.5702 187.144 93.6499 187.144Z" fill="white" stroke="black" stroke-miterlimit="10" stroke-linecap="round" stroke-linejoin="round"/>
<path d="M141.188 155.801C131.878 149.368 114.079 145.011 93.6499 145.011C73.2207 145.011 55.4223 149.368 46.112 155.801H39.1858V166.078C39.1858 177.71 63.561 187.144 93.6499 187.144C123.739 187.144 148.114 177.71 148.114 166.078V155.801H141.188Z" fill="#5A66FF" stroke="black" stroke-miterlimit="10" stroke-linecap="round" stroke-linejoin="round"/>
<path d="M93.6499 176.867C123.73 176.867 148.114 167.436 148.114 155.801C148.114 144.167 123.73 134.735 93.6499 134.735C63.5702 134.735 39.1858 144.167 39.1858 155.801C39.1858 167.436 63.5702 176.867 93.6499 176.867Z" fill="white" stroke="black" stroke-miterlimit="10" stroke-linecap="round" stroke-linejoin="round"/>
<path d="M141.188 145.525C131.878 139.092 114.079 134.735 93.6499 134.735C73.2207 134.735 55.4223 139.092 46.112 145.525H39.1858V155.801C39.1858 167.434 63.561 176.868 93.6499 176.868C123.739 176.868 148.114 167.434 148.114 155.801V145.525H141.188Z" fill="#5A66FF" stroke="black" stroke-miterlimit="10" stroke-linecap="round" stroke-linejoin="round"/>
<path d="M93.6499 166.591C123.73 166.591 148.114 157.16 148.114 145.525C148.114 133.89 123.73 124.459 93.6499 124.459C63.5702 124.459 39.1858 133.89 39.1858 145.525C39.1858 157.16 63.5702 166.591 93.6499 166.591Z" fill="white" stroke="black" stroke-miterlimit="10" stroke-linecap="round" stroke-linejoin="round"/>
</g>
<path d="M94.3694 187C145.732 187 187.369 145.362 187.369 94C187.369 42.6375 145.732 1 94.3694 1C43.0069 1 1.36938 42.6375 1.36938 94C1.36938 145.362 43.0069 187 94.3694 187Z" stroke="#181919" stroke-miterlimit="10"/>
<path fill-rule="evenodd" clip-rule="evenodd" d="M129.926 115.272C130.912 111.881 131.755 108.325 131.96 104.831C132.125 101.789 131.2 99.056 131.118 96.0964C131.056 92.3353 132.207 90.6705 130.337 87.2383C129.617 85.9229 129.35 84.1554 128.549 82.9223C127.644 81.5658 125.98 81.0314 124.767 80.0655C122.979 78.6473 121.746 76.6538 120.019 75.174C118.334 73.7353 116.217 73.3859 114.429 72.1528C113.114 71.2484 112.805 69.6042 111.798 68.4328C110.668 67.1379 108.962 66.5214 107.544 65.6171C100.104 60.9517 89.2522 65.8637 81.915 69.2343C78.5855 70.7552 75.441 71.9472 72.9952 74.9068C70.9194 77.4347 67.6105 80.2093 66.2746 83.1894C64.3221 87.6082 66.6034 92.6641 63.4383 96.713C62.2257 96.8157 61.3625 99.6109 61.2392 100.947C61.0542 102.858 61.9997 104.441 62.3285 106.229C62.8218 108.88 62.0202 111.634 62.6162 114.388C63.2534 117.327 64.466 120.163 65.9457 122.691C67.3433 125.117 68.7203 127.603 70.0973 130.049C71.4538 132.433 72.132 135.352 74.2078 137.181C80.9285 143.141 94.041 151.67 102.981 145.052C104.913 143.634 107.441 142.751 109.496 141.168C113.566 138.023 117.923 133.728 120.821 129.391C122.383 127.048 123.678 124.521 125.384 122.28C127.007 120.143 129.021 118.375 129.823 115.703C129.843 115.58 129.885 115.436 129.926 115.272Z" fill="#FFD54C" stroke="black" stroke-miterlimit="10"/>
<path d="M85.2853 91.3282C85.347 91.6365 85.5319 91.9036 85.7375 92.0475C85.9635 92.3147 86.2102 92.4997 86.5185 92.623C87.0528 92.8285 87.5666 92.7874 88.0394 92.5408C89.0875 91.9858 89.663 90.5266 89.8685 89.91C90.1152 89.1702 90.3618 88.307 90.259 87.4643C90.3207 87.0327 90.3207 86.6422 90.2796 86.2312C90.2796 86.0667 90.259 85.9434 90.2385 85.8407C90.2796 85.4296 90.1974 85.0391 89.9713 84.6486C89.9096 84.3609 89.7863 84.0937 89.5602 83.8265L89.478 83.7237C89.1286 83.2716 88.7587 82.8194 88.2243 82.6139C87.916 82.4906 87.5872 82.47 87.2172 82.5523C85.3059 82.9428 85.1209 85.1008 85.0181 86.1284C84.8743 88.2658 84.9359 89.8689 85.2853 91.3282Z" fill="black"/>
<path d="M101.42 86.0254C98.9738 86.087 96.6925 87.3613 94.5139 88.6561C95.1921 90.0537 96.0759 91.3279 97.2268 92.2939C98.3778 93.2599 99.7754 93.9381 101.276 94.082" stroke="black" stroke-miterlimit="10" stroke-linecap="round" stroke-linejoin="round"/>
<path d="M94.5139 88.6357C96.9802 89.4373 99.5698 89.8278 102.18 89.7867" stroke="black" stroke-miterlimit="10" stroke-linecap="round" stroke-linejoin="round"/>
<path d="M105.386 95.9523C106.825 97.0005 107.441 99.0557 106.989 100.905C106.866 101.44 106.66 101.954 106.331 102.406C106.003 102.858 105.592 103.207 105.16 103.557C100.7 107.03 94.7809 108.263 89.5812 106.825C87.156 106.146 84.8541 104.893 83.1482 102.981C81.4424 101.07 80.3531 98.5008 80.3942 95.829C80.4147 94.452 80.7436 93.0339 81.5862 91.9446" stroke="black" stroke-miterlimit="10" stroke-linecap="round" stroke-linejoin="round"/>
<path d="M133.397 81.9425C133.122 80.3422 134.13 78.8969 134.918 77.4977C136.421 74.8696 137.224 71.9157 138.013 68.9959C138.679 66.5091 139.327 63.71 137.881 61.3952C137.349 60.5344 136.591 59.838 136 59.012C135.408 58.186 135.022 57.1452 135.401 56.2769C135.565 55.9024 135.859 55.5847 136.108 55.2678C139.106 51.5491 138.493 46.2123 137.854 41.3914C137.746 40.5738 137.78 39.5341 138.591 39.3003C138.87 39.2194 139.16 39.2651 139.431 39.3026C141.781 39.7008 144.413 40.5672 146.347 39.3846C146.805 39.0978 147.225 38.6934 147.797 38.7003C148.281 38.7088 148.727 39.0051 149.102 39.3111C152.564 41.9794 156.107 45.3726 160.424 45.3733C161.48 45.5914 162.157 45.2586 162.116 44.6933C162.105 44.4654 161.952 44.2569 161.818 44.0565C161.287 43.297 160.755 42.5375 160.224 41.7781C159.019 40.0757 157.804 38.3483 156.261 36.863C154.446 35.1376 152.167 33.7159 151.074 31.5554C151.283 28.7471 149.29 25.9097 146.729 24.1212C144.167 22.3328 141.126 21.389 138.133 20.4867C136.526 20.0079 134.82 19.5054 133.228 19.8035C130.767 20.2689 129.205 22.425 126.929 23.3771C124.523 24.3737 121.466 23.9709 119.339 25.3934C118.216 26.1396 117.506 27.3093 116.695 28.3541C114.981 30.5044 112.668 32.1499 110.388 33.7694C108.945 34.2339 107.086 35.7531 106.022 37.4782C104.958 39.2032 104.456 41.2141 103.374 42.931C102.064 45.0151 100.008 46.5293 97.9441 47.9593C96.8917 48.6957 95.7946 49.4329 95.1475 50.5086C94.876 50.978 94.6714 51.4969 94.3813 51.9581C93.3473 53.5137 91.1832 54.0076 89.8332 55.3237C88.4683 56.6738 88.1333 58.8592 88.1107 60.735C83.3034 57.8031 77.6443 56.1616 72.078 56.0814C71.4607 56.0753 70.7765 56.121 70.4121 56.5498C69.9844 57.0725 70.2408 57.8537 70.5717 58.4646C71.5084 60.1716 72.9992 61.5733 74.5273 62.8898C78.7991 66.5407 83.532 69.6429 88.4212 72.4889C106.658 83.0935 127.056 90.0194 147.815 93.0277C148.276 93.0873 148.781 93.146 149.124 92.8697C149.823 92.2831 148.938 91.1665 148.131 90.6315C143.235 87.2956 138.048 84.3196 133.397 81.9425Z" fill="#5A66FF"/>
<path d="M133.397 81.9425C133.122 80.3422 134.13 78.8969 134.918 77.4977C136.421 74.8696 137.224 71.9157 138.013 68.9959C138.679 66.5091 139.327 63.71 137.881 61.3952C137.349 60.5344 136.591 59.838 136 59.012C135.408 58.186 135.022 57.1452 135.401 56.2769C135.565 55.9024 135.859 55.5847 136.108 55.2678C139.106 51.5491 138.493 46.2123 137.854 41.3914C137.746 40.5738 137.78 39.5341 138.591 39.3003C138.87 39.2194 139.16 39.2651 139.431 39.3026C141.781 39.7008 144.413 40.5672 146.347 39.3846C146.805 39.0978 147.225 38.6934 147.797 38.7003C148.281 38.7088 148.727 39.0051 149.102 39.3111C152.564 41.9794 156.107 45.3726 160.424 45.3733C161.48 45.5914 162.157 45.2586 162.116 44.6933C162.105 44.4654 161.952 44.2569 161.818 44.0565C161.287 43.297 160.755 42.5375 160.224 41.7781C159.019 40.0757 157.804 38.3483 156.261 36.863C154.446 35.1376 152.167 33.7159 151.074 31.5554C151.283 28.7471 149.29 25.9097 146.729 24.1212C144.167 22.3328 141.126 21.389 138.133 20.4867C136.526 20.0079 134.82 19.5054 133.228 19.8035C130.767 20.2689 129.205 22.425 126.929 23.3771C124.523 24.3737 121.466 23.9709 119.339 25.3934C118.216 26.1396 117.506 27.3093 116.695 28.3541C114.981 30.5044 112.668 32.1499 110.388 33.7694C108.945 34.2339 107.086 35.7531 106.022 37.4782C104.958 39.2032 104.456 41.2141 103.374 42.931C102.064 45.0151 100.008 46.5293 97.9441 47.9593C96.8917 48.6957 95.7946 49.4329 95.1475 50.5086C94.876 50.978 94.6714 51.4969 94.3813 51.9581C93.3473 53.5137 91.1832 54.0076 89.8332 55.3237C88.4683 56.6738 88.1333 58.8592 88.1107 60.735C83.3034 57.8031 77.6443 56.1616 72.078 56.0814C71.4607 56.0753 70.7765 56.121 70.4121 56.5498C69.9844 57.0725 70.2408 57.8537 70.5717 58.4646C71.5084 60.1716 72.9992 61.5733 74.5273 62.8898C78.7991 66.5407 83.532 69.6429 88.4212 72.4889C106.658 83.0935 127.056 90.0194 147.815 93.0277C148.276 93.0873 148.781 93.146 149.124 92.8697C149.823 92.2831 148.938 91.1665 148.131 90.6315C143.235 87.2956 138.048 84.3196 133.397 81.9425Z" fill="#A37D65" stroke="#120000" stroke-miterlimit="10" stroke-linecap="round" stroke-linejoin="round"/>
<path d="M138.468 39.2266C136.553 36.7679 134.572 34.2597 131.832 32.9812C131.43 32.7855 130.988 32.6327 130.515 32.6494C130.062 32.6742 129.549 32.9366 129.303 33.3971C129.058 33.8575 129.117 34.4309 129.359 34.8407C129.6 35.2504 129.998 35.5053 130.433 35.6751" stroke="#120000" stroke-miterlimit="10" stroke-linecap="round" stroke-linejoin="round"/>
<path d="M109.186 39.3068C111.825 42.3864 114.439 45.4749 117.079 48.5545C118.194 49.8529 119.387 51.2259 121.019 51.7972C122.072 52.1759 123.224 52.1727 124.306 52.0778C127.854 51.7624 131.227 50.3772 133.804 48.178C134.321 47.7551 134.823 47.2648 135.473 47.0422C136.124 46.8197 136.994 46.9566 137.411 47.5237C137.425 47.7938 137.429 48.0387 137.444 48.3088" stroke="#120000" stroke-miterlimit="10" stroke-linecap="round" stroke-linejoin="round"/>
<path d="M111.83 37.3598C114.812 41.0755 117.804 44.8163 120.786 48.5319C121.087 48.9068 121.407 49.2898 121.864 49.5099C122.236 49.6724 122.649 49.6905 123.05 49.6835C126.222 49.6704 129.312 48.6281 131.688 46.7872C133.22 45.6116 134.559 44.0676 136.526 43.67" stroke="#120000" stroke-miterlimit="10" stroke-linecap="round" stroke-linejoin="round"/>
<path d="M132.312 50.3243C133.275 50.299 134.272 50.3492 135.239 50.4675C136.358 52.2135 136.353 54.503 135.227 56.1193C134.066 57.7615 131.913 58.6861 131.128 60.533" stroke="#120000" stroke-miterlimit="10" stroke-linecap="round" stroke-linejoin="round"/>
<path d="M110.877 41.668C110.126 41.36 109.304 41.0618 108.565 41.2859C108.234 41.3846 107.955 41.5669 107.694 41.7573C106.508 42.5975 105.433 43.5877 104.522 44.7103" stroke="#120000" stroke-miterlimit="10" stroke-linecap="round" stroke-linejoin="round"/>
<path d="M97.4636 51.7438C103.405 52.13 109.366 52.5244 115.308 52.9106C116.62 52.9975 117.951 53.0926 119.152 53.6376C121.573 54.7358 122.774 57.3083 124.35 59.3758C127.067 62.9356 131.455 65.3596 135.961 65.7878" stroke="#120000" stroke-miterlimit="10" stroke-linecap="round" stroke-linejoin="round"/>
<path d="M98.1854 50.1937C102.882 50.0357 107.6 50.1307 112.304 50.4625C115.873 50.7043 119.755 51.2448 122.44 53.614C124.562 55.4946 125.592 58.256 127.748 60.1106C129.748 61.8159 132.626 62.526 135.11 61.9082" stroke="#120000" stroke-miterlimit="10" stroke-linecap="round" stroke-linejoin="round"/>
<path d="M135.521 73.6856C134.435 73.9411 133.323 74.1041 132.193 74.1576C131.669 74.1921 131.122 74.1763 130.624 73.9991C129.59 73.6286 128.981 72.5917 128.114 71.8888C126.702 70.7645 124.779 70.6545 122.983 70.4577C116.908 69.7697 110.97 67.2968 106.189 63.4436C104.486 62.071 102.854 60.4859 100.794 59.7278C98.1058 58.7357 95.1794 59.3021 92.3423 59.1573C92.3572 58.6164 92.3796 58.0584 92.402 57.7032C94.0308 56.8131 96.0944 57.1066 97.9647 57.4372C99.7606 57.7353 101.549 58.0504 103.271 58.6202C108.093 60.2002 112.064 63.6789 116.67 65.8541C121.686 68.2079 127.516 69.0523 135.521 73.6856Z" stroke="#120000" stroke-miterlimit="10" stroke-linecap="round" stroke-linejoin="round"/>
<path d="M92.1822 61.6018C93.6101 61.2727 95.0826 60.9429 96.5662 61.1451C98.0126 61.331 99.3845 61.9913 100.545 62.8834C101.712 63.7585 102.701 64.8395 103.612 65.9471" stroke="#120000" stroke-miterlimit="10" stroke-linecap="round" stroke-linejoin="round"/>
<path d="M117.833 74.8984C121.852 74.8705 125.894 75.2984 129.857 76.1584Z" fill="#5A66FF"/>
<path d="M117.833 74.8984C121.852 74.8705 125.894 75.2984 129.857 76.1584" stroke="#120000" stroke-miterlimit="10" stroke-linecap="round" stroke-linejoin="round"/>
</svg>
