<svg width="36" height="25" viewBox="0 0 36 25" fill="none" xmlns="http://www.w3.org/2000/svg">
<path d="M11.4829 10.0488L11.4563 10.046C13.8839 10.2543 17.1613 9.13415 19.3266 7.96838C22.2906 6.36239 24.3478 4.93809 27.0265 2.8354C27.437 2.50647 28.0629 2.5708 28.4127 2.96415C29.1481 3.79576 29.6198 4.31161 30.2584 5.03705C30.6083 5.4304 30.5559 6.07107 30.1319 6.39864C24.4508 10.612 16.3817 13.3152 9.52137 12.8987C8.94526 12.7433 8.39992 12.2886 8.34159 11.6778C8.29452 11.2193 8.51656 10.761 8.8697 10.4674C9.22283 10.1738 9.66851 10.0272 10.103 9.98939C10.5375 9.95158 11.0049 9.98588 11.4829 10.0488Z" fill="#56B381" stroke="#181919" stroke-linecap="round" stroke-linejoin="round"/>
<path d="M12.0567 11.7984C16.0681 11.5234 19.799 10.5735 23.2929 9.31067C26.4799 8.15372 29.1895 6.53531 32.0638 4.75514C32.5234 4.47249 33.0995 4.62793 33.3463 5.10691C33.8161 6.03493 34.4836 7.39565 34.9254 8.33454C35.147 8.79718 34.9789 9.38473 34.5473 9.65651C31.8853 11.3348 27.2176 12.8894 24.8693 13.349C18.0164 14.6928 11.9788 13.866 11.9788 13.866C11.9788 13.866 11.8342 13.1776 12.0728 11.7725L12.0567 11.7984Z" fill="#FF88B6" stroke="#181919" stroke-linecap="round" stroke-linejoin="round"/>
<path d="M9.7978 13.8755C9.81385 13.5884 10.0121 13.3614 10.2931 13.3765C17.3273 13.6735 25.04 12.2119 31.6817 9.9118C32.5464 9.6158 32.6621 9.66892 32.9496 10.2758C33.439 11.2746 33.6866 12.1385 33.874 13.3262C33.9372 13.7588 33.6899 14.2007 33.287 14.3243C26.0538 16.6186 17.209 17.1802 9.9958 15.3529C9.747 15.2861 9.58575 15.0221 9.64034 14.7528C9.71524 14.4168 9.79507 14.1638 9.8006 13.8483L9.7978 13.8755Z" fill="#B180E0" stroke="#181919" stroke-linecap="round" stroke-linejoin="round"/>
<path opacity="0.98" d="M7.37152 5.92841L9.92315 8.59621C10.1468 8.90786 10.5512 9.0319 10.9142 8.90427L14.7411 8.19797C15.5512 7.9101 16.2354 8.84642 15.7457 9.55211L14.0269 13.183C13.8055 13.5039 13.8154 13.9311 14.039 14.2427L15.8662 17.4134C16.373 18.1115 15.7236 19.062 14.9015 18.8125L11.0925 18.2973C10.7266 18.1909 10.3356 18.3294 10.1142 18.6503L7.61092 21.4033C7.11984 22.1226 6.02508 21.7764 6.00664 20.9085L5.24106 16.9673C5.24026 16.5823 4.97947 16.2393 4.61502 16.1194L1.3769 14.6319C0.5681 14.3838 0.540471 13.2126 1.35053 12.9247L4.61656 11.1298C4.97954 11.0022 5.21703 10.6554 5.21623 10.2705L5.78222 6.46608C5.76378 5.5982 6.85274 5.21528 7.361 5.89983L7.37152 5.92841Z" fill="#FFF58C" stroke="#181919" stroke-linecap="round" stroke-linejoin="round"/>
</svg>
