<svg width="485" height="778" viewBox="0 0 485 778" fill="none" xmlns="http://www.w3.org/2000/svg">
<path fill-rule="evenodd" clip-rule="evenodd" d="M221.814 539L184.507 523.505L146.737 501.453L104.481 468.134L66.2759 423.094L44.1221 368.9V322.174L62.0195 277.776L65.6093 231.986C65.6093 231.986 46.3528 170.166 47.2503 160.504C48.1477 150.843 64.2503 105.83 64.2503 105.83L138.558 7.71992L230.122 4C177.481 72.6446 120.148 153.921 98.6605 238.944C77.1734 323.967 90.9426 423.816 152.814 483.469C170.712 500.704 191.763 513.924 212.814 526.689L221.814 539Z" fill="#56B381" stroke="black" stroke-miterlimit="10"/>
<path fill-rule="evenodd" clip-rule="evenodd" d="M156.69 506.819C142.107 511.686 125.635 507.993 112.57 499.845C99.5276 491.698 89.4796 479.51 80.9074 466.714C70.4471 451.071 61.571 432.973 63.3506 414.224C63.9148 408.402 65.6292 402.449 69.6007 398.147C73.5721 393.845 80.1695 391.651 85.5082 394.063C94.2106 397.995 94.4493 409.944 95.1655 419.482C95.8165 428.085 97.9433 436.58 101.459 444.445C104.215 450.636 111.116 457.328 116.672 453.461C121.338 450.224 119.602 442.946 116.911 437.949C114.22 432.952 111.03 426.76 114.155 422.002C115.782 418.439 121.598 419.438 123.747 422.697C125.895 425.956 125.7 430.171 126.134 434.06C126.568 437.949 128.261 442.337 132.015 443.38C137.115 444.792 141.542 438.47 140.696 433.256C139.85 428.042 135.835 423.979 132.384 419.981C117.388 402.622 109.554 379.246 111.073 356.325C111.637 347.873 114.393 338.206 122.228 334.968C130.561 331.514 140.349 337.793 144.081 346.027C147.814 354.261 147.185 363.712 146.707 372.728C146.013 386.154 145.861 399.885 149.876 412.703C153.5 424.261 160.293 434.516 166.087 445.162C171.882 455.807 176.786 467.517 176.048 479.619C175.332 491.742 167.194 503.3 156.69 506.819Z" fill="#FFF58C" stroke="black" stroke-miterlimit="10"/>
<path fill-rule="evenodd" clip-rule="evenodd" d="M212.122 532.624C164.675 512.027 120.117 479.584 86.9892 438.87C73.6503 422.462 61.7047 404.507 54.4547 384.39C47.2047 364.3 44.9343 341.836 50.8684 321.292C54.2741 309.5 60.2082 298.694 64.6201 287.275C75.3016 259.582 76.5658 228.099 68.1548 199.578C65.1877 189.547 61.0596 179.809 59.2278 169.484C53.0873 134.613 73.9857 101.076 96.4064 74.2897C115.705 51.2382 139.493 27.92 162.327 8.60378L103.502 1C70.1156 28.0801 41.7866 61.7501 20.4753 99.6889C12.5803 113.723 5.58837 128.557 2.5955 144.511C-0.397365 160.439 0.918465 177.701 8.86505 191.708C17.663 207.236 33.5562 217.401 42.3542 232.928C50.8426 247.949 51.565 267.372 44.186 283.033C37.7617 296.667 26.0482 306.832 18.1017 319.585C1.84728 345.678 3.29212 380.601 15.8312 408.802C28.3703 437.003 50.5072 459.467 74.1405 478.57C113.125 510.106 161.682 535.585 211.038 539" fill="#EBEBEB"/>
<path d="M212.122 532.624C164.675 512.027 120.117 479.584 86.9892 438.87C73.6503 422.462 61.7047 404.507 54.4547 384.39C47.2047 364.3 44.9343 341.836 50.8684 321.292C54.2741 309.5 60.2082 298.694 64.6201 287.275C75.3016 259.582 76.5658 228.099 68.1548 199.578C65.1877 189.547 61.0596 179.809 59.2278 169.484C53.0873 134.613 73.9857 101.076 96.4064 74.2897C115.705 51.2382 139.493 27.92 162.327 8.60378L103.502 1C70.1156 28.0801 41.7866 61.7501 20.4753 99.6889C12.5803 113.723 5.58837 128.557 2.5955 144.511C-0.397365 160.439 0.918465 177.701 8.86505 191.708C17.663 207.236 33.5562 217.401 42.3542 232.928C50.8426 247.949 51.565 267.372 44.186 283.033C37.7617 296.667 26.0482 306.832 18.1017 319.585C1.84728 345.678 3.29212 380.601 15.8312 408.802C28.3703 437.003 50.5072 459.467 74.1405 478.57C113.125 510.106 161.682 535.585 211.038 539" stroke="black" stroke-miterlimit="10"/>
<mask id="mask0_410_1303" style="mask-type:luminance" maskUnits="userSpaceOnUse" x="1" y="0" width="211" height="540">
<path d="M211.732 532.612C164.345 511.977 119.844 479.474 86.7579 438.684C73.436 422.246 61.5055 404.257 54.2648 384.103C47.024 363.975 44.7565 341.469 50.683 320.887C54.0844 309.073 60.011 298.248 64.4173 286.807C75.0851 259.062 76.3477 227.521 67.9474 198.948C64.9841 188.897 60.8613 179.141 59.0318 168.797C52.8991 133.861 73.7709 100.262 96.1631 73.4259C115.437 50.3316 139.195 26.9701 162 7.61791L103.249 0C69.9058 27.1304 41.6128 60.863 20.3286 98.8724C12.4437 112.932 5.46062 127.794 2.47156 143.778C-0.517502 159.735 0.796654 177.029 8.73312 191.062C17.5199 206.619 33.3929 216.803 42.1797 232.359C50.6573 247.408 51.3788 266.867 44.0092 282.557C37.593 296.216 25.8945 306.4 17.958 319.177C1.72429 345.318 3.16729 380.307 15.6904 408.56C28.2136 436.813 50.3223 459.319 73.9256 478.458C112.861 510.052 161.356 535.579 210.649 539" fill="white"/>
</mask>
<g mask="url(#mask0_410_1303)">
<path d="M58.1777 -32.9843V162.221V602.189H73.1488V600.719" stroke="#4D4D4D" stroke-miterlimit="10"/>
<path d="M64.1489 -32.9843V162.221V602.189H79.12V600.719" stroke="#494949" stroke-miterlimit="10"/>
<path d="M70.1201 -32.9843V162.221V602.189H85.0912V600.719" stroke="#464646" stroke-miterlimit="10"/>
<path d="M76.0913 -32.9843V162.221V602.189H91.0624V600.719" stroke="#424242" stroke-miterlimit="10"/>
<path d="M82.0625 -32.9843V162.221V602.189H97.0336V600.719" stroke="#3E3E3E" stroke-miterlimit="10"/>
<path d="M88.0337 -32.9843V162.221V602.189H103.005V600.719" stroke="#3B3B3B" stroke-miterlimit="10"/>
<path d="M94.0049 -32.9843V162.221V602.189H108.976V600.719" stroke="#373737" stroke-miterlimit="10"/>
<path d="M99.9761 -32.9843V162.221V602.189H114.947V600.718" stroke="#333333" stroke-miterlimit="10"/>
<path d="M105.947 -32.9843V162.221V602.189H120.918V600.719" stroke="#303030" stroke-miterlimit="10"/>
<path d="M111.918 -32.9843V162.221V602.189H126.889V600.719" stroke="#2C2C2C" stroke-miterlimit="10"/>
<path d="M117.889 -32.9843V162.221V602.189H132.86V600.719" stroke="#282828" stroke-miterlimit="10"/>
<path d="M123.86 -32.9843V162.221V602.189H138.831V600.719" stroke="#252525" stroke-miterlimit="10"/>
<path d="M129.831 -32.9843V162.221V602.189H144.776V600.719" stroke="#212121" stroke-miterlimit="10"/>
<path d="M135.776 -32.9843V162.221V602.189H150.722V600.719" stroke="#1D1D1D" stroke-miterlimit="10"/>
<path d="M141.722 -32.9843V162.221V602.189H156.693V600.719" stroke="#1A1A1A" stroke-miterlimit="10"/>
<path d="M147.693 -32.9843V162.221V602.189H162.664V600.719" stroke="#161616" stroke-miterlimit="10"/>
<path d="M153.664 -32.9843V162.221V602.189H168.635V600.719" stroke="#121212" stroke-miterlimit="10"/>
<path d="M159.635 -32.9843V162.221V602.189H174.606V600.719" stroke="#0F0F0F" stroke-miterlimit="10"/>
<path d="M165.606 -32.9843V162.221V602.189H180.578V600.719" stroke="#0B0B0B" stroke-miterlimit="10"/>
<path d="M171.577 -32.9843V162.221V602.189H186.548V600.719" stroke="#070707" stroke-miterlimit="10"/>
<path d="M177.548 -32.9843V162.221V602.189H192.519V600.719" stroke="#040404" stroke-miterlimit="10"/>
<path d="M183.52 -32.9843V162.221V602.189H198.491V600.719" stroke="black" stroke-miterlimit="10"/>
</g>
<path d="M291.116 517.595C311.001 520.884 328.497 500.855 331.594 480.441C334.713 460.026 327.9 439.612 322.923 419.606C317.947 399.599 315.005 377.212 324.914 359.224C333.629 343.414 350.395 334.432 363.158 321.821C379.814 305.398 389.723 282.012 390.099 258.332C390.32 243.906 387.157 229.661 386.56 215.257C384.724 171.911 408.015 128.405 444.689 106.743L447.188 309.39L445.861 324.86L418.168 348.223L382.07 379.866L370.855 402.344L361.189 465.515L354.532 492.825L339.468 519.976L313.346 535.968L289.148 539.03L285.122 524.83L291.116 517.595Z" fill="#5A66FF"/>
<path d="M291.116 517.595C311.001 520.884 328.497 500.855 331.594 480.441C334.713 460.026 327.9 439.612 322.923 419.606C317.947 399.599 315.005 377.212 324.914 359.224C333.629 343.414 350.395 334.432 363.158 321.821C379.814 305.398 389.723 282.012 390.099 258.332C390.32 243.906 387.157 229.661 386.56 215.257C384.724 171.911 408.015 128.405 444.689 106.743L447.188 309.39L445.861 324.86L418.168 348.223L382.07 379.866L370.855 402.344L361.189 465.515L354.532 492.825L339.468 519.976L313.346 535.968L289.148 539.03L285.122 524.83L291.116 517.595Z" fill="#5A66FF" stroke="black" stroke-miterlimit="10"/>
<path d="M289.657 532.656C309.232 536.444 333.652 521.428 342.765 503.236C351.878 485.067 353.05 463.927 354.178 443.535C355.306 423.121 356.788 401.958 366.388 384.061C388.352 343.119 446.326 330.213 461.455 286.14L462.229 286.549C454.996 315.537 450.551 345.251 448.958 375.147C434.868 381.861 408.016 395.97 396.624 407.266C370.944 432.716 378.376 476.947 362.782 509.882C350.219 536.421 321.287 540.164 294.368 554C294.678 546.673 289.325 540.005 289.657 532.656Z" fill="#FF88B6"/>
<mask id="mask1_410_1303" style="mask-type:luminance" maskUnits="userSpaceOnUse" x="289" y="286" width="174" height="268">
<path d="M289.657 532.656C309.232 536.444 333.652 521.428 342.765 503.236C351.878 485.067 353.05 463.927 354.178 443.535C355.306 423.121 356.788 401.958 366.388 384.061C388.352 343.119 446.326 330.213 461.455 286.14L462.229 286.549C454.996 315.537 450.551 345.251 448.958 375.147C434.868 381.861 408.016 395.97 396.624 407.266C370.944 432.716 378.376 476.947 362.782 509.882C350.219 536.421 321.287 540.164 294.368 554C294.678 546.673 289.325 540.005 289.657 532.656Z" fill="white"/>
</mask>
<g mask="url(#mask1_410_1303)">
<path fill-rule="evenodd" clip-rule="evenodd" d="M309.431 98.9175V264.569V637.926H322.282V636.678" fill="#FF88B6"/>
<path d="M309.431 98.9175V264.569V637.926H322.282V636.678" stroke="black" stroke-miterlimit="10"/>
<path fill-rule="evenodd" clip-rule="evenodd" d="M316.282 98.9175V264.569V637.926H329.133V636.678" fill="#FF88B6"/>
<path d="M316.282 98.9175V264.569V637.926H329.133V636.678" stroke="black" stroke-miterlimit="10"/>
<path fill-rule="evenodd" clip-rule="evenodd" d="M323.133 98.9175V264.569V637.926H335.984V636.678" fill="#FF88B6"/>
<path d="M323.133 98.9175V264.569V637.926H335.984V636.678" stroke="black" stroke-miterlimit="10"/>
<path fill-rule="evenodd" clip-rule="evenodd" d="M329.984 98.9175V264.569V637.926H342.836V636.678" fill="#FF88B6"/>
<path d="M329.984 98.9175V264.569V637.926H342.836V636.678" stroke="black" stroke-miterlimit="10"/>
<path fill-rule="evenodd" clip-rule="evenodd" d="M336.835 98.9175V264.569V637.926H349.687V636.678" fill="#FF88B6"/>
<path d="M336.835 98.9175V264.569V637.926H349.687V636.678" stroke="black" stroke-miterlimit="10"/>
<path fill-rule="evenodd" clip-rule="evenodd" d="M343.687 98.9175V264.569V637.926H356.538V636.678" fill="#FF88B6"/>
<path d="M343.687 98.9175V264.569V637.926H356.538V636.678" stroke="black" stroke-miterlimit="10"/>
<path fill-rule="evenodd" clip-rule="evenodd" d="M350.538 98.9175V264.569V637.926H363.367V636.678" fill="#FF88B6"/>
<path d="M350.538 98.9175V264.569V637.926H363.367V636.678" stroke="black" stroke-miterlimit="10"/>
<path fill-rule="evenodd" clip-rule="evenodd" d="M357.367 98.9175V264.569V637.926H370.218V636.678" fill="#FF88B6"/>
<path d="M357.367 98.9175V264.569V637.926H370.218V636.678" stroke="black" stroke-miterlimit="10"/>
<path fill-rule="evenodd" clip-rule="evenodd" d="M364.218 98.9175V264.569V637.926H377.069V636.678" fill="#FF88B6"/>
<path d="M364.218 98.9175V264.569V637.926H377.069V636.678" stroke="black" stroke-miterlimit="10"/>
<path fill-rule="evenodd" clip-rule="evenodd" d="M371.069 98.9175V264.569V637.926H383.92V636.678" fill="#FF88B6"/>
<path d="M371.069 98.9175V264.569V637.926H383.92V636.678" stroke="black" stroke-miterlimit="10"/>
<path fill-rule="evenodd" clip-rule="evenodd" d="M377.92 98.9175V264.569V637.926H390.771V636.678" fill="#FF88B6"/>
<path d="M377.92 98.9175V264.569V637.926H390.771V636.678" stroke="black" stroke-miterlimit="10"/>
<path fill-rule="evenodd" clip-rule="evenodd" d="M384.771 98.9175V264.569V637.926H397.622V636.678" fill="#FF88B6"/>
<path d="M384.771 98.9175V264.569V637.926H397.622V636.678" stroke="black" stroke-miterlimit="10"/>
<path fill-rule="evenodd" clip-rule="evenodd" d="M391.622 98.9175V264.569V637.926H404.473V636.678" fill="#FF88B6"/>
<path d="M391.622 98.9175V264.569V637.926H404.473V636.678" stroke="black" stroke-miterlimit="10"/>
<path fill-rule="evenodd" clip-rule="evenodd" d="M398.473 98.9175V264.569V637.926H411.324V636.678" fill="#FF88B6"/>
<path d="M398.473 98.9175V264.569V637.926H411.324V636.678" stroke="black" stroke-miterlimit="10"/>
<path fill-rule="evenodd" clip-rule="evenodd" d="M405.324 98.9175V264.569V637.926H418.175V636.678" fill="#FF88B6"/>
<path d="M405.324 98.9175V264.569V637.926H418.175V636.678" stroke="black" stroke-miterlimit="10"/>
<path fill-rule="evenodd" clip-rule="evenodd" d="M412.175 98.9175V264.569V637.926H425.026V636.678" fill="#FF88B6"/>
<path d="M412.175 98.9175V264.569V637.926H425.026V636.678" stroke="black" stroke-miterlimit="10"/>
<path fill-rule="evenodd" clip-rule="evenodd" d="M419.026 98.9175V264.569V637.926H431.878V636.678" fill="#FF88B6"/>
<path d="M419.026 98.9175V264.569V637.926H431.878V636.678" stroke="black" stroke-miterlimit="10"/>
<path fill-rule="evenodd" clip-rule="evenodd" d="M425.877 98.9175V264.569V637.926H438.729V636.678" fill="#FF88B6"/>
<path d="M425.877 98.9175V264.569V637.926H438.729V636.678" stroke="black" stroke-miterlimit="10"/>
<path fill-rule="evenodd" clip-rule="evenodd" d="M432.729 98.9175V264.569V637.926H445.58V636.678" fill="#FF88B6"/>
<path d="M432.729 98.9175V264.569V637.926H445.58V636.678" stroke="black" stroke-miterlimit="10"/>
<path fill-rule="evenodd" clip-rule="evenodd" d="M439.58 98.9175V264.569V637.926H452.431V636.678" fill="#FF88B6"/>
<path d="M439.58 98.9175V264.569V637.926H452.431V636.678" stroke="black" stroke-miterlimit="10"/>
<path fill-rule="evenodd" clip-rule="evenodd" d="M446.431 98.9175V264.569V637.926H459.282V636.678" fill="#FF88B6"/>
<path d="M446.431 98.9175V264.569V637.926H459.282V636.678" stroke="black" stroke-miterlimit="10"/>
<path fill-rule="evenodd" clip-rule="evenodd" d="M453.282 98.9175V264.569V637.926H466.133V636.678" fill="#FF88B6"/>
<path d="M453.282 98.9175V264.569V637.926H466.133V636.678" stroke="black" stroke-miterlimit="10"/>
</g>
<path d="M289.657 532.656C309.232 536.444 333.652 521.428 342.765 503.236C351.878 485.067 353.05 463.927 354.178 443.535C355.306 423.121 356.788 401.958 366.388 384.061C388.352 343.119 446.326 330.213 461.455 286.14L462.229 286.549C454.996 315.537 450.551 345.251 448.958 375.147C434.868 381.861 408.016 395.97 396.624 407.266C370.944 432.716 378.376 476.947 362.782 509.882C350.219 536.421 321.287 540.164 294.368 554C294.678 546.673 289.325 540.005 289.657 532.656Z" stroke="black" stroke-miterlimit="10"/>
<path fill-rule="evenodd" clip-rule="evenodd" d="M361.332 406.686C355.833 397.432 346.104 390.757 335.456 388.942C326.375 387.386 315.494 390.286 311.844 398.654C310.013 402.836 310.143 407.992 307.045 411.351C304.085 414.563 298.775 415.378 296.735 419.242C295.285 421.97 296.072 425.468 297.907 427.978C299.743 430.489 302.464 432.196 305.179 433.739C308.722 435.757 312.55 437.631 316.62 437.564C319.357 437.523 321.994 436.594 324.71 436.251C328.091 435.828 331.595 436.315 334.742 437.674C338.985 439.505 342.588 442.854 347.095 443.873C355.495 445.784 363.758 438.38 365.582 430.039C367.42 421.703 364.976 412.805 361.332 406.686Z" fill="#56B381" stroke="black" stroke-miterlimit="10"/>
<path fill-rule="evenodd" clip-rule="evenodd" d="M31.1088 460.761C47.0664 456.09 65.3482 462.039 77.9997 470.774C90.6513 479.509 99.7021 490.849 111.666 500.124C118.278 505.254 125.758 509.711 133.876 513.399C161.536 525.935 195.383 528.656 227.347 525.689C259.311 522.723 289.95 514.431 320.261 506.139C332.602 502.763 345.188 499.272 355.401 493.029C380.59 477.64 385.565 449.634 407.169 431.394C423.487 417.612 449.15 410.614 472.26 415.613C476.139 482.688 480.034 549.796 478.97 616.937C478.234 663.658 475.124 710.625 483.537 756.905C484.11 760.035 484.699 763.378 483.013 766.278C479.658 772.08 469.576 773.079 461.245 773.26C335.695 775.947 210.047 778.651 84.4974 775.751C65.5446 775.308 45.7244 774.554 29.3739 767.278C23.7437 764.771 18.5718 761.411 15.6258 756.987C12.9744 752.988 12.3197 748.416 11.8941 743.942C7.19687 693.992 25.6095 644.124 22.1725 594.108C20.6177 571.542 14.6274 549.222 13.4163 526.64C12.2051 504.041 16.2477 480.377 31.1088 460.761Z" fill="#F5F5F5" stroke="black" stroke-miterlimit="10"/>
<path fill-rule="evenodd" clip-rule="evenodd" d="M286.677 483.876C287.302 478.767 287.841 478.141 286.785 474.131C285.793 470.401 284.025 466.974 283.055 463.222C282.106 459.579 280.662 456.431 277.104 454.62C273.547 452.787 271.348 449.575 268.071 447.613C265.096 445.824 262.336 443.56 259.21 442.158C254.683 440.132 249.681 439.83 244.808 438.946C239.44 437.976 234.977 439.571 231.01 443.107C228.94 444.961 226.612 446.6 224.822 448.691C221.998 451.968 218.441 454.792 217.428 459.471C215.444 468.612 205.613 471.717 206.324 482.302C206.691 487.649 207.683 491.94 211.305 495.734C212.059 496.532 212.706 497.674 212.835 498.731C213.956 506.6 218.894 512.421 224.219 517.401C229.63 522.446 236.659 525.249 244.205 526.068C248.193 526.521 252.246 527.233 256.213 526.974C262.228 526.586 267.985 524.516 272.512 520.549C274.841 518.523 277.859 517.078 279.735 514.577C281.912 511.645 280.985 508.39 282.473 505.285C283.551 503 285.125 501.253 285.858 498.731C287.194 494.397 286.828 489.59 286.677 483.876Z" fill="#5A66FF" stroke="black" stroke-miterlimit="10"/>
<path d="M236.939 472.73C237.111 478.077 246.727 477.387 245.024 471.975" stroke="black" stroke-miterlimit="10" stroke-linecap="round" stroke-linejoin="round"/>
<path d="M248.753 471.846C248.947 473.441 250.069 474.908 251.578 475.49C253.087 476.072 254.898 475.727 256.105 474.67C257.313 473.592 257.873 471.846 257.485 470.272" stroke="black" stroke-miterlimit="10" stroke-linecap="round" stroke-linejoin="round"/>
<path d="M231.161 479.413C232.412 482.389 234.999 484.674 237.909 486.075C240.82 487.477 244.075 488.037 247.288 488.253C249.185 488.382 251.104 488.382 253.001 488.037C259.663 486.83 265.182 480.901 265.894 474.174" stroke="black" stroke-miterlimit="10" stroke-linecap="round" stroke-linejoin="round"/>
<path d="M265.806 446.3C264.88 445.211 264.995 443.664 264.965 442.249C264.924 439.584 264.208 436.985 263.496 434.418C262.884 432.235 262.119 429.823 259.985 428.718C259.196 428.304 258.308 428.117 257.49 427.756C256.671 427.395 255.911 426.78 255.809 425.952C255.765 425.594 255.845 425.222 255.892 424.87C256.495 420.707 253.636 416.938 250.989 413.571C250.54 413 250.099 412.197 250.609 411.656C250.784 411.469 251.024 411.374 251.246 411.28C253.206 410.528 255.59 410.003 256.524 408.239C256.742 407.817 256.879 407.322 257.316 407.07C257.686 406.86 258.157 406.884 258.579 406.947C262.399 407.416 266.607 408.398 269.879 406.461C270.777 406.153 271.14 405.597 270.856 405.187C270.745 405.019 270.536 404.929 270.345 404.838C269.601 404.501 268.857 404.164 268.114 403.827C266.437 403.077 264.741 402.313 262.905 401.88C260.756 401.387 258.391 401.332 256.594 400.185C255.492 397.964 252.708 396.707 249.965 396.502C247.221 396.296 244.493 396.945 241.82 397.604C240.388 397.962 238.869 398.347 237.797 399.287C236.14 400.745 235.924 403.079 234.627 404.822C233.25 406.657 230.754 407.723 229.78 409.755C229.264 410.825 229.25 412.03 229.105 413.185C228.77 415.584 227.756 417.869 226.755 420.119C225.87 421.119 225.143 423.104 225.111 424.889C225.079 426.673 225.6 428.422 225.55 430.209C225.494 432.376 224.615 434.446 223.692 436.456C223.225 437.486 222.725 438.537 222.717 439.643C222.722 440.12 222.799 440.605 222.787 441.085C222.701 442.728 221.283 444.073 220.85 445.676C220.422 447.311 221.148 449.118 221.973 450.55C217.014 450.485 211.99 451.78 207.735 454.217C207.265 454.489 206.767 454.831 206.683 455.319C206.594 455.907 207.138 456.384 207.663 456.699C209.139 457.572 210.898 457.965 212.646 458.277C217.522 459.127 222.5 459.354 227.482 459.317C246.06 459.17 264.625 455.266 281.706 448.231C282.082 448.07 282.492 447.887 282.627 447.524C282.894 446.766 281.722 446.317 280.871 446.273C275.663 445.943 270.398 446.015 265.806 446.3Z" fill="#B180E0"/>
<path d="M265.806 446.3C264.88 445.211 264.995 443.664 264.965 442.249C264.924 439.584 264.208 436.985 263.496 434.418C262.884 432.235 262.119 429.823 259.985 428.718C259.196 428.304 258.308 428.117 257.49 427.756C256.671 427.395 255.911 426.78 255.809 425.952C255.765 425.594 255.845 425.222 255.892 424.87C256.495 420.707 253.636 416.938 250.989 413.571C250.54 413 250.099 412.197 250.609 411.656C250.784 411.469 251.024 411.374 251.246 411.28C253.206 410.528 255.59 410.003 256.524 408.239C256.742 407.817 256.879 407.322 257.316 407.07C257.686 406.86 258.157 406.884 258.579 406.947C262.399 407.416 266.607 408.398 269.879 406.461C270.777 406.153 271.14 405.597 270.856 405.187C270.745 405.019 270.536 404.929 270.345 404.838C269.601 404.501 268.857 404.164 268.114 403.827C266.437 403.077 264.741 402.313 262.905 401.88C260.756 401.387 258.391 401.332 256.594 400.185C255.492 397.964 252.708 396.707 249.965 396.502C247.221 396.296 244.493 396.945 241.82 397.604C240.388 397.962 238.869 398.347 237.797 399.287C236.14 400.745 235.924 403.079 234.627 404.822C233.25 406.657 230.754 407.723 229.78 409.755C229.264 410.825 229.25 412.03 229.105 413.185C228.77 415.584 227.756 417.869 226.755 420.119C225.87 421.119 225.143 423.104 225.111 424.889C225.079 426.673 225.6 428.422 225.55 430.209C225.494 432.376 224.615 434.446 223.692 436.456C223.225 437.486 222.725 438.537 222.717 439.643C222.722 440.12 222.799 440.605 222.787 441.085C222.701 442.728 221.283 444.073 220.85 445.676C220.422 447.311 221.148 449.118 221.973 450.55C217.014 450.485 211.99 451.78 207.735 454.217C207.265 454.489 206.767 454.831 206.683 455.319C206.594 455.907 207.138 456.384 207.663 456.699C209.139 457.572 210.898 457.965 212.646 458.277C217.522 459.127 222.5 459.354 227.482 459.317C246.06 459.17 264.625 455.266 281.706 448.231C282.082 448.07 282.492 447.887 282.627 447.524C282.894 446.766 281.722 446.317 280.871 446.273C275.663 445.943 270.398 446.015 265.806 446.3Z" stroke="#120000" stroke-miterlimit="10" stroke-linecap="round" stroke-linejoin="round"/>
<path d="M250.482 411.655C247.928 410.651 245.301 409.639 242.651 409.9C242.259 409.932 241.855 410.015 241.505 410.239C241.172 410.462 240.901 410.891 240.922 411.35C240.942 411.809 241.244 412.217 241.611 412.419C241.978 412.621 242.394 412.636 242.8 412.569" stroke="#120000" stroke-miterlimit="10" stroke-linecap="round" stroke-linejoin="round"/>
<path d="M228.329 424.855C231.711 426.004 235.077 427.172 238.459 428.321C239.887 428.805 241.407 429.31 242.901 429.01C243.868 428.825 244.74 428.306 245.517 427.748C248.064 425.917 249.998 423.354 250.965 420.531C251.167 419.979 251.327 419.382 251.72 418.922C252.114 418.461 252.834 418.174 253.404 418.417C253.537 418.615 253.649 418.799 253.782 418.997" stroke="#120000" stroke-miterlimit="10" stroke-linecap="round" stroke-linejoin="round"/>
<path d="M229.459 422.193C233.385 423.671 237.331 425.163 241.258 426.641C241.654 426.79 242.069 426.936 242.514 426.898C242.869 426.854 243.19 426.683 243.491 426.497C245.888 425.064 247.762 422.888 248.737 420.427C249.371 418.848 249.692 417.077 251.005 415.893" stroke="#120000" stroke-miterlimit="10" stroke-linecap="round" stroke-linejoin="round"/>
<path d="M250.798 422.827C251.516 422.376 252.294 421.967 253.079 421.622C254.711 422.443 255.735 424.18 255.606 425.911C255.464 427.676 254.247 429.343 254.481 431.094" stroke="#120000" stroke-miterlimit="10" stroke-linecap="round" stroke-linejoin="round"/>
<path d="M230.67 425.885C229.963 425.989 229.206 426.132 228.746 426.633C228.539 426.857 228.41 427.12 228.298 427.381C227.776 428.55 227.406 429.783 227.219 431.042" stroke="#120000" stroke-miterlimit="10" stroke-linecap="round" stroke-linejoin="round"/>
<path d="M225.026 439.539C229.702 437.166 234.396 434.79 239.072 432.417C240.106 431.894 241.157 431.369 242.312 431.243C244.638 430.989 246.703 432.4 248.825 433.259C252.481 434.737 256.894 434.606 260.501 432.908" stroke="#120000" stroke-miterlimit="10" stroke-linecap="round" stroke-linejoin="round"/>
<path d="M224.877 438.041C228.365 435.814 231.984 433.769 235.697 431.91C238.51 430.491 241.694 429.159 244.792 429.75C247.244 430.222 249.263 431.853 251.73 432.291C254.011 432.686 256.51 431.932 258.115 430.35" stroke="#120000" stroke-miterlimit="10" stroke-linecap="round" stroke-linejoin="round"/>
<path d="M263.711 439.09C263.003 439.771 262.233 440.393 261.401 440.941C261.019 441.203 260.598 441.436 260.141 441.525C259.191 441.708 258.264 441.196 257.292 441.052C255.717 440.834 254.211 441.613 252.762 442.27C247.849 444.475 242.239 445.265 236.887 444.49C234.981 444.214 233.033 443.746 231.132 444.095C228.65 444.55 226.686 446.292 224.471 447.455C224.24 447.039 224.007 446.606 223.864 446.327C224.699 444.921 226.395 444.218 227.96 443.629C229.455 443.049 230.952 442.485 232.512 442.145C236.875 441.178 241.445 442.033 245.912 441.614C250.769 441.147 255.566 439.171 263.711 439.09Z" stroke="#120000" stroke-miterlimit="10" stroke-linecap="round" stroke-linejoin="round"/>
<path d="M225.447 449.379C226.382 448.489 227.349 447.579 228.564 447.066C229.744 446.558 231.08 446.443 232.359 446.599C233.637 446.738 234.871 447.113 236.058 447.544" stroke="#120000" stroke-miterlimit="10" stroke-linecap="round" stroke-linejoin="round"/>
<path d="M250.851 447.946C253.885 446.121 257.14 444.632 260.529 443.505" stroke="#120000" stroke-miterlimit="10" stroke-linecap="round" stroke-linejoin="round"/>
</svg>
